# Objet du port. Généré par tools/build_port_objects.py : modifier ce script plutôt que ce fichier.
mtllib nav_buoy_red.mtl
v 6.0000 -4.0000 0.0000 0.7894 0.7894 0.7894
v 4.8541 -4.0000 3.5267 0.7894 0.7894 0.7894
v 4.8541 2.0000 3.5267 0.7894 0.7894 0.7894
v 6.0000 2.0000 0.0000 0.7894 0.7894 0.7894
v 4.8541 -4.0000 3.5267 0.8295 0.8295 0.8295
v 1.8541 -4.0000 5.7063 0.8295 0.8295 0.8295
v 1.8541 2.0000 5.7063 0.8295 0.8295 0.8295
v 4.8541 2.0000 3.5267 0.8295 0.8295 0.8295
v 1.8541 -4.0000 5.7063 0.8800 0.8800 0.8800
v -1.8541 -4.0000 5.7063 0.8800 0.8800 0.8800
v -1.8541 2.0000 5.7063 0.8800 0.8800 0.8800
v 1.8541 2.0000 5.7063 0.8800 0.8800 0.8800
v -1.8541 -4.0000 5.7063 0.8295 0.8295 0.8295
v -4.8541 -4.0000 3.5267 0.8295 0.8295 0.8295
v -4.8541 2.0000 3.5267 0.8295 0.8295 0.8295
v -1.8541 2.0000 5.7063 0.8295 0.8295 0.8295
v -4.8541 -4.0000 3.5267 0.7894 0.7894 0.7894
v -6.0000 -4.0000 0.0000 0.7894 0.7894 0.7894
v -6.0000 2.0000 0.0000 0.7894 0.7894 0.7894
v -4.8541 2.0000 3.5267 0.7894 0.7894 0.7894
v -6.0000 -4.0000 0.0000 0.7355 0.7355 0.7355
v -4.8541 -4.0000 -3.5267 0.7355 0.7355 0.7355
v -4.8541 2.0000 -3.5267 0.7355 0.7355 0.7355
v -6.0000 2.0000 0.0000 0.7355 0.7355 0.7355
v -4.8541 -4.0000 -3.5267 0.7021 0.7021 0.7021
v -1.8541 -4.0000 -5.7063 0.7021 0.7021 0.7021
v -1.8541 2.0000 -5.7063 0.7021 0.7021 0.7021
v -4.8541 2.0000 -3.5267 0.7021 0.7021 0.7021
v -1.8541 -4.0000 -5.7063 0.6600 0.6600 0.6600
v 1.8541 -4.0000 -5.7063 0.6600 0.6600 0.6600
v 1.8541 2.0000 -5.7063 0.6600 0.6600 0.6600
v -1.8541 2.0000 -5.7063 0.6600 0.6600 0.6600
v 1.8541 -4.0000 -5.7063 0.7021 0.7021 0.7021
v 4.8541 -4.0000 -3.5267 0.7021 0.7021 0.7021
v 4.8541 2.0000 -3.5267 0.7021 0.7021 0.7021
v 1.8541 2.0000 -5.7063 0.7021 0.7021 0.7021
v 4.8541 -4.0000 -3.5267 0.7355 0.7355 0.7355
v 6.0000 -4.0000 -0.0000 0.7355 0.7355 0.7355
v 6.0000 2.0000 -0.0000 0.7355 0.7355 0.7355
v 4.8541 2.0000 -3.5267 0.7355 0.7355 0.7355
v 6.0000 2.0000 0.0000 1.0000 1.0000 1.0000
v 4.8541 2.0000 3.5267 1.0000 1.0000 1.0000
v 1.8541 2.0000 5.7063 1.0000 1.0000 1.0000
v -1.8541 2.0000 5.7063 1.0000 1.0000 1.0000
v -4.8541 2.0000 3.5267 1.0000 1.0000 1.0000
v -6.0000 2.0000 0.0000 1.0000 1.0000 1.0000
v -4.8541 2.0000 -3.5267 1.0000 1.0000 1.0000
v -1.8541 2.0000 -5.7063 1.0000 1.0000 1.0000
v 1.8541 2.0000 -5.7063 1.0000 1.0000 1.0000
v 4.8541 2.0000 -3.5267 1.0000 1.0000 1.0000
v 4.4000 2.0000 0.0000 0.8076 0.8076 0.8076
v 3.5597 2.0000 2.5863 0.8076 0.8076 0.8076
v 2.7507 13.0000 1.9985 0.8076 0.8076 0.8076
v 3.4000 13.0000 0.0000 0.8076 0.8076 0.8076
v 3.5597 2.0000 2.5863 0.8442 0.8442 0.8442
v 1.3597 2.0000 4.1846 0.8442 0.8442 0.8442
v 1.0507 13.0000 3.2336 0.8442 0.8442 0.8442
v 2.7507 13.0000 1.9985 0.8442 0.8442 0.8442
v 1.3597 2.0000 4.1846 0.8903 0.8903 0.8903
v -1.3597 2.0000 4.1846 0.8903 0.8903 0.8903
v -1.0507 13.0000 3.2336 0.8903 0.8903 0.8903
v 1.0507 13.0000 3.2336 0.8903 0.8903 0.8903
v -1.3597 2.0000 4.1846 0.8442 0.8442 0.8442
v -3.5597 2.0000 2.5863 0.8442 0.8442 0.8442
v -2.7507 13.0000 1.9985 0.8442 0.8442 0.8442
v -1.0507 13.0000 3.2336 0.8442 0.8442 0.8442
v -3.5597 2.0000 2.5863 0.8076 0.8076 0.8076
v -4.4000 2.0000 0.0000 0.8076 0.8076 0.8076
v -3.4000 13.0000 0.0000 0.8076 0.8076 0.8076
v -2.7507 13.0000 1.9985 0.8076 0.8076 0.8076
v -4.4000 2.0000 0.0000 0.7583 0.7583 0.7583
v -3.5597 2.0000 -2.5863 0.7583 0.7583 0.7583
v -2.7507 13.0000 -1.9985 0.7583 0.7583 0.7583
v -3.4000 13.0000 0.0000 0.7583 0.7583 0.7583
v -3.5597 2.0000 -2.5863 0.7277 0.7277 0.7277
v -1.3597 2.0000 -4.1846 0.7277 0.7277 0.7277
v -1.0507 13.0000 -3.2336 0.7277 0.7277 0.7277
v -2.7507 13.0000 -1.9985 0.7277 0.7277 0.7277
v -1.3597 2.0000 -4.1846 0.6893 0.6893 0.6893
v 1.3597 2.0000 -4.1846 0.6893 0.6893 0.6893
v 1.0507 13.0000 -3.2336 0.6893 0.6893 0.6893
v -1.0507 13.0000 -3.2336 0.6893 0.6893 0.6893
v 1.3597 2.0000 -4.1846 0.7277 0.7277 0.7277
v 3.5597 2.0000 -2.5863 0.7277 0.7277 0.7277
v 2.7507 13.0000 -1.9985 0.7277 0.7277 0.7277
v 1.0507 13.0000 -3.2336 0.7277 0.7277 0.7277
v 3.5597 2.0000 -2.5863 0.7583 0.7583 0.7583
v 4.4000 2.0000 -0.0000 0.7583 0.7583 0.7583
v 3.4000 13.0000 -0.0000 0.7583 0.7583 0.7583
v 2.7507 13.0000 -1.9985 0.7583 0.7583 0.7583
v 3.4000 13.0000 0.0000 1.0000 1.0000 1.0000
v 2.7507 13.0000 1.9985 1.0000 1.0000 1.0000
v 1.0507 13.0000 3.2336 1.0000 1.0000 1.0000
v -1.0507 13.0000 3.2336 1.0000 1.0000 1.0000
v -2.7507 13.0000 1.9985 1.0000 1.0000 1.0000
v -3.4000 13.0000 0.0000 1.0000 1.0000 1.0000
v -2.7507 13.0000 -1.9985 1.0000 1.0000 1.0000
v -1.0507 13.0000 -3.2336 1.0000 1.0000 1.0000
v 1.0507 13.0000 -3.2336 1.0000 1.0000 1.0000
v 2.7507 13.0000 -1.9985 1.0000 1.0000 1.0000
v -1.2000 25.0000 -1.2000 1.0000 1.0000 1.0000
v 1.2000 25.0000 -1.2000 1.0000 1.0000 1.0000
v 1.2000 25.0000 1.2000 1.0000 1.0000 1.0000
v -1.2000 25.0000 1.2000 1.0000 1.0000 1.0000
v -1.2000 22.0000 1.2000 0.5500 0.5500 0.5500
v 1.2000 22.0000 1.2000 0.5500 0.5500 0.5500
v 1.2000 22.0000 -1.2000 0.5500 0.5500 0.5500
v -1.2000 22.0000 -1.2000 0.5500 0.5500 0.5500
v -1.2000 25.0000 1.2000 0.8800 0.8800 0.8800
v 1.2000 25.0000 1.2000 0.8800 0.8800 0.8800
v 1.2000 22.0000 1.2000 0.8800 0.8800 0.8800
v -1.2000 22.0000 1.2000 0.8800 0.8800 0.8800
v 1.2000 25.0000 -1.2000 0.6600 0.6600 0.6600
v -1.2000 25.0000 -1.2000 0.6600 0.6600 0.6600
v -1.2000 22.0000 -1.2000 0.6600 0.6600 0.6600
v 1.2000 22.0000 -1.2000 0.6600 0.6600 0.6600
v -1.2000 25.0000 -1.2000 0.7600 0.7600 0.7600
v -1.2000 25.0000 1.2000 0.7600 0.7600 0.7600
v -1.2000 22.0000 1.2000 0.7600 0.7600 0.7600
v -1.2000 22.0000 -1.2000 0.7600 0.7600 0.7600
v 1.2000 25.0000 1.2000 0.7600 0.7600 0.7600
v 1.2000 25.0000 -1.2000 0.7600 0.7600 0.7600
v 1.2000 22.0000 -1.2000 0.7600 0.7600 0.7600
v 1.2000 22.0000 1.2000 0.7600 0.7600 0.7600
v -2.6000 21.0000 -2.6000 1.0000 1.0000 1.0000
v -1.8000 21.0000 -2.6000 1.0000 1.0000 1.0000
v -1.8000 21.0000 -1.8000 1.0000 1.0000 1.0000
v -2.6000 21.0000 -1.8000 1.0000 1.0000 1.0000
v -2.6000 13.0000 -1.8000 0.5500 0.5500 0.5500
v -1.8000 13.0000 -1.8000 0.5500 0.5500 0.5500
v -1.8000 13.0000 -2.6000 0.5500 0.5500 0.5500
v -2.6000 13.0000 -2.6000 0.5500 0.5500 0.5500
v -2.6000 21.0000 -1.8000 0.8800 0.8800 0.8800
v -1.8000 21.0000 -1.8000 0.8800 0.8800 0.8800
v -1.8000 13.0000 -1.8000 0.8800 0.8800 0.8800
v -2.6000 13.0000 -1.8000 0.8800 0.8800 0.8800
v -1.8000 21.0000 -2.6000 0.6600 0.6600 0.6600
v -2.6000 21.0000 -2.6000 0.6600 0.6600 0.6600
v -2.6000 13.0000 -2.6000 0.6600 0.6600 0.6600
v -1.8000 13.0000 -2.6000 0.6600 0.6600 0.6600
v -2.6000 21.0000 -2.6000 0.7600 0.7600 0.7600
v -2.6000 21.0000 -1.8000 0.7600 0.7600 0.7600
v -2.6000 13.0000 -1.8000 0.7600 0.7600 0.7600
v -2.6000 13.0000 -2.6000 0.7600 0.7600 0.7600
v -1.8000 21.0000 -1.8000 0.7600 0.7600 0.7600
v -1.8000 21.0000 -2.6000 0.7600 0.7600 0.7600
v -1.8000 13.0000 -2.6000 0.7600 0.7600 0.7600
v -1.8000 13.0000 -1.8000 0.7600 0.7600 0.7600
v 1.8000 21.0000 -2.6000 1.0000 1.0000 1.0000
v 2.6000 21.0000 -2.6000 1.0000 1.0000 1.0000
v 2.6000 21.0000 -1.8000 1.0000 1.0000 1.0000
v 1.8000 21.0000 -1.8000 1.0000 1.0000 1.0000
v 1.8000 13.0000 -1.8000 0.5500 0.5500 0.5500
v 2.6000 13.0000 -1.8000 0.5500 0.5500 0.5500
v 2.6000 13.0000 -2.6000 0.5500 0.5500 0.5500
v 1.8000 13.0000 -2.6000 0.5500 0.5500 0.5500
v 1.8000 21.0000 -1.8000 0.8800 0.8800 0.8800
v 2.6000 21.0000 -1.8000 0.8800 0.8800 0.8800
v 2.6000 13.0000 -1.8000 0.8800 0.8800 0.8800
v 1.8000 13.0000 -1.8000 0.8800 0.8800 0.8800
v 2.6000 21.0000 -2.6000 0.6600 0.6600 0.6600
v 1.8000 21.0000 -2.6000 0.6600 0.6600 0.6600
v 1.8000 13.0000 -2.6000 0.6600 0.6600 0.6600
v 2.6000 13.0000 -2.6000 0.6600 0.6600 0.6600
v 1.8000 21.0000 -2.6000 0.7600 0.7600 0.7600
v 1.8000 21.0000 -1.8000 0.7600 0.7600 0.7600
v 1.8000 13.0000 -1.8000 0.7600 0.7600 0.7600
v 1.8000 13.0000 -2.6000 0.7600 0.7600 0.7600
v 2.6000 21.0000 -1.8000 0.7600 0.7600 0.7600
v 2.6000 21.0000 -2.6000 0.7600 0.7600 0.7600
v 2.6000 13.0000 -2.6000 0.7600 0.7600 0.7600
v 2.6000 13.0000 -1.8000 0.7600 0.7600 0.7600
v 1.8000 21.0000 1.8000 1.0000 1.0000 1.0000
v 2.6000 21.0000 1.8000 1.0000 1.0000 1.0000
v 2.6000 21.0000 2.6000 1.0000 1.0000 1.0000
v 1.8000 21.0000 2.6000 1.0000 1.0000 1.0000
v 1.8000 13.0000 2.6000 0.5500 0.5500 0.5500
v 2.6000 13.0000 2.6000 0.5500 0.5500 0.5500
v 2.6000 13.0000 1.8000 0.5500 0.5500 0.5500
v 1.8000 13.0000 1.8000 0.5500 0.5500 0.5500
v 1.8000 21.0000 2.6000 0.8800 0.8800 0.8800
v 2.6000 21.0000 2.6000 0.8800 0.8800 0.8800
v 2.6000 13.0000 2.6000 0.8800 0.8800 0.8800
v 1.8000 13.0000 2.6000 0.8800 0.8800 0.8800
v 2.6000 21.0000 1.8000 0.6600 0.6600 0.6600
v 1.8000 21.0000 1.8000 0.6600 0.6600 0.6600
v 1.8000 13.0000 1.8000 0.6600 0.6600 0.6600
v 2.6000 13.0000 1.8000 0.6600 0.6600 0.6600
v 1.8000 21.0000 1.8000 0.7600 0.7600 0.7600
v 1.8000 21.0000 2.6000 0.7600 0.7600 0.7600
v 1.8000 13.0000 2.6000 0.7600 0.7600 0.7600
v 1.8000 13.0000 1.8000 0.7600 0.7600 0.7600
v 2.6000 21.0000 2.6000 0.7600 0.7600 0.7600
v 2.6000 21.0000 1.8000 0.7600 0.7600 0.7600
v 2.6000 13.0000 1.8000 0.7600 0.7600 0.7600
v 2.6000 13.0000 2.6000 0.7600 0.7600 0.7600
v -2.6000 21.0000 1.8000 1.0000 1.0000 1.0000
v -1.8000 21.0000 1.8000 1.0000 1.0000 1.0000
v -1.8000 21.0000 2.6000 1.0000 1.0000 1.0000
v -2.6000 21.0000 2.6000 1.0000 1.0000 1.0000
v -2.6000 13.0000 2.6000 0.5500 0.5500 0.5500
v -1.8000 13.0000 2.6000 0.5500 0.5500 0.5500
v -1.8000 13.0000 1.8000 0.5500 0.5500 0.5500
v -2.6000 13.0000 1.8000 0.5500 0.5500 0.5500
v -2.6000 21.0000 2.6000 0.8800 0.8800 0.8800
v -1.8000 21.0000 2.6000 0.8800 0.8800 0.8800
v -1.8000 13.0000 2.6000 0.8800 0.8800 0.8800
v -2.6000 13.0000 2.6000 0.8800 0.8800 0.8800
v -1.8000 21.0000 1.8000 0.6600 0.6600 0.6600
v -2.6000 21.0000 1.8000 0.6600 0.6600 0.6600
v -2.6000 13.0000 1.8000 0.6600 0.6600 0.6600
v -1.8000 13.0000 1.8000 0.6600 0.6600 0.6600
v -2.6000 21.0000 1.8000 0.7600 0.7600 0.7600
v -2.6000 21.0000 2.6000 0.7600 0.7600 0.7600
v -2.6000 13.0000 2.6000 0.7600 0.7600 0.7600
v -2.6000 13.0000 1.8000 0.7600 0.7600 0.7600
v -1.8000 21.0000 2.6000 0.7600 0.7600 0.7600
v -1.8000 21.0000 1.8000 0.7600 0.7600 0.7600
v -1.8000 13.0000 1.8000 0.7600 0.7600 0.7600
v -1.8000 13.0000 2.6000 0.7600 0.7600 0.7600
v -2.6000 22.0000 -2.6000 1.0000 1.0000 1.0000
v 2.6000 22.0000 -2.6000 1.0000 1.0000 1.0000
v 2.6000 22.0000 2.6000 1.0000 1.0000 1.0000
v -2.6000 22.0000 2.6000 1.0000 1.0000 1.0000
v -2.6000 21.0000 2.6000 0.5500 0.5500 0.5500
v 2.6000 21.0000 2.6000 0.5500 0.5500 0.5500
v 2.6000 21.0000 -2.6000 0.5500 0.5500 0.5500
v -2.6000 21.0000 -2.6000 0.5500 0.5500 0.5500
v -2.6000 22.0000 2.6000 0.8800 0.8800 0.8800
v 2.6000 22.0000 2.6000 0.8800 0.8800 0.8800
v 2.6000 21.0000 2.6000 0.8800 0.8800 0.8800
v -2.6000 21.0000 2.6000 0.8800 0.8800 0.8800
v 2.6000 22.0000 -2.6000 0.6600 0.6600 0.6600
v -2.6000 22.0000 -2.6000 0.6600 0.6600 0.6600
v -2.6000 21.0000 -2.6000 0.6600 0.6600 0.6600
v 2.6000 21.0000 -2.6000 0.6600 0.6600 0.6600
v -2.6000 22.0000 -2.6000 0.7600 0.7600 0.7600
v -2.6000 22.0000 2.6000 0.7600 0.7600 0.7600
v -2.6000 21.0000 2.6000 0.7600 0.7600 0.7600
v -2.6000 21.0000 -2.6000 0.7600 0.7600 0.7600
v 2.6000 22.0000 2.6000 0.7600 0.7600 0.7600
v 2.6000 22.0000 -2.6000 0.7600 0.7600 0.7600
v 2.6000 21.0000 -2.6000 0.7600 0.7600 0.7600
v 2.6000 21.0000 2.6000 0.7600 0.7600 0.7600
v 1.6000 25.0000 0.0000 0.7951 0.7951 0.7951
v 1.1314 25.0000 1.1314 0.7951 0.7951 0.7951
v 1.1314 28.0000 1.1314 0.7951 0.7951 0.7951
v 1.6000 28.0000 0.0000 0.7951 0.7951 0.7951
v 1.1314 25.0000 1.1314 0.8449 0.8449 0.8449
v 0.0000 25.0000 1.6000 0.8449 0.8449 0.8449
v 0.0000 28.0000 1.6000 0.8449 0.8449 0.8449
v 1.1314 28.0000 1.1314 0.8449 0.8449 0.8449
v 0.0000 25.0000 1.6000 0.8449 0.8449 0.8449
v -1.1314 25.0000 1.1314 0.8449 0.8449 0.8449
v -1.1314 28.0000 1.1314 0.8449 0.8449 0.8449
v 0.0000 28.0000 1.6000 0.8449 0.8449 0.8449
v -1.1314 25.0000 1.1314 0.7951 0.7951 0.7951
v -1.6000 25.0000 0.0000 0.7951 0.7951 0.7951
v -1.6000 28.0000 0.0000 0.7951 0.7951 0.7951
v -1.1314 28.0000 1.1314 0.7951 0.7951 0.7951
v -1.6000 25.0000 0.0000 0.7307 0.7307 0.7307
v -1.1314 25.0000 -1.1314 0.7307 0.7307 0.7307
v -1.1314 28.0000 -1.1314 0.7307 0.7307 0.7307
v -1.6000 28.0000 0.0000 0.7307 0.7307 0.7307
v -1.1314 25.0000 -1.1314 0.6893 0.6893 0.6893
v -0.0000 25.0000 -1.6000 0.6893 0.6893 0.6893
v -0.0000 28.0000 -1.6000 0.6893 0.6893 0.6893
v -1.1314 28.0000 -1.1314 0.6893 0.6893 0.6893
v -0.0000 25.0000 -1.6000 0.6893 0.6893 0.6893
v 1.1314 25.0000 -1.1314 0.6893 0.6893 0.6893
v 1.1314 28.0000 -1.1314 0.6893 0.6893 0.6893
v -0.0000 28.0000 -1.6000 0.6893 0.6893 0.6893
v 1.1314 25.0000 -1.1314 0.7307 0.7307 0.7307
v 1.6000 25.0000 -0.0000 0.7307 0.7307 0.7307
v 1.6000 28.0000 -0.0000 0.7307 0.7307 0.7307
v 1.1314 28.0000 -1.1314 0.7307 0.7307 0.7307
v 1.6000 28.0000 0.0000 1.0000 1.0000 1.0000
v 1.1314 28.0000 1.1314 1.0000 1.0000 1.0000
v 0.0000 28.0000 1.6000 1.0000 1.0000 1.0000
v -1.1314 28.0000 1.1314 1.0000 1.0000 1.0000
v -1.6000 28.0000 0.0000 1.0000 1.0000 1.0000
v -1.1314 28.0000 -1.1314 1.0000 1.0000 1.0000
v -0.0000 28.0000 -1.6000 1.0000 1.0000 1.0000
v 1.1314 28.0000 -1.1314 1.0000 1.0000 1.0000
vt 0.00000 0.00000
vt 0.10000 0.00000
vt 0.10000 0.25000
vt 0.00000 0.25000
vt 0.10000 0.00000
vt 0.20000 0.00000
vt 0.20000 0.25000
vt 0.10000 0.25000
vt 0.20000 0.00000
vt 0.30000 0.00000
vt 0.30000 0.25000
vt 0.20000 0.25000
vt 0.30000 0.00000
vt 0.40000 0.00000
vt 0.40000 0.25000
vt 0.30000 0.25000
vt 0.40000 0.00000
vt 0.50000 0.00000
vt 0.50000 0.25000
vt 0.40000 0.25000
vt 0.50000 0.00000
vt 0.60000 0.00000
vt 0.60000 0.25000
vt 0.50000 0.25000
vt 0.60000 0.00000
vt 0.70000 0.00000
vt 0.70000 0.25000
vt 0.60000 0.25000
vt 0.70000 0.00000
vt 0.80000 0.00000
vt 0.80000 0.25000
vt 0.70000 0.25000
vt 0.80000 0.00000
vt 0.90000 0.00000
vt 0.90000 0.25000
vt 0.80000 0.25000
vt 0.90000 0.00000
vt 1.00000 0.00000
vt 1.00000 0.25000
vt 0.90000 0.25000
vt 1.00000 0.50000
vt 0.90451 0.20611
vt 0.65451 0.02447
vt 0.34549 0.02447
vt 0.09549 0.20611
vt 0.00000 0.50000
vt 0.09549 0.79389
vt 0.34549 0.97553
vt 0.65451 0.97553
vt 0.90451 0.79389
vt 0.00000 0.25000
vt 0.10000 0.25000
vt 0.10000 1.00000
vt 0.00000 1.00000
vt 0.10000 0.25000
vt 0.20000 0.25000
vt 0.20000 1.00000
vt 0.10000 1.00000
vt 0.20000 0.25000
vt 0.30000 0.25000
vt 0.30000 1.00000
vt 0.20000 1.00000
vt 0.30000 0.25000
vt 0.40000 0.25000
vt 0.40000 1.00000
vt 0.30000 1.00000
vt 0.40000 0.25000
vt 0.50000 0.25000
vt 0.50000 1.00000
vt 0.40000 1.00000
vt 0.50000 0.25000
vt 0.60000 0.25000
vt 0.60000 1.00000
vt 0.50000 1.00000
vt 0.60000 0.25000
vt 0.70000 0.25000
vt 0.70000 1.00000
vt 0.60000 1.00000
vt 0.70000 0.25000
vt 0.80000 0.25000
vt 0.80000 1.00000
vt 0.70000 1.00000
vt 0.80000 0.25000
vt 0.90000 0.25000
vt 0.90000 1.00000
vt 0.80000 1.00000
vt 0.90000 0.25000
vt 1.00000 0.25000
vt 1.00000 1.00000
vt 0.90000 1.00000
vt 1.00000 0.50000
vt 0.90451 0.20611
vt 0.65451 0.02447
vt 0.34549 0.02447
vt 0.09549 0.20611
vt 0.00000 0.50000
vt 0.09549 0.79389
vt 0.34549 0.97553
vt 0.65451 0.97553
vt 0.90451 0.79389
vt -0.15000 0.85000
vt 0.15000 0.85000
vt 0.15000 1.15000
vt -0.15000 1.15000
vt -0.15000 0.85000
vt 0.15000 0.85000
vt 0.15000 1.15000
vt -0.15000 1.15000
vt -0.15000 1.00000
vt 0.15000 1.00000
vt 0.15000 0.62500
vt -0.15000 0.62500
vt -0.15000 1.00000
vt 0.15000 1.00000
vt 0.15000 0.62500
vt -0.15000 0.62500
vt -0.15000 1.00000
vt 0.15000 1.00000
vt 0.15000 0.62500
vt -0.15000 0.62500
vt -0.15000 1.00000
vt 0.15000 1.00000
vt 0.15000 0.62500
vt -0.15000 0.62500
vt -0.32500 0.67500
vt -0.22500 0.67500
vt -0.22500 0.77500
vt -0.32500 0.77500
vt -0.32500 1.22500
vt -0.22500 1.22500
vt -0.22500 1.32500
vt -0.32500 1.32500
vt -0.32500 1.00000
vt -0.22500 1.00000
vt -0.22500 0.00000
vt -0.32500 0.00000
vt 0.22500 1.00000
vt 0.32500 1.00000
vt 0.32500 0.00000
vt 0.22500 0.00000
vt -0.32500 1.00000
vt -0.22500 1.00000
vt -0.22500 0.00000
vt -0.32500 0.00000
vt 0.22500 1.00000
vt 0.32500 1.00000
vt 0.32500 0.00000
vt 0.22500 0.00000
vt 0.22500 0.67500
vt 0.32500 0.67500
vt 0.32500 0.77500
vt 0.22500 0.77500
vt 0.22500 1.22500
vt 0.32500 1.22500
vt 0.32500 1.32500
vt 0.22500 1.32500
vt 0.22500 1.00000
vt 0.32500 1.00000
vt 0.32500 0.00000
vt 0.22500 0.00000
vt -0.32500 1.00000
vt -0.22500 1.00000
vt -0.22500 0.00000
vt -0.32500 0.00000
vt -0.32500 1.00000
vt -0.22500 1.00000
vt -0.22500 0.00000
vt -0.32500 0.00000
vt 0.22500 1.00000
vt 0.32500 1.00000
vt 0.32500 0.00000
vt 0.22500 0.00000
vt 0.22500 1.22500
vt 0.32500 1.22500
vt 0.32500 1.32500
vt 0.22500 1.32500
vt 0.22500 0.67500
vt 0.32500 0.67500
vt 0.32500 0.77500
vt 0.22500 0.77500
vt 0.22500 1.00000
vt 0.32500 1.00000
vt 0.32500 0.00000
vt 0.22500 0.00000
vt -0.32500 1.00000
vt -0.22500 1.00000
vt -0.22500 0.00000
vt -0.32500 0.00000
vt 0.22500 1.00000
vt 0.32500 1.00000
vt 0.32500 0.00000
vt 0.22500 0.00000
vt -0.32500 1.00000
vt -0.22500 1.00000
vt -0.22500 0.00000
vt -0.32500 0.00000
vt -0.32500 1.22500
vt -0.22500 1.22500
vt -0.22500 1.32500
vt -0.32500 1.32500
vt -0.32500 0.67500
vt -0.22500 0.67500
vt -0.22500 0.77500
vt -0.32500 0.77500
vt -0.32500 1.00000
vt -0.22500 1.00000
vt -0.22500 0.00000
vt -0.32500 0.00000
vt 0.22500 1.00000
vt 0.32500 1.00000
vt 0.32500 0.00000
vt 0.22500 0.00000
vt 0.22500 1.00000
vt 0.32500 1.00000
vt 0.32500 0.00000
vt 0.22500 0.00000
vt -0.32500 1.00000
vt -0.22500 1.00000
vt -0.22500 0.00000
vt -0.32500 0.00000
vt -0.32500 0.67500
vt 0.32500 0.67500
vt 0.32500 1.32500
vt -0.32500 1.32500
vt -0.32500 0.67500
vt 0.32500 0.67500
vt 0.32500 1.32500
vt -0.32500 1.32500
vt -0.32500 1.00000
vt 0.32500 1.00000
vt 0.32500 0.87500
vt -0.32500 0.87500
vt -0.32500 1.00000
vt 0.32500 1.00000
vt 0.32500 0.87500
vt -0.32500 0.87500
vt -0.32500 1.00000
vt 0.32500 1.00000
vt 0.32500 0.87500
vt -0.32500 0.87500
vt -0.32500 1.00000
vt 0.32500 1.00000
vt 0.32500 0.87500
vt -0.32500 0.87500
vt 0.00000 0.90625
vt 0.12500 0.90625
vt 0.12500 1.00000
vt 0.00000 1.00000
vt 0.12500 0.90625
vt 0.25000 0.90625
vt 0.25000 1.00000
vt 0.12500 1.00000
vt 0.25000 0.90625
vt 0.37500 0.90625
vt 0.37500 1.00000
vt 0.25000 1.00000
vt 0.37500 0.90625
vt 0.50000 0.90625
vt 0.50000 1.00000
vt 0.37500 1.00000
vt 0.50000 0.90625
vt 0.62500 0.90625
vt 0.62500 1.00000
vt 0.50000 1.00000
vt 0.62500 0.90625
vt 0.75000 0.90625
vt 0.75000 1.00000
vt 0.62500 1.00000
vt 0.75000 0.90625
vt 0.87500 0.90625
vt 0.87500 1.00000
vt 0.75000 1.00000
vt 0.87500 0.90625
vt 1.00000 0.90625
vt 1.00000 1.00000
vt 0.87500 1.00000
vt 1.00000 0.50000
vt 0.85355 0.14645
vt 0.50000 0.00000
vt 0.14645 0.14645
vt 0.00000 0.50000
vt 0.14645 0.85355
vt 0.50000 1.00000
vt 0.85355 0.85355
usemtl body
f 1/1 2/2 3/3
f 1/1 3/3 4/4
f 5/5 6/6 7/7
f 5/5 7/7 8/8
f 9/9 10/10 11/11
f 9/9 11/11 12/12
f 13/13 14/14 15/15
f 13/13 15/15 16/16
f 17/17 18/18 19/19
f 17/17 19/19 20/20
f 21/21 22/22 23/23
f 21/21 23/23 24/24
f 25/25 26/26 27/27
f 25/25 27/27 28/28
f 29/29 30/30 31/31
f 29/29 31/31 32/32
f 33/33 34/34 35/35
f 33/33 35/35 36/36
f 37/37 38/38 39/39
f 37/37 39/39 40/40
f 41/41 42/42 43/43
f 41/41 43/43 44/44
f 41/41 44/44 45/45
f 41/41 45/45 46/46
f 41/41 46/46 47/47
f 41/41 47/47 48/48
f 41/41 48/48 49/49
f 41/41 49/49 50/50
f 51/51 52/52 53/53
f 51/51 53/53 54/54
f 55/55 56/56 57/57
f 55/55 57/57 58/58
f 59/59 60/60 61/61
f 59/59 61/61 62/62
f 63/63 64/64 65/65
f 63/63 65/65 66/66
f 67/67 68/68 69/69
f 67/67 69/69 70/70
f 71/71 72/72 73/73
f 71/71 73/73 74/74
f 75/75 76/76 77/77
f 75/75 77/77 78/78
f 79/79 80/80 81/81
f 79/79 81/81 82/82
f 83/83 84/84 85/85
f 83/83 85/85 86/86
f 87/87 88/88 89/89
f 87/87 89/89 90/90
f 91/91 92/92 93/93
f 91/91 93/93 94/94
f 91/91 94/94 95/95
f 91/91 95/95 96/96
f 91/91 96/96 97/97
f 91/91 97/97 98/98
f 91/91 98/98 99/99
f 91/91 99/99 100/100
usemtl lamp
f 101/101 102/102 103/103
f 101/101 103/103 104/104
f 105/105 106/106 107/107
f 105/105 107/107 108/108
f 109/109 110/110 111/111
f 109/109 111/111 112/112
f 113/113 114/114 115/115
f 113/113 115/115 116/116
f 117/117 118/118 119/119
f 117/117 119/119 120/120
f 121/121 122/122 123/123
f 121/121 123/123 124/124
usemtl metal
f 125/125 126/126 127/127
f 125/125 127/127 128/128
f 129/129 130/130 131/131
f 129/129 131/131 132/132
f 133/133 134/134 135/135
f 133/133 135/135 136/136
f 137/137 138/138 139/139
f 137/137 139/139 140/140
f 141/141 142/142 143/143
f 141/141 143/143 144/144
f 145/145 146/146 147/147
f 145/145 147/147 148/148
f 149/149 150/150 151/151
f 149/149 151/151 152/152
f 153/153 154/154 155/155
f 153/153 155/155 156/156
f 157/157 158/158 159/159
f 157/157 159/159 160/160
f 161/161 162/162 163/163
f 161/161 163/163 164/164
f 165/165 166/166 167/167
f 165/165 167/167 168/168
f 169/169 170/170 171/171
f 169/169 171/171 172/172
f 173/173 174/174 175/175
f 173/173 175/175 176/176
f 177/177 178/178 179/179
f 177/177 179/179 180/180
f 181/181 182/182 183/183
f 181/181 183/183 184/184
f 185/185 186/186 187/187
f 185/185 187/187 188/188
f 189/189 190/190 191/191
f 189/189 191/191 192/192
f 193/193 194/194 195/195
f 193/193 195/195 196/196
f 197/197 198/198 199/199
f 197/197 199/199 200/200
f 201/201 202/202 203/203
f 201/201 203/203 204/204
f 205/205 206/206 207/207
f 205/205 207/207 208/208
f 209/209 210/210 211/211
f 209/209 211/211 212/212
f 213/213 214/214 215/215
f 213/213 215/215 216/216
f 217/217 218/218 219/219
f 217/217 219/219 220/220
f 221/221 222/222 223/223
f 221/221 223/223 224/224
f 225/225 226/226 227/227
f 225/225 227/227 228/228
f 229/229 230/230 231/231
f 229/229 231/231 232/232
f 233/233 234/234 235/235
f 233/233 235/235 236/236
f 237/237 238/238 239/239
f 237/237 239/239 240/240
f 241/241 242/242 243/243
f 241/241 243/243 244/244
usemtl topmark
f 245/245 246/246 247/247
f 245/245 247/247 248/248
f 249/249 250/250 251/251
f 249/249 251/251 252/252
f 253/253 254/254 255/255
f 253/253 255/255 256/256
f 257/257 258/258 259/259
f 257/257 259/259 260/260
f 261/261 262/262 263/263
f 261/261 263/263 264/264
f 265/265 266/266 267/267
f 265/265 267/267 268/268
f 269/269 270/270 271/271
f 269/269 271/271 272/272
f 273/273 274/274 275/275
f 273/273 275/275 276/276
f 277/277 278/278 279/279
f 277/277 279/279 280/280
f 277/277 280/280 281/281
f 277/277 281/281 282/282
f 277/277 282/282 283/283
f 277/277 283/283 284/284
