# Objet du port. Généré par tools/build_port_objects.py : modifier ce script plutôt que ce fichier.
mtllib crates_big.mtl
v -15.0000 13.0000 -7.0000 1.0000 1.0000 1.0000
v -1.0000 13.0000 -7.0000 1.0000 1.0000 1.0000
v -1.0000 13.0000 6.0000 1.0000 1.0000 1.0000
v -15.0000 13.0000 6.0000 1.0000 1.0000 1.0000
v -15.0000 0.0000 6.0000 0.5500 0.5500 0.5500
v -1.0000 0.0000 6.0000 0.5500 0.5500 0.5500
v -1.0000 0.0000 -7.0000 0.5500 0.5500 0.5500
v -15.0000 0.0000 -7.0000 0.5500 0.5500 0.5500
v -15.0000 13.0000 6.0000 0.8800 0.8800 0.8800
v -1.0000 13.0000 6.0000 0.8800 0.8800 0.8800
v -1.0000 0.0000 6.0000 0.8800 0.8800 0.8800
v -15.0000 0.0000 6.0000 0.8800 0.8800 0.8800
v -1.0000 13.0000 -7.0000 0.6600 0.6600 0.6600
v -15.0000 13.0000 -7.0000 0.6600 0.6600 0.6600
v -15.0000 0.0000 -7.0000 0.6600 0.6600 0.6600
v -1.0000 0.0000 -7.0000 0.6600 0.6600 0.6600
v -15.0000 13.0000 -7.0000 0.7600 0.7600 0.7600
v -15.0000 13.0000 6.0000 0.7600 0.7600 0.7600
v -15.0000 0.0000 6.0000 0.7600 0.7600 0.7600
v -15.0000 0.0000 -7.0000 0.7600 0.7600 0.7600
v -1.0000 13.0000 6.0000 0.7600 0.7600 0.7600
v -1.0000 13.0000 -7.0000 0.7600 0.7600 0.7600
v -1.0000 0.0000 -7.0000 0.7600 0.7600 0.7600
v -1.0000 0.0000 6.0000 0.7600 0.7600 0.7600
v -1.0000 13.0000 -7.0000 1.0000 1.0000 1.0000
v 13.0000 13.0000 -7.0000 1.0000 1.0000 1.0000
v 13.0000 13.0000 6.0000 1.0000 1.0000 1.0000
v -1.0000 13.0000 6.0000 1.0000 1.0000 1.0000
v -1.0000 0.0000 6.0000 0.5500 0.5500 0.5500
v 13.0000 0.0000 6.0000 0.5500 0.5500 0.5500
v 13.0000 0.0000 -7.0000 0.5500 0.5500 0.5500
v -1.0000 0.0000 -7.0000 0.5500 0.5500 0.5500
v -1.0000 13.0000 6.0000 0.8800 0.8800 0.8800
v 13.0000 13.0000 6.0000 0.8800 0.8800 0.8800
v 13.0000 0.0000 6.0000 0.8800 0.8800 0.8800
v -1.0000 0.0000 6.0000 0.8800 0.8800 0.8800
v 13.0000 13.0000 -7.0000 0.6600 0.6600 0.6600
v -1.0000 13.0000 -7.0000 0.6600 0.6600 0.6600
v -1.0000 0.0000 -7.0000 0.6600 0.6600 0.6600
v 13.0000 0.0000 -7.0000 0.6600 0.6600 0.6600
v -1.0000 13.0000 -7.0000 0.7600 0.7600 0.7600
v -1.0000 13.0000 6.0000 0.7600 0.7600 0.7600
v -1.0000 0.0000 6.0000 0.7600 0.7600 0.7600
v -1.0000 0.0000 -7.0000 0.7600 0.7600 0.7600
v 13.0000 13.0000 6.0000 0.7600 0.7600 0.7600
v 13.0000 13.0000 -7.0000 0.7600 0.7600 0.7600
v 13.0000 0.0000 -7.0000 0.7600 0.7600 0.7600
v 13.0000 0.0000 6.0000 0.7600 0.7600 0.7600
v -9.0000 25.0000 -6.0000 1.0000 1.0000 1.0000
v 4.0000 25.0000 -6.0000 1.0000 1.0000 1.0000
v 4.0000 25.0000 5.0000 1.0000 1.0000 1.0000
v -9.0000 25.0000 5.0000 1.0000 1.0000 1.0000
v -9.0000 13.0000 5.0000 0.5500 0.5500 0.5500
v 4.0000 13.0000 5.0000 0.5500 0.5500 0.5500
v 4.0000 13.0000 -6.0000 0.5500 0.5500 0.5500
v -9.0000 13.0000 -6.0000 0.5500 0.5500 0.5500
v -9.0000 25.0000 5.0000 0.8800 0.8800 0.8800
v 4.0000 25.0000 5.0000 0.8800 0.8800 0.8800
v 4.0000 13.0000 5.0000 0.8800 0.8800 0.8800
v -9.0000 13.0000 5.0000 0.8800 0.8800 0.8800
v 4.0000 25.0000 -6.0000 0.6600 0.6600 0.6600
v -9.0000 25.0000 -6.0000 0.6600 0.6600 0.6600
v -9.0000 13.0000 -6.0000 0.6600 0.6600 0.6600
v 4.0000 13.0000 -6.0000 0.6600 0.6600 0.6600
v -9.0000 25.0000 -6.0000 0.7600 0.7600 0.7600
v -9.0000 25.0000 5.0000 0.7600 0.7600 0.7600
v -9.0000 13.0000 5.0000 0.7600 0.7600 0.7600
v -9.0000 13.0000 -6.0000 0.7600 0.7600 0.7600
v 4.0000 25.0000 5.0000 0.7600 0.7600 0.7600
v 4.0000 25.0000 -6.0000 0.7600 0.7600 0.7600
v 4.0000 13.0000 -6.0000 0.7600 0.7600 0.7600
v 4.0000 13.0000 5.0000 0.7600 0.7600 0.7600
v 6.0000 8.0000 -2.0000 1.0000 1.0000 1.0000
v 14.0000 8.0000 -2.0000 1.0000 1.0000 1.0000
v 14.0000 8.0000 6.0000 1.0000 1.0000 1.0000
v 6.0000 8.0000 6.0000 1.0000 1.0000 1.0000
v 6.0000 0.0000 6.0000 0.5500 0.5500 0.5500
v 14.0000 0.0000 6.0000 0.5500 0.5500 0.5500
v 14.0000 0.0000 -2.0000 0.5500 0.5500 0.5500
v 6.0000 0.0000 -2.0000 0.5500 0.5500 0.5500
v 6.0000 8.0000 6.0000 0.8800 0.8800 0.8800
v 14.0000 8.0000 6.0000 0.8800 0.8800 0.8800
v 14.0000 0.0000 6.0000 0.8800 0.8800 0.8800
v 6.0000 0.0000 6.0000 0.8800 0.8800 0.8800
v 14.0000 8.0000 -2.0000 0.6600 0.6600 0.6600
v 6.0000 8.0000 -2.0000 0.6600 0.6600 0.6600
v 6.0000 0.0000 -2.0000 0.6600 0.6600 0.6600
v 14.0000 0.0000 -2.0000 0.6600 0.6600 0.6600
v 6.0000 8.0000 -2.0000 0.7600 0.7600 0.7600
v 6.0000 8.0000 6.0000 0.7600 0.7600 0.7600
v 6.0000 0.0000 6.0000 0.7600 0.7600 0.7600
v 6.0000 0.0000 -2.0000 0.7600 0.7600 0.7600
v 14.0000 8.0000 6.0000 0.7600 0.7600 0.7600
v 14.0000 8.0000 -2.0000 0.7600 0.7600 0.7600
v 14.0000 0.0000 -2.0000 0.7600 0.7600 0.7600
v 14.0000 0.0000 6.0000 0.7600 0.7600 0.7600
vt -0.93750 0.56250
vt -0.06250 0.56250
vt -0.06250 1.37500
vt -0.93750 1.37500
vt -0.93750 0.62500
vt -0.06250 0.62500
vt -0.06250 1.43750
vt -0.93750 1.43750
vt -0.93750 1.00000
vt -0.06250 1.00000
vt -0.06250 0.18750
vt -0.93750 0.18750
vt 0.06250 1.00000
vt 0.93750 1.00000
vt 0.93750 0.18750
vt 0.06250 0.18750
vt -0.43750 1.00000
vt 0.37500 1.00000
vt 0.37500 0.18750
vt -0.43750 0.18750
vt -0.37500 1.00000
vt 0.43750 1.00000
vt 0.43750 0.18750
vt -0.37500 0.18750
vt -0.06250 0.56250
vt 0.81250 0.56250
vt 0.81250 1.37500
vt -0.06250 1.37500
vt -0.06250 0.62500
vt 0.81250 0.62500
vt 0.81250 1.43750
vt -0.06250 1.43750
vt -0.06250 1.00000
vt 0.81250 1.00000
vt 0.81250 0.18750
vt -0.06250 0.18750
vt -0.81250 1.00000
vt 0.06250 1.00000
vt 0.06250 0.18750
vt -0.81250 0.18750
vt -0.43750 1.00000
vt 0.37500 1.00000
vt 0.37500 0.18750
vt -0.43750 0.18750
vt -0.37500 1.00000
vt 0.43750 1.00000
vt 0.43750 0.18750
vt -0.37500 0.18750
vt -0.56250 0.62500
vt 0.25000 0.62500
vt 0.25000 1.31250
vt -0.56250 1.31250
vt -0.56250 0.68750
vt 0.25000 0.68750
vt 0.25000 1.37500
vt -0.56250 1.37500
vt -0.56250 1.00000
vt 0.25000 1.00000
vt 0.25000 0.25000
vt -0.56250 0.25000
vt -0.25000 1.00000
vt 0.56250 1.00000
vt 0.56250 0.25000
vt -0.25000 0.25000
vt -0.37500 1.00000
vt 0.31250 1.00000
vt 0.31250 0.25000
vt -0.37500 0.25000
vt -0.31250 1.00000
vt 0.37500 1.00000
vt 0.37500 0.25000
vt -0.31250 0.25000
vt 0.37500 0.87500
vt 0.87500 0.87500
vt 0.87500 1.37500
vt 0.37500 1.37500
vt 0.37500 0.62500
vt 0.87500 0.62500
vt 0.87500 1.12500
vt 0.37500 1.12500
vt 0.37500 1.00000
vt 0.87500 1.00000
vt 0.87500 0.50000
vt 0.37500 0.50000
vt -0.87500 1.00000
vt -0.37500 1.00000
vt -0.37500 0.50000
vt -0.87500 0.50000
vt -0.12500 1.00000
vt 0.37500 1.00000
vt 0.37500 0.50000
vt -0.12500 0.50000
vt -0.37500 1.00000
vt 0.12500 1.00000
vt 0.12500 0.50000
vt -0.37500 0.50000
usemtl crate
f 1/1 2/2 3/3
f 1/1 3/3 4/4
f 5/5 6/6 7/7
f 5/5 7/7 8/8
f 9/9 10/10 11/11
f 9/9 11/11 12/12
f 13/13 14/14 15/15
f 13/13 15/15 16/16
f 17/17 18/18 19/19
f 17/17 19/19 20/20
f 21/21 22/22 23/23
f 21/21 23/23 24/24
f 25/25 26/26 27/27
f 25/25 27/27 28/28
f 29/29 30/30 31/31
f 29/29 31/31 32/32
f 33/33 34/34 35/35
f 33/33 35/35 36/36
f 37/37 38/38 39/39
f 37/37 39/39 40/40
f 41/41 42/42 43/43
f 41/41 43/43 44/44
f 45/45 46/46 47/47
f 45/45 47/47 48/48
f 49/49 50/50 51/51
f 49/49 51/51 52/52
f 53/53 54/54 55/55
f 53/53 55/55 56/56
f 57/57 58/58 59/59
f 57/57 59/59 60/60
f 61/61 62/62 63/63
f 61/61 63/63 64/64
f 65/65 66/66 67/67
f 65/65 67/67 68/68
f 69/69 70/70 71/71
f 69/69 71/71 72/72
f 73/73 74/74 75/75
f 73/73 75/75 76/76
f 77/77 78/78 79/79
f 77/77 79/79 80/80
f 81/81 82/82 83/83
f 81/81 83/83 84/84
f 85/85 86/86 87/87
f 85/85 87/87 88/88
f 89/89 90/90 91/91
f 89/89 91/91 92/92
f 93/93 94/94 95/95
f 93/93 95/95 96/96
