<?xml version='1.0' encoding='utf-8'?>
<COLLADA xmlns="http://www.collada.org/2005/11/COLLADASchema" version="1.4.1">
  <asset>
    <created>2026-07-27T16:58:17Z</created>
    <modified>2026-07-27T16:58:17Z</modified>
  </asset>
  <library_images>
    <image id="image-dtree_02_01">
      <init_from>dtree_02_01.png</init_from>
    </image>
    <image id="image-dtree_02_02">
      <init_from>dtree_02_02.png</init_from>
    </image>
  </library_images>
  <library_materials>
    <material id="material0" name="dtree_02_01">
      <instance_effect url="#effect0" />
    </material>
    <material id="material1" name="dtree_02_02">
      <instance_effect url="#effect1" />
    </material>
  </library_materials>
  <library_effects>
    <effect id="effect0" name="dtree_02_01">
      <profile_COMMON>
        <newparam sid="Image-surface">
          <surface type="2D">
            <init_from>image-dtree_02_01</init_from>
            <format>A8R8G8B8</format>
          </surface>
        </newparam>
        <newparam sid="Image-sampler">
          <sampler2D>
            <source>Image-surface</source>
            <wrap_s>CLAMP</wrap_s>
            <wrap_t>CLAMP</wrap_t>
            <minfilter>NEAREST</minfilter>
            <magfilter>NEAREST</magfilter>
            <mipfilter>NEAREST</mipfilter>
          </sampler2D>
        </newparam>
        <technique sid="common">
          <phong>
            <emission>
              <color>0 0 0 1</color>
            </emission>
            <ambient>
              <color>0.8064516 0.8064516 0.8064516 1</color>
            </ambient>
            <diffuse>
              <texture texture="Image-sampler" texcoord="tc" />
            </diffuse>
            <specular>
              <color>0 0 0 1</color>
            </specular>
          </phong>
        </technique>
      </profile_COMMON>
    </effect>
    <effect id="effect1" name="dtree_02_02">
      <profile_COMMON>
        <newparam sid="Image-surface">
          <surface type="2D">
            <init_from>image-dtree_02_02</init_from>
            <format>A8R8G8B8</format>
          </surface>
        </newparam>
        <newparam sid="Image-sampler">
          <sampler2D>
            <source>Image-surface</source>
            <wrap_s>WRAP</wrap_s>
            <wrap_t>CLAMP</wrap_t>
            <minfilter>NEAREST</minfilter>
            <magfilter>NEAREST</magfilter>
            <mipfilter>NEAREST</mipfilter>
          </sampler2D>
        </newparam>
        <technique sid="common">
          <phong>
            <emission>
              <color>0 0 0 1</color>
            </emission>
            <ambient>
              <color>0.8064516 0.8064516 0.8064516 1</color>
            </ambient>
            <diffuse>
              <texture texture="Image-sampler" texcoord="tc" />
            </diffuse>
            <specular>
              <color>0 0 0 1</color>
            </specular>
          </phong>
        </technique>
      </profile_COMMON>
    </effect>
  </library_effects>
  <library_geometries>
    <geometry id="geometry" name="dtree_02">
      <mesh>
        <source id="positions">
          <float_array id="positions-array" count="408">35.023438 79.05859 -6.6679688 -43.558594 33.6875 -6.6679688 31.183594 68.28125 -11.578125 -34.08203 30.601563 -11.578125 41.85547 63.320313 -13.675781 -36.11328 18.304688 -13.675781 35.558594 49.60547 -10.6640625 -27.582031 13.152344 -10.6640625 42.476563 47.617188 -7.09375 -30.953125 5.2226563 -7.09375 48.890625 51.320313 0 -37.710938 1.3203125 0 45.566406 49.402344 7.1796875 -30.953125 5.2226563 7.1796875 -23.179688 45.503906 6.9140625 18.449219 69.53906 6.9140625 -23.972656 35.710938 12.515625 14.609375 57.984375 12.515625 -25.78125 24.269531 14.53125 40.257813 62.398438 14.53125 -32.652344 9.628906 10.6953125 46.398438 55.26953 10.6953125 -32.652344 9.628906 10.6953125 46.398438 55.26953 10.6953125 45.566406 49.402344 7.1796875 -30.953125 5.2226563 7.1796875 30.929688 68.66406 -14 -34.308594 30.996094 -14 36.214844 82.26953 -7.9492188 -44.98828 35.390625 -7.9492188 17.375 71.39453 7.9492188 -23.535156 47.777344 7.9492188 14.066406 58.92578 14 -24.890625 36.4375 14 40.257813 62.398438 15.8984375 -25.78125 24.269531 15.8984375 46.73047 54.691406 12 -32.320313 9.050781 12 46.226563 48.253906 7.9492188 -30.292969 4.0742188 7.9492188 43.140625 46.472656 -7.9492188 -30.292969 4.0742188 -7.9492188 36.148438 48.58203 -12 -27.144531 12.0390625 -12 41.85547 63.320313 -15.8984375 -36.640625 18 -15.8984375 30.929688 68.66406 -14 -34.308594 30.996094 -14 43.140625 46.472656 -7.9492188 37.878906 49.58203 -12 42.476563 47.617188 -7.09375 35.558594 49.60547 -10.6640625 40.257813 62.398438 15.8984375 46.73047 54.691406 12 40.257813 62.398438 14.53125 46.398438 55.26953 10.6953125 14.609375 57.984375 12.515625 18.449219 69.53906 6.9140625 14.066406 58.92578 14 17.375 71.39453 7.9492188 18.449219 69.53906 6.9140625 35.023438 79.05859 -6.6679688 17.375 71.39453 7.9492188 36.214844 82.26953 -7.9492188 -37.710938 1.3203125 0 -37.05078 0.171875 0 -30.953125 5.2226563 7.1796875 -30.292969 4.0742188 7.9492188 43.140625 46.472656 -7.9492188 42.476563 47.617188 -7.09375 49.55078 50.171875 0 48.890625 51.320313 0 -34.08203 30.601563 -11.578125 -34.308594 30.996094 -14 -36.11328 18.304688 -13.675781 -36.640625 18 -15.8984375 -37.710938 1.3203125 0 -30.953125 5.2226563 -7.09375 -37.05078 0.171875 0 -30.292969 4.0742188 -7.9492188 -27.582031 13.152344 -10.6640625 -27.144531 12.0390625 -12 -30.953125 5.2226563 -7.09375 -30.292969 4.0742188 -7.9492188 -27.582031 13.152344 -10.6640625 -36.11328 18.304688 -13.675781 -27.144531 12.0390625 -12 -36.640625 18 -15.8984375 -32.652344 9.628906 10.6953125 -32.320313 9.050781 12 -25.78125 24.269531 14.53125 -25.78125 24.269531 15.8984375 -32.652344 9.628906 10.6953125 -30.953125 5.2226563 7.1796875 -32.320313 9.050781 12 -30.292969 4.0742188 7.9492188 46.398438 55.26953 10.6953125 46.73047 54.691406 12 45.566406 49.402344 7.1796875 46.226563 48.253906 7.9492188 48.890625 51.320313 0 45.566406 49.402344 7.1796875 49.55078 50.171875 0 46.226563 48.253906 7.9492188 41.85547 63.320313 -13.675781 35.558594 49.60547 -10.6640625 41.85547 63.320313 -15.8984375 37.878906 49.58203 -12 -25.78125 24.269531 14.53125 -25.78125 24.269531 15.8984375 -23.972656 35.710938 12.515625 -24.890625 36.4375 14 -23.972656 35.710938 12.515625 -24.890625 36.4375 14 -23.179688 45.503906 6.9140625 -23.535156 47.777344 7.9492188 -43.558594 33.6875 -6.6679688 -23.179688 45.503906 6.9140625 -44.98828 35.390625 -7.9492188 -23.535156 47.777344 7.9492188 40.257813 62.398438 14.53125 14.609375 57.984375 12.515625 40.257813 62.398438 15.8984375 14.066406 58.92578 14 -43.558594 33.6875 -6.6679688 -44.98828 35.390625 -7.9492188 -34.08203 30.601563 -11.578125 -34.308594 30.996094 -14 31.183594 68.28125 -11.578125 41.85547 63.320313 -13.675781 30.929688 68.66406 -14 41.85547 63.320313 -15.8984375 31.183594 68.28125 -11.578125 30.929688 68.66406 -14 35.023438 79.05859 -6.6679688 36.214844 82.26953 -7.9492188 </float_array>
          <technique_common>
            <accessor source="#positions-array" count="136" stride="3">
              <param name="X" type="float" />
              <param name="Y" type="float" />
              <param name="Z" type="float" />
            </accessor>
          </technique_common>
        </source>
        <source id="texcoords">
          <float_array id="texcoords-array" count="272">-0.21875 0 -0.21875 1 -0.53125 0 -0.53125 1 -0.75 0 -0.75 1 -1.5 0 -1.5 1 -1.875 0 -1.875 1 -2.4375 0 -2.4375 1 -3 0 -3 1 -5.34375 1 -5.34375 0 -5.03125 1 -5.03125 0 -4.25 1 -4.25 0 -3.5625 1 -3.5625 0 -3.5625 0 -3.5625 1 -3 1 -3 0 0.375 0.203125 0.375 0.78125 0 0 0 1 0.375 0.203125 0.375 0.78125 0.5625 0.265625 0.5625 0.9375 0.75 0 0.75 0.96875 0.9375 0 0.9375 1 1 0 1 1 0.9375 0 0.9375 1 1 0 1 1 0.9375 0 0.9375 1 0.75 0 0.75 0.96875 0.1875 0 0.59375 0 0.1875 0.03125 0.59375 0.03125 0.1875 0.96875 0.5 0.96875 0.1875 1 0.5 1 0.5 1 0.1875 1 0.5 0.96875 0.1875 0.96875 0.5 1 0.1875 1 0.5 0.96875 0.1875 0.96875 0.1875 0.03125 0.1875 0 0.59375 0.03125 0.59375 0 0.5 0.96875 0.5 1 0.1875 0.96875 0.1875 1 0.1875 0.03125 0.1875 0 0.59375 0.03125 0.59375 0 0.5 1 0.1875 1 0.5 0.984375 0.1875 0.96875 0.1875 0.03125 0.1875 0 0.59375 0.03125 0.59375 0 0.5 1 0.1875 1 0.5 0.984375 0.1875 0.96875 0.1875 0.03125 0.1875 0 0.59375 0.03125 0.59375 0 0.5 1 0.1875 1 0.5 0.984375 0.1875 0.96875 0.1875 1 0.1875 0.96875 0.5 1 0.5 0.96875 0.59375 0.03125 0.1875 0.03125 0.59375 0 0.1875 0 0.5 1 0.1875 1 0.5 0.96875 0.1875 0.96875 0.1875 1 0.1875 0.96875 0.5 1 0.5 0.984375 0.1875 1 0.1875 0.96875 0.5 1 0.5 0.984375 0.59375 0.03125 0.1875 0.03125 0.59375 0 0.1875 0 0.59375 0.03125 0.1875 0.03125 0.59375 0 0.1875 0 0.1875 1 0.1875 0.96875 0.5 1 0.5 0.984375 0.59375 0.03125 0.1875 0.03125 0.59375 0 0.1875 0 0.1875 1 0.1875 0.96875 0.5 1 0.5 0.96875 </float_array>
          <technique_common>
            <accessor source="#texcoords-array" count="136" stride="2">
              <param name="S" type="float" />
              <param name="T" type="float" />
            </accessor>
          </technique_common>
        </source>
        <source id="colors">
          <float_array id="colors-array" count="408">1 1 1 1 1 1 1 1 1 1 1 1 1 1 1 1 1 1 1 1 1 1 1 1 1 1 1 1 1 1 1 1 1 1 1 1 1 1 1 1 1 1 1 1 1 1 1 1 1 1 1 1 1 1 1 1 1 1 1 1 1 1 1 1 1 1 1 1 1 1 1 1 1 1 1 1 1 1 1 1 1 1 1 1 1 1 1 1 1 1 1 1 1 1 1 1 1 1 1 1 1 1 1 1 1 1 1 1 1 1 1 1 1 1 1 1 1 1 1 1 1 1 1 1 1 1 1 1 1 1 1 1 1 1 1 1 1 1 1 1 1 1 1 1 1 1 1 1 1 1 1 1 1 1 1 1 1 1 1 1 1 1 1 1 1 1 1 1 1 1 1 1 1 1 1 1 1 1 1 1 1 1 1 1 1 1 1 1 1 1 1 1 1 1 1 1 1 1 1 1 1 1 1 1 1 1 1 1 1 1 1 1 1 1 1 1 1 1 1 1 1 1 1 1 1 1 1 1 1 1 1 1 1 1 1 1 1 1 1 1 1 1 1 1 1 1 1 1 1 1 1 1 1 1 1 1 1 1 1 1 1 1 1 1 1 1 1 1 1 1 1 1 1 1 1 1 1 1 1 1 1 1 1 1 1 1 1 1 1 1 1 1 1 1 1 1 1 1 1 1 1 1 1 1 1 1 1 1 1 1 1 1 1 1 1 1 1 1 1 1 1 1 1 1 1 1 1 1 1 1 1 1 1 1 1 1 1 1 1 1 1 1 1 1 1 1 1 1 1 1 1 1 1 1 1 1 1 1 1 1 1 1 1 1 1 1 1 1 1 1 1 1 1 1 1 1 1 1 1 1 1 1 1 1 1 1 1 1 1 1 1 1 1 1 1 1 1 1 1 1 1 1 1 1 1 1 1 1 </float_array>
          <technique_common>
            <accessor source="#colors-array" count="136" stride="3">
              <param name="R" type="float" />
              <param name="G" type="float" />
              <param name="B" type="float" />
            </accessor>
          </technique_common>
        </source>
        <source id="normals">
          <float_array id="normals-array" count="408">0.3360112 -0.582159 0.7403968 0.3360112 -0.582159 0.7403968 0.2462173 -0.42404088 0.87153107 0.2462173 -0.42404088 0.87153107 -0.01564779 0.027383631 0.99950254 -0.01564779 0.027383631 0.99950254 -0.22463937 0.39067715 0.89269733 -0.22463937 0.39067715 0.89269733 -0.45354995 0.7858926 0.42031568 -0.45354995 0.7858926 0.42031568 -0.5003427 0.86582744 0 -0.5003427 0.86582744 0 -0.45354995 0.7858926 -0.42031568 -0.45354995 0.7858926 -0.42031568 0.33794606 -0.58603364 -0.73644894 0.33794606 -0.58603364 -0.73644894 0.2462173 -0.42404088 -0.87153107 0.2462173 -0.42404088 -0.87153107 -0.02735429 0.04884695 -0.9984316 -0.02735429 0.04884695 -0.9984316 -0.22463937 0.39067715 -0.89269733 -0.22463937 0.39067715 -0.89269733 -0.22463937 0.39067715 -0.89269733 -0.22463937 0.39067715 -0.89269733 -0.45354995 0.7858926 -0.42031568 -0.45354995 0.7858926 -0.42031568 -0.22463937 0.39067715 -0.89269733 -0.22463937 0.39067715 -0.89269733 -0.45354995 0.7858926 -0.42031568 -0.45354995 0.7858926 -0.42031568 -0.45354995 0.7858926 0.42031568 -0.45354995 0.7858926 0.42031568 -0.22463937 0.39067715 0.89269733 -0.22463937 0.39067715 0.89269733 0.035134476 -0.062461294 0.9974288 0.035134476 -0.062461294 0.9974288 0.2462173 -0.42404088 0.87153107 0.2462173 -0.42404088 0.87153107 0.30310807 -0.5240837 0.79590315 0.30310807 -0.5240837 0.79590315 0.30310807 -0.5240837 -0.79590315 0.30310807 -0.5240837 -0.79590315 0.2462173 -0.42404088 -0.87153107 0.2462173 -0.42404088 -0.87153107 0.035134476 -0.062461294 -0.9974288 0.035134476 -0.062461294 -0.9974288 -0.22463937 0.39067715 -0.89269733 -0.22463937 0.39067715 -0.89269733 0.47606426 0.69068336 -0.5443522 0.47606426 0.69068336 -0.5443522 0.47606426 0.69068336 -0.5443522 0.47606426 0.69068336 -0.5443522 0.767382 0.6385087 0.05857878 0.767382 0.6385087 0.05857878 0.767382 0.6385087 0.05857878 0.767382 0.6385087 0.05857878 0.7868318 0.015619489 0.6169698 0.7868318 0.015619489 0.6169698 0.7868318 0.015619489 0.6169698 0.7868318 0.015619489 0.6169698 0.4614862 0.3206938 0.82715535 0.4614862 0.3206938 0.82715535 0.4614862 0.3206938 0.82715535 0.4614862 0.3206938 0.82715535 -0.6659369 -0.20700677 0.7167121 -0.6659369 -0.20700677 0.7167121 -0.6659369 -0.20700677 0.7167121 -0.6659369 -0.20700677 0.7167121 0.5312206 0.47848916 -0.69918007 0.5312206 0.47848916 -0.69918007 0.5312206 0.47848916 -0.69918007 0.5312206 0.47848916 -0.69918007 -0.91498965 0.22874741 0.33236805 -0.91498965 0.22874741 0.33236805 -0.91498965 0.22874741 0.33236805 -0.91498965 0.22874741 0.33236805 -0.6659369 -0.20700677 -0.7167121 -0.6659369 -0.20700677 -0.7167121 -0.6659369 -0.20700677 -0.7167121 -0.6659369 -0.20700677 -0.7167121 -0.7833899 0.05274695 -0.61928827 -0.7833899 0.05274695 -0.61928827 -0.7833899 0.05274695 -0.61928827 -0.7833899 0.05274695 -0.61928827 -0.57643473 -0.7581582 0.3048265 -0.57643473 -0.7581582 0.3048265 -0.57643473 -0.7581582 0.3048265 -0.57643473 -0.7581582 0.3048265 -0.98659724 -0.04688779 0.15629263 -0.98659724 -0.04688779 0.15629263 -0.98659724 -0.04688779 0.15629263 -0.98659724 -0.04688779 0.15629263 -0.8942618 -0.4354157 0.103484444 -0.8942618 -0.4354157 0.103484444 -0.8942618 -0.4354157 0.103484444 -0.8942618 -0.4354157 0.103484444 0.8805538 0.16791047 -0.44320554 0.8805538 0.16791047 -0.44320554 0.8805538 0.16791047 -0.44320554 0.8805538 0.16791047 -0.44320554 0.7166178 0.5252594 0.45886973 0.7166178 0.5252594 0.45886973 0.7166178 0.5252594 0.45886973 0.7166178 0.5252594 0.45886973 0.9065665 -0.33410102 0.25790253 0.9065665 -0.33410102 0.25790253 0.9065665 -0.33410102 0.25790253 0.9065665 -0.33410102 0.25790253 -0.71733755 -0.5355599 -0.44564837 -0.71733755 -0.5355599 -0.44564837 -0.71733755 -0.5355599 -0.44564837 -0.71733755 -0.5355599 -0.44564837 -0.61550915 0.26965162 -0.740565 -0.61550915 0.26965162 -0.740565 -0.61550915 0.26965162 -0.740565 -0.61550915 0.26965162 -0.740565 -0.60341203 0.033197425 0.79673827 -0.60341203 0.033197425 0.79673827 -0.60341203 0.033197425 0.79673827 -0.60341203 0.033197425 0.79673827 -0.17778254 0.8693761 -0.4610624 -0.17778254 0.8693761 -0.4610624 -0.17778254 0.8693761 -0.4610624 -0.17778254 0.8693761 -0.4610624 -0.4552075 -0.7912405 -0.40831918 -0.4552075 -0.7912405 -0.40831918 -0.4552075 -0.7912405 -0.40831918 -0.4552075 -0.7912405 -0.40831918 0.3415865 0.9154518 0.21275958 0.3415865 0.9154518 0.21275958 0.3415865 0.9154518 0.21275958 0.3415865 0.9154518 0.21275958 0.7915911 -0.15050003 -0.5922274 0.7915911 -0.15050003 -0.5922274 0.7915911 -0.15050003 -0.5922274 0.7915911 -0.15050003 -0.5922274 </float_array>
          <technique_common>
            <accessor source="#normals-array" count="136" stride="3">
              <param name="X" type="float" />
              <param name="Y" type="float" />
              <param name="Z" type="float" />
            </accessor>
          </technique_common>
        </source>
        <vertices id="vertices">
          <input semantic="POSITION" source="#positions" />
          <input semantic="TEXCOORD" source="#texcoords" />
          <input semantic="COLOR" source="#colors" />
          <input semantic="NORMAL" source="#normals" />
        </vertices>
        <polylist material="material1" count="10">
          <input semantic="VERTEX" source="#vertices" offset="0" />
          <vcount>4 4 4 4 4 4 4 4 4 4 </vcount>
          <p>0 1 3 2 2 3 5 4 4 5 7 6 6 7 9 8 8 9 11 10 10 11 13 12 14 15 17 16 16 17 19 18 18 19 21 20 22 23 24 25 </p>
        </polylist>
        <polylist material="material0" count="53">
          <input semantic="VERTEX" source="#vertices" offset="0" />
          <vcount>4 4 4 4 4 4 4 4 4 3 3 3 3 3 3 3 3 3 3 3 3 3 3 3 3 3 3 3 3 3 3 3 3 3 3 3 3 3 3 3 3 3 3 3 3 3 3 3 3 3 3 3 3 </vcount>
          <p>26 27 29 28 28 29 31 30 30 31 33 32 32 33 35 34 34 35 37 36 36 37 39 38 40 41 43 42 42 43 45 44 44 45 47 46 48 49 50 49 51 50 52 53 54 53 55 54 56 57 58 57 59 58 60 61 62 61 63 62 64 65 66 65 67 66 68 69 70 69 71 70 72 73 74 73 75 74 76 77 78 77 79 78 80 81 82 81 83 82 84 85 86 85 87 86 88 89 90 89 91 90 92 93 94 93 95 94 96 97 98 97 99 98 100 101 102 101 103 102 104 105 106 105 107 106 108 109 110 109 111 110 112 113 114 113 115 114 116 117 118 117 119 118 120 121 122 121 123 122 124 125 126 125 127 126 128 129 130 129 131 130 132 133 134 133 135 134 </p>
        </polylist>
      </mesh>
    </geometry>
  </library_geometries>
  <library_visual_scenes>
    <visual_scene id="scene0" name="dtree_02">
      <node id="node" name="dtree_02" type="NODE">
        <instance_geometry url="#geometry">
          <bind_material>
            <technique_common>
              <instance_material symbol="material0" target="#material0">
                <bind_vertex_input semantic="tc" input_semantic="TEXCOORD" />
              </instance_material>
              <instance_material symbol="material1" target="#material1">
                <bind_vertex_input semantic="tc" input_semantic="TEXCOORD" />
              </instance_material>
            </technique_common>
          </bind_material>
        </instance_geometry>
      </node>
    </visual_scene>
  </library_visual_scenes>
  <scene>
    <instance_visual_scene url="#scene0" />
  </scene>
</COLLADA>