<?xml version='1.0' encoding='utf-8'?>
<COLLADA xmlns="http://www.collada.org/2005/11/COLLADASchema" version="1.4.1">
  <asset>
    <created>2026-07-27T16:58:22Z</created>
    <modified>2026-07-27T16:58:22Z</modified>
  </asset>
  <library_images>
    <image id="image-h_kage">
      <init_from>h_kage.png</init_from>
    </image>
    <image id="image-stump_02_02">
      <init_from>stump_02_02.png</init_from>
    </image>
    <image id="image-stump_02_01">
      <init_from>stump_02_01.png</init_from>
    </image>
  </library_images>
  <library_materials>
    <material id="material0" name="h_kage">
      <instance_effect url="#effect0" />
    </material>
    <material id="material1" name="stump_02_01">
      <instance_effect url="#effect1" />
    </material>
    <material id="material2" name="stump_02_02">
      <instance_effect url="#effect2" />
    </material>
  </library_materials>
  <library_effects>
    <effect id="effect0" name="h_kage">
      <profile_COMMON>
        <newparam sid="Image-surface">
          <surface type="2D">
            <init_from>image-h_kage</init_from>
            <format>A8R8G8B8</format>
          </surface>
        </newparam>
        <newparam sid="Image-sampler">
          <sampler2D>
            <source>Image-surface</source>
            <wrap_s>WRAP</wrap_s>
            <wrap_t>WRAP</wrap_t>
            <minfilter>NEAREST</minfilter>
            <magfilter>NEAREST</magfilter>
            <mipfilter>NEAREST</mipfilter>
          </sampler2D>
        </newparam>
        <technique sid="common">
          <phong>
            <emission>
              <color>0 0 0 1</color>
            </emission>
            <ambient>
              <color>1 1 1 1</color>
            </ambient>
            <diffuse>
              <texture texture="Image-sampler" texcoord="tc" />
            </diffuse>
            <specular>
              <color>0 0 0 1</color>
            </specular>
            <transparent>
              <texture texture="Image-sampler" texcoord="tc" />
            </transparent>
          </phong>
        </technique>
      </profile_COMMON>
    </effect>
    <effect id="effect1" name="stump_02_01">
      <profile_COMMON>
        <newparam sid="Image-surface">
          <surface type="2D">
            <init_from>image-stump_02_01</init_from>
            <format>A8R8G8B8</format>
          </surface>
        </newparam>
        <newparam sid="Image-sampler">
          <sampler2D>
            <source>Image-surface</source>
            <wrap_s>WRAP</wrap_s>
            <wrap_t>WRAP</wrap_t>
            <minfilter>NEAREST</minfilter>
            <magfilter>NEAREST</magfilter>
            <mipfilter>NEAREST</mipfilter>
          </sampler2D>
        </newparam>
        <technique sid="common">
          <phong>
            <emission>
              <color>0 0 0 1</color>
            </emission>
            <ambient>
              <color>1 1 1 1</color>
            </ambient>
            <diffuse>
              <texture texture="Image-sampler" texcoord="tc" />
            </diffuse>
            <specular>
              <color>0 0 0 1</color>
            </specular>
            <transparent>
              <texture texture="Image-sampler" texcoord="tc" />
            </transparent>
          </phong>
        </technique>
      </profile_COMMON>
    </effect>
    <effect id="effect2" name="stump_02_02">
      <profile_COMMON>
        <newparam sid="Image-surface">
          <surface type="2D">
            <init_from>image-stump_02_02</init_from>
            <format>A8R8G8B8</format>
          </surface>
        </newparam>
        <newparam sid="Image-sampler">
          <sampler2D>
            <source>Image-surface</source>
            <wrap_s>WRAP</wrap_s>
            <wrap_t>WRAP</wrap_t>
            <minfilter>NEAREST</minfilter>
            <magfilter>NEAREST</magfilter>
            <mipfilter>NEAREST</mipfilter>
          </sampler2D>
        </newparam>
        <technique sid="common">
          <phong>
            <emission>
              <color>0 0 0 1</color>
            </emission>
            <ambient>
              <color>0.8064516 0.8064516 0.8064516 1</color>
            </ambient>
            <diffuse>
              <texture texture="Image-sampler" texcoord="tc" />
            </diffuse>
            <specular>
              <color>0 0 0 1</color>
            </specular>
            <transparent>
              <texture texture="Image-sampler" texcoord="tc" />
            </transparent>
          </phong>
        </technique>
      </profile_COMMON>
    </effect>
  </library_effects>
  <library_geometries>
    <geometry id="geometry" name="stump_02">
      <mesh>
        <source id="positions">
          <float_array id="positions-array" count="246">-11 4 -15.035156 -14.521484 4 18.21582 8 4 -15.035156 13.087891 4 13.930664 17.543945 4 1.1542969 17.543945 4 1.1542969 -14.521484 4 18.21582 -11 4 -15.035156 -20.981445 4 1.1542969 0 2 -24 -20 2 -18 0 2 0 -26 2 0 0 2 24 -20 2 18 18 2 -18 18 2 -18 24 2 0 0 2 0 18 2 18 24 2 0 0 2 0 0 2 24 0 2 -24 0 2 0 18 2 -18 13.087891 4 13.930664 11.7890625 15.424805 11.161133 17.543945 4 1.1542969 13.769531 20.001953 1.0302734 14.412109 4 15.126953 12.837891 15.424805 12.110352 8 4 -15.035156 6.279297 19.998047 -11.677734 -11 4 -15.035156 -9.279297 20 -11.677734 -20.981445 4 1.1542969 -17.329102 20 1.0302734 -16.299805 4 19.064453 -14.012695 17.830078 15.626953 -20.981445 4 1.1542969 -17.329102 20 1.0302734 -14.521484 4 18.21582 -12.564453 17.830078 14.936523 17.543945 4 1.1542969 24 4 -2.8457031 20 4 -19.484375 8 4 -15.035156 17.543945 4 1.1542969 14.412109 4 15.126953 18 4 20 26 4 12 13.769531 20.001953 1.0302734 6.279297 19.998047 -11.677734 8 4 -15.035156 17.543945 4 1.1542969 13.087891 4 13.930664 14.412109 4 15.126953 12.837891 15.424805 12.110352 11.7890625 15.424805 11.161133 8 4 -15.035156 8 4 -22.845703 -11 4 -22.845703 -11 4 -15.035156 -11 4 -15.035156 -21 4 -19.950195 -28 4 -2.8457031 -20.981445 4 1.1542969 -16.299805 4 19.064453 -20.981445 4 1.1542969 -27.736328 4 11.291992 -20 4 24 -16.299805 4 19.064453 -14.521484 4 18.21582 -12.564453 17.830078 14.936523 -14.012695 17.830078 15.626953 11.7890625 15.424805 11.161133 12.837891 15.424805 12.110352 13.769531 20.001953 1.0302734 -14.012695 17.830078 15.626953 -12.564453 17.830078 14.936523 -17.329102 20 1.0302734 </float_array>
          <technique_common>
            <accessor source="#positions-array" count="82" stride="3">
              <param name="X" type="float" />
              <param name="Y" type="float" />
              <param name="Z" type="float" />
            </accessor>
          </technique_common>
        </source>
        <source id="texcoords">
          <float_array id="texcoords-array" count="164">0.21875 0.75 0.21875 0.009765625 0.78125 0.75 0.78125 0.009765625 0.9375 0.40429688 0.9375 0.40429688 0.21875 0.009765625 0.21875 0.75 -0.01171875 0.43945313 0.5 0.796875 0.5 0.796875 0.5 0.125 0.5 0.796875 0.5 0.796875 0.5 0.796875 0.5 0.796875 0.5 0.796875 0.5 0.796875 0.5 0.125 0.5 0.796875 0.5 0.796875 0.5 0.125 0.5 0.796875 0.5 0.796875 0.5 0.125 0.5 0.796875 0 0.34375 0 0.71875 1 0.34375 1 1 0 0.34375 0 0.71875 1 0.4375 1 1 0.28125 0.4375 0.28125 1 -0.53125 0.4375 -0.53125 1 0 0.4375 0 0.71875 1 0.4375 1 1 0 0.4375 0 0.71875 1 0.375 1 0 0 0 0 0.375 0 0.34375 1 0.34375 1 0 0 0 1 1 0 1 0 0.4375 1 0.4375 0.921875 0.34375 0.921875 0.34375 0.921875 0.9375 0.921875 0.9375 1 0.375 1 0 0 0 0 0.375 1 0.375 1 0 0 0 0 0.375 0 0.375 1 0.375 1 0 0 0 0.921875 0.34375 0.921875 0.34375 0.921875 0.9375 0.921875 0.9375 0.6875 0.75 0.7480469 0.75 0.72265625 0.9375 0.6875 0.75 0.7480469 0.75 0.72265625 0.9375 </float_array>
          <technique_common>
            <accessor source="#texcoords-array" count="82" stride="2">
              <param name="S" type="float" />
              <param name="T" type="float" />
            </accessor>
          </technique_common>
        </source>
        <source id="colors">
          <float_array id="colors-array" count="246">1 1 1 1 1 1 1 1 1 1 1 1 1 1 1 1 1 1 1 1 1 1 1 1 1 1 1 1 1 1 1 1 1 1 1 1 1 1 1 1 1 1 1 1 1 1 1 1 1 1 1 1 1 1 1 1 1 1 1 1 1 1 1 1 1 1 1 1 1 1 1 1 1 1 1 1 1 1 1 1 1 1 1 1 1 1 1 1 1 1 1 1 1 1 1 1 1 1 1 1 1 1 1 1 1 1 1 1 1 1 1 1 1 1 1 1 1 1 1 1 1 1 1 1 1 1 1 1 1 1 1 1 1 1 1 1 1 1 1 1 1 1 1 1 1 1 1 1 1 1 1 1 1 1 1 1 1 1 1 1 1 1 1 1 1 1 1 1 1 1 1 1 1 1 1 1 1 1 1 1 1 1 1 1 1 1 1 1 1 1 1 1 1 1 1 1 1 1 1 1 1 1 1 1 1 1 1 1 1 1 1 1 1 1 1 1 1 1 1 1 1 1 1 1 1 1 1 1 1 1 1 1 1 1 1 1 1 1 1 1 1 1 1 1 1 1 </float_array>
          <technique_common>
            <accessor source="#colors-array" count="82" stride="3">
              <param name="R" type="float" />
              <param name="G" type="float" />
              <param name="B" type="float" />
            </accessor>
          </technique_common>
        </source>
        <source id="normals">
          <float_array id="normals-array" count="246">0.21475324 0.90586823 0.3650805 0.5532612 0.8015445 0.22677845 -0.21280703 0.90394175 0.37094802 -0.648659 0.7404872 0.1758413 -0.20902026 0.97282326 0.09962648 -0.20902026 0.97282326 0.09962648 0.5532612 0.8015445 0.22677845 0.21475324 0.90586823 0.3650805 0.27945736 0.95171845 0.12702607 0 1 0 0 1 0 0 1 0 0 1 0 0 1 0 0 1 0 0 1 0 0 1 0 0 1 0 0 1 0 0 1 0 0 1 0 0 1 0 0 1 0 0 1 0 0 1 0 0 1 0 -0.648659 0.7404872 0.1758413 -0.86518484 0.43356895 0.2519387 -0.20902026 0.97282326 0.09962648 -0.68369025 0.64266884 0.34575194 0.17977908 0.78555644 0.5920985 0.17977908 0.78555644 0.5920985 -0.21280703 0.90394175 0.37094802 -0.48238233 -0.22849688 0.84563375 0.21475324 0.90586823 0.3650805 0.49452278 -0.22869235 0.83853865 0.27945736 0.95171845 0.12702607 0.68414074 0.61572665 0.39093757 -0.27941146 0.7385842 0.6135329 -0.27941146 0.7385842 0.6135329 0.27945736 0.95171845 0.12702607 0.68414074 0.61572665 0.39093757 0.5532612 0.8015445 0.22677845 0.7731721 0.51154315 0.3748713 -0.20902026 0.97282326 0.09962648 0 1 0 0 1 0 -0.21280703 0.90394175 0.37094802 -0.20902026 0.97282326 0.09962648 0.17977908 0.78555644 0.5920985 0 1 0 0 1 0 -0.68369025 0.64266884 0.34575194 -0.48238233 -0.22849688 0.84563375 -0.21280703 0.90394175 0.37094802 -0.20902026 0.97282326 0.09962648 -0.648659 0.7404872 0.1758413 0.17977908 0.78555644 0.5920985 0.17977908 0.78555644 0.5920985 -0.86518484 0.43356895 0.2519387 -0.21280703 0.90394175 0.37094802 0 1 0 0 1 0 0.21475324 0.90586823 0.3650805 0.21475324 0.90586823 0.3650805 0 1 0 0 1 0 0.27945736 0.95171845 0.12702607 -0.27941146 0.7385842 0.6135329 0.27945736 0.95171845 0.12702607 0 1 0 0 1 0 -0.27941146 0.7385842 0.6135329 0.5532612 0.8015445 0.22677845 0.7731721 0.51154315 0.3748713 -0.27941146 0.7385842 0.6135329 -0.86518484 0.43356895 0.2519387 0.17977908 0.78555644 0.5920985 -0.68369025 0.64266884 0.34575194 -0.27941146 0.7385842 0.6135329 0.7731721 0.51154315 0.3748713 0.68414074 0.61572665 0.39093757 </float_array>
          <technique_common>
            <accessor source="#normals-array" count="82" stride="3">
              <param name="X" type="float" />
              <param name="Y" type="float" />
              <param name="Z" type="float" />
            </accessor>
          </technique_common>
        </source>
        <vertices id="vertices">
          <input semantic="POSITION" source="#positions" />
          <input semantic="TEXCOORD" source="#texcoords" />
          <input semantic="COLOR" source="#colors" />
          <input semantic="NORMAL" source="#normals" />
        </vertices>
        <polylist material="material1" count="3">
          <input semantic="VERTEX" source="#vertices" offset="0" />
          <vcount>4 4 3 </vcount>
          <p>0 1 3 2 2 3 5 4 6 7 8 </p>
        </polylist>
        <polylist material="material0" count="6">
          <input semantic="VERTEX" source="#vertices" offset="0" />
          <vcount>4 4 3 3 4 3 </vcount>
          <p>9 10 12 11 11 12 14 13 15 16 17 16 18 17 19 20 21 22 23 24 25 </p>
        </polylist>
        <polylist material="material2" count="16">
          <input semantic="VERTEX" source="#vertices" offset="0" />
          <vcount>4 4 4 4 4 4 4 4 4 4 4 4 4 4 3 3 </vcount>
          <p>26 27 29 28 28 29 31 30 32 33 35 34 34 35 37 36 38 39 41 40 40 41 43 42 44 45 46 47 48 49 50 51 52 53 54 55 56 57 58 59 60 61 62 63 64 65 66 67 68 69 70 71 72 73 74 75 76 77 78 79 80 81 </p>
        </polylist>
      </mesh>
    </geometry>
  </library_geometries>
  <library_visual_scenes>
    <visual_scene id="scene0" name="stump_02">
      <node id="node" name="stump_02" type="NODE">
        <instance_geometry url="#geometry">
          <bind_material>
            <technique_common>
              <instance_material symbol="material0" target="#material0">
                <bind_vertex_input semantic="tc" input_semantic="TEXCOORD" />
              </instance_material>
              <instance_material symbol="material1" target="#material1">
                <bind_vertex_input semantic="tc" input_semantic="TEXCOORD" />
              </instance_material>
              <instance_material symbol="material2" target="#material2">
                <bind_vertex_input semantic="tc" input_semantic="TEXCOORD" />
              </instance_material>
            </technique_common>
          </bind_material>
        </instance_geometry>
      </node>
    </visual_scene>
  </library_visual_scenes>
  <scene>
    <instance_visual_scene url="#scene0" />
  </scene>
</COLLADA>