# Objet du port. Généré par tools/build_port_objects.py : modifier ce script plutôt que ce fichier.
mtllib container_blue.mtl
v -15.5000 15.0000 -7.5000 0.3500 0.5500 0.9500
v 15.5000 15.0000 -7.5000 0.3500 0.5500 0.9500
v 15.5000 15.0000 7.5000 0.3500 0.5500 0.9500
v -15.5000 15.0000 7.5000 0.3500 0.5500 0.9500
v -15.5000 0.0000 7.5000 0.1925 0.3025 0.5225
v 15.5000 0.0000 7.5000 0.1925 0.3025 0.5225
v 15.5000 0.0000 -7.5000 0.1925 0.3025 0.5225
v -15.5000 0.0000 -7.5000 0.1925 0.3025 0.5225
v -15.5000 15.0000 7.5000 0.3080 0.4840 0.8360
v 15.5000 15.0000 7.5000 0.3080 0.4840 0.8360
v 15.5000 0.0000 7.5000 0.3080 0.4840 0.8360
v -15.5000 0.0000 7.5000 0.3080 0.4840 0.8360
v 15.5000 15.0000 -7.5000 0.2310 0.3630 0.6270
v -15.5000 15.0000 -7.5000 0.2310 0.3630 0.6270
v -15.5000 0.0000 -7.5000 0.2310 0.3630 0.6270
v 15.5000 0.0000 -7.5000 0.2310 0.3630 0.6270
v -15.5000 15.0000 -7.5000 0.2660 0.4180 0.7220
v -15.5000 15.0000 7.5000 0.2660 0.4180 0.7220
v -15.5000 0.0000 7.5000 0.2660 0.4180 0.7220
v -15.5000 0.0000 -7.5000 0.2660 0.4180 0.7220
v 15.5000 15.0000 7.5000 0.2660 0.4180 0.7220
v 15.5000 15.0000 -7.5000 0.2660 0.4180 0.7220
v 15.5000 0.0000 -7.5000 0.2660 0.4180 0.7220
v 15.5000 0.0000 7.5000 0.2660 0.4180 0.7220
vt -0.48438 0.76562
vt 0.48438 0.76562
vt 0.48438 1.23438
vt -0.48438 1.23438
vt -0.48438 0.76562
vt 0.48438 0.76562
vt 0.48438 1.23438
vt -0.48438 1.23438
vt -0.48438 1.00000
vt 0.48438 1.00000
vt 0.48438 0.06250
vt -0.48438 0.06250
vt -0.48438 1.00000
vt 0.48438 1.00000
vt 0.48438 0.06250
vt -0.48438 0.06250
vt -0.23438 1.00000
vt 0.23438 1.00000
vt 0.23438 0.06250
vt -0.23438 0.06250
vt -0.23438 1.00000
vt 0.23438 1.00000
vt 0.23438 0.06250
vt -0.23438 0.06250
usemtl container
f 1/1 2/2 3/3
f 1/1 3/3 4/4
f 5/5 6/6 7/7
f 5/5 7/7 8/8
f 9/9 10/10 11/11
f 9/9 11/11 12/12
f 13/13 14/14 15/15
f 13/13 15/15 16/16
f 17/17 18/18 19/19
f 17/17 19/19 20/20
f 21/21 22/22 23/23
f 21/21 23/23 24/24
