# Objet du port. Généré par tools/build_port_objects.py : modifier ce script plutôt que ce fichier.
mtllib container_red.mtl
v -15.5000 15.0000 -7.5000 0.9500 0.3800 0.3000
v 15.5000 15.0000 -7.5000 0.9500 0.3800 0.3000
v 15.5000 15.0000 7.5000 0.9500 0.3800 0.3000
v -15.5000 15.0000 7.5000 0.9500 0.3800 0.3000
v -15.5000 0.0000 7.5000 0.5225 0.2090 0.1650
v 15.5000 0.0000 7.5000 0.5225 0.2090 0.1650
v 15.5000 0.0000 -7.5000 0.5225 0.2090 0.1650
v -15.5000 0.0000 -7.5000 0.5225 0.2090 0.1650
v -15.5000 15.0000 7.5000 0.8360 0.3344 0.2640
v 15.5000 15.0000 7.5000 0.8360 0.3344 0.2640
v 15.5000 0.0000 7.5000 0.8360 0.3344 0.2640
v -15.5000 0.0000 7.5000 0.8360 0.3344 0.2640
v 15.5000 15.0000 -7.5000 0.6270 0.2508 0.1980
v -15.5000 15.0000 -7.5000 0.6270 0.2508 0.1980
v -15.5000 0.0000 -7.5000 0.6270 0.2508 0.1980
v 15.5000 0.0000 -7.5000 0.6270 0.2508 0.1980
v -15.5000 15.0000 -7.5000 0.7220 0.2888 0.2280
v -15.5000 15.0000 7.5000 0.7220 0.2888 0.2280
v -15.5000 0.0000 7.5000 0.7220 0.2888 0.2280
v -15.5000 0.0000 -7.5000 0.7220 0.2888 0.2280
v 15.5000 15.0000 7.5000 0.7220 0.2888 0.2280
v 15.5000 15.0000 -7.5000 0.7220 0.2888 0.2280
v 15.5000 0.0000 -7.5000 0.7220 0.2888 0.2280
v 15.5000 0.0000 7.5000 0.7220 0.2888 0.2280
vt -0.48438 0.76562
vt 0.48438 0.76562
vt 0.48438 1.23438
vt -0.48438 1.23438
vt -0.48438 0.76562
vt 0.48438 0.76562
vt 0.48438 1.23438
vt -0.48438 1.23438
vt -0.48438 1.00000
vt 0.48438 1.00000
vt 0.48438 0.06250
vt -0.48438 0.06250
vt -0.48438 1.00000
vt 0.48438 1.00000
vt 0.48438 0.06250
vt -0.48438 0.06250
vt -0.23438 1.00000
vt 0.23438 1.00000
vt 0.23438 0.06250
vt -0.23438 0.06250
vt -0.23438 1.00000
vt 0.23438 1.00000
vt 0.23438 0.06250
vt -0.23438 0.06250
usemtl container
f 1/1 2/2 3/3
f 1/1 3/3 4/4
f 5/5 6/6 7/7
f 5/5 7/7 8/8
f 9/9 10/10 11/11
f 9/9 11/11 12/12
f 13/13 14/14 15/15
f 13/13 15/15 16/16
f 17/17 18/18 19/19
f 17/17 19/19 20/20
f 21/21 22/22 23/23
f 21/21 23/23 24/24
