# Découpé dans Lostlorn Forest par tools/maps/build_forest_kit.py
mtllib forest_tree_light.mtl
usemtl ki02ax
v 0.0000 3.0000 -16.0000 1.0000 1.0000 1.0000
vt -1.00000 0.00000
v 0.0000 3.0000 16.0000 1.0000 1.0000 1.0000
vt 0.00000 0.00000
v 0.0000 56.0000 16.0000 1.0000 1.0000 1.0000
vt 0.00000 1.00000
f 1/1 2/2 3/3
v 0.0000 3.0000 -16.0000 1.0000 1.0000 1.0000
vt -1.00000 0.00000
v 0.0000 56.0000 16.0000 1.0000 1.0000 1.0000
vt 0.00000 1.00000
v 0.0000 56.0000 -16.0000 1.0000 1.0000 1.0000
vt -1.00000 1.00000
f 4/4 5/5 6/6
v 16.0000 29.5000 0.0000 1.0000 1.0000 1.0000
vt -1.00000 0.50000
v -16.0000 3.0000 0.0000 1.0000 1.0000 1.0000
vt -2.00000 0.00000
v 16.0000 3.0000 0.0000 1.0000 1.0000 1.0000
vt -1.00000 0.00000
f 7/7 8/8 9/9
v -16.0000 3.0000 0.0000 1.0000 1.0000 1.0000
vt -2.00000 0.00000
v 16.0000 29.5000 0.0000 1.0000 1.0000 1.0000
vt -1.00000 0.50000
v 16.0000 56.0000 0.0000 1.0000 1.0000 1.0000
vt -1.00000 1.00000
f 10/10 11/11 12/12
v -16.0000 3.0000 0.0000 1.0000 1.0000 1.0000
vt -2.00000 0.00000
v 16.0000 56.0000 0.0000 1.0000 1.0000 1.0000
vt -1.00000 1.00000
v -16.0000 56.0000 0.0000 1.0000 1.0000 1.0000
vt -2.00000 1.00000
f 13/13 14/14 15/15
v -16.0000 3.0000 0.0000 1.0000 1.0000 1.0000
vt -1.00000 0.00000
v -16.0000 3.0000 0.0000 1.0000 1.0000 1.0000
vt -1.00000 0.00000
v -16.0000 3.0000 0.0000 1.0000 1.0000 1.0000
vt -1.00000 0.00000
f 16/16 17/17 18/18
v -16.0000 3.0000 0.0000 1.0000 1.0000 1.0000
vt -1.00000 0.00000
v -16.0000 3.0000 0.0000 1.0000 1.0000 1.0000
vt -1.00000 0.00000
v -16.0000 56.0000 0.0000 1.0000 1.0000 1.0000
vt -1.00000 1.00000
f 19/19 20/20 21/21
v -16.0000 3.0000 0.0000 1.0000 1.0000 1.0000
vt -1.00000 0.00000
v -16.0000 56.0000 0.0000 1.0000 1.0000 1.0000
vt -1.00000 1.00000
v -16.0000 56.0000 0.0000 1.0000 1.0000 1.0000
vt -1.00000 1.00000
f 22/22 23/23 24/24
usemtl ki02bx
v 16.0000 22.0000 0.0000 1.0000 1.0000 1.0000
vt -0.50000 -1.00000
v -16.0000 22.0000 16.0000 1.0000 1.0000 1.0000
vt -1.00000 0.00000
v 16.0000 22.0000 16.0000 1.0000 1.0000 1.0000
vt -1.00000 -1.00000
f 25/25 26/26 27/27
v -16.0000 22.0000 16.0000 1.0000 1.0000 1.0000
vt -1.00000 0.00000
v 16.0000 22.0000 0.0000 1.0000 1.0000 1.0000
vt -0.50000 -1.00000
v 16.0000 22.0000 -16.0000 1.0000 1.0000 1.0000
vt 0.00000 -1.00000
f 28/28 29/29 30/30
v -16.0000 22.0000 16.0000 1.0000 1.0000 1.0000
vt -1.00000 0.00000
v 16.0000 22.0000 -16.0000 1.0000 1.0000 1.0000
vt 0.00000 -1.00000
v -16.0000 22.0000 -16.0000 1.0000 1.0000 1.0000
vt 0.00000 0.00000
f 31/31 32/32 33/33
v 16.0000 31.5000 -16.0000 1.0000 1.0000 1.0000
vt 0.33333 -1.00000
v -16.0000 31.5000 -16.0000 1.0000 1.0000 1.0000
vt -0.33333 -1.00000
v -16.0000 31.5000 -16.0000 1.0000 1.0000 1.0000
vt -0.33333 -1.00000
f 34/34 35/35 36/36
v 16.0000 31.5000 -16.0000 1.0000 1.0000 1.0000
vt 0.33333 -1.00000
v -16.0000 31.5000 -16.0000 1.0000 1.0000 1.0000
vt -0.33333 -1.00000
v 16.0000 31.5000 -16.0000 1.0000 1.0000 1.0000
vt 0.33333 -1.00000
f 37/37 38/38 39/39
v 16.0000 31.5000 16.0000 1.0000 1.0000 1.0000
vt 0.33333 0.00000
v 16.0000 31.5000 16.0000 1.0000 1.0000 1.0000
vt 0.33333 0.00000
v -16.0000 31.5000 16.0000 1.0000 1.0000 1.0000
vt -0.33333 0.00000
f 40/40 41/41 42/42
v 16.0000 31.5000 16.0000 1.0000 1.0000 1.0000
vt 0.33333 0.00000
v -16.0000 31.5000 16.0000 1.0000 1.0000 1.0000
vt -0.33333 0.00000
v -16.0000 31.5000 16.0000 1.0000 1.0000 1.0000
vt -0.33333 0.00000
f 43/43 44/44 45/45
v -16.0000 22.0000 16.0000 1.0000 1.0000 1.0000
vt 0.00000 -1.00000
v -16.0000 22.0000 16.0000 1.0000 1.0000 1.0000
vt 0.00000 -1.00000
v -16.0000 22.0000 16.0000 1.0000 1.0000 1.0000
vt 0.00000 -1.00000
f 46/46 47/47 48/48
v -16.0000 22.0000 -16.0000 1.0000 1.0000 1.0000
vt 0.00000 0.00000
v -16.0000 22.0000 16.0000 1.0000 1.0000 1.0000
vt 0.00000 -1.00000
v -16.0000 22.0000 16.0000 1.0000 1.0000 1.0000
vt 0.00000 -1.00000
f 49/49 50/50 51/51
v -16.0000 22.0000 -16.0000 1.0000 1.0000 1.0000
vt 0.00000 0.00000
v -16.0000 22.0000 16.0000 1.0000 1.0000 1.0000
vt 0.00000 -1.00000
v -16.0000 22.0000 -16.0000 1.0000 1.0000 1.0000
vt 0.00000 0.00000
f 52/52 53/53 54/54
usemtl ki02c
v 16.0000 3.0000 0.0000 1.0000 1.0000 1.0000
vt -0.50000 -1.00000
v 16.0000 3.0000 -16.0000 1.0000 1.0000 1.0000
vt 0.00000 -1.00000
v -16.0000 3.0000 -16.0000 1.0000 1.0000 1.0000
vt 0.00000 0.00000
f 55/55 56/56 57/57
v 16.0000 3.0000 16.0000 1.0000 1.0000 1.0000
vt -1.00000 -1.00000
v 16.0000 3.0000 0.0000 1.0000 1.0000 1.0000
vt -0.50000 -1.00000
v -16.0000 3.0000 -16.0000 1.0000 1.0000 1.0000
vt 0.00000 0.00000
f 58/58 59/59 60/60
v 16.0000 3.0000 16.0000 1.0000 1.0000 1.0000
vt -1.00000 -1.00000
v -16.0000 3.0000 -16.0000 1.0000 1.0000 1.0000
vt 0.00000 0.00000
v -16.0000 3.0000 16.0000 1.0000 1.0000 1.0000
vt -1.00000 0.00000
f 61/61 62/62 63/63
v 16.0000 3.0000 -16.0000 1.0000 1.0000 1.0000
vt 0.33333 -1.00000
v -16.0000 3.0000 -16.0000 1.0000 1.0000 1.0000
vt -0.33333 -1.00000
v -16.0000 3.0000 -16.0000 1.0000 1.0000 1.0000
vt -0.33333 -1.00000
f 64/64 65/65 66/66
v 16.0000 3.0000 -16.0000 1.0000 1.0000 1.0000
vt 0.33333 -1.00000
v -16.0000 3.0000 -16.0000 1.0000 1.0000 1.0000
vt -0.33333 -1.00000
v 16.0000 3.0000 -16.0000 1.0000 1.0000 1.0000
vt 0.33333 -1.00000
f 67/67 68/68 69/69
v -16.0000 3.0000 16.0000 1.0000 1.0000 1.0000
vt -0.33333 0.00000
v 16.0000 3.0000 16.0000 1.0000 1.0000 1.0000
vt 0.33333 0.00000
v 16.0000 3.0000 16.0000 1.0000 1.0000 1.0000
vt 0.33333 0.00000
f 70/70 71/71 72/72
v -16.0000 3.0000 16.0000 1.0000 1.0000 1.0000
vt -0.33333 0.00000
v 16.0000 3.0000 16.0000 1.0000 1.0000 1.0000
vt 0.33333 0.00000
v -16.0000 3.0000 16.0000 1.0000 1.0000 1.0000
vt -0.33333 0.00000
f 73/73 74/74 75/75
v -16.0000 3.0000 -16.0000 1.0000 1.0000 1.0000
vt 0.00000 0.00000
v -16.0000 3.0000 16.0000 1.0000 1.0000 1.0000
vt 0.00000 -1.00000
v -16.0000 3.0000 16.0000 1.0000 1.0000 1.0000
vt 0.00000 -1.00000
f 76/76 77/77 78/78
v -16.0000 3.0000 -16.0000 1.0000 1.0000 1.0000
vt 0.00000 0.00000
v -16.0000 3.0000 16.0000 1.0000 1.0000 1.0000
vt 0.00000 -1.00000
v -16.0000 3.0000 -16.0000 1.0000 1.0000 1.0000
vt 0.00000 0.00000
f 79/79 80/80 81/81
v -16.0000 3.0000 -16.0000 1.0000 1.0000 1.0000
vt 0.00000 0.00000
v -16.0000 3.0000 -16.0000 1.0000 1.0000 1.0000
vt 0.00000 0.00000
v -16.0000 3.0000 -16.0000 1.0000 1.0000 1.0000
vt 0.00000 0.00000
f 82/82 83/83 84/84
usemtl ki02dx
v 16.0000 46.5000 0.0000 1.0000 1.0000 1.0000
vt -0.50000 -1.00000
v -16.0000 46.5000 16.0000 1.0000 1.0000 1.0000
vt -1.00000 0.00000
v 16.0000 46.5000 16.0000 1.0000 1.0000 1.0000
vt -1.00000 -1.00000
f 85/85 86/86 87/87
v -16.0000 46.5000 16.0000 1.0000 1.0000 1.0000
vt -1.00000 0.00000
v 16.0000 46.5000 0.0000 1.0000 1.0000 1.0000
vt -0.50000 -1.00000
v 16.0000 46.5000 -16.0000 1.0000 1.0000 1.0000
vt 0.00000 -1.00000
f 88/88 89/89 90/90
v -16.0000 46.5000 16.0000 1.0000 1.0000 1.0000
vt -1.00000 0.00000
v 16.0000 46.5000 -16.0000 1.0000 1.0000 1.0000
vt 0.00000 -1.00000
v -16.0000 46.5000 -16.0000 1.0000 1.0000 1.0000
vt 0.00000 0.00000
f 91/91 92/92 93/93
v 16.0000 68.2500 -16.0000 1.0000 1.0000 1.0000
vt 0.33333 -1.00000
v -16.0000 68.2500 -16.0000 1.0000 1.0000 1.0000
vt -0.33333 -1.00000
v -16.0000 68.2500 -16.0000 1.0000 1.0000 1.0000
vt -0.33333 -1.00000
f 94/94 95/95 96/96
v 16.0000 68.2500 -16.0000 1.0000 1.0000 1.0000
vt 0.33333 -1.00000
v -16.0000 68.2500 -16.0000 1.0000 1.0000 1.0000
vt -0.33333 -1.00000
v 16.0000 68.2500 -16.0000 1.0000 1.0000 1.0000
vt 0.33333 -1.00000
f 97/97 98/98 99/99
v 16.0000 68.2500 16.0000 1.0000 1.0000 1.0000
vt 0.33333 0.00000
v 16.0000 68.2500 16.0000 1.0000 1.0000 1.0000
vt 0.33333 0.00000
v -16.0000 68.2500 16.0000 1.0000 1.0000 1.0000
vt -0.33333 0.00000
f 100/100 101/101 102/102
v 16.0000 68.2500 16.0000 1.0000 1.0000 1.0000
vt 0.33333 0.00000
v -16.0000 68.2500 16.0000 1.0000 1.0000 1.0000
vt -0.33333 0.00000
v -16.0000 68.2500 16.0000 1.0000 1.0000 1.0000
vt -0.33333 0.00000
f 103/103 104/104 105/105
v -16.0000 46.5000 16.0000 1.0000 1.0000 1.0000
vt 0.00000 -1.00000
v -16.0000 46.5000 16.0000 1.0000 1.0000 1.0000
vt 0.00000 -1.00000
v -16.0000 46.5000 16.0000 1.0000 1.0000 1.0000
vt 0.00000 -1.00000
f 106/106 107/107 108/108
v -16.0000 46.5000 -16.0000 1.0000 1.0000 1.0000
vt 0.00000 0.00000
v -16.0000 46.5000 16.0000 1.0000 1.0000 1.0000
vt 0.00000 -1.00000
v -16.0000 46.5000 16.0000 1.0000 1.0000 1.0000
vt 0.00000 -1.00000
f 109/109 110/110 111/111
v -16.0000 46.5000 -16.0000 1.0000 1.0000 1.0000
vt 0.00000 0.00000
v -16.0000 46.5000 16.0000 1.0000 1.0000 1.0000
vt 0.00000 -1.00000
v -16.0000 46.5000 -16.0000 1.0000 1.0000 1.0000
vt 0.00000 0.00000
f 112/112 113/113 114/114
