# Découpé dans Lostlorn Forest par tools/maps/build_forest_kit.py
mtllib forest_stump.mtl
usemtl stump_01_01
v 6.7900 25.4346 11.7646 1.0000 1.0000 1.0000
vt 0.79102 0.04297
v 13.5801 25.4346 0.0039 1.0000 1.0000 1.0000
vt 1.02734 0.50000
v 0.0000 25.4346 0.0039 1.0000 1.0000 1.0000
vt 0.49609 0.50000
f 1/1 2/2 3/3
v 13.5801 25.4346 0.0039 1.0000 1.0000 1.0000
vt 1.02734 0.50000
v 6.7900 25.4346 -11.7568 1.0000 1.0000 1.0000
vt 0.75781 0.99414
v 0.0000 25.4346 0.0039 1.0000 1.0000 1.0000
vt 0.49609 0.50000
f 4/4 5/5 6/6
v 0.0000 25.4346 0.0039 1.0000 1.0000 1.0000
vt 0.49609 0.50000
v 6.7900 25.4346 -11.7568 1.0000 1.0000 1.0000
vt 0.75781 0.99414
v -6.7900 25.4346 -11.7568 1.0000 1.0000 1.0000
vt 0.23242 0.99414
f 7/7 8/8 9/9
v -6.7900 25.4346 -11.7568 1.0000 1.0000 1.0000
vt 0.23242 0.99414
v -13.5801 25.4346 0.0039 1.0000 1.0000 1.0000
vt -0.03711 0.50000
v 0.0000 25.4346 0.0039 1.0000 1.0000 1.0000
vt 0.49609 0.50000
f 10/10 11/11 12/12
v -13.5801 25.4346 0.0039 1.0000 1.0000 1.0000
vt -0.03711 0.50000
v -6.7900 25.4346 11.7646 1.0000 1.0000 1.0000
vt 0.19922 0.04297
v 0.0000 25.4346 0.0039 1.0000 1.0000 1.0000
vt 0.49609 0.50000
f 13/13 14/14 15/15
v 0.0000 25.4346 0.0039 1.0000 1.0000 1.0000
vt 0.49609 0.50000
v -6.7900 25.4346 11.7646 1.0000 1.0000 1.0000
vt 0.19922 0.04297
v 6.7900 25.4346 11.7646 1.0000 1.0000 1.0000
vt 0.79102 0.04297
f 16/16 17/17 18/18
usemtl stump_01_02
v -8.4736 11.0000 -14.6738 1.0000 1.0000 1.0000
vt 1.00000 0.31055
v 8.4736 11.0000 -14.6738 1.0000 1.0000 1.0000
vt 0.00000 0.31055
v 8.4736 11.0000 -21.5996 1.0000 1.0000 1.0000
vt 0.00000 0.01758
f 19/19 20/20 21/21
v -8.4736 11.0000 -14.6738 1.0000 1.0000 1.0000
vt 1.00000 0.31055
v 8.4736 11.0000 -21.5996 1.0000 1.0000 1.0000
vt 0.00000 0.01758
v -8.4736 11.0000 -21.5996 1.0000 1.0000 1.0000
vt 1.00000 0.01758
f 22/22 23/23 24/24
v 8.4736 11.0000 -14.6738 1.0000 1.0000 1.0000
vt 1.00000 0.31055
v 16.9482 11.0000 0.0039 1.0000 1.0000 1.0000
vt 0.00000 0.31055
v 21.6514 11.0000 -2.6445 1.0000 1.0000 1.0000
vt 0.00000 0.01758
f 25/25 26/26 27/27
v 8.4736 11.0000 -14.6738 1.0000 1.0000 1.0000
vt 1.00000 0.31055
v 21.6514 11.0000 -2.6445 1.0000 1.0000 1.0000
vt 0.00000 0.01758
v 15.5576 11.0000 -17.3213 1.0000 1.0000 1.0000
vt 1.00000 0.01758
f 28/28 29/29 30/30
v 16.9482 11.0000 0.0039 1.0000 1.0000 1.0000
vt 1.00000 0.31055
v 8.4736 11.0000 14.6807 1.0000 1.0000 1.0000
vt 0.00000 0.31055
v 13.8223 11.0000 18.0234 1.0000 1.0000 1.0000
vt 0.00000 0.01758
f 31/31 32/32 33/33
v 16.9482 11.0000 0.0039 1.0000 1.0000 1.0000
vt 1.00000 0.31055
v 13.8223 11.0000 18.0234 1.0000 1.0000 1.0000
vt 0.00000 0.01758
v 21.6514 11.0000 3.3457 1.0000 1.0000 1.0000
vt 1.00000 0.01758
f 34/34 35/35 36/36
v 8.4736 11.0000 14.6807 1.0000 1.0000 1.0000
vt 1.00000 0.31055
v -8.4736 11.0000 14.6807 1.0000 1.0000 1.0000
vt 0.00000 0.31055
v -8.4736 11.0000 21.6758 1.0000 1.0000 1.0000
vt 0.00000 0.01758
f 37/37 38/38 39/39
v 8.4736 11.0000 14.6807 1.0000 1.0000 1.0000
vt 1.00000 0.31055
v -8.4736 11.0000 21.6758 1.0000 1.0000 1.0000
vt 0.00000 0.01758
v 8.4736 11.0000 21.6758 1.0000 1.0000 1.0000
vt 1.00000 0.01758
f 40/40 41/41 42/42
v -16.9482 11.0000 0.0039 1.0000 1.0000 1.0000
vt 1.00000 0.31055
v -8.4736 11.0000 -14.6738 1.0000 1.0000 1.0000
vt 0.00000 0.31055
v -14.9893 11.0000 -17.9619 1.0000 1.0000 1.0000
vt 0.00000 0.01758
f 43/43 44/44 45/45
v -16.9482 11.0000 0.0039 1.0000 1.0000 1.0000
vt 1.00000 0.31055
v -14.9893 11.0000 -17.9619 1.0000 1.0000 1.0000
vt 0.00000 0.01758
v -21.6514 11.0000 -3.2852 1.0000 1.0000 1.0000
vt 1.00000 0.01758
f 46/46 47/47 48/48
v -8.4736 11.0000 14.6807 1.0000 1.0000 1.0000
vt 1.00000 0.31055
v -16.9482 11.0000 0.0039 1.0000 1.0000 1.0000
vt 0.00000 0.31055
v -21.6514 11.0000 3.7119 1.0000 1.0000 1.0000
vt 0.00000 0.01758
f 49/49 50/50 51/51
v -8.4736 11.0000 14.6807 1.0000 1.0000 1.0000
vt 1.00000 0.31055
v -21.6514 11.0000 3.7119 1.0000 1.0000 1.0000
vt 0.00000 0.01758
v -14.9668 11.0000 19.2178 1.0000 1.0000 1.0000
vt 1.00000 0.01758
f 52/52 53/53 54/54
v 13.5801 25.4346 0.0039 1.0000 1.0000 1.0000
vt 0.90039 0.91602
v 6.7900 25.4346 11.7646 1.0000 1.0000 1.0000
vt 0.09961 0.91602
v 8.4736 11.0000 14.6807 1.0000 1.0000 1.0000
vt 0.00000 0.28906
f 55/55 56/56 57/57
v 13.5801 25.4346 0.0039 1.0000 1.0000 1.0000
vt 0.90039 0.91602
v 8.4736 11.0000 14.6807 1.0000 1.0000 1.0000
vt 0.00000 0.28906
v 16.9482 11.0000 0.0039 1.0000 1.0000 1.0000
vt 1.00000 0.28906
f 58/58 59/59 60/60
v 6.7900 25.4346 -11.7568 1.0000 1.0000 1.0000
vt 0.90039 0.91602
v 13.5801 25.4346 0.0039 1.0000 1.0000 1.0000
vt 0.09961 0.91602
v 16.9482 11.0000 0.0039 1.0000 1.0000 1.0000
vt 0.00000 0.28906
f 61/61 62/62 63/63
v 6.7900 25.4346 -11.7568 1.0000 1.0000 1.0000
vt 0.90039 0.91602
v 16.9482 11.0000 0.0039 1.0000 1.0000 1.0000
vt 0.00000 0.28906
v 8.4736 11.0000 -14.6738 1.0000 1.0000 1.0000
vt 1.00000 0.28906
f 64/64 65/65 66/66
v -6.7900 25.4346 -11.7568 1.0000 1.0000 1.0000
vt 0.90039 0.91602
v 6.7900 25.4346 -11.7568 1.0000 1.0000 1.0000
vt 0.09961 0.91602
v 8.4736 11.0000 -14.6738 1.0000 1.0000 1.0000
vt 0.00000 0.28906
f 67/67 68/68 69/69
v -6.7900 25.4346 -11.7568 1.0000 1.0000 1.0000
vt 0.90039 0.91602
v 8.4736 11.0000 -14.6738 1.0000 1.0000 1.0000
vt 0.00000 0.28906
v -8.4736 11.0000 -14.6738 1.0000 1.0000 1.0000
vt 1.00000 0.28906
f 70/70 71/71 72/72
v -13.5801 25.4346 0.0039 1.0000 1.0000 1.0000
vt 0.90039 0.91602
v -6.7900 25.4346 -11.7568 1.0000 1.0000 1.0000
vt 0.09961 0.91602
v -8.4736 11.0000 -14.6738 1.0000 1.0000 1.0000
vt 0.00000 0.28906
f 73/73 74/74 75/75
v -13.5801 25.4346 0.0039 1.0000 1.0000 1.0000
vt 0.90039 0.91602
v -8.4736 11.0000 -14.6738 1.0000 1.0000 1.0000
vt 0.00000 0.28906
v -16.9482 11.0000 0.0039 1.0000 1.0000 1.0000
vt 1.00000 0.28906
f 76/76 77/77 78/78
v -6.7900 25.4346 11.7646 1.0000 1.0000 1.0000
vt 0.90039 0.91602
v -13.5801 25.4346 0.0039 1.0000 1.0000 1.0000
vt 0.09961 0.91602
v -16.9482 11.0000 0.0039 1.0000 1.0000 1.0000
vt 0.00000 0.28906
f 79/79 80/80 81/81
v -6.7900 25.4346 11.7646 1.0000 1.0000 1.0000
vt 0.90039 0.91602
v -16.9482 11.0000 0.0039 1.0000 1.0000 1.0000
vt 0.00000 0.28906
v -8.4736 11.0000 14.6807 1.0000 1.0000 1.0000
vt 1.00000 0.28906
f 82/82 83/83 84/84
v 6.7900 25.4346 11.7646 1.0000 1.0000 1.0000
vt 0.90039 0.91602
v -6.7900 25.4346 11.7646 1.0000 1.0000 1.0000
vt 0.09961 0.91602
v -8.4736 11.0000 14.6807 1.0000 1.0000 1.0000
vt 0.00000 0.28906
f 85/85 86/86 87/87
v 6.7900 25.4346 11.7646 1.0000 1.0000 1.0000
vt 0.90039 0.91602
v -8.4736 11.0000 14.6807 1.0000 1.0000 1.0000
vt 0.00000 0.28906
v 8.4736 11.0000 14.6807 1.0000 1.0000 1.0000
vt 1.00000 0.28906
f 88/88 89/89 90/90
usemtl h_kage
v 0.0000 10.0000 -24.0000 1.0000 1.0000 1.0000
vt 0.50000 0.79688
v -18.0000 10.0000 -18.0000 1.0000 1.0000 1.0000
vt 0.50000 0.79688
v -24.0000 10.0000 0.0000 1.0000 1.0000 1.0000
vt 0.50000 0.79688
f 91/91 92/92 93/93
v 0.0000 10.0000 -24.0000 1.0000 1.0000 1.0000
vt 0.50000 0.79688
v -24.0000 10.0000 0.0000 1.0000 1.0000 1.0000
vt 0.50000 0.79688
v 0.0000 10.0000 0.0000 1.0000 1.0000 1.0000
vt 0.50000 0.12500
f 94/94 95/95 96/96
v 0.0000 10.0000 0.0000 1.0000 1.0000 1.0000
vt 0.50000 0.12500
v -24.0000 10.0000 0.0000 1.0000 1.0000 1.0000
vt 0.50000 0.79688
v -18.0000 10.0000 18.0000 1.0000 1.0000 1.0000
vt 0.50000 0.79688
f 97/97 98/98 99/99
v 0.0000 10.0000 0.0000 1.0000 1.0000 1.0000
vt 0.50000 0.12500
v -18.0000 10.0000 18.0000 1.0000 1.0000 1.0000
vt 0.50000 0.79688
v 0.0000 10.0000 24.0000 1.0000 1.0000 1.0000
vt 0.50000 0.79688
f 100/100 101/101 102/102
v 18.0000 10.0000 -18.0000 1.0000 1.0000 1.0000
vt 0.50000 0.79688
v 18.0000 10.0000 -18.0000 1.0000 1.0000 1.0000
vt 0.50000 0.79688
v 24.0000 10.0000 0.0000 1.0000 1.0000 1.0000
vt 0.50000 0.79688
f 103/103 104/104 105/105
v 18.0000 10.0000 -18.0000 1.0000 1.0000 1.0000
vt 0.50000 0.79688
v 0.0000 10.0000 0.0000 1.0000 1.0000 1.0000
vt 0.50000 0.12500
v 24.0000 10.0000 0.0000 1.0000 1.0000 1.0000
vt 0.50000 0.79688
f 106/106 107/107 108/108
v 18.0000 10.0000 18.0000 1.0000 1.0000 1.0000
vt 0.50000 0.79688
v 24.0000 10.0000 0.0000 1.0000 1.0000 1.0000
vt 0.50000 0.79688
v 0.0000 10.0000 0.0000 1.0000 1.0000 1.0000
vt 0.50000 0.12500
f 109/109 110/110 111/111
v 18.0000 10.0000 18.0000 1.0000 1.0000 1.0000
vt 0.50000 0.79688
v 0.0000 10.0000 0.0000 1.0000 1.0000 1.0000
vt 0.50000 0.12500
v 0.0000 10.0000 24.0000 1.0000 1.0000 1.0000
vt 0.50000 0.79688
f 112/112 113/113 114/114
v 0.0000 10.0000 -24.0000 1.0000 1.0000 1.0000
vt 0.50000 0.79688
v 0.0000 10.0000 0.0000 1.0000 1.0000 1.0000
vt 0.50000 0.12500
v 18.0000 10.0000 -18.0000 1.0000 1.0000 1.0000
vt 0.50000 0.79688
f 115/115 116/116 117/117
