# Découpé dans Lostlorn Forest par tools/maps/build_forest_kit.py
mtllib forest_tree_dark.mtl
usemtl ki00a2
v 0.0000 12.6000 16.0000 1.0000 1.0000 1.0000
vt -7.00000 0.20000
v 0.0000 7.3000 -16.0000 1.0000 1.0000 1.0000
vt -8.00000 0.10000
v 0.0000 2.0000 -16.0000 1.0000 1.0000 1.0000
vt -8.00000 0.00000
f 1/1 2/2 3/3
v 0.0000 12.6000 16.0000 1.0000 1.0000 1.0000
vt -7.00000 0.20000
v 0.0000 2.0000 -16.0000 1.0000 1.0000 1.0000
vt -8.00000 0.00000
v 0.0000 2.0000 16.0000 1.0000 1.0000 1.0000
vt -7.00000 0.00000
f 4/4 5/5 6/6
v 0.0000 7.3000 -16.0000 1.0000 1.0000 1.0000
vt -8.00000 0.10000
v 0.0000 12.6000 16.0000 1.0000 1.0000 1.0000
vt -7.00000 0.20000
v 0.0000 55.0000 16.0000 1.0000 1.0000 1.0000
vt -7.00000 1.00000
f 7/7 8/8 9/9
v 0.0000 7.3000 -16.0000 1.0000 1.0000 1.0000
vt -8.00000 0.10000
v 0.0000 55.0000 16.0000 1.0000 1.0000 1.0000
vt -7.00000 1.00000
v 0.0000 55.0000 -16.0000 1.0000 1.0000 1.0000
vt -8.00000 1.00000
f 10/10 11/11 12/12
v 16.0000 28.5000 0.0000 1.0000 1.0000 1.0000
vt -1.00000 0.50000
v -16.0000 2.0000 0.0000 1.0000 1.0000 1.0000
vt -2.00000 0.00000
v 16.0000 2.0000 0.0000 1.0000 1.0000 1.0000
vt -1.00000 0.00000
f 13/13 14/14 15/15
v -16.0000 2.0000 0.0000 1.0000 1.0000 1.0000
vt -2.00000 0.00000
v 16.0000 28.5000 0.0000 1.0000 1.0000 1.0000
vt -1.00000 0.50000
v 16.0000 55.0000 0.0000 1.0000 1.0000 1.0000
vt -1.00000 1.00000
f 16/16 17/17 18/18
v -16.0000 2.0000 0.0000 1.0000 1.0000 1.0000
vt -2.00000 0.00000
v 16.0000 55.0000 0.0000 1.0000 1.0000 1.0000
vt -1.00000 1.00000
v -16.0000 55.0000 0.0000 1.0000 1.0000 1.0000
vt -2.00000 1.00000
f 19/19 20/20 21/21
usemtl ki00b2
v -3.2000 21.0000 16.0000 1.0000 1.0000 1.0000
vt -1.60000 6.00000
v -9.6000 21.0000 -16.0000 1.0000 1.0000 1.0000
vt -1.80000 7.00000
v -16.0000 21.0000 -16.0000 1.0000 1.0000 1.0000
vt -2.00000 7.00000
f 22/22 23/23 24/24
v -3.2000 21.0000 16.0000 1.0000 1.0000 1.0000
vt -1.60000 6.00000
v -16.0000 21.0000 -16.0000 1.0000 1.0000 1.0000
vt -2.00000 7.00000
v -16.0000 21.0000 16.0000 1.0000 1.0000 1.0000
vt -2.00000 6.00000
f 25/25 26/26 27/27
v 16.0000 21.0000 16.0000 1.0000 1.0000 1.0000
vt -1.00000 6.00000
v 16.0000 21.0000 -16.0000 1.0000 1.0000 1.0000
vt -1.00000 7.00000
v -9.6000 21.0000 -16.0000 1.0000 1.0000 1.0000
vt -1.80000 7.00000
f 28/28 29/29 30/30
v 16.0000 21.0000 16.0000 1.0000 1.0000 1.0000
vt -1.00000 6.00000
v -9.6000 21.0000 -16.0000 1.0000 1.0000 1.0000
vt -1.80000 7.00000
v -3.2000 21.0000 16.0000 1.0000 1.0000 1.0000
vt -1.60000 6.00000
f 31/31 32/32 33/33
v -16.0000 21.0000 16.0000 1.0000 1.0000 1.0000
vt 0.00000 0.00000
v -16.0000 21.0000 16.0000 1.0000 1.0000 1.0000
vt 0.00000 0.00000
v -16.0000 21.0000 16.0000 1.0000 1.0000 1.0000
vt 0.00000 0.00000
f 34/34 35/35 36/36
v -16.0000 21.0000 16.0000 1.0000 1.0000 1.0000
vt 0.00000 0.00000
v -16.0000 21.0000 16.0000 1.0000 1.0000 1.0000
vt 0.00000 0.00000
v -16.0000 21.0000 16.0000 1.0000 1.0000 1.0000
vt 0.00000 0.00000
f 37/37 38/38 39/39
usemtl ki00c2
v -16.0000 2.0000 -16.0000 1.0000 1.0000 1.0000
vt -2.00000 7.00000
v -16.0000 2.0000 16.0000 1.0000 1.0000 1.0000
vt -2.00000 6.00000
v 16.0000 2.0000 16.0000 1.0000 1.0000 1.0000
vt -1.00000 6.00000
f 40/40 41/41 42/42
v -16.0000 2.0000 -16.0000 1.0000 1.0000 1.0000
vt -2.00000 7.00000
v 16.0000 2.0000 16.0000 1.0000 1.0000 1.0000
vt -1.00000 6.00000
v 16.0000 2.0000 -16.0000 1.0000 1.0000 1.0000
vt -1.00000 7.00000
f 43/43 44/44 45/45
v -16.0000 2.0000 16.0000 1.0000 1.0000 1.0000
vt 0.00000 0.00000
v -16.0000 2.0000 16.0000 1.0000 1.0000 1.0000
vt 0.00000 0.00000
v -16.0000 2.0000 16.0000 1.0000 1.0000 1.0000
vt 0.00000 0.00000
f 46/46 47/47 48/48
v -16.0000 2.0000 16.0000 1.0000 1.0000 1.0000
vt 0.00000 0.00000
v -16.0000 2.0000 16.0000 1.0000 1.0000 1.0000
vt 0.00000 0.00000
v -16.0000 2.0000 16.0000 1.0000 1.0000 1.0000
vt 0.00000 0.00000
f 49/49 50/50 51/51
v -16.0000 2.0000 16.0000 1.0000 1.0000 1.0000
vt 0.00000 0.00000
v -16.0000 2.0000 16.0000 1.0000 1.0000 1.0000
vt 0.00000 0.00000
v -16.0000 2.0000 16.0000 1.0000 1.0000 1.0000
vt 0.00000 0.00000
f 52/52 53/53 54/54
usemtl ki00d2
v -3.2000 45.5000 16.0000 1.0000 1.0000 1.0000
vt -1.60000 6.00000
v -9.6000 45.5000 -16.0000 1.0000 1.0000 1.0000
vt -1.80000 7.00000
v -16.0000 45.5000 -16.0000 1.0000 1.0000 1.0000
vt -2.00000 7.00000
f 55/55 56/56 57/57
v -3.2000 45.5000 16.0000 1.0000 1.0000 1.0000
vt -1.60000 6.00000
v -16.0000 45.5000 -16.0000 1.0000 1.0000 1.0000
vt -2.00000 7.00000
v -16.0000 45.5000 16.0000 1.0000 1.0000 1.0000
vt -2.00000 6.00000
f 58/58 59/59 60/60
v 16.0000 45.5000 16.0000 1.0000 1.0000 1.0000
vt -1.00000 6.00000
v 16.0000 45.5000 -16.0000 1.0000 1.0000 1.0000
vt -1.00000 7.00000
v -9.6000 45.5000 -16.0000 1.0000 1.0000 1.0000
vt -1.80000 7.00000
f 61/61 62/62 63/63
v 16.0000 45.5000 16.0000 1.0000 1.0000 1.0000
vt -1.00000 6.00000
v -9.6000 45.5000 -16.0000 1.0000 1.0000 1.0000
vt -1.80000 7.00000
v -3.2000 45.5000 16.0000 1.0000 1.0000 1.0000
vt -1.60000 6.00000
f 64/64 65/65 66/66
v -16.0000 45.5000 16.0000 1.0000 1.0000 1.0000
vt 0.00000 0.00000
v -16.0000 45.5000 16.0000 1.0000 1.0000 1.0000
vt 0.00000 0.00000
v -16.0000 45.5000 16.0000 1.0000 1.0000 1.0000
vt 0.00000 0.00000
f 67/67 68/68 69/69
v -16.0000 45.5000 16.0000 1.0000 1.0000 1.0000
vt 0.00000 0.00000
v -16.0000 45.5000 16.0000 1.0000 1.0000 1.0000
vt 0.00000 0.00000
v -16.0000 45.5000 16.0000 1.0000 1.0000 1.0000
vt 0.00000 0.00000
f 70/70 71/71 72/72
