# Découpé dans Lostlorn Forest par tools/maps/build_forest_kit.py
mtllib forest_tall_grass.mtl
usemtl kusa_ec1
v -8.0000 8.0000 8.0000 1.0000 1.0000 1.0000
vt -1.00000 0.00000
v 8.0000 8.0000 8.0000 1.0000 1.0000 1.0000
vt 0.00000 0.00000
v 8.0000 8.0000 -8.0000 1.0000 1.0000 1.0000
vt 0.00000 1.00000
f 1/1 2/2 3/3
v -8.0000 8.0000 8.0000 1.0000 1.0000 1.0000
vt -1.00000 0.00000
v 8.0000 8.0000 -8.0000 1.0000 1.0000 1.0000
vt 0.00000 1.00000
v -8.0000 8.0000 -8.0000 1.0000 1.0000 1.0000
vt -1.00000 1.00000
f 4/4 5/5 6/6
usemtl kusa_ec2
v -8.0000 6.0000 8.0000 1.0000 1.0000 1.0000
vt -1.00000 0.00000
v 8.0000 6.0000 8.0000 1.0000 1.0000 1.0000
vt 0.00000 0.00000
v 8.0000 6.0000 -8.0000 1.0000 1.0000 1.0000
vt 0.00000 1.00000
f 7/7 8/8 9/9
v -8.0000 6.0000 8.0000 1.0000 1.0000 1.0000
vt -1.00000 0.00000
v 8.0000 6.0000 -8.0000 1.0000 1.0000 1.0000
vt 0.00000 1.00000
v -8.0000 6.0000 -8.0000 1.0000 1.0000 1.0000
vt -1.00000 1.00000
f 10/10 11/11 12/12
