# Created by MKDS Course Modifier
mtllib Driftveil City Statue.mtl
g polygon0
usemtl c5hana_lm1
v 16 14 16
v 24 14 0
v 0 14 24
v 0 14 0
v -16 14 16
v -24 14 0
vn 0 0.9980469 0
vn 0 0.9980469 0
vn 0 0.9980469 0
vn 0 0.9980469 0
vn 0 0.9980469 0
vn 0 0.9980469 0
vt 2.828125 1.488281
vt 1.980469 1.384766
vt 3.609375 1.384766
vt 2.828125 1.023438
vt 2.828125 1.490234
vt 1.980469 1.384766
f 1/1/1 2/2/2 3/3/3
f 2/2/2 4/4/4 3/3/3
f 3/3/3 4/4/4 5/5/5
f 4/4/4 6/6/6 5/5/5
v 16 12 16
v 24 12 0
v 0 12 24
v 0 12 0
v -16 12 16
v -24 12 0
vn 0 0.9980469 0
vn 0 0.9980469 0
vn 0 0.9980469 0
vn 0 0.9980469 0
vn 0 0.9980469 0
vn 0 0.9980469 0
vt 1.273438 0.5488281
vt 0.6210938 0.6699219
vt 1.8125 0.6699219
vt 1.257813 0.9628906
vt 1.273438 0.5488281
vt 0.6210938 0.6699219
f 7/7/7 8/8/8 9/9/9
f 8/8/8 10/10/10 9/9/9
f 9/9/9 10/10/10 11/11/11
f 10/10/10 12/12/12 11/11/11
v 0 14 0
v 24 14 0
v 16 14 -16
v 0 14 -24
v 0 14 0
v 0 14 -24
v -16 14 -16
v -24 14 0
v 0 12 0
v 24 12 0
v 16 12 -16
v 0 12 -24
v 0 12 0
v 0 12 -24
v -16 12 -16
v -24 12 0
vn 0 0.9980469 0
vn 0 0.9980469 0
vn 0 0.9980469 0
vn 0 0.9980469 0
vn 0 0.9980469 0
vn 0 0.9980469 0
vn 0 0.9980469 0
vn 0 0.9980469 0
vn 0 0.9980469 0
vn 0 0.9980469 0
vn 0 0.9980469 0
vn 0 0.9980469 0
vn 0 0.9980469 0
vn 0 0.9980469 0
vn 0 0.9980469 0
vn 0 0.9980469 0
vt 2.828125 1.023438
vt 3.609375 1.384766
vt 2.828125 1.488281
vt 1.980469 1.384766
vt 2.828125 1.023438
vt 3.609375 1.384766
vt 2.828125 1.488281
vt 1.980469 1.384766
vt 1.257813 0.9628906
vt 1.8125 0.6699219
vt 1.273438 0.5488281
vt 0.6210938 0.6699219
vt 1.257813 0.9628906
vt 1.8125 0.6699219
vt 1.273438 0.5488281
vt 0.6210938 0.6699219
f 13/13/13 14/14/14 15/15/15 16/16/16
f 17/17/17 18/18/18 19/19/19 20/20/20
f 21/21/21 22/22/22 23/23/23 24/24/24
f 25/25/25 26/26/26 27/27/27 28/28/28
g polygon1
usemtl c5kadan_lm1
v -16 4 16
v -16 12 16
v -24 4 0
v -24 12 0
v -16 4 -16
v -16 12 -16
vn -0.8945313 0 0.4472656
vn -0.8945313 0 0.4472656
vn -1 0 0
vn -1 0 0
vn -0.8945313 0 -0.4472656
vn -0.8945313 0 -0.4472656
vt 3.257813 -0.9921875
vt 3.257813 -0.078125
vt 2.34375 -0.9921875
vt 2.34375 -0.078125
vt 3.257813 -0.9921875
vt 3.257813 -0.078125
f 29/29/29 30/30/30 31/31/31
f 30/30/30 32/32/32 31/31/31
f 31/31/31 32/32/32 33/33/33
f 32/32/32 34/34/34 33/33/33
v 0 4 24
v 0 12 24
v -16 12 16
v -16 4 16
v 0 4 -24
v 0 12 -24
v 16 12 -16
v 16 4 -16
v 24 12 0
v 24 4 0
v 16 4 -16
v 16 12 -16
v 16 12 16
v 0 12 24
v 0 4 24
v 16 4 16
v -16 4 -16
v -16 12 -16
v 0 12 -24
v 0 4 -24
v 16 4 16
v 24 4 0
v 24 12 0
v 16 12 16
vn 0 0 0.9980469
vn 0 0 0.9980469
vn -0.4472656 0 0.8945313
vn -0.4472656 0 0.8945313
vn 0 0 -1
vn 0 0 -1
vn 0.4472656 0 -0.8945313
vn 0.4472656 0 -0.8945313
vn 0.9980469 0 0
vn 0.9980469 0 0
vn 0.8945313 0 -0.4472656
vn 0.8945313 0 -0.4472656
vn 0.4472656 0 0.8945313
vn 0 0 0.9980469
vn 0 0 0.9980469
vn 0.4472656 0 0.8945313
vn -0.4472656 0 -0.8945313
vn -0.4472656 0 -0.8945313
vn 0 0 -1
vn 0 0 -1
vn 0.8945313 0 0.4472656
vn 0.9980469 0 0
vn 0.9980469 0 0
vn 0.8945313 0 0.4472656
vt 2.34375 -0.9921875
vt 2.34375 -0.078125
vt 3.257813 -0.078125
vt 3.257813 -0.9921875
vt 2.34375 -0.9921875
vt 2.34375 -0.078125
vt 3.257813 -0.078125
vt 3.257813 -0.9921875
vt 2.34375 -0.078125
vt 2.34375 -0.9921875
vt 3.257813 -0.9921875
vt 3.257813 -0.078125
vt 1.980469 -0.078125
vt 3.621094 -0.078125
vt 3.621094 -0.9921875
vt 1.980469 -0.9921875
vt 2.34375 -0.9921875
vt 2.34375 -0.078125
vt 3.257813 -0.078125
vt 3.257813 -0.9921875
vt 1.980469 -0.9921875
vt 3.621094 -0.9921875
vt 3.621094 -0.078125
vt 1.980469 -0.078125
f 35/35/35 36/36/36 37/37/37 38/38/38
f 39/39/39 40/40/40 41/41/41 42/42/42
f 43/43/43 44/44/44 45/45/45 46/46/46
f 47/47/47 48/48/48 49/49/49 50/50/50
f 51/51/51 52/52/52 53/53/53 54/54/54
f 55/55/55 56/56/56 57/57/57 58/58/58
g polygon2
usemtl h_kage_lm1
v 0 2 -28
v 0 2 -16
v 20 2 -20
v 16 2 -16
v 28 2 0
v 16 2 0
v 20 2 20
v 16 2 16
v 0 2 28
v 0 2 16
v -20 2 20
v -16 2 16
v -28 2 0
v -16 2 0
v -20 2 -20
v -16 2 -16
v 0 2 -28
v 0 2 -16
vn 0 0.9980469 0
vn 0 0.9980469 0
vn 0 0.9980469 0
vn 0 0.9980469 0
vn 0 0.9980469 0
vn 0 0.9980469 0
vn 0 0.9980469 0
vn 0 0.9980469 0
vn 0 0.9980469 0
vn 0 0.9980469 0
vn 0 0.9980469 0
vn 0 0.9980469 0
vn 0 0.9980469 0
vn 0 0.9980469 0
vn 0 0.9980469 0
vn 0 0.9980469 0
vn 0 0.9980469 0
vn 0 0.9980469 0
vt 0.5 -0.125
vt 0.5 -0.875
vt 0.5 -0.125
vt 0.5 -0.875
vt 0.5 -0.125
vt 0.5 -0.875
vt 0.5 -0.125
vt 0.5 -0.875
vt 0.5 -0.125
vt 0.5 -0.875
vt 0.5 -0.125
vt 0.5 -0.875
vt 0.5 -0.125
vt 0.5 -0.875
vt 0.5 -0.125
vt 0.5 -0.875
vt 0.5 -0.125
vt 0.5 -0.875
f 59/59/59 60/60/60 61/61/61
f 60/60/60 62/62/62 61/61/61
f 61/61/61 62/62/62 63/63/63
f 62/62/62 64/64/64 63/63/63
f 63/63/63 64/64/64 65/65/65
f 64/64/64 66/66/66 65/65/65
f 65/65/65 66/66/66 67/67/67
f 66/66/66 68/68/68 67/67/67
f 67/67/67 68/68/68 69/69/69
f 68/68/68 70/70/70 69/69/69
f 69/69/69 70/70/70 71/71/71
f 70/70/70 72/72/72 71/71/71
f 71/71/71 72/72/72 73/73/73
f 72/72/72 74/74/74 73/73/73
f 73/73/73 74/74/74 75/75/75
f 74/74/74 76/76/76 75/75/75
v 16 2 0
v 16 2 -16
v 0 2 0
v 0 2 -16
v -16 2 0
v -16 2 -16
vn 0 0.9980469 0
vn 0 0.9980469 0
vn 0 0.9980469 0
vn 0 0.9980469 0
vn 0 0.9980469 0
vn 0 0.9980469 0
vt 0.5 -0.875
vt 0.5 -0.875
vt 0.5 -0.875
vt 0.5 -0.875
vt 0.5 -0.875
vt 0.5 -0.875
f 77/77/77 78/78/78 79/79/79
f 78/78/78 80/80/80 79/79/79
f 79/79/79 80/80/80 81/81/81
f 80/80/80 82/82/82 81/81/81
v 16 2 16
v 16 2 0
v 0 2 16
v 0 2 0
v -16 2 16
v -16 2 0
vn 0 0.9980469 0
vn 0 0.9980469 0
vn 0 0.9980469 0
vn 0 0.9980469 0
vn 0 0.9980469 0
vn 0 0.9980469 0
vt 0.5 -0.875
vt 0.5 -0.875
vt 0.5 -0.875
vt 0.5 -0.875
vt 0.5 -0.875
vt 0.5 -0.875
f 83/83/83 84/84/84 85/85/85
f 84/84/84 86/86/86 85/85/85
f 85/85/85 86/86/86 87/87/87
f 86/86/86 88/88/88 87/87/87
g polygon3
usemtl c5zou_lm1
v 8.542969 58 -4.566406
v 9.042969 58 -3.699219
v 13.375 49 -6.199219
v 14.125 49 -4.902344
v 11.99219 41.5 -5.59375
v 13.32422 41.5 -3.285156
v 8.144531 35.5 -3.757813
v 9.894531 35.5 -0.7265625
v 2.550781 32 0.05078125
v 4.300781 32 3.082031
vn 0.7578125 0.4863281 -0.4375
vn 0.7578125 0.4863281 -0.4375
vn 0.8554688 0.1542969 -0.4941406
vn 0.8554688 0.1542969 -0.4941406
vn 0.7949219 -0.3964844 -0.4589844
vn 0.7949219 -0.3964844 -0.4589844
vn 0.5683594 -0.7539063 -0.328125
vn 0.5683594 -0.7539063 -0.328125
vn 0.3984375 -0.8886719 -0.2304688
vn 0.3984375 -0.8886719 -0.2304688
vt 0.75 2
vt 1 2
vt 0.75 2.109375
vt 1 2.070313
vt 0.75 2.175781
vt 1 2.113281
vt 0.75 2.277344
vt 1 2.179688
vt 0.75 2.5625
vt 1 2.363281
f 89/89/89 90/90/90 91/91/91
f 90/90/90 92/92/92 91/91/91
f 91/91/91 92/92/92 93/93/93
f 92/92/92 94/94/94 93/93/93
f 93/93/93 94/94/94 95/95/95
f 94/94/94 96/96/96 95/95/95
f 95/95/95 96/96/96 97/97/97
f 96/96/96 98/98/98 97/97/97
v 10.69141 41.5 -7.851563
v 9.324219 41.5 -10.21484
v 11.875 49 -8.800781
v 11.125 49 -10.09766
v 8.042969 58 -5.433594
v 7.542969 58 -6.300781
vn 0.7949219 -0.3964844 -0.4589844
vn 0.7949219 -0.3964844 -0.4589844
vn 0.8554688 0.1542969 -0.4941406
vn 0.8554688 0.1542969 -0.4941406
vn 0.7578125 0.4863281 -0.4375
vn 0.7578125 0.4863281 -0.4375
vt 0 2.175781
vt -0.25 2.113281
vt 0 2.109375
vt -0.25 2.070313
vt 0 2
vt -0.25 2
f 99/99/99 100/100/100 101/101/101
f 100/100/100 102/102/102 101/101/101
f 101/101/101 102/102/102 103/103/103
f 102/102/102 104/104/104 103/103/103
v -4.691406 57 17.50781
v -12.15625 57 12.58203
v -8.222656 49 18.39063
v -15.6875 49 13.46484
v -7.058594 40 15.41016
v -13.58984 40 11.09766
vn -0.4609375 0.546875 0.6992188
vn -0.5859375 0.5859375 0.5585938
vn -0.5507813 -0.005859375 0.8339844
vn -0.7265625 0.01953125 0.6875
vn -0.4628906 -0.5410156 0.703125
vn -0.6074219 -0.5527344 0.5722656
vt -3.9375 -0.203125
vt -2.9375 -0.203125
vt -3.9375 -0.9570313
vt -2.9375 -0.9570313
vt -3.9375 -0.203125
vt -2.9375 -0.203125
f 105/105/105 106/106/106 107/107/107
f 106/106/106 108/108/108 107/107/107
f 107/107/107 108/108/108 109/109/109
f 108/108/108 110/110/110 109/109/109
v -3 23.5 3
v -4 20.5 4
v 4 20.5 4
v 3 23.5 3
v 2 23.5 2
v 2 23.5 -2
v 2 32.5 -2
v 2 32.5 2
v -2 23.5 2
v 2 23.5 2
v 2 32.5 2
v -2 32.5 2
v -2 23.5 -2
v -2 23.5 2
v -2 32.5 2
v -2 32.5 -2
v 2 23.5 -2
v -2 23.5 -2
v -2 32.5 -2
v 2 32.5 -2
v 2 23.5 2
v -2 23.5 2
v -3 23.5 3
v 3 23.5 3
v -3 23.5 3
v -2 23.5 2
v -2 23.5 -2
v -3 23.5 -3
v 3 23.5 -3
v 2 23.5 -2
v 2 23.5 2
v 3 23.5 3
v -3 23.5 -3
v -2 23.5 -2
v 2 23.5 -2
v 3 23.5 -3
v -4 20.5 -4
v -4 14 -4
v -4 14 4
v -4 20.5 4
v 4 20.5 -4
v 4 20.5 4
v 4 14 4
v 4 14 -4
v -4 20.5 -4
v -3 23.5 -3
v 3 23.5 -3
v 4 20.5 -4
v -4 20.5 4
v -4 14 4
v 4 14 4
v 4 20.5 4
v 1.371094 63 14.00781
v -0.4414063 61 15.05469
v 2.578125 61 16.19531
v 4.394531 63 15.14844
v 3.96875 63 12.50781
v 1.371094 63 14.00781
v 4.394531 63 15.14844
v 6.992188 63 13.64844
v -11.62891 63 -8.507813
v -9.03125 63 -10.00781
v -8.507813 63 -13.19531
v -11.10547 63 -11.69531
v -13.44141 61 -7.460938
v -11.62891 63 -8.507813
v -11.10547 63 -11.69531
v -12.92188 61 -10.64844
v -0.4414063 61 15.05469
v -7.90625 61 10.12891
v -12.15625 57 12.58203
v -4.691406 57 17.50781
v -7.90625 61 10.12891
v -12.90625 61 1.46875
v -17.15625 57 3.917969
v -12.15625 57 12.58203
v -13.44141 61 -7.460938
v -12.90625 61 1.46875
v -11.09375 63 0.4179688
v -11.62891 63 -8.507813
v 9.324219 41.5 -10.21484
v 10.69141 41.5 -7.851563
v 7.144531 35.5 -5.492188
v 5.394531 35.5 -8.523438
v 11.99219 41.5 -5.59375
v 10.69141 41.5 -7.851563
v 11.875 49 -8.800781
v 13.375 49 -6.199219
v -3 23.5 3
v -3 23.5 -3
v -4 20.5 -4
v -4 20.5 4
v 13.375 49 -6.199219
v 11.875 49 -8.800781
v 8.042969 58 -5.433594
v 8.542969 58 -4.566406
v 3 23.5 -3
v 3 23.5 3
v 4 20.5 4
v 4 20.5 -4
v 8.144531 35.5 -3.757813
v 7.144531 35.5 -5.492188
v 10.69141 41.5 -7.851563
v 11.99219 41.5 -5.59375
v 5.394531 35.5 -8.523438
v 7.144531 35.5 -5.492188
v 1.050781 32 -2.550781
v -0.6992188 32 -5.582031
v 2.550781 32 0.05078125
v 1.050781 32 -2.550781
v 7.144531 35.5 -5.492188
v 8.144531 35.5 -3.757813
v -2.859375 34 10.67969
v -8.460938 34 6.980469
v -3.945313 32 3.800781
v 0.71875 32 6.878906
v -8.460938 34 6.980469
v -10.46094 34 3.519531
v -5.445313 32 1.199219
v -3.945313 32 3.800781
v -10.85938 34 -3.179688
v -10.46094 34 3.519531
v -16.58984 40 5.902344
v -17.05859 40 -1.910156
v -7.058594 40 15.41016
v -13.58984 40 11.09766
v -8.460938 34 6.980469
v -2.859375 34 10.67969
v -13.58984 40 11.09766
v -16.58984 40 5.902344
v -10.46094 34 3.519531
v -8.460938 34 6.980469
v -17.05859 40 -1.910156
v -16.58984 40 5.902344
v -19.6875 49 6.535156
v -20.22266 49 -2.390625
v 4 14 -4
v -4 14 -4
v -4 20.5 -4
v 4 20.5 -4
v -6.09375 63 9.082031
v -7.90625 61 10.12891
v -0.4414063 61 15.05469
v 1.371094 63 14.00781
v -3.496094 63 7.582031
v -6.09375 63 9.082031
v 1.371094 63 14.00781
v 3.96875 63 12.50781
v -17.15625 57 3.917969
v -19.6875 49 6.535156
v -15.6875 49 13.46484
v -12.15625 57 12.58203
v -11.09375 63 0.4179688
v -12.90625 61 1.46875
v -7.90625 61 10.12891
v -6.09375 63 9.082031
v -8.496094 63 -1.082031
v -11.09375 63 0.4179688
v -6.09375 63 9.082031
v -3.496094 63 7.582031
v -13.58984 40 11.09766
v -15.6875 49 13.46484
v -19.6875 49 6.535156
v -16.58984 40 5.902344
v -20.22266 49 -2.390625
v -19.6875 49 6.535156
v -17.15625 57 3.917969
v -17.69141 57 -5.007813
v -17.69141 57 -5.007813
v -17.15625 57 3.917969
v -12.90625 61 1.46875
v -13.44141 61 -7.460938
v -11.62891 63 -8.507813
v -11.09375 63 0.4179688
v -8.496094 63 -1.082031
v -9.03125 63 -10.00781
v -5.78125 32 -4.378906
v -5.445313 32 1.199219
v -10.46094 34 3.519531
v -10.85938 34 -3.179688
vn 0 0.3164063 0.9492188
vn 0 0.1601563 0.9863281
vn 0 0.1601563 0.9863281
vn 0 0.3164063 0.9492188
vn 0.9980469 0 0
vn 0.9980469 0 0
vn 0.9980469 0 0
vn 0.9980469 0 0
vn 0 0 0.9980469
vn 0 0 0.9980469
vn 0 0 0.9980469
vn 0 0 0.9980469
vn -1 0 0
vn -1 0 0
vn -1 0 0
vn -1 0 0
vn 0 0 -1
vn 0 0 -1
vn 0 0 -1
vn 0 0 -1
vn 0 0.9980469 0
vn 0 0.9980469 0
vn 0 0.9980469 0
vn 0 0.9980469 0
vn 0 0.9980469 0
vn 0 0.9980469 0
vn 0 0.9980469 0
vn 0 0.9980469 0
vn 0 0.9980469 0
vn 0 0.9980469 0
vn 0 0.9980469 0
vn 0 0.9980469 0
vn 0 0.9980469 0
vn 0 0.9980469 0
vn 0 0.9980469 0
vn 0 0.9980469 0
vn -0.9863281 0.1601563 0
vn -1 0 0
vn -1 0 0
vn -0.9863281 0.1601563 0
vn 0.9863281 0.1601563 0
vn 0.9863281 0.1601563 0
vn 0.9980469 0 0
vn 0.9980469 0 0
vn 0 0.1601563 -0.9863281
vn 0 0.3164063 -0.9492188
vn 0 0.3164063 -0.9492188
vn 0 0.1601563 -0.9863281
vn 0 0.1601563 0.9863281
vn 0 0 0.9980469
vn 0 0 0.9980469
vn 0 0.1601563 0.9863281
vn -0.3515625 0.6875 0.6367188
vn -0.3515625 0.6875 0.6367188
vn -0.2753906 0.6289063 0.7265625
vn -0.2753906 0.6289063 0.7265625
vn 0 0.9980469 0
vn 0 0.9980469 0
vn 0 0.9980469 0
vn 0 0.9980469 0
vn 0 0.9980469 0
vn 0 0.9980469 0
vn 0 0.9980469 0
vn 0 0.9980469 0
vn -0.7265625 0.6875 -0.01367188
vn -0.7265625 0.6875 -0.01367188
vn -0.7675781 0.6289063 -0.125
vn -0.7675781 0.6289063 -0.125
vn -0.3515625 0.6875 0.6367188
vn -0.4863281 0.7402344 0.4648438
vn -0.5859375 0.5859375 0.5585938
vn -0.4609375 0.546875 0.6992188
vn -0.4863281 0.7402344 0.4648438
vn -0.6445313 0.7402344 0.1894531
vn -0.7773438 0.5859375 0.2285156
vn -0.5859375 0.5859375 0.5585938
vn -0.7265625 0.6875 -0.01367188
vn -0.6445313 0.7402344 0.1894531
vn -0.6445313 0.7402344 0.1894531
vn -0.7265625 0.6875 -0.01367188
vn 0.7949219 -0.3964844 -0.4589844
vn 0.7949219 -0.3964844 -0.4589844
vn 0.5683594 -0.7539063 -0.328125
vn 0.5683594 -0.7539063 -0.328125
vn 0.7949219 -0.3964844 -0.4589844
vn 0.7949219 -0.3964844 -0.4589844
vn 0.8554688 0.1542969 -0.4941406
vn 0.8554688 0.1542969 -0.4941406
vn -0.9492188 0.3164063 0
vn -0.9492188 0.3164063 0
vn -0.9863281 0.1601563 0
vn -0.9863281 0.1601563 0
vn 0.8554688 0.1542969 -0.4941406
vn 0.8554688 0.1542969 -0.4941406
vn 0.7578125 0.4863281 -0.4375
vn 0.7578125 0.4863281 -0.4375
vn 0.9492188 0.3164063 0
vn 0.9492188 0.3164063 0
vn 0.9863281 0.1601563 0
vn 0.9863281 0.1601563 0
vn 0.5683594 -0.7539063 -0.328125
vn 0.5683594 -0.7539063 -0.328125
vn 0.7949219 -0.3964844 -0.4589844
vn 0.7949219 -0.3964844 -0.4589844
vn 0.5683594 -0.7539063 -0.328125
vn 0.5683594 -0.7539063 -0.328125
vn 0.3984375 -0.8886719 -0.2304688
vn 0.3984375 -0.8886719 -0.2304688
vn 0.3984375 -0.8886719 -0.2304688
vn 0.3984375 -0.8886719 -0.2304688
vn 0.5683594 -0.7539063 -0.328125
vn 0.5683594 -0.7539063 -0.328125
vn -0.296875 -0.84375 0.4492188
vn -0.3769531 -0.8554688 0.3574219
vn -0.2480469 -0.9394531 0.2382813
vn -0.1992188 -0.9316406 0.3027344
vn -0.3769531 -0.8554688 0.3574219
vn -0.4980469 -0.8554688 0.1464844
vn -0.3300781 -0.9394531 0.09570313
vn -0.2480469 -0.9394531 0.2382813
vn -0.5371094 -0.84375 0.03125
vn -0.4980469 -0.8554688 0.1464844
vn -0.7988281 -0.5527344 0.2402344
vn -0.8398438 -0.5410156 0.05078125
vn -0.4628906 -0.5410156 0.703125
vn -0.6074219 -0.5527344 0.5722656
vn -0.3769531 -0.8554688 0.3574219
vn -0.296875 -0.84375 0.4492188
vn -0.6074219 -0.5527344 0.5722656
vn -0.7988281 -0.5527344 0.2402344
vn -0.4980469 -0.8554688 0.1464844
vn -0.3769531 -0.8554688 0.3574219
vn -0.8398438 -0.5410156 0.05078125
vn -0.7988281 -0.5527344 0.2402344
vn -0.9589844 0.01953125 0.2851563
vn -0.9980469 -0.005859375 0.06054688
vn 0 0 -1
vn 0 0 -1
vn 0 0.1601563 -0.9863281
vn 0 0.1601563 -0.9863281
vn -0.4863281 0.7402344 0.4648438
vn -0.4863281 0.7402344 0.4648438
vn -0.3515625 0.6875 0.6367188
vn -0.3515625 0.6875 0.6367188
vn 0 0.9980469 0
vn 0 0.9980469 0
vn 0 0.9980469 0
vn 0 0.9980469 0
vn -0.7773438 0.5859375 0.2285156
vn -0.9589844 0.01953125 0.2851563
vn -0.7265625 0.01953125 0.6875
vn -0.5859375 0.5859375 0.5585938
vn -0.6445313 0.7402344 0.1894531
vn -0.6445313 0.7402344 0.1894531
vn -0.4863281 0.7402344 0.4648438
vn -0.4863281 0.7402344 0.4648438
vn 0 0.9980469 0
vn 0 0.9980469 0
vn 0 0.9980469 0
vn 0 0.9980469 0
vn -0.6074219 -0.5527344 0.5722656
vn -0.7265625 0.01953125 0.6875
vn -0.9589844 0.01953125 0.2851563
vn -0.7988281 -0.5527344 0.2402344
vn -0.9980469 -0.005859375 0.06054688
vn -0.9589844 0.01953125 0.2851563
vn -0.7773438 0.5859375 0.2285156
vn -0.8359375 0.546875 0.05078125
vn -0.8359375 0.546875 0.05078125
vn -0.7773438 0.5859375 0.2285156
vn -0.6445313 0.7402344 0.1894531
vn -0.7265625 0.6875 -0.01367188
vn 0 0.9980469 0
vn 0 0.9980469 0
vn 0 0.9980469 0
vn 0 0.9980469 0
vn -0.3613281 -0.9316406 0.02148438
vn -0.3300781 -0.9394531 0.09570313
vn -0.4980469 -0.8554688 0.1464844
vn -0.5371094 -0.84375 0.03125
vt -0.6171875 -0.015625
vt -0.640625 -0.1796875
vt -0.3242188 -0.1796875
vt -0.3476563 -0.015625
vt -1.640625 -0.2617188
vt -1.519531 -0.2617188
vt -1.519531 -0.0078125
vt -1.640625 -0.0078125
vt -1.640625 -0.2617188
vt -1.519531 -0.2617188
vt -1.519531 -0.0078125
vt -1.640625 -0.0078125
vt -1.640625 -0.2617188
vt -1.519531 -0.2617188
vt -1.519531 -0.0078125
vt -1.640625 -0.0078125
vt -1.640625 -0.2617188
vt -1.519531 -0.2617188
vt -1.519531 -0.0078125
vt -1.640625 -0.0078125
vt 3.828125 -0.2226563
vt 3.828125 -0.9492188
vt 3.910156 -0.9492188
vt 3.910156 -0.2226563
vt 3.828125 -0.2226563
vt 3.828125 -0.9492188
vt 3.910156 -0.9492188
vt 3.910156 -0.2226563
vt 3.828125 -0.2226563
vt 3.828125 -0.9492188
vt 3.910156 -0.9492188
vt 3.910156 -0.2226563
vt 3.828125 -0.2226563
vt 3.828125 -0.9492188
vt 3.910156 -0.9492188
vt 3.910156 -0.2226563
vt 2.984375 -0.1796875
vt 2.984375 -1
vt 3.75 -1
vt 3.75 -0.1796875
vt 3.777344 -0.2070313
vt 2.957031 -0.2070313
vt 2.957031 -0.9726563
vt 3.777344 -0.9726563
vt 0.3203125 -0.015625
vt 0.3984375 -0.1796875
vt 0.5898438 -0.1796875
vt 0.6679688 -0.015625
vt 2.984375 -0.1796875
vt 2.984375 -1
vt 3.75 -1
vt 3.75 -0.1796875
vt -6 -0.1835938
vt -6 -0.0625
vt -5.3125 -0.0625
vt -5.3125 -0.1835938
vt 3.828125 -0.2226563
vt 3.828125 -0.9492188
vt 3.910156 -0.9492188
vt 3.910156 -0.2226563
vt 3.828125 -0.2226563
vt 3.828125 -0.9492188
vt 3.910156 -0.9492188
vt 3.910156 -0.2226563
vt -6 -0.0625
vt -6 -0.1835938
vt -5.3125 -0.1835938
vt -5.3125 -0.0625
vt -2.3125 -0.203125
vt -3.3125 -0.203125
vt -3.3125 -0.859375
vt -2.3125 -0.859375
vt 4.554688 -0.2578125
vt 4.117188 -0.2578125
vt 4.117188 -0.9140625
vt 4.554688 -0.9140625
vt -5.59375 -0.0625
vt -5.71875 -0.0625
vt -5.71875 -0.1835938
vt -5.59375 -0.1835938
vt 2.007813 -0.1210938
vt 2.007813 -0.015625
vt 2.054688 -0.015625
vt 2.050781 -0.1210938
vt 2.5 -0.140625
vt 2.144531 -0.140625
vt 2.144531 -0.15625
vt 2.5 -0.15625
vt -0.6171875 -0.015625
vt -0.9023438 -0.015625
vt -1 -0.1796875
vt -0.640625 -0.1796875
vt 2.5 -0.140625
vt 2.144531 -0.140625
vt 2.144531 -0.15625
vt 2.5 -0.15625
vt 0.2539063 -0.015625
vt 0.125 -0.015625
vt 0.125 -0.1796875
vt 0.3515625 -0.1796875
vt 2.5 -0.140625
vt 2.144531 -0.140625
vt 2.144531 -0.15625
vt 2.5 -0.15625
vt -0.25 2.179688
vt 0 2.277344
vt 0 2.5625
vt -0.25 2.363281
vt 2.5 -0.140625
vt 2.144531 -0.140625
vt 2.144531 -0.15625
vt 2.5 -0.15625
vt -4.9375 -0.9570313
vt -3.9375 -0.9570313
vt -3.9375 -0.34375
vt -4.9375 -0.34375
vt 4.554688 -0.2578125
vt 4.117188 -0.2578125
vt 4.117188 -0.9140625
vt 4.554688 -0.9140625
vt -4.9375 -0.9570313
vt -3.9375 -0.9570313
vt -3.9375 -0.34375
vt -4.9375 -0.34375
vt -4.9375 -0.9570313
vt -3.9375 -0.9570313
vt -3.9375 -0.34375
vt -4.9375 -0.34375
vt 4.554688 -0.2578125
vt 4.117188 -0.2578125
vt 4.117188 -0.9140625
vt 4.554688 -0.9140625
vt -4.9375 -0.9570313
vt -3.9375 -0.9570313
vt -3.9375 -0.34375
vt -4.9375 -0.34375
vt 3.777344 -0.2070313
vt 2.957031 -0.2070313
vt 2.957031 -0.9726563
vt 3.777344 -0.9726563
vt -6 -0.1835938
vt -6 -0.0625
vt -5.3125 -0.0625
vt -5.3125 -0.1835938
vt 3.828125 -0.2226563
vt 3.828125 -0.9492188
vt 3.910156 -0.9492188
vt 3.910156 -0.2226563
vt 4.554688 -0.2578125
vt 4.117188 -0.2578125
vt 4.117188 -0.9140625
vt 4.554688 -0.9140625
vt -6 -0.1835938
vt -6 -0.0625
vt -5.3125 -0.0625
vt -5.3125 -0.1835938
vt 3.828125 -0.2226563
vt 3.828125 -0.9492188
vt 3.910156 -0.9492188
vt 3.910156 -0.2226563
vt 4.554688 -0.2578125
vt 4.117188 -0.2578125
vt 4.117188 -0.9140625
vt 4.554688 -0.9140625
vt -4.9375 -0.9570313
vt -3.9375 -0.9570313
vt -3.9375 -0.34375
vt -4.9375 -0.34375
vt -4.9375 -0.9570313
vt -3.9375 -0.9570313
vt -3.9375 -0.34375
vt -4.9375 -0.34375
vt 3.828125 -0.2226563
vt 3.828125 -0.9492188
vt 3.910156 -0.9492188
vt 3.910156 -0.2226563
vt -2.925781 -0.9570313
vt -2 -0.9570313
vt -2 -0.3320313
vt -2.925781 -0.3320313
f 111/111/111 112/112/112 113/113/113 114/114/114
f 115/115/115 116/116/116 117/117/117 118/118/118
f 119/119/119 120/120/120 121/121/121 122/122/122
f 123/123/123 124/124/124 125/125/125 126/126/126
f 127/127/127 128/128/128 129/129/129 130/130/130
f 131/131/131 132/132/132 133/133/133 134/134/134
f 135/135/135 136/136/136 137/137/137 138/138/138
f 139/139/139 140/140/140 141/141/141 142/142/142
f 143/143/143 144/144/144 145/145/145 146/146/146
f 147/147/147 148/148/148 149/149/149 150/150/150
f 151/151/151 152/152/152 153/153/153 154/154/154
f 155/155/155 156/156/156 157/157/157 158/158/158
f 159/159/159 160/160/160 161/161/161 162/162/162
f 163/163/163 164/164/164 165/165/165 166/166/166
f 167/167/167 168/168/168 169/169/169 170/170/170
f 171/171/171 172/172/172 173/173/173 174/174/174
f 175/175/175 176/176/176 177/177/177 178/178/178
f 179/179/179 180/180/180 181/181/181 182/182/182
f 183/183/183 184/184/184 185/185/185 186/186/186
f 187/187/187 188/188/188 189/189/189 190/190/190
f 191/191/191 192/192/192 193/193/193 194/194/194
f 195/195/195 196/196/196 197/197/197 198/198/198
f 199/199/199 200/200/200 201/201/201 202/202/202
f 203/203/203 204/204/204 205/205/205 206/206/206
f 207/207/207 208/208/208 209/209/209 210/210/210
f 211/211/211 212/212/212 213/213/213 214/214/214
f 215/215/215 216/216/216 217/217/217 218/218/218
f 219/219/219 220/220/220 221/221/221 222/222/222
f 223/223/223 224/224/224 225/225/225 226/226/226
f 227/227/227 228/228/228 229/229/229 230/230/230
f 231/231/231 232/232/232 233/233/233 234/234/234
f 235/235/235 236/236/236 237/237/237 238/238/238
f 239/239/239 240/240/240 241/241/241 242/242/242
f 243/243/243 244/244/244 245/245/245 246/246/246
f 247/247/247 248/248/248 249/249/249 250/250/250
f 251/251/251 252/252/252 253/253/253 254/254/254
f 255/255/255 256/256/256 257/257/257 258/258/258
f 259/259/259 260/260/260 261/261/261 262/262/262
f 263/263/263 264/264/264 265/265/265 266/266/266
f 267/267/267 268/268/268 269/269/269 270/270/270
f 271/271/271 272/272/272 273/273/273 274/274/274
f 275/275/275 276/276/276 277/277/277 278/278/278
f 279/279/279 280/280/280 281/281/281 282/282/282
f 283/283/283 284/284/284 285/285/285 286/286/286
f 287/287/287 288/288/288 289/289/289 290/290/290
g polygon4
usemtl c5zou2_lm1
v 2.800781 34 0.4804688
v 6.84375 36.49609 -3.007813
v 0.8007813 34 -2.980469
v 5.84375 36.5 -4.742188
v -1.199219 34 -6.445313
v 3.59375 36.5 -8.636719
vn -0.1914063 0.9746094 0.109375
vn -0.5273438 0.7929688 0.3046875
vn -0.1914063 0.9746094 0.109375
vn -0.5273438 0.7929688 0.3046875
vn -0.1914063 0.9746094 0.109375
vn -0.5273438 0.7929688 0.3046875
vt 2.242188 -0.01171875
vt 2.121094 -0.01171875
vt 2.242188 -0.1210938
vt 2.121094 -0.1210938
vt 2.242188 -0.01171875
vt 2.121094 -0.01171875
f 291/291/291 292/292/292 293/293/293
f 292/292/292 294/294/294 293/293/293
f 293/293/293 294/294/294 295/295/295
f 294/294/294 296/296/296 295/295/295
v 6.84375 36.49609 -3.007813
v 10.68359 41.5 -4.863281
v 5.84375 36.5 -4.742188
v 9.386719 41.5 -7.105469
v 3.59375 36.5 -8.636719
v 7.527344 41.5 -10.32813
vn -0.5273438 0.7929688 0.3046875
vn -0.7792969 0.4355469 0.4511719
vn -0.5273438 0.7929688 0.3046875
vn -0.7792969 0.4355469 0.4511719
vn -0.5273438 0.7929688 0.3046875
vn -0.7792969 0.4355469 0.4511719
vt 2.175781 -0.1210938
vt 2.074219 -0.1210938
vt 2.175781 -0.015625
vt 2.074219 -0.015625
vt 2.175781 -0.1210938
vt 2.074219 -0.1210938
f 297/297/297 298/298/298 299/299/299
f 298/298/298 300/300/300 299/299/299
f 299/299/299 300/300/300 301/301/301
f 300/300/300 302/302/302 301/301/301
v -11.42188 40 9.847656
v -5.859375 34 5.480469
v -14.42188 40 4.652344
v -7.859375 34 2.019531
v -14.89063 40 -3.160156
v -8.261719 34 -4.679688
vn 0.609375 0.546875 -0.5742188
vn 0.25 0.9394531 -0.2363281
vn 0.8027344 0.546875 -0.2402344
vn 0.3300781 0.9394531 -0.09765625
vn 0.84375 0.5351563 -0.05078125
vn 0.3554688 0.9335938 -0.02148438
vt 2.074219 -0.01171875
vt 2.246094 -0.01171875
vt 2.074219 -0.1210938
vt 2.246094 -0.1210938
vt 2.074219 -0.01171875
vt 2.246094 -0.01171875
f 303/303/303 304/304/304 305/305/305
f 304/304/304 306/306/306 305/305/305
f 305/305/305 306/306/306 307/307/307
f 306/306/306 308/308/308 307/307/307
v -11.42969 61.5 -2.929688
v -3.179688 61.5 11.35938
v -3.179688 73.55859 11.35938
v -11.42969 73.55859 -2.929688
v 2.578125 61 16.19531
v 5.179688 61 14.69531
v 6.992188 63 13.64844
v 4.394531 63 15.14844
v -10.84375 61 -8.960938
v -10.30859 61 -0.03125
v -14.55859 57 2.417969
v -15.09375 57 -6.507813
v 12.52734 41.5 -1.667969
v 10.68359 41.5 -4.863281
v 6.84375 36.49609 -3.007813
v 9.09375 36.5 0.8867188
v -10.32031 61 -12.14844
v -12.92188 61 -10.64844
v -11.10547 63 -11.69531
v -8.507813 63 -13.19531
v -5.308594 61 8.628906
v -10.30859 61 -0.03125
v -8.496094 63 -1.082031
v -3.496094 63 7.582031
v 12.52734 41.5 -1.667969
v 13.32422 41.5 -3.285156
v 14.125 49 -4.902344
v 13.32422 49 -3.285156
v 9.324219 49 -10.21484
v 10.57422 49 -8.050781
v 8.042969 58 -5.433594
v 7.542969 58 -6.300781
v 13.32422 49 -3.285156
v 12.07422 49 -5.449219
v 10.68359 41.5 -4.863281
v 12.52734 41.5 -1.667969
v 12.07422 49 -5.449219
v 10.57422 49 -8.050781
v 9.386719 41.5 -7.105469
v 10.68359 41.5 -4.863281
v 9.324219 49 -10.21484
v 11.125 49 -10.09766
v 9.324219 41.5 -10.21484
v 7.527344 41.5 -10.32813
v 9.09375 36.5 0.8867188
v 6.84375 36.49609 -3.007813
v 2.800781 34 0.4804688
v 4.800781 34 3.945313
v 7.527344 41.5 -10.32813
v 9.386719 41.5 -7.105469
v 10.57422 49 -8.050781
v 9.324219 49 -10.21484
v 3.59375 36.5 -8.636719
v 5.394531 35.5 -8.523438
v -0.6992188 32 -5.582031
v -1.199219 34 -6.445313
v 4.800781 34 3.945313
v 2.800781 34 0.4804688
v -5.859375 34 5.480469
v -0.2617188 34 9.179688
v 2.800781 34 0.4804688
v 0.8007813 34 -2.980469
v -7.859375 34 2.019531
v -5.859375 34 5.480469
v 2.15625 61 13.55469
v 3.96875 63 12.50781
v 6.992188 63 13.64844
v 5.179688 61 14.69531
v 4.800781 34 3.945313
v 4.300781 32 3.082031
v 9.894531 35.5 -0.7265625
v 9.09375 36.5 0.8867188
v -8.261719 34 -4.679688
v -7.859375 34 2.019531
v 0.8007813 34 -2.980469
v -1.199219 34 -6.445313
v -0.2617188 34 9.179688
v -5.859375 34 5.480469
v -11.42188 40 9.847656
v -4.890625 40 14.16016
v -8.261719 34 -4.679688
v -10.85938 34 -3.179688
v -17.05859 40 -1.910156
v -14.89063 40 -3.160156
v -2.859375 34 10.67969
v -0.2617188 34 9.179688
v -4.890625 40 14.16016
v -7.058594 40 15.41016
v -5.625 49 16.89063
v -4.890625 40 14.16016
v -11.42188 40 9.847656
v -13.08984 49 11.96484
v -13.08984 49 11.96484
v -11.42188 40 9.847656
v -14.42188 40 4.652344
v -17.08984 49 5.035156
v -17.625 49 -3.890625
v -14.89063 40 -3.160156
v -17.05859 40 -1.910156
v -20.22266 49 -2.390625
v -7.058594 40 15.41016
v -4.890625 40 14.16016
v -5.625 49 16.89063
v -8.222656 49 18.39063
v 8.542969 58 -4.566406
v 12.07422 49 -5.449219
v 13.32422 49 -3.285156
v 9.042969 58 -3.699219
v -13.08984 49 11.96484
v -9.558594 57 11.08203
v -2.09375 57 16.00781
v -5.625 49 16.89063
v -9.558594 57 11.08203
v -5.308594 61 8.628906
v 2.15625 61 13.55469
v -2.09375 57 16.00781
v 8.042969 58 -5.433594
v 10.57422 49 -8.050781
v 12.07422 49 -5.449219
v 8.542969 58 -4.566406
v -17.08984 49 5.035156
v -14.55859 57 2.417969
v -9.558594 57 11.08203
v -13.08984 49 11.96484
v -14.55859 57 2.417969
v -10.30859 61 -0.03125
v -5.308594 61 8.628906
v -9.558594 57 11.08203
v -17.625 49 -3.890625
v -17.08984 49 5.035156
v -14.42188 40 4.652344
v -14.89063 40 -3.160156
v -17.625 49 -3.890625
v -20.22266 49 -2.390625
v -17.69141 57 -5.007813
v -15.09375 57 -6.507813
v -8.222656 49 18.39063
v -5.625 49 16.89063
v -2.09375 57 16.00781
v -4.691406 57 17.50781
v -15.09375 57 -6.507813
v -17.69141 57 -5.007813
v -13.44141 61 -7.460938
v -10.84375 61 -8.960938
v -4.691406 57 17.50781
v -2.09375 57 16.00781
v 2.15625 61 13.55469
v -0.4414063 61 15.05469
v -15.09375 57 -6.507813
v -14.55859 57 2.417969
v -17.08984 49 5.035156
v -17.625 49 -3.890625
v -9.03125 63 -10.00781
v -10.84375 61 -8.960938
v -10.32031 61 -12.14844
v -8.507813 63 -13.19531
v 2.15625 61 13.55469
v -5.308594 61 8.628906
v -3.496094 63 7.582031
v 3.96875 63 12.50781
v -9.03125 63 -10.00781
v -8.496094 63 -1.082031
v -10.30859 61 -0.03125
v -10.84375 61 -8.960938
vn -0.8652344 0 0.5
vn -0.8652344 0 0.5
vn -0.8652344 0 0.5
vn -0.8652344 0 0.5
vn 0.5 0 0.8652344
vn 0.5 0 0.8652344
vn 0.5 0 0.8652344
vn 0.5 0 0.8652344
vn 0.75 -0.6601563 0.04101563
vn 0.671875 -0.7128906 -0.1972656
vn 0.7773438 -0.5859375 -0.2285156
vn 0.8359375 -0.546875 -0.05078125
vn -0.7792969 0.4355469 0.4511719
vn -0.7792969 0.4355469 0.4511719
vn -0.5273438 0.7929688 0.3046875
vn -0.5273438 0.7929688 0.3046875
vn -0.5 0 -0.8652344
vn -0.5 0 -0.8652344
vn -0.5 0 -0.8652344
vn -0.5 0 -0.8652344
vn 0.4863281 -0.7402344 -0.4648438
vn 0.671875 -0.7128906 -0.1972656
vn 0.671875 -0.7128906 -0.1972656
vn 0.4863281 -0.7402344 -0.4648438
vn 0.8847656 -0.15625 0.4375
vn 0.8847656 -0.15625 0.4375
vn 0.8769531 0.2089844 0.4335938
vn 0.8769531 0.2089844 0.4335938
vn -0.8632813 -0.0859375 0.4980469
vn -0.8632813 -0.0859375 0.4980469
vn -0.8066406 -0.3632813 0.4667969
vn -0.8066406 -0.3632813 0.4667969
vn -0.8632813 -0.0859375 0.4980469
vn -0.8632813 -0.0859375 0.4980469
vn -0.7792969 0.4355469 0.4511719
vn -0.7792969 0.4355469 0.4511719
vn -0.8632813 -0.0859375 0.4980469
vn -0.8632813 -0.0859375 0.4980469
vn -0.7792969 0.4355469 0.4511719
vn -0.7792969 0.4355469 0.4511719
vn 0.0625 0.2089844 -0.9765625
vn 0.0625 0.2089844 -0.9765625
vn 0.0625 -0.15625 -0.9863281
vn 0.0625 -0.15625 -0.9863281
vn -0.5273438 0.7929688 0.3046875
vn -0.5273438 0.7929688 0.3046875
vn -0.1914063 0.9746094 0.109375
vn -0.1914063 0.9746094 0.109375
vn -0.7792969 0.4355469 0.4511719
vn -0.7792969 0.4355469 0.4511719
vn -0.8632813 -0.0859375 0.4980469
vn -0.8632813 -0.0859375 0.4980469
vn -0.1328125 -0.3457031 -0.9277344
vn -0.1328125 -0.3457031 -0.9277344
vn -0.2226563 -0.4082031 -0.8867188
vn -0.2226563 -0.4082031 -0.8867188
vn -0.1914063 0.9746094 0.109375
vn -0.1914063 0.9746094 0.109375
vn 0.25 0.9394531 -0.2363281
vn 0.1972656 0.9335938 -0.296875
vn -0.1914063 0.9746094 0.109375
vn -0.1914063 0.9746094 0.109375
vn 0.3300781 0.9394531 -0.09765625
vn 0.25 0.9394531 -0.2363281
vn 0.3515625 -0.6875 -0.6367188
vn 0.3515625 -0.6875 -0.6367188
vn 0.2753906 -0.6289063 -0.7265625
vn 0.2753906 -0.6289063 -0.7265625
vn 0.6621094 -0.4316406 0.6132813
vn 0.6621094 -0.4316406 0.6132813
vn 0.7382813 -0.3457031 0.5800781
vn 0.7382813 -0.3457031 0.5800781
vn 0.3554688 0.9335938 -0.02148438
vn 0.3300781 0.9394531 -0.09765625
vn -0.1914063 0.9746094 0.109375
vn -0.1914063 0.9746094 0.109375
vn 0.1972656 0.9335938 -0.296875
vn 0.25 0.9394531 -0.2363281
vn 0.609375 0.546875 -0.5742188
vn 0.4648438 0.5351563 -0.7050781
vn -0.4433594 -0.4648438 -0.7675781
vn -0.4433594 -0.4648438 -0.7675781
vn -0.4824219 -0.2675781 -0.8339844
vn -0.4824219 -0.2675781 -0.8339844
vn 0.4433594 -0.4648438 0.7675781
vn 0.4433594 -0.4648438 0.7675781
vn 0.4824219 -0.2675781 0.8339844
vn 0.4824219 -0.2675781 0.8339844
vn 0.5507813 -0.01757813 -0.8339844
vn 0.4648438 0.5351563 -0.7050781
vn 0.609375 0.546875 -0.5742188
vn 0.7265625 -0.04492188 -0.6855469
vn 0.7265625 -0.04492188 -0.6855469
vn 0.609375 0.546875 -0.5742188
vn 0.8027344 0.546875 -0.2402344
vn 0.9570313 -0.04492188 -0.2851563
vn -0.4921875 -0.1699219 -0.8535156
vn -0.4824219 -0.2675781 -0.8339844
vn -0.4824219 -0.2675781 -0.8339844
vn -0.4921875 -0.1699219 -0.8535156
vn 0.4824219 -0.2675781 0.8339844
vn 0.4824219 -0.2675781 0.8339844
vn 0.4921875 -0.1699219 0.8535156
vn 0.4921875 -0.1699219 0.8535156
vn -0.8066406 -0.3632813 0.4667969
vn -0.8632813 -0.0859375 0.4980469
vn -0.8632813 -0.0859375 0.4980469
vn -0.8066406 -0.3632813 0.4667969
vn 0.7265625 -0.04492188 -0.6855469
vn 0.5859375 -0.5859375 -0.5585938
vn 0.4609375 -0.546875 -0.6992188
vn 0.5507813 -0.01757813 -0.8339844
vn 0.5859375 -0.5859375 -0.5585938
vn 0.4863281 -0.7402344 -0.4648438
vn 0.3515625 -0.6875 -0.6367188
vn 0.4609375 -0.546875 -0.6992188
vn -0.8066406 -0.3632813 0.4667969
vn -0.8632813 -0.0859375 0.4980469
vn -0.8632813 -0.0859375 0.4980469
vn -0.8066406 -0.3632813 0.4667969
vn 0.9570313 -0.04492188 -0.2851563
vn 0.7773438 -0.5859375 -0.2285156
vn 0.5859375 -0.5859375 -0.5585938
vn 0.7265625 -0.04492188 -0.6855469
vn 0.7773438 -0.5859375 -0.2285156
vn 0.671875 -0.7128906 -0.1972656
vn 0.4863281 -0.7402344 -0.4648438
vn 0.5859375 -0.5859375 -0.5585938
vn 0.9980469 -0.01757813 -0.06054688
vn 0.9570313 -0.04492188 -0.2851563
vn 0.8027344 0.546875 -0.2402344
vn 0.84375 0.5351563 -0.05078125
vn -0.4921875 -0.1699219 -0.8535156
vn -0.4921875 -0.1699219 -0.8535156
vn -0.5 -0.0625 -0.8652344
vn -0.5 -0.0625 -0.8652344
vn 0.4921875 -0.1699219 0.8535156
vn 0.4921875 -0.1699219 0.8535156
vn 0.5 -0.0625 0.8652344
vn 0.5 -0.0625 0.8652344
vn -0.5 -0.0625 -0.8652344
vn -0.5 -0.0625 -0.8652344
vn -0.5 0 -0.8652344
vn -0.5 0 -0.8652344
vn 0.5 -0.0625 0.8652344
vn 0.5 -0.0625 0.8652344
vn 0.5 0 0.8652344
vn 0.5 0 0.8652344
vn 0.8359375 -0.546875 -0.05078125
vn 0.7773438 -0.5859375 -0.2285156
vn 0.9570313 -0.04492188 -0.2851563
vn 0.9980469 -0.01757813 -0.06054688
vn 0.75 -0.6601563 0.04101563
vn 0.75 -0.6601563 0.04101563
vn 0.7675781 -0.6289063 0.125
vn 0.7675781 -0.6289063 0.125
vn 0.3515625 -0.6875 -0.6367188
vn 0.4863281 -0.7402344 -0.4648438
vn 0.4863281 -0.7402344 -0.4648438
vn 0.3515625 -0.6875 -0.6367188
vn 0.75 -0.6601563 0.04101563
vn 0.671875 -0.7128906 -0.1972656
vn 0.671875 -0.7128906 -0.1972656
vn 0.75 -0.6601563 0.04101563
vt 0 -1
vt 1 -1
vt 1 -0.1796875
vt 0 -0.1796875
vt 2.007813 -0.1210938
vt 2.007813 -0.015625
vt 2.054688 -0.015625
vt 2.050781 -0.1210938
vt 2.007813 -0.1210938
vt 2.007813 -0.015625
vt 2.054688 -0.015625
vt 2.050781 -0.1210938
vt 2.074219 -0.1210938
vt 2.074219 -0.015625
vt 2.175781 -0.015625
vt 2.175781 -0.1210938
vt 2.007813 -0.1210938
vt 2.007813 -0.015625
vt 2.054688 -0.015625
vt 2.050781 -0.1210938
vt 2.007813 -0.1210938
vt 2.007813 -0.015625
vt 2.054688 -0.015625
vt 2.050781 -0.1210938
vt 2.007813 -0.1210938
vt 2.007813 -0.0703125
vt 2.03125 -0.04296875
vt 2.050781 -0.0703125
vt 2.007813 -0.1210938
vt 2.007813 -0.015625
vt 2.054688 -0.015625
vt 2.050781 -0.1210938
vt 2.074219 -0.1210938
vt 2.074219 -0.01171875
vt 2.117188 -0.01171875
vt 2.117188 -0.1210938
vt 2.074219 -0.1210938
vt 2.074219 -0.01171875
vt 2.117188 -0.01171875
vt 2.117188 -0.1210938
vt 2.007813 -0.1210938
vt 2.007813 -0.0703125
vt 2.03125 -0.04296875
vt 2.050781 -0.0703125
vt 2.121094 -0.01171875
vt 2.121094 -0.1210938
vt 2.242188 -0.1210938
vt 2.242188 -0.01171875
vt 2.074219 -0.1210938
vt 2.074219 -0.01171875
vt 2.117188 -0.01171875
vt 2.117188 -0.1210938
vt 2.007813 -0.1210938
vt 2.007813 -0.0703125
vt 2.03125 -0.04296875
vt 2.050781 -0.0703125
vt 2.207031 -0.01171875
vt 2.207031 -0.1210938
vt 2.226563 -0.1210938
vt 2.226563 -0.01171875
vt 2.207031 -0.01171875
vt 2.207031 -0.1210938
vt 2.226563 -0.1210938
vt 2.226563 -0.01171875
vt 2.007813 -0.1210938
vt 2.007813 -0.015625
vt 2.054688 -0.015625
vt 2.050781 -0.1210938
vt 2.007813 -0.1210938
vt 2.007813 -0.0703125
vt 2.03125 -0.04296875
vt 2.050781 -0.0703125
vt 2.207031 -0.01171875
vt 2.207031 -0.1210938
vt 2.226563 -0.1210938
vt 2.226563 -0.01171875
vt 2.246094 -0.01171875
vt 2.246094 -0.1210938
vt 2.074219 -0.1210938
vt 2.074219 -0.01171875
vt 2.007813 -0.1210938
vt 2.007813 -0.0703125
vt 2.03125 -0.04296875
vt 2.050781 -0.0703125
vt 2.007813 -0.1210938
vt 2.007813 -0.0703125
vt 2.03125 -0.04296875
vt 2.050781 -0.0703125
vt 2.03125 -0.02734375
vt 2.113281 -0.02734375
vt 2.113281 -0.1054688
vt 2.03125 -0.1054688
vt 2.03125 -0.02734375
vt 2.113281 -0.02734375
vt 2.113281 -0.1054688
vt 2.03125 -0.1054688
vt 2.007813 -0.1210938
vt 2.007813 -0.0703125
vt 2.03125 -0.04296875
vt 2.050781 -0.0703125
vt 2.007813 -0.1210938
vt 2.007813 -0.0703125
vt 2.03125 -0.04296875
vt 2.050781 -0.0703125
vt 2.007813 -0.1210938
vt 2.007813 -0.015625
vt 2.054688 -0.015625
vt 2.050781 -0.1210938
vt 2.007813 -0.1210938
vt 2.007813 -0.015625
vt 2.054688 -0.015625
vt 2.050781 -0.1210938
vt 2.007813 -0.1210938
vt 2.007813 -0.015625
vt 2.054688 -0.015625
vt 2.050781 -0.1210938
vt 2.007813 -0.1210938
vt 2.007813 -0.015625
vt 2.054688 -0.015625
vt 2.050781 -0.1210938
vt 2.007813 -0.1210938
vt 2.007813 -0.015625
vt 2.054688 -0.015625
vt 2.050781 -0.1210938
vt 2.007813 -0.1210938
vt 2.007813 -0.015625
vt 2.054688 -0.015625
vt 2.050781 -0.1210938
vt 2.035156 -0.1054688
vt 2.035156 -0.02734375
vt 2.109375 -0.02734375
vt 2.109375 -0.1054688
vt 2.007813 -0.1210938
vt 2.007813 -0.0703125
vt 2.03125 -0.04296875
vt 2.050781 -0.0703125
vt 2.007813 -0.1210938
vt 2.007813 -0.0703125
vt 2.03125 -0.04296875
vt 2.050781 -0.0703125
vt 2.007813 -0.1210938
vt 2.007813 -0.0703125
vt 2.03125 -0.04296875
vt 2.050781 -0.0703125
vt 2.007813 -0.1210938
vt 2.007813 -0.0703125
vt 2.03125 -0.04296875
vt 2.050781 -0.0703125
vt 2.007813 -0.1210938
vt 2.007813 -0.015625
vt 2.054688 -0.015625
vt 2.050781 -0.1210938
vt 2.007813 -0.1210938
vt 2.007813 -0.015625
vt 2.054688 -0.015625
vt 2.050781 -0.1210938
vt 2.007813 -0.1210938
vt 2.007813 -0.015625
vt 2.054688 -0.015625
vt 2.050781 -0.1210938
vt 2.007813 -0.1210938
vt 2.007813 -0.015625
vt 2.054688 -0.015625
vt 2.050781 -0.1210938
f 309/309/309 310/310/310 311/311/311 312/312/312
f 313/313/313 314/314/314 315/315/315 316/316/316
f 317/317/317 318/318/318 319/319/319 320/320/320
f 321/321/321 322/322/322 323/323/323 324/324/324
f 325/325/325 326/326/326 327/327/327 328/328/328
f 329/329/329 330/330/330 331/331/331 332/332/332
f 333/333/333 334/334/334 335/335/335 336/336/336
f 337/337/337 338/338/338 339/339/339 340/340/340
f 341/341/341 342/342/342 343/343/343 344/344/344
f 345/345/345 346/346/346 347/347/347 348/348/348
f 349/349/349 350/350/350 351/351/351 352/352/352
f 353/353/353 354/354/354 355/355/355 356/356/356
f 357/357/357 358/358/358 359/359/359 360/360/360
f 361/361/361 362/362/362 363/363/363 364/364/364
f 365/365/365 366/366/366 367/367/367 368/368/368
f 369/369/369 370/370/370 371/371/371 372/372/372
f 373/373/373 374/374/374 375/375/375 376/376/376
f 377/377/377 378/378/378 379/379/379 380/380/380
f 381/381/381 382/382/382 383/383/383 384/384/384
f 385/385/385 386/386/386 387/387/387 388/388/388
f 389/389/389 390/390/390 391/391/391 392/392/392
f 393/393/393 394/394/394 395/395/395 396/396/396
f 397/397/397 398/398/398 399/399/399 400/400/400
f 401/401/401 402/402/402 403/403/403 404/404/404
f 405/405/405 406/406/406 407/407/407 408/408/408
f 409/409/409 410/410/410 411/411/411 412/412/412
f 413/413/413 414/414/414 415/415/415 416/416/416
f 417/417/417 418/418/418 419/419/419 420/420/420
f 421/421/421 422/422/422 423/423/423 424/424/424
f 425/425/425 426/426/426 427/427/427 428/428/428
f 429/429/429 430/430/430 431/431/431 432/432/432
f 433/433/433 434/434/434 435/435/435 436/436/436
f 437/437/437 438/438/438 439/439/439 440/440/440
f 441/441/441 442/442/442 443/443/443 444/444/444
f 445/445/445 446/446/446 447/447/447 448/448/448
f 449/449/449 450/450/450 451/451/451 452/452/452
f 453/453/453 454/454/454 455/455/455 456/456/456
f 457/457/457 458/458/458 459/459/459 460/460/460
f 461/461/461 462/462/462 463/463/463 464/464/464
f 465/465/465 466/466/466 467/467/467 468/468/468
f 469/469/469 470/470/470 471/471/471 472/472/472
v 7.527344 41.5 -10.32813
v 9.324219 41.5 -10.21484
v 5.394531 35.5 -8.523438
v 7.527344 41.5 -10.32813
v 5.394531 35.5 -8.523438
v 3.59375 36.5 -8.636719
v 12.52734 41.5 -1.667969
v 9.894531 35.5 -0.7265625
v 13.32422 41.5 -3.285156
v 9.09375 36.5 0.8867188
v 9.894531 35.5 -0.7265625
v 12.52734 41.5 -1.667969
v -1.199219 34 -6.445313
v -0.6992188 32 -5.582031
v -5.78125 32 -4.378906
v -0.2617188 34 9.179688
v 4.300781 32 3.082031
v 4.800781 34 3.945313
v 13.32422 49 -3.285156
v 14.125 49 -4.902344
v 9.042969 58 -3.699219
v 0.71875 32 6.878906
v 4.300781 32 3.082031
v -0.2617188 34 9.179688
v -8.261719 34 -4.679688
v -5.78125 32 -4.378906
v -10.85938 34 -3.179688
v -1.199219 34 -6.445313
v -5.78125 32 -4.378906
v -8.261719 34 -4.679688
v 7.542969 58 -6.300781
v 11.125 49 -10.09766
v 9.324219 49 -10.21484
v 0.71875 32 6.878906
v -0.2617188 34 9.179688
v -2.859375 34 10.67969
vn 0.0625 -0.15625 -0.9863281
vn 0.0625 -0.15625 -0.9863281
vn 0.06054688 -0.3085938 -0.9492188
vn -0.08203125 -0.2597656 -0.9628906
vn -0.1328125 -0.3457031 -0.9277344
vn -0.1328125 -0.3457031 -0.9277344
vn 0.8847656 -0.15625 0.4375
vn 0.8535156 -0.3085938 0.421875
vn 0.8847656 -0.15625 0.4375
vn 0.7382813 -0.3457031 0.5800781
vn 0.7382813 -0.3457031 0.5800781
vn 0.7910156 -0.2597656 0.5527344
vn -0.2226563 -0.4082031 -0.8867188
vn -0.2226563 -0.4082031 -0.8867188
vn -0.2226563 -0.4082031 -0.8867188
vn 0.6621094 -0.4316406 0.6132813
vn 0.6621094 -0.4316406 0.6132813
vn 0.6621094 -0.4316406 0.6132813
vn 0.8769531 0.2089844 0.4335938
vn 0.8769531 0.2089844 0.4335938
vn 0.8183594 0.4082031 0.4042969
vn 0.6621094 -0.4316406 0.6132813
vn 0.6621094 -0.4316406 0.6132813
vn 0.6621094 -0.4316406 0.6132813
vn -0.4433594 -0.4648438 -0.7675781
vn -0.4003906 -0.5996094 -0.6933594
vn -0.4433594 -0.4648438 -0.7675781
vn -0.2226563 -0.4082031 -0.8867188
vn -0.2226563 -0.4082031 -0.8867188
vn -0.2226563 -0.4082031 -0.8867188
vn 0.05859375 0.4082031 -0.9101563
vn 0.0625 0.2089844 -0.9765625
vn 0.0625 0.2089844 -0.9765625
vn 0.4003906 -0.5996094 0.6933594
vn 0.4433594 -0.4648438 0.7675781
vn 0.4433594 -0.4648438 0.7675781
vt 2.007813 -0.1210938
vt 2.007813 -0.015625
vt 2.050781 -0.0703125
vt 2.007813 -0.1210938
vt 2.007813 -0.015625
vt 2.050781 -0.0703125
vt 2.007813 -0.1210938
vt 2.007813 -0.015625
vt 2.050781 -0.0703125
vt 2.007813 -0.1210938
vt 2.007813 -0.015625
vt 2.050781 -0.0703125
vt 2.007813 -0.1210938
vt 2.007813 -0.015625
vt 2.050781 -0.0703125
vt 2.007813 -0.1210938
vt 2.007813 -0.015625
vt 2.050781 -0.0703125
vt 2.007813 -0.1210938
vt 2.007813 -0.015625
vt 2.050781 -0.0703125
vt 2.007813 -0.1210938
vt 2.007813 -0.015625
vt 2.050781 -0.0703125
vt 2.007813 -0.1210938
vt 2.007813 -0.015625
vt 2.050781 -0.0703125
vt 2.007813 -0.1210938
vt 2.007813 -0.015625
vt 2.050781 -0.0703125
vt 2.007813 -0.1210938
vt 2.007813 -0.015625
vt 2.050781 -0.0703125
vt 2.007813 -0.1210938
vt 2.007813 -0.015625
vt 2.050781 -0.0703125
f 473/473/473 474/474/474 475/475/475
f 476/476/476 477/477/477 478/478/478
f 479/479/479 480/480/480 481/481/481
f 482/482/482 483/483/483 484/484/484
f 485/485/485 486/486/486 487/487/487
f 488/488/488 489/489/489 490/490/490
f 491/491/491 492/492/492 493/493/493
f 494/494/494 495/495/495 496/496/496
f 497/497/497 498/498/498 499/499/499
f 500/500/500 501/501/501 502/502/502
f 503/503/503 504/504/504 505/505/505
f 506/506/506 507/507/507 508/508/508
