# Converti depuis dtree_02.dae par tools/maps/dae_to_obj.py
mtllib dead_tree_02.mtl
v 35.0234 79.0586 -6.6680 1.0000 1.0000 1.0000
v -43.5586 33.6875 -6.6680 1.0000 1.0000 1.0000
v -34.0820 30.6016 -11.5781 1.0000 1.0000 1.0000
v 35.0234 79.0586 -6.6680 1.0000 1.0000 1.0000
v -34.0820 30.6016 -11.5781 1.0000 1.0000 1.0000
v 31.1836 68.2812 -11.5781 1.0000 1.0000 1.0000
v 31.1836 68.2812 -11.5781 1.0000 1.0000 1.0000
v -34.0820 30.6016 -11.5781 1.0000 1.0000 1.0000
v -36.1133 18.3047 -13.6758 1.0000 1.0000 1.0000
v 31.1836 68.2812 -11.5781 1.0000 1.0000 1.0000
v -36.1133 18.3047 -13.6758 1.0000 1.0000 1.0000
v 41.8555 63.3203 -13.6758 1.0000 1.0000 1.0000
v 41.8555 63.3203 -13.6758 1.0000 1.0000 1.0000
v -36.1133 18.3047 -13.6758 1.0000 1.0000 1.0000
v -27.5820 13.1523 -10.6641 1.0000 1.0000 1.0000
v 41.8555 63.3203 -13.6758 1.0000 1.0000 1.0000
v -27.5820 13.1523 -10.6641 1.0000 1.0000 1.0000
v 35.5586 49.6055 -10.6641 1.0000 1.0000 1.0000
v 35.5586 49.6055 -10.6641 1.0000 1.0000 1.0000
v -27.5820 13.1523 -10.6641 1.0000 1.0000 1.0000
v -30.9531 5.2227 -7.0938 1.0000 1.0000 1.0000
v 35.5586 49.6055 -10.6641 1.0000 1.0000 1.0000
v -30.9531 5.2227 -7.0938 1.0000 1.0000 1.0000
v 42.4766 47.6172 -7.0938 1.0000 1.0000 1.0000
v 42.4766 47.6172 -7.0938 1.0000 1.0000 1.0000
v -30.9531 5.2227 -7.0938 1.0000 1.0000 1.0000
v -37.7109 1.3203 0.0000 1.0000 1.0000 1.0000
v 42.4766 47.6172 -7.0938 1.0000 1.0000 1.0000
v -37.7109 1.3203 0.0000 1.0000 1.0000 1.0000
v 48.8906 51.3203 0.0000 1.0000 1.0000 1.0000
v 48.8906 51.3203 0.0000 1.0000 1.0000 1.0000
v -37.7109 1.3203 0.0000 1.0000 1.0000 1.0000
v -30.9531 5.2227 7.1797 1.0000 1.0000 1.0000
v 48.8906 51.3203 0.0000 1.0000 1.0000 1.0000
v -30.9531 5.2227 7.1797 1.0000 1.0000 1.0000
v 45.5664 49.4023 7.1797 1.0000 1.0000 1.0000
v -23.1797 45.5039 6.9141 1.0000 1.0000 1.0000
v 18.4492 69.5391 6.9141 1.0000 1.0000 1.0000
v 14.6094 57.9844 12.5156 1.0000 1.0000 1.0000
v -23.1797 45.5039 6.9141 1.0000 1.0000 1.0000
v 14.6094 57.9844 12.5156 1.0000 1.0000 1.0000
v -23.9727 35.7109 12.5156 1.0000 1.0000 1.0000
v -23.9727 35.7109 12.5156 1.0000 1.0000 1.0000
v 14.6094 57.9844 12.5156 1.0000 1.0000 1.0000
v 40.2578 62.3984 14.5312 1.0000 1.0000 1.0000
v -23.9727 35.7109 12.5156 1.0000 1.0000 1.0000
v 40.2578 62.3984 14.5312 1.0000 1.0000 1.0000
v -25.7812 24.2695 14.5312 1.0000 1.0000 1.0000
v -25.7812 24.2695 14.5312 1.0000 1.0000 1.0000
v 40.2578 62.3984 14.5312 1.0000 1.0000 1.0000
v 46.3984 55.2695 10.6953 1.0000 1.0000 1.0000
v -25.7812 24.2695 14.5312 1.0000 1.0000 1.0000
v 46.3984 55.2695 10.6953 1.0000 1.0000 1.0000
v -32.6523 9.6289 10.6953 1.0000 1.0000 1.0000
v -32.6523 9.6289 10.6953 1.0000 1.0000 1.0000
v 46.3984 55.2695 10.6953 1.0000 1.0000 1.0000
v 45.5664 49.4023 7.1797 1.0000 1.0000 1.0000
v -32.6523 9.6289 10.6953 1.0000 1.0000 1.0000
v 45.5664 49.4023 7.1797 1.0000 1.0000 1.0000
v -30.9531 5.2227 7.1797 1.0000 1.0000 1.0000
v 30.9297 68.6641 -14.0000 1.0000 1.0000 1.0000
v -34.3086 30.9961 -14.0000 1.0000 1.0000 1.0000
v -44.9883 35.3906 -7.9492 1.0000 1.0000 1.0000
v 30.9297 68.6641 -14.0000 1.0000 1.0000 1.0000
v -44.9883 35.3906 -7.9492 1.0000 1.0000 1.0000
v 36.2148 82.2695 -7.9492 1.0000 1.0000 1.0000
v 36.2148 82.2695 -7.9492 1.0000 1.0000 1.0000
v -44.9883 35.3906 -7.9492 1.0000 1.0000 1.0000
v -23.5352 47.7773 7.9492 1.0000 1.0000 1.0000
v 36.2148 82.2695 -7.9492 1.0000 1.0000 1.0000
v -23.5352 47.7773 7.9492 1.0000 1.0000 1.0000
v 17.3750 71.3945 7.9492 1.0000 1.0000 1.0000
v 17.3750 71.3945 7.9492 1.0000 1.0000 1.0000
v -23.5352 47.7773 7.9492 1.0000 1.0000 1.0000
v -24.8906 36.4375 14.0000 1.0000 1.0000 1.0000
v 17.3750 71.3945 7.9492 1.0000 1.0000 1.0000
v -24.8906 36.4375 14.0000 1.0000 1.0000 1.0000
v 14.0664 58.9258 14.0000 1.0000 1.0000 1.0000
v 14.0664 58.9258 14.0000 1.0000 1.0000 1.0000
v -24.8906 36.4375 14.0000 1.0000 1.0000 1.0000
v -25.7812 24.2695 15.8984 1.0000 1.0000 1.0000
v 14.0664 58.9258 14.0000 1.0000 1.0000 1.0000
v -25.7812 24.2695 15.8984 1.0000 1.0000 1.0000
v 40.2578 62.3984 15.8984 1.0000 1.0000 1.0000
v 40.2578 62.3984 15.8984 1.0000 1.0000 1.0000
v -25.7812 24.2695 15.8984 1.0000 1.0000 1.0000
v -32.3203 9.0508 12.0000 1.0000 1.0000 1.0000
v 40.2578 62.3984 15.8984 1.0000 1.0000 1.0000
v -32.3203 9.0508 12.0000 1.0000 1.0000 1.0000
v 46.7305 54.6914 12.0000 1.0000 1.0000 1.0000
v 46.7305 54.6914 12.0000 1.0000 1.0000 1.0000
v -32.3203 9.0508 12.0000 1.0000 1.0000 1.0000
v -30.2930 4.0742 7.9492 1.0000 1.0000 1.0000
v 46.7305 54.6914 12.0000 1.0000 1.0000 1.0000
v -30.2930 4.0742 7.9492 1.0000 1.0000 1.0000
v 46.2266 48.2539 7.9492 1.0000 1.0000 1.0000
v 43.1406 46.4727 -7.9492 1.0000 1.0000 1.0000
v -30.2930 4.0742 -7.9492 1.0000 1.0000 1.0000
v -27.1445 12.0391 -12.0000 1.0000 1.0000 1.0000
v 43.1406 46.4727 -7.9492 1.0000 1.0000 1.0000
v -27.1445 12.0391 -12.0000 1.0000 1.0000 1.0000
v 36.1484 48.5820 -12.0000 1.0000 1.0000 1.0000
v 36.1484 48.5820 -12.0000 1.0000 1.0000 1.0000
v -27.1445 12.0391 -12.0000 1.0000 1.0000 1.0000
v -36.6406 18.0000 -15.8984 1.0000 1.0000 1.0000
v 36.1484 48.5820 -12.0000 1.0000 1.0000 1.0000
v -36.6406 18.0000 -15.8984 1.0000 1.0000 1.0000
v 41.8555 63.3203 -15.8984 1.0000 1.0000 1.0000
v 41.8555 63.3203 -15.8984 1.0000 1.0000 1.0000
v -36.6406 18.0000 -15.8984 1.0000 1.0000 1.0000
v -34.3086 30.9961 -14.0000 1.0000 1.0000 1.0000
v 41.8555 63.3203 -15.8984 1.0000 1.0000 1.0000
v -34.3086 30.9961 -14.0000 1.0000 1.0000 1.0000
v 30.9297 68.6641 -14.0000 1.0000 1.0000 1.0000
v 43.1406 46.4727 -7.9492 1.0000 1.0000 1.0000
v 37.8789 49.5820 -12.0000 1.0000 1.0000 1.0000
v 42.4766 47.6172 -7.0938 1.0000 1.0000 1.0000
v 37.8789 49.5820 -12.0000 1.0000 1.0000 1.0000
v 35.5586 49.6055 -10.6641 1.0000 1.0000 1.0000
v 42.4766 47.6172 -7.0938 1.0000 1.0000 1.0000
v 40.2578 62.3984 15.8984 1.0000 1.0000 1.0000
v 46.7305 54.6914 12.0000 1.0000 1.0000 1.0000
v 40.2578 62.3984 14.5312 1.0000 1.0000 1.0000
v 46.7305 54.6914 12.0000 1.0000 1.0000 1.0000
v 46.3984 55.2695 10.6953 1.0000 1.0000 1.0000
v 40.2578 62.3984 14.5312 1.0000 1.0000 1.0000
v 14.6094 57.9844 12.5156 1.0000 1.0000 1.0000
v 18.4492 69.5391 6.9141 1.0000 1.0000 1.0000
v 14.0664 58.9258 14.0000 1.0000 1.0000 1.0000
v 18.4492 69.5391 6.9141 1.0000 1.0000 1.0000
v 17.3750 71.3945 7.9492 1.0000 1.0000 1.0000
v 14.0664 58.9258 14.0000 1.0000 1.0000 1.0000
v 18.4492 69.5391 6.9141 1.0000 1.0000 1.0000
v 35.0234 79.0586 -6.6680 1.0000 1.0000 1.0000
v 17.3750 71.3945 7.9492 1.0000 1.0000 1.0000
v 35.0234 79.0586 -6.6680 1.0000 1.0000 1.0000
v 36.2148 82.2695 -7.9492 1.0000 1.0000 1.0000
v 17.3750 71.3945 7.9492 1.0000 1.0000 1.0000
v -37.7109 1.3203 0.0000 1.0000 1.0000 1.0000
v -37.0508 0.1719 0.0000 1.0000 1.0000 1.0000
v -30.9531 5.2227 7.1797 1.0000 1.0000 1.0000
v -37.0508 0.1719 0.0000 1.0000 1.0000 1.0000
v -30.2930 4.0742 7.9492 1.0000 1.0000 1.0000
v -30.9531 5.2227 7.1797 1.0000 1.0000 1.0000
v 43.1406 46.4727 -7.9492 1.0000 1.0000 1.0000
v 42.4766 47.6172 -7.0938 1.0000 1.0000 1.0000
v 49.5508 50.1719 0.0000 1.0000 1.0000 1.0000
v 42.4766 47.6172 -7.0938 1.0000 1.0000 1.0000
v 48.8906 51.3203 0.0000 1.0000 1.0000 1.0000
v 49.5508 50.1719 0.0000 1.0000 1.0000 1.0000
v -34.0820 30.6016 -11.5781 1.0000 1.0000 1.0000
v -34.3086 30.9961 -14.0000 1.0000 1.0000 1.0000
v -36.1133 18.3047 -13.6758 1.0000 1.0000 1.0000
v -34.3086 30.9961 -14.0000 1.0000 1.0000 1.0000
v -36.6406 18.0000 -15.8984 1.0000 1.0000 1.0000
v -36.1133 18.3047 -13.6758 1.0000 1.0000 1.0000
v -37.7109 1.3203 0.0000 1.0000 1.0000 1.0000
v -30.9531 5.2227 -7.0938 1.0000 1.0000 1.0000
v -37.0508 0.1719 0.0000 1.0000 1.0000 1.0000
v -30.9531 5.2227 -7.0938 1.0000 1.0000 1.0000
v -30.2930 4.0742 -7.9492 1.0000 1.0000 1.0000
v -37.0508 0.1719 0.0000 1.0000 1.0000 1.0000
v -27.5820 13.1523 -10.6641 1.0000 1.0000 1.0000
v -27.1445 12.0391 -12.0000 1.0000 1.0000 1.0000
v -30.9531 5.2227 -7.0938 1.0000 1.0000 1.0000
v -27.1445 12.0391 -12.0000 1.0000 1.0000 1.0000
v -30.2930 4.0742 -7.9492 1.0000 1.0000 1.0000
v -30.9531 5.2227 -7.0938 1.0000 1.0000 1.0000
v -27.5820 13.1523 -10.6641 1.0000 1.0000 1.0000
v -36.1133 18.3047 -13.6758 1.0000 1.0000 1.0000
v -27.1445 12.0391 -12.0000 1.0000 1.0000 1.0000
v -36.1133 18.3047 -13.6758 1.0000 1.0000 1.0000
v -36.6406 18.0000 -15.8984 1.0000 1.0000 1.0000
v -27.1445 12.0391 -12.0000 1.0000 1.0000 1.0000
v -32.6523 9.6289 10.6953 1.0000 1.0000 1.0000
v -32.3203 9.0508 12.0000 1.0000 1.0000 1.0000
v -25.7812 24.2695 14.5312 1.0000 1.0000 1.0000
v -32.3203 9.0508 12.0000 1.0000 1.0000 1.0000
v -25.7812 24.2695 15.8984 1.0000 1.0000 1.0000
v -25.7812 24.2695 14.5312 1.0000 1.0000 1.0000
v -32.6523 9.6289 10.6953 1.0000 1.0000 1.0000
v -30.9531 5.2227 7.1797 1.0000 1.0000 1.0000
v -32.3203 9.0508 12.0000 1.0000 1.0000 1.0000
v -30.9531 5.2227 7.1797 1.0000 1.0000 1.0000
v -30.2930 4.0742 7.9492 1.0000 1.0000 1.0000
v -32.3203 9.0508 12.0000 1.0000 1.0000 1.0000
v 46.3984 55.2695 10.6953 1.0000 1.0000 1.0000
v 46.7305 54.6914 12.0000 1.0000 1.0000 1.0000
v 45.5664 49.4023 7.1797 1.0000 1.0000 1.0000
v 46.7305 54.6914 12.0000 1.0000 1.0000 1.0000
v 46.2266 48.2539 7.9492 1.0000 1.0000 1.0000
v 45.5664 49.4023 7.1797 1.0000 1.0000 1.0000
v 48.8906 51.3203 0.0000 1.0000 1.0000 1.0000
v 45.5664 49.4023 7.1797 1.0000 1.0000 1.0000
v 49.5508 50.1719 0.0000 1.0000 1.0000 1.0000
v 45.5664 49.4023 7.1797 1.0000 1.0000 1.0000
v 46.2266 48.2539 7.9492 1.0000 1.0000 1.0000
v 49.5508 50.1719 0.0000 1.0000 1.0000 1.0000
v 41.8555 63.3203 -13.6758 1.0000 1.0000 1.0000
v 35.5586 49.6055 -10.6641 1.0000 1.0000 1.0000
v 41.8555 63.3203 -15.8984 1.0000 1.0000 1.0000
v 35.5586 49.6055 -10.6641 1.0000 1.0000 1.0000
v 37.8789 49.5820 -12.0000 1.0000 1.0000 1.0000
v 41.8555 63.3203 -15.8984 1.0000 1.0000 1.0000
v -25.7812 24.2695 14.5312 1.0000 1.0000 1.0000
v -25.7812 24.2695 15.8984 1.0000 1.0000 1.0000
v -23.9727 35.7109 12.5156 1.0000 1.0000 1.0000
v -25.7812 24.2695 15.8984 1.0000 1.0000 1.0000
v -24.8906 36.4375 14.0000 1.0000 1.0000 1.0000
v -23.9727 35.7109 12.5156 1.0000 1.0000 1.0000
v -23.9727 35.7109 12.5156 1.0000 1.0000 1.0000
v -24.8906 36.4375 14.0000 1.0000 1.0000 1.0000
v -23.1797 45.5039 6.9141 1.0000 1.0000 1.0000
v -24.8906 36.4375 14.0000 1.0000 1.0000 1.0000
v -23.5352 47.7773 7.9492 1.0000 1.0000 1.0000
v -23.1797 45.5039 6.9141 1.0000 1.0000 1.0000
v -43.5586 33.6875 -6.6680 1.0000 1.0000 1.0000
v -23.1797 45.5039 6.9141 1.0000 1.0000 1.0000
v -44.9883 35.3906 -7.9492 1.0000 1.0000 1.0000
v -23.1797 45.5039 6.9141 1.0000 1.0000 1.0000
v -23.5352 47.7773 7.9492 1.0000 1.0000 1.0000
v -44.9883 35.3906 -7.9492 1.0000 1.0000 1.0000
v 40.2578 62.3984 14.5312 1.0000 1.0000 1.0000
v 14.6094 57.9844 12.5156 1.0000 1.0000 1.0000
v 40.2578 62.3984 15.8984 1.0000 1.0000 1.0000
v 14.6094 57.9844 12.5156 1.0000 1.0000 1.0000
v 14.0664 58.9258 14.0000 1.0000 1.0000 1.0000
v 40.2578 62.3984 15.8984 1.0000 1.0000 1.0000
v -43.5586 33.6875 -6.6680 1.0000 1.0000 1.0000
v -44.9883 35.3906 -7.9492 1.0000 1.0000 1.0000
v -34.0820 30.6016 -11.5781 1.0000 1.0000 1.0000
v -44.9883 35.3906 -7.9492 1.0000 1.0000 1.0000
v -34.3086 30.9961 -14.0000 1.0000 1.0000 1.0000
v -34.0820 30.6016 -11.5781 1.0000 1.0000 1.0000
v 31.1836 68.2812 -11.5781 1.0000 1.0000 1.0000
v 41.8555 63.3203 -13.6758 1.0000 1.0000 1.0000
v 30.9297 68.6641 -14.0000 1.0000 1.0000 1.0000
v 41.8555 63.3203 -13.6758 1.0000 1.0000 1.0000
v 41.8555 63.3203 -15.8984 1.0000 1.0000 1.0000
v 30.9297 68.6641 -14.0000 1.0000 1.0000 1.0000
v 31.1836 68.2812 -11.5781 1.0000 1.0000 1.0000
v 30.9297 68.6641 -14.0000 1.0000 1.0000 1.0000
v 35.0234 79.0586 -6.6680 1.0000 1.0000 1.0000
v 30.9297 68.6641 -14.0000 1.0000 1.0000 1.0000
v 36.2148 82.2695 -7.9492 1.0000 1.0000 1.0000
v 35.0234 79.0586 -6.6680 1.0000 1.0000 1.0000
vt -0.21875 0.00000
vt -0.21875 1.00000
vt -0.53125 1.00000
vt -0.21875 0.00000
vt -0.53125 1.00000
vt -0.53125 0.00000
vt -0.53125 0.00000
vt -0.53125 1.00000
vt -0.75000 1.00000
vt -0.53125 0.00000
vt -0.75000 1.00000
vt -0.75000 0.00000
vt -0.75000 0.00000
vt -0.75000 1.00000
vt -1.50000 1.00000
vt -0.75000 0.00000
vt -1.50000 1.00000
vt -1.50000 0.00000
vt -1.50000 0.00000
vt -1.50000 1.00000
vt -1.87500 1.00000
vt -1.50000 0.00000
vt -1.87500 1.00000
vt -1.87500 0.00000
vt -1.87500 0.00000
vt -1.87500 1.00000
vt -2.43750 1.00000
vt -1.87500 0.00000
vt -2.43750 1.00000
vt -2.43750 0.00000
vt -2.43750 0.00000
vt -2.43750 1.00000
vt -3.00000 1.00000
vt -2.43750 0.00000
vt -3.00000 1.00000
vt -3.00000 0.00000
vt -5.34375 1.00000
vt -5.34375 0.00000
vt -5.03125 0.00000
vt -5.34375 1.00000
vt -5.03125 0.00000
vt -5.03125 1.00000
vt -5.03125 1.00000
vt -5.03125 0.00000
vt -4.25000 0.00000
vt -5.03125 1.00000
vt -4.25000 0.00000
vt -4.25000 1.00000
vt -4.25000 1.00000
vt -4.25000 0.00000
vt -3.56250 0.00000
vt -4.25000 1.00000
vt -3.56250 0.00000
vt -3.56250 1.00000
vt -3.56250 0.00000
vt -3.56250 1.00000
vt -3.00000 1.00000
vt -3.56250 0.00000
vt -3.00000 1.00000
vt -3.00000 0.00000
vt 0.37500 0.20312
vt 0.37500 0.78125
vt 0.00000 1.00000
vt 0.37500 0.20312
vt 0.00000 1.00000
vt 0.00000 0.00000
vt 0.00000 0.00000
vt 0.00000 1.00000
vt 0.37500 0.78125
vt 0.00000 0.00000
vt 0.37500 0.78125
vt 0.37500 0.20312
vt 0.37500 0.20312
vt 0.37500 0.78125
vt 0.56250 0.93750
vt 0.37500 0.20312
vt 0.56250 0.93750
vt 0.56250 0.26562
vt 0.56250 0.26562
vt 0.56250 0.93750
vt 0.75000 0.96875
vt 0.56250 0.26562
vt 0.75000 0.96875
vt 0.75000 0.00000
vt 0.75000 0.00000
vt 0.75000 0.96875
vt 0.93750 1.00000
vt 0.75000 0.00000
vt 0.93750 1.00000
vt 0.93750 0.00000
vt 0.93750 0.00000
vt 0.93750 1.00000
vt 1.00000 1.00000
vt 0.93750 0.00000
vt 1.00000 1.00000
vt 1.00000 0.00000
vt 0.93750 0.00000
vt 0.93750 1.00000
vt 1.00000 1.00000
vt 0.93750 0.00000
vt 1.00000 1.00000
vt 1.00000 0.00000
vt 1.00000 0.00000
vt 1.00000 1.00000
vt 0.93750 1.00000
vt 1.00000 0.00000
vt 0.93750 1.00000
vt 0.93750 0.00000
vt 0.93750 0.00000
vt 0.93750 1.00000
vt 0.75000 0.96875
vt 0.93750 0.00000
vt 0.75000 0.96875
vt 0.75000 0.00000
vt 0.18750 0.00000
vt 0.59375 0.00000
vt 0.18750 0.03125
vt 0.59375 0.00000
vt 0.59375 0.03125
vt 0.18750 0.03125
vt 0.18750 0.96875
vt 0.50000 0.96875
vt 0.18750 1.00000
vt 0.50000 0.96875
vt 0.50000 1.00000
vt 0.18750 1.00000
vt 0.50000 1.00000
vt 0.18750 1.00000
vt 0.50000 0.96875
vt 0.18750 1.00000
vt 0.18750 0.96875
vt 0.50000 0.96875
vt 0.50000 1.00000
vt 0.18750 1.00000
vt 0.50000 0.96875
vt 0.18750 1.00000
vt 0.18750 0.96875
vt 0.50000 0.96875
vt 0.18750 0.03125
vt 0.18750 0.00000
vt 0.59375 0.03125
vt 0.18750 0.00000
vt 0.59375 0.00000
vt 0.59375 0.03125
vt 0.50000 0.96875
vt 0.50000 1.00000
vt 0.18750 0.96875
vt 0.50000 1.00000
vt 0.18750 1.00000
vt 0.18750 0.96875
vt 0.18750 0.03125
vt 0.18750 0.00000
vt 0.59375 0.03125
vt 0.18750 0.00000
vt 0.59375 0.00000
vt 0.59375 0.03125
vt 0.50000 1.00000
vt 0.18750 1.00000
vt 0.50000 0.98438
vt 0.18750 1.00000
vt 0.18750 0.96875
vt 0.50000 0.98438
vt 0.18750 0.03125
vt 0.18750 0.00000
vt 0.59375 0.03125
vt 0.18750 0.00000
vt 0.59375 0.00000
vt 0.59375 0.03125
vt 0.50000 1.00000
vt 0.18750 1.00000
vt 0.50000 0.98438
vt 0.18750 1.00000
vt 0.18750 0.96875
vt 0.50000 0.98438
vt 0.18750 0.03125
vt 0.18750 0.00000
vt 0.59375 0.03125
vt 0.18750 0.00000
vt 0.59375 0.00000
vt 0.59375 0.03125
vt 0.50000 1.00000
vt 0.18750 1.00000
vt 0.50000 0.98438
vt 0.18750 1.00000
vt 0.18750 0.96875
vt 0.50000 0.98438
vt 0.18750 1.00000
vt 0.18750 0.96875
vt 0.50000 1.00000
vt 0.18750 0.96875
vt 0.50000 0.96875
vt 0.50000 1.00000
vt 0.59375 0.03125
vt 0.18750 0.03125
vt 0.59375 0.00000
vt 0.18750 0.03125
vt 0.18750 0.00000
vt 0.59375 0.00000
vt 0.50000 1.00000
vt 0.18750 1.00000
vt 0.50000 0.96875
vt 0.18750 1.00000
vt 0.18750 0.96875
vt 0.50000 0.96875
vt 0.18750 1.00000
vt 0.18750 0.96875
vt 0.50000 1.00000
vt 0.18750 0.96875
vt 0.50000 0.98438
vt 0.50000 1.00000
vt 0.18750 1.00000
vt 0.18750 0.96875
vt 0.50000 1.00000
vt 0.18750 0.96875
vt 0.50000 0.98438
vt 0.50000 1.00000
vt 0.59375 0.03125
vt 0.18750 0.03125
vt 0.59375 0.00000
vt 0.18750 0.03125
vt 0.18750 0.00000
vt 0.59375 0.00000
vt 0.59375 0.03125
vt 0.18750 0.03125
vt 0.59375 0.00000
vt 0.18750 0.03125
vt 0.18750 0.00000
vt 0.59375 0.00000
vt 0.18750 1.00000
vt 0.18750 0.96875
vt 0.50000 1.00000
vt 0.18750 0.96875
vt 0.50000 0.98438
vt 0.50000 1.00000
vt 0.59375 0.03125
vt 0.18750 0.03125
vt 0.59375 0.00000
vt 0.18750 0.03125
vt 0.18750 0.00000
vt 0.59375 0.00000
vt 0.18750 1.00000
vt 0.18750 0.96875
vt 0.50000 1.00000
vt 0.18750 0.96875
vt 0.50000 0.96875
vt 0.50000 1.00000
usemtl material1
f 1/1 2/2 3/3
f 4/4 5/5 6/6
f 7/7 8/8 9/9
f 10/10 11/11 12/12
f 13/13 14/14 15/15
f 16/16 17/17 18/18
f 19/19 20/20 21/21
f 22/22 23/23 24/24
f 25/25 26/26 27/27
f 28/28 29/29 30/30
f 31/31 32/32 33/33
f 34/34 35/35 36/36
f 37/37 38/38 39/39
f 40/40 41/41 42/42
f 43/43 44/44 45/45
f 46/46 47/47 48/48
f 49/49 50/50 51/51
f 52/52 53/53 54/54
f 55/55 56/56 57/57
f 58/58 59/59 60/60
usemtl material0
f 61/61 62/62 63/63
f 64/64 65/65 66/66
f 67/67 68/68 69/69
f 70/70 71/71 72/72
f 73/73 74/74 75/75
f 76/76 77/77 78/78
f 79/79 80/80 81/81
f 82/82 83/83 84/84
f 85/85 86/86 87/87
f 88/88 89/89 90/90
f 91/91 92/92 93/93
f 94/94 95/95 96/96
f 97/97 98/98 99/99
f 100/100 101/101 102/102
f 103/103 104/104 105/105
f 106/106 107/107 108/108
f 109/109 110/110 111/111
f 112/112 113/113 114/114
f 115/115 116/116 117/117
f 118/118 119/119 120/120
f 121/121 122/122 123/123
f 124/124 125/125 126/126
f 127/127 128/128 129/129
f 130/130 131/131 132/132
f 133/133 134/134 135/135
f 136/136 137/137 138/138
f 139/139 140/140 141/141
f 142/142 143/143 144/144
f 145/145 146/146 147/147
f 148/148 149/149 150/150
f 151/151 152/152 153/153
f 154/154 155/155 156/156
f 157/157 158/158 159/159
f 160/160 161/161 162/162
f 163/163 164/164 165/165
f 166/166 167/167 168/168
f 169/169 170/170 171/171
f 172/172 173/173 174/174
f 175/175 176/176 177/177
f 178/178 179/179 180/180
f 181/181 182/182 183/183
f 184/184 185/185 186/186
f 187/187 188/188 189/189
f 190/190 191/191 192/192
f 193/193 194/194 195/195
f 196/196 197/197 198/198
f 199/199 200/200 201/201
f 202/202 203/203 204/204
f 205/205 206/206 207/207
f 208/208 209/209 210/210
f 211/211 212/212 213/213
f 214/214 215/215 216/216
f 217/217 218/218 219/219
f 220/220 221/221 222/222
f 223/223 224/224 225/225
f 226/226 227/227 228/228
f 229/229 230/230 231/231
f 232/232 233/233 234/234
f 235/235 236/236 237/237
f 238/238 239/239 240/240
f 241/241 242/242 243/243
f 244/244 245/245 246/246
