# Created by MKDS Course Modifier
mtllib Driftviel City House 1.mtl
g polygon0
usemtl h_mado
v -32.20898 32.97656 18
v -32.20898 14.69922 18
v -16.98633 14.69922 18
v -16.98633 32.97656 18
v -33.98047 14.18164 -22.5625
v -33.98047 14.18164 4.388672
v -33.98047 32.97656 4.388672
v -33.98047 32.97656 -22.5625
v 34.58984 32.97656 4.388672
v 34.58984 14.18164 4.388672
v 34.58984 14.18164 -22.5625
v 34.58984 32.97656 -22.5625
v 17.12891 32.97656 18
v 17.12891 14.69922 18
v 31.98047 14.69922 18
v 31.98047 32.97656 18
vn 0 0 0.9980469
vn 0 0 0.9980469
vn 0 0 0.9980469
vn 0 0 0.9980469
vn 0 0 0.9980469
vn 0 0 0.9980469
vn 0 0 0.9980469
vn 0 0 0.9980469
vn 0 0 0.9980469
vn 0 0 0.9980469
vn 0 0 0.9980469
vn 0 0 0.9980469
vn 0 0 0.9980469
vn 0 0 0.9980469
vn 0 0 0.9980469
vn 0 0 0.9980469
vt 0 0
vt 0 -1
vt 1 -1
vt 1 0
vt 0 -1
vt 1 -1
vt 1 0
vt 0 0
vt 0 0
vt 0 -1
vt 1 -1
vt 1 0
vt 0 0
vt 0 -1
vt 1 -1
vt 1 0
f 1/1/1 2/2/2 3/3/3 4/4/4
f 5/5/5 6/6/6 7/7/7 8/8/8
f 9/9/9 10/10/10 11/11/11 12/12/12
f 13/13/13 14/14/14 15/15/15 16/16/16
g polygon1
usemtl h_kage
v -42 2 24.91602
v -33.59961 2 16.51758
v -42 2 -31.81055
v -33.59961 2 -23.41016
v 42 2 -31.81055
v 33.59961 2 -23.41016
v 42 2 24.91602
v 33.59961 2 16.51758
v -42 2 24.91602
v -33.59961 2 16.51758
vn 0 0.9980469 0
vn 0 0.9980469 0
vn 0 0.9980469 0
vn 0 0.9980469 0
vn 0 0.9980469 0
vn 0 0.9980469 0
vn 0 0.9980469 0
vn 0 0.9980469 0
vn 0 0.9980469 0
vn 0 0.9980469 0
vt 0.5 -0.125
vt 0.5 -0.875
vt 0.5 -0.125
vt 0.5 -0.875
vt 0.5 -0.125
vt 0.5 -0.875
vt 0.5 -0.125
vt 0.5 -0.875
vt 0.5 -0.125
vt 0.5 -0.875
f 17/17/17 18/18/18 19/19/19
f 18/18/18 20/20/20 19/19/19
f 19/19/19 20/20/20 21/21/21
f 20/20/20 22/22/22 21/21/21
f 21/21/21 22/22/22 23/23/23
f 22/22/22 24/24/24 23/23/23
f 23/23/23 24/24/24 25/25/25
f 24/24/24 26/26/26 25/25/25
v 33.59961 2 16.51758
v 33.59961 2 -23.41016
v -33.59961 2 -23.41016
v -33.59961 2 16.51758
vn 0 0.9980469 0
vn 0 0.9980469 0
vn 0 0.9980469 0
vn 0 0.9980469 0
vt 0.5 -0.875
vt 0.5 -0.875
vt 0.5 -0.875
vt 0.5 -0.875
f 27/27/27 28/28/28 29/29/29 30/30/30
g polygon2
usemtl c5house1a
v -36 4 20
v -36 34 20
v -36 4 -2
v -36 34 -2
v -36 4 -24
v -36 34 -24
vn -1 0 0
vn -1 0 0
vn -1 0 0
vn -1 0 0
vn -1 0 0
vn -1 0 0
vt 0.9921875 -0.9902344
vt 0.9921875 -0.2617188
vt 0.359375 -0.9902344
vt 0.359375 -0.2617188
vt 0.9921875 -0.9902344
vt 0.9921875 -0.2617188
f 31/31/31 32/32/32 33/33/33
f 32/32/32 34/34/34 33/33/33
f 33/33/33 34/34/34 35/35/35
f 34/34/34 36/36/36 35/35/35
v 36 34 20
v 36 4 20
v 36 34 -2
v 36 4 -2
v 36 34 -24
v 36 4 -24
vn 0.9980469 0 0
vn 0.9980469 0 0
vn 0.9980469 0 0
vn 0.9980469 0 0
vn 0.9980469 0 0
vn 0.9980469 0 0
vt 0.9921875 -0.2617188
vt 0.9921875 -0.9902344
vt 0.359375 -0.2617188
vt 0.359375 -0.9902344
vt 0.9921875 -0.2617188
vt 0.9921875 -0.9902344
f 37/37/37 38/38/38 39/39/39
f 38/38/38 40/40/40 39/39/39
f 39/39/39 40/40/40 41/41/41
f 40/40/40 42/42/42 41/41/41
v -36 40 -24
v -36 34 -24
v -36 51.29883 -2
v -36 44.86523 -2
v -36 40 20
v -36 34 20
vn -1 0 0
vn -1 0 0
vn -1 0 0
vn -1 0 0
vn -1 0 0
vn -1 0 0
vt 0.01367188 -0.01171875
vt 0.01367188 -0.21875
vt 0.46875 -0.01171875
vt 0.46875 -0.21875
vt 0.01367188 -0.01171875
vt 0.01367188 -0.21875
f 43/43/43 44/44/44 45/45/45
f 44/44/44 46/46/46 45/45/45
f 45/45/45 46/46/46 47/47/47
f 46/46/46 48/48/48 47/47/47
v 36 34 -24
v 36 40 -24
v 36 44.86523 -2
v 36 51.29883 -2
v 36 34 20
v 36 40 20
vn 0.9980469 0 0
vn 0.9980469 0 0
vn 0.9980469 0 0
vn 0.9980469 0 0
vn 0.9980469 0 0
vn 0.9980469 0 0
vt 0.01367188 -0.21875
vt 0.01367188 -0.01171875
vt 0.46875 -0.21875
vt 0.46875 -0.01171875
vt 0.01367188 -0.21875
vt 0.01367188 -0.01171875
f 49/49/49 50/50/50 51/51/51
f 50/50/50 52/52/52 51/51/51
f 51/51/51 52/52/52 53/53/53
f 52/52/52 54/54/54 53/53/53
v -36 34 -24
v -36 34 -2
v -36 44.86523 -2
v -36 34 20
vn -1 0 0
vn -1 0 0
vn -1 0 0
vn -1 0 0
vt 0.5996094 -0.453125
vt 0.5996094 -0.375
vt 0.96875 -0.375
vt 0.5996094 -0.453125
f 55/55/55 56/56/56 57/57/57
f 56/56/56 58/58/58 57/57/57
v 36 34 -24
v 36 44.86523 -2
v 36 34 -2
v 36 34 20
vn 0.9980469 0 0
vn 0.9980469 0 0
vn 0.9980469 0 0
vn 0.9980469 0 0
vt 0.5996094 -0.453125
vt 0.96875 -0.375
vt 0.5996094 -0.375
vt 0.5996094 -0.453125
f 59/59/59 60/60/60 61/61/61
f 60/60/60 62/62/62 61/61/61
v 18.05078 21.53711 22.23047
v 30.66992 21.53711 22.23047
v 31.19531 22.42578 20.81445
v 17.52734 22.42578 20.81445
v 17.52734 19.34375 20.81445
v 18.05078 19.34375 22.23047
v 18.05078 21.53711 22.23047
v 17.52734 22.42578 20.81445
v 30.66992 19.34375 22.23047
v 31.19531 19.34375 20.81445
v 31.19531 22.42578 20.81445
v 30.66992 21.53711 22.23047
v 18.05078 19.34375 22.23047
v 30.66992 19.34375 22.23047
v 30.66992 21.53711 22.23047
v 18.05078 21.53711 22.23047
v -30.56055 21.53711 22.23047
v -17.94141 21.53711 22.23047
v -17.41797 22.42578 20.81445
v -31.08594 22.42578 20.81445
v -31.08594 19.34375 20.81445
v -30.56055 19.34375 22.23047
v -30.56055 21.53711 22.23047
v -31.08594 22.42578 20.81445
v -17.94141 19.34375 22.23047
v -17.41797 19.34375 20.81445
v -17.41797 22.42578 20.81445
v -17.94141 21.53711 22.23047
v -30.56055 19.34375 22.23047
v -17.94141 19.34375 22.23047
v -17.94141 21.53711 22.23047
v -30.56055 21.53711 22.23047
v -36 4 20
v -9 4 20
v -9 34 20
v -36 34 20
v 9 4 20
v 36 4 20
v 36 34 20
v 9 34 20
v -9 34 20
v 9 34 20
v 9 40 20
v -9 40 20
v -9 40 20
v -36 40 20
v -36 34 20
v -9 34 20
v 9 34 20
v 36 34 20
v 36 40 20
v 9 40 20
vn 0 0.8476563 0.53125
vn 0 0.8476563 0.53125
vn 0 0.8476563 0.53125
vn 0 0.8476563 0.53125
vn -0.9375 0 0.3476563
vn -0.9375 0 0.3476563
vn -0.9375 0 0.3476563
vn -0.9375 0 0.3476563
vn 0.9375 0 0.3476563
vn 0.9375 0 0.3476563
vn 0.9375 0 0.3476563
vn 0.9375 0 0.3476563
vn 0 0 0.9980469
vn 0 0 0.9980469
vn 0 0 0.9980469
vn 0 0 0.9980469
vn 0 0.8476563 0.53125
vn 0 0.8476563 0.53125
vn 0 0.8476563 0.53125
vn 0 0.8476563 0.53125
vn -0.9375 0 0.3476563
vn -0.9375 0 0.3476563
vn -0.9375 0 0.3476563
vn -0.9375 0 0.3476563
vn 0.9375 0 0.3476563
vn 0.9375 0 0.3476563
vn 0.9375 0 0.3476563
vn 0.9375 0 0.3476563
vn 0 0 0.9980469
vn 0 0 0.9980469
vn 0 0 0.9980469
vn 0 0 0.9980469
vn 0 0 0.9980469
vn 0 0 0.9980469
vn 0 0 0.9980469
vn 0 0 0.9980469
vn 0 0 0.9980469
vn 0 0 0.9980469
vn 0 0 0.9980469
vn 0 0 0.9980469
vn 0 0 0.9980469
vn 0 0 0.9980469
vn 0 0 0.9980469
vn 0 0 0.9980469
vn 0 0 0.9980469
vn 0 0 0.9980469
vn 0 0 0.9980469
vn 0 0 0.9980469
vn 0 0 0.9980469
vn 0 0 0.9980469
vn 0 0 0.9980469
vn 0 0 0.9980469
vt 0.109375 -0.5546875
vt 0.109375 -0.640625
vt 0.2050781 -0.640625
vt 0.2050781 -0.5546875
vt 0.8320313 -0.171875
vt 0.8320313 -0.171875
vt 0.8652344 -0.171875
vt 0.8652344 -0.171875
vt 0.8652344 -0.171875
vt 0.8652344 -0.171875
vt 0.8320313 -0.171875
vt 0.8320313 -0.171875
vt 0.5722656 -0.1699219
vt 0.5722656 -0.1699219
vt 0.5390625 -0.171875
vt 0.5390625 -0.171875
vt 0.109375 -0.5546875
vt 0.109375 -0.640625
vt 0.2050781 -0.640625
vt 0.2050781 -0.5546875
vt 0.8320313 -0.171875
vt 0.8320313 -0.171875
vt 0.8652344 -0.171875
vt 0.8652344 -0.171875
vt 0.8652344 -0.171875
vt 0.8652344 -0.171875
vt 0.8320313 -0.171875
vt 0.8320313 -0.171875
vt 0.5722656 -0.1699219
vt 0.5722656 -0.1699219
vt 0.5390625 -0.171875
vt 0.5390625 -0.171875
vt 0.625 -0.9902344
vt 0.0078125 -0.9902344
vt 0.0078125 -0.2617188
vt 0.625 -0.2617188
vt 0.0078125 -0.9902344
vt 0.625 -0.9902344
vt 0.625 -0.2617188
vt 0.0078125 -0.2617188
vt 0.09375 -0.2421875
vt 0.40625 -0.2421875
vt 0.40625 -0.01171875
vt 0.09375 -0.01171875
vt 0.46875 -0.01171875
vt 0.01367188 -0.01171875
vt 0.01367188 -0.2421875
vt 0.46875 -0.2421875
vt 0.46875 -0.2421875
vt 0.01367188 -0.2421875
vt 0.01367188 -0.01171875
vt 0.46875 -0.01171875
f 63/63/63 64/64/64 65/65/65 66/66/66
f 67/67/67 68/68/68 69/69/69 70/70/70
f 71/71/71 72/72/72 73/73/73 74/74/74
f 75/75/75 76/76/76 77/77/77 78/78/78
f 79/79/79 80/80/80 81/81/81 82/82/82
f 83/83/83 84/84/84 85/85/85 86/86/86
f 87/87/87 88/88/88 89/89/89 90/90/90
f 91/91/91 92/92/92 93/93/93 94/94/94
f 95/95/95 96/96/96 97/97/97 98/98/98
f 99/99/99 100/100/100 101/101/101 102/102/102
f 103/103/103 104/104/104 105/105/105 106/106/106
f 107/107/107 108/108/108 109/109/109 110/110/110
f 111/111/111 112/112/112 113/113/113 114/114/114
g polygon3
usemtl c5house1b
v 23.80859 51.94922 -13.1875
v 30.44727 51.94922 -13.1875
v 29.98828 57.02734 -13.35352
v 24.26758 57.02734 -13.35352
v 23.80859 48.81055 -19.10938
v 23.80859 51.94922 -13.1875
v 24.26758 57.02734 -13.35352
v 24.26758 57.02734 -19.01758
v 30.44727 50.45508 15.31055
v 23.80859 50.45508 15.31055
v 23.8457 48.8457 18.52539
v 30.41016 48.8457 18.52539
v 30.11328 56.76172 9.564453
v 24.14258 56.76172 9.564453
v 24.14258 56.76172 15.21094
v 30.11328 56.76172 15.21094
v 30.11328 56.76172 9.564453
v 30.11328 56.76172 15.21094
v 30.44727 50.45508 15.31055
v 30.44727 53.28711 9.388672
v 24.14258 56.76172 15.21094
v 24.14258 56.76172 9.564453
v 23.80859 53.28711 9.388672
v 23.80859 50.45508 15.31055
v 30.11328 56.76172 15.21094
v 24.14258 56.76172 15.21094
v 23.80859 50.45508 15.31055
v 30.44727 50.45508 15.31055
v -29.98828 57.02734 -13.35352
v -24.26758 57.02734 -13.35352
v -24.26758 57.02734 -19.01758
v -29.98828 57.02734 -19.01758
v -29.98828 57.02734 -13.35352
v -29.98828 57.02734 -19.01758
v -30.44727 48.81055 -19.10938
v -30.44727 51.94922 -13.1875
v -24.26758 57.02734 -13.35352
v -29.98828 57.02734 -13.35352
v -30.44727 51.94922 -13.1875
v -23.80859 51.94922 -13.1875
v -24.26758 57.02734 -19.01758
v -24.26758 57.02734 -13.35352
v -23.80859 51.94922 -13.1875
v -23.80859 48.81055 -19.10938
v -30.41016 48.8457 18.52539
v -23.8457 48.8457 18.52539
v -23.80859 50.45508 15.31055
v -30.44727 50.45508 15.31055
v -30.11328 56.76172 15.21094
v -24.14258 56.76172 15.21094
v -24.14258 56.76172 9.564453
v -30.11328 56.76172 9.564453
v -30.44727 53.28711 9.388672
v -30.44727 50.45508 15.31055
v -30.11328 56.76172 15.21094
v -30.11328 56.76172 9.564453
v -23.80859 50.45508 15.31055
v -23.80859 53.28711 9.388672
v -24.14258 56.76172 9.564453
v -24.14258 56.76172 15.21094
v -30.44727 50.45508 15.31055
v -23.80859 50.45508 15.31055
v -24.14258 56.76172 15.21094
v -30.11328 56.76172 15.21094
v 9 55.7168 1.787109
v 9 55.7168 -5.787109
v -9 55.7168 -5.787109
v -9 55.7168 1.787109
v -9 55.7168 1.787109
v -9 55.7168 -5.787109
v -37 55.7168 -5.787109
v -37 55.7168 1.787109
v 37 55.7168 1.787109
v 37 55.7168 -5.787109
v 9 55.7168 -5.787109
v 9 55.7168 1.787109
v -9 55.7168 -5.787109
v 9 55.7168 -5.787109
v 9 44 -28
v -9 44 -28
v -9 44 24
v 9 44 24
v 9 55.7168 1.787109
v -9 55.7168 1.787109
v 9 55.7168 -5.787109
v 37 55.7168 -5.787109
v 37 44 -28
v 9 44 -28
v 9 44 24
v 37 44 24
v 37 55.7168 1.787109
v 9 55.7168 1.787109
v -9 44 -28
v -37 44 -28
v -37 55.7168 -5.787109
v -9 55.7168 -5.787109
v -9 55.7168 1.787109
v -37 55.7168 1.787109
v -37 44 24
v -9 44 24
v -9 4 20
v -9 4 6
v -9 34 6
v -9 34 20
v -9 4 6
v 9 4 6
v 9 34 6
v -9 34 6
v 9 4 6
v 9 4 20
v 9 34 20
v 9 34 6
v 29.98828 57.02734 -19.01758
v 24.26758 57.02734 -19.01758
v 24.26758 57.02734 -13.35352
v 29.98828 57.02734 -13.35352
v 30.44727 51.94922 -13.1875
v 30.44727 48.81055 -19.10938
v 29.98828 57.02734 -19.01758
v 29.98828 57.02734 -13.35352
v -9 40 20
v 9 40 20
v 9 44 24
v -9 44 24
v -37 44 -28
v -36 40 -24
v -36 51.29883 -2
v -37 55.7168 -5.787109
v -9 44 24
v -37 44 24
v -36 40 20
v -9 40 20
v -37 55.7168 1.787109
v -36 51.29883 -2
v -36 40 20
v -37 44 24
v 37 55.7168 -5.787109
v 36 51.29883 -2
v 36 40 -24
v 37 44 -28
v 9 40 20
v 36 40 20
v 37 44 24
v 9 44 24
v 37 44 24
v 36 40 20
v 36 51.29883 -2
v 37 55.7168 1.787109
v 9 4 20
v 9 4 6
v -9 4 6
v -9 4 20
vn 0 0 0.9980469
vn 0 0 0.9980469
vn 0 0 0.9980469
vn 0 0 0.9980469
vn -0.9980469 0.06835938 0.01757813
vn -0.9980469 0.06835938 0.01757813
vn -0.9980469 0.06835938 0.01757813
vn -0.9980469 0.06835938 0.01757813
vn 0 0.8847656 0.4667969
vn 0 0.8847656 0.4667969
vn 0 0.8847656 0.4667969
vn 0 0.8847656 0.4667969
vn 0 0.9980469 0
vn 0 0.9980469 0
vn 0 0.9980469 0
vn 0 0.9980469 0
vn 0.9980469 0.06835938 0.01757813
vn 0.9980469 0.06835938 0.01757813
vn 0.9980469 0.06835938 0.01757813
vn 0.9980469 0.06835938 0.01757813
vn -0.9980469 0.06835938 0.01757813
vn -0.9980469 0.06835938 0.01757813
vn -0.9980469 0.06835938 0.01757813
vn -0.9980469 0.06835938 0.01757813
vn 0 0 0.9980469
vn 0 0 0.9980469
vn 0 0 0.9980469
vn 0 0 0.9980469
vn 0 0.9980469 0
vn 0 0.9980469 0
vn 0 0.9980469 0
vn 0 0.9980469 0
vn -0.9980469 0.06835938 0.01757813
vn -0.9980469 0.06835938 0.01757813
vn -0.9980469 0.06835938 0.01757813
vn -0.9980469 0.06835938 0.01757813
vn 0 0 0.9980469
vn 0 0 0.9980469
vn 0 0 0.9980469
vn 0 0 0.9980469
vn 0.9980469 0.06835938 0.01757813
vn 0.9980469 0.06835938 0.01757813
vn 0.9980469 0.06835938 0.01757813
vn 0.9980469 0.06835938 0.01757813
vn 0 0.8847656 0.4667969
vn 0 0.8847656 0.4667969
vn 0 0.8847656 0.4667969
vn 0 0.8847656 0.4667969
vn 0 0.9980469 0
vn 0 0.9980469 0
vn 0 0.9980469 0
vn 0 0.9980469 0
vn -0.9980469 0.06835938 0.01757813
vn -0.9980469 0.06835938 0.01757813
vn -0.9980469 0.06835938 0.01757813
vn -0.9980469 0.06835938 0.01757813
vn 0.9980469 0.06835938 0.01757813
vn 0.9980469 0.06835938 0.01757813
vn 0.9980469 0.06835938 0.01757813
vn 0.9980469 0.06835938 0.01757813
vn 0 0 0.9980469
vn 0 0 0.9980469
vn 0 0 0.9980469
vn 0 0 0.9980469
vn 0 0.9980469 0
vn 0 0.9980469 0
vn 0 0.9980469 0
vn 0 0.9980469 0
vn 0 0.9980469 0
vn 0 0.9980469 0
vn 0 0.9980469 0
vn 0 0.9980469 0
vn 0 0.9980469 0
vn 0 0.9980469 0
vn 0 0.9980469 0
vn 0 0.9980469 0
vn 0 0.8847656 -0.4667969
vn 0 0.8847656 -0.4667969
vn 0 0.8847656 -0.4667969
vn 0 0.8847656 -0.4667969
vn 0 0.8847656 0.4667969
vn 0 0.8847656 0.4667969
vn 0 0.8847656 0.4667969
vn 0 0.8847656 0.4667969
vn 0 0.8847656 -0.4667969
vn 0 0.8847656 -0.4667969
vn 0 0.8847656 -0.4667969
vn 0 0.8847656 -0.4667969
vn 0 0.8847656 0.4667969
vn 0 0.8847656 0.4667969
vn 0 0.8847656 0.4667969
vn 0 0.8847656 0.4667969
vn 0 0.8847656 -0.4667969
vn 0 0.8847656 -0.4667969
vn 0 0.8847656 -0.4667969
vn 0 0.8847656 -0.4667969
vn 0 0.8847656 0.4667969
vn 0 0.8847656 0.4667969
vn 0 0.8847656 0.4667969
vn 0 0.8847656 0.4667969
vn 0.9980469 0 0
vn 0.9980469 0 0
vn 0.9980469 0 0
vn 0.9980469 0 0
vn 0 0 0.9980469
vn 0 0 0.9980469
vn 0 0 0.9980469
vn 0 0 0.9980469
vn -1 0 0
vn -1 0 0
vn -1 0 0
vn -1 0 0
vn 0 0.9980469 0
vn 0 0.9980469 0
vn 0 0.9980469 0
vn 0 0.9980469 0
vn 0.9980469 0.06835938 0.01757813
vn 0.9980469 0.06835938 0.01757813
vn 0.9980469 0.06835938 0.01757813
vn 0.9980469 0.06835938 0.01757813
vn 0 -0.7070313 0.7070313
vn 0 -0.7070313 0.7070313
vn 0 -0.7070313 0.7070313
vn 0 -0.7070313 0.7070313
vn -0.984375 -0.1582031 0.08203125
vn -0.984375 -0.1582031 0.08203125
vn -0.984375 -0.1582031 0.08203125
vn -0.984375 -0.1582031 0.08203125
vn 0 -0.7070313 0.7070313
vn 0 -0.7070313 0.7070313
vn 0 -0.7070313 0.7070313
vn 0 -0.7070313 0.7070313
vn -0.984375 -0.1582031 -0.08203125
vn -0.984375 -0.1582031 -0.08203125
vn -0.984375 -0.1582031 -0.08203125
vn -0.984375 -0.1582031 -0.08203125
vn 0.984375 -0.1582031 0.08203125
vn 0.984375 -0.1582031 0.08203125
vn 0.984375 -0.1582031 0.08203125
vn 0.984375 -0.1582031 0.08203125
vn 0 -0.7070313 0.7070313
vn 0 -0.7070313 0.7070313
vn 0 -0.7070313 0.7070313
vn 0 -0.7070313 0.7070313
vn 0.984375 -0.1582031 -0.08203125
vn 0.984375 -0.1582031 -0.08203125
vn 0.984375 -0.1582031 -0.08203125
vn 0.984375 -0.1582031 -0.08203125
vn 0 0.9980469 0
vn 0 0.9980469 0
vn 0 0.9980469 0
vn 0 0.9980469 0
vt 0.2382813 -0.9160156
vt 0.01171875 -0.9160156
vt 0.0078125 -0.7539063
vt 0.2421875 -0.7539063
vt 0.01171875 -0.9941406
vt 0.2382813 -0.9160156
vt 0.2421875 -0.7539063
vt 0.0078125 -0.7539063
vt 0.2578125 -0.7539063
vt 0.4921875 -0.7539063
vt 0.4921875 -0.8730469
vt 0.2578125 -0.8710938
vt 0.28125 -0.890625
vt 0.46875 -0.890625
vt 0.46875 -0.984375
vt 0.28125 -0.984375
vt 0.2421875 -0.7539063
vt 0.0078125 -0.7539063
vt 0.01171875 -0.9941406
vt 0.2421875 -0.890625
vt 0.0078125 -0.7539063
vt 0.2421875 -0.7539063
vt 0.2421875 -0.890625
vt 0.01171875 -0.9941406
vt 0.0078125 -0.7539063
vt 0.2421875 -0.7539063
vt 0.2421875 -0.9960938
vt 0.01171875 -0.9941406
vt 0.46875 -0.984375
vt 0.28125 -0.984375
vt 0.28125 -0.890625
vt 0.46875 -0.890625
vt 0.2421875 -0.7539063
vt 0.0078125 -0.7539063
vt 0.01171875 -0.9941406
vt 0.2382813 -0.9160156
vt 0.2421875 -0.7539063
vt 0.0078125 -0.7539063
vt 0.01171875 -0.9160156
vt 0.2382813 -0.9160156
vt 0.0078125 -0.7539063
vt 0.2421875 -0.7539063
vt 0.2382813 -0.9160156
vt 0.01171875 -0.9941406
vt 0.2578125 -0.8710938
vt 0.4921875 -0.8730469
vt 0.4921875 -0.7539063
vt 0.2578125 -0.7539063
vt 0.28125 -0.984375
vt 0.46875 -0.984375
vt 0.46875 -0.890625
vt 0.28125 -0.890625
vt 0.2421875 -0.890625
vt 0.01171875 -0.9941406
vt 0.0078125 -0.7539063
vt 0.2421875 -0.7539063
vt 0.01171875 -0.9941406
vt 0.2421875 -0.890625
vt 0.2421875 -0.7539063
vt 0.0078125 -0.7539063
vt 0.01171875 -0.9941406
vt 0.2421875 -0.9960938
vt 0.2421875 -0.7539063
vt 0.0078125 -0.7539063
vt 0.78125 -0.09375
vt 0.7851563 -0.01757813
vt 0.03515625 -0.01757813
vt 0.03125 -0.09375
vt 0.28125 -0.09375
vt 0.2851563 -0.01757813
vt -0.9960938 -0.01757813
vt -1 -0.09375
vt -1 -0.09375
vt -0.9960938 -0.01757813
vt 0.2851563 -0.01757813
vt 0.28125 -0.09375
vt 0.28125 -0.09375
vt 1.03125 -0.09375
vt 1.03125 -0.59375
vt 0.28125 -0.59375
vt 1.03125 -0.59375
vt 0.28125 -0.59375
vt 0.28125 -0.09375
vt 1.03125 -0.09375
vt 1.28125 -0.09375
vt 0 -0.09375
vt 0 -0.59375
vt 1.28125 -0.59375
vt 1.28125 -0.59375
vt 0 -0.59375
vt 0 -0.09375
vt 1.28125 -0.09375
vt 1.28125 -0.59375
vt 0 -0.59375
vt 0 -0.09375
vt 1.28125 -0.09375
vt 1.28125 -0.09375
vt 0 -0.09375
vt 0 -0.59375
vt 1.28125 -0.59375
vt 0.015625 -0.7441406
vt 0.515625 -0.7441406
vt 0.515625 -0.6640625
vt 0.015625 -0.6640625
vt 0.515625 -0.7441406
vt 0.9804688 -0.7441406
vt 0.9804688 -0.6640625
vt 0.515625 -0.6640625
vt 0.515625 -0.7441406
vt 0.015625 -0.7441406
vt 0.015625 -0.6640625
vt 0.515625 -0.6640625
vt 0.46875 -0.890625
vt 0.28125 -0.890625
vt 0.28125 -0.984375
vt 0.46875 -0.984375
vt 0.2382813 -0.9160156
vt 0.01171875 -0.9941406
vt 0.0078125 -0.7539063
vt 0.2421875 -0.7539063
vt 0.1875 -0.6347656
vt 0.28125 -0.6347656
vt 0.28125 -0.59375
vt 0.1875 -0.59375
vt 0 -0.59375
vt 0 -0.6347656
vt 1 -0.6347656
vt 1 -0.59375
vt 1 -0.59375
vt 0 -0.59375
vt 0 -0.6347656
vt 1 -0.6347656
vt 1 -0.59375
vt 1 -0.6347656
vt 0 -0.6347656
vt 0 -0.59375
vt 1 -0.59375
vt 1 -0.6347656
vt 0 -0.6347656
vt 0 -0.59375
vt 1 -0.6347656
vt 0 -0.6347656
vt 0 -0.59375
vt 1 -0.59375
vt 0 -0.59375
vt 0 -0.6347656
vt 1 -0.6347656
vt 1 -0.59375
vt 0.9804688 -0.9941406
vt 0.9804688 -0.7441406
vt 0.515625 -0.7441406
vt 0.515625 -0.9941406
f 115/115/115 116/116/116 117/117/117 118/118/118
f 119/119/119 120/120/120 121/121/121 122/122/122
f 123/123/123 124/124/124 125/125/125 126/126/126
f 127/127/127 128/128/128 129/129/129 130/130/130
f 131/131/131 132/132/132 133/133/133 134/134/134
f 135/135/135 136/136/136 137/137/137 138/138/138
f 139/139/139 140/140/140 141/141/141 142/142/142
f 143/143/143 144/144/144 145/145/145 146/146/146
f 147/147/147 148/148/148 149/149/149 150/150/150
f 151/151/151 152/152/152 153/153/153 154/154/154
f 155/155/155 156/156/156 157/157/157 158/158/158
f 159/159/159 160/160/160 161/161/161 162/162/162
f 163/163/163 164/164/164 165/165/165 166/166/166
f 167/167/167 168/168/168 169/169/169 170/170/170
f 171/171/171 172/172/172 173/173/173 174/174/174
f 175/175/175 176/176/176 177/177/177 178/178/178
f 179/179/179 180/180/180 181/181/181 182/182/182
f 183/183/183 184/184/184 185/185/185 186/186/186
f 187/187/187 188/188/188 189/189/189 190/190/190
f 191/191/191 192/192/192 193/193/193 194/194/194
f 195/195/195 196/196/196 197/197/197 198/198/198
f 199/199/199 200/200/200 201/201/201 202/202/202
f 203/203/203 204/204/204 205/205/205 206/206/206
f 207/207/207 208/208/208 209/209/209 210/210/210
f 211/211/211 212/212/212 213/213/213 214/214/214
f 215/215/215 216/216/216 217/217/217 218/218/218
f 219/219/219 220/220/220 221/221/221 222/222/222
f 223/223/223 224/224/224 225/225/225 226/226/226
f 227/227/227 228/228/228 229/229/229 230/230/230
f 231/231/231 232/232/232 233/233/233 234/234/234
f 235/235/235 236/236/236 237/237/237 238/238/238
f 239/239/239 240/240/240 241/241/241 242/242/242
f 243/243/243 244/244/244 245/245/245 246/246/246
f 247/247/247 248/248/248 249/249/249 250/250/250
f 251/251/251 252/252/252 253/253/253 254/254/254
f 255/255/255 256/256/256 257/257/257 258/258/258
f 259/259/259 260/260/260 261/261/261 262/262/262
f 263/263/263 264/264/264 265/265/265 266/266/266
v -36 51.29883 -2
v -37 55.7168 1.787109
v -37 55.7168 -5.787109
v 37 55.7168 -5.787109
v 37 55.7168 1.787109
v 36 51.29883 -2
vn -0.9746094 -0.2207031 0
vn -0.9746094 -0.2207031 0
vn -0.9746094 -0.2207031 0
vn 0.9746094 -0.2207031 0
vn 0.9746094 -0.2207031 0
vn 0.9746094 -0.2207031 0
vt 0.65625 -0.6347656
vt 0.59375 -0.59375
vt 0.71875 -0.59375
vt 0.71875 -0.59375
vt 0.59375 -0.59375
vt 0.65625 -0.6347656
f 267/267/267 268/268/268 269/269/269
f 270/270/270 271/271/271 272/272/272
