# Created by MKDS Course Modifier
mtllib Nacrene City Warehouse 1.mtl
g polygon0
usemtl lambert15
v -39 39 18
v 13 39 18
v 13 59.78516 18
v -39 59.78516 18
vn 0 0 0.9980469
vn 0 0 0.9980469
vn 0 0 0.9980469
vn 0 0 0.9980469
vt -2 -1
vt 1 -1
vt 1 0
vt -2 0
f 1/1/1 2/2/2 3/3/3 4/4/4
g polygon1
usemtl lambert14
v -29 2 20
v -29 2 32
v 31.94531 2 20
v 47 2 32
v 31.94531 2 -40
v 47 2 -52
v -29 2 -40
v -48.47656 2 -52
v -29 2 20
v -48.47656 2 20
vn 0 0.9980469 0
vn 0 0.9980469 0
vn 0 0.9980469 0
vn 0 0.9980469 0
vn 0 0.9980469 0
vn 0 0.9980469 0
vn 0 0.9980469 0
vn 0 0.9980469 0
vn 0 0.9980469 0
vn 0 0.9980469 0
vt 0.625 -0.875
vt 0.625 -0.125
vt 0.625 -0.875
vt 0.625 -0.125
vt 0.625 -0.875
vt 0.625 -0.125
vt 0.625 -0.875
vt 0.625 -0.125
vt 0.625 -0.875
vt 0.625 -0.125
f 5/5/5 6/6/6 7/7/7
f 6/6/6 8/8/8 7/7/7
f 7/7/7 8/8/8 9/9/9
f 8/8/8 10/10/10 9/9/9
f 9/9/9 10/10/10 11/11/11
f 10/10/10 12/12/12 11/11/11
f 11/11/11 12/12/12 13/13/13
f 12/12/12 14/14/14 13/13/13
v -29 2 -40
v -29 2 20
v 31.94531 2 20
v 31.94531 2 -40
vn 0 0.9980469 0
vn 0 0.9980469 0
vn 0 0.9980469 0
vn 0 0.9980469 0
vt 0.625 -0.875
vt 0.625 -0.875
vt 0.625 -0.875
vt 0.625 -0.875
f 15/15/15 16/16/16 17/17/17 18/18/18
v -29 2 20
v -48.47656 2 20
v -29 2 32
vn 0 0.9980469 0
vn 0 0.9980469 0
vn 0 0.9980469 0
vt 0.625 -0.875
vt 0.625 -0.125
vt 0.625 -0.125
f 19/19/19 20/20/20 21/21/21
g polygon2
usemtl yane1
v 47.46094 4 -16
v 47.46094 4 -19
v 47.46094 42 -19
v 47.46094 42 -16
v 43.46094 42 -16
v 47.46094 42 -16
v 47.46094 42 -19
v 43.46094 42 -19
v 43.46094 4 -16
v 47.46094 4 -16
v 47.46094 42 -16
v 43.46094 42 -16
v 47.46094 4 -31.5
v 47.46094 4 -34.5
v 47.46094 42 -34.5
v 47.46094 42 -31.5
v 43.46094 42 -31.5
v 47.46094 42 -31.5
v 47.46094 42 -34.5
v 43.46094 42 -34.5
v 43.46094 4 -31.5
v 47.46094 4 -31.5
v 47.46094 42 -31.5
v 43.46094 42 -31.5
v 23 4 -31.5
v 23 4 -34.5
v 23 42 -34.5
v 23 42 -31.5
v 20.46094 42 -31.5
v 23 42 -31.5
v 23 42 -34.5
v 20.46094 42 -34.5
v 20.46094 4 -31.5
v 23 4 -31.5
v 23 42 -31.5
v 20.46094 42 -31.5
v 44 41.17969 -32
v 44 41.17969 -16
v 47 41.17969 -16
v 47 41.17969 -34
v 44 12.17969 15
v 44 4.179688 15
v 47 4.179688 15
v 47 12.17969 15
v 44 31.17969 -32
v 44 41.17969 -32
v 20 41.17969 -32
v 20 31.17969 -32
v 44 41.17969 -16
v 44 41.17969 -32
v 44 31.17969 -32
v 44 31.17969 -16
v 47 41.17969 -16
v 47 31.17969 -16
v 47 31.17969 -34
v 47 41.17969 -34
v 44 41.17969 -32
v 47 41.17969 -34
v 20 41.17969 -34
v 20 41.17969 -32
v 44 31.17969 -16
v 44 4.179688 15
v 44 12.17969 15
v 44 41.17969 -16
v 47 12.17969 15
v 47 4.179688 15
v 47 31.17969 -16
v 47 41.17969 -16
v 44 12.17969 15
v 47 12.17969 15
v 47 41.17969 -16
v 44 41.17969 -16
v 47 28 -16
v 47 28 -35
v 47 32 -35
v 47 32 -16
v 47 32 -16
v 47 32 -35
v 20 32 -35
v 20 32 -16
v 47 4 16
v 47 4 12
v 47 28 -16
v 47 32 -16
v 20 4 16
v 47 4 16
v 47 32 -16
v 20 32 -16
v 19.875 12 15
v 19.875 4 15
v 23 4 15
v 23 12 15
v 23 41 -14
v 23 29 -14
v 23 29 -16
v 23 41 -16
v 19.875 41 -14
v 23 41 -14
v 23 41 -16
v 19.875 41 -16
v 23 12 15
v 23 4 15
v 23 29 -14
v 23 41 -14
v 19.875 12 15
v 23 12 15
v 23 41 -14
v 19.875 41 -14
vn 0.9980469 0 0
vn 0.9980469 0 0
vn 0.9980469 0 0
vn 0.9980469 0 0
vn 0 0.9980469 0
vn 0 0.9980469 0
vn 0 0.9980469 0
vn 0 0.9980469 0
vn 0 0 0.9980469
vn 0 0 0.9980469
vn 0 0 0.9980469
vn 0 0 0.9980469
vn 0.9980469 0 0
vn 0.9980469 0 0
vn 0.9980469 0 0
vn 0.9980469 0 0
vn 0 0.9980469 0
vn 0 0.9980469 0
vn 0 0.9980469 0
vn 0 0.9980469 0
vn 0 0 0.9980469
vn 0 0 0.9980469
vn 0 0 0.9980469
vn 0 0 0.9980469
vn 0.9980469 0 0
vn 0.9980469 0 0
vn 0.9980469 0 0
vn 0.9980469 0 0
vn 0 0.9980469 0
vn 0 0.9980469 0
vn 0 0.9980469 0
vn 0 0.9980469 0
vn 0 0 0.9980469
vn 0 0 0.9980469
vn 0 0 0.9980469
vn 0 0 0.9980469
vn 0 0.9980469 0
vn 0 0.9980469 0
vn 0 0.9980469 0
vn 0 0.9980469 0
vn 0 0 0.9980469
vn 0 0 0.9980469
vn 0 0 0.9980469
vn 0 0 0.9980469
vn 0 0 0.9980469
vn 0 0 0.9980469
vn 0 0 0.9980469
vn 0 0 0.9980469
vn -1 0 0
vn -1 0 0
vn -1 0 0
vn -1 0 0
vn 0.9980469 0 0
vn 0.9980469 0 0
vn 0.9980469 0 0
vn 0.9980469 0 0
vn 0 0.9980469 0
vn 0 0.9980469 0
vn 0 0.9980469 0
vn 0 0.9980469 0
vn -1 0 0
vn -1 0 0
vn -1 0 0
vn -1 0 0
vn 0.9980469 0 0
vn 0.9980469 0 0
vn 0.9980469 0 0
vn 0.9980469 0 0
vn 0 0.7070313 0.7070313
vn 0 0.7070313 0.7070313
vn 0 0.7070313 0.7070313
vn 0 0.7070313 0.7070313
vn 0.9980469 0 0
vn 0.9980469 0 0
vn 0.9980469 0 0
vn 0.9980469 0 0
vn 0 0.9980469 0
vn 0 0.9980469 0
vn 0 0.9980469 0
vn 0 0.9980469 0
vn 0.9980469 0 0
vn 0.9980469 0 0
vn 0.9980469 0 0
vn 0.9980469 0 0
vn 0 0.7070313 0.7070313
vn 0 0.7070313 0.7070313
vn 0 0.7070313 0.7070313
vn 0 0.7070313 0.7070313
vn 0 0 0.9980469
vn 0 0 0.9980469
vn 0 0 0.9980469
vn 0 0 0.9980469
vn 0.9980469 0 0
vn 0.9980469 0 0
vn 0.9980469 0 0
vn 0.9980469 0 0
vn 0 0.9238281 0.3828125
vn 0 0.9238281 0.3828125
vn 0 0.9980469 0
vn 0 0.9980469 0
vn 0.9980469 0 0
vn 0.9980469 0 0
vn 0.9980469 0 0
vn 0.9980469 0 0
vn 0 0.7070313 0.7070313
vn 0 0.7070313 0.7070313
vn 0 0.9238281 0.3828125
vn 0 0.9238281 0.3828125
vt 0.06640625 -0.08007813
vt 0.06640625 -0.1386719
vt 0.08203125 -0.1386719
vt 0.08203125 -0.08007813
vt 0.0234375 -0.08007813
vt 0.0625 -0.08007813
vt 0.0625 -0.04101563
vt 0.0234375 -0.04101563
vt 0.06640625 -0.08007813
vt 0.06640625 -0.1386719
vt 0.08203125 -0.1386719
vt 0.08203125 -0.08007813
vt 0.06640625 -0.08007813
vt 0.06640625 -0.1386719
vt 0.08203125 -0.1386719
vt 0.08203125 -0.08007813
vt 0.0234375 -0.08007813
vt 0.0625 -0.08007813
vt 0.0625 -0.04101563
vt 0.0234375 -0.04101563
vt 0.06640625 -0.08007813
vt 0.06640625 -0.1386719
vt 0.08203125 -0.1386719
vt 0.08203125 -0.08007813
vt 0.06640625 -0.08007813
vt 0.06640625 -0.1386719
vt 0.08203125 -0.1386719
vt 0.08203125 -0.08007813
vt 0.0234375 -0.08007813
vt 0.0625 -0.08007813
vt 0.0625 -0.04101563
vt 0.0234375 -0.04101563
vt 0.06640625 -0.08007813
vt 0.06640625 -0.1386719
vt 0.08203125 -0.1386719
vt 0.08203125 -0.08007813
vt 0.0546875 -0.06835938
vt 0.0546875 -0.09179688
vt 0.0703125 -0.09179688
vt 0.0703125 -0.06835938
vt -0.1679688 -0.1386719
vt -0.140625 -0.1386719
vt -0.140625 -0.109375
vt -0.1679688 -0.109375
vt 0.6679688 -0.5742188
vt 0.8398438 -0.5742188
vt 0.8398438 -0.8632813
vt 0.6679688 -0.8632813
vt 0.8398438 -0.6425781
vt 0.8398438 -0.9160156
vt 0.671875 -0.9160156
vt 0.671875 -0.6425781
vt 0.8359375 -0.6425781
vt 0.6679688 -0.6425781
vt 0.6679688 -1
vt 0.8359375 -1
vt 0.05078125 -0.08789063
vt 0.07421875 -0.08789063
vt 0.07421875 -0.0703125
vt 0.05078125 -0.0703125
vt 0.8359375 -0.3847656
vt 0.8359375 -1
vt 0.65625 -1
vt 0.65625 -0.3847656
vt 0.84375 -1
vt 0.65625 -1
vt 0.65625 -0.3828125
vt 0.84375 -0.3828125
vt 0.0234375 -0.08007813
vt 0.09765625 -0.08007813
vt 0.09765625 -0.06445313
vt 0.0234375 -0.06445313
vt 0.08203125 -0.3652344
vt 0.109375 -0.3652344
vt 0.109375 -0.3359375
vt 0.08203125 -0.3359375
vt 0.4921875 -0.9902344
vt 0.4921875 -0.6308594
vt 0.01171875 -0.6308594
vt 0.01171875 -0.9902344
vt 0.08203125 -0.3378906
vt 0.08203125 -0.3632813
vt 0.109375 -0.3632813
vt 0.109375 -0.3378906
vt 0.01953125 -0.6191406
vt 0.6210938 -0.6191406
vt 0.6210938 -0.09960938
vt 0.01953125 -0.09960938
vt -0.1679688 -0.1386719
vt -0.140625 -0.1386719
vt -0.140625 -0.109375
vt -0.1679688 -0.109375
vt -0.1679688 -0.1386719
vt -0.140625 -0.1386719
vt -0.140625 -0.109375
vt -0.1679688 -0.109375
vt 0.0859375 -0.08398438
vt 0.0234375 -0.08398438
vt 0.0234375 -0.0703125
vt 0.0859375 -0.0703125
vt 0.84375 -1
vt 0.65625 -1
vt 0.65625 -0.3828125
vt 0.84375 -0.3828125
vt 0.0859375 -0.08398438
vt 0.0234375 -0.08398438
vt 0.0234375 -0.0703125
vt 0.0859375 -0.0703125
f 22/22/22 23/23/23 24/24/24 25/25/25
f 26/26/26 27/27/27 28/28/28 29/29/29
f 30/30/30 31/31/31 32/32/32 33/33/33
f 34/34/34 35/35/35 36/36/36 37/37/37
f 38/38/38 39/39/39 40/40/40 41/41/41
f 42/42/42 43/43/43 44/44/44 45/45/45
f 46/46/46 47/47/47 48/48/48 49/49/49
f 50/50/50 51/51/51 52/52/52 53/53/53
f 54/54/54 55/55/55 56/56/56 57/57/57
f 58/58/58 59/59/59 60/60/60 61/61/61
f 62/62/62 63/63/63 64/64/64 65/65/65
f 66/66/66 67/67/67 68/68/68 69/69/69
f 70/70/70 71/71/71 72/72/72 73/73/73
f 74/74/74 75/75/75 76/76/76 77/77/77
f 78/78/78 79/79/79 80/80/80 81/81/81
f 82/82/82 83/83/83 84/84/84 85/85/85
f 86/86/86 87/87/87 88/88/88 89/89/89
f 90/90/90 91/91/91 92/92/92 93/93/93
f 94/94/94 95/95/95 96/96/96 97/97/97
f 98/98/98 99/99/99 100/100/100 101/101/101
f 102/102/102 103/103/103 104/104/104 105/105/105
f 106/106/106 107/107/107 108/108/108 109/109/109
f 110/110/110 111/111/111 112/112/112 113/113/113
f 114/114/114 115/115/115 116/116/116 117/117/117
f 118/118/118 119/119/119 120/120/120 121/121/121
f 122/122/122 123/123/123 124/124/124 125/125/125
f 126/126/126 127/127/127 128/128/128 129/129/129
g polygon3
usemtl lambert13
v -49 40 -49
v -49 38 -49
v -49 40 -32
v -49 38 -32.49219
v -49 40 -16
v -49 38 -15.98828
v -49 40 23
v -49 38 23
vn -1 0 0
vn -1 0 0
vn -1 0 0
vn -1 0 0
vn -1 0 0
vn -1 0 0
vn -1 0 0
vn -1 0 0
vt -3.941406 -0.4716797
vt -3.941406 -0.4892578
vt -3.941406 -0.4716797
vt -3.941406 -0.4892578
vt -3.941406 -0.4716797
vt -3.941406 -0.4892578
vt -3.941406 -0.4716797
vt -3.941406 -0.4892578
f 130/130/130 131/131/131 132/132/132
f 131/131/131 133/133/133 132/132/132
f 132/132/132 133/133/133 134/134/134
f 133/133/133 135/135/135 134/134/134
f 134/134/134 135/135/135 136/136/136
f 135/135/135 137/137/137 136/136/136
v 22 40 -49
v -49 40 -49
v 19.03906 40 -32
v -49 40 -32
v 19.03906 40 -16
v -49 40 -16
v 22 40 23
v -49 40 23
vn 0 0.9980469 0
vn 0 0.9980469 0
vn 0 0.9980469 0
vn 0 0.9980469 0
vn 0 0.9980469 0
vn 0 0.9980469 0
vn 0 0.9980469 0
vn 0 0.9980469 0
vt -3.894531 -0.5664063
vt -3.992188 -0.5664063
vt -3.898438 -0.5722656
vt -3.992188 -0.5722656
vt -3.898438 -0.5771484
vt -3.992188 -0.5771484
vt -3.894531 -0.5898438
vt -3.992188 -0.5898438
f 138/138/138 139/139/139 140/140/140
f 139/139/139 141/141/141 140/140/140
f 140/140/140 141/141/141 142/142/142
f 141/141/141 143/143/143 142/142/142
f 142/142/142 143/143/143 144/144/144
f 143/143/143 145/145/145 144/144/144
v 21 59.5 22.00781
v 21 55.10938 22.00781
v 21 59.5 18
v 21 55.10938 18
v 21 59.5 -46
v 21 55.10938 -46
v 21 59.5 -50
v 21 55.10938 -50
vn 0.9980469 0 0
vn 0.9980469 0 0
vn 0.9980469 0 0
vn 0.9980469 0 0
vn 0.9980469 0 0
vn 0.9980469 0 0
vn 0.9980469 0 0
vn 0.9980469 0 0
vt -9.539063 -0.2421875
vt -9.539063 -0.3203125
vt -9.484375 -0.2421875
vt -9.484375 -0.3203125
vt -8.59375 -0.2421875
vt -8.59375 -0.3203125
vt -8.539063 -0.2421875
vt -8.539063 -0.3203125
f 146/146/146 147/147/147 148/148/148
f 147/147/147 149/149/149 148/148/148
f 148/148/148 149/149/149 150/150/150
f 149/149/149 151/151/151 150/150/150
f 150/150/150 151/151/151 152/152/152
f 151/151/151 153/153/153 152/152/152
v -48 54.10938 22.00781
v -48 58.5 22.00781
v -48 54.10938 18
v -48 58.5 18
v -48 54.10938 -46
v -48 58.5 -46
v -48 54.10938 -50
v -48 58.5 -50
vn -1 0 0
vn -1 0 0
vn -1 0 0
vn -1 0 0
vn -1 0 0
vn -1 0 0
vn -1 0 0
vn -1 0 0
vt -9.539063 -0.3203125
vt -9.539063 -0.2421875
vt -9.484375 -0.3203125
vt -9.484375 -0.2421875
vt -8.59375 -0.3203125
vt -8.59375 -0.2421875
vt -8.539063 -0.3203125
vt -8.539063 -0.2421875
f 154/154/154 155/155/155 156/156/156
f 155/155/155 157/157/157 156/156/156
f 156/156/156 157/157/157 158/158/158
f 157/157/157 159/159/159 158/158/158
f 158/158/158 159/159/159 160/160/160
f 159/159/159 161/161/161 160/160/160
v 21 59.5 18
v 21 59.5 -46
v -14 70.83594 18
v -14 70.83594 -46
v -48 58.5 18
v -48 58.5 -46
vn 0.3085938 0.9511719 0
vn 0.3085938 0.9511719 0
vn 0 0.9980469 0
vn 0 0.9980469 0
vn -0.3417969 0.9394531 0
vn -0.3417969 0.9394531 0
vt 5.605469 -0.1464844
vt 5.605469 0.1513672
vt 2.953125 -0.1464844
vt 2.953125 0.1513672
vt 5.605469 -0.1464844
vt 5.605469 0.1513672
f 162/162/162 163/163/163 164/164/164
f 163/163/163 165/165/165 164/164/164
f 164/164/164 165/165/165 166/166/166
f 165/165/165 167/167/167 166/166/166
v 21 59.5 22.00781
v 21 59.5 18
v -14 70.83594 22.00781
v -14 70.83594 18
v -48 58.5 22.00781
v -48 58.5 18
vn 0.3085938 0.9511719 0
vn 0.3085938 0.9511719 0
vn 0 0.9980469 0
vn 0 0.9980469 0
vn -0.3417969 0.9394531 0
vn -0.3417969 0.9394531 0
vt 6.976563 -0.2460938
vt 6.976563 -0.1601563
vt 6.027344 -0.2460938
vt 6.027344 -0.1601563
vt 6.976563 -0.2460938
vt 6.976563 -0.1601563
f 168/168/168 169/169/169 170/170/170
f 169/169/169 171/171/171 170/170/170
f 170/170/170 171/171/171 172/172/172
f 171/171/171 173/173/173 172/172/172
v 21 59.5 -46
v 21 59.5 -50
v -14 70.83594 -46
v -14 70.83594 -50
v -48 58.5 -46
v -48 58.5 -50
vn 0.3085938 0.9511719 0
vn 0.3085938 0.9511719 0
vn 0 0.9980469 0
vn 0 0.9980469 0
vn -0.3417969 0.9394531 0
vn -0.3417969 0.9394531 0
vt 6.976563 -0.2460938
vt 6.976563 -0.1601563
vt 6.027344 -0.2460938
vt 6.027344 -0.1601563
vt 6.976563 -0.2460938
vt 6.976563 -0.1601563
f 174/174/174 175/175/175 176/176/176
f 175/175/175 177/177/177 176/176/176
f 176/176/176 177/177/177 178/178/178
f 177/177/177 179/179/179 178/178/178
v 21 55.10938 22.00781
v 21 59.5 22.00781
v -14 66.44141 22.00781
v -14 70.83594 22.00781
v -48 54.10938 22.00781
v -48 58.5 22.00781
vn 0 0 0.9980469
vn 0 0 0.9980469
vn 0 0 0.9980469
vn 0 0 0.9980469
vn 0 0 0.9980469
vn 0 0 0.9980469
vt 2.03125 -0.3212891
vt 2.03125 -0.2392578
vt 2.6875 -0.3212891
vt 2.6875 -0.2392578
vt 2.03125 -0.3212891
vt 2.03125 -0.2392578
f 180/180/180 181/181/181 182/182/182
f 181/181/181 183/183/183 182/182/182
f 182/182/182 183/183/183 184/184/184
f 183/183/183 185/185/185 184/184/184
v 22 40 -32
v 22 38 -32
v 22 38 -49
v 22 40 -49
v 22 38 23
v 22 38 -16
v 22 40 -16
v 22 40 23
v 22 40 23
v -49 40 23
v -49 38 23
v 22 38 23
v -33 33 21.00781
v -33 33 26.5625
v -33 35.09375 26.5625
v -33 38.09375 21.00781
v 8 33 26.5625
v 8 33 21.00781
v 8 38.09375 21.00781
v 8 35.09375 26.5625
v -33 38.09375 21.00781
v 8 38.09375 21.00781
v 8 33 21.00781
v -33 33 21.00781
v -33 35.09375 26.5625
v 8 35.09375 26.5625
v 8 38.09375 21.00781
v -33 38.09375 21.00781
v -33 33 26.5625
v 8 33 26.5625
v 8 35.09375 26.5625
v -33 35.09375 26.5625
vn 0.9980469 0 0
vn 0.9980469 0 0
vn 0.9980469 0 0
vn 0.9980469 0 0
vn 0.9980469 0 0
vn 0.9980469 0 0
vn 0.9980469 0 0
vn 0.9980469 0 0
vn 0 0 0.9980469
vn 0 0 0.9980469
vn 0 0 0.9980469
vn 0 0 0.9980469
vn -1 0 0
vn -1 0 0
vn -1 0 0
vn -1 0 0
vn 0.9980469 0 0
vn 0.9980469 0 0
vn 0.9980469 0 0
vn 0.9980469 0 0
vn 0 0 -1
vn 0 0 -1
vn 0 0 -1
vn 0 0 -1
vn 0 0.8789063 0.4746094
vn 0 0.8789063 0.4746094
vn 0 0.8789063 0.4746094
vn 0 0.8789063 0.4746094
vn 0 0 0.9980469
vn 0 0 0.9980469
vn 0 0 0.9980469
vn 0 0 0.9980469
vt -3.941406 -0.4716797
vt -3.941406 -0.4892578
vt -3.941406 -0.4892578
vt -3.941406 -0.4716797
vt -3.941406 -0.4892578
vt -3.941406 -0.4892578
vt -3.941406 -0.4716797
vt -3.941406 -0.4716797
vt -3.996094 -0.4472656
vt -3.878906 -0.4472656
vt -3.878906 -0.4775391
vt -3.996094 -0.4775391
vt -5.164063 0.4628906
vt -5.164063 0.3896484
vt -5.230469 0.3896484
vt -5.289063 0.4628906
vt -5.164063 0.3896484
vt -5.164063 0.4619141
vt -5.289063 0.4619141
vt -5.230469 0.3896484
vt 0.796875 -0.1318359
vt 0.9453125 -0.1318359
vt 0.9453125 0.002929688
vt 0.796875 0.002929688
vt -7.84375 -0.6601563
vt -7.84375 -0.3388672
vt -7.03125 -0.3388672
vt -7.03125 -0.6601563
vt -10.96484 -0.2783203
vt -9.964844 -0.2783203
vt -9.964844 -0.2460938
vt -10.96484 -0.2460938
f 186/186/186 187/187/187 188/188/188 189/189/189
f 190/190/190 191/191/191 192/192/192 193/193/193
f 194/194/194 195/195/195 196/196/196 197/197/197
f 198/198/198 199/199/199 200/200/200 201/201/201
f 202/202/202 203/203/203 204/204/204 205/205/205
f 206/206/206 207/207/207 208/208/208 209/209/209
f 210/210/210 211/211/211 212/212/212 213/213/213
f 214/214/214 215/215/215 216/216/216 217/217/217
v 22 40 -49
v 19.03906 40 -32
v 22 40 -32
v 19.03906 40 -16
v 22 40 23
v 22 40 -16
vn 0 0.9980469 0
vn 0 0.9980469 0
vn 0 0.9980469 0
vn 0 0.9980469 0
vn 0 0.9980469 0
vn 0 0.9980469 0
vt -3.894531 -0.5664063
vt -3.898438 -0.5722656
vt -3.894531 -0.5722656
vt -3.898438 -0.5771484
vt -3.894531 -0.5898438
vt -3.894531 -0.5771484
f 218/218/218 219/219/219 220/220/220
f 221/221/221 222/222/222 223/223/223
g polygon4
usemtl souko
v -47 39 20.00781
v -47 48 20.00781
v -47 39 -13.99609
v -47 48 -13.99609
v -47 39 -48.00391
v -47 48 -48
vn -1 0 0
vn -1 0 0
vn -1 0 0
vn -1 0 0
vn -1 0 0
vn -1 0 0
vt 0.4082031 -0.5429688
vt 0.5048828 -0.5429688
vt 0.4082031 -0.6015625
vt 0.5048828 -0.6015625
vt 0.4082031 -0.6601563
vt 0.5048828 -0.6601563
f 224/224/224 225/225/225 226/226/226
f 225/225/225 227/227/227 226/226/226
f 226/226/226 227/227/227 228/228/228
f 227/227/227 229/229/229 228/228/228
v -47 48 20.00781
v -47 58 20.00781
v -47 48 -13.99609
v -47 58 -13.99609
v -47 48 -48
v -47 58 -48
vn -1 0 0
vn -1 0 0
vn -1 0 0
vn -1 0 0
vn -1 0 0
vn -1 0 0
vt 0.5664063 -0.9941406
vt 0.9931641 -0.9882813
vt 0.5664063 -0.984375
vt 0.9931641 -0.984375
vt 0.5664063 -0.9726563
vt 0.9931641 -0.9785156
f 230/230/230 231/231/231 232/232/232
f 231/231/231 233/233/233 232/232/232
f 232/232/232 233/233/233 234/234/234
f 233/233/233 235/235/235 234/234/234
v -47 39 20.00781
v -29 33 20.00781
v -14 39 20.00391
v 4 33 20.00781
vn 0 0 0.9980469
vn 0 0 0.9980469
vn 0 0 0.9980469
vn 0 0 0.9980469
vt 0.2333984 -0.4472656
vt 0.2480469 -0.4628906
vt 0.3046875 -0.4160156
vt 0.3662109 -0.4628906
f 236/236/236 237/237/237 238/238/238
f 237/237/237 239/239/239 238/238/238
v -24 4 17.99609
v -24 4 15.37109
v -24 33 15.37109
v -24 33 17.99609
v -29.54688 4 17.99609
v -24 4 17.99609
v -24 33 17.99609
v -29.54688 33 17.99609
v -8 4 15.37109
v -8 4 18.00391
v -8 33 18.00391
v -8 33 15.37109
v -8 4 18.00391
v 8 4 18.00391
v 8 33 18.00391
v -8 33 18.00391
v 20 30 -12.00391
v 20 39 20.00781
v 20 4 20.00781
v 20 4 -12
v 20 4 20.00781
v 20 39 20.00781
v 4 33 20.00781
v 4 4 20.00781
v 20 39 -48.00391
v 20 30 -34
v 20 4 -34
v 20 4 -48
v 20 30 -34
v 20 30 -12.00391
v 20 4 -12
v 20 4 -34
v 20 39 -34.00391
v 20 39 -12
v 20 30 -12.00391
v 20 30 -34
v -47 4 20.00781
v -29 4 20.00781
v -29 33 20.00781
v -47 39 20.00781
v 4 4 20.00781
v 4 33 20.00781
v 4 33 4.007813
v 4 4 4.007813
v -29 4 20.00781
v 4 4 20.00781
v 4 4 4.007813
v -29 4 4.007813
v -29 33 20.00781
v -29 4 20.00781
v -29 4 4.007813
v -29 33 4.007813
v 4 33 4.007813
v -29 33 4.007813
v -29 4 4.007813
v 4 4 4.007813
v -47 39 -48.00391
v -47 4 -48
v -47 4 -13.99609
v -47 39 -13.99609
v -47 39 -13.99609
v -47 4 -13.99609
v -47 4 20.00781
v -47 39 20.00781
v 20 48 -12
v 20 58 -12
v 20 58 20.00781
v 20 48 20.00781
v 20 39 -12
v 20 39 -34.00391
v 20 48 -34
v 20 48 -12
v 20 48 -12
v 20 48 -34
v 20 58 -34
v 20 58 -12
v 20 39 20.00781
v 20 39 -12
v 20 48 -12
v 20 48 20.00781
v 20 39 -34.00391
v 20 39 -48.00391
v 20 48 -48
v 20 48 -34
v -47 39 20.00781
v -14 39 20.00391
v -14 60 20.00781
v -47 48 20.00781
v -14 60 20.00781
v -14 69 20.00781
v -47 58 20.00781
v -47 48 20.00781
v -14 39 20.00391
v 20 39 20.00781
v 20 48 20.00781
v -14 60 20.00781
v -14 60 20.00781
v 20 48 20.00781
v 20 58 20.00781
v -14 69 20.00781
v 20 48 -34
v 20 48 -48
v 20 58 -48
v 20 58 -34
vn 0.9980469 0 0
vn 0.9980469 0 0
vn 0.9980469 0 0
vn 0.9980469 0 0
vn 0 0 0.9980469
vn 0 0 0.9980469
vn 0 0 0.9980469
vn 0 0 0.9980469
vn -1 0 0
vn -1 0 0
vn -1 0 0
vn -1 0 0
vn 0 0 0.9980469
vn 0 0 0.9980469
vn 0 0 0.9980469
vn 0 0 0.9980469
vn 0.9980469 0 0
vn 0.9980469 0 0
vn 0.9980469 0 0
vn 0.9980469 0 0
vn 0 0 0.9980469
vn 0 0 0.9980469
vn 0 0 0.9980469
vn 0 0 0.9980469
vn 0.9980469 0 0
vn 0.9980469 0 0
vn 0.9980469 0 0
vn 0.9980469 0 0
vn 0.9980469 0 0
vn 0.9980469 0 0
vn 0.9980469 0 0
vn 0.9980469 0 0
vn 0.9980469 0 0
vn 0.9980469 0 0
vn 0.9980469 0 0
vn 0.9980469 0 0
vn 0 0 0.9980469
vn 0 0 0.9980469
vn 0 0 0.9980469
vn 0 0 0.9980469
vn -1 0 0
vn -1 0 0
vn -1 0 0
vn -1 0 0
vn 0 0.9980469 0
vn 0 0.9980469 0
vn 0 0.9980469 0
vn 0 0.9980469 0
vn 0.9980469 0 0
vn 0.9980469 0 0
vn 0.9980469 0 0
vn 0.9980469 0 0
vn 0 0 0.9980469
vn 0 0 0.9980469
vn 0 0 0.9980469
vn 0 0 0.9980469
vn -1 0 0
vn -1 0 0
vn -1 0 0
vn -1 0 0
vn -1 0 0
vn -1 0 0
vn -1 0 0
vn -1 0 0
vn 0.9980469 0 0
vn 0.9980469 0 0
vn 0.9980469 0 0
vn 0.9980469 0 0
vn 0.9980469 0 0
vn 0.9980469 0 0
vn 0.9980469 0 0
vn 0.9980469 0 0
vn 0.9980469 0 0
vn 0.9980469 0 0
vn 0.9980469 0 0
vn 0.9980469 0 0
vn 0.9980469 0 0
vn 0.9980469 0 0
vn 0.9980469 0 0
vn 0.9980469 0 0
vn 0.9980469 0 0
vn 0.9980469 0 0
vn 0.9980469 0 0
vn 0.9980469 0 0
vn 0 0 0.9980469
vn 0 0 0.9980469
vn 0 0 0.9980469
vn 0 0 0.9980469
vn 0 0 0.9980469
vn 0 0 0.9980469
vn 0 0 0.9980469
vn 0 0 0.9980469
vn 0 0 0.9980469
vn 0 0 0.9980469
vn 0 0 0.9980469
vn 0 0 0.9980469
vn 0 0 0.9980469
vn 0 0 0.9980469
vn 0 0 0.9980469
vn 0 0 0.9980469
vn 0.9980469 0 0
vn 0.9980469 0 0
vn 0.9980469 0 0
vn 0.9980469 0 0
vt 0.07128906 -0.9472656
vt 0.0859375 -0.9472656
vt 0.0859375 -0.921875
vt 0.07128906 -0.921875
vt 0.08300781 -0.6503906
vt 0.1552734 -0.6503906
vt 0.1552734 -0.001953125
vt 0.08300781 -0.001953125
vt 0.07128906 -0.9472656
vt 0.0859375 -0.9472656
vt 0.0859375 -0.921875
vt 0.07128906 -0.921875
vt 0.004882813 -0.6503906
vt 0.1552734 -0.6503906
vt 0.1552734 -0.001953125
vt 0.004882813 -0.001953125
vt -5.617188 -0.5175781
vt -5.477539 -0.3808594
vt -5.477539 -0.9628906
vt -5.617188 -0.9628906
vt 0.2216797 -0.9941406
vt 0.2216797 -0.375
vt 0.3525391 -0.4746094
vt 0.3525391 -0.9941406
vt -4.507813 -0.3808594
vt -4.584961 -0.5195313
vt -4.584961 -0.9628906
vt -4.507813 -0.9628906
vt -6.594727 -0.5195313
vt -6.484375 -0.5195313
vt -6.484375 -0.9628906
vt -6.594727 -0.9628906
vt -1.519531 -0.078125
vt -1.433594 -0.078125
vt -1.433594 -0.1796875
vt -1.519531 -0.1796875
vt 0.2226563 -0.9921875
vt 0.3564453 -0.9921875
vt 0.3564453 -0.4746094
vt 0.2226563 -0.3789063
vt 0.0078125 -0.9472656
vt 0.02148438 -0.9472656
vt 0.02148438 -0.9199219
vt 0.0078125 -0.9199219
vt -0.5224609 -0.1855469
vt -0.4316406 -0.1855469
vt -0.4316406 -0.0625
vt -0.5224609 -0.0625
vt 0.0078125 -0.9472656
vt 0.02148438 -0.9472656
vt 0.02148438 -0.9199219
vt 0.0078125 -0.9199219
vt 0.0078125 -0.9472656
vt 0.02148438 -0.9472656
vt 0.02148438 -0.9199219
vt 0.0078125 -0.9199219
vt -2.609375 -0.3808594
vt -2.609375 -0.9628906
vt -2.480469 -0.9628906
vt -2.480469 -0.3808594
vt -1.610352 -0.3808594
vt -1.610352 -0.9628906
vt -1.480469 -0.9628906
vt -1.480469 -0.3808594
vt 0.5615234 -0.9921875
vt 0.9902344 -0.9921875
vt 0.9902344 -0.9765625
vt 0.5615234 -0.9765625
vt 0.328125 -0.2480469
vt 0.2421875 -0.2480469
vt 0.2421875 -0.2246094
vt 0.328125 -0.2246094
vt 0.328125 -0.2480469
vt 0.2421875 -0.2480469
vt 0.2421875 -0.1523438
vt 0.328125 -0.1523438
vt 0.4082031 -0.6601563
vt 0.4082031 -0.5878906
vt 0.5048828 -0.5878906
vt 0.5048828 -0.6601563
vt 0.4082031 -0.5664063
vt 0.4082031 -0.5429688
vt 0.5048828 -0.5429688
vt 0.5048828 -0.5664063
vt 0.5322266 -0.9179688
vt 0.9960938 -0.9179688
vt 0.9960938 -0.0078125
vt 0.5322266 -0.5292969
vt 0.5488281 -0.9980469
vt 0.9970703 -0.9980469
vt 0.9970703 -0.9746094
vt 0.5488281 -0.9746094
vt 0.9970703 -0.9199219
vt 0.5351563 -0.9199219
vt 0.5351563 -0.53125
vt 0.9970703 -0.0078125
vt 0.5576172 -0.9726563
vt 0.5576172 -0.9941406
vt 0.9931641 -0.9941406
vt 0.9931641 -0.9726563
vt 0.5644531 -0.9902344
vt 0.5644531 -0.9941406
vt 0.9931641 -0.9882813
vt 0.9931641 -0.9863281
f 240/240/240 241/241/241 242/242/242 243/243/243
f 244/244/244 245/245/245 246/246/246 247/247/247
f 248/248/248 249/249/249 250/250/250 251/251/251
f 252/252/252 253/253/253 254/254/254 255/255/255
f 256/256/256 257/257/257 258/258/258 259/259/259
f 260/260/260 261/261/261 262/262/262 263/263/263
f 264/264/264 265/265/265 266/266/266 267/267/267
f 268/268/268 269/269/269 270/270/270 271/271/271
f 272/272/272 273/273/273 274/274/274 275/275/275
f 276/276/276 277/277/277 278/278/278 279/279/279
f 280/280/280 281/281/281 282/282/282 283/283/283
f 284/284/284 285/285/285 286/286/286 287/287/287
f 288/288/288 289/289/289 290/290/290 291/291/291
f 292/292/292 293/293/293 294/294/294 295/295/295
f 296/296/296 297/297/297 298/298/298 299/299/299
f 300/300/300 301/301/301 302/302/302 303/303/303
f 304/304/304 305/305/305 306/306/306 307/307/307
f 308/308/308 309/309/309 310/310/310 311/311/311
f 312/312/312 313/313/313 314/314/314 315/315/315
f 316/316/316 317/317/317 318/318/318 319/319/319
f 320/320/320 321/321/321 322/322/322 323/323/323
f 324/324/324 325/325/325 326/326/326 327/327/327
f 328/328/328 329/329/329 330/330/330 331/331/331
f 332/332/332 333/333/333 334/334/334 335/335/335
f 336/336/336 337/337/337 338/338/338 339/339/339
f 340/340/340 341/341/341 342/342/342 343/343/343
v 20 30 -12.00391
v 20 39 -12
v 20 39 20.00781
v 20 39 20.00781
v -14 39 20.00391
v 4 33 20.00781
v 20 39 -48.00391
v 20 39 -34.00391
v 20 30 -34
vn 0.9980469 0 0
vn 0.9980469 0 0
vn 0.9980469 0 0
vn 0 0 0.9980469
vn 0 0 0.9980469
vn 0 0 0.9980469
vn 0.9980469 0 0
vn 0.9980469 0 0
vn 0.9980469 0 0
vt -0.4873047 -0.4941406
vt -0.4873047 -0.4257813
vt -0.6044922 -0.4257813
vt 0.2314453 -0.4609375
vt 0.3046875 -0.4160156
vt 0.2695313 -0.4492188
vt -0.4873047 -0.40625
vt -0.578125 -0.40625
vt -0.6044922 -0.5039063
f 344/344/344 345/345/345 346/346/346
f 347/347/347 348/348/348 349/349/349
f 350/350/350 351/351/351 352/352/352
g polygon5
usemtl lambert13
v -12.04688 72.99927 -34.38672
v -12.04688 77.97192 -34.38672
v -10.08984 72.99927 -31
v -10.08984 77.97192 -31
v -12.04688 72.99927 -27.61328
v -12.04688 77.97192 -27.61328
v -15.95313 72.99927 -27.61328
v -15.95313 77.97192 -27.61328
v -17.91016 72.99927 -31
v -17.91016 77.97192 -31
v -15.95313 72.99927 -34.38672
v -15.95313 77.97192 -34.38672
v -12.04688 72.99927 -34.38672
v -12.04688 77.97192 -34.38672
vn 0.5 0 -0.8652344
vn 0.5 0 -0.8652344
vn 0.9980469 0 0
vn 0.9980469 0 0
vn 0.5 0 0.8652344
vn 0.5 0 0.8652344
vn -0.5 0 0.8652344
vn -0.5 0 0.8652344
vn -1 0 0
vn -1 0 0
vn -0.5 0 -0.8652344
vn -0.5 0 -0.8652344
vn 0.5 0 -0.8652344
vn 0.5 0 -0.8652344
vt 3.496094 -0.2548828
vt 3.496094 0
vt 3 -0.2548828
vt 3 0
vt 3.496094 -0.2548828
vt 3.496094 0
vt 3 -0.2548828
vt 3 0
vt 3.496094 -0.2548828
vt 3.496094 0
vt 3 -0.2548828
vt 3 0
vt 3.496094 -0.2548828
vt 3.496094 0
f 353/353/353 354/354/354 355/355/355
f 354/354/354 356/356/356 355/355/355
f 355/355/355 356/356/356 357/357/357
f 356/356/356 358/358/358 357/357/357
f 357/357/357 358/358/358 359/359/359
f 358/358/358 360/360/360 359/359/359
f 359/359/359 360/360/360 361/361/361
f 360/360/360 362/362/362 361/361/361
f 361/361/361 362/362/362 363/363/363
f 362/362/362 364/364/364 363/363/363
f 363/363/363 364/364/364 365/365/365
f 364/364/364 366/366/366 365/365/365
v -10.08984 77.97192 -31
v -12.04688 77.97192 -34.38672
v -14 79.49146 -31
v -15.95313 77.97192 -34.38672
v -17.91016 77.97192 -31
vn 0.3613281 0.9316406 0
vn 0.1816406 0.9316406 -0.3125
vn 0 0.9980469 0
vn -0.1816406 0.9316406 -0.3125
vn -0.3417969 0.9394531 0
vt 5.933594 -0.2275391
vt 5.933594 -0.1777344
vt 4.523438 -0.2050781
vt 5.933594 -0.2275391
vt 5.933594 -0.1777344
f 367/367/367 368/368/368 369/369/369
f 368/368/368 370/370/370 369/369/369
f 369/369/369 370/370/370 371/371/371
v -10.08984 77.97192 -31
v -14 79.49146 -31
v -12.04688 77.97192 -27.61328
v -15.95313 77.97192 -27.61328
vn 0.3613281 0.9316406 0
vn 0 0.9980469 0
vn 0.1816406 0.9316406 0.3125
vn -0.1816406 0.9316406 0.3125
vt 5.933594 -0.2275391
vt 4.523438 -0.2050781
vt 5.933594 -0.1777344
vt 5.933594 -0.2275391
f 372/372/372 373/373/373 374/374/374
f 373/373/373 375/375/375 374/374/374
v -17.91016 77.97192 -31
v -15.95313 77.97192 -27.61328
v -14 79.49146 -31
vn -0.3417969 0.9394531 0
vn -0.1816406 0.9316406 0.3125
vn 0 0.9980469 0
vt 5.933594 -0.1777344
vt 5.933594 -0.2275391
vt 4.523438 -0.2050781
f 376/376/376 377/377/377 378/378/378
g polygon6
usemtl lambert13
v -14 69.20703 -33.79297
v -16.41797 69.20703 -32.39453
v -16.41797 73 -32.39453
v -14 73 -33.79297
v -11.58203 69.20703 -32.39453
v -14 69.20703 -33.79297
v -14 73 -33.79297
v -11.58203 73 -32.39453
v -11.58203 69.20703 -29.60547
v -11.58203 69.20703 -32.39453
v -11.58203 73 -32.39453
v -11.58203 73 -29.60547
v -14 69.20703 -28.20703
v -11.58203 69.20703 -29.60547
v -11.58203 73 -29.60547
v -14 73 -28.20703
v -16.41797 69.20703 -29.60547
v -14 69.20703 -28.20703
v -14 73 -28.20703
v -16.41797 73 -29.60547
v -16.41797 69.20703 -32.39453
v -16.41797 69.20703 -29.60547
v -16.41797 73 -29.60547
v -16.41797 73 -32.39453
vn 0.8652344 0 -0.5
vn 0.8652344 0 -0.5
vn 0.8652344 0 -0.5
vn 0.8652344 0 -0.5
vn 0.8652344 0 0.5
vn 0.8652344 0 0.5
vn 0.8652344 0 0.5
vn 0.8652344 0 0.5
vn 0 0 0.9980469
vn 0 0 0.9980469
vn 0 0 0.9980469
vn 0 0 0.9980469
vn -0.8652344 0 0.5
vn -0.8652344 0 0.5
vn -0.8652344 0 0.5
vn -0.8652344 0 0.5
vn -0.8652344 0 -0.5
vn -0.8652344 0 -0.5
vn -0.8652344 0 -0.5
vn -0.8652344 0 -0.5
vn 0 0 -1
vn 0 0 -1
vn 0 0 -1
vn 0 0 -1
vt -4.980469 -0.3701172
vt -4.886719 -0.3701172
vt -4.886719 -0.3291016
vt -4.980469 -0.3291016
vt -4.886719 -0.3701172
vt -4.980469 -0.3701172
vt -4.980469 -0.3291016
vt -4.886719 -0.3291016
vt -4.886719 -0.3701172
vt -4.886719 -0.3701172
vt -4.886719 -0.3291016
vt -4.886719 -0.3291016
vt -4.980469 -0.3701172
vt -4.886719 -0.3701172
vt -4.886719 -0.3291016
vt -4.980469 -0.3291016
vt -4.886719 -0.3701172
vt -4.980469 -0.3701172
vt -4.980469 -0.3291016
vt -4.886719 -0.3291016
vt -4.886719 -0.3701172
vt -4.886719 -0.3701172
vt -4.886719 -0.3291016
vt -4.886719 -0.3291016
f 379/379/379 380/380/380 381/381/381 382/382/382
f 383/383/383 384/384/384 385/385/385 386/386/386
f 387/387/387 388/388/388 389/389/389 390/390/390
f 391/391/391 392/392/392 393/393/393 394/394/394
f 395/395/395 396/396/396 397/397/397 398/398/398
f 399/399/399 400/400/400 401/401/401 402/402/402
g polygon7
usemtl lambert13
v -12.04688 72.99927 -1.386719
v -12.04688 77.97192 -1.386719
v -10.08984 72.99927 2
v -10.08984 77.97192 2
v -12.04688 72.99927 5.386719
v -12.04688 77.97192 5.386719
v -15.95313 72.99927 5.386719
v -15.95313 77.97192 5.386719
v -17.91016 72.99927 2
v -17.91016 77.97192 2
v -15.95313 72.99927 -1.386719
v -15.95313 77.97192 -1.386719
v -12.04688 72.99927 -1.386719
v -12.04688 77.97192 -1.386719
vn 0.5 0 -0.8652344
vn 0.5 0 -0.8652344
vn 0.9980469 0 0
vn 0.9980469 0 0
vn 0.5 0 0.8652344
vn 0.5 0 0.8652344
vn -0.5 0 0.8652344
vn -0.5 0 0.8652344
vn -1 0 0
vn -1 0 0
vn -0.5 0 -0.8652344
vn -0.5 0 -0.8652344
vn 0.5 0 -0.8652344
vn 0.5 0 -0.8652344
vt 3.496094 -0.2548828
vt 3.496094 0
vt 3 -0.2548828
vt 3 0
vt 3.496094 -0.2548828
vt 3.496094 0
vt 3 -0.2548828
vt 3 0
vt 3.496094 -0.2548828
vt 3.496094 0
vt 3 -0.2548828
vt 3 0
vt 3.496094 -0.2548828
vt 3.496094 0
f 403/403/403 404/404/404 405/405/405
f 404/404/404 406/406/406 405/405/405
f 405/405/405 406/406/406 407/407/407
f 406/406/406 408/408/408 407/407/407
f 407/407/407 408/408/408 409/409/409
f 408/408/408 410/410/410 409/409/409
f 409/409/409 410/410/410 411/411/411
f 410/410/410 412/412/412 411/411/411
f 411/411/411 412/412/412 413/413/413
f 412/412/412 414/414/414 413/413/413
f 413/413/413 414/414/414 415/415/415
f 414/414/414 416/416/416 415/415/415
v -10.08984 77.97192 2
v -12.04688 77.97192 -1.386719
v -14 79.49146 2
v -15.95313 77.97192 -1.386719
v -17.91016 77.97192 2
vn 0.3613281 0.9316406 0
vn 0.1816406 0.9316406 -0.3125
vn 0 0.9980469 0
vn -0.1816406 0.9316406 -0.3125
vn -0.3417969 0.9394531 0
vt 5.933594 -0.2275391
vt 5.933594 -0.1777344
vt 4.523438 -0.2050781
vt 5.933594 -0.2275391
vt 5.933594 -0.1777344
f 417/417/417 418/418/418 419/419/419
f 418/418/418 420/420/420 419/419/419
f 419/419/419 420/420/420 421/421/421
v -10.08984 77.97192 2
v -14 79.49146 2
v -12.04688 77.97192 5.386719
v -15.95313 77.97192 5.386719
vn 0.3613281 0.9316406 0
vn 0 0.9980469 0
vn 0.1816406 0.9316406 0.3125
vn -0.1816406 0.9316406 0.3125
vt 5.933594 -0.2275391
vt 4.523438 -0.2050781
vt 5.933594 -0.1777344
vt 5.933594 -0.2275391
f 422/422/422 423/423/423 424/424/424
f 423/423/423 425/425/425 424/424/424
v -17.91016 77.97192 2
v -15.95313 77.97192 5.386719
v -14 79.49146 2
vn -0.3417969 0.9394531 0
vn -0.1816406 0.9316406 0.3125
vn 0 0.9980469 0
vt 5.933594 -0.1777344
vt 5.933594 -0.2275391
vt 4.523438 -0.2050781
f 426/426/426 427/427/427 428/428/428
g polygon8
usemtl lambert13
v -14 69.23828 -0.7617188
v -16.39063 69.23828 0.6210938
v -16.39063 73 0.6210938
v -14 73 -0.7617188
v -11.60938 69.23828 0.6210938
v -14 69.23828 -0.7617188
v -14 73 -0.7617188
v -11.60938 73 0.6210938
v -11.60938 69.23828 3.378906
v -11.60938 69.23828 0.6210938
v -11.60938 73 0.6210938
v -11.60938 73 3.378906
v -14 69.23828 4.761719
v -11.60938 69.23828 3.378906
v -11.60938 73 3.378906
v -14 73 4.761719
v -16.39063 69.23828 3.378906
v -14 69.23828 4.761719
v -14 73 4.761719
v -16.39063 73 3.378906
v -16.39063 69.23828 0.6210938
v -16.39063 69.23828 3.378906
v -16.39063 73 3.378906
v -16.39063 73 0.6210938
vn 0.8652344 0 -0.5
vn 0.8652344 0 -0.5
vn 0.8652344 0 -0.5
vn 0.8652344 0 -0.5
vn 0.8652344 0 0.5
vn 0.8652344 0 0.5
vn 0.8652344 0 0.5
vn 0.8652344 0 0.5
vn 0 0 0.9980469
vn 0 0 0.9980469
vn 0 0 0.9980469
vn 0 0 0.9980469
vn -0.8652344 0 0.5
vn -0.8652344 0 0.5
vn -0.8652344 0 0.5
vn -0.8652344 0 0.5
vn -0.8652344 0 -0.5
vn -0.8652344 0 -0.5
vn -0.8652344 0 -0.5
vn -0.8652344 0 -0.5
vn 0 0 -1
vn 0 0 -1
vn 0 0 -1
vn 0 0 -1
vt -4.980469 -0.3701172
vt -4.886719 -0.3701172
vt -4.886719 -0.3291016
vt -4.980469 -0.3291016
vt -4.886719 -0.3701172
vt -4.980469 -0.3701172
vt -4.980469 -0.3291016
vt -4.886719 -0.3291016
vt -4.886719 -0.3701172
vt -4.886719 -0.3701172
vt -4.886719 -0.3291016
vt -4.886719 -0.3291016
vt -4.980469 -0.3701172
vt -4.886719 -0.3701172
vt -4.886719 -0.3291016
vt -4.980469 -0.3291016
vt -4.886719 -0.3701172
vt -4.980469 -0.3701172
vt -4.980469 -0.3291016
vt -4.886719 -0.3291016
vt -4.886719 -0.3701172
vt -4.886719 -0.3701172
vt -4.886719 -0.3291016
vt -4.886719 -0.3291016
f 429/429/429 430/430/430 431/431/431 432/432/432
f 433/433/433 434/434/434 435/435/435 436/436/436
f 437/437/437 438/438/438 439/439/439 440/440/440
f 441/441/441 442/442/442 443/443/443 444/444/444
f 445/445/445 446/446/446 447/447/447 448/448/448
f 449/449/449 450/450/450 451/451/451 452/452/452
