# Objet du port. Généré par tools/build_port_objects.py : modifier ce script plutôt que ce fichier.
mtllib gangway.mtl
v -4.0000 5.3000 0.0000 0.7600 0.7600 0.7600
v -4.0000 15.0000 -16.0000 0.7600 0.7600 0.7600
v -4.0000 10.0000 -16.0000 0.7600 0.7600 0.7600
v -4.0000 0.3000 0.0000 0.7600 0.7600 0.7600
v 4.0000 5.3000 0.0000 0.7600 0.7600 0.7600
v 4.0000 15.0000 -16.0000 0.7600 0.7600 0.7600
v 4.0000 10.0000 -16.0000 0.7600 0.7600 0.7600
v 4.0000 0.3000 0.0000 0.7600 0.7600 0.7600
v -4.0000 0.3000 0.0000 1.0000 1.0000 1.0000
v 4.0000 0.3000 0.0000 1.0000 1.0000 1.0000
v 4.0000 10.0000 -16.0000 1.0000 1.0000 1.0000
v -4.0000 10.0000 -16.0000 1.0000 1.0000 1.0000
vt 0.00000 1.00000
vt 0.50000 1.00000
vt 0.50000 0.37500
vt 0.00000 0.37500
vt 0.00000 1.00000
vt 0.50000 1.00000
vt 0.50000 0.37500
vt 0.00000 0.37500
vt 0.00000 1.00000
vt 1.00000 1.00000
vt 1.00000 -1.00000
vt 0.00000 -1.00000
usemtl railing
f 1/1 2/2 3/3
f 1/1 3/3 4/4
f 5/5 6/6 7/7
f 5/5 7/7 8/8
usemtl ramp
f 9/9 10/10 11/11
f 9/9 11/11 12/12
