# Created by MKDS Course Modifier
mtllib Driftveil Market.mtl
g polygon0
usemtl c5_mrkt3
v 0 76 69.94141
v 48 68 69.94141
v 48 68 -69.94141
v 0 76 -69.94141
v 48 68 69.94141
v 68 56 69.94141
v 68 56 -69.94141
v 48 68 -69.94141
v -44 68 69.94141
v 0 76 69.94141
v 0 76 -69.94141
v -44 68 -69.94141
v -68 56 69.94141
v -44 68 69.94141
v -44 68 -69.94141
v -68 56 -69.94141
vn 0.1640625 0.9863281 0
vn 0.1640625 0.9863281 0
vn 0.1640625 0.9863281 0
vn 0.1640625 0.9863281 0
vn 0.5136719 0.8574219 0
vn 0.5136719 0.8574219 0
vn 0.5136719 0.8574219 0
vn 0.5136719 0.8574219 0
vn -0.1796875 0.984375 0
vn -0.1796875 0.984375 0
vn -0.1796875 0.984375 0
vn -0.1796875 0.984375 0
vn -0.4472656 0.8945313 0
vn -0.4472656 0.8945313 0
vn -0.4472656 0.8945313 0
vn -0.4472656 0.8945313 0
vt 0.9863281 -3.089844
vt 0.3515625 -3.089844
vt 0.3496094 1.03125
vt 0.984375 1.03125
vt 0.3515625 -3.089844
vt 0.01367188 -3.089844
vt 0.01171875 1.03125
vt 0.3496094 1.03125
vt 0.3515625 -3.089844
vt 0.9863281 -3.089844
vt 0.984375 1.03125
vt 0.3496094 1.03125
vt 0.01367188 -3.089844
vt 0.3515625 -3.089844
vt 0.3496094 1.03125
vt 0.01171875 1.03125
f 1/1/1 2/2/2 3/3/3 4/4/4
f 5/5/5 6/6/6 7/7/7 8/8/8
f 9/9/9 10/10/10 11/11/11 12/12/12
f 13/13/13 14/14/14 15/15/15 16/16/16
g polygon1
usemtl h_kage
v -68 2 68
v -56 2 56
v -68 2 -68
v -56 2 -56
v 68 2 -68
v 56 2 -56
v 68 2 68
v 56 2 56
v -68 2 68
v -56 2 56
vn 0 0.9980469 0
vn 0 0.9980469 0
vn 0 0.9980469 0
vn 0 0.9980469 0
vn 0 0.9980469 0
vn 0 0.9980469 0
vn 0 0.9980469 0
vn 0 0.9980469 0
vn 0 0.9980469 0
vn 0 0.9980469 0
vt 0.5 -0.125
vt 0.5 -0.875
vt 0.5 -0.125
vt 0.5 -0.875
vt 0.5 -0.125
vt 0.5 -0.875
vt 0.5 -0.125
vt 0.5 -0.875
vt 0.5 -0.125
vt 0.5 -0.875
f 17/17/17 18/18/18 19/19/19
f 18/18/18 20/20/20 19/19/19
f 19/19/19 20/20/20 21/21/21
f 20/20/20 22/22/22 21/21/21
f 21/21/21 22/22/22 23/23/23
f 22/22/22 24/24/24 23/23/23
f 23/23/23 24/24/24 25/25/25
f 24/24/24 26/26/26 25/25/25
v 56 2 56
v 56 2 -56
v -56 2 -56
v -56 2 56
vn 0 0.9980469 0
vn 0 0.9980469 0
vn 0 0.9980469 0
vn 0 0.9980469 0
vt 0.5 -0.875
vt 0.5 -0.875
vt 0.5 -0.875
vt 0.5 -0.875
f 27/27/27 28/28/28 29/29/29 30/30/30
g polygon2
usemtl c5_mrkt1
v 48 48 69.94141
v 48 68 69.94141
v 0 48 69.94141
v 0 76 69.94141
v -44 48 69.94141
v -44 68 69.94141
vn 0 0 0.9980469
vn 0 0 0.9980469
vn 0 0 0.9980469
vn 0 0 0.9980469
vn 0 0 0.9980469
vn 0 0 0.9980469
vt -0.1621094 -0.7578125
vt -0.1621094 -0.2617188
vt 0.5 -0.9726563
vt 0.5 -0.2617188
vt 1.111328 -0.7578125
vt 1.113281 -0.2617188
f 31/31/31 32/32/32 33/33/33
f 32/32/32 34/34/34 33/33/33
f 33/33/33 34/34/34 35/35/35
f 34/34/34 36/36/36 35/35/35
v 48 68 -69.94141
v 48 48 -69.94141
v 0 76 -69.94141
v 0 48 -69.94141
v -44 68 -69.94141
v -44 48 -69.94141
vn 0 0 -1
vn 0 0 -1
vn 0 0 -1
vn 0 0 -1
vn 0 0 -1
vn 0 0 -1
vt -0.1621094 -0.2617188
vt -0.1621094 -0.7578125
vt 0.5 -0.2617188
vt 0.5 -0.9726563
vt 1.113281 -0.2617188
vt 1.111328 -0.7578125
f 37/37/37 38/38/38 39/39/39
f 38/38/38 40/40/40 39/39/39
f 39/39/39 40/40/40 41/41/41
f 40/40/40 42/42/42 41/41/41
v 59 47.99219 21
v 59 4 21
v 64 4 21
v 64 47.99219 21
v 59 4 16
v 59 47.99219 16
v 64 47.99219 16
v 64 4 16
v 64 47.99219 -21
v 64 4 -21
v 59 4 -21
v 59 47.99219 -21
v 64 4 -16
v 64 47.99219 -16
v 59 47.99219 -16
v 59 4 -16
v 64 4 16
v 64 47.99219 16
v 64 47.99219 21
v 64 4 21
v -59 4 16
v -59 47.99219 16
v -59 47.99219 21
v -59 4 21
v -64 47.99219 21
v -64 4 21
v -59 4 21
v -59 47.99219 21
v -64 4 16
v -64 47.99219 16
v -59 47.99219 16
v -59 4 16
v 64 4 59
v 64 47.99219 59
v 64 47.99219 64
v 64 4 64
v 59 47.99219 64
v 59 4 64
v 64 4 64
v 64 47.99219 64
v 59 4 59
v 59 47.99219 59
v 64 47.99219 59
v 64 4 59
v -59 4 59
v -59 47.99219 59
v -59 47.99219 64
v -59 4 64
v -64 47.99219 64
v -64 4 64
v -59 4 64
v -59 47.99219 64
v -64 4 59
v -64 47.99219 59
v -59 47.99219 59
v -59 4 59
v 64 4 -21
v 64 47.99219 -21
v 64 47.99219 -16
v 64 4 -16
v -59 4 -21
v -59 47.99219 -21
v -59 47.99219 -16
v -59 4 -16
v -59 47.99219 -21
v -59 4 -21
v -64 4 -21
v -64 47.99219 -21
v -59 4 -16
v -59 47.99219 -16
v -64 47.99219 -16
v -64 4 -16
v 64 4 -64
v 64 47.99219 -64
v 64 47.99219 -59
v 64 4 -59
v 64 47.99219 -64
v 64 4 -64
v 59 4 -64
v 59 47.99219 -64
v 64 4 -59
v 64 47.99219 -59
v 59 47.99219 -59
v 59 4 -59
v -59 4 -64
v -59 47.99219 -64
v -59 47.99219 -59
v -59 4 -59
v -59 47.99219 -64
v -59 4 -64
v -64 4 -64
v -64 47.99219 -64
v -59 4 -59
v -59 47.99219 -59
v -64 47.99219 -59
v -64 4 -59
v -44 48 69.94141
v -44 68 69.94141
v -68 56 69.94141
v -68 48 69.94141
v 68 48 69.94141
v 68 56 69.94141
v 48 68 69.94141
v 48 48 69.94141
v -68 48 -69.94141
v -68 56 -69.94141
v -44 68 -69.94141
v -44 48 -69.94141
v 48 48 -69.94141
v 48 68 -69.94141
v 68 56 -69.94141
v 68 48 -69.94141
v 68 48 -69.94141
v 68 56 -69.94141
v 68 56 69.94141
v 68 48 69.94141
vn 0 0 0.9980469
vn 0 0 0.9980469
vn 0 0 0.9980469
vn 0 0 0.9980469
vn 0 0 -1
vn 0 0 -1
vn 0 0 -1
vn 0 0 -1
vn 0 0 -1
vn 0 0 -1
vn 0 0 -1
vn 0 0 -1
vn 0 0 0.9980469
vn 0 0 0.9980469
vn 0 0 0.9980469
vn 0 0 0.9980469
vn 0.9980469 0 0
vn 0.9980469 0 0
vn 0.9980469 0 0
vn 0.9980469 0 0
vn 0.9980469 0 0
vn 0.9980469 0 0
vn 0.9980469 0 0
vn 0.9980469 0 0
vn 0 0 0.9980469
vn 0 0 0.9980469
vn 0 0 0.9980469
vn 0 0 0.9980469
vn 0 0 -1
vn 0 0 -1
vn 0 0 -1
vn 0 0 -1
vn 0.9980469 0 0
vn 0.9980469 0 0
vn 0.9980469 0 0
vn 0.9980469 0 0
vn 0 0 0.9980469
vn 0 0 0.9980469
vn 0 0 0.9980469
vn 0 0 0.9980469
vn 0 0 -1
vn 0 0 -1
vn 0 0 -1
vn 0 0 -1
vn 0.9980469 0 0
vn 0.9980469 0 0
vn 0.9980469 0 0
vn 0.9980469 0 0
vn 0 0 0.9980469
vn 0 0 0.9980469
vn 0 0 0.9980469
vn 0 0 0.9980469
vn 0 0 -1
vn 0 0 -1
vn 0 0 -1
vn 0 0 -1
vn 0.9980469 0 0
vn 0.9980469 0 0
vn 0.9980469 0 0
vn 0.9980469 0 0
vn 0.9980469 0 0
vn 0.9980469 0 0
vn 0.9980469 0 0
vn 0.9980469 0 0
vn 0 0 -1
vn 0 0 -1
vn 0 0 -1
vn 0 0 -1
vn 0 0 0.9980469
vn 0 0 0.9980469
vn 0 0 0.9980469
vn 0 0 0.9980469
vn 0.9980469 0 0
vn 0.9980469 0 0
vn 0.9980469 0 0
vn 0.9980469 0 0
vn 0 0 -1
vn 0 0 -1
vn 0 0 -1
vn 0 0 -1
vn 0 0 0.9980469
vn 0 0 0.9980469
vn 0 0 0.9980469
vn 0 0 0.9980469
vn 0.9980469 0 0
vn 0.9980469 0 0
vn 0.9980469 0 0
vn 0.9980469 0 0
vn 0 0 -1
vn 0 0 -1
vn 0 0 -1
vn 0 0 -1
vn 0 0 0.9980469
vn 0 0 0.9980469
vn 0 0 0.9980469
vn 0 0 0.9980469
vn 0 0 0.9980469
vn 0 0 0.9980469
vn 0 0 0.9980469
vn 0 0 0.9980469
vn 0 0 0.9980469
vn 0 0 0.9980469
vn 0 0 0.9980469
vn 0 0 0.9980469
vn 0 0 -1
vn 0 0 -1
vn 0 0 -1
vn 0 0 -1
vn 0 0 -1
vn 0 0 -1
vn 0 0 -1
vn 0 0 -1
vn 0.9980469 0 0
vn 0.9980469 0 0
vn 0.9980469 0 0
vn 0.9980469 0 0
vt 0.01171875 -0.015625
vt 0.9921875 -0.015625
vt 0.9921875 -0.234375
vt 0.01171875 -0.234375
vt 0.9921875 -0.234375
vt 0.01171875 -0.234375
vt 0.01171875 -0.015625
vt 0.9921875 -0.015625
vt 0.01171875 -0.015625
vt 0.9921875 -0.015625
vt 0.9921875 -0.234375
vt 0.01171875 -0.234375
vt 0.9921875 -0.234375
vt 0.01171875 -0.234375
vt 0.01171875 -0.015625
vt 0.9921875 -0.015625
vt 0.9921875 -0.234375
vt 0.01171875 -0.234375
vt 0.01171875 -0.015625
vt 0.9921875 -0.015625
vt 0.9921875 -0.234375
vt 0.01171875 -0.234375
vt 0.01171875 -0.015625
vt 0.9921875 -0.015625
vt 0.01171875 -0.015625
vt 0.9921875 -0.015625
vt 0.9921875 -0.234375
vt 0.01171875 -0.234375
vt 0.9921875 -0.234375
vt 0.01171875 -0.234375
vt 0.01171875 -0.015625
vt 0.9921875 -0.015625
vt 0.9921875 -0.234375
vt 0.01171875 -0.234375
vt 0.01171875 -0.015625
vt 0.9921875 -0.015625
vt 0.01171875 -0.015625
vt 0.9921875 -0.015625
vt 0.9921875 -0.234375
vt 0.01171875 -0.234375
vt 0.9921875 -0.234375
vt 0.01171875 -0.234375
vt 0.01171875 -0.015625
vt 0.9921875 -0.015625
vt 0.9921875 -0.234375
vt 0.01171875 -0.234375
vt 0.01171875 -0.015625
vt 0.9921875 -0.015625
vt 0.01171875 -0.015625
vt 0.9921875 -0.015625
vt 0.9921875 -0.234375
vt 0.01171875 -0.234375
vt 0.9921875 -0.234375
vt 0.01171875 -0.234375
vt 0.01171875 -0.015625
vt 0.9921875 -0.015625
vt 0.9921875 -0.015625
vt 0.01171875 -0.015625
vt 0.01171875 -0.234375
vt 0.9921875 -0.234375
vt 0.9921875 -0.015625
vt 0.01171875 -0.015625
vt 0.01171875 -0.234375
vt 0.9921875 -0.234375
vt 0.01171875 -0.234375
vt 0.9921875 -0.234375
vt 0.9921875 -0.015625
vt 0.01171875 -0.015625
vt 0.9921875 -0.015625
vt 0.01171875 -0.015625
vt 0.01171875 -0.234375
vt 0.9921875 -0.234375
vt 0.9921875 -0.015625
vt 0.01171875 -0.015625
vt 0.01171875 -0.234375
vt 0.9921875 -0.234375
vt 0.01171875 -0.234375
vt 0.9921875 -0.234375
vt 0.9921875 -0.015625
vt 0.01171875 -0.015625
vt 0.9921875 -0.015625
vt 0.01171875 -0.015625
vt 0.01171875 -0.234375
vt 0.9921875 -0.234375
vt 0.9921875 -0.015625
vt 0.01171875 -0.015625
vt 0.01171875 -0.234375
vt 0.9921875 -0.234375
vt 0.01171875 -0.234375
vt 0.9921875 -0.234375
vt 0.9921875 -0.015625
vt 0.01171875 -0.015625
vt 0.9921875 -0.015625
vt 0.01171875 -0.015625
vt 0.01171875 -0.234375
vt 0.9921875 -0.234375
vt 1.111328 -0.7578125
vt 1.113281 -0.2617188
vt 1.447266 -0.2617188
vt 1.445313 -0.46875
vt -0.4414063 -0.4609375
vt -0.4414063 -0.2617188
vt -0.1621094 -0.2617188
vt -0.1621094 -0.7578125
vt 1.445313 -0.46875
vt 1.447266 -0.2617188
vt 1.113281 -0.2617188
vt 1.111328 -0.7578125
vt -0.1621094 -0.7578125
vt -0.1621094 -0.2617188
vt -0.4414063 -0.2617188
vt -0.4414063 -0.4609375
vt 0.9882813 -0.4726563
vt 0.9902344 -0.2617188
vt 0.009765625 -0.2617188
vt 0.009765625 -0.4726563
f 43/43/43 44/44/44 45/45/45 46/46/46
f 47/47/47 48/48/48 49/49/49 50/50/50
f 51/51/51 52/52/52 53/53/53 54/54/54
f 55/55/55 56/56/56 57/57/57 58/58/58
f 59/59/59 60/60/60 61/61/61 62/62/62
f 63/63/63 64/64/64 65/65/65 66/66/66
f 67/67/67 68/68/68 69/69/69 70/70/70
f 71/71/71 72/72/72 73/73/73 74/74/74
f 75/75/75 76/76/76 77/77/77 78/78/78
f 79/79/79 80/80/80 81/81/81 82/82/82
f 83/83/83 84/84/84 85/85/85 86/86/86
f 87/87/87 88/88/88 89/89/89 90/90/90
f 91/91/91 92/92/92 93/93/93 94/94/94
f 95/95/95 96/96/96 97/97/97 98/98/98
f 99/99/99 100/100/100 101/101/101 102/102/102
f 103/103/103 104/104/104 105/105/105 106/106/106
f 107/107/107 108/108/108 109/109/109 110/110/110
f 111/111/111 112/112/112 113/113/113 114/114/114
f 115/115/115 116/116/116 117/117/117 118/118/118
f 119/119/119 120/120/120 121/121/121 122/122/122
f 123/123/123 124/124/124 125/125/125 126/126/126
f 127/127/127 128/128/128 129/129/129 130/130/130
f 131/131/131 132/132/132 133/133/133 134/134/134
f 135/135/135 136/136/136 137/137/137 138/138/138
f 139/139/139 140/140/140 141/141/141 142/142/142
f 143/143/143 144/144/144 145/145/145 146/146/146
f 147/147/147 148/148/148 149/149/149 150/150/150
f 151/151/151 152/152/152 153/153/153 154/154/154
f 155/155/155 156/156/156 157/157/157 158/158/158
g polygon3
usemtl c5_mrkt2
v 10.82422 4 26.31641
v 10.82422 16.33594 26.31641
v 43.21875 4 26.31641
v 43.21875 16.33594 26.31641
v 53.10938 4 26.31641
v 53.10938 16.32031 26.31641
vn 0 0 -1
vn 0 0 -1
vn 0 0 -1
vn 0 0 -1
vn 0 0 -1
vn 0 0 -1
vt 0.005859375 -0.984375
vt 0.005859375 -0.765625
vt 0.7988281 -0.984375
vt 0.7988281 -0.765625
vt 1.005859 -0.984375
vt 1.005859 -0.765625
f 159/159/159 160/160/160 161/161/161
f 160/160/160 162/162/162 161/161/161
f 161/161/161 162/162/162 163/163/163
f 162/162/162 164/164/164 163/163/163
v 10.82422 16.33594 62.31641
v 10.82422 4 62.31641
v 43.21875 16.33594 62.31641
v 43.21875 4 62.31641
v 53.10938 16.32031 62.31641
v 53.10938 4 62.31641
vn 0 0 0.9980469
vn 0 0 0.9980469
vn 0 0 0.9980469
vn 0 0 0.9980469
vn 0 0 0.9980469
vn 0 0 0.9980469
vt 0.005859375 -0.765625
vt 0.005859375 -0.984375
vt 0.7988281 -0.765625
vt 0.7988281 -0.984375
vt 1.005859 -0.765625
vt 1.005859 -0.984375
f 165/165/165 166/166/166 167/167/167
f 166/166/166 168/168/168 167/167/167
f 167/167/167 168/168/168 169/169/169
f 168/168/168 170/170/170 169/169/169
v -58.17188 4 26.31641
v -58.17188 16.33594 26.31641
v -25.77734 4 26.31641
v -25.77734 16.33594 26.31641
v -15.88672 4 26.31641
v -15.88672 16.32031 26.31641
vn 0 0 -1
vn 0 0 -1
vn 0 0 -1
vn 0 0 -1
vn 0 0 -1
vn 0 0 -1
vt 0.005859375 -0.984375
vt 0.005859375 -0.765625
vt 0.7988281 -0.984375
vt 0.7988281 -0.765625
vt 1.005859 -0.984375
vt 1.005859 -0.765625
f 171/171/171 172/172/172 173/173/173
f 172/172/172 174/174/174 173/173/173
f 173/173/173 174/174/174 175/175/175
f 174/174/174 176/176/176 175/175/175
v -58.17188 16.33594 62.31641
v -58.17188 4 62.31641
v -25.77734 16.33594 62.31641
v -25.77734 4 62.31641
v -15.88672 16.32031 62.31641
v -15.88672 4 62.31641
vn 0 0 0.9980469
vn 0 0 0.9980469
vn 0 0 0.9980469
vn 0 0 0.9980469
vn 0 0 0.9980469
vn 0 0 0.9980469
vt 0.005859375 -0.765625
vt 0.005859375 -0.984375
vt 0.7988281 -0.765625
vt 0.7988281 -0.984375
vt 1.005859 -0.765625
vt 1.005859 -0.984375
f 177/177/177 178/178/178 179/179/179
f 178/178/178 180/180/180 179/179/179
f 179/179/179 180/180/180 181/181/181
f 180/180/180 182/182/182 181/181/181
v 10.82422 4 -62.31641
v 10.82422 16.33594 -62.31641
v 43.21875 4 -62.31641
v 43.21875 16.33594 -62.31641
v 53.10938 4 -62.31641
v 53.10938 16.32031 -62.31641
vn 0 0 -1
vn 0 0 -1
vn 0 0 -1
vn 0 0 -1
vn 0 0 -1
vn 0 0 -1
vt 0.005859375 -0.984375
vt 0.005859375 -0.765625
vt 0.7988281 -0.984375
vt 0.7988281 -0.765625
vt 1.005859 -0.984375
vt 1.005859 -0.765625
f 183/183/183 184/184/184 185/185/185
f 184/184/184 186/186/186 185/185/185
f 185/185/185 186/186/186 187/187/187
f 186/186/186 188/188/188 187/187/187
v 10.82422 16.33594 -26.31641
v 10.82422 4 -26.31641
v 43.21875 16.33594 -26.31641
v 43.21875 4 -26.31641
v 53.10938 16.32031 -26.31641
v 53.10938 4 -26.31641
vn 0 0 0.9980469
vn 0 0 0.9980469
vn 0 0 0.9980469
vn 0 0 0.9980469
vn 0 0 0.9980469
vn 0 0 0.9980469
vt 0.005859375 -0.765625
vt 0.005859375 -0.984375
vt 0.7988281 -0.765625
vt 0.7988281 -0.984375
vt 1.005859 -0.765625
vt 1.005859 -0.984375
f 189/189/189 190/190/190 191/191/191
f 190/190/190 192/192/192 191/191/191
f 191/191/191 192/192/192 193/193/193
f 192/192/192 194/194/194 193/193/193
v -58.17188 16.33594 -26.31641
v -58.17188 4 -26.31641
v -25.77734 16.33594 -26.31641
v -25.77734 4 -26.31641
v -15.88672 16.32031 -26.31641
v -15.88672 4 -26.31641
vn 0 0 0.9980469
vn 0 0 0.9980469
vn 0 0 0.9980469
vn 0 0 0.9980469
vn 0 0 0.9980469
vn 0 0 0.9980469
vt 0.005859375 -0.765625
vt 0.005859375 -0.984375
vt 0.7988281 -0.765625
vt 0.7988281 -0.984375
vt 1.005859 -0.765625
vt 1.005859 -0.984375
f 195/195/195 196/196/196 197/197/197
f 196/196/196 198/198/198 197/197/197
f 197/197/197 198/198/198 199/199/199
f 198/198/198 200/200/200 199/199/199
v -58.17188 4 -62.31641
v -58.17188 16.33594 -62.31641
v -25.77734 4 -62.31641
v -25.77734 16.33594 -62.31641
v -15.88672 4 -62.31641
v -15.88672 16.32031 -62.31641
vn 0 0 -1
vn 0 0 -1
vn 0 0 -1
vn 0 0 -1
vn 0 0 -1
vn 0 0 -1
vt 0.005859375 -0.984375
vt 0.005859375 -0.765625
vt 0.7988281 -0.984375
vt 0.7988281 -0.765625
vt 1.005859 -0.984375
vt 1.005859 -0.765625
f 201/201/201 202/202/202 203/203/203
f 202/202/202 204/204/204 203/203/203
f 203/203/203 204/204/204 205/205/205
f 204/204/204 206/206/206 205/205/205
v -21.22656 43.84766 27.89844
v -21.22656 47.98047 27.89844
v -21.22656 47.98047 69.40234
v -21.22656 43.84766 69.40234
v -54 47.98047 69.40234
v -54 43.84766 69.40234
v -21.22656 43.84766 69.40234
v -21.22656 47.98047 69.40234
v 47.61328 43.84766 -69.40234
v 47.61328 47.98047 -69.40234
v 47.61328 47.98047 -27.89844
v 47.61328 43.84766 -27.89844
v 47.61328 47.98047 -69.40234
v 47.61328 43.84766 -69.40234
v 14.83984 43.84766 -69.40234
v 14.83984 47.98047 -69.40234
v 67.46875 47.98047 -22.17578
v 63.02734 47.98047 -22.17578
v 63.02734 43.84766 -22.17578
v 67.46875 43.84766 -22.17578
v 67.46875 43.84766 -57.80859
v 67.46875 47.98047 -57.80859
v 67.46875 47.98047 -22.17578
v 67.46875 43.84766 -22.17578
v 67.46875 47.98047 -57.80859
v 67.46875 43.84766 -57.80859
v 63.02734 43.84766 -57.80859
v 63.02734 47.98047 -57.80859
v -21.22656 43.84766 -69.40234
v -21.22656 47.98047 -69.40234
v -21.22656 47.98047 -27.89844
v -21.22656 43.84766 -27.89844
v -21.22656 47.98047 -69.40234
v -21.22656 43.84766 -69.40234
v -54 43.84766 -69.40234
v -54 47.98047 -69.40234
v 43.21875 17.43359 27.10547
v 43.21875 43.89453 27.10547
v 43.21875 43.89453 61.52344
v 43.21875 17.43359 61.52344
v 18.60156 17.43359 27.10547
v 18.60156 43.89453 27.10547
v 43.21875 43.89453 27.10547
v 43.21875 17.43359 27.10547
v 18.60156 43.89453 61.52344
v 18.60156 17.43359 61.52344
v 43.21875 17.43359 61.52344
v 43.21875 43.89453 61.52344
v -25.77734 17.43359 27.10547
v -25.77734 43.89453 27.10547
v -25.77734 43.89453 61.52344
v -25.77734 17.43359 61.52344
v -50.39844 17.43359 27.10547
v -50.39844 43.89453 27.10547
v -25.77734 43.89453 27.10547
v -25.77734 17.43359 27.10547
v -50.39844 43.89453 61.52344
v -50.39844 17.43359 61.52344
v -25.77734 17.43359 61.52344
v -25.77734 43.89453 61.52344
v 10.82422 16.33594 62.31641
v 43.21875 16.33594 62.31641
v 43.21875 16.33594 26.31641
v 10.82422 16.33594 26.31641
v -58.17188 16.33594 62.31641
v -25.77734 16.33594 62.31641
v -25.77734 16.33594 26.31641
v -58.17188 16.33594 26.31641
v 67.46875 47.98047 14.9375
v 63.02734 47.98047 14.9375
v 63.02734 43.84766 14.9375
v 67.46875 43.84766 14.9375
v 67.46875 43.84766 -14.84375
v 67.46875 47.98047 -14.84375
v 67.46875 47.98047 14.9375
v 67.46875 43.84766 14.9375
v 67.46875 47.98047 -14.84375
v 67.46875 43.84766 -14.84375
v 63.02734 43.84766 -14.84375
v 63.02734 47.98047 -14.84375
v 47.61328 43.84766 27.89844
v 47.61328 47.98047 27.89844
v 47.61328 47.98047 69.40234
v 47.61328 43.84766 69.40234
v 43.21875 16.33594 62.31641
v 53.10938 16.32031 62.31641
v 53.10938 16.32031 26.31641
v 43.21875 16.33594 26.31641
v -25.77734 16.33594 62.31641
v -15.88672 16.32031 62.31641
v -15.88672 16.32031 26.31641
v -25.77734 16.33594 26.31641
v 53.10938 4 26.31641
v 53.10938 16.32031 26.31641
v 53.10938 16.32031 62.31641
v 53.10938 4 62.31641
v -15.88672 4 26.31641
v -15.88672 16.32031 26.31641
v -15.88672 16.32031 62.31641
v -15.88672 4 62.31641
v 43.21875 17.43359 -61.52344
v 43.21875 43.89453 -61.52344
v 43.21875 43.89453 -27.10547
v 43.21875 17.43359 -27.10547
v 43.21875 17.43359 -27.10547
v 43.21875 43.89453 -27.10547
v 18.60156 43.89453 -27.10547
v 18.60156 17.43359 -27.10547
v 43.21875 43.89453 -61.52344
v 43.21875 17.43359 -61.52344
v 18.60156 17.43359 -61.52344
v 18.60156 43.89453 -61.52344
v 14.83984 47.98047 69.40234
v 14.83984 43.84766 69.40234
v 47.61328 43.84766 69.40234
v 47.61328 47.98047 69.40234
v -25.77734 17.43359 -27.10547
v -25.77734 43.89453 -27.10547
v -50.39844 43.89453 -27.10547
v -50.39844 17.43359 -27.10547
v -25.77734 43.89453 -61.52344
v -25.77734 17.43359 -61.52344
v -50.39844 17.43359 -61.52344
v -50.39844 43.89453 -61.52344
v 10.82422 16.33594 -26.31641
v 43.21875 16.33594 -26.31641
v 43.21875 16.33594 -62.31641
v 10.82422 16.33594 -62.31641
v -58.17188 16.33594 -26.31641
v -25.77734 16.33594 -26.31641
v -25.77734 16.33594 -62.31641
v -58.17188 16.33594 -62.31641
v 67.46875 43.84766 22.17578
v 63.02734 43.84766 22.17578
v 63.02734 47.98047 22.17578
v 67.46875 47.98047 22.17578
v -25.77734 17.43359 -61.52344
v -25.77734 43.89453 -61.52344
v -25.77734 43.89453 -27.10547
v -25.77734 17.43359 -27.10547
v 67.46875 43.84766 22.17578
v 67.46875 47.98047 22.17578
v 67.46875 47.98047 57.80859
v 67.46875 43.84766 57.80859
v 63.02734 47.98047 57.80859
v 63.02734 43.84766 57.80859
v 67.46875 43.84766 57.80859
v 67.46875 47.98047 57.80859
v 43.21875 16.33594 -26.31641
v 53.10938 16.32031 -26.31641
v 53.10938 16.32031 -62.31641
v 43.21875 16.33594 -62.31641
v -25.77734 16.33594 -26.31641
v -15.88672 16.32031 -26.31641
v -15.88672 16.32031 -62.31641
v -25.77734 16.33594 -62.31641
v 53.10938 4 -62.31641
v 53.10938 16.32031 -62.31641
v 53.10938 16.32031 -26.31641
v 53.10938 4 -26.31641
v -15.88672 4 -62.31641
v -15.88672 16.32031 -62.31641
v -15.88672 16.32031 -26.31641
v -15.88672 4 -26.31641
vn 0.9980469 0 0
vn 0.9980469 0 0
vn 0.9980469 0 0
vn 0.9980469 0 0
vn 0 0 0.9980469
vn 0 0 0.9980469
vn 0 0 0.9980469
vn 0 0 0.9980469
vn 0.9980469 0 0
vn 0.9980469 0 0
vn 0.9980469 0 0
vn 0.9980469 0 0
vn 0 0 -1
vn 0 0 -1
vn 0 0 -1
vn 0 0 -1
vn 0 0 0.9980469
vn 0 0 0.9980469
vn 0 0 0.9980469
vn 0 0 0.9980469
vn 0.9980469 0 0
vn 0.9980469 0 0
vn 0.9980469 0 0
vn 0.9980469 0 0
vn 0 0 -1
vn 0 0 -1
vn 0 0 -1
vn 0 0 -1
vn 0.9980469 0 0
vn 0.9980469 0 0
vn 0.9980469 0 0
vn 0.9980469 0 0
vn 0 0 -1
vn 0 0 -1
vn 0 0 -1
vn 0 0 -1
vn 0.9980469 0 0
vn 0.9980469 0 0
vn 0.9980469 0 0
vn 0.9980469 0 0
vn 0 0 -1
vn 0 0 -1
vn 0 0 -1
vn 0 0 -1
vn 0 0 0.9980469
vn 0 0 0.9980469
vn 0 0 0.9980469
vn 0 0 0.9980469
vn 0.9980469 0 0
vn 0.9980469 0 0
vn 0.9980469 0 0
vn 0.9980469 0 0
vn 0 0 -1
vn 0 0 -1
vn 0 0 -1
vn 0 0 -1
vn 0 0 0.9980469
vn 0 0 0.9980469
vn 0 0 0.9980469
vn 0 0 0.9980469
vn 0 0.9980469 0
vn 0 0.9980469 0
vn 0 0.9980469 0
vn 0 0.9980469 0
vn 0 0.9980469 0
vn 0 0.9980469 0
vn 0 0.9980469 0
vn 0 0.9980469 0
vn 0 0 0.9980469
vn 0 0 0.9980469
vn 0 0 0.9980469
vn 0 0 0.9980469
vn 0.9980469 0 0
vn 0.9980469 0 0
vn 0.9980469 0 0
vn 0.9980469 0 0
vn 0 0 -1
vn 0 0 -1
vn 0 0 -1
vn 0 0 -1
vn 0.9980469 0 0
vn 0.9980469 0 0
vn 0.9980469 0 0
vn 0.9980469 0 0
vn 0 0.9980469 0
vn 0 0.9980469 0
vn 0 0.9980469 0
vn 0 0.9980469 0
vn 0 0.9980469 0
vn 0 0.9980469 0
vn 0 0.9980469 0
vn 0 0.9980469 0
vn 0.9980469 0 0
vn 0.9980469 0 0
vn 0.9980469 0 0
vn 0.9980469 0 0
vn 0.9980469 0 0
vn 0.9980469 0 0
vn 0.9980469 0 0
vn 0.9980469 0 0
vn 0.9980469 0 0
vn 0.9980469 0 0
vn 0.9980469 0 0
vn 0.9980469 0 0
vn 0 0 0.9980469
vn 0 0 0.9980469
vn 0 0 0.9980469
vn 0 0 0.9980469
vn 0 0 -1
vn 0 0 -1
vn 0 0 -1
vn 0 0 -1
vn 0 0 0.9980469
vn 0 0 0.9980469
vn 0 0 0.9980469
vn 0 0 0.9980469
vn 0 0 0.9980469
vn 0 0 0.9980469
vn 0 0 0.9980469
vn 0 0 0.9980469
vn 0 0 -1
vn 0 0 -1
vn 0 0 -1
vn 0 0 -1
vn 0 0.9980469 0
vn 0 0.9980469 0
vn 0 0.9980469 0
vn 0 0.9980469 0
vn 0 0.9980469 0
vn 0 0.9980469 0
vn 0 0.9980469 0
vn 0 0.9980469 0
vn 0 0 -1
vn 0 0 -1
vn 0 0 -1
vn 0 0 -1
vn 0.9980469 0 0
vn 0.9980469 0 0
vn 0.9980469 0 0
vn 0.9980469 0 0
vn 0.9980469 0 0
vn 0.9980469 0 0
vn 0.9980469 0 0
vn 0.9980469 0 0
vn 0 0 0.9980469
vn 0 0 0.9980469
vn 0 0 0.9980469
vn 0 0 0.9980469
vn 0 0.9980469 0
vn 0 0.9980469 0
vn 0 0.9980469 0
vn 0 0.9980469 0
vn 0 0.9980469 0
vn 0 0.9980469 0
vn 0 0.9980469 0
vn 0 0.9980469 0
vn 0.9980469 0 0
vn 0.9980469 0 0
vn 0.9980469 0 0
vn 0.9980469 0 0
vn 0.9980469 0 0
vn 0.9980469 0 0
vn 0.9980469 0 0
vn 0.9980469 0 0
vt 0 -0.4921875
vt 0 -0.4179688
vt 1 -0.4179688
vt 1 -0.4921875
vt 0 -0.4179688
vt 0 -0.4921875
vt 1 -0.4921875
vt 1 -0.4179688
vt 1 -0.4921875
vt 1 -0.4179688
vt 0 -0.4179688
vt 0 -0.4921875
vt 1 -0.4179688
vt 1 -0.4921875
vt 0 -0.4921875
vt 0 -0.4179688
vt 0 -0.4179688
vt 1 -0.4179688
vt 1 -0.4921875
vt 0 -0.4921875
vt 1 -0.4921875
vt 1 -0.4179688
vt 0 -0.4179688
vt 0 -0.4921875
vt 1 -0.4179688
vt 1 -0.4921875
vt 0 -0.4921875
vt 0 -0.4179688
vt 1 -0.4921875
vt 1 -0.4179688
vt 0 -0.4179688
vt 0 -0.4921875
vt 1 -0.4179688
vt 1 -0.4921875
vt 0 -0.4921875
vt 0 -0.4179688
vt -1.042969 -0.7734375
vt -1.042969 -0.4707031
vt 0.0390625 -0.4707031
vt 0.03710938 -0.7734375
vt 0.03710938 -0.7734375
vt 0.0390625 -0.4707031
vt 0.5234375 -0.4707031
vt 0.5234375 -0.7734375
vt 0.0390625 -0.4707031
vt 0.03710938 -0.7734375
vt 0.5234375 -0.7734375
vt 0.5234375 -0.4707031
vt -1.042969 -0.7734375
vt -1.042969 -0.4707031
vt 0.0390625 -0.4707031
vt 0.03710938 -0.7734375
vt 0.03710938 -0.7734375
vt 0.0390625 -0.4707031
vt 0.5234375 -0.4707031
vt 0.5234375 -0.7734375
vt 0.0390625 -0.4707031
vt 0.03710938 -0.7734375
vt 0.5234375 -0.7734375
vt 0.5234375 -0.4707031
vt 0.5019531 -0.34375
vt 0.5019531 -0.34375
vt 0.5019531 -0.34375
vt 0.5019531 -0.34375
vt 0.5019531 -0.34375
vt 0.5019531 -0.34375
vt 0.5019531 -0.34375
vt 0.5019531 -0.34375
vt 0 -0.4179688
vt 1 -0.4179688
vt 1 -0.4921875
vt 0 -0.4921875
vt 1 -0.4921875
vt 1 -0.4179688
vt 0 -0.4179688
vt 0 -0.4921875
vt 1 -0.4179688
vt 1 -0.4921875
vt 0 -0.4921875
vt 0 -0.4179688
vt 0 -0.4921875
vt 0 -0.4179688
vt 1 -0.4179688
vt 1 -0.4921875
vt -0.009765625 -0.4003906
vt -0.009765625 -0.00390625
vt -2.021484 -0.00390625
vt -2.021484 -0.4003906
vt -2.021484 -0.4003906
vt -2.021484 -0.00390625
vt -0.009765625 -0.00390625
vt -0.009765625 -0.4003906
vt -0.984375 -0.9824219
vt -0.984375 -0.7636719
vt -0.005859375 -0.7636719
vt -0.005859375 -0.9824219
vt -0.984375 -0.9824219
vt -0.984375 -0.7636719
vt -0.005859375 -0.7636719
vt -0.005859375 -0.9824219
vt 0.03710938 -0.7734375
vt 0.0390625 -0.4707031
vt -1.042969 -0.4707031
vt -1.042969 -0.7734375
vt 0.5234375 -0.7734375
vt 0.5234375 -0.4707031
vt 0.0390625 -0.4707031
vt 0.03710938 -0.7734375
vt 0.5234375 -0.4707031
vt 0.5234375 -0.7734375
vt 0.03710938 -0.7734375
vt 0.0390625 -0.4707031
vt 0 -0.4179688
vt 0 -0.4921875
vt 1 -0.4921875
vt 1 -0.4179688
vt 0.5234375 -0.7734375
vt 0.5234375 -0.4707031
vt 0.0390625 -0.4707031
vt 0.03710938 -0.7734375
vt 0.5234375 -0.4707031
vt 0.5234375 -0.7734375
vt 0.03710938 -0.7734375
vt 0.0390625 -0.4707031
vt 0.5019531 -0.34375
vt 0.5019531 -0.34375
vt 0.5019531 -0.34375
vt 0.5019531 -0.34375
vt 0.5019531 -0.34375
vt 0.5019531 -0.34375
vt 0.5019531 -0.34375
vt 0.5019531 -0.34375
vt 0 -0.4921875
vt 1 -0.4921875
vt 1 -0.4179688
vt 0 -0.4179688
vt 0.03710938 -0.7734375
vt 0.0390625 -0.4707031
vt -1.042969 -0.4707031
vt -1.042969 -0.7734375
vt 0 -0.4921875
vt 0 -0.4179688
vt 1 -0.4179688
vt 1 -0.4921875
vt 0 -0.4179688
vt 0 -0.4921875
vt 1 -0.4921875
vt 1 -0.4179688
vt -0.009765625 -0.4003906
vt -0.009765625 -0.00390625
vt -2.021484 -0.00390625
vt -2.021484 -0.4003906
vt -2.021484 -0.4003906
vt -2.021484 -0.00390625
vt -0.009765625 -0.00390625
vt -0.009765625 -0.4003906
vt -0.005859375 -0.9824219
vt -0.005859375 -0.7636719
vt -0.984375 -0.7636719
vt -0.984375 -0.9824219
vt -0.005859375 -0.9824219
vt -0.005859375 -0.7636719
vt -0.984375 -0.7636719
vt -0.984375 -0.9824219
f 207/207/207 208/208/208 209/209/209 210/210/210
f 211/211/211 212/212/212 213/213/213 214/214/214
f 215/215/215 216/216/216 217/217/217 218/218/218
f 219/219/219 220/220/220 221/221/221 222/222/222
f 223/223/223 224/224/224 225/225/225 226/226/226
f 227/227/227 228/228/228 229/229/229 230/230/230
f 231/231/231 232/232/232 233/233/233 234/234/234
f 235/235/235 236/236/236 237/237/237 238/238/238
f 239/239/239 240/240/240 241/241/241 242/242/242
f 243/243/243 244/244/244 245/245/245 246/246/246
f 247/247/247 248/248/248 249/249/249 250/250/250
f 251/251/251 252/252/252 253/253/253 254/254/254
f 255/255/255 256/256/256 257/257/257 258/258/258
f 259/259/259 260/260/260 261/261/261 262/262/262
f 263/263/263 264/264/264 265/265/265 266/266/266
f 267/267/267 268/268/268 269/269/269 270/270/270
f 271/271/271 272/272/272 273/273/273 274/274/274
f 275/275/275 276/276/276 277/277/277 278/278/278
f 279/279/279 280/280/280 281/281/281 282/282/282
f 283/283/283 284/284/284 285/285/285 286/286/286
f 287/287/287 288/288/288 289/289/289 290/290/290
f 291/291/291 292/292/292 293/293/293 294/294/294
f 295/295/295 296/296/296 297/297/297 298/298/298
f 299/299/299 300/300/300 301/301/301 302/302/302
f 303/303/303 304/304/304 305/305/305 306/306/306
f 307/307/307 308/308/308 309/309/309 310/310/310
f 311/311/311 312/312/312 313/313/313 314/314/314
f 315/315/315 316/316/316 317/317/317 318/318/318
f 319/319/319 320/320/320 321/321/321 322/322/322
f 323/323/323 324/324/324 325/325/325 326/326/326
f 327/327/327 328/328/328 329/329/329 330/330/330
f 331/331/331 332/332/332 333/333/333 334/334/334
f 335/335/335 336/336/336 337/337/337 338/338/338
f 339/339/339 340/340/340 341/341/341 342/342/342
f 343/343/343 344/344/344 345/345/345 346/346/346
f 347/347/347 348/348/348 349/349/349 350/350/350
f 351/351/351 352/352/352 353/353/353 354/354/354
f 355/355/355 356/356/356 357/357/357 358/358/358
f 359/359/359 360/360/360 361/361/361 362/362/362
f 363/363/363 364/364/364 365/365/365 366/366/366
f 367/367/367 368/368/368 369/369/369 370/370/370
