<?xml version='1.0' encoding='utf-8'?>
<COLLADA xmlns="http://www.collada.org/2005/11/COLLADASchema" version="1.4.1">
  <asset>
    <created>2026-07-27T16:58:12Z</created>
    <modified>2026-07-27T16:58:12Z</modified>
  </asset>
  <library_images>
    <image id="image-c8lb_bigice01">
      <init_from>c8lb_bigice01.png</init_from>
    </image>
    <image id="image-c8lb_bigice02">
      <init_from>c8lb_bigice02.png</init_from>
    </image>
    <image id="image-c8lb_bigice04">
      <init_from>c8lb_bigice04.png</init_from>
    </image>
  </library_images>
  <library_materials>
    <material id="material0" name="c8lb_bigice01">
      <instance_effect url="#effect0" />
    </material>
    <material id="material1" name="c8lb_bigice02">
      <instance_effect url="#effect1" />
    </material>
    <material id="material2" name="c8lb_bigice04">
      <instance_effect url="#effect2" />
    </material>
  </library_materials>
  <library_effects>
    <effect id="effect0" name="c8lb_bigice01">
      <profile_COMMON>
        <newparam sid="Image-surface">
          <surface type="2D">
            <init_from>image-c8lb_bigice01</init_from>
            <format>A8R8G8B8</format>
          </surface>
        </newparam>
        <newparam sid="Image-sampler">
          <sampler2D>
            <source>Image-surface</source>
            <wrap_s>WRAP</wrap_s>
            <wrap_t>WRAP</wrap_t>
            <minfilter>NEAREST</minfilter>
            <magfilter>NEAREST</magfilter>
            <mipfilter>NEAREST</mipfilter>
          </sampler2D>
        </newparam>
        <technique sid="common">
          <phong>
            <emission>
              <color>1 1 1 1</color>
            </emission>
            <ambient>
              <color>0 0 0 1</color>
            </ambient>
            <diffuse>
              <texture texture="Image-sampler" texcoord="tc" />
            </diffuse>
            <specular>
              <color>0 0 0 1</color>
            </specular>
            <transparent>
              <texture texture="Image-sampler" texcoord="tc" />
            </transparent>
          </phong>
        </technique>
      </profile_COMMON>
    </effect>
    <effect id="effect1" name="c8lb_bigice02">
      <profile_COMMON>
        <newparam sid="Image-surface">
          <surface type="2D">
            <init_from>image-c8lb_bigice02</init_from>
            <format>A8R8G8B8</format>
          </surface>
        </newparam>
        <newparam sid="Image-sampler">
          <sampler2D>
            <source>Image-surface</source>
            <wrap_s>WRAP</wrap_s>
            <wrap_t>WRAP</wrap_t>
            <minfilter>NEAREST</minfilter>
            <magfilter>NEAREST</magfilter>
            <mipfilter>NEAREST</mipfilter>
          </sampler2D>
        </newparam>
        <technique sid="common">
          <phong>
            <emission>
              <color>0.8064516 0.8064516 0.8064516 1</color>
            </emission>
            <ambient>
              <color>0 0 0 1</color>
            </ambient>
            <diffuse>
              <texture texture="Image-sampler" texcoord="tc" />
            </diffuse>
            <specular>
              <color>0 0 0 1</color>
            </specular>
          </phong>
        </technique>
      </profile_COMMON>
    </effect>
    <effect id="effect2" name="c8lb_bigice04">
      <profile_COMMON>
        <newparam sid="Image-surface">
          <surface type="2D">
            <init_from>image-c8lb_bigice04</init_from>
            <format>A8R8G8B8</format>
          </surface>
        </newparam>
        <newparam sid="Image-sampler">
          <sampler2D>
            <source>Image-surface</source>
            <wrap_s>MIRROR</wrap_s>
            <wrap_t>MIRROR</wrap_t>
            <minfilter>NEAREST</minfilter>
            <magfilter>NEAREST</magfilter>
            <mipfilter>NEAREST</mipfilter>
          </sampler2D>
        </newparam>
        <technique sid="common">
          <phong>
            <emission>
              <color>0.8064516 0.8064516 0.8064516 1</color>
            </emission>
            <ambient>
              <color>0 0 0 1</color>
            </ambient>
            <diffuse>
              <texture texture="Image-sampler" texcoord="tc" />
            </diffuse>
            <specular>
              <color>0 0 0 1</color>
            </specular>
            <transparent>
              <texture texture="Image-sampler" texcoord="tc" />
            </transparent>
          </phong>
        </technique>
      </profile_COMMON>
    </effect>
  </library_effects>
  <library_geometries>
    <geometry id="geometry" name="bigicicle_02">
      <mesh>
        <source id="positions">
          <float_array id="positions-array" count="315">-3.9472656 7.6035156 10.050781 14.576172 7.6035156 5.9140625 1.8886719 40.314453 -25.5625 18.753906 7.6035156 -7.5722656 15.3046875 7.6035156 -19.25 -12.087891 7.185547 -18.992188 -17.49414 7.6035156 -10.291016 1.8886719 40.314453 -25.5625 -16.38086 7.6035156 3.5585938 -3.9472656 7.6035156 10.050781 1.8886719 40.314453 -25.5625 -17.49414 7.6035156 -10.291016 -16.38086 7.6035156 3.5585938 1.8886719 40.314453 -25.5625 -7.4648438 7.232422 -18.089844 -11.7421875 7.232422 -7.080078 1.8085938 33.640625 -23.576172 10.041016 7.232422 1.4453125 14.246094 7.232422 -8.232422 1.8085938 33.640625 -23.576172 -2.1660156 7.232422 4.076172 10.041016 7.232422 1.4453125 1.8085938 33.640625 -23.576172 -10.28125 7.232422 1.1699219 -2.1660156 7.232422 4.076172 1.8085938 33.640625 -23.576172 -11.7421875 7.232422 -7.080078 -10.28125 7.232422 1.1699219 1.8085938 33.640625 -23.576172 14.246094 7.232422 -8.232422 12.341797 7.232422 -15.576172 1.8085938 33.640625 -23.576172 -12.144531 7 -7.0820313 -7.734375 7 -18.43164 -10.6875 7 -28.824219 -23.835938 7 -13.232422 12.683594 7 -15.839844 14.646484 7 -8.269531 24.919922 7 -7.767578 17.824219 7 -24.595703 -7.734375 7 -18.43164 12.683594 7 -15.839844 17.824219 7 -24.595703 -10.6875 7 -28.824219 -2.2714844 7 4.4179688 -10.638672 7 1.4238281 -22.332031 7 5.8203125 -5.6992188 7 15.671875 -10.638672 7 1.4238281 -12.144531 7 -7.0820313 -23.835938 7 -13.232422 -22.332031 7 5.8203125 10.3125 7 1.7070313 -2.2714844 7 4.4179688 -5.6992188 7 15.671875 19.3125 7 10.283203 14.646484 7 -8.269531 10.3125 7 1.7070313 19.3125 7 10.283203 24.919922 7 -7.767578 -11.121094 7.3632813 -16.902344 -15.097656 7.3632813 -8.662109 -9.474609 14.9765625 -11.716797 -7.513672 14.9765625 -17.072266 13.388672 7.3632813 4.6503906 16.257813 7.3632813 -8.34375 11.621094 14.9765625 -12.574219 8.5 14.9765625 -2.1484375 -3.1835938 7.3632813 7.6347656 13.388672 7.3632813 4.6503906 8.5 14.9765625 -2.1484375 -0.56640625 14.9765625 -0.6328125 -13.447266 7.3632813 2.515625 -3.1835938 7.3632813 7.6347656 -0.56640625 14.9765625 -0.6328125 -8.029297 14.9765625 -3.3457031 -15.097656 7.3632813 -8.662109 -13.447266 7.3632813 2.515625 -8.029297 14.9765625 -3.3457031 -9.474609 14.9765625 -11.716797 16.257813 7.3632813 -8.34375 14.058594 7.3632813 -16.822266 10.207031 14.9765625 -18.027344 11.621094 14.9765625 -12.574219 -7.734375 7 -18.43164 -12.144531 7 -7.0820313 0 7 -8 14.646484 7 -8.269531 12.683594 7 -15.839844 0 7 -8 12.683594 7 -15.839844 -7.734375 7 -18.43164 0 7 -8 -10.638672 7 1.4238281 -2.2714844 7 4.4179688 0 7 -8 -12.144531 7 -7.0820313 -10.638672 7 1.4238281 0 7 -8 -2.2714844 7 4.4179688 10.3125 7 1.7070313 0 7 -8 10.3125 7 1.7070313 14.646484 7 -8.269531 0 7 -8 </float_array>
          <technique_common>
            <accessor source="#positions-array" count="105" stride="3">
              <param name="X" type="float" />
              <param name="Y" type="float" />
              <param name="Z" type="float" />
            </accessor>
          </technique_common>
        </source>
        <source id="texcoords">
          <float_array id="texcoords-array" count="210">0.059570313 0.13085938 0.6767578 0.12011719 0.27929688 0.9091797 0.2548828 0.1640625 0.1875 0.034179688 0.24902344 0.82128906 0.36132813 0.31445313 0.3857422 0.3466797 0.060546875 0.044921875 0.5332031 0.02734375 0.22949219 0.890625 0.05078125 0.034179688 0.24316406 0.24804688 0.25390625 0.89746094 0.47265625 0.036132813 0.0146484375 0.03125 0.5361328 0.95996094 0.57128906 0.037109375 0.9580078 0.03515625 1.0009766 0.9277344 0.48242188 0.03515625 0.024414063 0.030273438 0.5361328 0.95996094 0.5839844 0.036132813 0.9707031 0.034179688 0.95703125 0.9472656 0.96777344 0.020507813 0.44921875 0.021484375 0.73046875 1.0722656 0.49414063 0.036132813 0.036132813 0.03125 0.4794922 0.9326172 -0.16015625 0.052734375 0.16015625 0.052734375 1 0.99609375 -1 0.99609375 -0.16015625 0.052734375 0.16015625 0.052734375 1 0.99609375 -1 0.99609375 -0.16015625 0.052734375 0.16015625 0.052734375 1 0.99609375 -1 0.99609375 -0.16015625 0.052734375 0.16015625 0.052734375 1 0.99609375 -1 0.99609375 -0.16015625 0.052734375 0.16015625 0.052734375 1 0.99609375 -1 0.99609375 -0.16015625 0.052734375 0.16015625 0.052734375 1 0.99609375 -1 0.99609375 -0.16015625 0.052734375 0.16015625 0.052734375 1 0.99609375 -1 0.99609375 0 0.02734375 -1 0.02734375 -1 0.97265625 0 0.97265625 0 0.02734375 -1 0.02734375 -1 0.97265625 0 0.97265625 0 0.02734375 -1 0.02734375 -1 0.97265625 0 0.97265625 0 0.02734375 -1 0.02734375 -1 0.97265625 0 0.97265625 0 0.02734375 -1 0.02734375 -1 0.97265625 0 0.97265625 0 0.02734375 -1 0.02734375 -1 0.97265625 0 0.97265625 0 0.052734375 0.16015625 0.052734375 -0.16015625 0.052734375 0 0.052734375 0.16015625 0.052734375 -0.16015625 0.052734375 0 0.052734375 0.16015625 0.052734375 -0.16015625 0.052734375 0 0.052734375 0.16015625 0.052734375 -0.16015625 0.052734375 0 0.052734375 0.16015625 0.052734375 -0.16015625 0.052734375 0 0.052734375 0.16015625 0.052734375 -0.16015625 0.052734375 0 0.052734375 0.16015625 0.052734375 -0.16015625 0.052734375 </float_array>
          <technique_common>
            <accessor source="#texcoords-array" count="105" stride="2">
              <param name="S" type="float" />
              <param name="T" type="float" />
            </accessor>
          </technique_common>
        </source>
        <source id="colors">
          <float_array id="colors-array" count="315">1 1 1 1 1 1 1 1 1 1 1 1 1 1 1 1 1 1 1 1 1 1 1 1 1 1 1 1 1 1 1 1 1 1 1 1 1 1 1 1 1 1 1 1 1 1 1 1 1 1 1 1 1 1 1 1 1 1 1 1 1 1 1 1 1 1 1 1 1 1 1 1 1 1 1 1 1 1 1 1 1 1 1 1 1 1 1 1 1 1 1 1 1 1 1 1 1 1 1 1 1 1 1 1 1 1 1 1 1 1 1 1 1 1 1 1 1 1 1 1 1 1 1 1 1 1 1 1 1 1 1 1 1 1 1 1 1 1 1 1 1 1 1 1 1 1 1 1 1 1 1 1 1 1 1 1 1 1 1 1 1 1 1 1 1 1 1 1 1 1 1 1 1 1 1 1 1 1 1 1 1 1 1 1 1 1 1 1 1 1 1 1 1 1 1 1 1 1 1 1 1 1 1 1 1 1 1 1 1 1 1 1 1 1 1 1 1 1 1 1 1 1 1 1 1 1 1 1 1 1 1 1 1 1 1 1 1 1 1 1 1 1 1 1 1 1 1 1 1 1 1 1 1 1 1 1 1 1 1 1 1 1 1 1 1 1 1 1 1 1 1 1 1 1 1 1 1 1 1 1 1 1 1 1 1 1 1 1 1 1 1 1 1 1 1 1 1 1 1 1 1 1 1 1 1 1 1 1 1 1 1 1 1 1 1 </float_array>
          <technique_common>
            <accessor source="#colors-array" count="105" stride="3">
              <param name="R" type="float" />
              <param name="G" type="float" />
              <param name="B" type="float" />
            </accessor>
          </technique_common>
        </source>
        <source id="normals">
          <float_array id="normals-array" count="315">0 1 0 0 1 0 0 1 0 0 1 0 0 1 0 0 1 0 0 1 0 0 1 0 0 1 0 0 1 0 0 1 0 0 1 0 0 1 0 0 1 0 -0.903866 0.24402429 -0.35139498 -0.903866 0.24402429 -0.35139498 -0.903866 0.24402429 -0.35139498 0.7640713 0.55302346 0.3322049 0.7640713 0.55302346 0.3322049 0.7640713 0.55302346 0.3322049 0.15035306 0.704902 0.6931862 0.15035306 0.704902 0.6931862 0.15035306 0.704902 0.6931862 -0.23441748 0.7188803 0.6544155 -0.23441748 0.7188803 0.6544155 -0.23441748 0.7188803 0.6544155 -0.83927405 0.52308244 0.14833681 -0.83927405 0.52308244 0.14833681 -0.83927405 0.52308244 0.14833681 0.924149 0.29697812 -0.2403178 0.924149 0.29697812 -0.2403178 0.924149 0.29697812 -0.2403178 0 1 0 0 1 0 0 1 0 0 1 0 0 1 0 0 1 0 0 1 0 0 1 0 0 1 0 0 1 0 0 1 0 0 1 0 0 1 0 0 1 0 0 1 0 0 1 0 0 1 0 0 1 0 0 1 0 0 1 0 0 1 0 0 1 0 0 1 0 0 1 0 0 1 0 0 1 0 0 1 0 0 1 0 0 1 0 0 1 0 0 1 0 0 1 0 0 1 0 0 1 0 0 1 0 0 1 0 0 1 0 0 1 0 0 1 0 0 1 0 0 1 0 0 1 0 0 1 0 0 1 0 0 1 0 0 1 0 0 1 0 0 1 0 0 1 0 0 1 0 0 1 0 0 1 0 0 1 0 0 1 0 0 1 0 0 1 0 0 1 0 0 1 0 0 1 0 0 1 0 0 1 0 0 1 0 0 1 0 0 1 0 0 1 0 0 1 0 0 1 0 0 1 0 0 1 0 0 1 0 0 1 0 0 1 0 0 1 0 </float_array>
          <technique_common>
            <accessor source="#normals-array" count="105" stride="3">
              <param name="X" type="float" />
              <param name="Y" type="float" />
              <param name="Z" type="float" />
            </accessor>
          </technique_common>
        </source>
        <vertices id="vertices">
          <input semantic="POSITION" source="#positions" />
          <input semantic="TEXCOORD" source="#texcoords" />
          <input semantic="COLOR" source="#colors" />
          <input semantic="NORMAL" source="#normals" />
        </vertices>
        <polylist material="material0" count="6">
          <input semantic="VERTEX" source="#vertices" offset="0" />
          <vcount>3 3 3 3 3 3 </vcount>
          <p>0 1 2 1 3 2 2 3 4 5 6 7 8 9 10 11 12 13 </p>
        </polylist>
        <polylist material="material1" count="6">
          <input semantic="VERTEX" source="#vertices" offset="0" />
          <vcount>3 3 3 3 3 3 </vcount>
          <p>14 15 16 17 18 19 20 21 22 23 24 25 26 27 28 29 30 31 </p>
        </polylist>
        <polylist material="material2" count="20">
          <input semantic="VERTEX" source="#vertices" offset="0" />
          <vcount>4 4 4 4 4 4 4 4 4 4 4 4 4 3 3 3 3 3 3 3 </vcount>
          <p>32 33 34 35 36 37 38 39 40 41 42 43 44 45 46 47 48 49 50 51 52 53 54 55 56 57 58 59 60 61 62 63 64 65 66 67 68 69 70 71 72 73 74 75 76 77 78 79 80 81 82 83 84 85 86 87 88 89 90 91 92 93 94 95 96 97 98 99 100 101 102 103 104 </p>
        </polylist>
      </mesh>
    </geometry>
  </library_geometries>
  <library_visual_scenes>
    <visual_scene id="scene0" name="bigicicle_02">
      <node id="node" name="bigicicle_02" type="NODE">
        <instance_geometry url="#geometry">
          <bind_material>
            <technique_common>
              <instance_material symbol="material0" target="#material0">
                <bind_vertex_input semantic="tc" input_semantic="TEXCOORD" />
              </instance_material>
              <instance_material symbol="material1" target="#material1">
                <bind_vertex_input semantic="tc" input_semantic="TEXCOORD" />
              </instance_material>
              <instance_material symbol="material2" target="#material2">
                <bind_vertex_input semantic="tc" input_semantic="TEXCOORD" />
              </instance_material>
            </technique_common>
          </bind_material>
        </instance_geometry>
      </node>
    </visual_scene>
  </library_visual_scenes>
  <scene>
    <instance_visual_scene url="#scene0" />
  </scene>
</COLLADA>