# Découpé dans Celestial Tower Area 1 par tools/maps/build_expedition_kits.py
mtllib celestial_tomb.mtl
usemtl tomb02_tomb02
v 4.3594 12.6062 12.5625 1.0000 1.0000 1.0000
vt 0.00000 0.21875
v 5.7188 12.6062 11.2188 1.0000 1.0000 1.0000
vt 0.10938 0.25000
v 5.7188 12.6062 -3.7031 0.6157 0.6157 0.6157
vt 0.10938 0.90625
f 1/1 2/2 3/3
v 4.3594 12.6062 12.5625 1.0000 1.0000 1.0000
vt 0.00000 0.21875
v 5.7188 12.6062 -3.7031 0.6157 0.6157 0.6157
vt 0.10938 0.90625
v 4.3594 12.6062 -5.0625 0.6157 0.6157 0.6157
vt 0.00000 0.90625
f 4/4 5/5 6/6
v 4.3594 12.6062 -5.0625 0.6157 0.6157 0.6157
vt 0.00000 0.90625
v 5.7188 12.6062 -3.7031 0.6157 0.6157 0.6157
vt 0.10938 0.90625
v 6.7656 12.6062 -4.7656 0.6157 0.6157 0.6157
vt 0.14062 0.96875
f 7/7 8/8 9/9
v 4.3594 12.6062 -5.0625 0.6157 0.6157 0.6157
vt 0.00000 0.90625
v 6.7656 12.6062 -4.7656 0.6157 0.6157 0.6157
vt 0.14062 0.96875
v 5.6406 12.6062 -6.3281 0.6157 0.6157 0.6157
vt 0.06250 1.00000
f 10/10 11/11 12/12
v 5.6406 12.6062 -6.3281 0.6157 0.6157 0.6157
vt 0.06250 1.00000
v 6.7656 12.6062 -4.7656 0.6157 0.6157 0.6157
vt 0.14062 0.96875
v 17.2344 12.6062 -4.7656 0.6157 0.6157 0.6157
vt 0.61133 0.96875
f 13/13 14/14 15/15
v 5.6406 12.6062 -6.3281 0.6157 0.6157 0.6157
vt 0.06250 1.00000
v 17.2344 12.6062 -4.7656 0.6157 0.6157 0.6157
vt 0.61133 0.96875
v 18.3594 12.6062 -6.3281 0.6157 0.6157 0.6157
vt 0.68750 1.00000
f 16/16 17/17 18/18
v 18.3594 12.6062 -6.3281 0.6157 0.6157 0.6157
vt 0.68750 1.00000
v 17.2344 12.6062 -4.7656 0.6157 0.6157 0.6157
vt 0.61133 0.96875
v 18.2812 12.6062 -3.7031 0.6157 0.6157 0.6157
vt 0.64258 0.90625
f 19/19 20/20 21/21
v 18.3594 12.6062 -6.3281 0.6157 0.6157 0.6157
vt 0.68750 1.00000
v 18.2812 12.6062 -3.7031 0.6157 0.6157 0.6157
vt 0.64258 0.90625
v 19.6406 12.6062 -5.0625 0.6157 0.6157 0.6157
vt 0.75000 0.90625
f 22/22 23/23 24/24
v 19.6406 12.6062 -5.0625 0.6157 0.6157 0.6157
vt 0.75000 0.90625
v 18.2812 12.6062 -3.7031 0.6157 0.6157 0.6157
vt 0.64258 0.90625
v 18.2812 12.6062 11.2188 1.0000 1.0000 1.0000
vt 0.64258 0.25000
f 25/25 26/26 27/27
v 19.6406 12.6062 -5.0625 0.6157 0.6157 0.6157
vt 0.75000 0.90625
v 18.2812 12.6062 11.2188 1.0000 1.0000 1.0000
vt 0.64258 0.25000
v 19.6406 12.6062 12.5625 1.0000 1.0000 1.0000
vt 0.75000 0.21875
f 28/28 29/29 30/30
v 19.6406 12.6062 12.5625 1.0000 1.0000 1.0000
vt 0.75000 0.21875
v 18.2812 12.6062 11.2188 1.0000 1.0000 1.0000
vt 0.64258 0.25000
v 17.2344 12.6062 12.2656 1.0000 1.0000 1.0000
vt 0.61133 0.18750
f 31/31 32/32 33/33
v 19.6406 12.6062 12.5625 1.0000 1.0000 1.0000
vt 0.75000 0.21875
v 17.2344 12.6062 12.2656 1.0000 1.0000 1.0000
vt 0.61133 0.18750
v 18.3594 12.6062 13.8438 1.0000 1.0000 1.0000
vt 0.68750 0.15625
f 34/34 35/35 36/36
v 18.3594 12.6062 13.8438 1.0000 1.0000 1.0000
vt 0.68750 0.15625
v 17.2344 12.6062 12.2656 1.0000 1.0000 1.0000
vt 0.61133 0.18750
v 6.7656 12.6062 12.2656 1.0000 1.0000 1.0000
vt 0.14062 0.18750
f 37/37 38/38 39/39
v 18.3594 12.6062 13.8438 1.0000 1.0000 1.0000
vt 0.68750 0.15625
v 6.7656 12.6062 12.2656 1.0000 1.0000 1.0000
vt 0.14062 0.18750
v 5.6406 12.6062 13.8438 1.0000 1.0000 1.0000
vt 0.06250 0.15625
f 40/40 41/41 42/42
v 5.6406 12.6062 13.8438 1.0000 1.0000 1.0000
vt 0.06250 0.15625
v 6.7656 12.6062 12.2656 1.0000 1.0000 1.0000
vt 0.14062 0.18750
v 5.7188 12.6062 11.2188 1.0000 1.0000 1.0000
vt 0.10938 0.25000
f 43/43 44/44 45/45
v 5.6406 12.6062 13.8438 1.0000 1.0000 1.0000
vt 0.06250 0.15625
v 5.7188 12.6062 11.2188 1.0000 1.0000 1.0000
vt 0.10938 0.25000
v 4.3594 12.6062 12.5625 1.0000 1.0000 1.0000
vt 0.00000 0.21875
f 46/46 47/47 48/48
v -19.6406 12.6062 12.5625 1.0000 1.0000 1.0000
vt 0.00000 0.21875
v -18.2812 12.6062 11.2188 1.0000 1.0000 1.0000
vt 0.10938 0.25000
v -18.2812 12.6062 -3.7031 0.6157 0.6157 0.6157
vt 0.10938 0.90625
f 49/49 50/50 51/51
v -19.6406 12.6062 12.5625 1.0000 1.0000 1.0000
vt 0.00000 0.21875
v -18.2812 12.6062 -3.7031 0.6157 0.6157 0.6157
vt 0.10938 0.90625
v -19.6406 12.6062 -5.0625 0.6157 0.6157 0.6157
vt 0.00000 0.90625
f 52/52 53/53 54/54
v -19.6406 12.6062 -5.0625 0.6157 0.6157 0.6157
vt 0.00000 0.90625
v -18.2812 12.6062 -3.7031 0.6157 0.6157 0.6157
vt 0.10938 0.90625
v -17.2344 12.6062 -4.7656 0.6157 0.6157 0.6157
vt 0.14062 0.96875
f 55/55 56/56 57/57
v -19.6406 12.6062 -5.0625 0.6157 0.6157 0.6157
vt 0.00000 0.90625
v -17.2344 12.6062 -4.7656 0.6157 0.6157 0.6157
vt 0.14062 0.96875
v -18.3594 12.6062 -6.3281 0.6157 0.6157 0.6157
vt 0.06250 1.00000
f 58/58 59/59 60/60
v -18.3594 12.6062 -6.3281 0.6157 0.6157 0.6157
vt 0.06250 1.00000
v -17.2344 12.6062 -4.7656 0.6157 0.6157 0.6157
vt 0.14062 0.96875
v -6.7656 12.6062 -4.7656 0.6157 0.6157 0.6157
vt 0.61133 0.96875
f 61/61 62/62 63/63
v -18.3594 12.6062 -6.3281 0.6157 0.6157 0.6157
vt 0.06250 1.00000
v -6.7656 12.6062 -4.7656 0.6157 0.6157 0.6157
vt 0.61133 0.96875
v -5.6406 12.6062 -6.3281 0.6157 0.6157 0.6157
vt 0.68750 1.00000
f 64/64 65/65 66/66
v -5.6406 12.6062 -6.3281 0.6157 0.6157 0.6157
vt 0.68750 1.00000
v -6.7656 12.6062 -4.7656 0.6157 0.6157 0.6157
vt 0.61133 0.96875
v -5.7188 12.6062 -3.7031 0.6157 0.6157 0.6157
vt 0.64258 0.90625
f 67/67 68/68 69/69
v -5.6406 12.6062 -6.3281 0.6157 0.6157 0.6157
vt 0.68750 1.00000
v -5.7188 12.6062 -3.7031 0.6157 0.6157 0.6157
vt 0.64258 0.90625
v -4.3594 12.6062 -5.0625 0.6157 0.6157 0.6157
vt 0.75000 0.90625
f 70/70 71/71 72/72
v -4.3594 12.6062 -5.0625 0.6157 0.6157 0.6157
vt 0.75000 0.90625
v -5.7188 12.6062 -3.7031 0.6157 0.6157 0.6157
vt 0.64258 0.90625
v -5.7188 12.6062 11.2188 1.0000 1.0000 1.0000
vt 0.64258 0.25000
f 73/73 74/74 75/75
v -4.3594 12.6062 -5.0625 0.6157 0.6157 0.6157
vt 0.75000 0.90625
v -5.7188 12.6062 11.2188 1.0000 1.0000 1.0000
vt 0.64258 0.25000
v -4.3594 12.6062 12.5625 1.0000 1.0000 1.0000
vt 0.75000 0.21875
f 76/76 77/77 78/78
v -4.3594 12.6062 12.5625 1.0000 1.0000 1.0000
vt 0.75000 0.21875
v -5.7188 12.6062 11.2188 1.0000 1.0000 1.0000
vt 0.64258 0.25000
v -6.7656 12.6062 12.2656 1.0000 1.0000 1.0000
vt 0.61133 0.18750
f 79/79 80/80 81/81
v -4.3594 12.6062 12.5625 1.0000 1.0000 1.0000
vt 0.75000 0.21875
v -6.7656 12.6062 12.2656 1.0000 1.0000 1.0000
vt 0.61133 0.18750
v -5.6406 12.6062 13.8438 1.0000 1.0000 1.0000
vt 0.68750 0.15625
f 82/82 83/83 84/84
v -5.6406 12.6062 13.8438 1.0000 1.0000 1.0000
vt 0.68750 0.15625
v -6.7656 12.6062 12.2656 1.0000 1.0000 1.0000
vt 0.61133 0.18750
v -17.2344 12.6062 12.2656 1.0000 1.0000 1.0000
vt 0.14062 0.18750
f 85/85 86/86 87/87
v -5.6406 12.6062 13.8438 1.0000 1.0000 1.0000
vt 0.68750 0.15625
v -17.2344 12.6062 12.2656 1.0000 1.0000 1.0000
vt 0.14062 0.18750
v -18.3594 12.6062 13.8438 1.0000 1.0000 1.0000
vt 0.06250 0.15625
f 88/88 89/89 90/90
v -18.3594 12.6062 13.8438 1.0000 1.0000 1.0000
vt 0.06250 0.15625
v -17.2344 12.6062 12.2656 1.0000 1.0000 1.0000
vt 0.14062 0.18750
v -18.2812 12.6062 11.2188 1.0000 1.0000 1.0000
vt 0.10938 0.25000
f 91/91 92/92 93/93
v -18.3594 12.6062 13.8438 1.0000 1.0000 1.0000
vt 0.06250 0.15625
v -18.2812 12.6062 11.2188 1.0000 1.0000 1.0000
vt 0.10938 0.25000
v -19.6406 12.6062 12.5625 1.0000 1.0000 1.0000
vt 0.00000 0.21875
f 94/94 95/95 96/96
v -28.0000 6.2000 15.8594 0.6157 0.6157 0.6157
vt 0.86523 0.38672
v -25.9531 6.2000 14.0938 0.3725 0.3725 0.3725
vt 0.86719 0.38672
v -25.9531 6.2000 -6.9688 0.3725 0.3725 0.3725
vt 0.86719 0.40430
f 97/97 98/98 99/99
v -28.0000 6.2000 15.8594 0.6157 0.6157 0.6157
vt 0.86523 0.38672
v -25.9531 6.2000 -6.9688 0.3725 0.3725 0.3725
vt 0.86719 0.40430
v -28.0000 6.2000 -8.0000 1.0000 1.0000 1.0000
vt 0.86523 0.40430
f 100/100 101/101 102/102
v -28.0000 6.2000 -8.0000 1.0000 1.0000 1.0000
vt 0.86523 0.40430
v -25.9531 6.2000 -6.9688 0.3725 0.3725 0.3725
vt 0.86719 0.40430
v -24.2812 6.2000 -8.6250 0.3725 0.3725 0.3725
vt 0.86719 0.40430
f 103/103 104/104 105/105
v -28.0000 6.2000 -8.0000 1.0000 1.0000 1.0000
vt 0.86523 0.40430
v -24.2812 6.2000 -8.6250 0.3725 0.3725 0.3725
vt 0.86719 0.40430
v -26.0000 6.2000 -10.0000 1.0000 1.0000 1.0000
vt 0.86719 0.40625
f 106/106 107/107 108/108
v -26.0000 6.2000 -10.0000 1.0000 1.0000 1.0000
vt 0.86719 0.40625
v -24.2812 6.2000 -8.6250 0.3725 0.3725 0.3725
vt 0.86719 0.40430
v 24.2812 6.2000 -8.6250 0.3725 0.3725 0.3725
vt 0.88086 0.40430
f 109/109 110/110 111/111
v -26.0000 6.2000 -10.0000 1.0000 1.0000 1.0000
vt 0.86719 0.40625
v 24.2812 6.2000 -8.6250 0.3725 0.3725 0.3725
vt 0.88086 0.40430
v 26.0000 6.2000 -10.0000 1.0000 1.0000 1.0000
vt 0.88086 0.40625
f 112/112 113/113 114/114
v 26.0000 6.2000 -10.0000 1.0000 1.0000 1.0000
vt 0.88086 0.40625
v 24.2812 6.2000 -8.6250 0.3725 0.3725 0.3725
vt 0.88086 0.40430
v 25.9531 6.2000 -6.9688 0.3725 0.3725 0.3725
vt 0.88086 0.40430
f 115/115 116/116 117/117
v 26.0000 6.2000 -10.0000 1.0000 1.0000 1.0000
vt 0.88086 0.40625
v 25.9531 6.2000 -6.9688 0.3725 0.3725 0.3725
vt 0.88086 0.40430
v 28.0000 6.2000 -8.0000 1.0000 1.0000 1.0000
vt 0.88281 0.40430
f 118/118 119/119 120/120
v 28.0000 6.2000 -8.0000 1.0000 1.0000 1.0000
vt 0.88281 0.40430
v 25.9531 6.2000 -6.9688 0.3725 0.3725 0.3725
vt 0.88086 0.40430
v 25.9531 6.2000 14.0938 0.3725 0.3725 0.3725
vt 0.88086 0.38672
f 121/121 122/122 123/123
v 28.0000 6.2000 -8.0000 1.0000 1.0000 1.0000
vt 0.88281 0.40430
v 25.9531 6.2000 14.0938 0.3725 0.3725 0.3725
vt 0.88086 0.38672
v 28.0000 6.2000 15.8594 0.6157 0.6157 0.6157
vt 0.88281 0.38672
f 124/124 125/125 126/126
v 28.0000 6.2000 15.8594 0.6157 0.6157 0.6157
vt 0.88281 0.38672
v 25.9531 6.2000 14.0938 0.3725 0.3725 0.3725
vt 0.88086 0.38672
v 24.2812 6.2000 15.7500 0.3725 0.3725 0.3725
vt 0.88086 0.38672
f 127/127 128/128 129/129
v 26.8594 6.2000 17.0000 0.6157 0.6157 0.6157
vt 0.88170 0.38561
v 28.0000 6.2000 15.8594 0.6157 0.6157 0.6157
vt 0.88281 0.38672
v 24.2812 6.2000 15.7500 0.3725 0.3725 0.3725
vt 0.88086 0.38672
f 130/130 131/131 132/132
v 26.8594 6.2000 17.0000 0.6157 0.6157 0.6157
vt 0.88170 0.38561
v 24.2812 6.2000 15.7500 0.3725 0.3725 0.3725
vt 0.88086 0.38672
v 25.2997 6.2000 17.0000 0.5166 0.5166 0.5166
vt 0.88086 0.38556
f 133/133 134/134 135/135
v 5.5147 6.2000 17.0000 0.5166 0.5166 0.5166
vt 0.87529 0.38556
v 25.2997 6.2000 17.0000 0.5166 0.5166 0.5166
vt 0.88086 0.38556
v 24.2812 6.2000 15.7500 0.3725 0.3725 0.3725
vt 0.88086 0.38672
f 136/136 137/137 138/138
v 5.5147 6.2000 17.0000 0.5166 0.5166 0.5166
vt 0.87529 0.38556
v 24.2812 6.2000 15.7500 0.3725 0.3725 0.3725
vt 0.88086 0.38672
v -24.2812 6.2000 15.7500 0.3725 0.3725 0.3725
vt 0.86719 0.38672
f 139/139 140/140 141/141
v 5.5147 6.2000 17.0000 0.5166 0.5166 0.5166
vt 0.87529 0.38556
v -24.2812 6.2000 15.7500 0.3725 0.3725 0.3725
vt 0.86719 0.38672
v -25.2997 6.2000 17.0000 0.5166 0.5166 0.5166
vt 0.86719 0.38556
f 142/142 143/143 144/144
v -25.9893 6.2000 17.0000 0.5602 0.5602 0.5602
vt 0.86719 0.38522
v -25.2997 6.2000 17.0000 0.5166 0.5166 0.5166
vt 0.86719 0.38556
v -24.2812 6.2000 15.7500 0.3725 0.3725 0.3725
vt 0.86719 0.38672
f 145/145 146/146 147/147
v -25.9893 6.2000 17.0000 0.5602 0.5602 0.5602
vt 0.86719 0.38522
v -24.2812 6.2000 15.7500 0.3725 0.3725 0.3725
vt 0.86719 0.38672
v -25.9531 6.2000 14.0938 0.3725 0.3725 0.3725
vt 0.86719 0.38672
f 148/148 149/149 150/150
v -26.8594 6.2000 17.0000 0.6157 0.6157 0.6157
vt 0.86635 0.38561
v -25.9893 6.2000 17.0000 0.5602 0.5602 0.5602
vt 0.86719 0.38522
v -25.9531 6.2000 14.0938 0.3725 0.3725 0.3725
vt 0.86719 0.38672
f 151/151 152/152 153/153
v -26.8594 6.2000 17.0000 0.6157 0.6157 0.6157
vt 0.86635 0.38561
v -25.9531 6.2000 14.0938 0.3725 0.3725 0.3725
vt 0.86719 0.38672
v -28.0000 6.2000 15.8594 0.6157 0.6157 0.6157
vt 0.86523 0.38672
f 154/154 155/155 156/156
v -17.2344 12.6062 12.2656 0.6157 0.6157 0.6157
vt 0.14062 0.18750
v -6.7656 12.6062 12.2656 0.6157 0.6157 0.6157
vt 0.61133 0.18750
v -5.7188 12.6062 11.2188 0.6157 0.6157 0.6157
vt 0.64258 0.25000
f 157/157 158/158 159/159
v -17.2344 12.6062 12.2656 0.6157 0.6157 0.6157
vt 0.14062 0.18750
v -5.7188 12.6062 11.2188 0.6157 0.6157 0.6157
vt 0.64258 0.25000
v -18.2812 12.6062 11.2188 0.6157 0.6157 0.6157
vt 0.10938 0.25000
f 160/160 161/161 162/162
v -18.2812 12.6062 11.2188 0.6157 0.6157 0.6157
vt 0.10938 0.25000
v -5.7188 12.6062 11.2188 0.6157 0.6157 0.6157
vt 0.64258 0.25000
v -5.7188 12.6062 -3.7031 1.0000 1.0000 1.0000
vt 0.64258 0.90625
f 163/163 164/164 165/165
v -18.2812 12.6062 11.2188 0.6157 0.6157 0.6157
vt 0.10938 0.25000
v -5.7188 12.6062 -3.7031 1.0000 1.0000 1.0000
vt 0.64258 0.90625
v -18.2812 12.6062 -3.7031 1.0000 1.0000 1.0000
vt 0.10938 0.90625
f 166/166 167/167 168/168
v -18.2812 12.6062 -3.7031 1.0000 1.0000 1.0000
vt 0.10938 0.90625
v -5.7188 12.6062 -3.7031 1.0000 1.0000 1.0000
vt 0.64258 0.90625
v -6.7656 12.6062 -4.7656 1.0000 1.0000 1.0000
vt 0.61133 0.96875
f 169/169 170/170 171/171
v -18.2812 12.6062 -3.7031 1.0000 1.0000 1.0000
vt 0.10938 0.90625
v -6.7656 12.6062 -4.7656 1.0000 1.0000 1.0000
vt 0.61133 0.96875
v -17.2344 12.6062 -4.7656 1.0000 1.0000 1.0000
vt 0.14062 0.96875
f 172/172 173/173 174/174
v -21.9531 10.6062 -6.9688 0.3333 0.3333 0.3333
vt 0.88672 0.42188
v -19.6406 12.6062 -5.0625 0.3333 0.3333 0.3333
vt 0.88867 0.42188
v -18.3594 12.6062 -6.3281 0.3333 0.3333 0.3333
vt 0.88867 0.42188
f 175/175 176/176 177/177
v -21.9531 10.6062 -6.9688 0.3333 0.3333 0.3333
vt 0.88672 0.42188
v -18.3594 12.6062 -6.3281 0.3333 0.3333 0.3333
vt 0.88867 0.42188
v -20.2812 10.6062 -8.6250 0.3333 0.3333 0.3333
vt 0.88867 0.42383
f 178/178 179/179 180/180
v -20.2812 10.6062 -8.6250 0.3333 0.3333 0.3333
vt 0.88867 0.42383
v -18.3594 12.6062 -6.3281 0.3333 0.3333 0.3333
vt 0.88867 0.42188
v -5.6406 12.6062 -6.3281 0.3333 0.3333 0.3333
vt 0.89844 0.42188
f 181/181 182/182 183/183
v -20.2812 10.6062 -8.6250 0.3333 0.3333 0.3333
vt 0.88867 0.42383
v -5.6406 12.6062 -6.3281 0.3333 0.3333 0.3333
vt 0.89844 0.42188
v -3.7188 10.6062 -8.6250 0.3333 0.3333 0.3333
vt 0.90039 0.42383
f 184/184 185/185 186/186
v -3.7188 10.6062 -8.6250 0.3333 0.3333 0.3333
vt 0.90039 0.42383
v -5.6406 12.6062 -6.3281 0.3333 0.3333 0.3333
vt 0.89844 0.42188
v -4.3594 12.6062 -5.0625 0.3333 0.3333 0.3333
vt 0.90039 0.42188
f 187/187 188/188 189/189
v -3.7188 10.6062 -8.6250 0.3333 0.3333 0.3333
vt 0.90039 0.42383
v -4.3594 12.6062 -5.0625 0.3333 0.3333 0.3333
vt 0.90039 0.42188
v -2.0469 10.6062 -6.9688 0.3333 0.3333 0.3333
vt 0.90039 0.42188
f 190/190 191/191 192/192
v -2.0469 10.6062 14.0938 0.6157 0.6157 0.6157
vt 0.90039 0.40625
v -4.3594 12.6062 12.5625 0.6157 0.6157 0.6157
vt 0.90039 0.40820
v -5.6406 12.6062 13.8438 0.6157 0.6157 0.6157
vt 0.89844 0.40625
f 193/193 194/194 195/195
v -2.0469 10.6062 14.0938 0.6157 0.6157 0.6157
vt 0.90039 0.40625
v -5.6406 12.6062 13.8438 0.6157 0.6157 0.6157
vt 0.89844 0.40625
v -3.7188 10.6062 15.7500 0.6157 0.6157 0.6157
vt 0.90039 0.40430
f 196/196 197/197 198/198
v -3.7188 10.6062 15.7500 0.6157 0.6157 0.6157
vt 0.90039 0.40430
v -5.6406 12.6062 13.8438 0.6157 0.6157 0.6157
vt 0.89844 0.40625
v -18.3594 12.6062 13.8438 0.6157 0.6157 0.6157
vt 0.88867 0.40625
f 199/199 200/200 201/201
v -3.7188 10.6062 15.7500 0.6157 0.6157 0.6157
vt 0.90039 0.40430
v -18.3594 12.6062 13.8438 0.6157 0.6157 0.6157
vt 0.88867 0.40625
v -20.2812 10.6062 15.7500 0.6157 0.6157 0.6157
vt 0.88867 0.40430
f 202/202 203/203 204/204
v -20.2812 10.6062 15.7500 0.6157 0.6157 0.6157
vt 0.88867 0.40430
v -18.3594 12.6062 13.8438 0.6157 0.6157 0.6157
vt 0.88867 0.40625
v -19.6406 12.6062 12.5625 0.6157 0.6157 0.6157
vt 0.88867 0.40820
f 205/205 206/206 207/207
v -20.2812 10.6062 15.7500 0.6157 0.6157 0.6157
vt 0.88867 0.40430
v -19.6406 12.6062 12.5625 0.6157 0.6157 0.6157
vt 0.88867 0.40820
v -21.9531 10.6062 14.0938 0.6157 0.6157 0.6157
vt 0.88672 0.40625
f 208/208 209/209 210/210
v 6.7656 12.6062 12.2656 0.6157 0.6157 0.6157
vt 0.14062 0.18750
v 17.2344 12.6062 12.2656 0.6157 0.6157 0.6157
vt 0.61133 0.18750
v 18.2812 12.6062 11.2188 0.6157 0.6157 0.6157
vt 0.64258 0.25000
f 211/211 212/212 213/213
v 6.7656 12.6062 12.2656 0.6157 0.6157 0.6157
vt 0.14062 0.18750
v 18.2812 12.6062 11.2188 0.6157 0.6157 0.6157
vt 0.64258 0.25000
v 5.7188 12.6062 11.2188 0.6157 0.6157 0.6157
vt 0.10938 0.25000
f 214/214 215/215 216/216
v 5.7188 12.6062 11.2188 0.6157 0.6157 0.6157
vt 0.10938 0.25000
v 18.2812 12.6062 11.2188 0.6157 0.6157 0.6157
vt 0.64258 0.25000
v 18.2812 12.6062 -3.7031 1.0000 1.0000 1.0000
vt 0.64258 0.90625
f 217/217 218/218 219/219
v 5.7188 12.6062 11.2188 0.6157 0.6157 0.6157
vt 0.10938 0.25000
v 18.2812 12.6062 -3.7031 1.0000 1.0000 1.0000
vt 0.64258 0.90625
v 5.7188 12.6062 -3.7031 1.0000 1.0000 1.0000
vt 0.10938 0.90625
f 220/220 221/221 222/222
v 5.7188 12.6062 -3.7031 1.0000 1.0000 1.0000
vt 0.10938 0.90625
v 18.2812 12.6062 -3.7031 1.0000 1.0000 1.0000
vt 0.64258 0.90625
v 17.2344 12.6062 -4.7656 1.0000 1.0000 1.0000
vt 0.61133 0.96875
f 223/223 224/224 225/225
v 5.7188 12.6062 -3.7031 1.0000 1.0000 1.0000
vt 0.10938 0.90625
v 17.2344 12.6062 -4.7656 1.0000 1.0000 1.0000
vt 0.61133 0.96875
v 6.7656 12.6062 -4.7656 1.0000 1.0000 1.0000
vt 0.14062 0.96875
f 226/226 227/227 228/228
v 2.0469 10.6062 -6.9688 0.3333 0.3333 0.3333
vt 0.88672 0.42188
v 4.3594 12.6062 -5.0625 0.3333 0.3333 0.3333
vt 0.88867 0.42188
v 5.6406 12.6062 -6.3281 0.3333 0.3333 0.3333
vt 0.88867 0.42188
f 229/229 230/230 231/231
v 2.0469 10.6062 -6.9688 0.3333 0.3333 0.3333
vt 0.88672 0.42188
v 5.6406 12.6062 -6.3281 0.3333 0.3333 0.3333
vt 0.88867 0.42188
v 3.7188 10.6062 -8.6250 0.3333 0.3333 0.3333
vt 0.88867 0.42383
f 232/232 233/233 234/234
v 3.7188 10.6062 -8.6250 0.3333 0.3333 0.3333
vt 0.88867 0.42383
v 5.6406 12.6062 -6.3281 0.3333 0.3333 0.3333
vt 0.88867 0.42188
v 18.3594 12.6062 -6.3281 0.3333 0.3333 0.3333
vt 0.89844 0.42188
f 235/235 236/236 237/237
v 3.7188 10.6062 -8.6250 0.3333 0.3333 0.3333
vt 0.88867 0.42383
v 18.3594 12.6062 -6.3281 0.3333 0.3333 0.3333
vt 0.89844 0.42188
v 20.2812 10.6062 -8.6250 0.3333 0.3333 0.3333
vt 0.90039 0.42383
f 238/238 239/239 240/240
v 20.2812 10.6062 -8.6250 0.3333 0.3333 0.3333
vt 0.90039 0.42383
v 18.3594 12.6062 -6.3281 0.3333 0.3333 0.3333
vt 0.89844 0.42188
v 19.6406 12.6062 -5.0625 0.3333 0.3333 0.3333
vt 0.90039 0.42188
f 241/241 242/242 243/243
v 20.2812 10.6062 -8.6250 0.3333 0.3333 0.3333
vt 0.90039 0.42383
v 19.6406 12.6062 -5.0625 0.3333 0.3333 0.3333
vt 0.90039 0.42188
v 21.9531 10.6062 -6.9688 0.3333 0.3333 0.3333
vt 0.90039 0.42188
f 244/244 245/245 246/246
v 21.9531 10.6062 14.0938 0.6157 0.6157 0.6157
vt 0.90039 0.40625
v 19.6406 12.6062 12.5625 0.6157 0.6157 0.6157
vt 0.90039 0.40820
v 18.3594 12.6062 13.8438 0.6157 0.6157 0.6157
vt 0.89844 0.40625
f 247/247 248/248 249/249
v 21.9531 10.6062 14.0938 0.6157 0.6157 0.6157
vt 0.90039 0.40625
v 18.3594 12.6062 13.8438 0.6157 0.6157 0.6157
vt 0.89844 0.40625
v 20.2812 10.6062 15.7500 0.6157 0.6157 0.6157
vt 0.90039 0.40430
f 250/250 251/251 252/252
v 20.2812 10.6062 15.7500 0.6157 0.6157 0.6157
vt 0.90039 0.40430
v 18.3594 12.6062 13.8438 0.6157 0.6157 0.6157
vt 0.89844 0.40625
v 5.6406 12.6062 13.8438 0.6157 0.6157 0.6157
vt 0.88867 0.40625
f 253/253 254/254 255/255
v 20.2812 10.6062 15.7500 0.6157 0.6157 0.6157
vt 0.90039 0.40430
v 5.6406 12.6062 13.8438 0.6157 0.6157 0.6157
vt 0.88867 0.40625
v 3.7188 10.6062 15.7500 0.6157 0.6157 0.6157
vt 0.88867 0.40430
f 256/256 257/257 258/258
v 3.7188 10.6062 15.7500 0.6157 0.6157 0.6157
vt 0.88867 0.40430
v 5.6406 12.6062 13.8438 0.6157 0.6157 0.6157
vt 0.88867 0.40625
v 4.3594 12.6062 12.5625 0.6157 0.6157 0.6157
vt 0.88867 0.40820
f 259/259 260/260 261/261
v 3.7188 10.6062 15.7500 0.6157 0.6157 0.6157
vt 0.88867 0.40430
v 4.3594 12.6062 12.5625 0.6157 0.6157 0.6157
vt 0.88867 0.40820
v 2.0469 10.6062 14.0938 0.6157 0.6157 0.6157
vt 0.88672 0.40625
f 262/262 263/263 264/264
v -2.0469 6.2000 14.0938 0.6157 0.6157 0.6157
vt 0.87305 0.40625
v -2.0469 10.6062 14.0938 0.6157 0.6157 0.6157
vt 0.87695 0.40625
v -3.7188 10.6062 15.7500 0.3333 0.3333 0.3333
vt 0.87695 0.40820
f 265/265 266/266 267/267
v -2.0469 6.2000 14.0938 0.6157 0.6157 0.6157
vt 0.87305 0.40625
v -3.7188 10.6062 15.7500 0.3333 0.3333 0.3333
vt 0.87695 0.40820
v -3.7188 6.2000 15.7500 0.3333 0.3333 0.3333
vt 0.87305 0.40820
f 268/268 269/269 270/270
v -3.7188 6.2000 15.7500 0.3333 0.3333 0.3333
vt 0.87305 0.40820
v -3.7188 10.6062 15.7500 0.3333 0.3333 0.3333
vt 0.87695 0.40820
v -20.2812 10.6062 15.7500 0.3333 0.3333 0.3333
vt 0.87695 0.41992
f 271/271 272/272 273/273
v -3.7188 6.2000 15.7500 0.3333 0.3333 0.3333
vt 0.87305 0.40820
v -20.2812 10.6062 15.7500 0.3333 0.3333 0.3333
vt 0.87695 0.41992
v -20.2812 6.2000 15.7500 0.3333 0.3333 0.3333
vt 0.87305 0.41992
f 274/274 275/275 276/276
v 2.0469 6.2000 -6.9688 0.3333 0.3333 0.3333
vt 0.87305 0.41992
v 2.0469 10.6062 -6.9688 0.3333 0.3333 0.3333
vt 0.87109 0.41992
v 3.7188 10.6062 -8.6250 0.3333 0.3333 0.3333
vt 0.87109 0.41797
f 277/277 278/278 279/279
v 2.0469 6.2000 -6.9688 0.3333 0.3333 0.3333
vt 0.87305 0.41992
v 3.7188 10.6062 -8.6250 0.3333 0.3333 0.3333
vt 0.87109 0.41797
v 3.7188 6.2000 -8.6250 0.3333 0.3333 0.3333
vt 0.87305 0.41797
f 280/280 281/281 282/282
v 3.7188 6.2000 -8.6250 0.3333 0.3333 0.3333
vt 0.87305 0.41797
v 3.7188 10.6062 -8.6250 0.3333 0.3333 0.3333
vt 0.87109 0.41797
v 20.2812 10.6062 -8.6250 0.3333 0.3333 0.3333
vt 0.87109 0.40625
f 283/283 284/284 285/285
v 3.7188 6.2000 -8.6250 0.3333 0.3333 0.3333
vt 0.87305 0.41797
v 20.2812 10.6062 -8.6250 0.3333 0.3333 0.3333
vt 0.87109 0.40625
v 20.2812 6.2000 -8.6250 0.3333 0.3333 0.3333
vt 0.87305 0.40625
f 286/286 287/287 288/288
v 20.2812 6.2000 -8.6250 0.3333 0.3333 0.3333
vt 0.88477 0.40430
v 20.2812 10.6062 -8.6250 0.3333 0.3333 0.3333
vt 0.88672 0.40430
v 21.9531 10.6062 -6.9688 0.3333 0.3333 0.3333
vt 0.88672 0.40625
f 289/289 290/290 291/291
v 20.2812 6.2000 -8.6250 0.3333 0.3333 0.3333
vt 0.88477 0.40430
v 21.9531 10.6062 -6.9688 0.3333 0.3333 0.3333
vt 0.88672 0.40625
v 21.9531 6.2000 -6.9688 0.3333 0.3333 0.3333
vt 0.88477 0.40625
f 292/292 293/293 294/294
v 21.9531 6.2000 -6.9688 0.3333 0.3333 0.3333
vt 0.88477 0.40625
v 21.9531 10.6062 -6.9688 0.3333 0.3333 0.3333
vt 0.88672 0.40625
v 21.9531 10.6062 14.0938 0.3333 0.3333 0.3333
vt 0.88672 0.42188
f 295/295 296/296 297/297
v 21.9531 6.2000 -6.9688 0.3333 0.3333 0.3333
vt 0.88477 0.40625
v 21.9531 10.6062 14.0938 0.3333 0.3333 0.3333
vt 0.88672 0.42188
v 21.9531 6.2000 14.0938 0.3333 0.3333 0.3333
vt 0.88477 0.42188
f 298/298 299/299 300/300
v 21.9531 6.2000 14.0938 0.6157 0.6157 0.6157
vt 0.87305 0.40625
v 21.9531 10.6062 14.0938 0.6157 0.6157 0.6157
vt 0.87695 0.40625
v 20.2812 10.6062 15.7500 0.3333 0.3333 0.3333
vt 0.87695 0.40820
f 301/301 302/302 303/303
v 21.9531 6.2000 14.0938 0.6157 0.6157 0.6157
vt 0.87305 0.40625
v 20.2812 10.6062 15.7500 0.3333 0.3333 0.3333
vt 0.87695 0.40820
v 20.2812 6.2000 15.7500 0.3333 0.3333 0.3333
vt 0.87305 0.40820
f 304/304 305/305 306/306
v 20.2812 6.2000 15.7500 0.3333 0.3333 0.3333
vt 0.87305 0.40820
v 20.2812 10.6062 15.7500 0.3333 0.3333 0.3333
vt 0.87695 0.40820
v 3.7188 10.6062 15.7500 0.3333 0.3333 0.3333
vt 0.87695 0.41992
f 307/307 308/308 309/309
v 20.2812 6.2000 15.7500 0.3333 0.3333 0.3333
vt 0.87305 0.40820
v 3.7188 10.6062 15.7500 0.3333 0.3333 0.3333
vt 0.87695 0.41992
v 3.7188 6.2000 15.7500 0.3333 0.3333 0.3333
vt 0.87305 0.41992
f 310/310 311/311 312/312
v -21.9531 6.2000 -6.9688 0.3333 0.3333 0.3333
vt 0.87305 0.41992
v -21.9531 10.6062 -6.9688 0.3333 0.3333 0.3333
vt 0.87109 0.41992
v -20.2812 10.6062 -8.6250 0.3333 0.3333 0.3333
vt 0.87109 0.41797
f 313/313 314/314 315/315
v -21.9531 6.2000 -6.9688 0.3333 0.3333 0.3333
vt 0.87305 0.41992
v -20.2812 10.6062 -8.6250 0.3333 0.3333 0.3333
vt 0.87109 0.41797
v -20.2812 6.2000 -8.6250 0.3333 0.3333 0.3333
vt 0.87305 0.41797
f 316/316 317/317 318/318
v -20.2812 6.2000 -8.6250 0.3333 0.3333 0.3333
vt 0.87305 0.41797
v -20.2812 10.6062 -8.6250 0.3333 0.3333 0.3333
vt 0.87109 0.41797
v -3.7188 10.6062 -8.6250 0.3333 0.3333 0.3333
vt 0.87109 0.40625
f 319/319 320/320 321/321
v -20.2812 6.2000 -8.6250 0.3333 0.3333 0.3333
vt 0.87305 0.41797
v -3.7188 10.6062 -8.6250 0.3333 0.3333 0.3333
vt 0.87109 0.40625
v -3.7188 6.2000 -8.6250 0.3333 0.3333 0.3333
vt 0.87305 0.40625
f 322/322 323/323 324/324
v -3.7188 6.2000 -8.6250 0.3333 0.3333 0.3333
vt 0.88477 0.40430
v -3.7188 10.6062 -8.6250 0.3333 0.3333 0.3333
vt 0.88672 0.40430
v -2.0469 10.6062 -6.9688 0.3333 0.3333 0.3333
vt 0.88672 0.40625
f 325/325 326/326 327/327
v -3.7188 6.2000 -8.6250 0.3333 0.3333 0.3333
vt 0.88477 0.40430
v -2.0469 10.6062 -6.9688 0.3333 0.3333 0.3333
vt 0.88672 0.40625
v -2.0469 6.2000 -6.9688 0.3333 0.3333 0.3333
vt 0.88477 0.40625
f 328/328 329/329 330/330
v -2.0469 6.2000 -6.9688 0.3333 0.3333 0.3333
vt 0.88477 0.40625
v -2.0469 10.6062 -6.9688 0.3333 0.3333 0.3333
vt 0.88672 0.40625
v -2.0469 10.6062 14.0938 0.3333 0.3333 0.3333
vt 0.88672 0.42188
f 331/331 332/332 333/333
v -2.0469 6.2000 -6.9688 0.3333 0.3333 0.3333
vt 0.88477 0.40625
v -2.0469 10.6062 14.0938 0.3333 0.3333 0.3333
vt 0.88672 0.42188
v -2.0469 6.2000 14.0938 0.3333 0.3333 0.3333
vt 0.88477 0.42188
f 334/334 335/335 336/336
v -21.9531 10.6062 -6.9688 0.3333 0.3333 0.3333
vt 0.88672 0.42188
v -21.9531 10.6062 14.0938 0.3333 0.3333 0.3333
vt 0.88672 0.40625
v -19.6406 12.6062 12.5625 0.6157 0.6157 0.6157
vt 0.88867 0.40820
f 337/337 338/338 339/339
v -21.9531 10.6062 -6.9688 0.3333 0.3333 0.3333
vt 0.88672 0.42188
v -19.6406 12.6062 12.5625 0.6157 0.6157 0.6157
vt 0.88867 0.40820
v -19.6406 12.6062 -5.0625 0.6157 0.6157 0.6157
vt 0.88867 0.42188
f 340/340 341/341 342/342
v 2.0469 6.2000 14.0938 0.2275 0.2275 0.2275
vt 0.87305 0.41992
v 3.7188 6.2000 15.7500 0.2275 0.2275 0.2275
vt 0.87305 0.41992
v 3.7188 10.6062 15.7500 0.2275 0.2275 0.2275
vt 0.87695 0.41992
f 343/343 344/344 345/345
v 2.0469 6.2000 14.0938 0.2275 0.2275 0.2275
vt 0.87305 0.41992
v 3.7188 10.6062 15.7500 0.2275 0.2275 0.2275
vt 0.87695 0.41992
v 2.0469 10.6062 14.0938 0.2275 0.2275 0.2275
vt 0.87695 0.41992
f 346/346 347/347 348/348
v 2.0469 6.2000 -6.9688 0.3333 0.3333 0.3333
vt 0.88086 0.42383
v 2.0469 6.2000 14.0938 0.3333 0.3333 0.3333
vt 0.88086 0.40625
v 2.0469 10.6062 14.0938 0.3333 0.3333 0.3333
vt 0.88477 0.40625
f 349/349 350/350 351/351
v 2.0469 6.2000 -6.9688 0.3333 0.3333 0.3333
vt 0.88086 0.42383
v 2.0469 10.6062 14.0938 0.3333 0.3333 0.3333
vt 0.88477 0.40625
v 2.0469 10.6062 -6.9688 0.3333 0.3333 0.3333
vt 0.88477 0.42383
f 352/352 353/353 354/354
v 21.9531 10.6062 14.0938 0.3333 0.3333 0.3333
vt 0.90039 0.40625
v 21.9531 10.6062 -6.9688 0.3333 0.3333 0.3333
vt 0.90039 0.42188
v 19.6406 12.6062 -5.0625 0.6157 0.6157 0.6157
vt 0.90039 0.42188
f 355/355 356/356 357/357
v 21.9531 10.6062 14.0938 0.3333 0.3333 0.3333
vt 0.90039 0.40625
v 19.6406 12.6062 -5.0625 0.6157 0.6157 0.6157
vt 0.90039 0.42188
v 19.6406 12.6062 12.5625 0.6157 0.6157 0.6157
vt 0.90039 0.40820
f 358/358 359/359 360/360
v 2.0469 10.6062 -6.9688 0.3333 0.3333 0.3333
vt 0.88672 0.42188
v 2.0469 10.6062 14.0938 0.3333 0.3333 0.3333
vt 0.88672 0.40625
v 4.3594 12.6062 12.5625 0.6157 0.6157 0.6157
vt 0.88867 0.40820
f 361/361 362/362 363/363
v 2.0469 10.6062 -6.9688 0.3333 0.3333 0.3333
vt 0.88672 0.42188
v 4.3594 12.6062 12.5625 0.6157 0.6157 0.6157
vt 0.88867 0.40820
v 4.3594 12.6062 -5.0625 0.6157 0.6157 0.6157
vt 0.88867 0.42188
f 364/364 365/365 366/366
v -21.9531 6.2000 14.0938 0.2275 0.2275 0.2275
vt 0.87305 0.41992
v -20.2812 6.2000 15.7500 0.2275 0.2275 0.2275
vt 0.87305 0.41992
v -20.2812 10.6062 15.7500 0.2275 0.2275 0.2275
vt 0.87695 0.41992
f 367/367 368/368 369/369
v -21.9531 6.2000 14.0938 0.2275 0.2275 0.2275
vt 0.87305 0.41992
v -20.2812 10.6062 15.7500 0.2275 0.2275 0.2275
vt 0.87695 0.41992
v -21.9531 10.6062 14.0938 0.2275 0.2275 0.2275
vt 0.87695 0.41992
f 370/370 371/371 372/372
v -21.9531 6.2000 -6.9688 0.3333 0.3333 0.3333
vt 0.88086 0.42383
v -21.9531 6.2000 14.0938 0.3333 0.3333 0.3333
vt 0.88086 0.40625
v -21.9531 10.6062 14.0938 0.3333 0.3333 0.3333
vt 0.88477 0.40625
f 373/373 374/374 375/375
v -21.9531 6.2000 -6.9688 0.3333 0.3333 0.3333
vt 0.88086 0.42383
v -21.9531 10.6062 14.0938 0.3333 0.3333 0.3333
vt 0.88477 0.40625
v -21.9531 10.6062 -6.9688 0.3333 0.3333 0.3333
vt 0.88477 0.42383
f 376/376 377/377 378/378
v -2.0469 10.6062 14.0938 0.3333 0.3333 0.3333
vt 0.90039 0.40625
v -2.0469 10.6062 -6.9688 0.3333 0.3333 0.3333
vt 0.90039 0.42188
v -4.3594 12.6062 -5.0625 0.6157 0.6157 0.6157
vt 0.90039 0.42188
f 379/379 380/380 381/381
v -2.0469 10.6062 14.0938 0.3333 0.3333 0.3333
vt 0.90039 0.40625
v -4.3594 12.6062 -5.0625 0.6157 0.6157 0.6157
vt 0.90039 0.42188
v -4.3594 12.6062 12.5625 0.6157 0.6157 0.6157
vt 0.90039 0.40820
f 382/382 383/383 384/384
v -28.0000 6.2000 -8.0000 0.3333 0.3333 0.3333
vt 0.88672 0.40430
v -28.0000 0.2000 -8.0000 0.3333 0.3333 0.3333
vt 0.88281 0.40430
v -28.0000 1.2000 15.8594 0.3333 0.3333 0.3333
vt 0.88281 0.38672
f 385/385 386/386 387/387
v -28.0000 6.2000 -8.0000 0.3333 0.3333 0.3333
vt 0.88672 0.40430
v -28.0000 1.2000 15.8594 0.3333 0.3333 0.3333
vt 0.88281 0.38672
v -28.0000 6.2000 15.8594 0.3333 0.3333 0.3333
vt 0.88672 0.38672
f 388/388 389/389 390/390
v 28.0000 6.2000 15.8594 0.3333 0.3333 0.3333
vt 0.89258 0.40430
v 28.0000 1.2000 15.8594 0.3333 0.3333 0.3333
vt 0.88672 0.40430
v 28.0000 0.2000 -8.0000 0.3333 0.3333 0.3333
vt 0.88672 0.38477
f 391/391 392/392 393/393
v 28.0000 6.2000 15.8594 0.3333 0.3333 0.3333
vt 0.89258 0.40430
v 28.0000 0.2000 -8.0000 0.3333 0.3333 0.3333
vt 0.88672 0.38477
v 28.0000 6.2000 -8.0000 0.3333 0.3333 0.3333
vt 0.89258 0.38477
f 394/394 395/395 396/396
v -26.8594 3.3485 17.0000 0.2275 0.2275 0.2275
vt 0.88449 0.38561
v -28.0000 6.2000 15.8594 0.2275 0.2275 0.2275
vt 0.88672 0.38672
v -28.0000 1.2000 15.8594 0.2275 0.2275 0.2275
vt 0.88281 0.38672
f 397/397 398/398 399/399
v -26.8594 3.3485 17.0000 0.2275 0.2275 0.2275
vt 0.88449 0.38561
v -28.0000 1.2000 15.8594 0.2275 0.2275 0.2275
vt 0.88281 0.38672
v -26.8594 1.2000 17.0000 0.2275 0.2275 0.2275
vt 0.88281 0.38561
f 400/400 401/401 402/402
v -26.8594 6.2000 17.0000 0.2275 0.2275 0.2275
vt 0.88672 0.38561
v -28.0000 6.2000 15.8594 0.2275 0.2275 0.2275
vt 0.88672 0.38672
v -26.8594 3.3485 17.0000 0.2275 0.2275 0.2275
vt 0.88449 0.38561
f 403/403 404/404 405/405
v 26.8594 4.0515 17.0000 0.3333 0.3333 0.3333
vt 0.87918 0.40736
v 26.8594 1.2000 17.0000 0.3333 0.3333 0.3333
vt 0.87695 0.40736
v 28.0000 1.2000 15.8594 0.3333 0.3333 0.3333
vt 0.87695 0.40625
f 406/406 407/407 408/408
v 26.8594 6.2000 17.0000 0.3333 0.3333 0.3333
vt 0.88086 0.40736
v 26.8594 4.0515 17.0000 0.3333 0.3333 0.3333
vt 0.87918 0.40736
v 28.0000 1.2000 15.8594 0.3333 0.3333 0.3333
vt 0.87695 0.40625
f 409/409 410/410 411/411
v 26.8594 6.2000 17.0000 0.3333 0.3333 0.3333
vt 0.88086 0.40736
v 28.0000 1.2000 15.8594 0.3333 0.3333 0.3333
vt 0.87695 0.40625
v 28.0000 6.2000 15.8594 0.3333 0.3333 0.3333
vt 0.88086 0.40625
f 412/412 413/413 414/414
v -25.9531 6.2000 -6.9688 0.3725 0.3725 0.3725
vt 0.83594 0.31641
v -25.9531 6.2000 14.0938 0.3725 0.3725 0.3725
vt 0.87891 0.31641
v 25.9531 6.2000 14.0938 0.3725 0.3725 0.3725
vt 0.87891 0.58008
f 415/415 416/416 417/417
v -25.9531 6.2000 -6.9688 0.3725 0.3725 0.3725
vt 0.83594 0.31641
v 25.9531 6.2000 14.0938 0.3725 0.3725 0.3725
vt 0.87891 0.58008
v 25.9531 6.2000 -6.9688 0.3725 0.3725 0.3725
vt 0.83594 0.58008
f 418/418 419/419 420/420
v -25.9531 6.2000 14.0938 0.3725 0.3725 0.3725
vt 0.83594 0.31641
v -24.2812 6.2000 15.7500 0.3725 0.3725 0.3725
vt 0.84180 0.31641
v 24.2812 6.2000 15.7500 0.3725 0.3725 0.3725
vt 0.92969 0.56445
f 421/421 422/422 423/423
v -25.9531 6.2000 14.0938 0.3725 0.3725 0.3725
vt 0.83594 0.31641
v 24.2812 6.2000 15.7500 0.3725 0.3725 0.3725
vt 0.92969 0.56445
v 25.9531 6.2000 14.0938 0.3725 0.3725 0.3725
vt 0.92969 0.58008
f 424/424 425/425 426/426
v 25.9531 6.2000 -6.9688 0.3725 0.3725 0.3725
vt 0.83594 0.31641
v 24.2812 6.2000 -8.6250 0.3725 0.3725 0.3725
vt 0.84180 0.31641
v -24.2812 6.2000 -8.6250 0.3725 0.3725 0.3725
vt 0.92969 0.56445
f 427/427 428/428 429/429
v 25.9531 6.2000 -6.9688 0.3725 0.3725 0.3725
vt 0.83594 0.31641
v -24.2812 6.2000 -8.6250 0.3725 0.3725 0.3725
vt 0.92969 0.56445
v -25.9531 6.2000 -6.9688 0.3725 0.3725 0.3725
vt 0.92969 0.58008
f 430/430 431/431 432/432
usemtl h_kage
v 31.2939 0.2000 17.0000 1.0000 1.0000 1.0000
vt 0.98561 1.51439
v 31.3906 0.2000 17.0000 1.0000 1.0000 1.0000
vt 1.00000 1.51714
v 31.3906 0.2000 -5.4531 1.0000 1.0000 1.0000
vt 1.00000 2.00000
f 433/433 434/434 435/435
v 31.2939 0.2000 17.0000 1.0000 1.0000 1.0000
vt 0.98561 1.51439
v 31.3906 0.2000 -5.4531 1.0000 1.0000 1.0000
vt 1.00000 2.00000
v 28.0313 0.2000 -9.8906 1.0000 1.0000 1.0000
vt 0.50000 2.00000
f 436/436 437/437 438/438
v 31.2939 0.2000 17.0000 1.0000 1.0000 1.0000
vt 0.98561 1.51439
v 28.0313 0.2000 -9.8906 1.0000 1.0000 1.0000
vt 0.50000 2.00000
v 28.0312 0.2000 17.0000 1.0000 1.0000 1.0000
vt 0.50000 1.51439
f 439/439 440/440 441/441
v 26.3888 0.2000 17.0000 1.0000 1.0000 1.0000
vt 0.48561 1.51439
v 28.0312 0.2000 17.0000 1.0000 1.0000 1.0000
vt 0.50000 1.51439
v 28.0313 0.2000 -9.8906 1.0000 1.0000 1.0000
vt 0.50000 2.00000
f 442/442 443/443 444/444
v 26.3888 0.2000 17.0000 1.0000 1.0000 1.0000
vt 0.48561 1.51439
v 28.0313 0.2000 -9.8906 1.0000 1.0000 1.0000
vt 0.50000 2.00000
v -29.0312 0.2000 -9.8906 1.0000 1.0000 1.0000
vt 0.00000 2.00000
f 445/445 446/446 447/447
v 26.3888 0.2000 17.0000 1.0000 1.0000 1.0000
vt 0.48561 1.51439
v -29.0312 0.2000 -9.8906 1.0000 1.0000 1.0000
vt 0.00000 2.00000
v -29.0313 0.2000 17.0000 1.0000 1.0000 1.0000
vt 0.00000 1.51439
f 448/448 449/449 450/450
