# Converti depuis bigicicle_02.dae par tools/maps/dae_to_obj.py
mtllib big_icicle_2.mtl
v -3.9473 7.6035 10.0508 1.0000 1.0000 1.0000
v 14.5762 7.6035 5.9141 1.0000 1.0000 1.0000
v 1.8887 40.3145 -25.5625 1.0000 1.0000 1.0000
v 14.5762 7.6035 5.9141 1.0000 1.0000 1.0000
v 18.7539 7.6035 -7.5723 1.0000 1.0000 1.0000
v 1.8887 40.3145 -25.5625 1.0000 1.0000 1.0000
v 1.8887 40.3145 -25.5625 1.0000 1.0000 1.0000
v 18.7539 7.6035 -7.5723 1.0000 1.0000 1.0000
v 15.3047 7.6035 -19.2500 1.0000 1.0000 1.0000
v -12.0879 7.1855 -18.9922 1.0000 1.0000 1.0000
v -17.4941 7.6035 -10.2910 1.0000 1.0000 1.0000
v 1.8887 40.3145 -25.5625 1.0000 1.0000 1.0000
v -16.3809 7.6035 3.5586 1.0000 1.0000 1.0000
v -3.9473 7.6035 10.0508 1.0000 1.0000 1.0000
v 1.8887 40.3145 -25.5625 1.0000 1.0000 1.0000
v -17.4941 7.6035 -10.2910 1.0000 1.0000 1.0000
v -16.3809 7.6035 3.5586 1.0000 1.0000 1.0000
v 1.8887 40.3145 -25.5625 1.0000 1.0000 1.0000
v -7.4648 7.2324 -18.0898 1.0000 1.0000 1.0000
v -11.7422 7.2324 -7.0801 1.0000 1.0000 1.0000
v 1.8086 33.6406 -23.5762 1.0000 1.0000 1.0000
v 10.0410 7.2324 1.4453 1.0000 1.0000 1.0000
v 14.2461 7.2324 -8.2324 1.0000 1.0000 1.0000
v 1.8086 33.6406 -23.5762 1.0000 1.0000 1.0000
v -2.1660 7.2324 4.0762 1.0000 1.0000 1.0000
v 10.0410 7.2324 1.4453 1.0000 1.0000 1.0000
v 1.8086 33.6406 -23.5762 1.0000 1.0000 1.0000
v -10.2812 7.2324 1.1699 1.0000 1.0000 1.0000
v -2.1660 7.2324 4.0762 1.0000 1.0000 1.0000
v 1.8086 33.6406 -23.5762 1.0000 1.0000 1.0000
v -11.7422 7.2324 -7.0801 1.0000 1.0000 1.0000
v -10.2812 7.2324 1.1699 1.0000 1.0000 1.0000
v 1.8086 33.6406 -23.5762 1.0000 1.0000 1.0000
v 14.2461 7.2324 -8.2324 1.0000 1.0000 1.0000
v 12.3418 7.2324 -15.5762 1.0000 1.0000 1.0000
v 1.8086 33.6406 -23.5762 1.0000 1.0000 1.0000
v -12.1445 7.0000 -7.0820 1.0000 1.0000 1.0000
v -7.7344 7.0000 -18.4316 1.0000 1.0000 1.0000
v -10.6875 7.0000 -28.8242 1.0000 1.0000 1.0000
v -12.1445 7.0000 -7.0820 1.0000 1.0000 1.0000
v -10.6875 7.0000 -28.8242 1.0000 1.0000 1.0000
v -23.8359 7.0000 -13.2324 1.0000 1.0000 1.0000
v 12.6836 7.0000 -15.8398 1.0000 1.0000 1.0000
v 14.6465 7.0000 -8.2695 1.0000 1.0000 1.0000
v 24.9199 7.0000 -7.7676 1.0000 1.0000 1.0000
v 12.6836 7.0000 -15.8398 1.0000 1.0000 1.0000
v 24.9199 7.0000 -7.7676 1.0000 1.0000 1.0000
v 17.8242 7.0000 -24.5957 1.0000 1.0000 1.0000
v -7.7344 7.0000 -18.4316 1.0000 1.0000 1.0000
v 12.6836 7.0000 -15.8398 1.0000 1.0000 1.0000
v 17.8242 7.0000 -24.5957 1.0000 1.0000 1.0000
v -7.7344 7.0000 -18.4316 1.0000 1.0000 1.0000
v 17.8242 7.0000 -24.5957 1.0000 1.0000 1.0000
v -10.6875 7.0000 -28.8242 1.0000 1.0000 1.0000
v -2.2715 7.0000 4.4180 1.0000 1.0000 1.0000
v -10.6387 7.0000 1.4238 1.0000 1.0000 1.0000
v -22.3320 7.0000 5.8203 1.0000 1.0000 1.0000
v -2.2715 7.0000 4.4180 1.0000 1.0000 1.0000
v -22.3320 7.0000 5.8203 1.0000 1.0000 1.0000
v -5.6992 7.0000 15.6719 1.0000 1.0000 1.0000
v -10.6387 7.0000 1.4238 1.0000 1.0000 1.0000
v -12.1445 7.0000 -7.0820 1.0000 1.0000 1.0000
v -23.8359 7.0000 -13.2324 1.0000 1.0000 1.0000
v -10.6387 7.0000 1.4238 1.0000 1.0000 1.0000
v -23.8359 7.0000 -13.2324 1.0000 1.0000 1.0000
v -22.3320 7.0000 5.8203 1.0000 1.0000 1.0000
v 10.3125 7.0000 1.7070 1.0000 1.0000 1.0000
v -2.2715 7.0000 4.4180 1.0000 1.0000 1.0000
v -5.6992 7.0000 15.6719 1.0000 1.0000 1.0000
v 10.3125 7.0000 1.7070 1.0000 1.0000 1.0000
v -5.6992 7.0000 15.6719 1.0000 1.0000 1.0000
v 19.3125 7.0000 10.2832 1.0000 1.0000 1.0000
v 14.6465 7.0000 -8.2695 1.0000 1.0000 1.0000
v 10.3125 7.0000 1.7070 1.0000 1.0000 1.0000
v 19.3125 7.0000 10.2832 1.0000 1.0000 1.0000
v 14.6465 7.0000 -8.2695 1.0000 1.0000 1.0000
v 19.3125 7.0000 10.2832 1.0000 1.0000 1.0000
v 24.9199 7.0000 -7.7676 1.0000 1.0000 1.0000
v -11.1211 7.3633 -16.9023 1.0000 1.0000 1.0000
v -15.0977 7.3633 -8.6621 1.0000 1.0000 1.0000
v -9.4746 14.9766 -11.7168 1.0000 1.0000 1.0000
v -11.1211 7.3633 -16.9023 1.0000 1.0000 1.0000
v -9.4746 14.9766 -11.7168 1.0000 1.0000 1.0000
v -7.5137 14.9766 -17.0723 1.0000 1.0000 1.0000
v 13.3887 7.3633 4.6504 1.0000 1.0000 1.0000
v 16.2578 7.3633 -8.3438 1.0000 1.0000 1.0000
v 11.6211 14.9766 -12.5742 1.0000 1.0000 1.0000
v 13.3887 7.3633 4.6504 1.0000 1.0000 1.0000
v 11.6211 14.9766 -12.5742 1.0000 1.0000 1.0000
v 8.5000 14.9766 -2.1484 1.0000 1.0000 1.0000
v -3.1836 7.3633 7.6348 1.0000 1.0000 1.0000
v 13.3887 7.3633 4.6504 1.0000 1.0000 1.0000
v 8.5000 14.9766 -2.1484 1.0000 1.0000 1.0000
v -3.1836 7.3633 7.6348 1.0000 1.0000 1.0000
v 8.5000 14.9766 -2.1484 1.0000 1.0000 1.0000
v -0.5664 14.9766 -0.6328 1.0000 1.0000 1.0000
v -13.4473 7.3633 2.5156 1.0000 1.0000 1.0000
v -3.1836 7.3633 7.6348 1.0000 1.0000 1.0000
v -0.5664 14.9766 -0.6328 1.0000 1.0000 1.0000
v -13.4473 7.3633 2.5156 1.0000 1.0000 1.0000
v -0.5664 14.9766 -0.6328 1.0000 1.0000 1.0000
v -8.0293 14.9766 -3.3457 1.0000 1.0000 1.0000
v -15.0977 7.3633 -8.6621 1.0000 1.0000 1.0000
v -13.4473 7.3633 2.5156 1.0000 1.0000 1.0000
v -8.0293 14.9766 -3.3457 1.0000 1.0000 1.0000
v -15.0977 7.3633 -8.6621 1.0000 1.0000 1.0000
v -8.0293 14.9766 -3.3457 1.0000 1.0000 1.0000
v -9.4746 14.9766 -11.7168 1.0000 1.0000 1.0000
v 16.2578 7.3633 -8.3438 1.0000 1.0000 1.0000
v 14.0586 7.3633 -16.8223 1.0000 1.0000 1.0000
v 10.2070 14.9766 -18.0273 1.0000 1.0000 1.0000
v 16.2578 7.3633 -8.3438 1.0000 1.0000 1.0000
v 10.2070 14.9766 -18.0273 1.0000 1.0000 1.0000
v 11.6211 14.9766 -12.5742 1.0000 1.0000 1.0000
v -7.7344 7.0000 -18.4316 1.0000 1.0000 1.0000
v -12.1445 7.0000 -7.0820 1.0000 1.0000 1.0000
v 0.0000 7.0000 -8.0000 1.0000 1.0000 1.0000
v 14.6465 7.0000 -8.2695 1.0000 1.0000 1.0000
v 12.6836 7.0000 -15.8398 1.0000 1.0000 1.0000
v 0.0000 7.0000 -8.0000 1.0000 1.0000 1.0000
v 12.6836 7.0000 -15.8398 1.0000 1.0000 1.0000
v -7.7344 7.0000 -18.4316 1.0000 1.0000 1.0000
v 0.0000 7.0000 -8.0000 1.0000 1.0000 1.0000
v -10.6387 7.0000 1.4238 1.0000 1.0000 1.0000
v -2.2715 7.0000 4.4180 1.0000 1.0000 1.0000
v 0.0000 7.0000 -8.0000 1.0000 1.0000 1.0000
v -12.1445 7.0000 -7.0820 1.0000 1.0000 1.0000
v -10.6387 7.0000 1.4238 1.0000 1.0000 1.0000
v 0.0000 7.0000 -8.0000 1.0000 1.0000 1.0000
v -2.2715 7.0000 4.4180 1.0000 1.0000 1.0000
v 10.3125 7.0000 1.7070 1.0000 1.0000 1.0000
v 0.0000 7.0000 -8.0000 1.0000 1.0000 1.0000
v 10.3125 7.0000 1.7070 1.0000 1.0000 1.0000
v 14.6465 7.0000 -8.2695 1.0000 1.0000 1.0000
v 0.0000 7.0000 -8.0000 1.0000 1.0000 1.0000
vt 0.05957 0.13086
vt 0.67676 0.12012
vt 0.27930 0.90918
vt 0.67676 0.12012
vt 0.25488 0.16406
vt 0.27930 0.90918
vt 0.27930 0.90918
vt 0.25488 0.16406
vt 0.18750 0.03418
vt 0.24902 0.82129
vt 0.36133 0.31445
vt 0.38574 0.34668
vt 0.06055 0.04492
vt 0.53320 0.02734
vt 0.22949 0.89062
vt 0.05078 0.03418
vt 0.24316 0.24805
vt 0.25391 0.89746
vt 0.47266 0.03613
vt 0.01465 0.03125
vt 0.53613 0.95996
vt 0.57129 0.03711
vt 0.95801 0.03516
vt 1.00098 0.92773
vt 0.48242 0.03516
vt 0.02441 0.03027
vt 0.53613 0.95996
vt 0.58398 0.03613
vt 0.97070 0.03418
vt 0.95703 0.94727
vt 0.96777 0.02051
vt 0.44922 0.02148
vt 0.73047 1.07227
vt 0.49414 0.03613
vt 0.03613 0.03125
vt 0.47949 0.93262
vt -0.16016 0.05273
vt 0.16016 0.05273
vt 1.00000 0.99609
vt -0.16016 0.05273
vt 1.00000 0.99609
vt -1.00000 0.99609
vt -0.16016 0.05273
vt 0.16016 0.05273
vt 1.00000 0.99609
vt -0.16016 0.05273
vt 1.00000 0.99609
vt -1.00000 0.99609
vt -0.16016 0.05273
vt 0.16016 0.05273
vt 1.00000 0.99609
vt -0.16016 0.05273
vt 1.00000 0.99609
vt -1.00000 0.99609
vt -0.16016 0.05273
vt 0.16016 0.05273
vt 1.00000 0.99609
vt -0.16016 0.05273
vt 1.00000 0.99609
vt -1.00000 0.99609
vt -0.16016 0.05273
vt 0.16016 0.05273
vt 1.00000 0.99609
vt -0.16016 0.05273
vt 1.00000 0.99609
vt -1.00000 0.99609
vt -0.16016 0.05273
vt 0.16016 0.05273
vt 1.00000 0.99609
vt -0.16016 0.05273
vt 1.00000 0.99609
vt -1.00000 0.99609
vt -0.16016 0.05273
vt 0.16016 0.05273
vt 1.00000 0.99609
vt -0.16016 0.05273
vt 1.00000 0.99609
vt -1.00000 0.99609
vt 0.00000 0.02734
vt -1.00000 0.02734
vt -1.00000 0.97266
vt 0.00000 0.02734
vt -1.00000 0.97266
vt 0.00000 0.97266
vt 0.00000 0.02734
vt -1.00000 0.02734
vt -1.00000 0.97266
vt 0.00000 0.02734
vt -1.00000 0.97266
vt 0.00000 0.97266
vt 0.00000 0.02734
vt -1.00000 0.02734
vt -1.00000 0.97266
vt 0.00000 0.02734
vt -1.00000 0.97266
vt 0.00000 0.97266
vt 0.00000 0.02734
vt -1.00000 0.02734
vt -1.00000 0.97266
vt 0.00000 0.02734
vt -1.00000 0.97266
vt 0.00000 0.97266
vt 0.00000 0.02734
vt -1.00000 0.02734
vt -1.00000 0.97266
vt 0.00000 0.02734
vt -1.00000 0.97266
vt 0.00000 0.97266
vt 0.00000 0.02734
vt -1.00000 0.02734
vt -1.00000 0.97266
vt 0.00000 0.02734
vt -1.00000 0.97266
vt 0.00000 0.97266
vt 0.00000 0.05273
vt 0.16016 0.05273
vt -0.16016 0.05273
vt 0.00000 0.05273
vt 0.16016 0.05273
vt -0.16016 0.05273
vt 0.00000 0.05273
vt 0.16016 0.05273
vt -0.16016 0.05273
vt 0.00000 0.05273
vt 0.16016 0.05273
vt -0.16016 0.05273
vt 0.00000 0.05273
vt 0.16016 0.05273
vt -0.16016 0.05273
vt 0.00000 0.05273
vt 0.16016 0.05273
vt -0.16016 0.05273
vt 0.00000 0.05273
vt 0.16016 0.05273
vt -0.16016 0.05273
usemtl material0
f 1/1 2/2 3/3
f 4/4 5/5 6/6
f 7/7 8/8 9/9
f 10/10 11/11 12/12
f 13/13 14/14 15/15
f 16/16 17/17 18/18
usemtl material1
f 19/19 20/20 21/21
f 22/22 23/23 24/24
f 25/25 26/26 27/27
f 28/28 29/29 30/30
f 31/31 32/32 33/33
f 34/34 35/35 36/36
usemtl material2
f 37/37 38/38 39/39
f 40/40 41/41 42/42
f 43/43 44/44 45/45
f 46/46 47/47 48/48
f 49/49 50/50 51/51
f 52/52 53/53 54/54
f 55/55 56/56 57/57
f 58/58 59/59 60/60
f 61/61 62/62 63/63
f 64/64 65/65 66/66
f 67/67 68/68 69/69
f 70/70 71/71 72/72
f 73/73 74/74 75/75
f 76/76 77/77 78/78
f 79/79 80/80 81/81
f 82/82 83/83 84/84
f 85/85 86/86 87/87
f 88/88 89/89 90/90
f 91/91 92/92 93/93
f 94/94 95/95 96/96
f 97/97 98/98 99/99
f 100/100 101/101 102/102
f 103/103 104/104 105/105
f 106/106 107/107 108/108
f 109/109 110/110 111/111
f 112/112 113/113 114/114
f 115/115 116/116 117/117
f 118/118 119/119 120/120
f 121/121 122/122 123/123
f 124/124 125/125 126/126
f 127/127 128/128 129/129
f 130/130 131/131 132/132
f 133/133 134/134 135/135
