# Objet du port. Généré par tools/build_port_objects.py : modifier ce script plutôt que ce fichier.
mtllib sailboat_v.mtl
v -7.2500 6.9600 -17.4000 0.5500 0.5500 0.5500
v -7.2500 6.9600 11.6000 0.5500 0.5500 0.5500
v 7.2500 6.9600 11.6000 0.5500 0.5500 0.5500
v 7.2500 6.9600 -17.4000 0.5500 0.5500 0.5500
v -7.2500 14.2100 -17.4000 0.7600 0.7600 0.7600
v -7.2500 14.2100 11.6000 0.7600 0.7600 0.7600
v -7.2500 6.9600 11.6000 0.7600 0.7600 0.7600
v -7.2500 6.9600 -17.4000 0.7600 0.7600 0.7600
v 7.2500 14.2100 11.6000 0.7600 0.7600 0.7600
v 7.2500 14.2100 -17.4000 0.7600 0.7600 0.7600
v 7.2500 6.9600 -17.4000 0.7600 0.7600 0.7600
v 7.2500 6.9600 11.6000 0.7600 0.7600 0.7600
v 7.2500 14.2100 -17.4000 0.6600 0.6600 0.6600
v -7.2500 14.2100 -17.4000 0.6600 0.6600 0.6600
v -7.2500 6.9600 -17.4000 0.6600 0.6600 0.6600
v 7.2500 6.9600 -17.4000 0.6600 0.6600 0.6600
v -7.2500 14.2100 11.6000 0.8800 0.8800 0.8800
v 7.2500 14.2100 11.6000 0.8800 0.8800 0.8800
v 7.2500 6.9600 11.6000 0.8800 0.8800 0.8800
v -7.2500 6.9600 11.6000 0.8800 0.8800 0.8800
v 7.2500 14.2100 -17.4000 1.0000 1.0000 1.0000
v 7.2500 14.2100 11.6000 1.0000 1.0000 1.0000
v -7.2500 14.2100 11.6000 1.0000 1.0000 1.0000
v -7.2500 14.2100 -17.4000 1.0000 1.0000 1.0000
v -9.9325 6.9600 -43.5000 1.0000 1.0000 1.0000
v -10.2846 6.9600 -37.2857 1.0000 1.0000 1.0000
v -10.6368 6.9600 -31.0714 1.0000 1.0000 1.0000
v -10.9889 6.9600 -24.8571 1.0000 1.0000 1.0000
v -11.1650 6.9600 -18.6429 1.0000 1.0000 1.0000
v -11.1650 6.9600 -12.4286 1.0000 1.0000 1.0000
v -11.1650 6.9600 -6.2143 1.0000 1.0000 1.0000
v -11.1650 6.9600 0.0000 1.0000 1.0000 1.0000
v -11.1650 6.9600 6.2143 1.0000 1.0000 1.0000
v -11.0941 6.9600 12.4286 1.0000 1.0000 1.0000
v -10.6512 6.9600 18.6429 1.0000 1.0000 1.0000
v -9.7561 6.9600 24.8571 1.0000 1.0000 1.0000
v -8.2808 6.9600 31.0714 1.0000 1.0000 1.0000
v -5.8691 6.9600 37.2857 1.0000 1.0000 1.0000
v -0.0000 6.9600 43.5000 1.0000 1.0000 1.0000
v 0.0000 6.9600 43.5000 1.0000 1.0000 1.0000
v 5.8691 6.9600 37.2857 1.0000 1.0000 1.0000
v 8.2808 6.9600 31.0714 1.0000 1.0000 1.0000
v 9.7561 6.9600 24.8571 1.0000 1.0000 1.0000
v 10.6512 6.9600 18.6429 1.0000 1.0000 1.0000
v 11.0941 6.9600 12.4286 1.0000 1.0000 1.0000
v 11.1650 6.9600 6.2143 1.0000 1.0000 1.0000
v 11.1650 6.9600 0.0000 1.0000 1.0000 1.0000
v 11.1650 6.9600 -6.2143 1.0000 1.0000 1.0000
v 11.1650 6.9600 -12.4286 1.0000 1.0000 1.0000
v 11.1650 6.9600 -18.6429 1.0000 1.0000 1.0000
v 10.9889 6.9600 -24.8571 1.0000 1.0000 1.0000
v 10.6368 6.9600 -31.0714 1.0000 1.0000 1.0000
v 10.2846 6.9600 -37.2857 1.0000 1.0000 1.0000
v 9.9325 6.9600 -43.5000 1.0000 1.0000 1.0000
v -11.0925 8.7000 -43.5000 0.7546 0.7546 0.7546
v -11.4446 8.7000 -37.2857 0.7546 0.7546 0.7546
v -10.9869 0.0000 -37.2857 0.7546 0.7546 0.7546
v -10.6488 0.0000 -43.5000 0.7546 0.7546 0.7546
v -10.6488 0.0000 -43.5000 0.7548 0.7548 0.7548
v -10.9869 0.0000 -37.2857 0.7548 0.7548 0.7548
v -6.2946 -5.8000 -37.2857 0.7548 0.7548 0.7548
v -6.1009 -5.8000 -43.5000 0.7548 0.7548 0.7548
v -11.4446 8.7000 -37.2857 0.7546 0.7546 0.7546
v -11.7968 8.7000 -31.0714 0.7546 0.7546 0.7546
v -11.3249 0.0000 -31.0714 0.7546 0.7546 0.7546
v -10.9869 0.0000 -37.2857 0.7546 0.7546 0.7546
v -10.9869 0.0000 -37.2857 0.7548 0.7548 0.7548
v -11.3249 0.0000 -31.0714 0.7548 0.7548 0.7548
v -6.4882 -5.8000 -31.0714 0.7548 0.7548 0.7548
v -6.2946 -5.8000 -37.2857 0.7548 0.7548 0.7548
v -11.7968 8.7000 -31.0714 0.7546 0.7546 0.7546
v -12.1489 8.7000 -24.8571 0.7546 0.7546 0.7546
v -11.6630 0.0000 -24.8571 0.7546 0.7546 0.7546
v -11.3249 0.0000 -31.0714 0.7546 0.7546 0.7546
v -11.3249 0.0000 -31.0714 0.7548 0.7548 0.7548
v -11.6630 0.0000 -24.8571 0.7548 0.7548 0.7548
v -6.6819 -5.8000 -24.8571 0.7548 0.7548 0.7548
v -6.4882 -5.8000 -31.0714 0.7548 0.7548 0.7548
v -12.1489 8.7000 -24.8571 0.7572 0.7572 0.7572
v -12.3250 8.7000 -18.6429 0.7572 0.7572 0.7572
v -11.8320 0.0000 -18.6429 0.7572 0.7572 0.7572
v -11.6630 0.0000 -24.8571 0.7572 0.7572 0.7572
v -11.6630 0.0000 -24.8571 0.7574 0.7574 0.7574
v -11.8320 0.0000 -18.6429 0.7574 0.7574 0.7574
v -6.7788 -5.8000 -18.6429 0.7574 0.7574 0.7574
v -6.6819 -5.8000 -24.8571 0.7574 0.7574 0.7574
v -12.3250 8.7000 -18.6429 0.7600 0.7600 0.7600
v -12.3250 8.7000 -12.4286 0.7600 0.7600 0.7600
v -11.8320 0.0000 -12.4286 0.7600 0.7600 0.7600
v -11.8320 0.0000 -18.6429 0.7600 0.7600 0.7600
v -11.8320 0.0000 -18.6429 0.7600 0.7600 0.7600
v -11.8320 0.0000 -12.4286 0.7600 0.7600 0.7600
v -6.7788 -5.8000 -12.4286 0.7600 0.7600 0.7600
v -6.7788 -5.8000 -18.6429 0.7600 0.7600 0.7600
v -12.3250 8.7000 -12.4286 0.7600 0.7600 0.7600
v -12.3250 8.7000 -6.2143 0.7600 0.7600 0.7600
v -11.8320 0.0000 -6.2143 0.7600 0.7600 0.7600
v -11.8320 0.0000 -12.4286 0.7600 0.7600 0.7600
v -11.8320 0.0000 -12.4286 0.7600 0.7600 0.7600
v -11.8320 0.0000 -6.2143 0.7600 0.7600 0.7600
v -6.7788 -5.8000 -6.2143 0.7600 0.7600 0.7600
v -6.7788 -5.8000 -12.4286 0.7600 0.7600 0.7600
v -12.3250 8.7000 -6.2143 0.7600 0.7600 0.7600
v -12.3250 8.7000 0.0000 0.7600 0.7600 0.7600
v -11.8320 0.0000 0.0000 0.7600 0.7600 0.7600
v -11.8320 0.0000 -6.2143 0.7600 0.7600 0.7600
v -11.8320 0.0000 -6.2143 0.7600 0.7600 0.7600
v -11.8320 0.0000 0.0000 0.7600 0.7600 0.7600
v -6.7788 -5.8000 0.0000 0.7600 0.7600 0.7600
v -6.7788 -5.8000 -6.2143 0.7600 0.7600 0.7600
v -12.3250 8.7000 0.0000 0.7600 0.7600 0.7600
v -12.3250 8.7000 6.2143 0.7600 0.7600 0.7600
v -11.8320 0.0000 6.2143 0.7600 0.7600 0.7600
v -11.8320 0.0000 0.0000 0.7600 0.7600 0.7600
v -11.8320 0.0000 0.0000 0.7600 0.7600 0.7600
v -11.8320 0.0000 6.2143 0.7600 0.7600 0.7600
v -6.7788 -5.8000 6.2143 0.7600 0.7600 0.7600
v -6.7788 -5.8000 0.0000 0.7600 0.7600 0.7600
v -12.3250 8.7000 6.2143 0.7614 0.7614 0.7614
v -12.2541 8.7350 12.4286 0.7614 0.7614 0.7614
v -11.7639 0.0000 12.4286 0.7614 0.7614 0.7614
v -11.8320 0.0000 6.2143 0.7614 0.7614 0.7614
v -11.8320 0.0000 6.2143 0.7613 0.7613 0.7613
v -11.7639 0.0000 12.4286 0.7613 0.7613 0.7613
v -6.7397 -5.8000 12.4286 0.7613 0.7613 0.7613
v -6.7788 -5.8000 6.2143 0.7613 0.7613 0.7613
v -12.2541 8.7350 12.4286 0.7682 0.7682 0.7682
v -11.8112 8.9486 18.6429 0.7682 0.7682 0.7682
v -11.3388 0.0000 18.6429 0.7682 0.7682 0.7682
v -11.7639 0.0000 12.4286 0.7682 0.7682 0.7682
v -11.7639 0.0000 12.4286 0.7677 0.7677 0.7677
v -11.3388 0.0000 18.6429 0.7677 0.7677 0.7677
v -6.4962 -5.8000 18.6429 0.7677 0.7677 0.7677
v -6.7397 -5.8000 12.4286 0.7677 0.7677 0.7677
v -11.8112 8.9486 18.6429 0.7754 0.7754 0.7754
v -10.9161 9.3564 24.8571 0.7754 0.7754 0.7754
v -10.4794 0.0000 24.8571 0.7754 0.7754 0.7754
v -11.3388 0.0000 18.6429 0.7754 0.7754 0.7754
v -11.3388 0.0000 18.6429 0.7746 0.7746 0.7746
v -10.4794 0.0000 24.8571 0.7746 0.7746 0.7746
v -6.0038 -5.8000 24.8571 0.7746 0.7746 0.7746
v -6.4962 -5.8000 18.6429 0.7746 0.7746 0.7746
v -10.9161 9.3564 24.8571 0.7833 0.7833 0.7833
v -9.4408 9.9584 31.0714 0.7833 0.7833 0.7833
v -9.0631 0.0000 31.0714 0.7833 0.7833 0.7833
v -10.4794 0.0000 24.8571 0.7833 0.7833 0.7833
v -10.4794 0.0000 24.8571 0.7823 0.7823 0.7823
v -9.0631 0.0000 31.0714 0.7823 0.7823 0.7823
v -5.1924 -5.8000 31.0714 0.7823 0.7823 0.7823
v -6.0038 -5.8000 24.8571 0.7823 0.7823 0.7823
v -9.4408 9.9584 31.0714 0.7938 0.7938 0.7938
v -7.0291 10.7546 37.2857 0.7938 0.7938 0.7938
v -6.7479 0.0000 37.2857 0.7938 0.7938 0.7938
v -9.0631 0.0000 31.0714 0.7938 0.7938 0.7938
v -9.0631 0.0000 31.0714 0.7926 0.7926 0.7926
v -6.7479 0.0000 37.2857 0.7926 0.7926 0.7926
v -3.8660 -5.8000 37.2857 0.7926 0.7926 0.7926
v -5.1924 -5.8000 31.0714 0.7926 0.7926 0.7926
v -7.0291 10.7546 37.2857 0.8237 0.8237 0.8237
v -0.0000 11.7450 43.5000 0.8237 0.8237 0.8237
v -0.0000 0.0000 43.5000 0.8237 0.8237 0.8237
v -6.7479 0.0000 37.2857 0.8237 0.8237 0.8237
v -6.7479 0.0000 37.2857 0.8225 0.8225 0.8225
v -0.0000 0.0000 43.5000 0.8225 0.8225 0.8225
v -0.0000 -5.8000 43.5000 0.8225 0.8225 0.8225
v -3.8660 -5.8000 37.2857 0.8225 0.8225 0.8225
v 11.4446 8.7000 -37.2857 0.7546 0.7546 0.7546
v 11.0925 8.7000 -43.5000 0.7546 0.7546 0.7546
v 10.6488 0.0000 -43.5000 0.7546 0.7546 0.7546
v 10.9869 0.0000 -37.2857 0.7546 0.7546 0.7546
v 10.9869 0.0000 -37.2857 0.7548 0.7548 0.7548
v 10.6488 0.0000 -43.5000 0.7548 0.7548 0.7548
v 6.1009 -5.8000 -43.5000 0.7548 0.7548 0.7548
v 6.2946 -5.8000 -37.2857 0.7548 0.7548 0.7548
v 11.7968 8.7000 -31.0714 0.7546 0.7546 0.7546
v 11.4446 8.7000 -37.2857 0.7546 0.7546 0.7546
v 10.9869 0.0000 -37.2857 0.7546 0.7546 0.7546
v 11.3249 0.0000 -31.0714 0.7546 0.7546 0.7546
v 11.3249 0.0000 -31.0714 0.7548 0.7548 0.7548
v 10.9869 0.0000 -37.2857 0.7548 0.7548 0.7548
v 6.2946 -5.8000 -37.2857 0.7548 0.7548 0.7548
v 6.4882 -5.8000 -31.0714 0.7548 0.7548 0.7548
v 12.1489 8.7000 -24.8571 0.7546 0.7546 0.7546
v 11.7968 8.7000 -31.0714 0.7546 0.7546 0.7546
v 11.3249 0.0000 -31.0714 0.7546 0.7546 0.7546
v 11.6630 0.0000 -24.8571 0.7546 0.7546 0.7546
v 11.6630 0.0000 -24.8571 0.7548 0.7548 0.7548
v 11.3249 0.0000 -31.0714 0.7548 0.7548 0.7548
v 6.4882 -5.8000 -31.0714 0.7548 0.7548 0.7548
v 6.6819 -5.8000 -24.8571 0.7548 0.7548 0.7548
v 12.3250 8.7000 -18.6429 0.7572 0.7572 0.7572
v 12.1489 8.7000 -24.8571 0.7572 0.7572 0.7572
v 11.6630 0.0000 -24.8571 0.7572 0.7572 0.7572
v 11.8320 0.0000 -18.6429 0.7572 0.7572 0.7572
v 11.8320 0.0000 -18.6429 0.7574 0.7574 0.7574
v 11.6630 0.0000 -24.8571 0.7574 0.7574 0.7574
v 6.6819 -5.8000 -24.8571 0.7574 0.7574 0.7574
v 6.7788 -5.8000 -18.6429 0.7574 0.7574 0.7574
v 12.3250 8.7000 -12.4286 0.7600 0.7600 0.7600
v 12.3250 8.7000 -18.6429 0.7600 0.7600 0.7600
v 11.8320 0.0000 -18.6429 0.7600 0.7600 0.7600
v 11.8320 0.0000 -12.4286 0.7600 0.7600 0.7600
v 11.8320 0.0000 -12.4286 0.7600 0.7600 0.7600
v 11.8320 0.0000 -18.6429 0.7600 0.7600 0.7600
v 6.7788 -5.8000 -18.6429 0.7600 0.7600 0.7600
v 6.7788 -5.8000 -12.4286 0.7600 0.7600 0.7600
v 12.3250 8.7000 -6.2143 0.7600 0.7600 0.7600
v 12.3250 8.7000 -12.4286 0.7600 0.7600 0.7600
v 11.8320 0.0000 -12.4286 0.7600 0.7600 0.7600
v 11.8320 0.0000 -6.2143 0.7600 0.7600 0.7600
v 11.8320 0.0000 -6.2143 0.7600 0.7600 0.7600
v 11.8320 0.0000 -12.4286 0.7600 0.7600 0.7600
v 6.7788 -5.8000 -12.4286 0.7600 0.7600 0.7600
v 6.7788 -5.8000 -6.2143 0.7600 0.7600 0.7600
v 12.3250 8.7000 0.0000 0.7600 0.7600 0.7600
v 12.3250 8.7000 -6.2143 0.7600 0.7600 0.7600
v 11.8320 0.0000 -6.2143 0.7600 0.7600 0.7600
v 11.8320 0.0000 0.0000 0.7600 0.7600 0.7600
v 11.8320 0.0000 0.0000 0.7600 0.7600 0.7600
v 11.8320 0.0000 -6.2143 0.7600 0.7600 0.7600
v 6.7788 -5.8000 -6.2143 0.7600 0.7600 0.7600
v 6.7788 -5.8000 0.0000 0.7600 0.7600 0.7600
v 12.3250 8.7000 6.2143 0.7600 0.7600 0.7600
v 12.3250 8.7000 0.0000 0.7600 0.7600 0.7600
v 11.8320 0.0000 0.0000 0.7600 0.7600 0.7600
v 11.8320 0.0000 6.2143 0.7600 0.7600 0.7600
v 11.8320 0.0000 6.2143 0.7600 0.7600 0.7600
v 11.8320 0.0000 0.0000 0.7600 0.7600 0.7600
v 6.7788 -5.8000 0.0000 0.7600 0.7600 0.7600
v 6.7788 -5.8000 6.2143 0.7600 0.7600 0.7600
v 12.2541 8.7350 12.4286 0.7614 0.7614 0.7614
v 12.3250 8.7000 6.2143 0.7614 0.7614 0.7614
v 11.8320 0.0000 6.2143 0.7614 0.7614 0.7614
v 11.7639 0.0000 12.4286 0.7614 0.7614 0.7614
v 11.7639 0.0000 12.4286 0.7613 0.7613 0.7613
v 11.8320 0.0000 6.2143 0.7613 0.7613 0.7613
v 6.7788 -5.8000 6.2143 0.7613 0.7613 0.7613
v 6.7397 -5.8000 12.4286 0.7613 0.7613 0.7613
v 11.8112 8.9486 18.6429 0.7682 0.7682 0.7682
v 12.2541 8.7350 12.4286 0.7682 0.7682 0.7682
v 11.7639 0.0000 12.4286 0.7682 0.7682 0.7682
v 11.3388 0.0000 18.6429 0.7682 0.7682 0.7682
v 11.3388 0.0000 18.6429 0.7677 0.7677 0.7677
v 11.7639 0.0000 12.4286 0.7677 0.7677 0.7677
v 6.7397 -5.8000 12.4286 0.7677 0.7677 0.7677
v 6.4962 -5.8000 18.6429 0.7677 0.7677 0.7677
v 10.9161 9.3564 24.8571 0.7754 0.7754 0.7754
v 11.8112 8.9486 18.6429 0.7754 0.7754 0.7754
v 11.3388 0.0000 18.6429 0.7754 0.7754 0.7754
v 10.4794 0.0000 24.8571 0.7754 0.7754 0.7754
v 10.4794 0.0000 24.8571 0.7746 0.7746 0.7746
v 11.3388 0.0000 18.6429 0.7746 0.7746 0.7746
v 6.4962 -5.8000 18.6429 0.7746 0.7746 0.7746
v 6.0038 -5.8000 24.8571 0.7746 0.7746 0.7746
v 9.4408 9.9584 31.0714 0.7834 0.7834 0.7834
v 10.9161 9.3564 24.8571 0.7834 0.7834 0.7834
v 10.4794 0.0000 24.8571 0.7834 0.7834 0.7834
v 9.0631 0.0000 31.0714 0.7834 0.7834 0.7834
v 9.0631 0.0000 31.0714 0.7823 0.7823 0.7823
v 10.4794 0.0000 24.8571 0.7823 0.7823 0.7823
v 6.0038 -5.8000 24.8571 0.7823 0.7823 0.7823
v 5.1924 -5.8000 31.0714 0.7823 0.7823 0.7823
v 7.0291 10.7546 37.2857 0.7939 0.7939 0.7939
v 9.4408 9.9584 31.0714 0.7939 0.7939 0.7939
v 9.0631 0.0000 31.0714 0.7939 0.7939 0.7939
v 6.7479 0.0000 37.2857 0.7939 0.7939 0.7939
v 6.7479 0.0000 37.2857 0.7926 0.7926 0.7926
v 9.0631 0.0000 31.0714 0.7926 0.7926 0.7926
v 5.1924 -5.8000 31.0714 0.7926 0.7926 0.7926
v 3.8660 -5.8000 37.2857 0.7926 0.7926 0.7926
v 0.0000 11.7450 43.5000 0.8238 0.8238 0.8238
v 7.0291 10.7546 37.2857 0.8238 0.8238 0.8238
v 6.7479 0.0000 37.2857 0.8238 0.8238 0.8238
v 0.0000 0.0000 43.5000 0.8238 0.8238 0.8238
v 0.0000 0.0000 43.5000 0.8225 0.8225 0.8225
v 6.7479 0.0000 37.2857 0.8225 0.8225 0.8225
v 3.8660 -5.8000 37.2857 0.8225 0.8225 0.8225
v 0.0000 -5.8000 43.5000 0.8225 0.8225 0.8225
v 11.0925 8.7000 -43.5000 0.6600 0.6600 0.6600
v -11.0925 8.7000 -43.5000 0.6600 0.6600 0.6600
v -10.6488 0.0000 -43.5000 0.6600 0.6600 0.6600
v 10.6488 0.0000 -43.5000 0.6600 0.6600 0.6600
v 10.6488 0.0000 -43.5000 0.6600 0.6600 0.6600
v -10.6488 0.0000 -43.5000 0.6600 0.6600 0.6600
v -6.1009 -5.8000 -43.5000 0.6600 0.6600 0.6600
v 6.1009 -5.8000 -43.5000 0.6600 0.6600 0.6600
v -10.2846 8.7000 -37.2857 0.7664 0.7664 0.7664
v -9.9325 8.7000 -43.5000 0.7664 0.7664 0.7664
v -9.9325 6.9600 -43.5000 0.7664 0.7664 0.7664
v -10.2846 6.9600 -37.2857 0.7664 0.7664 0.7664
v -11.0925 8.7000 -43.5000 1.0000 1.0000 1.0000
v -11.4446 8.7000 -37.2857 1.0000 1.0000 1.0000
v -10.2846 8.7000 -37.2857 1.0000 1.0000 1.0000
v -9.9325 8.7000 -43.5000 1.0000 1.0000 1.0000
v -10.6368 8.7000 -31.0714 0.7664 0.7664 0.7664
v -10.2846 8.7000 -37.2857 0.7664 0.7664 0.7664
v -10.2846 6.9600 -37.2857 0.7664 0.7664 0.7664
v -10.6368 6.9600 -31.0714 0.7664 0.7664 0.7664
v -11.4446 8.7000 -37.2857 1.0000 1.0000 1.0000
v -11.7968 8.7000 -31.0714 1.0000 1.0000 1.0000
v -10.6368 8.7000 -31.0714 1.0000 1.0000 1.0000
v -10.2846 8.7000 -37.2857 1.0000 1.0000 1.0000
v -10.9889 8.7000 -24.8571 0.7664 0.7664 0.7664
v -10.6368 8.7000 -31.0714 0.7664 0.7664 0.7664
v -10.6368 6.9600 -31.0714 0.7664 0.7664 0.7664
v -10.9889 6.9600 -24.8571 0.7664 0.7664 0.7664
v -11.7968 8.7000 -31.0714 1.0000 1.0000 1.0000
v -12.1489 8.7000 -24.8571 1.0000 1.0000 1.0000
v -10.9889 8.7000 -24.8571 1.0000 1.0000 1.0000
v -10.6368 8.7000 -31.0714 1.0000 1.0000 1.0000
v -11.1650 8.7000 -18.6429 0.7633 0.7633 0.7633
v -10.9889 8.7000 -24.8571 0.7633 0.7633 0.7633
v -10.9889 6.9600 -24.8571 0.7633 0.7633 0.7633
v -11.1650 6.9600 -18.6429 0.7633 0.7633 0.7633
v -12.1489 8.7000 -24.8571 1.0000 1.0000 1.0000
v -12.3250 8.7000 -18.6429 1.0000 1.0000 1.0000
v -11.1650 8.7000 -18.6429 1.0000 1.0000 1.0000
v -10.9889 8.7000 -24.8571 1.0000 1.0000 1.0000
v -11.1650 8.7000 -12.4286 0.7600 0.7600 0.7600
v -11.1650 8.7000 -18.6429 0.7600 0.7600 0.7600
v -11.1650 6.9600 -18.6429 0.7600 0.7600 0.7600
v -11.1650 6.9600 -12.4286 0.7600 0.7600 0.7600
v -12.3250 8.7000 -18.6429 1.0000 1.0000 1.0000
v -12.3250 8.7000 -12.4286 1.0000 1.0000 1.0000
v -11.1650 8.7000 -12.4286 1.0000 1.0000 1.0000
v -11.1650 8.7000 -18.6429 1.0000 1.0000 1.0000
v -11.1650 8.7000 -6.2143 0.7600 0.7600 0.7600
v -11.1650 8.7000 -12.4286 0.7600 0.7600 0.7600
v -11.1650 6.9600 -12.4286 0.7600 0.7600 0.7600
v -11.1650 6.9600 -6.2143 0.7600 0.7600 0.7600
v -12.3250 8.7000 -12.4286 1.0000 1.0000 1.0000
v -12.3250 8.7000 -6.2143 1.0000 1.0000 1.0000
v -11.1650 8.7000 -6.2143 1.0000 1.0000 1.0000
v -11.1650 8.7000 -12.4286 1.0000 1.0000 1.0000
v -11.1650 8.7000 0.0000 0.7600 0.7600 0.7600
v -11.1650 8.7000 -6.2143 0.7600 0.7600 0.7600
v -11.1650 6.9600 -6.2143 0.7600 0.7600 0.7600
v -11.1650 6.9600 0.0000 0.7600 0.7600 0.7600
v -12.3250 8.7000 -6.2143 1.0000 1.0000 1.0000
v -12.3250 8.7000 0.0000 1.0000 1.0000 1.0000
v -11.1650 8.7000 0.0000 1.0000 1.0000 1.0000
v -11.1650 8.7000 -6.2143 1.0000 1.0000 1.0000
v -11.1650 8.7000 6.2143 0.7600 0.7600 0.7600
v -11.1650 8.7000 0.0000 0.7600 0.7600 0.7600
v -11.1650 6.9600 0.0000 0.7600 0.7600 0.7600
v -11.1650 6.9600 6.2143 0.7600 0.7600 0.7600
v -12.3250 8.7000 0.0000 1.0000 1.0000 1.0000
v -12.3250 8.7000 6.2143 1.0000 1.0000 1.0000
v -11.1650 8.7000 6.2143 1.0000 1.0000 1.0000
v -11.1650 8.7000 0.0000 1.0000 1.0000 1.0000
v -11.0941 8.7350 12.4286 0.7589 0.7589 0.7589
v -11.1650 8.7000 6.2143 0.7589 0.7589 0.7589
v -11.1650 6.9600 6.2143 0.7589 0.7589 0.7589
v -11.0941 6.9600 12.4286 0.7589 0.7589 0.7589
v -12.3250 8.7000 6.2143 1.0000 1.0000 1.0000
v -12.2541 8.7350 12.4286 1.0000 1.0000 1.0000
v -11.0941 8.7350 12.4286 1.0000 1.0000 1.0000
v -11.1650 8.7000 6.2143 1.0000 1.0000 1.0000
v -10.6512 8.9486 18.6429 0.7533 0.7533 0.7533
v -11.0941 8.7350 12.4286 0.7533 0.7533 0.7533
v -11.0941 6.9600 12.4286 0.7533 0.7533 0.7533
v -10.6512 6.9600 18.6429 0.7533 0.7533 0.7533
v -12.2541 8.7350 12.4286 1.0000 1.0000 1.0000
v -11.8112 8.9486 18.6429 1.0000 1.0000 1.0000
v -10.6512 8.9486 18.6429 1.0000 1.0000 1.0000
v -11.0941 8.7350 12.4286 1.0000 1.0000 1.0000
v -9.7561 9.3564 24.8571 0.7474 0.7474 0.7474
v -10.6512 8.9486 18.6429 0.7474 0.7474 0.7474
v -10.6512 6.9600 18.6429 0.7474 0.7474 0.7474
v -9.7561 6.9600 24.8571 0.7474 0.7474 0.7474
v -11.8112 8.9486 18.6429 1.0000 1.0000 1.0000
v -10.9161 9.3564 24.8571 1.0000 1.0000 1.0000
v -9.7561 9.3564 24.8571 1.0000 1.0000 1.0000
v -10.6512 8.9486 18.6429 1.0000 1.0000 1.0000
v -8.2808 9.9584 31.0714 0.7408 0.7408 0.7408
v -9.7561 9.3564 24.8571 0.7408 0.7408 0.7408
v -9.7561 6.9600 24.8571 0.7408 0.7408 0.7408
v -8.2808 6.9600 31.0714 0.7408 0.7408 0.7408
v -10.9161 9.3564 24.8571 1.0000 1.0000 1.0000
v -9.4408 9.9584 31.0714 1.0000 1.0000 1.0000
v -8.2808 9.9584 31.0714 1.0000 1.0000 1.0000
v -9.7561 9.3564 24.8571 1.0000 1.0000 1.0000
v -5.8691 10.7546 37.2857 0.7320 0.7320 0.7320
v -8.2808 9.9584 31.0714 0.7320 0.7320 0.7320
v -8.2808 6.9600 31.0714 0.7320 0.7320 0.7320
v -5.8691 6.9600 37.2857 0.7320 0.7320 0.7320
v -9.4408 9.9584 31.0714 1.0000 1.0000 1.0000
v -7.0291 10.7546 37.2857 1.0000 1.0000 1.0000
v -5.8691 10.7546 37.2857 1.0000 1.0000 1.0000
v -8.2808 9.9584 31.0714 1.0000 1.0000 1.0000
v -0.0000 11.7450 43.5000 0.7114 0.7114 0.7114
v -5.8691 10.7546 37.2857 0.7114 0.7114 0.7114
v -5.8691 6.9600 37.2857 0.7114 0.7114 0.7114
v -0.0000 6.9600 43.5000 0.7114 0.7114 0.7114
v -7.0291 10.7546 37.2857 1.0000 1.0000 1.0000
v -0.0000 11.7450 43.5000 1.0000 1.0000 1.0000
v -0.0000 11.7450 43.5000 1.0000 1.0000 1.0000
v -5.8691 10.7546 37.2857 1.0000 1.0000 1.0000
v 9.9325 8.7000 -43.5000 0.7664 0.7664 0.7664
v 10.2846 8.7000 -37.2857 0.7664 0.7664 0.7664
v 10.2846 6.9600 -37.2857 0.7664 0.7664 0.7664
v 9.9325 6.9600 -43.5000 0.7664 0.7664 0.7664
v 11.0925 8.7000 -43.5000 1.0000 1.0000 1.0000
v 11.4446 8.7000 -37.2857 1.0000 1.0000 1.0000
v 10.2846 8.7000 -37.2857 1.0000 1.0000 1.0000
v 9.9325 8.7000 -43.5000 1.0000 1.0000 1.0000
v 10.2846 8.7000 -37.2857 0.7664 0.7664 0.7664
v 10.6368 8.7000 -31.0714 0.7664 0.7664 0.7664
v 10.6368 6.9600 -31.0714 0.7664 0.7664 0.7664
v 10.2846 6.9600 -37.2857 0.7664 0.7664 0.7664
v 11.4446 8.7000 -37.2857 1.0000 1.0000 1.0000
v 11.7968 8.7000 -31.0714 1.0000 1.0000 1.0000
v 10.6368 8.7000 -31.0714 1.0000 1.0000 1.0000
v 10.2846 8.7000 -37.2857 1.0000 1.0000 1.0000
v 10.6368 8.7000 -31.0714 0.7664 0.7664 0.7664
v 10.9889 8.7000 -24.8571 0.7664 0.7664 0.7664
v 10.9889 6.9600 -24.8571 0.7664 0.7664 0.7664
v 10.6368 6.9600 -31.0714 0.7664 0.7664 0.7664
v 11.7968 8.7000 -31.0714 1.0000 1.0000 1.0000
v 12.1489 8.7000 -24.8571 1.0000 1.0000 1.0000
v 10.9889 8.7000 -24.8571 1.0000 1.0000 1.0000
v 10.6368 8.7000 -31.0714 1.0000 1.0000 1.0000
v 10.9889 8.7000 -24.8571 0.7633 0.7633 0.7633
v 11.1650 8.7000 -18.6429 0.7633 0.7633 0.7633
v 11.1650 6.9600 -18.6429 0.7633 0.7633 0.7633
v 10.9889 6.9600 -24.8571 0.7633 0.7633 0.7633
v 12.1489 8.7000 -24.8571 1.0000 1.0000 1.0000
v 12.3250 8.7000 -18.6429 1.0000 1.0000 1.0000
v 11.1650 8.7000 -18.6429 1.0000 1.0000 1.0000
v 10.9889 8.7000 -24.8571 1.0000 1.0000 1.0000
v 11.1650 8.7000 -18.6429 0.7600 0.7600 0.7600
v 11.1650 8.7000 -12.4286 0.7600 0.7600 0.7600
v 11.1650 6.9600 -12.4286 0.7600 0.7600 0.7600
v 11.1650 6.9600 -18.6429 0.7600 0.7600 0.7600
v 12.3250 8.7000 -18.6429 1.0000 1.0000 1.0000
v 12.3250 8.7000 -12.4286 1.0000 1.0000 1.0000
v 11.1650 8.7000 -12.4286 1.0000 1.0000 1.0000
v 11.1650 8.7000 -18.6429 1.0000 1.0000 1.0000
v 11.1650 8.7000 -12.4286 0.7600 0.7600 0.7600
v 11.1650 8.7000 -6.2143 0.7600 0.7600 0.7600
v 11.1650 6.9600 -6.2143 0.7600 0.7600 0.7600
v 11.1650 6.9600 -12.4286 0.7600 0.7600 0.7600
v 12.3250 8.7000 -12.4286 1.0000 1.0000 1.0000
v 12.3250 8.7000 -6.2143 1.0000 1.0000 1.0000
v 11.1650 8.7000 -6.2143 1.0000 1.0000 1.0000
v 11.1650 8.7000 -12.4286 1.0000 1.0000 1.0000
v 11.1650 8.7000 -6.2143 0.7600 0.7600 0.7600
v 11.1650 8.7000 0.0000 0.7600 0.7600 0.7600
v 11.1650 6.9600 0.0000 0.7600 0.7600 0.7600
v 11.1650 6.9600 -6.2143 0.7600 0.7600 0.7600
v 12.3250 8.7000 -6.2143 1.0000 1.0000 1.0000
v 12.3250 8.7000 0.0000 1.0000 1.0000 1.0000
v 11.1650 8.7000 0.0000 1.0000 1.0000 1.0000
v 11.1650 8.7000 -6.2143 1.0000 1.0000 1.0000
v 11.1650 8.7000 0.0000 0.7600 0.7600 0.7600
v 11.1650 8.7000 6.2143 0.7600 0.7600 0.7600
v 11.1650 6.9600 6.2143 0.7600 0.7600 0.7600
v 11.1650 6.9600 0.0000 0.7600 0.7600 0.7600
v 12.3250 8.7000 0.0000 1.0000 1.0000 1.0000
v 12.3250 8.7000 6.2143 1.0000 1.0000 1.0000
v 11.1650 8.7000 6.2143 1.0000 1.0000 1.0000
v 11.1650 8.7000 0.0000 1.0000 1.0000 1.0000
v 11.1650 8.7000 6.2143 0.7589 0.7589 0.7589
v 11.0941 8.7350 12.4286 0.7589 0.7589 0.7589
v 11.0941 6.9600 12.4286 0.7589 0.7589 0.7589
v 11.1650 6.9600 6.2143 0.7589 0.7589 0.7589
v 12.3250 8.7000 6.2143 1.0000 1.0000 1.0000
v 12.2541 8.7350 12.4286 1.0000 1.0000 1.0000
v 11.0941 8.7350 12.4286 1.0000 1.0000 1.0000
v 11.1650 8.7000 6.2143 1.0000 1.0000 1.0000
v 11.0941 8.7350 12.4286 0.7533 0.7533 0.7533
v 10.6512 8.9486 18.6429 0.7533 0.7533 0.7533
v 10.6512 6.9600 18.6429 0.7533 0.7533 0.7533
v 11.0941 6.9600 12.4286 0.7533 0.7533 0.7533
v 12.2541 8.7350 12.4286 1.0000 1.0000 1.0000
v 11.8112 8.9486 18.6429 1.0000 1.0000 1.0000
v 10.6512 8.9486 18.6429 1.0000 1.0000 1.0000
v 11.0941 8.7350 12.4286 1.0000 1.0000 1.0000
v 10.6512 8.9486 18.6429 0.7474 0.7474 0.7474
v 9.7561 9.3564 24.8571 0.7474 0.7474 0.7474
v 9.7561 6.9600 24.8571 0.7474 0.7474 0.7474
v 10.6512 6.9600 18.6429 0.7474 0.7474 0.7474
v 11.8112 8.9486 18.6429 1.0000 1.0000 1.0000
v 10.9161 9.3564 24.8571 1.0000 1.0000 1.0000
v 9.7561 9.3564 24.8571 1.0000 1.0000 1.0000
v 10.6512 8.9486 18.6429 1.0000 1.0000 1.0000
v 9.7561 9.3564 24.8571 0.7408 0.7408 0.7408
v 8.2808 9.9584 31.0714 0.7408 0.7408 0.7408
v 8.2808 6.9600 31.0714 0.7408 0.7408 0.7408
v 9.7561 6.9600 24.8571 0.7408 0.7408 0.7408
v 10.9161 9.3564 24.8571 1.0000 1.0000 1.0000
v 9.4408 9.9584 31.0714 1.0000 1.0000 1.0000
v 8.2808 9.9584 31.0714 1.0000 1.0000 1.0000
v 9.7561 9.3564 24.8571 1.0000 1.0000 1.0000
v 8.2808 9.9584 31.0714 0.7320 0.7320 0.7320
v 5.8691 10.7546 37.2857 0.7320 0.7320 0.7320
v 5.8691 6.9600 37.2857 0.7320 0.7320 0.7320
v 8.2808 6.9600 31.0714 0.7320 0.7320 0.7320
v 9.4408 9.9584 31.0714 1.0000 1.0000 1.0000
v 7.0291 10.7546 37.2857 1.0000 1.0000 1.0000
v 5.8691 10.7546 37.2857 1.0000 1.0000 1.0000
v 8.2808 9.9584 31.0714 1.0000 1.0000 1.0000
v 5.8691 10.7546 37.2857 0.7114 0.7114 0.7114
v 0.0000 11.7450 43.5000 0.7114 0.7114 0.7114
v 0.0000 6.9600 43.5000 0.7114 0.7114 0.7114
v 5.8691 6.9600 37.2857 0.7114 0.7114 0.7114
v 7.0291 10.7546 37.2857 1.0000 1.0000 1.0000
v 0.0000 11.7450 43.5000 1.0000 1.0000 1.0000
v 0.0000 11.7450 43.5000 1.0000 1.0000 1.0000
v 5.8691 10.7546 37.2857 1.0000 1.0000 1.0000
v -0.0000 6.9600 6.9600 0.8361 0.8361 0.8361
v -1.0046 6.9600 6.3800 0.8361 0.8361 0.8361
v -1.0046 99.7600 6.3800 0.8361 0.8361 0.8361
v -0.0000 99.7600 6.9600 0.8361 0.8361 0.8361
v -1.0046 6.9600 6.3800 0.7600 0.7600 0.7600
v -1.0046 6.9600 5.2200 0.7600 0.7600 0.7600
v -1.0046 99.7600 5.2200 0.7600 0.7600 0.7600
v -1.0046 99.7600 6.3800 0.7600 0.7600 0.7600
v -1.0046 6.9600 5.2200 0.6966 0.6966 0.6966
v -0.0000 6.9600 4.6400 0.6966 0.6966 0.6966
v -0.0000 99.7600 4.6400 0.6966 0.6966 0.6966
v -1.0046 99.7600 5.2200 0.6966 0.6966 0.6966
v -0.0000 6.9600 4.6400 0.6966 0.6966 0.6966
v 1.0046 6.9600 5.2200 0.6966 0.6966 0.6966
v 1.0046 99.7600 5.2200 0.6966 0.6966 0.6966
v -0.0000 99.7600 4.6400 0.6966 0.6966 0.6966
v 1.0046 6.9600 5.2200 0.7600 0.7600 0.7600
v 1.0046 6.9600 6.3800 0.7600 0.7600 0.7600
v 1.0046 99.7600 6.3800 0.7600 0.7600 0.7600
v 1.0046 99.7600 5.2200 0.7600 0.7600 0.7600
v 1.0046 6.9600 6.3800 0.8361 0.8361 0.8361
v 0.0000 6.9600 6.9600 0.8361 0.8361 0.8361
v 0.0000 99.7600 6.9600 0.8361 0.8361 0.8361
v 1.0046 99.7600 6.3800 0.8361 0.8361 0.8361
v 19.3112 21.7500 -23.7121 1.0000 1.0000 1.0000
v 0.8700 21.7500 5.8000 1.0000 1.0000 1.0000
v -0.8700 21.7500 5.8000 1.0000 1.0000 1.0000
v 17.5712 21.7500 -23.7121 1.0000 1.0000 1.0000
v 17.5712 21.7500 -23.7121 0.7215 0.7215 0.7215
v -0.8700 21.7500 5.8000 0.7215 0.7215 0.7215
v -0.8700 20.0100 5.8000 0.7215 0.7215 0.7215
v 17.5712 20.0100 -23.7121 0.7215 0.7215 0.7215
v -0.4350 96.8600 5.8000 0.7215 0.7215 0.7215
v -0.0508 22.9100 5.1852 0.7215 0.7215 0.7215
v 17.2378 22.9100 -22.4824 0.7215 0.7215 0.7215
v 0.7609 82.3600 6.6066 0.7945 0.7945 0.7945
v 13.4713 11.3100 38.0660 0.7945 0.7945 0.7945
v 0.9782 14.2100 7.1444 0.7945 0.7945 0.7945
vt -0.37500 0.84375
vt 0.25000 0.84375
vt 0.25000 1.15625
vt -0.37500 1.15625
vt -0.37500 1.00000
vt 0.25000 1.00000
vt 0.25000 0.68750
vt -0.37500 0.68750
vt -0.25000 1.00000
vt 0.37500 1.00000
vt 0.37500 0.68750
vt -0.25000 0.68750
vt -0.15625 1.00000
vt 0.15625 1.00000
vt 0.15625 0.68750
vt -0.15625 0.68750
vt -0.15625 1.00000
vt 0.15625 1.00000
vt 0.15625 0.68750
vt -0.15625 0.68750
vt -0.37500 0.84375
vt 0.25000 0.84375
vt 0.25000 1.15625
vt -0.37500 1.15625
vt -0.93750 1.21406
vt -0.80357 1.22165
vt -0.66964 1.22924
vt -0.53571 1.23683
vt -0.40179 1.24063
vt -0.26786 1.24063
vt -0.13393 1.24063
vt 0.00000 1.24063
vt 0.13393 1.24063
vt 0.26786 1.23910
vt 0.40179 1.22955
vt 0.53571 1.21026
vt 0.66964 1.17847
vt 0.80357 1.12649
vt 0.93750 1.00000
vt 0.93750 1.00000
vt 0.80357 0.87351
vt 0.66964 0.82153
vt 0.53571 0.78974
vt 0.40179 0.77045
vt 0.26786 0.76090
vt 0.13393 0.75938
vt 0.00000 0.75938
vt -0.13393 0.75938
vt -0.26786 0.75938
vt -0.40179 0.75938
vt -0.53571 0.76317
vt -0.66964 0.77076
vt -0.80357 0.77835
vt -0.93750 0.78594
vt -0.93750 1.00000
vt -0.80357 1.00000
vt -0.80357 0.40000
vt -0.93750 0.40000
vt -0.93750 0.40000
vt -0.80357 0.40000
vt -0.80357 0.00000
vt -0.93750 0.00000
vt -0.80357 1.00000
vt -0.66964 1.00000
vt -0.66964 0.40000
vt -0.80357 0.40000
vt -0.80357 0.40000
vt -0.66964 0.40000
vt -0.66964 0.00000
vt -0.80357 0.00000
vt -0.66964 1.00000
vt -0.53571 1.00000
vt -0.53571 0.40000
vt -0.66964 0.40000
vt -0.66964 0.40000
vt -0.53571 0.40000
vt -0.53571 0.00000
vt -0.66964 0.00000
vt -0.53571 1.00000
vt -0.40179 1.00000
vt -0.40179 0.40000
vt -0.53571 0.40000
vt -0.53571 0.40000
vt -0.40179 0.40000
vt -0.40179 0.00000
vt -0.53571 0.00000
vt -0.40179 1.00000
vt -0.26786 1.00000
vt -0.26786 0.40000
vt -0.40179 0.40000
vt -0.40179 0.40000
vt -0.26786 0.40000
vt -0.26786 0.00000
vt -0.40179 0.00000
vt -0.26786 1.00000
vt -0.13393 1.00000
vt -0.13393 0.40000
vt -0.26786 0.40000
vt -0.26786 0.40000
vt -0.13393 0.40000
vt -0.13393 0.00000
vt -0.26786 0.00000
vt -0.13393 1.00000
vt 0.00000 1.00000
vt 0.00000 0.40000
vt -0.13393 0.40000
vt -0.13393 0.40000
vt 0.00000 0.40000
vt 0.00000 0.00000
vt -0.13393 0.00000
vt 0.00000 1.00000
vt 0.13393 1.00000
vt 0.13393 0.40000
vt 0.00000 0.40000
vt 0.00000 0.40000
vt 0.13393 0.40000
vt 0.13393 0.00000
vt 0.00000 0.00000
vt 0.13393 1.00000
vt 0.26786 1.00000
vt 0.26786 0.40000
vt 0.13393 0.40000
vt 0.13393 0.40000
vt 0.26786 0.40000
vt 0.26786 0.00000
vt 0.13393 0.00000
vt 0.26786 1.00000
vt 0.40179 1.00000
vt 0.40179 0.40000
vt 0.26786 0.40000
vt 0.26786 0.40000
vt 0.40179 0.40000
vt 0.40179 0.00000
vt 0.26786 0.00000
vt 0.40179 1.00000
vt 0.53571 1.00000
vt 0.53571 0.40000
vt 0.40179 0.40000
vt 0.40179 0.40000
vt 0.53571 0.40000
vt 0.53571 0.00000
vt 0.40179 0.00000
vt 0.53571 1.00000
vt 0.66964 1.00000
vt 0.66964 0.40000
vt 0.53571 0.40000
vt 0.53571 0.40000
vt 0.66964 0.40000
vt 0.66964 0.00000
vt 0.53571 0.00000
vt 0.66964 1.00000
vt 0.80357 1.00000
vt 0.80357 0.40000
vt 0.66964 0.40000
vt 0.66964 0.40000
vt 0.80357 0.40000
vt 0.80357 0.00000
vt 0.66964 0.00000
vt 0.80357 1.00000
vt 0.93750 1.00000
vt 0.93750 0.40000
vt 0.80357 0.40000
vt 0.80357 0.40000
vt 0.93750 0.40000
vt 0.93750 0.00000
vt 0.80357 0.00000
vt 0.80357 1.00000
vt 0.93750 1.00000
vt 0.93750 0.40000
vt 0.80357 0.40000
vt 0.80357 0.40000
vt 0.93750 0.40000
vt 0.93750 0.00000
vt 0.80357 0.00000
vt 0.66964 1.00000
vt 0.80357 1.00000
vt 0.80357 0.40000
vt 0.66964 0.40000
vt 0.66964 0.40000
vt 0.80357 0.40000
vt 0.80357 0.00000
vt 0.66964 0.00000
vt 0.53571 1.00000
vt 0.66964 1.00000
vt 0.66964 0.40000
vt 0.53571 0.40000
vt 0.53571 0.40000
vt 0.66964 0.40000
vt 0.66964 0.00000
vt 0.53571 0.00000
vt 0.40179 1.00000
vt 0.53571 1.00000
vt 0.53571 0.40000
vt 0.40179 0.40000
vt 0.40179 0.40000
vt 0.53571 0.40000
vt 0.53571 0.00000
vt 0.40179 0.00000
vt 0.26786 1.00000
vt 0.40179 1.00000
vt 0.40179 0.40000
vt 0.26786 0.40000
vt 0.26786 0.40000
vt 0.40179 0.40000
vt 0.40179 0.00000
vt 0.26786 0.00000
vt 0.13393 1.00000
vt 0.26786 1.00000
vt 0.26786 0.40000
vt 0.13393 0.40000
vt 0.13393 0.40000
vt 0.26786 0.40000
vt 0.26786 0.00000
vt 0.13393 0.00000
vt -0.00000 1.00000
vt 0.13393 1.00000
vt 0.13393 0.40000
vt -0.00000 0.40000
vt -0.00000 0.40000
vt 0.13393 0.40000
vt 0.13393 0.00000
vt -0.00000 0.00000
vt -0.13393 1.00000
vt -0.00000 1.00000
vt -0.00000 0.40000
vt -0.13393 0.40000
vt -0.13393 0.40000
vt -0.00000 0.40000
vt -0.00000 0.00000
vt -0.13393 0.00000
vt -0.26786 1.00000
vt -0.13393 1.00000
vt -0.13393 0.40000
vt -0.26786 0.40000
vt -0.26786 0.40000
vt -0.13393 0.40000
vt -0.13393 0.00000
vt -0.26786 0.00000
vt -0.40179 1.00000
vt -0.26786 1.00000
vt -0.26786 0.40000
vt -0.40179 0.40000
vt -0.40179 0.40000
vt -0.26786 0.40000
vt -0.26786 0.00000
vt -0.40179 0.00000
vt -0.53571 1.00000
vt -0.40179 1.00000
vt -0.40179 0.40000
vt -0.53571 0.40000
vt -0.53571 0.40000
vt -0.40179 0.40000
vt -0.40179 0.00000
vt -0.53571 0.00000
vt -0.66964 1.00000
vt -0.53571 1.00000
vt -0.53571 0.40000
vt -0.66964 0.40000
vt -0.66964 0.40000
vt -0.53571 0.40000
vt -0.53571 0.00000
vt -0.66964 0.00000
vt -0.80357 1.00000
vt -0.66964 1.00000
vt -0.66964 0.40000
vt -0.80357 0.40000
vt -0.80357 0.40000
vt -0.66964 0.40000
vt -0.66964 0.00000
vt -0.80357 0.00000
vt -0.93750 1.00000
vt -0.80357 1.00000
vt -0.80357 0.40000
vt -0.93750 0.40000
vt -0.93750 0.40000
vt -0.80357 0.40000
vt -0.80357 0.00000
vt -0.93750 0.00000
vt -0.23906 1.00000
vt 0.23906 1.00000
vt 0.22950 0.40000
vt -0.22950 0.40000
vt -0.22950 0.40000
vt 0.22950 0.40000
vt 0.13148 0.00000
vt -0.13148 0.00000
vt -0.80357 1.00000
vt -0.93750 1.00000
vt -0.93750 0.92500
vt -0.80357 0.92500
vt -0.93750 1.00000
vt -0.80357 1.00000
vt -0.80357 0.95000
vt -0.93750 0.95000
vt -0.66964 1.00000
vt -0.80357 1.00000
vt -0.80357 0.92500
vt -0.66964 0.92500
vt -0.80357 1.00000
vt -0.66964 1.00000
vt -0.66964 0.95000
vt -0.80357 0.95000
vt -0.53571 1.00000
vt -0.66964 1.00000
vt -0.66964 0.92500
vt -0.53571 0.92500
vt -0.66964 1.00000
vt -0.53571 1.00000
vt -0.53571 0.95000
vt -0.66964 0.95000
vt -0.40179 1.00000
vt -0.53571 1.00000
vt -0.53571 0.92500
vt -0.40179 0.92500
vt -0.53571 1.00000
vt -0.40179 1.00000
vt -0.40179 0.95000
vt -0.53571 0.95000
vt -0.26786 1.00000
vt -0.40179 1.00000
vt -0.40179 0.92500
vt -0.26786 0.92500
vt -0.40179 1.00000
vt -0.26786 1.00000
vt -0.26786 0.95000
vt -0.40179 0.95000
vt -0.13393 1.00000
vt -0.26786 1.00000
vt -0.26786 0.92500
vt -0.13393 0.92500
vt -0.26786 1.00000
vt -0.13393 1.00000
vt -0.13393 0.95000
vt -0.26786 0.95000
vt 0.00000 1.00000
vt -0.13393 1.00000
vt -0.13393 0.92500
vt 0.00000 0.92500
vt -0.13393 1.00000
vt 0.00000 1.00000
vt 0.00000 0.95000
vt -0.13393 0.95000
vt 0.13393 1.00000
vt 0.00000 1.00000
vt 0.00000 0.92500
vt 0.13393 0.92500
vt 0.00000 1.00000
vt 0.13393 1.00000
vt 0.13393 0.95000
vt 0.00000 0.95000
vt 0.26786 1.00000
vt 0.13393 1.00000
vt 0.13393 0.92500
vt 0.26786 0.92500
vt 0.13393 1.00000
vt 0.26786 1.00000
vt 0.26786 0.95000
vt 0.13393 0.95000
vt 0.40179 1.00000
vt 0.26786 1.00000
vt 0.26786 0.92500
vt 0.40179 0.92500
vt 0.26786 1.00000
vt 0.40179 1.00000
vt 0.40179 0.95000
vt 0.26786 0.95000
vt 0.53571 1.00000
vt 0.40179 1.00000
vt 0.40179 0.92500
vt 0.53571 0.92500
vt 0.40179 1.00000
vt 0.53571 1.00000
vt 0.53571 0.95000
vt 0.40179 0.95000
vt 0.66964 1.00000
vt 0.53571 1.00000
vt 0.53571 0.92500
vt 0.66964 0.92500
vt 0.53571 1.00000
vt 0.66964 1.00000
vt 0.66964 0.95000
vt 0.53571 0.95000
vt 0.80357 1.00000
vt 0.66964 1.00000
vt 0.66964 0.92500
vt 0.80357 0.92500
vt 0.66964 1.00000
vt 0.80357 1.00000
vt 0.80357 0.95000
vt 0.66964 0.95000
vt 0.93750 1.00000
vt 0.80357 1.00000
vt 0.80357 0.92500
vt 0.93750 0.92500
vt 0.80357 1.00000
vt 0.93750 1.00000
vt 0.93750 0.95000
vt 0.80357 0.95000
vt -0.93750 1.00000
vt -0.80357 1.00000
vt -0.80357 0.92500
vt -0.93750 0.92500
vt -0.93750 1.00000
vt -0.80357 1.00000
vt -0.80357 0.95000
vt -0.93750 0.95000
vt -0.80357 1.00000
vt -0.66964 1.00000
vt -0.66964 0.92500
vt -0.80357 0.92500
vt -0.80357 1.00000
vt -0.66964 1.00000
vt -0.66964 0.95000
vt -0.80357 0.95000
vt -0.66964 1.00000
vt -0.53571 1.00000
vt -0.53571 0.92500
vt -0.66964 0.92500
vt -0.66964 1.00000
vt -0.53571 1.00000
vt -0.53571 0.95000
vt -0.66964 0.95000
vt -0.53571 1.00000
vt -0.40179 1.00000
vt -0.40179 0.92500
vt -0.53571 0.92500
vt -0.53571 1.00000
vt -0.40179 1.00000
vt -0.40179 0.95000
vt -0.53571 0.95000
vt -0.40179 1.00000
vt -0.26786 1.00000
vt -0.26786 0.92500
vt -0.40179 0.92500
vt -0.40179 1.00000
vt -0.26786 1.00000
vt -0.26786 0.95000
vt -0.40179 0.95000
vt -0.26786 1.00000
vt -0.13393 1.00000
vt -0.13393 0.92500
vt -0.26786 0.92500
vt -0.26786 1.00000
vt -0.13393 1.00000
vt -0.13393 0.95000
vt -0.26786 0.95000
vt -0.13393 1.00000
vt 0.00000 1.00000
vt 0.00000 0.92500
vt -0.13393 0.92500
vt -0.13393 1.00000
vt 0.00000 1.00000
vt 0.00000 0.95000
vt -0.13393 0.95000
vt 0.00000 1.00000
vt 0.13393 1.00000
vt 0.13393 0.92500
vt 0.00000 0.92500
vt 0.00000 1.00000
vt 0.13393 1.00000
vt 0.13393 0.95000
vt 0.00000 0.95000
vt 0.13393 1.00000
vt 0.26786 1.00000
vt 0.26786 0.92500
vt 0.13393 0.92500
vt 0.13393 1.00000
vt 0.26786 1.00000
vt 0.26786 0.95000
vt 0.13393 0.95000
vt 0.26786 1.00000
vt 0.40179 1.00000
vt 0.40179 0.92500
vt 0.26786 0.92500
vt 0.26786 1.00000
vt 0.40179 1.00000
vt 0.40179 0.95000
vt 0.26786 0.95000
vt 0.40179 1.00000
vt 0.53571 1.00000
vt 0.53571 0.92500
vt 0.40179 0.92500
vt 0.40179 1.00000
vt 0.53571 1.00000
vt 0.53571 0.95000
vt 0.40179 0.95000
vt 0.53571 1.00000
vt 0.66964 1.00000
vt 0.66964 0.92500
vt 0.53571 0.92500
vt 0.53571 1.00000
vt 0.66964 1.00000
vt 0.66964 0.95000
vt 0.53571 0.95000
vt 0.66964 1.00000
vt 0.80357 1.00000
vt 0.80357 0.92500
vt 0.66964 0.92500
vt 0.66964 1.00000
vt 0.80357 1.00000
vt 0.80357 0.95000
vt 0.66964 0.95000
vt 0.80357 1.00000
vt 0.93750 1.00000
vt 0.93750 0.92500
vt 0.80357 0.92500
vt 0.80357 1.00000
vt 0.93750 1.00000
vt 0.93750 0.95000
vt 0.80357 0.95000
vt 0.00000 0.00000
vt 0.16667 0.00000
vt 0.16667 1.00000
vt 0.00000 1.00000
vt 0.16667 0.00000
vt 0.33333 0.00000
vt 0.33333 1.00000
vt 0.16667 1.00000
vt 0.33333 0.00000
vt 0.50000 0.00000
vt 0.50000 1.00000
vt 0.33333 1.00000
vt 0.50000 0.00000
vt 0.66667 0.00000
vt 0.66667 1.00000
vt 0.50000 1.00000
vt 0.66667 0.00000
vt 0.83333 0.00000
vt 0.83333 1.00000
vt 0.66667 1.00000
vt 0.83333 0.00000
vt 1.00000 0.00000
vt 1.00000 1.00000
vt 0.83333 1.00000
vt 0.00000 1.00000
vt 1.00000 1.00000
vt 1.00000 0.00000
vt 0.00000 0.00000
vt 0.00000 1.00000
vt 1.00000 1.00000
vt 1.00000 0.00000
vt 0.00000 0.00000
vt 0.90000 1.00000
vt 0.90000 -0.60000
vt 0.00000 -0.60000
vt 0.10000 1.00000
vt 1.00000 -0.50000
vt 0.10000 -0.50000
usemtl cabin
f 1/1 2/2 3/3
f 1/1 3/3 4/4
f 5/5 6/6 7/7
f 5/5 7/7 8/8
f 9/9 10/10 11/11
f 9/9 11/11 12/12
f 13/13 14/14 15/15
f 13/13 15/15 16/16
f 17/17 18/18 19/19
f 17/17 19/19 20/20
usemtl cabin_top
f 21/21 22/22 23/23
f 21/21 23/23 24/24
usemtl deck
f 25/25 26/26 27/27
f 25/25 27/27 28/28
f 25/25 28/28 29/29
f 25/25 29/29 30/30
f 25/25 30/30 31/31
f 25/25 31/31 32/32
f 25/25 32/32 33/33
f 25/25 33/33 34/34
f 25/25 34/34 35/35
f 25/25 35/35 36/36
f 25/25 36/36 37/37
f 25/25 37/37 38/38
f 25/25 38/38 39/39
f 25/25 39/39 40/40
f 25/25 40/40 41/41
f 25/25 41/41 42/42
f 25/25 42/42 43/43
f 25/25 43/43 44/44
f 25/25 44/44 45/45
f 25/25 45/45 46/46
f 25/25 46/46 47/47
f 25/25 47/47 48/48
f 25/25 48/48 49/49
f 25/25 49/49 50/50
f 25/25 50/50 51/51
f 25/25 51/51 52/52
f 25/25 52/52 53/53
f 25/25 53/53 54/54
usemtl hull
f 55/55 56/56 57/57
f 55/55 57/57 58/58
f 59/59 60/60 61/61
f 59/59 61/61 62/62
f 63/63 64/64 65/65
f 63/63 65/65 66/66
f 67/67 68/68 69/69
f 67/67 69/69 70/70
f 71/71 72/72 73/73
f 71/71 73/73 74/74
f 75/75 76/76 77/77
f 75/75 77/77 78/78
f 79/79 80/80 81/81
f 79/79 81/81 82/82
f 83/83 84/84 85/85
f 83/83 85/85 86/86
f 87/87 88/88 89/89
f 87/87 89/89 90/90
f 91/91 92/92 93/93
f 91/91 93/93 94/94
f 95/95 96/96 97/97
f 95/95 97/97 98/98
f 99/99 100/100 101/101
f 99/99 101/101 102/102
f 103/103 104/104 105/105
f 103/103 105/105 106/106
f 107/107 108/108 109/109
f 107/107 109/109 110/110
f 111/111 112/112 113/113
f 111/111 113/113 114/114
f 115/115 116/116 117/117
f 115/115 117/117 118/118
f 119/119 120/120 121/121
f 119/119 121/121 122/122
f 123/123 124/124 125/125
f 123/123 125/125 126/126
f 127/127 128/128 129/129
f 127/127 129/129 130/130
f 131/131 132/132 133/133
f 131/131 133/133 134/134
f 135/135 136/136 137/137
f 135/135 137/137 138/138
f 139/139 140/140 141/141
f 139/139 141/141 142/142
f 143/143 144/144 145/145
f 143/143 145/145 146/146
f 147/147 148/148 149/149
f 147/147 149/149 150/150
f 151/151 152/152 153/153
f 151/151 153/153 154/154
f 155/155 156/156 157/157
f 155/155 157/157 158/158
f 159/159 160/160 161/161
f 159/159 161/161 162/162
f 163/163 164/164 165/165
f 163/163 165/165 166/166
f 167/167 168/168 169/169
f 167/167 169/169 170/170
f 171/171 172/172 173/173
f 171/171 173/173 174/174
f 175/175 176/176 177/177
f 175/175 177/177 178/178
f 179/179 180/180 181/181
f 179/179 181/181 182/182
f 183/183 184/184 185/185
f 183/183 185/185 186/186
f 187/187 188/188 189/189
f 187/187 189/189 190/190
f 191/191 192/192 193/193
f 191/191 193/193 194/194
f 195/195 196/196 197/197
f 195/195 197/197 198/198
f 199/199 200/200 201/201
f 199/199 201/201 202/202
f 203/203 204/204 205/205
f 203/203 205/205 206/206
f 207/207 208/208 209/209
f 207/207 209/209 210/210
f 211/211 212/212 213/213
f 211/211 213/213 214/214
f 215/215 216/216 217/217
f 215/215 217/217 218/218
f 219/219 220/220 221/221
f 219/219 221/221 222/222
f 223/223 224/224 225/225
f 223/223 225/225 226/226
f 227/227 228/228 229/229
f 227/227 229/229 230/230
f 231/231 232/232 233/233
f 231/231 233/233 234/234
f 235/235 236/236 237/237
f 235/235 237/237 238/238
f 239/239 240/240 241/241
f 239/239 241/241 242/242
f 243/243 244/244 245/245
f 243/243 245/245 246/246
f 247/247 248/248 249/249
f 247/247 249/249 250/250
f 251/251 252/252 253/253
f 251/251 253/253 254/254
f 255/255 256/256 257/257
f 255/255 257/257 258/258
f 259/259 260/260 261/261
f 259/259 261/261 262/262
f 263/263 264/264 265/265
f 263/263 265/265 266/266
f 267/267 268/268 269/269
f 267/267 269/269 270/270
f 271/271 272/272 273/273
f 271/271 273/273 274/274
f 275/275 276/276 277/277
f 275/275 277/277 278/278
f 279/279 280/280 281/281
f 279/279 281/281 282/282
f 283/283 284/284 285/285
f 283/283 285/285 286/286
usemtl inner
f 287/287 288/288 289/289
f 287/287 289/289 290/290
f 291/291 292/292 293/293
f 291/291 293/293 294/294
f 295/295 296/296 297/297
f 295/295 297/297 298/298
f 299/299 300/300 301/301
f 299/299 301/301 302/302
f 303/303 304/304 305/305
f 303/303 305/305 306/306
f 307/307 308/308 309/309
f 307/307 309/309 310/310
f 311/311 312/312 313/313
f 311/311 313/313 314/314
f 315/315 316/316 317/317
f 315/315 317/317 318/318
f 319/319 320/320 321/321
f 319/319 321/321 322/322
f 323/323 324/324 325/325
f 323/323 325/325 326/326
f 327/327 328/328 329/329
f 327/327 329/329 330/330
f 331/331 332/332 333/333
f 331/331 333/333 334/334
f 335/335 336/336 337/337
f 335/335 337/337 338/338
f 339/339 340/340 341/341
f 339/339 341/341 342/342
f 343/343 344/344 345/345
f 343/343 345/345 346/346
f 347/347 348/348 349/349
f 347/347 349/349 350/350
f 351/351 352/352 353/353
f 351/351 353/353 354/354
f 355/355 356/356 357/357
f 355/355 357/357 358/358
f 359/359 360/360 361/361
f 359/359 361/361 362/362
f 363/363 364/364 365/365
f 363/363 365/365 366/366
f 367/367 368/368 369/369
f 367/367 369/369 370/370
f 371/371 372/372 373/373
f 371/371 373/373 374/374
f 375/375 376/376 377/377
f 375/375 377/377 378/378
f 379/379 380/380 381/381
f 379/379 381/381 382/382
f 383/383 384/384 385/385
f 383/383 385/385 386/386
f 387/387 388/388 389/389
f 387/387 389/389 390/390
f 391/391 392/392 393/393
f 391/391 393/393 394/394
f 395/395 396/396 397/397
f 395/395 397/397 398/398
f 399/399 400/400 401/401
f 399/399 401/401 402/402
f 403/403 404/404 405/405
f 403/403 405/405 406/406
f 407/407 408/408 409/409
f 407/407 409/409 410/410
f 411/411 412/412 413/413
f 411/411 413/413 414/414
f 415/415 416/416 417/417
f 415/415 417/417 418/418
f 419/419 420/420 421/421
f 419/419 421/421 422/422
f 423/423 424/424 425/425
f 423/423 425/425 426/426
f 427/427 428/428 429/429
f 427/427 429/429 430/430
f 431/431 432/432 433/433
f 431/431 433/433 434/434
f 435/435 436/436 437/437
f 435/435 437/437 438/438
f 439/439 440/440 441/441
f 439/439 441/441 442/442
f 443/443 444/444 445/445
f 443/443 445/445 446/446
f 447/447 448/448 449/449
f 447/447 449/449 450/450
f 451/451 452/452 453/453
f 451/451 453/453 454/454
f 455/455 456/456 457/457
f 455/455 457/457 458/458
f 459/459 460/460 461/461
f 459/459 461/461 462/462
f 463/463 464/464 465/465
f 463/463 465/465 466/466
f 467/467 468/468 469/469
f 467/467 469/469 470/470
f 471/471 472/472 473/473
f 471/471 473/473 474/474
f 475/475 476/476 477/477
f 475/475 477/477 478/478
f 479/479 480/480 481/481
f 479/479 481/481 482/482
f 483/483 484/484 485/485
f 483/483 485/485 486/486
f 487/487 488/488 489/489
f 487/487 489/489 490/490
f 491/491 492/492 493/493
f 491/491 493/493 494/494
f 495/495 496/496 497/497
f 495/495 497/497 498/498
f 499/499 500/500 501/501
f 499/499 501/501 502/502
f 503/503 504/504 505/505
f 503/503 505/505 506/506
f 507/507 508/508 509/509
f 507/507 509/509 510/510
usemtl mast
f 511/511 512/512 513/513
f 511/511 513/513 514/514
f 515/515 516/516 517/517
f 515/515 517/517 518/518
f 519/519 520/520 521/521
f 519/519 521/521 522/522
f 523/523 524/524 525/525
f 523/523 525/525 526/526
f 527/527 528/528 529/529
f 527/527 529/529 530/530
f 531/531 532/532 533/533
f 531/531 533/533 534/534
f 535/535 536/536 537/537
f 535/535 537/537 538/538
f 539/539 540/540 541/541
f 539/539 541/541 542/542
usemtl sail
f 543/543 544/544 545/545
f 546/546 547/547 548/548
