# Created by MKDS Course Modifier
mtllib Outdoor Vending Machine.mtl
g polygon0
usemtl jihan_01_lm2
v -9 14 0
v 4 14 0
v 4 24 0
v -9 24 0
v -9 26 0
v 9 26 0
v 9 37 0
v -9 37 0
vn NaN 0 0
vn NaN 0 0
vn NaN 0 0
vn NaN 0 0
vn NaN 0 0
vn NaN 0 0
vn NaN 0 0
vn NaN 0 0
vt 0.0625 -0.6875
vt 0.46875 -0.6875
vt 0.46875 -0.40625
vt 0.0625 -0.40625
vt 0.0625 -0.34375
vt 0.625 -0.34375
vt 0.625 -0.0625
vt 0.0625 -0.0625
f 1/1/1 2/2/2 3/3/3 4/4/4
f 5/5/5 6/6/6 7/7/7 8/8/8
g polygon1
usemtl h_kage_lm1
v 13 2 -9
v -13 2 -9
v 13 2 0
v -8 2 0
v 18 2 4
v -6 2 4
vn 0 0.9980469 0
vn 0 0.9980469 0
vn 0 0.9980469 0
vn 0 0.9980469 0
vn 0 0.9980469 0
vn 0 0.9980469 0
vt 0.5 -0.125
vt 0.5 -0.125
vt 0.5 -0.875
vt 0.5 -0.875
vt 0.5 -0.125
vt 0.5 -0.125
f 9/9/9 10/10/10 11/11/11
f 10/10/10 12/12/12 11/11/11
f 11/11/11 12/12/12 13/13/13
f 12/12/12 14/14/14 13/13/13
v -6 2 4
v -8 2 0
v -13 2 0
v -13 2 -9
vn 0 0.9980469 0
vn 0 0.9980469 0
vn 0 0.9980469 0
vn 0 0.9980469 0
vt 0.5 -0.125
vt 0.5 -0.875
vt 0.5 -0.125
vt 0.5 -0.125
f 15/15/15 16/16/16 17/17/17
f 16/16/16 18/18/18 17/17/17
v 13 2 -9
v 13 2 0
v 18 2 -4
v 18 2 4
vn 0 0.9980469 0
vn 0 0.9980469 0
vn 0 0.9980469 0
vn 0 0.9980469 0
vt 0.5 -0.125
vt 0.5 -0.875
vt 0.5 -0.125
vt 0.5 -0.125
f 19/19/19 20/20/20 21/21/21
f 20/20/20 22/22/22 21/21/21
g polygon2
usemtl jihan_01_lm1
v -9 24 0
v -12 24 0
v -9 14 0
v -12 3 0
v 4 14 0
v 12 3 0
v 4 24 0
v 12 24 0
vn 0 0 0.9980469
vn 0 0 0.9980469
vn 0 0 0.9980469
vn 0 0 0.9980469
vn 0 0 0.9980469
vn 0 0 0.9980469
vn 0 0 0.9980469
vn 0 0 0.9980469
vt 0.0625 -0.40625
vt 0 -0.40625
vt 0.0625 -0.6875
vt 0 -1
vt 0.46875 -0.6875
vt 0.71875 -1
vt 0.46875 -0.40625
vt 0.71875 -0.40625
f 23/23/23 24/24/24 25/25/25
f 24/24/24 26/26/26 25/25/25
f 25/25/25 26/26/26 27/27/27
f 26/26/26 28/28/28 27/27/27
f 27/27/27 28/28/28 29/29/29
f 28/28/28 30/30/30 29/29/29
v -12 24 0
v -9 26 0
v -12 40 0
v -9 37 0
v 12 40 0
v 9 37 0
v 12 24 0
v 9 26 0
vn 0 0 0.9980469
vn 0 0 0.9980469
vn 0 0 0.9980469
vn 0 0 0.9980469
vn 0 0 0.9980469
vn 0 0 0.9980469
vn 0 0 0.9980469
vn 0 0 0.9980469
vt 0 -0.40625
vt 0.0625 -0.34375
vt 0 0
vt 0.0625 -0.0625
vt 0.71875 0
vt 0.625 -0.0625
vt 0.71875 -0.40625
vt 0.625 -0.34375
f 31/31/31 32/32/32 33/33/33
f 32/32/32 34/34/34 33/33/33
f 33/33/33 34/34/34 35/35/35
f 34/34/34 36/36/36 35/35/35
f 35/35/35 36/36/36 37/37/37
f 36/36/36 38/38/38 37/37/37
v -12 40 0
v -12 40 -8
v -12 24 0
v -12 24 -8
v -12 3 0
v -12 3 -8
vn -1 0 0
vn -1 0 0
vn -1 0 0
vn -1 0 0
vn -1 0 0
vn -1 0 0
vt 0.96875 -0.21875
vt 0.78125 -0.21875
vt 0.96875 -0.6875
vt 0.78125 -0.6875
vt 0.96875 -1
vt 0.78125 -1
f 39/39/39 40/40/40 41/41/41
f 40/40/40 42/42/42 41/41/41
f 41/41/41 42/42/42 43/43/43
f 42/42/42 44/44/44 43/43/43
v 12 3 0
v 12 3 -8
v 12 24 0
v 12 24 -8
v 12 40 0
v 12 40 -8
vn 0.9980469 0 0
vn 0.9980469 0 0
vn 0.9980469 0 0
vn 0.9980469 0 0
vn 0.9980469 0 0
vn 0.9980469 0 0
vt 0.78125 -1
vt 0.96875 -1
vt 0.78125 -0.6875
vt 0.96875 -0.6875
vt 0.78125 -0.21875
vt 0.96875 -0.21875
f 45/45/45 46/46/46 47/47/47
f 46/46/46 48/48/48 47/47/47
f 47/47/47 48/48/48 49/49/49
f 48/48/48 50/50/50 49/49/49
v -9 26 0
v -9 24 0
v 4 24 0
v 9 26 0
v -12 40 0
v 12 40 0
v 12 40 -8
v -12 40 -8
vn 0 0 0.9980469
vn 0 0 0.9980469
vn 0 0 0.9980469
vn 0 0 0.9980469
vn 0 0.9980469 0
vn 0 0.9980469 0
vn 0 0.9980469 0
vn 0 0.9980469 0
vt 0.0625 -0.34375
vt 0.0625 -0.40625
vt 0.46875 -0.40625
vt 0.625 -0.34375
vt 0.78125 -0.15625
vt 0.96875 -0.15625
vt 0.96875 -0.03125
vt 0.78125 -0.03125
f 51/51/51 52/52/52 53/53/53 54/54/54
f 55/55/55 56/56/56 57/57/57 58/58/58
v -12 24 0
v -9 24 0
v -9 26 0
v 9 26 0
v 4 24 0
v 12 24 0
vn 0 0 0.9980469
vn 0 0 0.9980469
vn 0 0 0.9980469
vn 0 0 0.9980469
vn 0 0 0.9980469
vn 0 0 0.9980469
vt 0 -0.40625
vt 0.0625 -0.40625
vt 0.0625 -0.34375
vt 0.625 -0.34375
vt 0.46875 -0.40625
vt 0.71875 -0.40625
f 59/59/59 60/60/60 61/61/61
f 62/62/62 63/63/63 64/64/64
