# Created by MKDS Course Modifier
mtllib Nacrene City Warehouse 3.mtl
g polygon0
usemtl h_mado_1
v -25 39 18
v 26 39 18
v 26 59.78516 18
v -25 59.78516 18
vn 0 0 0.9980469
vn 0 0 0.9980469
vn 0 0 0.9980469
vn 0 0 0.9980469
vt -2 -1
vt 1 -1
vt 1 0
vt -2 0
f 1/1/1 2/2/2 3/3/3 4/4/4
g polygon1
usemtl h_kage_1
v -15 2 20
v -15 2 32
v 33.56641 2 20
v 37 2 32
v 33.56641 2 -40
v 37 2 -52
v -15 2 -40
v -35 2 -52
v -15 2 20
v -35 2 20
vn 0 0.9980469 0
vn 0 0.9980469 0
vn 0 0.9980469 0
vn 0 0.9980469 0
vn 0 0.9980469 0
vn 0 0.9980469 0
vn 0 0.9980469 0
vn 0 0.9980469 0
vn 0 0.9980469 0
vn 0 0.9980469 0
vt 0.625 -0.875
vt 0.625 -0.1953125
vt 0.625 -0.875
vt 0.625 -0.1953125
vt 0.625 -0.875
vt 0.625 -0.1953125
vt 0.625 -0.875
vt 0.625 -0.1953125
vt 0.625 -0.875
vt 0.625 -0.1953125
f 5/5/5 6/6/6 7/7/7
f 6/6/6 8/8/8 7/7/7
f 7/7/7 8/8/8 9/9/9
f 8/8/8 10/10/10 9/9/9
f 9/9/9 10/10/10 11/11/11
f 10/10/10 12/12/12 11/11/11
f 11/11/11 12/12/12 13/13/13
f 12/12/12 14/14/14 13/13/13
v -15 2 -40
v -15 2 20
v 33.56641 2 20
v 33.56641 2 -40
vn 0 0.9980469 0
vn 0 0.9980469 0
vn 0 0.9980469 0
vn 0 0.9980469 0
vt 0.625 -0.875
vt 0.625 -0.875
vt 0.625 -0.875
vt 0.625 -0.875
f 15/15/15 16/16/16 17/17/17 18/18/18
v -15 2 20
v -35 2 20
v -15 2 32
vn 0 0.9980469 0
vn 0 0.9980469 0
vn 0 0.9980469 0
vt 0.625 -0.875
vt 0.625 -0.1953125
vt 0.625 -0.1953125
f 19/19/19 20/20/20 21/21/21
g polygon2
usemtl c2b1y_1
v 34 59.5 22.00781
v 34 55.10938 22.00781
v 34 59.5 18
v 34 55.10938 18
v 34 59.5 -46
v 34 55.10938 -46
v 34 59.5 -50
v 34 55.10938 -50
vn 0.9980469 0 0
vn 0.9980469 0 0
vn 0.9980469 0 0
vn 0.9980469 0 0
vn 0.9980469 0 0
vn 0.9980469 0 0
vn 0.9980469 0 0
vn 0.9980469 0 0
vt -9.539063 -0.2421875
vt -9.539063 -0.3203125
vt -9.484375 -0.2421875
vt -9.484375 -0.3203125
vt -8.59375 -0.2421875
vt -8.59375 -0.3203125
vt -8.539063 -0.2421875
vt -8.539063 -0.3203125
f 22/22/22 23/23/23 24/24/24
f 23/23/23 25/25/25 24/24/24
f 24/24/24 25/25/25 26/26/26
f 25/25/25 27/27/27 26/26/26
f 26/26/26 27/27/27 28/28/28
f 27/27/27 29/29/29 28/28/28
v -34 54.10938 22.00781
v -34 58.5 22.00781
v -34 54.10938 18
v -34 58.5 18
v -34 54.10938 -46
v -34 58.5 -46
v -34 54.10938 -50
v -34 58.5 -50
vn -1 0 0
vn -1 0 0
vn -1 0 0
vn -1 0 0
vn -1 0 0
vn -1 0 0
vn -1 0 0
vn -1 0 0
vt -9.539063 -0.3203125
vt -9.539063 -0.2421875
vt -9.484375 -0.3203125
vt -9.484375 -0.2421875
vt -8.59375 -0.3203125
vt -8.59375 -0.2421875
vt -8.539063 -0.3203125
vt -8.539063 -0.2421875
f 30/30/30 31/31/31 32/32/32
f 31/31/31 33/33/33 32/32/32
f 32/32/32 33/33/33 34/34/34
f 33/33/33 35/35/35 34/34/34
f 34/34/34 35/35/35 36/36/36
f 35/35/35 37/37/37 36/36/36
v 34 59.5 18
v 34 59.5 -46
v 0 70.83594 18
v 0 70.83594 -46
v -34 58.5 18
v -34 58.5 -46
vn 0.3164063 0.9492188 0
vn 0.3164063 0.9492188 0
vn 0 0.9980469 0
vn 0 0.9980469 0
vn -0.3417969 0.9394531 0
vn -0.3417969 0.9394531 0
vt 5.605469 -0.1464844
vt 5.605469 0.1513672
vt 2.953125 -0.1464844
vt 2.953125 0.1513672
vt 5.605469 -0.1464844
vt 5.605469 0.1513672
f 38/38/38 39/39/39 40/40/40
f 39/39/39 41/41/41 40/40/40
f 40/40/40 41/41/41 42/42/42
f 41/41/41 43/43/43 42/42/42
v 34 59.5 22.00781
v 34 59.5 18
v 0 70.83594 22.00781
v 0 70.83594 18
v -34 58.5 22.00781
v -34 58.5 18
vn 0.3164063 0.9492188 0
vn 0.3164063 0.9492188 0
vn 0 0.9980469 0
vn 0 0.9980469 0
vn -0.3417969 0.9394531 0
vn -0.3417969 0.9394531 0
vt 6.976563 -0.2460938
vt 6.976563 -0.1601563
vt 6.027344 -0.2460938
vt 6.027344 -0.1601563
vt 6.976563 -0.2460938
vt 6.976563 -0.1601563
f 44/44/44 45/45/45 46/46/46
f 45/45/45 47/47/47 46/46/46
f 46/46/46 47/47/47 48/48/48
f 47/47/47 49/49/49 48/48/48
v 34 59.5 -46
v 34 59.5 -50
v 0 70.83594 -46
v 0 70.83594 -50
v -34 58.5 -46
v -34 58.5 -50
vn 0.3164063 0.9492188 0
vn 0.3164063 0.9492188 0
vn 0 0.9980469 0
vn 0 0.9980469 0
vn -0.3417969 0.9394531 0
vn -0.3417969 0.9394531 0
vt 6.976563 -0.2460938
vt 6.976563 -0.1601563
vt 6.027344 -0.2460938
vt 6.027344 -0.1601563
vt 6.976563 -0.2460938
vt 6.976563 -0.1601563
f 50/50/50 51/51/51 52/52/52
f 51/51/51 53/53/53 52/52/52
f 52/52/52 53/53/53 54/54/54
f 53/53/53 55/55/55 54/54/54
v 34 55.10938 22.00781
v 34 59.5 22.00781
v 0 66.44141 22.00781
v 0 70.83594 22.00781
v -34 54.10938 22.00781
v -34 58.5 22.00781
vn 0 0 0.9980469
vn 0 0 0.9980469
vn 0 0 0.9980469
vn 0 0 0.9980469
vn 0 0 0.9980469
vn 0 0 0.9980469
vt 2.03125 -0.3212891
vt 2.03125 -0.2392578
vt 2.6875 -0.3212891
vt 2.6875 -0.2392578
vt 2.03125 -0.3212891
vt 2.03125 -0.2392578
f 56/56/56 57/57/57 58/58/58
f 57/57/57 59/59/59 58/58/58
f 58/58/58 59/59/59 60/60/60
f 59/59/59 61/61/61 60/60/60
v -35 38 -49
v -35 38 -16
v -35 40 -16
v -35 40 -49
v 35 40 -49
v -35 40 -49
v -35 40 -16
v 32.03906 40 -16
v 32.03906 40 -16
v -35 40 -16
v -35 40 23
v 35 40 23
v 35 40 -16
v 35 38 -16
v 35 38 -49
v 35 40 -49
v -35 38 -15.98828
v -35 38 23
v -35 40 23
v -35 40 -16
v 35 38 23
v 35 38 -16
v 35 40 -16
v 35 40 23
v 35 40 23
v -35 40 23
v -35 38 23
v 35 38 23
v -19 33 21.00781
v -19 33 26.5625
v -19 35.09375 26.5625
v -19 38.09375 21.00781
v 19 33 26.5625
v 19 33 21.00781
v 19 38.09375 21.00781
v 19 35.09375 26.5625
v -19 38.09375 21.00781
v 19 38.09375 21.00781
v 19 33 21.00781
v -19 33 21.00781
v -19 35.09375 26.5625
v 19 35.09375 26.5625
v 19 38.09375 21.00781
v -19 38.09375 21.00781
v -19 33 26.5625
v 19 33 26.5625
v 19 35.09375 26.5625
v -19 35.09375 26.5625
vn -1 0 0
vn -1 0 0
vn -1 0 0
vn -1 0 0
vn 0 0.9980469 0
vn 0 0.9980469 0
vn 0 0.9980469 0
vn 0 0.9980469 0
vn 0 0.9980469 0
vn 0 0.9980469 0
vn 0 0.9980469 0
vn 0 0.9980469 0
vn 0.9980469 0 0
vn 0.9980469 0 0
vn 0.9980469 0 0
vn 0.9980469 0 0
vn -1 0 0
vn -1 0 0
vn -1 0 0
vn -1 0 0
vn 0.9980469 0 0
vn 0.9980469 0 0
vn 0.9980469 0 0
vn 0.9980469 0 0
vn 0 0 0.9980469
vn 0 0 0.9980469
vn 0 0 0.9980469
vn 0 0 0.9980469
vn -1 0 0
vn -1 0 0
vn -1 0 0
vn -1 0 0
vn 0.9980469 0 0
vn 0.9980469 0 0
vn 0.9980469 0 0
vn 0.9980469 0 0
vn 0 0 -1
vn 0 0 -1
vn 0 0 -1
vn 0 0 -1
vn 0 0.8789063 0.4746094
vn 0 0.8789063 0.4746094
vn 0 0.8789063 0.4746094
vn 0 0.8789063 0.4746094
vn 0 0 0.9980469
vn 0 0 0.9980469
vn 0 0 0.9980469
vn 0 0 0.9980469
vt -3.941406 -0.4892578
vt -3.941406 -0.4892578
vt -3.941406 -0.4716797
vt -3.941406 -0.4716797
vt -3.894531 -0.5664063
vt -3.992188 -0.5664063
vt -3.992188 -0.5722656
vt -3.898438 -0.5722656
vt -3.898438 -0.5771484
vt -3.992188 -0.5771484
vt -3.992188 -0.5898438
vt -3.894531 -0.5898438
vt -3.941406 -0.4716797
vt -3.941406 -0.4892578
vt -3.941406 -0.4892578
vt -3.941406 -0.4716797
vt -3.941406 -0.4892578
vt -3.941406 -0.4892578
vt -3.941406 -0.4716797
vt -3.941406 -0.4716797
vt -3.941406 -0.4892578
vt -3.941406 -0.4892578
vt -3.941406 -0.4716797
vt -3.941406 -0.4716797
vt -3.996094 -0.4472656
vt -3.878906 -0.4472656
vt -3.878906 -0.4775391
vt -3.996094 -0.4775391
vt -5.164063 0.4628906
vt -5.164063 0.3896484
vt -5.230469 0.3896484
vt -5.289063 0.4628906
vt -5.164063 0.3896484
vt -5.164063 0.4619141
vt -5.289063 0.4619141
vt -5.230469 0.3896484
vt 0.796875 -0.1318359
vt 0.9453125 -0.1318359
vt 0.9453125 0.002929688
vt 0.796875 0.002929688
vt -7.847656 -0.6601563
vt -7.847656 -0.3388672
vt -7.023438 -0.3388672
vt -7.023438 -0.6601563
vt -10.96484 -0.2783203
vt -9.964844 -0.2783203
vt -9.964844 -0.2460938
vt -10.96484 -0.2460938
f 62/62/62 63/63/63 64/64/64 65/65/65
f 66/66/66 67/67/67 68/68/68 69/69/69
f 70/70/70 71/71/71 72/72/72 73/73/73
f 74/74/74 75/75/75 76/76/76 77/77/77
f 78/78/78 79/79/79 80/80/80 81/81/81
f 82/82/82 83/83/83 84/84/84 85/85/85
f 86/86/86 87/87/87 88/88/88 89/89/89
f 90/90/90 91/91/91 92/92/92 93/93/93
f 94/94/94 95/95/95 96/96/96 97/97/97
f 98/98/98 99/99/99 100/100/100 101/101/101
f 102/102/102 103/103/103 104/104/104 105/105/105
f 106/106/106 107/107/107 108/108/108 109/109/109
v 35 40 -49
v 32.03906 40 -16
v 35 40 -16
v 32.03906 40 -16
v 35 40 23
v 35 40 -16
vn 0 0.9980469 0
vn 0 0.9980469 0
vn 0 0.9980469 0
vn 0 0.9980469 0
vn 0 0.9980469 0
vn 0 0.9980469 0
vt -3.894531 -0.5664063
vt -3.898438 -0.5722656
vt -3.894531 -0.5722656
vt -3.898438 -0.5771484
vt -3.894531 -0.5898438
vt -3.894531 -0.5771484
f 110/110/110 111/111/111 112/112/112
f 113/113/113 114/114/114 115/115/115
g polygon3
usemtl c2b1_1
v -33 39 20.00781
v -15 33 20.00781
v 0 39 20.00391
v 15 33 20.00781
vn 0 0 0.9980469
vn 0 0 0.9980469
vn 0 0 0.9980469
vn 0 0 0.9980469
vt 0.2333984 -0.4472656
vt 0.2480469 -0.4628906
vt 0.3046875 -0.4160156
vt 0.3662109 -0.4628906
f 116/116/116 117/117/117 118/118/118
f 117/117/117 119/119/119 118/118/118
v -33 58 -13.99609
v -33 48 -13.99609
v -33 48 20.00781
v -33 58 20.00781
v -33 48 -13.99609
v -33 39 -13.99609
v -33 39 20.00781
v -33 48 20.00781
v -33 39 -13.99609
v -33 4 -13.99609
v -33 4 20.00781
v -33 39 20.00781
v -15 4 18.37109
v 0 4 18.37109
v 0 33 18.37109
v -15 33 18.37109
v 0 4 18.37109
v 15 4 18.37109
v 15 33 18.37109
v 0 33 18.37109
v 33 4 20.00781
v 33 39 20.00781
v 15 33 20.00781
v 15 4 20.00781
v 33 39 -34.00391
v 33 39 -12
v 33 4 -12
v 33 4 -34
v 33 4 -12
v 33 39 -12
v 33 39 20.00781
v 33 4 20.00781
v -33 4 20.00781
v -15 4 20.00781
v -15 33 20.00781
v -33 39 20.00781
v 15 4 20.00781
v 15 33 20.00781
v 15 33 4.007813
v 15 4 4.007813
v -15 4 20.00781
v 15 4 20.00781
v 15 4 4.007813
v -15 4 4.007813
v -15 33 20.00781
v -15 4 20.00781
v -15 4 4.007813
v -15 33 4.007813
v -33 39 -48.00391
v -33 4 -48
v -33 4 -13.99609
v -33 39 -13.99609
v 33 39 -48.00391
v 33 39 -34.00391
v 33 4 -34
v 33 4 -48
v 33 48 -12
v 33 58 -12
v 33 58 20.00781
v 33 48 20.00781
v 33 39 -12
v 33 39 -34.00391
v 33 48 -34
v 33 48 -12
v 33 48 -12
v 33 48 -34
v 33 58 -34
v 33 58 -12
v 33 39 20.00781
v 33 39 -12
v 33 48 -12
v 33 48 20.00781
v 33 39 -34.00391
v 33 39 -48.00391
v 33 48 -48
v 33 48 -34
v -33 48 -48
v -33 48 -13.99609
v -33 58 -13.99609
v -33 58 -48
v -33 39 20.00781
v 0 39 20.00391
v 0 60 20.00781
v -33 48 20.00781
v 0 60 20.00781
v 0 69 20.00781
v -33 58 20.00781
v -33 48 20.00781
v 0 39 20.00391
v 33 39 20.00781
v 33 48 20.00781
v 0 60 20.00781
v 0 60 20.00781
v 33 48 20.00781
v 33 58 20.00781
v 0 69 20.00781
v -33 39 -48.00391
v -33 39 -13.99609
v -33 48 -13.99609
v -33 48 -48
v 33 48 -34
v 33 48 -48
v 33 58 -48
v 33 58 -34
vn -1 0 0
vn -1 0 0
vn -1 0 0
vn -1 0 0
vn -1 0 0
vn -1 0 0
vn -1 0 0
vn -1 0 0
vn -1 0 0
vn -1 0 0
vn -1 0 0
vn -1 0 0
vn 0 0 0.9980469
vn 0 0 0.9980469
vn 0 0 0.9980469
vn 0 0 0.9980469
vn 0 0 0.9980469
vn 0 0 0.9980469
vn 0 0 0.9980469
vn 0 0 0.9980469
vn 0 0 0.9980469
vn 0 0 0.9980469
vn 0 0 0.9980469
vn 0 0 0.9980469
vn 0.9980469 0 0
vn 0.9980469 0 0
vn 0.9980469 0 0
vn 0.9980469 0 0
vn 0.9980469 0 0
vn 0.9980469 0 0
vn 0.9980469 0 0
vn 0.9980469 0 0
vn 0 0 0.9980469
vn 0 0 0.9980469
vn 0 0 0.9980469
vn 0 0 0.9980469
vn -1 0 0
vn -1 0 0
vn -1 0 0
vn -1 0 0
vn 0 0.9980469 0
vn 0 0.9980469 0
vn 0 0.9980469 0
vn 0 0.9980469 0
vn 0.9980469 0 0
vn 0.9980469 0 0
vn 0.9980469 0 0
vn 0.9980469 0 0
vn -1 0 0
vn -1 0 0
vn -1 0 0
vn -1 0 0
vn 0.9980469 0 0
vn 0.9980469 0 0
vn 0.9980469 0 0
vn 0.9980469 0 0
vn 0.9980469 0 0
vn 0.9980469 0 0
vn 0.9980469 0 0
vn 0.9980469 0 0
vn 0.9980469 0 0
vn 0.9980469 0 0
vn 0.9980469 0 0
vn 0.9980469 0 0
vn 0.9980469 0 0
vn 0.9980469 0 0
vn 0.9980469 0 0
vn 0.9980469 0 0
vn 0.9980469 0 0
vn 0.9980469 0 0
vn 0.9980469 0 0
vn 0.9980469 0 0
vn 0.9980469 0 0
vn 0.9980469 0 0
vn 0.9980469 0 0
vn 0.9980469 0 0
vn -1 0 0
vn -1 0 0
vn -1 0 0
vn -1 0 0
vn 0 0 0.9980469
vn 0 0 0.9980469
vn 0 0 0.9980469
vn 0 0 0.9980469
vn 0 0 0.9980469
vn 0 0 0.9980469
vn 0 0 0.9980469
vn 0 0 0.9980469
vn 0 0 0.9980469
vn 0 0 0.9980469
vn 0 0 0.9980469
vn 0 0 0.9980469
vn 0 0 0.9980469
vn 0 0 0.9980469
vn 0 0 0.9980469
vn 0 0 0.9980469
vn -1 0 0
vn -1 0 0
vn -1 0 0
vn -1 0 0
vn 0.9980469 0 0
vn 0.9980469 0 0
vn 0.9980469 0 0
vn 0.9980469 0 0
vt 0.9931641 -0.984375
vt 0.5664063 -0.984375
vt 0.5664063 -0.9941406
vt 0.9931641 -0.9882813
vt 0.5048828 -0.6015625
vt 0.4257813 -0.6015625
vt 0.4257813 -0.5429688
vt 0.5048828 -0.5429688
vt -1.610352 -0.3808594
vt -1.610352 -0.9628906
vt -1.480469 -0.9628906
vt -1.480469 -0.3808594
vt 0.004882813 -0.6503906
vt 0.1552734 -0.6503906
vt 0.1552734 -0.001953125
vt 0.004882813 -0.001953125
vt 0.004882813 -0.6503906
vt 0.1552734 -0.6503906
vt 0.1552734 -0.001953125
vt 0.004882813 -0.001953125
vt 0.2216797 -0.9941406
vt 0.2216797 -0.375
vt 0.3525391 -0.4746094
vt 0.3525391 -0.9941406
vt -2.609375 -0.390625
vt -2.482422 -0.390625
vt -2.482422 -0.9609375
vt -2.609375 -0.9609375
vt -5.615234 -0.9628906
vt -5.615234 -0.3886719
vt -5.477539 -0.390625
vt -5.477539 -0.9628906
vt 0.2226563 -0.9921875
vt 0.3564453 -0.9921875
vt 0.3564453 -0.4746094
vt 0.2226563 -0.3789063
vt 0.0078125 -0.9472656
vt 0.02148438 -0.9472656
vt 0.02148438 -0.9199219
vt 0.0078125 -0.9199219
vt -0.5224609 -0.1855469
vt -0.4316406 -0.1855469
vt -0.4316406 -0.0625
vt -0.5224609 -0.0625
vt 0.0078125 -0.9472656
vt 0.02148438 -0.9472656
vt 0.02148438 -0.9199219
vt 0.0078125 -0.9199219
vt -6.614258 -0.3808594
vt -6.614258 -0.9648438
vt -6.488281 -0.9648438
vt -6.488281 -0.3808594
vt -4.508789 -0.390625
vt -4.585938 -0.390625
vt -4.585938 -0.9628906
vt -4.507813 -0.9628906
vt 0.5615234 -0.9921875
vt 0.9902344 -0.9921875
vt 0.9902344 -0.9765625
vt 0.5615234 -0.9765625
vt -3.553711 -0.640625
vt -3.481445 -0.640625
vt -3.481445 -0.5136719
vt -3.553711 -0.5136719
vt -3.422852 -0.9785156
vt -3.422852 -0.9902344
vt -3.050781 -0.9902344
vt -3.050781 -0.9785156
vt 0.4257813 -0.6601563
vt 0.4257813 -0.5878906
vt 0.5048828 -0.5878906
vt 0.5048828 -0.6601563
vt 0.4257813 -0.5664063
vt 0.4257813 -0.5429688
vt 0.5048828 -0.5429688
vt 0.5048828 -0.5664063
vt -5.432617 0.0078125
vt -5.432617 0.02148438
vt -5.039063 0.02148438
vt -5.039063 0.0078125
vt 0.5322266 -0.9179688
vt 0.9960938 -0.9179688
vt 0.9960938 -0.0078125
vt 0.5322266 -0.5292969
vt 0.5488281 -0.9980469
vt 0.9970703 -0.9980469
vt 0.9970703 -0.9746094
vt 0.5488281 -0.9746094
vt 0.9970703 -0.9199219
vt 0.5351563 -0.9199219
vt 0.5351563 -0.53125
vt 0.9970703 -0.0078125
vt 0.5576172 -0.9726563
vt 0.5576172 -0.9941406
vt 0.9931641 -0.9941406
vt 0.9931641 -0.9726563
vt -6.498047 -0.5585938
vt -6.600586 -0.5585938
vt -6.600586 -0.515625
vt -6.498047 -0.515625
vt 0.5644531 -0.9902344
vt 0.5644531 -0.9941406
vt 0.9931641 -0.9882813
vt 0.9931641 -0.9863281
f 120/120/120 121/121/121 122/122/122 123/123/123
f 124/124/124 125/125/125 126/126/126 127/127/127
f 128/128/128 129/129/129 130/130/130 131/131/131
f 132/132/132 133/133/133 134/134/134 135/135/135
f 136/136/136 137/137/137 138/138/138 139/139/139
f 140/140/140 141/141/141 142/142/142 143/143/143
f 144/144/144 145/145/145 146/146/146 147/147/147
f 148/148/148 149/149/149 150/150/150 151/151/151
f 152/152/152 153/153/153 154/154/154 155/155/155
f 156/156/156 157/157/157 158/158/158 159/159/159
f 160/160/160 161/161/161 162/162/162 163/163/163
f 164/164/164 165/165/165 166/166/166 167/167/167
f 168/168/168 169/169/169 170/170/170 171/171/171
f 172/172/172 173/173/173 174/174/174 175/175/175
f 176/176/176 177/177/177 178/178/178 179/179/179
f 180/180/180 181/181/181 182/182/182 183/183/183
f 184/184/184 185/185/185 186/186/186 187/187/187
f 188/188/188 189/189/189 190/190/190 191/191/191
f 192/192/192 193/193/193 194/194/194 195/195/195
f 196/196/196 197/197/197 198/198/198 199/199/199
f 200/200/200 201/201/201 202/202/202 203/203/203
f 204/204/204 205/205/205 206/206/206 207/207/207
f 208/208/208 209/209/209 210/210/210 211/211/211
f 212/212/212 213/213/213 214/214/214 215/215/215
f 216/216/216 217/217/217 218/218/218 219/219/219
f 220/220/220 221/221/221 222/222/222 223/223/223
v 33 39 20.00781
v 0 39 20.00391
v 15 33 20.00781
vn 0 0 0.9980469
vn 0 0 0.9980469
vn 0 0 0.9980469
vt 0.2314453 -0.4609375
vt 0.3046875 -0.4160156
vt 0.2695313 -0.4492188
f 224/224/224 225/225/225 226/226/226
g polygon4
usemtl c2b1y_1
v 1.953125 72.99927 -34.38672
v 1.953125 77.97192 -34.38672
v 3.910156 72.99927 -31
v 3.910156 77.97192 -31
v 1.953125 72.99927 -27.61328
v 1.953125 77.97192 -27.61328
v -1.953125 72.99927 -27.61328
v -1.953125 77.97192 -27.61328
v -3.910156 72.99927 -31
v -3.910156 77.97192 -31
v -1.953125 72.99927 -34.38672
v -1.953125 77.97192 -34.38672
v 1.953125 72.99927 -34.38672
v 1.953125 77.97192 -34.38672
vn 0.5 0 -0.8652344
vn 0.5 0 -0.8652344
vn 0.9980469 0 0
vn 0.9980469 0 0
vn 0.5 0 0.8652344
vn 0.5 0 0.8652344
vn -0.5 0 0.8652344
vn -0.5 0 0.8652344
vn -1 0 0
vn -1 0 0
vn -0.5 0 -0.8652344
vn -0.5 0 -0.8652344
vn 0.5 0 -0.8652344
vn 0.5 0 -0.8652344
vt 3.496094 -0.25
vt 3.496094 0
vt 3 -0.25
vt 3 0
vt 3.496094 -0.25
vt 3.496094 0
vt 3 -0.25
vt 3 0
vt 3.496094 -0.25
vt 3.496094 0
vt 3 -0.25
vt 3 0
vt 3.496094 -0.25
vt 3.496094 0
f 227/227/227 228/228/228 229/229/229
f 228/228/228 230/230/230 229/229/229
f 229/229/229 230/230/230 231/231/231
f 230/230/230 232/232/232 231/231/231
f 231/231/231 232/232/232 233/233/233
f 232/232/232 234/234/234 233/233/233
f 233/233/233 234/234/234 235/235/235
f 234/234/234 236/236/236 235/235/235
f 235/235/235 236/236/236 237/237/237
f 236/236/236 238/238/238 237/237/237
f 237/237/237 238/238/238 239/239/239
f 238/238/238 240/240/240 239/239/239
v 3.910156 77.97192 -31
v 1.953125 77.97192 -34.38672
v 0 79.49146 -31
v -1.953125 77.97192 -34.38672
v -3.910156 77.97192 -31
vn 0.3164063 0.9492188 0
vn 0.1816406 0.9316406 -0.3125
vn 0 0.9980469 0
vn -0.1816406 0.9316406 -0.3125
vn -0.3417969 0.9394531 0
vt 5.933594 -0.2275391
vt 5.933594 -0.1777344
vt 4.523438 -0.2050781
vt 5.933594 -0.2275391
vt 5.933594 -0.1777344
f 241/241/241 242/242/242 243/243/243
f 242/242/242 244/244/244 243/243/243
f 243/243/243 244/244/244 245/245/245
v 3.910156 77.97192 -31
v 0 79.49146 -31
v 1.953125 77.97192 -27.61328
v -1.953125 77.97192 -27.61328
vn 0.3164063 0.9492188 0
vn 0 0.9980469 0
vn 0.1816406 0.9316406 0.3125
vn -0.1816406 0.9316406 0.3125
vt 5.933594 -0.2275391
vt 4.523438 -0.2050781
vt 5.933594 -0.1777344
vt 5.933594 -0.2275391
f 246/246/246 247/247/247 248/248/248
f 247/247/247 249/249/249 248/248/248
v -3.910156 77.97192 -31
v -1.953125 77.97192 -27.61328
v 0 79.49146 -31
vn -0.3417969 0.9394531 0
vn -0.1816406 0.9316406 0.3125
vn 0 0.9980469 0
vt 5.933594 -0.1777344
vt 5.933594 -0.2275391
vt 4.523438 -0.2050781
f 250/250/250 251/251/251 252/252/252
g polygon5
usemtl c2b1y_1
v 0 69.20703 -33.79297
v -2.417969 69.20703 -32.39453
v -2.417969 73 -32.39453
v 0 73 -33.79297
v 2.417969 69.20703 -32.39453
v 0 69.20703 -33.79297
v 0 73 -33.79297
v 2.417969 73 -32.39453
v 2.417969 69.20703 -29.60547
v 2.417969 69.20703 -32.39453
v 2.417969 73 -32.39453
v 2.417969 73 -29.60547
v 0 69.20703 -28.20703
v 2.417969 69.20703 -29.60547
v 2.417969 73 -29.60547
v 0 73 -28.20703
v -2.417969 69.20703 -29.60547
v 0 69.20703 -28.20703
v 0 73 -28.20703
v -2.417969 73 -29.60547
v -2.417969 69.20703 -32.39453
v -2.417969 69.20703 -29.60547
v -2.417969 73 -29.60547
v -2.417969 73 -32.39453
vn 0.8652344 0 -0.5
vn 0.8652344 0 -0.5
vn 0.8652344 0 -0.5
vn 0.8652344 0 -0.5
vn 0.8652344 0 0.5
vn 0.8652344 0 0.5
vn 0.8652344 0 0.5
vn 0.8652344 0 0.5
vn 0 0 0.9980469
vn 0 0 0.9980469
vn 0 0 0.9980469
vn 0 0 0.9980469
vn -0.8652344 0 0.5
vn -0.8652344 0 0.5
vn -0.8652344 0 0.5
vn -0.8652344 0 0.5
vn -0.8652344 0 -0.5
vn -0.8652344 0 -0.5
vn -0.8652344 0 -0.5
vn -0.8652344 0 -0.5
vn 0 0 -1
vn 0 0 -1
vn 0 0 -1
vn 0 0 -1
vt -4.980469 -0.3701172
vt -4.886719 -0.3701172
vt -4.886719 -0.3291016
vt -4.980469 -0.3291016
vt -4.886719 -0.3701172
vt -4.980469 -0.3701172
vt -4.980469 -0.3291016
vt -4.886719 -0.3291016
vt -4.886719 -0.3701172
vt -4.886719 -0.3701172
vt -4.886719 -0.3291016
vt -4.886719 -0.3291016
vt -4.980469 -0.3701172
vt -4.886719 -0.3701172
vt -4.886719 -0.3291016
vt -4.980469 -0.3291016
vt -4.886719 -0.3701172
vt -4.980469 -0.3701172
vt -4.980469 -0.3291016
vt -4.886719 -0.3291016
vt -4.886719 -0.3701172
vt -4.886719 -0.3701172
vt -4.886719 -0.3291016
vt -4.886719 -0.3291016
f 253/253/253 254/254/254 255/255/255 256/256/256
f 257/257/257 258/258/258 259/259/259 260/260/260
f 261/261/261 262/262/262 263/263/263 264/264/264
f 265/265/265 266/266/266 267/267/267 268/268/268
f 269/269/269 270/270/270 271/271/271 272/272/272
f 273/273/273 274/274/274 275/275/275 276/276/276
g polygon6
usemtl c2b1y_1
v 1.953125 72.99927 -1.386719
v 1.953125 77.97192 -1.386719
v 3.910156 72.99927 2
v 3.910156 77.97192 2
v 1.953125 72.99927 5.386719
v 1.953125 77.97192 5.386719
v -1.953125 72.99927 5.386719
v -1.953125 77.97192 5.386719
v -3.910156 72.99927 2
v -3.910156 77.97192 2
v -1.953125 72.99927 -1.386719
v -1.953125 77.97192 -1.386719
v 1.953125 72.99927 -1.386719
v 1.953125 77.97192 -1.386719
vn 0.5 0 -0.8652344
vn 0.5 0 -0.8652344
vn 0.9980469 0 0
vn 0.9980469 0 0
vn 0.5 0 0.8652344
vn 0.5 0 0.8652344
vn -0.5 0 0.8652344
vn -0.5 0 0.8652344
vn -1 0 0
vn -1 0 0
vn -0.5 0 -0.8652344
vn -0.5 0 -0.8652344
vn 0.5 0 -0.8652344
vn 0.5 0 -0.8652344
vt 3.496094 -0.25
vt 3.496094 0
vt 3 -0.25
vt 3 0
vt 3.496094 -0.25
vt 3.496094 0
vt 3 -0.25
vt 3 0
vt 3.496094 -0.25
vt 3.496094 0
vt 3 -0.25
vt 3 0
vt 3.496094 -0.25
vt 3.496094 0
f 277/277/277 278/278/278 279/279/279
f 278/278/278 280/280/280 279/279/279
f 279/279/279 280/280/280 281/281/281
f 280/280/280 282/282/282 281/281/281
f 281/281/281 282/282/282 283/283/283
f 282/282/282 284/284/284 283/283/283
f 283/283/283 284/284/284 285/285/285
f 284/284/284 286/286/286 285/285/285
f 285/285/285 286/286/286 287/287/287
f 286/286/286 288/288/288 287/287/287
f 287/287/287 288/288/288 289/289/289
f 288/288/288 290/290/290 289/289/289
v 3.910156 77.97192 2
v 1.953125 77.97192 -1.386719
v 0 79.49146 2
v -1.953125 77.97192 -1.386719
v -3.910156 77.97192 2
vn 0.3164063 0.9492188 0
vn 0.1816406 0.9316406 -0.3125
vn 0 0.9980469 0
vn -0.1816406 0.9316406 -0.3125
vn -0.3417969 0.9394531 0
vt 5.933594 -0.2275391
vt 5.933594 -0.1777344
vt 4.523438 -0.2050781
vt 5.933594 -0.2275391
vt 5.933594 -0.1777344
f 291/291/291 292/292/292 293/293/293
f 292/292/292 294/294/294 293/293/293
f 293/293/293 294/294/294 295/295/295
v 3.910156 77.97192 2
v 0 79.49146 2
v 1.953125 77.97192 5.386719
v -1.953125 77.97192 5.386719
vn 0.3164063 0.9492188 0
vn 0 0.9980469 0
vn 0.1816406 0.9316406 0.3125
vn -0.1816406 0.9316406 0.3125
vt 5.933594 -0.2275391
vt 4.523438 -0.2050781
vt 5.933594 -0.1777344
vt 5.933594 -0.2275391
f 296/296/296 297/297/297 298/298/298
f 297/297/297 299/299/299 298/298/298
v -3.910156 77.97192 2
v -1.953125 77.97192 5.386719
v 0 79.49146 2
vn -0.3417969 0.9394531 0
vn -0.1816406 0.9316406 0.3125
vn 0 0.9980469 0
vt 5.933594 -0.1777344
vt 5.933594 -0.2275391
vt 4.523438 -0.2050781
f 300/300/300 301/301/301 302/302/302
g polygon7
usemtl c2b1y_1
v 0 69.23828 -0.7617188
v -2.390625 69.23828 0.6210938
v -2.390625 73 0.6210938
v 0 73 -0.7617188
v 2.390625 69.23828 0.6210938
v 0 69.23828 -0.7617188
v 0 73 -0.7617188
v 2.390625 73 0.6210938
v 2.390625 69.23828 3.378906
v 2.390625 69.23828 0.6210938
v 2.390625 73 0.6210938
v 2.390625 73 3.378906
v 0 69.23828 4.761719
v 2.390625 69.23828 3.378906
v 2.390625 73 3.378906
v 0 73 4.761719
v -2.390625 69.23828 3.378906
v 0 69.23828 4.761719
v 0 73 4.761719
v -2.390625 73 3.378906
v -2.390625 69.23828 0.6210938
v -2.390625 69.23828 3.378906
v -2.390625 73 3.378906
v -2.390625 73 0.6210938
vn 0.8652344 0 -0.5
vn 0.8652344 0 -0.5
vn 0.8652344 0 -0.5
vn 0.8652344 0 -0.5
vn 0.8652344 0 0.5
vn 0.8652344 0 0.5
vn 0.8652344 0 0.5
vn 0.8652344 0 0.5
vn 0 0 0.9980469
vn 0 0 0.9980469
vn 0 0 0.9980469
vn 0 0 0.9980469
vn -0.8652344 0 0.5
vn -0.8652344 0 0.5
vn -0.8652344 0 0.5
vn -0.8652344 0 0.5
vn -0.8652344 0 -0.5
vn -0.8652344 0 -0.5
vn -0.8652344 0 -0.5
vn -0.8652344 0 -0.5
vn 0 0 -1
vn 0 0 -1
vn 0 0 -1
vn 0 0 -1
vt -4.980469 -0.3701172
vt -4.886719 -0.3701172
vt -4.886719 -0.3291016
vt -4.980469 -0.3291016
vt -4.886719 -0.3701172
vt -4.980469 -0.3701172
vt -4.980469 -0.3291016
vt -4.886719 -0.3291016
vt -4.886719 -0.3701172
vt -4.886719 -0.3701172
vt -4.886719 -0.3291016
vt -4.886719 -0.3291016
vt -4.980469 -0.3701172
vt -4.886719 -0.3701172
vt -4.886719 -0.3291016
vt -4.980469 -0.3291016
vt -4.886719 -0.3701172
vt -4.980469 -0.3701172
vt -4.980469 -0.3291016
vt -4.886719 -0.3291016
vt -4.886719 -0.3701172
vt -4.886719 -0.3701172
vt -4.886719 -0.3291016
vt -4.886719 -0.3291016
f 303/303/303 304/304/304 305/305/305 306/306/306
f 307/307/307 308/308/308 309/309/309 310/310/310
f 311/311/311 312/312/312 313/313/313 314/314/314
f 315/315/315 316/316/316 317/317/317 318/318/318
f 319/319/319 320/320/320 321/321/321 322/322/322
f 323/323/323 324/324/324 325/325/325 326/326/326
