# Created by MKDS Course Modifier
mtllib Nacrene City Warehouse 2.mtl
g polygon0
usemtl c2b2y_2
v 5.953125 69.0481 -34.38672
v 5.953125 74.02075 -34.38672
v 7.910156 69.0481 -31
v 7.910156 74.02075 -31
v 5.953125 69.0481 -27.61328
v 5.953125 74.02075 -27.61328
v 2.046875 69.0481 -27.61328
v 2.046875 74.02075 -27.61328
v 0.08984375 69.0481 -31
v 0.08984375 74.02075 -31
v 2.046875 69.0481 -34.38672
v 2.046875 74.02075 -34.38672
v 5.953125 69.0481 -34.38672
v 5.953125 74.02075 -34.38672
vn 0.5 0 -0.8652344
vn 0.5 0 -0.8652344
vn 0.9980469 0 0
vn 0.9980469 0 0
vn 0.5 0 0.8652344
vn 0.5 0 0.8652344
vn -0.5 0 0.8652344
vn -0.5 0 0.8652344
vn -1 0 0
vn -1 0 0
vn -0.5 0 -0.8652344
vn -0.5 0 -0.8652344
vn 0.5 0 -0.8652344
vn 0.5 0 -0.8652344
vt 3.859375 -0.25
vt 3.859375 0
vt 3.019531 -0.25
vt 3.019531 0
vt 3.859375 -0.25
vt 3.859375 0
vt 3.019531 -0.25
vt 3.019531 0
vt 3.859375 -0.25
vt 3.859375 0
vt 3.019531 -0.25
vt 3.019531 0
vt 3.859375 -0.25
vt 3.859375 0
f 1/1/1 2/2/2 3/3/3
f 2/2/2 4/4/4 3/3/3
f 3/3/3 4/4/4 5/5/5
f 4/4/4 6/6/6 5/5/5
f 5/5/5 6/6/6 7/7/7
f 6/6/6 8/8/8 7/7/7
f 7/7/7 8/8/8 9/9/9
f 8/8/8 10/10/10 9/9/9
f 9/9/9 10/10/10 11/11/11
f 10/10/10 12/12/12 11/11/11
f 11/11/11 12/12/12 13/13/13
f 12/12/12 14/14/14 13/13/13
v 7.910156 74.02075 -31
v 5.953125 74.02075 -34.38672
v 4 75.54028 -31
v 2.046875 74.02075 -34.38672
v 0.08984375 74.02075 -31
vn 0.3613281 0.9316406 0
vn 0.1816406 0.9316406 -0.3125
vn 0 0.9980469 0
vn -0.1816406 0.9316406 -0.3125
vn -0.3613281 0.9316406 0
vt 5.933594 -0.2275391
vt 5.933594 -0.1777344
vt 4.523438 -0.2050781
vt 5.933594 -0.2275391
vt 5.933594 -0.1777344
f 15/15/15 16/16/16 17/17/17
f 16/16/16 18/18/18 17/17/17
f 17/17/17 18/18/18 19/19/19
v 7.910156 74.02075 -31
v 4 75.54028 -31
v 5.953125 74.02075 -27.61328
v 2.046875 74.02075 -27.61328
vn 0.3613281 0.9316406 0
vn 0 0.9980469 0
vn 0.1816406 0.9316406 0.3125
vn -0.1816406 0.9316406 0.3125
vt 5.933594 -0.2275391
vt 4.523438 -0.2050781
vt 5.933594 -0.1777344
vt 5.933594 -0.2275391
f 20/20/20 21/21/21 22/22/22
f 21/21/21 23/23/23 22/22/22
v 0.08984375 74.02075 -31
v 2.046875 74.02075 -27.61328
v 4 75.54028 -31
vn -0.3613281 0.9316406 0
vn -0.1816406 0.9316406 0.3125
vn 0 0.9980469 0
vt 5.933594 -0.1777344
vt 5.933594 -0.2275391
vt 4.523438 -0.2050781
f 24/24/24 25/25/25 26/26/26
g polygon1
usemtl c2b2y_2
v 5.953125 69.0481 -1.386719
v 5.953125 74.02075 -1.386719
v 7.910156 69.0481 2
v 7.910156 74.02075 2
v 5.953125 69.0481 5.386719
v 5.953125 74.02075 5.386719
v 2.046875 69.0481 5.386719
v 2.046875 74.02075 5.386719
v 0.08984375 69.0481 2
v 0.08984375 74.02075 2
v 2.046875 69.0481 -1.386719
v 2.046875 74.02075 -1.386719
v 5.953125 69.0481 -1.386719
v 5.953125 74.02075 -1.386719
vn 0.5 0 -0.8652344
vn 0.5 0 -0.8652344
vn 0.9980469 0 0
vn 0.9980469 0 0
vn 0.5 0 0.8652344
vn 0.5 0 0.8652344
vn -0.5 0 0.8652344
vn -0.5 0 0.8652344
vn -1 0 0
vn -1 0 0
vn -0.5 0 -0.8652344
vn -0.5 0 -0.8652344
vn 0.5 0 -0.8652344
vn 0.5 0 -0.8652344
vt 3.859375 -0.25
vt 3.859375 0
vt 3.019531 -0.25
vt 3.019531 0
vt 3.859375 -0.25
vt 3.859375 0
vt 3.019531 -0.25
vt 3.019531 0
vt 3.859375 -0.25
vt 3.859375 0
vt 3.019531 -0.25
vt 3.019531 0
vt 3.859375 -0.25
vt 3.859375 0
f 27/27/27 28/28/28 29/29/29
f 28/28/28 30/30/30 29/29/29
f 29/29/29 30/30/30 31/31/31
f 30/30/30 32/32/32 31/31/31
f 31/31/31 32/32/32 33/33/33
f 32/32/32 34/34/34 33/33/33
f 33/33/33 34/34/34 35/35/35
f 34/34/34 36/36/36 35/35/35
f 35/35/35 36/36/36 37/37/37
f 36/36/36 38/38/38 37/37/37
f 37/37/37 38/38/38 39/39/39
f 38/38/38 40/40/40 39/39/39
v 7.910156 74.02075 2
v 5.953125 74.02075 -1.386719
v 4 75.54028 2
v 2.046875 74.02075 -1.386719
v 0.08984375 74.02075 2
vn 0.3613281 0.9316406 0
vn 0.1816406 0.9316406 -0.3125
vn 0 0.9980469 0
vn -0.1816406 0.9316406 -0.3125
vn -0.3613281 0.9316406 0
vt 5.933594 -0.2275391
vt 5.933594 -0.1777344
vt 4.523438 -0.2050781
vt 5.933594 -0.2275391
vt 5.933594 -0.1777344
f 41/41/41 42/42/42 43/43/43
f 42/42/42 44/44/44 43/43/43
f 43/43/43 44/44/44 45/45/45
v 7.910156 74.02075 2
v 4 75.54028 2
v 5.953125 74.02075 5.386719
v 2.046875 74.02075 5.386719
vn 0.3613281 0.9316406 0
vn 0 0.9980469 0
vn 0.1816406 0.9316406 0.3125
vn -0.1816406 0.9316406 0.3125
vt 5.933594 -0.2275391
vt 4.523438 -0.2050781
vt 5.933594 -0.1777344
vt 5.933594 -0.2275391
f 46/46/46 47/47/47 48/48/48
f 47/47/47 49/49/49 48/48/48
v 0.08984375 74.02075 2
v 2.046875 74.02075 5.386719
v 4 75.54028 2
vn -0.3613281 0.9316406 0
vn -0.1816406 0.9316406 0.3125
vn 0 0.9980469 0
vt 5.933594 -0.1777344
vt 5.933594 -0.2275391
vt 4.523438 -0.2050781
f 50/50/50 51/51/51 52/52/52
g polygon2
usemtl h_mado_1
v -26 34 18
v 35 34 18
v 35 57.79688 17
v -26 57.79688 17
vn 0 0.04101563 0.9980469
vn 0 0.04101563 0.9980469
vn 0 0.04101563 0.9980469
vn 0 0.04101563 0.9980469
vt 3 -1
vt 7 -1
vt 7 0
vt 3 0
f 53/53/53 54/54/54 55/55/55 56/56/56
g polygon3
usemtl h_kage_1
v -30 2 -52
v -30 2 19.09766
v -14 2 -42
v -14 2 19
v 33 2 -42
v 33 2 19
v 46 2 -32
v 46 2 31
vn 0 0.9980469 0
vn 0 0.9980469 0
vn 0 0.9980469 0
vn 0 0.9980469 0
vn 0 0.9980469 0
vn 0 0.9980469 0
vn 0 0.9980469 0
vn 0 0.9980469 0
vt 0.625 -0.125
vt 0.625 -0.125
vt 0.625 -0.875
vt 0.625 -0.875
vt 0.625 -0.875
vt 0.625 -0.875
vt 0.625 -0.125
vt 0.625 -0.125
f 57/57/57 58/58/58 59/59/59
f 58/58/58 60/60/60 59/59/59
f 59/59/59 60/60/60 61/61/61
f 60/60/60 62/62/62 61/61/61
f 61/61/61 62/62/62 63/63/63
f 62/62/62 64/64/64 63/63/63
v -30 2 -52
v -14 2 -42
v 33 2 -42
v 33 2 -52
v -14 2 19
v -14 2 31
v 46 2 31
v 33 2 19
vn 0 0.9980469 0
vn 0 0.9980469 0
vn 0 0.9980469 0
vn 0 0.9980469 0
vn 0 0.9980469 0
vn 0 0.9980469 0
vn 0 0.9980469 0
vn 0 0.9980469 0
vt 0.625 -0.125
vt 0.625 -0.875
vt 0.625 -0.875
vt 0.625 -0.125
vt 0.625 -0.875
vt 0.625 -0.125
vt 0.625 -0.125
vt 0.625 -0.875
f 65/65/65 66/66/66 67/67/67 68/68/68
f 69/69/69 70/70/70 71/71/71 72/72/72
v 33 2 -52
v 33 2 -42
v 46 2 -32
v -14 2 31
v -14 2 19
v -30 2 19.09766
vn 0 0.9980469 0
vn 0 0.9980469 0
vn 0 0.9980469 0
vn 0 0.9980469 0
vn 0 0.9980469 0
vn 0 0.9980469 0
vt 0.625 -0.125
vt 0.625 -0.875
vt 0.625 -0.125
vt 0.625 -0.125
vt 0.625 -0.875
vt 0.625 -0.125
f 73/73/73 74/74/74 75/75/75
f 76/76/76 77/77/77 78/78/78
g polygon4
usemtl c2b2y_2
v 38 59 22.00781
v 38 55 22.00781
v 38 59 18
v 38 55 18
v 38 59 -46
v 38 55 -46
v 38 59 -50
v 38 55 -50
vn 0.9980469 0 0
vn 0.9980469 0 0
vn 0.9980469 0 0
vn 0.9980469 0 0
vn 0.9980469 0 0
vn 0.9980469 0 0
vn 0.9980469 0 0
vn 0.9980469 0 0
vt -9.539063 -0.2421875
vt -9.539063 -0.3203125
vt -9.484375 -0.2421875
vt -9.484375 -0.3203125
vt -8.59375 -0.2421875
vt -8.59375 -0.3203125
vt -8.539063 -0.2421875
vt -8.539063 -0.3203125
f 79/79/79 80/80/80 81/81/81
f 80/80/80 82/82/82 81/81/81
f 81/81/81 82/82/82 83/83/83
f 82/82/82 84/84/84 83/83/83
f 83/83/83 84/84/84 85/85/85
f 84/84/84 86/86/86 85/85/85
v -29 55 22.00781
v -29 59 22.00781
v -29 55 18
v -29 59 18
v -29 55 -46
v -29 59 -46
v -29 55 -50
v -29 59 -50
vn -1 0 0
vn -1 0 0
vn -1 0 0
vn -1 0 0
vn -1 0 0
vn -1 0 0
vn -1 0 0
vn -1 0 0
vt -9.539063 -0.3203125
vt -9.539063 -0.2421875
vt -9.484375 -0.3203125
vt -9.484375 -0.2421875
vt -8.59375 -0.3203125
vt -8.59375 -0.2421875
vt -8.539063 -0.3203125
vt -8.539063 -0.2421875
f 87/87/87 88/88/88 89/89/89
f 88/88/88 90/90/90 89/89/89
f 89/89/89 90/90/90 91/91/91
f 90/90/90 92/92/92 91/91/91
f 91/91/91 92/92/92 93/93/93
f 92/92/92 94/94/94 93/93/93
v 38 59 18
v 38 59 -46
v 4 67 18
v 4 67 -46
v -29 59 18
v -29 59 -46
vn 0.2285156 0.9726563 0
vn 0.2285156 0.9726563 0
vn 0 0.9980469 0
vn 0 0.9980469 0
vn -0.2363281 0.9726563 0
vn -0.2363281 0.9726563 0
vt 5.605469 -0.1464844
vt 5.605469 0.1513672
vt 2.996094 -0.1464844
vt 2.996094 0.1513672
vt 5.605469 -0.1464844
vt 5.605469 0.1513672
f 95/95/95 96/96/96 97/97/97
f 96/96/96 98/98/98 97/97/97
f 97/97/97 98/98/98 99/99/99
f 98/98/98 100/100/100 99/99/99
v 38 59 22.00781
v 38 59 18
v 4 67 22.00781
v 4 67 18
v -29 59 22.00781
v -29 59 18
vn 0.2285156 0.9726563 0
vn 0.2285156 0.9726563 0
vn 0 0.9980469 0
vn 0 0.9980469 0
vn -0.2363281 0.9726563 0
vn -0.2363281 0.9726563 0
vt 6.976563 -0.2460938
vt 6.976563 -0.1601563
vt 6.027344 -0.2460938
vt 6.027344 -0.1601563
vt 6.976563 -0.2460938
vt 6.976563 -0.1601563
f 101/101/101 102/102/102 103/103/103
f 102/102/102 104/104/104 103/103/103
f 103/103/103 104/104/104 105/105/105
f 104/104/104 106/106/106 105/105/105
v 38 59 -46
v 38 59 -50
v 4 67 -46
v 4 67 -50
v -29 59 -46
v -29 59 -50
vn 0.2285156 0.9726563 0
vn 0.2285156 0.9726563 0
vn 0 0.9980469 0
vn 0 0.9980469 0
vn -0.2363281 0.9726563 0
vn -0.2363281 0.9726563 0
vt 6.976563 -0.2460938
vt 6.976563 -0.1601563
vt 6.027344 -0.2460938
vt 6.027344 -0.1601563
vt 6.976563 -0.2460938
vt 6.976563 -0.1601563
f 107/107/107 108/108/108 109/109/109
f 108/108/108 110/110/110 109/109/109
f 109/109/109 110/110/110 111/111/111
f 110/110/110 112/112/112 111/111/111
v 38 55 22.00781
v 38 59 22.00781
v 4 63 22.00781
v 4 67 22.00781
v -29 55 22.00781
v -29 59 22.00781
vn 0 0.04101563 0.9980469
vn 0 0.04101563 0.9980469
vn 0 0.04101563 0.9980469
vn 0 0.04101563 0.9980469
vn 0 0.04101563 0.9980469
vn 0 0.04101563 0.9980469
vt 2.03125 -0.3212891
vt 2.03125 -0.2392578
vt 2.6875 -0.3212891
vt 2.6875 -0.2392578
vt 2.03125 -0.3212891
vt 2.03125 -0.2392578
f 113/113/113 114/114/114 115/115/115
f 114/114/114 116/116/116 115/115/115
f 115/115/115 116/116/116 117/117/117
f 116/116/116 118/118/118 117/117/117
v 4 65.25781 -33.79297
v 1.582031 65.25781 -32.39453
v 1.582031 69.05078 -32.39453
v 4 69.05078 -33.79297
v 6.417969 65.25781 -32.39453
v 4 65.25781 -33.79297
v 4 69.05078 -33.79297
v 6.417969 69.05078 -32.39453
v 6.417969 65.25781 -29.60547
v 6.417969 65.25781 -32.39453
v 6.417969 69.05078 -32.39453
v 6.417969 69.05078 -29.60547
v 4 65.25781 -28.20703
v 6.417969 65.25781 -29.60547
v 6.417969 69.05078 -29.60547
v 4 69.05078 -28.20703
v 1.582031 65.25781 -29.60547
v 4 65.25781 -28.20703
v 4 69.05078 -28.20703
v 1.582031 69.05078 -29.60547
v 1.582031 65.25781 -32.39453
v 1.582031 65.25781 -29.60547
v 1.582031 69.05078 -29.60547
v 1.582031 69.05078 -32.39453
v 4 65.28906 -0.7617188
v 1.609375 65.28906 0.6210938
v 1.609375 69.05078 0.6210938
v 4 69.05078 -0.7617188
v 6.390625 65.28906 0.6210938
v 4 65.28906 -0.7617188
v 4 69.05078 -0.7617188
v 6.390625 69.05078 0.6210938
v 6.390625 65.28906 3.378906
v 6.390625 65.28906 0.6210938
v 6.390625 69.05078 0.6210938
v 6.390625 69.05078 3.378906
v 4 65.28906 4.761719
v 6.390625 65.28906 3.378906
v 6.390625 69.05078 3.378906
v 4 69.05078 4.761719
v 1.609375 65.28906 3.378906
v 4 65.28906 4.761719
v 4 69.05078 4.761719
v 1.609375 69.05078 3.378906
v 1.609375 65.28906 0.6210938
v 1.609375 65.28906 3.378906
v 1.609375 69.05078 3.378906
v 1.609375 69.05078 0.6210938
v -18 32.94922 19.00781
v -18 32.94922 25
v -18 35 25
v -18 37.58203 19
v 27 32.94922 25
v 27 32.94922 19.00781
v 27 37.58203 19
v 27 35 25
v -18 35 25
v 27 35 25
v 27 37.58203 19
v -18 37.58203 19
v -18 32.94922 25
v 27 32.94922 25
v 27 35 25
v -18 35 25
vn -0.5 0 -0.8652344
vn -0.5 0 -0.8652344
vn -0.5 0 -0.8652344
vn -0.5 0 -0.8652344
vn 0.5 0 -0.8652344
vn 0.5 0 -0.8652344
vn 0.5 0 -0.8652344
vn 0.5 0 -0.8652344
vn 0.9980469 0 0
vn 0.9980469 0 0
vn 0.9980469 0 0
vn 0.9980469 0 0
vn 0.5 0 0.8652344
vn 0.5 0 0.8652344
vn 0.5 0 0.8652344
vn 0.5 0 0.8652344
vn -0.5 0 0.8652344
vn -0.5 0 0.8652344
vn -0.5 0 0.8652344
vn -0.5 0 0.8652344
vn -1 0 0
vn -1 0 0
vn -1 0 0
vn -1 0 0
vn -0.5 0 -0.8652344
vn -0.5 0 -0.8652344
vn -0.5 0 -0.8652344
vn -0.5 0 -0.8652344
vn 0.5 0 -0.8652344
vn 0.5 0 -0.8652344
vn 0.5 0 -0.8652344
vn 0.5 0 -0.8652344
vn 0.9980469 0 0
vn 0.9980469 0 0
vn 0.9980469 0 0
vn 0.9980469 0 0
vn 0.5 0 0.8652344
vn 0.5 0 0.8652344
vn 0.5 0 0.8652344
vn 0.5 0 0.8652344
vn -0.5 0 0.8652344
vn -0.5 0 0.8652344
vn -0.5 0 0.8652344
vn -0.5 0 0.8652344
vn -1 0 0
vn -1 0 0
vn -1 0 0
vn -1 0 0
vn -1 0 0
vn -1 0 0
vn -1 0 0
vn -1 0 0
vn 0.9980469 0 0
vn 0.9980469 0 0
vn 0.9980469 0 0
vn 0.9980469 0 0
vn 0 0.9179688 0.3964844
vn 0 0.9179688 0.3964844
vn 0 0.9179688 0.3964844
vn 0 0.9179688 0.3964844
vn 0 0.04101563 0.9980469
vn 0 0.04101563 0.9980469
vn 0 0.04101563 0.9980469
vn 0 0.04101563 0.9980469
vt -4.980469 -0.3701172
vt -4.886719 -0.3701172
vt -4.886719 -0.3291016
vt -4.980469 -0.3291016
vt -4.886719 -0.3701172
vt -4.980469 -0.3701172
vt -4.980469 -0.3291016
vt -4.886719 -0.3291016
vt -4.886719 -0.3701172
vt -4.886719 -0.3701172
vt -4.886719 -0.3291016
vt -4.886719 -0.3291016
vt -4.980469 -0.3701172
vt -4.886719 -0.3701172
vt -4.886719 -0.3291016
vt -4.980469 -0.3291016
vt -4.886719 -0.3701172
vt -4.980469 -0.3701172
vt -4.980469 -0.3291016
vt -4.886719 -0.3291016
vt -4.886719 -0.3701172
vt -4.886719 -0.3701172
vt -4.886719 -0.3291016
vt -4.886719 -0.3291016
vt -4.980469 -0.3701172
vt -4.886719 -0.3701172
vt -4.886719 -0.3291016
vt -4.980469 -0.3291016
vt -4.886719 -0.3701172
vt -4.980469 -0.3701172
vt -4.980469 -0.3291016
vt -4.886719 -0.3291016
vt -4.886719 -0.3701172
vt -4.886719 -0.3701172
vt -4.886719 -0.3291016
vt -4.886719 -0.3291016
vt -4.980469 -0.3701172
vt -4.886719 -0.3701172
vt -4.886719 -0.3291016
vt -4.980469 -0.3291016
vt -4.886719 -0.3701172
vt -4.980469 -0.3701172
vt -4.980469 -0.3291016
vt -4.886719 -0.3291016
vt -4.886719 -0.3701172
vt -4.886719 -0.3701172
vt -4.886719 -0.3291016
vt -4.886719 -0.3291016
vt -1.164063 -1.432617
vt -1.164063 -1.551758
vt -1.253906 -1.551758
vt -1.347656 -1.432617
vt -1.164063 -1.551758
vt -1.164063 -1.432617
vt -1.347656 -1.432617
vt -1.253906 -1.551758
vt 0.2265625 -1.34668
vt 0.2265625 -1.658203
vt 0.921875 -1.658203
vt 0.921875 -1.34668
vt -0.1289063 -1.65332
vt -0.1289063 -1.347656
vt -0.3320313 -1.347656
vt -0.3320313 -1.65332
f 119/119/119 120/120/120 121/121/121 122/122/122
f 123/123/123 124/124/124 125/125/125 126/126/126
f 127/127/127 128/128/128 129/129/129 130/130/130
f 131/131/131 132/132/132 133/133/133 134/134/134
f 135/135/135 136/136/136 137/137/137 138/138/138
f 139/139/139 140/140/140 141/141/141 142/142/142
f 143/143/143 144/144/144 145/145/145 146/146/146
f 147/147/147 148/148/148 149/149/149 150/150/150
f 151/151/151 152/152/152 153/153/153 154/154/154
f 155/155/155 156/156/156 157/157/157 158/158/158
f 159/159/159 160/160/160 161/161/161 162/162/162
f 163/163/163 164/164/164 165/165/165 166/166/166
f 167/167/167 168/168/168 169/169/169 170/170/170
f 171/171/171 172/172/172 173/173/173 174/174/174
f 175/175/175 176/176/176 177/177/177 178/178/178
f 179/179/179 180/180/180 181/181/181 182/182/182
g polygon5
usemtl c2b2_1
v -27 59.03125 -48
v -27 49.03125 -48
v -27 59.03125 -13.49609
v -27 49.03125 -13.49609
v -27 59.03125 20.00781
v -27 49.03125 20.00781
vn -1 0 0
vn -1 0 0
vn -1 0 0
vn -1 0 0
vn -1 0 0
vn -1 0 0
vt 0.9931641 -0.00390625
vt 0.3857422 -0.00390625
vt 0.9931641 -0.01367188
vt 0.3857422 -0.01367188
vt 0.9931641 -0.02539063
vt 0.3857422 -0.02539063
f 183/183/183 184/184/184 185/185/185
f 184/184/184 186/186/186 185/185/185
f 185/185/185 186/186/186 187/187/187
f 186/186/186 188/188/188 187/187/187
v 36 49.03125 -48
v 36 59.03125 -48
v 36 49.03125 -13.49609
v 36 59.03125 -13.49609
v 36 49.03125 20.00781
v 36 59.03125 20.00781
vn 0.9980469 0 0
vn 0.9980469 0 0
vn 0.9980469 0 0
vn 0.9980469 0 0
vn 0.9980469 0 0
vn 0.9980469 0 0
vt 0.3857422 -0.02539063
vt 0.9931641 -0.02539063
vt 0.3857422 -0.01367188
vt 0.9931641 -0.01367188
vt 0.3857422 -0.00390625
vt 0.9931641 -0.00390625
f 189/189/189 190/190/190 191/191/191
f 190/190/190 192/192/192 191/191/191
f 191/191/191 192/192/192 193/193/193
f 192/192/192 194/194/194 193/193/193
v 36 41 -48
v 36 49.03125 -48
v 36 41 -13.49609
v 36 49.03125 -13.49609
v 36 41 20.00781
v 36 49.03125 20.00781
vn 0.9980469 0 0
vn 0.9980469 0 0
vn 0.9980469 0 0
vn 0.9980469 0 0
vn 0.9980469 0 0
vn 0.9980469 0 0
vt 0.515625 -0.6640625
vt 0.4804688 -0.6640625
vt 0.515625 -0.6015625
vt 0.4804688 -0.6015625
vt 0.515625 -0.5371094
vt 0.4804688 -0.5371094
f 195/195/195 196/196/196 197/197/197
f 196/196/196 198/198/198 197/197/197
f 197/197/197 198/198/198 199/199/199
f 198/198/198 200/200/200 199/199/199
v 36 37 -48.00391
v 36 41 -48
v 36 37 -13.49609
v 36 41 -13.49609
v 36 37 20.00781
v 36 41 20.00781
vn 0.9980469 0 0
vn 0.9980469 0 0
vn 0.9980469 0 0
vn 0.9980469 0 0
vn 0.9980469 0 0
vn 0.9980469 0 0
vt -3.477539 -0.9277344
vt -3.477539 -0.828125
vt -3.009766 -0.9277344
vt -3.009766 -0.828125
vt -3.477539 -0.9277344
vt -3.477539 -0.828125
f 201/201/201 202/202/202 203/203/203
f 202/202/202 204/204/204 203/203/203
f 203/203/203 204/204/204 205/205/205
f 204/204/204 206/206/206 205/205/205
v 36 4.03125 -48
v 36 37 -48.00391
v 36 4.03125 -13.49609
v 36 37 -13.49609
v 36 4.03125 20.00781
v 36 37 20.00781
vn 0.9980469 0 0
vn 0.9980469 0 0
vn 0.9980469 0 0
vn 0.9980469 0 0
vn 0.9980469 0 0
vn 0.9980469 0 0
vt 0.3652344 -0.9628906
vt 0.3652344 -0.3515625
vt 0.5068359 -0.9628906
vt 0.5068359 -0.3515625
vt 0.3652344 -0.9628906
vt 0.3652344 -0.3515625
f 207/207/207 208/208/208 209/209/209
f 208/208/208 210/210/210 209/209/209
f 209/209/209 210/210/210 211/211/211
f 210/210/210 212/212/212 211/211/211
v -27 41 20.00781
v -27 49.03125 20.00781
v -27 41 -13.49609
v -27 49.03125 -13.49609
v -27 41 -48
v -27 49.03125 -48
vn -1 0 0
vn -1 0 0
vn -1 0 0
vn -1 0 0
vn -1 0 0
vn -1 0 0
vt 0.515625 -0.6640625
vt 0.4804688 -0.6640625
vt 0.515625 -0.6015625
vt 0.4804688 -0.6015625
vt 0.515625 -0.5371094
vt 0.4804688 -0.5371094
f 213/213/213 214/214/214 215/215/215
f 214/214/214 216/216/216 215/215/215
f 215/215/215 216/216/216 217/217/217
f 216/216/216 218/218/218 217/217/217
v -27 37 -48.00391
v -27 4.03125 -48
v -27 37 -13.49609
v -27 4.03125 -13.49609
v -27 37 20.00781
v -27 4.03125 20.00781
vn -1 0 0
vn -1 0 0
vn -1 0 0
vn -1 0 0
vn -1 0 0
vn -1 0 0
vt 0.3652344 -0.3515625
vt 0.3652344 -0.9628906
vt 0.5068359 -0.3515625
vt 0.5068359 -0.9628906
vt 0.3652344 -0.3515625
vt 0.3652344 -0.9628906
f 219/219/219 220/220/220 221/221/221
f 220/220/220 222/222/222 221/221/221
f 221/221/221 222/222/222 223/223/223
f 222/222/222 224/224/224 223/223/223
v -27 41 -48
v -27 37 -48.00391
v -27 41 -13.49609
v -27 37 -13.49609
v -27 41 20.00781
v -27 37 20.00781
vn -1 0 0
vn -1 0 0
vn -1 0 0
vn -1 0 0
vn -1 0 0
vn -1 0 0
vt -3.477539 -0.828125
vt -3.477539 -0.9277344
vt -3.009766 -0.828125
vt -3.009766 -0.9277344
vt -3.477539 -0.828125
vt -3.477539 -0.9277344
f 225/225/225 226/226/226 227/227/227
f 226/226/226 228/228/228 227/227/227
f 227/227/227 228/228/228 229/229/229
f 228/228/228 230/230/230 229/229/229
v 4 57.03125 20.00781
v -27 49.03125 20.00781
v 4 41 20.00781
v -27 41 20.00781
v 4 37 20.00391
v -27 37 20.00781
vn 0 0.04101563 0.9980469
vn 0 0.04101563 0.9980469
vn 0 0.04101563 0.9980469
vn 0 0.04101563 0.9980469
vn 0 0.04101563 0.9980469
vn 0 0.04101563 0.9980469
vt 0.9970703 -0.02539063
vt 0.5322266 -0.421875
vt 0.9970703 -0.8183594
vt 0.5322266 -0.8183594
vt 0.9970703 -0.9296875
vt 0.5322266 -0.9296875
f 231/231/231 232/232/232 233/233/233
f 232/232/232 234/234/234 233/233/233
f 233/233/233 234/234/234 235/235/235
f 234/234/234 236/236/236 235/235/235
v 36 49.03125 20.00781
v 4 57.03125 20.00781
v 36 41 20.00781
v 4 41 20.00781
v 36 37 20.00781
v 4 37 20.00391
vn 0 0.04101563 0.9980469
vn 0 0.04101563 0.9980469
vn 0 0.04101563 0.9980469
vn 0 0.04101563 0.9980469
vn 0 0.04101563 0.9980469
vn 0 0.04101563 0.9980469
vt 0.5322266 -0.421875
vt 0.9970703 -0.02539063
vt 0.5322266 -0.8183594
vt 0.9970703 -0.8183594
vt 0.5322266 -0.9296875
vt 0.9970703 -0.9296875
f 237/237/237 238/238/238 239/239/239
f 238/238/238 240/240/240 239/239/239
f 239/239/239 240/240/240 241/241/241
f 240/240/240 242/242/242 241/241/241
v -27 37 20.00781
v -13 33.03125 20.00781
v 4 37 20.00391
v 4 33.03125 20.00781
v 22 33.03125 20.00781
vn 0 0.04101563 0.9980469
vn 0 0.04101563 0.9980469
vn 0 0.04101563 0.9980469
vn 0 0.04101563 0.9980469
vn 0 0.04101563 0.9980469
vt -3.790039 -1.390625
vt -3.751953 -1.410156
vt -3.709961 -1.390625
vt -3.709961 -1.410156
vt -3.751953 -1.410156
f 243/243/243 244/244/244 245/245/245
f 244/244/244 246/246/246 245/245/245
f 245/245/245 246/246/246 247/247/247
v -8 4.03125 16.99219
v -8 4.03125 15.37109
v -8 33.03125 15.37109
v -8 33.03125 16.99219
v -14.98047 4.03125 16.99219
v -8 4.03125 16.99219
v -8 33.03125 16.99219
v -14.98047 33.03125 16.99219
v 8 4.03125 15.37109
v 8 4.03125 16.99219
v 8 33.03125 16.99219
v 8 33.03125 15.37109
v 8 4.03125 16.99219
v 26 4.03125 16.99219
v 26 33.03125 16.99219
v 8 33.03125 16.99219
v 36 4.03125 20.00781
v 36 37 20.00781
v 22 33.03125 20.00781
v 22 4.03125 20.00781
v -27 4.03125 20.00781
v -13 4.03125 20.00781
v -13 33.03125 20.00781
v -27 37 20.00781
v 22 4.03125 20.00781
v 22 33.03125 20.00781
v 22 33.03125 3.007813
v 22 4.03125 3.007813
v -13 4.03125 20.00781
v 22 4.03125 20.00781
v 22 4.03125 3.007813
v -13 4.03125 3.007813
v -13 33.03125 20.00781
v -13 4.03125 20.00781
v -13 4.03125 3.007813
v -13 33.03125 3.007813
v 22 33.03125 3.007813
v -13 33.03125 3.007813
v -13 4.03125 3.007813
v 22 4.03125 3.007813
v 4 57.03125 20.00781
v 4 66.03125 20.00781
v -27 59.03125 20.00781
v -27 49.03125 20.00781
v 4 57.03125 20.00781
v 36 49.03125 20.00781
v 36 59.03125 20.00781
v 4 66.03125 20.00781
vn 0.9980469 0 0
vn 0.9980469 0 0
vn 0.9980469 0 0
vn 0.9980469 0 0
vn 0 0.04101563 0.9980469
vn 0 0.04101563 0.9980469
vn 0 0.04101563 0.9980469
vn 0 0.04101563 0.9980469
vn -1 0 0
vn -1 0 0
vn -1 0 0
vn -1 0 0
vn 0 0.04101563 0.9980469
vn 0 0.04101563 0.9980469
vn 0 0.04101563 0.9980469
vn 0 0.04101563 0.9980469
vn 0 0.04101563 0.9980469
vn 0 0.04101563 0.9980469
vn 0 0.04101563 0.9980469
vn 0 0.04101563 0.9980469
vn 0 0.04101563 0.9980469
vn 0 0.04101563 0.9980469
vn 0 0.04101563 0.9980469
vn 0 0.04101563 0.9980469
vn -1 0 0
vn -1 0 0
vn -1 0 0
vn -1 0 0
vn 0 0.9980469 0
vn 0 0.9980469 0
vn 0 0.9980469 0
vn 0 0.9980469 0
vn 0.9980469 0 0
vn 0.9980469 0 0
vn 0.9980469 0 0
vn 0.9980469 0 0
vn 0 0.04101563 0.9980469
vn 0 0.04101563 0.9980469
vn 0 0.04101563 0.9980469
vn 0 0.04101563 0.9980469
vn 0 0.04101563 0.9980469
vn 0 0.04101563 0.9980469
vn 0 0.04101563 0.9980469
vn 0 0.04101563 0.9980469
vn 0 0.04101563 0.9980469
vn 0 0.04101563 0.9980469
vn 0 0.04101563 0.9980469
vn 0 0.04101563 0.9980469
vt 0.07128906 -0.9472656
vt 0.0859375 -0.9472656
vt 0.0859375 -0.921875
vt 0.07128906 -0.921875
vt 0.07226563 -0.6503906
vt 0.1552734 -0.6503906
vt 0.1552734 -0.001953125
vt 0.07226563 -0.001953125
vt 0.07128906 -0.9472656
vt 0.0859375 -0.9472656
vt 0.0859375 -0.921875
vt 0.07128906 -0.921875
vt 0.004882813 -0.6503906
vt 0.1552734 -0.6503906
vt 0.1552734 -0.001953125
vt 0.004882813 -0.001953125
vt 0.1767578 -0.9941406
vt 0.1767578 -0.375
vt 0.3564453 -0.4492188
vt 0.3564453 -0.9941406
vt 0.1767578 -0.9941406
vt 0.3564453 -0.9941406
vt 0.3564453 -0.4511719
vt 0.1777344 -0.375
vt 0.0078125 -0.9472656
vt 0.02148438 -0.9472656
vt 0.02148438 -0.9199219
vt 0.0078125 -0.9199219
vt -0.5820313 -0.2460938
vt -0.4912109 -0.2460938
vt -0.4912109 -0.1289063
vt -0.5820313 -0.1289063
vt 0.0078125 -0.9472656
vt 0.02148438 -0.9472656
vt 0.02148438 -0.9199219
vt 0.0078125 -0.9199219
vt 0.0078125 -0.9472656
vt 0.02148438 -0.9472656
vt 0.02148438 -0.9199219
vt 0.0078125 -0.9199219
vt 0.3769531 -0.9980469
vt 0.9970703 -0.9980469
vt 0.9970703 -0.9726563
vt 0.3769531 -0.9726563
vt 0.3769531 -0.9726563
vt 0.3769531 -0.9980469
vt 0.9970703 -0.9980469
vt 0.9970703 -0.9726563
f 248/248/248 249/249/249 250/250/250 251/251/251
f 252/252/252 253/253/253 254/254/254 255/255/255
f 256/256/256 257/257/257 258/258/258 259/259/259
f 260/260/260 261/261/261 262/262/262 263/263/263
f 264/264/264 265/265/265 266/266/266 267/267/267
f 268/268/268 269/269/269 270/270/270 271/271/271
f 272/272/272 273/273/273 274/274/274 275/275/275
f 276/276/276 277/277/277 278/278/278 279/279/279
f 280/280/280 281/281/281 282/282/282 283/283/283
f 284/284/284 285/285/285 286/286/286 287/287/287
f 288/288/288 289/289/289 290/290/290 291/291/291
f 292/292/292 293/293/293 294/294/294 295/295/295
v 36 37 20.00781
v 4 37 20.00391
v 22 33.03125 20.00781
vn 0 0.04101563 0.9980469
vn 0 0.04101563 0.9980469
vn 0 0.04101563 0.9980469
vt -3.790039 -1.390625
vt -3.709961 -1.390625
vt -3.751953 -1.410156
f 296/296/296 297/297/297 298/298/298
