# Created by MKDS Course Modifier
mtllib Nimbasa City Building 1.mtl
g polygon0
usemtl buill01_005_1
v -20 52 52
v -20 52 -52
v -45.26172 52 -52
v -45.26172 52 52
v -12 76 52
v 48 76 52
v 48 76 -52
v -12 76 -52
vn -0.7070313 0.7070313 0
vn -0.7070313 0.7070313 0
vn 0 0.9980469 0
vn 0 0.9980469 0
vn 0 0.9980469 0
vn 0 0.9980469 0
vn 0 0.9980469 0
vn 0 0.9980469 0
vt -1.5625 0
vt -1.5625 -8
vt 1 -8
vt 1 0
vt -5 -8
vt 1 -8
vt 1 0
vt -5 0
f 1/1/1 2/2/2 3/3/3 4/4/4
f 5/5/5 6/6/6 7/7/7 8/8/8
g polygon1
usemtl buill01_003_2
v -49.26172 39 -56
v -49.26172 39 56
v -49.26172 60 56
v -49.26172 60 -56
v 52 39 56
v 52 39 -56
v 52 60 -56
v 52 60 56
v -16 60 -56
v -16 60 56
v -16 84 56
v -16 84 -56
v 52 60 56
v 52 60 -56
v 52 84 -56
v 52 84 56
vn -1 0 0
vn -1 0 0
vn -1 0 0
vn -1 0 0
vn 0.9980469 0 0
vn 0.9980469 0 0
vn 0.9980469 0 0
vn 0.9980469 0 0
vn -1 0 0
vn -1 0 0
vn -1 0 0
vn -1 0 0
vn 0.9980469 0 0
vn 0.9980469 0 0
vn 0.9980469 0 0
vn 0.9980469 0 0
vt -0.1953125 -1
vt -0.1953125 -1
vt -0.1953125 0
vt -0.1953125 0
vt -0.1953125 -1
vt -0.1953125 -1
vt -0.1953125 0
vt -0.1953125 0
vt -0.1953125 -1
vt -0.1953125 -1
vt -0.1953125 0
vt -0.1953125 0
vt -0.1953125 -1
vt -0.1953125 -1
vt -0.1953125 0
vt -0.1953125 0
f 9/9/9 10/10/10 11/11/11 12/12/12
f 13/13/13 14/14/14 15/15/15 16/16/16
f 17/17/17 18/18/18 19/19/19 20/20/20
f 21/21/21 22/22/22 23/23/23 24/24/24
g polygon2
usemtl h_mado_1
v -46 36 -54
v -46 36 54
v -46 56 54
v -46 56 -54
v -46 56 -54
v -18 56 -54
v -18 36 -54
v -46 36 -54
v -46 36 54
v -18 36 54
v -18 56 54
v -46 56 54
v -14 36 -54
v -14 36 54
v -14 78 54
v -14 78 -54
v 49 36 54
v 49 36 -54
v 49 78 -54
v 49 78 54
v -14 78 -54
v 49 78 -54
v 49 36 -54
v -14 36 -54
v -14 36 54
v 49 36 54
v 49 78 54
v -14 78 54
vn 0 0 0.9980469
vn 0 0 0.9980469
vn 0 0 0.9980469
vn 0 0 0.9980469
vn 0 0 0.9980469
vn 0 0 0.9980469
vn 0 0 0.9980469
vn 0 0 0.9980469
vn 0 0 0.9980469
vn 0 0 0.9980469
vn 0 0 0.9980469
vn 0 0 0.9980469
vn 0 0 0.9980469
vn 0 0 0.9980469
vn 0 0 0.9980469
vn 0 0 0.9980469
vn 0 0 0.9980469
vn 0 0 0.9980469
vn 0 0 0.9980469
vn 0 0 0.9980469
vn 0 0 0.9980469
vn 0 0 0.9980469
vn 0 0 0.9980469
vn 0 0 0.9980469
vn 0 0 0.9980469
vn 0 0 0.9980469
vn 0 0 0.9980469
vn 0 0 0.9980469
vt 1 -1
vt -5 -1
vt -5 0
vt 1 0
vt 1 -1
vt -1 -1
vt -1 0
vt 1 0
vt 1 -1
vt -1 -1
vt -1 0
vt 1 0
vt 1 -2
vt -5 -2
vt -5 0
vt 1 0
vt 1 -2
vt -5 -2
vt -5 0
vt 1 0
vt 1 -2
vt -3 -2
vt -3 0
vt 1 0
vt 1 -2
vt -3 -2
vt -3 0
vt 1 0
f 25/25/25 26/26/26 27/27/27 28/28/28
f 29/29/29 30/30/30 31/31/31 32/32/32
f 33/33/33 34/34/34 35/35/35 36/36/36
f 37/37/37 38/38/38 39/39/39 40/40/40
f 41/41/41 42/42/42 43/43/43 44/44/44
f 45/45/45 46/46/46 47/47/47 48/48/48
f 49/49/49 50/50/50 51/51/51 52/52/52
g polygon3
usemtl buill01_004_2
v -9.777344 88 -50.17188
v -9.777344 88 50.17188
v -9.777344 74 50.17188
v -9.777344 74 -50.17188
v 45.77734 88 50.17188
v 45.77734 88 -50.17188
v 45.77734 74 -50.17188
v 45.77734 74 50.17188
v -18 82 -58
v -18 82 58
v -18 88 58
v -18 88 -58
v 54 82 58
v 54 82 -58
v 54 88 -58
v 54 88 58
v 52 32 56
v 52 32 -56
v 52 39 -56
v 52 39 56
v -49.26172 32 -56
v -49.26172 32 56
v -49.26172 39 56
v -49.26172 39 -56
v -49.26172 3 -56
v -49.26172 3 56
v -49.26172 32 56
v -49.26172 32 -56
v 52 3 56
v 52 3 -56
v 52 32 -56
v 52 32 56
vn 0.7070313 0.7070313 0
vn 0.7070313 0.7070313 0
vn 0.9980469 0 0
vn 0.9980469 0 0
vn -0.7070313 0.7070313 0
vn -0.7070313 0.7070313 0
vn -1 0 0
vn -1 0 0
vn -1 0 0
vn -1 0 0
vn -1 0 0
vn -1 0 0
vn 0.9980469 0 0
vn 0.9980469 0 0
vn 0.9980469 0 0
vn 0.9980469 0 0
vn 0.9980469 0 0
vn 0.9980469 0 0
vn 0.9980469 0 0
vn 0.9980469 0 0
vn -1 0 0
vn -1 0 0
vn -1 0 0
vn -1 0 0
vn -1 0 0
vn -1 0 0
vn -1 0 0
vn -1 0 0
vn 0.9980469 0 0
vn 0.9980469 0 0
vn 0.9980469 0 0
vn 0.9980469 0 0
vt 0.0625 -0.3886719
vt 0.0625 -0.3886719
vt 0.0625 -0.3164063
vt 0.0625 -0.3164063
vt 0.0625 -0.3886719
vt 0.0625 -0.3886719
vt 0.0625 -0.3164063
vt 0.0625 -0.3164063
vt -2.992188 -0.2910156
vt -2.855469 -0.2910156
vt -2.855469 -0.4082031
vt -2.992188 -0.4082031
vt -2.992188 -0.2910156
vt -2.855469 -0.2910156
vt -2.855469 -0.4082031
vt -2.992188 -0.4082031
vt 1 -0.3105469
vt -4 -0.3105469
vt -4 0
vt 1 0
vt 1 -0.3105469
vt -4 -0.3105469
vt -4 0
vt 1 0
vt 1 -0.9902344
vt -4 -0.9902344
vt -4 -0.2890625
vt 1 -0.2890625
vt 1 -0.9902344
vt -4 -0.9902344
vt -4 -0.2890625
vt 1 -0.2890625
f 53/53/53 54/54/54 55/55/55 56/56/56
f 57/57/57 58/58/58 59/59/59 60/60/60
f 61/61/61 62/62/62 63/63/63 64/64/64
f 65/65/65 66/66/66 67/67/67 68/68/68
f 69/69/69 70/70/70 71/71/71 72/72/72
f 73/73/73 74/74/74 75/75/75 76/76/76
f 77/77/77 78/78/78 79/79/79 80/80/80
f 81/81/81 82/82/82 83/83/83 84/84/84
g polygon4
usemtl h_kage_1
v -56 2 -68
v -56 2 68
v 0 2 0
v 56 2 68
v 56 2 -68
vn 0 0.9980469 0
vn 0 0.9980469 0
vn 0 0.9980469 0
vn 0 0.9980469 0
vn 0 0.9980469 0
vt 0.0234375 -0.234375
vt 0.0234375 -0.234375
vt 0.0234375 -0.9765625
vt 0.0234375 -0.234375
vt 0.0234375 -0.234375
f 85/85/85 86/86/86 87/87/87
f 86/86/86 88/88/88 87/87/87
f 87/87/87 88/88/88 89/89/89
v -46 54 -52
v -38 54 -42
v 12 54 -42
v 12 54 -52
v -46 54 52
v -38 54 52
v -38 54 -42
v -46 54 -52
v -14 78 -52
v -4 78 -40
v 49 78 -40
v 49 78 -52
v -14 78 52
v -4 78 52
v -4 78 -40
v -14 78 -52
v 8 78 37
v 42 78 37
v 42 78 9
v 8 78 9
vn 0 0.9980469 0
vn 0 0.9980469 0
vn 0 0.9980469 0
vn 0 0.9980469 0
vn 0 0.9980469 0
vn 0 0.9980469 0
vn 0 0.9980469 0
vn 0 0.9980469 0
vn 0 0.9980469 0
vn 0 0.9980469 0
vn 0 0.9980469 0
vn 0 0.9980469 0
vn 0 0.9980469 0
vn 0 0.9980469 0
vn 0 0.9980469 0
vn 0 0.9980469 0
vn 0 0.9980469 0
vn 0 0.9980469 0
vn 0 0.9980469 0
vn 0 0.9980469 0
vt 0 -1
vt 0 0
vt 1 0
vt 1 -1
vt 0.4453125 -1
vt 0.4453125 -0.0625
vt 0.5546875 -0.0625
vt 0.5546875 -1
vt 0 -1
vt 0 0
vt 1 0
vt 1 -1
vt 0.4453125 -1
vt 0.4453125 -0.0625
vt 0.5546875 -0.0625
vt 0.5546875 -1
vt 0 -0.78125
vt 1 -0.78125
vt 1 -0.6015625
vt 0 -0.6015625
f 90/90/90 91/91/91 92/92/92 93/93/93
f 94/94/94 95/95/95 96/96/96 97/97/97
f 98/98/98 99/99/99 100/100/100 101/101/101
f 102/102/102 103/103/103 104/104/104 105/105/105
f 106/106/106 107/107/107 108/108/108 109/109/109
v 56 2 -68
v -56 2 -68
v 0 2 0
vn 0 0.9980469 0
vn 0 0.9980469 0
vn 0 0.9980469 0
vt 0.0234375 -0.234375
vt 0.0234375 -0.234375
vt 0.0234375 -0.9765625
f 110/110/110 111/111/111 112/112/112
g polygon5
usemtl buill01_003_1
v 32 84 56
v 32 60 56
v 52 60 56
v 52 84 56
v 32 60 56
v 32 39 56
v 52 39 56
v 52 60 56
v 16 84 56
v 16 60 56
v 32 60 56
v 32 84 56
v 16 60 56
v 16 39 56
v 32 39 56
v 32 60 56
v -16 60 -56
v -16 39 -56
v -49.26172 39 -56
v -49.26172 60 -56
v -16 39 56
v -16 60 56
v -49.26172 60 56
v -49.26172 39 56
v -16 39 56
v 16 39 56
v 16 60 56
v -16 60 56
v -16 60 -56
v 52 60 -56
v 52 39 -56
v -16 39 -56
v -16 60 56
v 16 60 56
v 16 84 56
v -16 84 56
v -16 84 -56
v 52 84 -56
v 52 60 -56
v -16 60 -56
vn 0 0 0.9980469
vn 0 0 0.9980469
vn 0 0 0.9980469
vn 0 0 0.9980469
vn 0 0 0.9980469
vn 0 0 0.9980469
vn 0 0 0.9980469
vn 0 0 0.9980469
vn 0 0 0.9980469
vn 0 0 0.9980469
vn 0 0 0.9980469
vn 0 0 0.9980469
vn 0 0 0.9980469
vn 0 0 0.9980469
vn 0 0 0.9980469
vn 0 0 0.9980469
vn 0 0 -1
vn 0 0 -1
vn 0 0 -1
vn 0 0 -1
vn 0 0 0.9980469
vn 0 0 0.9980469
vn 0 0 0.9980469
vn 0 0 0.9980469
vn 0 0 0.9980469
vn 0 0 0.9980469
vn 0 0 0.9980469
vn 0 0 0.9980469
vn 0 0 -1
vn 0 0 -1
vn 0 0 -1
vn 0 0 -1
vn 0 0 0.9980469
vn 0 0 0.9980469
vn 0 0 0.9980469
vn 0 0 0.9980469
vn 0 0 -1
vn 0 0 -1
vn 0 0 -1
vn 0 0 -1
vt -2 0
vt -2 -1
vt -0.71875 -1
vt -0.71875 0
vt -2 0
vt -2 -1
vt -0.71875 -1
vt -0.71875 0
vt -2 0
vt -2 -1
vt -1 -1
vt -1 0
vt -2 0
vt -2 -1
vt -1 -1
vt -1 0
vt -1 0
vt -1 -1
vt 1 -1
vt 1 0
vt -1 -1
vt -1 0
vt -3 0
vt -3 -1
vt -3 -1
vt -1 -1
vt -1 0
vt -3 0
vt -3 0
vt 1 0
vt 1 -1
vt -3 -1
vt -3 -1
vt -1 -1
vt -1 0
vt -3 0
vt -3 0
vt 1 0
vt 1 -1
vt -3 -1
f 113/113/113 114/114/114 115/115/115 116/116/116
f 117/117/117 118/118/118 119/119/119 120/120/120
f 121/121/121 122/122/122 123/123/123 124/124/124
f 125/125/125 126/126/126 127/127/127 128/128/128
f 129/129/129 130/130/130 131/131/131 132/132/132
f 133/133/133 134/134/134 135/135/135 136/136/136
f 137/137/137 138/138/138 139/139/139 140/140/140
f 141/141/141 142/142/142 143/143/143 144/144/144
f 145/145/145 146/146/146 147/147/147 148/148/148
f 149/149/149 150/150/150 151/151/151 152/152/152
g polygon6
usemtl buill01_004_1
v 52 32 56
v 52 39 56
v 32 32 56
v 32 39 56
v 16 32 56
v 16 39 56
v -16 32 56
v -16 39 56
vn 0 0 0.9980469
vn 0 0 0.9980469
vn 0 0 0.9980469
vn 0 0 0.9980469
vn 0 0 0.9980469
vn 0 0 0.9980469
vn 0 0 0.9980469
vn 0 0 0.9980469
vt 1.1875 -0.3105469
vt 1.1875 -0.001953125
vt 0.1015625 -0.3105469
vt 0.109375 -0.001953125
vt -1.136719 -0.3105469
vt -1.132813 -0.001953125
vt -2.992188 -0.3105469
vt -2.992188 -0.001953125
f 153/153/153 154/154/154 155/155/155
f 154/154/154 156/156/156 155/155/155
f 155/155/155 156/156/156 157/157/157
f 156/156/156 158/158/158 157/157/157
f 157/157/157 158/158/158 159/159/159
f 158/158/158 160/160/160 159/159/159
v 45.77734 88 -50.17188
v -9.777344 88 -50.17188
v -9.777344 74 -50.17188
v 45.77734 74 -50.17188
v -9.777344 88 50.17188
v 45.77734 88 50.17188
v 45.77734 74 50.17188
v -9.777344 74 50.17188
v -18 88 -58
v -18 88 58
v -9.777344 88 50.17188
v -9.777344 88 -50.17188
v 54 88 -58
v -18 88 -58
v -9.777344 88 -50.17188
v 45.77734 88 -50.17188
v 54 88 58
v 54 88 -58
v 45.77734 88 -50.17188
v 45.77734 88 50.17188
v -18 88 58
v 54 88 58
v 45.77734 88 50.17188
v -9.777344 88 50.17188
v -18 88 -58
v 54 88 -58
v 54 82 -58
v -18 82 -58
v -18 82 58
v 54 82 58
v 54 88 58
v -18 88 58
v -16 39 -56
v 52 39 -56
v 52 32 -56
v -16 32 -56
v -16 39 -56
v -16 32 -56
v -49.26172 32 -56
v -49.26172 39 -56
v -49.26172 32 56
v -16 32 56
v -16 39 56
v -49.26172 39 56
v 16 32 56
v -16 32 56
v -16 3 56
v 16 3 56
v -16 32 -56
v -16 3 -56
v -49.26172 3 -56
v -49.26172 32 -56
v -16 3 56
v -16 32 56
v -49.26172 32 56
v -49.26172 3 56
v 52 32 56
v 32 32 56
v 32 3 56
v 52 3 56
v -16 32 -56
v 52 32 -56
v 52 3 -56
v -16 3 -56
vn 0 0 0.9980469
vn 0 0 0.9980469
vn 0 0 0.9980469
vn 0 0 0.9980469
vn 0 0 -1
vn 0 0 -1
vn 0 0 -1
vn 0 0 -1
vn 0 0.9980469 0
vn 0 0.9980469 0
vn 0.7070313 0.7070313 0
vn 0.7070313 0.7070313 0
vn 0 0.9980469 0
vn 0 0.9980469 0
vn 0 0.9980469 0
vn 0 0.9980469 0
vn 0 0.9980469 0
vn 0 0.9980469 0
vn -0.7070313 0.7070313 0
vn -0.7070313 0.7070313 0
vn 0 0.9980469 0
vn 0 0.9980469 0
vn 0 0.9980469 0
vn 0 0.9980469 0
vn 0 0 -1
vn 0 0 -1
vn 0 0 -1
vn 0 0 -1
vn 0 0 0.9980469
vn 0 0 0.9980469
vn 0 0 0.9980469
vn 0 0 0.9980469
vn 0 0 -1
vn 0 0 -1
vn 0 0 -1
vn 0 0 -1
vn 0 0 -1
vn 0 0 -1
vn 0 0 -1
vn 0 0 -1
vn 0 0 0.9980469
vn 0 0 0.9980469
vn 0 0 0.9980469
vn 0 0 0.9980469
vn 0 0 0.9980469
vn 0 0 0.9980469
vn 0 0 0.9980469
vn 0 0 0.9980469
vn 0 0 -1
vn 0 0 -1
vn 0 0 -1
vn 0 0 -1
vn 0 0 0.9980469
vn 0 0 0.9980469
vn 0 0 0.9980469
vn 0 0 0.9980469
vn 0 0 0.9980469
vn 0 0 0.9980469
vn 0 0 0.9980469
vn 0 0 0.9980469
vn 0 0 -1
vn 0 0 -1
vn 0 0 -1
vn 0 0 -1
vt 0.0625 -0.3886719
vt 0.0625 -0.3886719
vt 0.0625 -0.3164063
vt 0.0625 -0.3164063
vt -2.992188 -0.109375
vt -1.136719 -0.109375
vt -1.136719 -0.109375
vt -2.992188 -0.109375
vt -2.992188 -1.865234
vt -1.136719 -1.865234
vt -1.132813 -1.765625
vt -2.992188 -1.765625
vt -2.992188 -1.865234
vt -1.136719 -1.865234
vt -1.132813 -1.765625
vt -2.992188 -1.765625
vt -2.992188 -1.865234
vt -1.136719 -1.865234
vt -1.132813 -1.765625
vt -2.992188 -1.765625
vt -2.992188 -1.865234
vt -1.136719 -1.865234
vt -1.132813 -1.765625
vt -2.992188 -1.765625
vt -2.992188 -0.4082031
vt -2.855469 -0.4082031
vt -2.855469 -0.2910156
vt -2.992188 -0.2910156
vt -2.992188 -0.2910156
vt -2.855469 -0.2910156
vt -2.855469 -0.4082031
vt -2.992188 -0.4082031
vt 1 0
vt -3 0
vt -3 -0.3105469
vt 1 -0.3105469
vt -2 0
vt -2 -0.3105469
vt 1 -0.3105469
vt 1 0
vt 1 -0.3105469
vt -1 -0.3105469
vt -1 0
vt 1 0
vt -1 -0.2890625
vt -3 -0.2890625
vt -3 -0.9902344
vt -1 -0.9902344
vt -1 -0.2890625
vt -1 -0.9902344
vt 1 -0.9902344
vt 1 -0.2890625
vt -1 -0.9902344
vt -1 -0.2890625
vt -3 -0.2890625
vt -3 -0.9902344
vt 1.1875 -0.2890625
vt 0 -0.2890625
vt 0 -0.9902344
vt 1.1875 -0.9902344
vt 1 -0.2890625
vt -3 -0.2890625
vt -3 -0.9902344
vt 1 -0.9902344
f 161/161/161 162/162/162 163/163/163 164/164/164
f 165/165/165 166/166/166 167/167/167 168/168/168
f 169/169/169 170/170/170 171/171/171 172/172/172
f 173/173/173 174/174/174 175/175/175 176/176/176
f 177/177/177 178/178/178 179/179/179 180/180/180
f 181/181/181 182/182/182 183/183/183 184/184/184
f 185/185/185 186/186/186 187/187/187 188/188/188
f 189/189/189 190/190/190 191/191/191 192/192/192
f 193/193/193 194/194/194 195/195/195 196/196/196
f 197/197/197 198/198/198 199/199/199 200/200/200
f 201/201/201 202/202/202 203/203/203 204/204/204
f 205/205/205 206/206/206 207/207/207 208/208/208
f 209/209/209 210/210/210 211/211/211 212/212/212
f 213/213/213 214/214/214 215/215/215 216/216/216
f 217/217/217 218/218/218 219/219/219 220/220/220
f 221/221/221 222/222/222 223/223/223 224/224/224
g polygon7
usemtl buill01_002_1
v 16 84 52
v 32 84 52
v 48 76 52
v 48 84 52
vn 0 0 -1
vn 0 0 -1
vn 0 0 -1
vn 0 0 -1
vt 0.03125 -0.1738281
vt 0.03125 -0.1738281
vt 0.03125 -0.1738281
vt 0.03125 -0.1738281
f 225/225/225 226/226/226 227/227/227
f 226/226/226 228/228/228 227/227/227
v 17.5 85.78906 27.49219
v 33.5 85.78906 27.49219
v 33.5 86.21094 20.00781
v 17.5 86.21094 20.00781
v 14 32 57
v 14 32 61
v 14 36 61
v 14 36 57
v 34 32 61
v 34 32 57
v 34 36 57
v 34 36 61
v 14 36 61
v 34 36 61
v 34 36 57
v 14 36 57
v 14 32 61
v 34 32 61
v 34 36 61
v 14 36 61
v 11 79 11
v 11 79 35
v 13.43359 85 31.34766
v 13.43359 85 14.65234
v 40 79 35
v 40 79 11
v 37.56641 85 14.65234
v 37.56641 85 31.34766
v 13.43359 85 14.65234
v 37.56641 85 14.65234
v 40 79 11
v 11 79 11
v 13.43359 85 31.34766
v 37.56641 85 31.34766
v 37.56641 85 14.65234
v 13.43359 85 14.65234
v 11 79 35
v 40 79 35
v 37.56641 85 31.34766
v 13.43359 85 31.34766
v -45.26172 60 52
v -20 60 52
v -20 52 52
v -45.26172 52 52
v -45.26172 60 -52
v -45.26172 60 52
v -45.26172 52 52
v -45.26172 52 -52
v -20 60 -52
v -45.26172 60 -52
v -45.26172 52 -52
v -20 52 -52
v -20 60 52
v -20 60 -52
v -20 52 -52
v -20 52 52
v -49.26172 60 56
v -16 60 56
v -20 60 52
v -45.26172 60 52
v -49.26172 60 -56
v -49.26172 60 56
v -45.26172 60 52
v -45.26172 60 -52
v -16 60 -56
v -49.26172 60 -56
v -45.26172 60 -52
v -20 60 -52
v -16 60 56
v -16 60 -56
v -20 60 -52
v -20 60 52
v -12 84 -52
v -12 84 52
v -12 76 52
v -12 76 -52
v 48 84 -52
v -12 84 -52
v -12 76 -52
v 48 76 -52
v 48 84 52
v 48 84 -52
v 48 76 -52
v 48 76 52
v -12 84 52
v 16 84 52
v 48 76 52
v -12 76 52
v 16 32 56
v 16 3 56
v 16 3 24
v 16 32 24
v 32 3 56
v 32 32 56
v 32 32 24
v 32 3 24
v 16 3 56
v 32 3 56
v 32 3 24
v 16 3 24
v 16 3 24
v 32 3 24
v 32 32 24
v 16 32 24
vn 0 0.9980469 0.05664063
vn 0 0.9980469 0.05664063
vn 0 0.9980469 0.05664063
vn 0 0.9980469 0.05664063
vn -1 0 0
vn -1 0 0
vn -1 0 0
vn -1 0 0
vn 0.9980469 0 0
vn 0.9980469 0 0
vn 0.9980469 0 0
vn 0.9980469 0 0
vn 0 0.9980469 0
vn 0 0.9980469 0
vn 0 0.9980469 0
vn 0 0.9980469 0
vn 0 0 0.9980469
vn 0 0 0.9980469
vn 0 0 0.9980469
vn 0 0 0.9980469
vn -0.9257813 0.375 0
vn -0.9257813 0.375 0
vn -0.9257813 0.375 0
vn -0.9257813 0.375 0
vn 0.9257813 0.375 0
vn 0.9257813 0.375 0
vn 0.9257813 0.375 0
vn 0.9257813 0.375 0
vn 0 0.5195313 -0.8535156
vn 0 0.5195313 -0.8535156
vn 0 0.5195313 -0.8535156
vn 0 0.5195313 -0.8535156
vn 0 0.9980469 0
vn 0 0.9980469 0
vn 0 0.9980469 0
vn 0 0.9980469 0
vn 0 0.5195313 0.8535156
vn 0 0.5195313 0.8535156
vn 0 0.5195313 0.8535156
vn 0 0.5195313 0.8535156
vn 0 0 -1
vn 0 0 -1
vn 0 0 -1
vn 0 0 -1
vn 0.9980469 0 0
vn 0.9980469 0 0
vn 0.9980469 0 0
vn 0.9980469 0 0
vn 0 0 0.9980469
vn 0 0 0.9980469
vn 0 0 0.9980469
vn 0 0 0.9980469
vn -0.7070313 0.7070313 0
vn -0.7070313 0.7070313 0
vn -0.7070313 0.7070313 0
vn -0.7070313 0.7070313 0
vn 0 0.9980469 0
vn 0 0.9980469 0
vn 0 0.9980469 0
vn 0 0.9980469 0
vn 0 0.9980469 0
vn 0 0.9980469 0
vn 0 0.9980469 0
vn 0 0.9980469 0
vn 0 0.9980469 0
vn 0 0.9980469 0
vn 0 0.9980469 0
vn 0 0.9980469 0
vn 0 0.9980469 0
vn 0 0.9980469 0
vn -0.7070313 0.7070313 0
vn -0.7070313 0.7070313 0
vn 0.9980469 0 0
vn 0.9980469 0 0
vn 0.9980469 0 0
vn 0.9980469 0 0
vn 0 0 0.9980469
vn 0 0 0.9980469
vn 0 0 0.9980469
vn 0 0 0.9980469
vn -1 0 0
vn -1 0 0
vn -1 0 0
vn -1 0 0
vn 0 0 -1
vn 0 0 -1
vn 0 0 -1
vn 0 0 -1
vn 0.9980469 0 0
vn 0.9980469 0 0
vn 0.9980469 0 0
vn 0.9980469 0 0
vn -1 0 0
vn -1 0 0
vn -1 0 0
vn -1 0 0
vn 0 0.9980469 0
vn 0 0.9980469 0
vn 0 0.9980469 0
vn 0 0.9980469 0
vn 0 0 0.9980469
vn 0 0 0.9980469
vn 0 0 0.9980469
vn 0 0 0.9980469
vt 0 -0.7792969
vt 1 -0.7792969
vt 1 -0.5996094
vt 0 -0.5996094
vt 0 -0.2109375
vt 1 -0.2109375
vt 1 -0.1074219
vt 0 -0.1074219
vt 0 -0.2109375
vt 1 -0.2109375
vt 1 -0.1074219
vt 0 -0.1074219
vt 0 -0.04296875
vt 1 -0.04296875
vt 1 -0.04296875
vt 0 -0.04296875
vt 0.1679688 -0.2070313
vt 0.890625 -0.2070313
vt 0.890625 -0.1074219
vt 0.1679688 -0.1074219
vt 0.9921875 -0.796875
vt 0.9921875 -0.796875
vt 0.5078125 -0.796875
vt 0.5078125 -0.796875
vt 0.9921875 -0.796875
vt 0.9921875 -0.796875
vt 0.5078125 -0.796875
vt 0.5078125 -0.796875
vt 0.9921875 -0.8183594
vt 0.9921875 -0.8183594
vt 0.5078125 -0.8183594
vt 0.5078125 -0.8183594
vt 0.01171875 -0.9628906
vt 0.4921875 -0.9628906
vt 0.4921875 -0.7851563
vt 0.01171875 -0.7851563
vt 0.9921875 -0.8183594
vt 0.9921875 -0.8183594
vt 0.5078125 -0.8183594
vt 0.5078125 -0.8183594
vt 0.03125 -0.1738281
vt 0.03125 -0.1738281
vt 0.03125 -0.1738281
vt 0.03125 -0.1738281
vt 0.9921875 -0.2773438
vt 0.9921875 -0.2773438
vt 0.02734375 -0.2773438
vt 0.02734375 -0.2773438
vt 0.9921875 -0.1777344
vt 0.9921875 -0.1777344
vt 0.02734375 -0.1777344
vt 0.02734375 -0.1777344
vt 0.9921875 -0.2773438
vt 0.9921875 -0.2773438
vt 0.02734375 -0.2773438
vt 0.02734375 -0.2773438
vt 0 -0.07421875
vt 1 -0.07421875
vt 1 -0.02148438
vt 0 -0.02148438
vt 0 -0.07421875
vt 1 -0.07421875
vt 1 -0.02148438
vt 0 -0.02148438
vt 0 -0.07421875
vt 1 -0.07421875
vt 1 -0.02148438
vt 0 -0.02148438
vt 0 -0.07421875
vt 1 -0.07421875
vt 1 -0.02148438
vt 0 -0.02148438
vt 0.9921875 -0.2773438
vt 0.9921875 -0.2773438
vt 0.02734375 -0.2773438
vt 0.02734375 -0.2773438
vt 0.9921875 -0.1777344
vt 0.9921875 -0.1777344
vt 0.02734375 -0.1777344
vt 0.02734375 -0.1777344
vt 0.9921875 -0.2773438
vt 0.9921875 -0.2773438
vt 0.02734375 -0.2773438
vt 0.02734375 -0.2773438
vt 0.03125 -0.1738281
vt 0.03125 -0.1738281
vt 0.03125 -0.1738281
vt 0.03125 -0.1738281
vt 0.03125 -0.984375
vt 0.03125 -0.984375
vt 0.03125 -0.984375
vt 0.03125 -0.984375
vt 0.03125 -0.984375
vt 0.03125 -0.984375
vt 0.03125 -0.984375
vt 0.03125 -0.984375
vt 0.9765625 -0.984375
vt 0.9765625 -0.984375
vt 0.03125 -0.984375
vt 0.03125 -0.984375
vt 0.03125 -0.984375
vt 0.03125 -0.984375
vt 0.03125 -0.984375
vt 0.03125 -0.984375
f 229/229/229 230/230/230 231/231/231 232/232/232
f 233/233/233 234/234/234 235/235/235 236/236/236
f 237/237/237 238/238/238 239/239/239 240/240/240
f 241/241/241 242/242/242 243/243/243 244/244/244
f 245/245/245 246/246/246 247/247/247 248/248/248
f 249/249/249 250/250/250 251/251/251 252/252/252
f 253/253/253 254/254/254 255/255/255 256/256/256
f 257/257/257 258/258/258 259/259/259 260/260/260
f 261/261/261 262/262/262 263/263/263 264/264/264
f 265/265/265 266/266/266 267/267/267 268/268/268
f 269/269/269 270/270/270 271/271/271 272/272/272
f 273/273/273 274/274/274 275/275/275 276/276/276
f 277/277/277 278/278/278 279/279/279 280/280/280
f 281/281/281 282/282/282 283/283/283 284/284/284
f 285/285/285 286/286/286 287/287/287 288/288/288
f 289/289/289 290/290/290 291/291/291 292/292/292
f 293/293/293 294/294/294 295/295/295 296/296/296
f 297/297/297 298/298/298 299/299/299 300/300/300
f 301/301/301 302/302/302 303/303/303 304/304/304
f 305/305/305 306/306/306 307/307/307 308/308/308
f 309/309/309 310/310/310 311/311/311 312/312/312
f 313/313/313 314/314/314 315/315/315 316/316/316
f 317/317/317 318/318/318 319/319/319 320/320/320
f 321/321/321 322/322/322 323/323/323 324/324/324
f 325/325/325 326/326/326 327/327/327 328/328/328
f 329/329/329 330/330/330 331/331/331 332/332/332
