# Created by MKDS Course Modifier
mtllib Cafe Warehouse.mtl
g polygon0
usemtl plant
v -30.44941 4.43035 -0.9611078
v -29.21982 4.43035 -0.9611078
v -29.21982 5.682473 -1.684133
v -30.44941 5.682473 -1.684133
vn 0 0.5 0.8652344
vn 0 0.5 0.8652344
vn 0 0.5 0.8652344
vn 0 0.5 0.8652344
vt 1 -1
vt 0 -1
vt 0 0
vt 1 0
f 1/1/1 2/2/2 3/3/3 4/4/4
g polygon1
usemtl lambert9
v -30.19042 4.470025 -0.8595415
v -30.04537 4.470025 -0.7144921
v -29.8762 4.470025 -1.173445
v -29.73115 4.470025 -1.028395
v -29.56229 4.470025 -1.487666
v -29.41724 4.470025 -1.342616
vn 0 0.9980469 0
vn 0 0.9980469 0
vn 0 0.9980469 0
vn 0 0.9980469 0
vn 0 0.9980469 0
vn 0 0.9980469 0
vt 0.65625 0.6523438
vt 0.65625 0.6523438
vt 0.65625 0.75
vt 0.65625 0.75
vt 0.65625 0.6523438
vt 0.65625 0.6523438
f 5/5/5 6/6/6 7/7/7
f 6/6/6 8/8/8 7/7/7
f 7/7/7 8/8/8 9/9/9
f 8/8/8 10/10/10 9/9/9
v -30.04537 4.470025 -0.7144921
v -29.78352 4.470025 -0.4526414
v -29.73115 4.470025 -1.028395
v -29.15539 4.470025 -1.080766
v -29.41724 4.470025 -1.342616
vn 0 0.9980469 0
vn 0 0.9980469 0
vn 0 0.9980469 0
vn 0 0.9980469 0
vn 0 0.9980469 0
vt 0.65625 0.6523438
vt 0.65625 0.6523438
vt 0.65625 0.75
vt 0.65625 0.6523438
vt 0.65625 0.6523438
f 11/11/11 12/12/12 13/13/13
f 12/12/12 14/14/14 13/13/13
f 13/13/13 14/14/14 15/15/15
v -30.19042 4.470025 -0.8595415
v -29.8762 4.470025 -1.173445
v -30.45227 4.470025 -1.121075
v -29.82383 4.470025 -1.749199
vn 0 0.9980469 0
vn 0 0.9980469 0
vn 0 0.9980469 0
vn 0 0.9980469 0
vt 0.65625 0.6523438
vt 0.65625 0.75
vt 0.65625 0.6523438
vt 0.65625 0.6523438
f 16/16/16 17/17/17 18/18/18
f 17/17/17 19/19/19 18/18/18
v -30.34213 3.877766 -1.121075
v -30.13551 3.877766 -0.9144508
v -30.19042 4.470025 -0.8595415
v -30.45227 4.470025 -1.121075
v -29.99046 3.877766 -0.7694014
v -29.78352 3.877766 -0.56246
v -29.78352 4.470025 -0.4526414
v -30.04537 4.470025 -0.7144921
v -29.78352 3.877766 -0.56246
v -29.26521 3.877766 -1.080766
v -29.15539 4.470025 -1.080766
v -29.78352 4.470025 -0.4526414
v -30.13551 3.877766 -0.9144508
v -29.99046 3.877766 -0.7694014
v -30.04537 4.470025 -0.7144921
v -30.19042 4.470025 -0.8595415
vn -0.7011719 -0.1308594 0.7011719
vn -0.7011719 -0.1308594 0.7011719
vn -0.7011719 -0.1308594 0.7011719
vn -0.7011719 -0.1308594 0.7011719
vn -0.7011719 -0.1308594 0.7011719
vn -0.7011719 -0.1308594 0.7011719
vn -0.7011719 -0.1308594 0.7011719
vn -0.7011719 -0.1308594 0.7011719
vn 0.7011719 -0.1308594 0.7011719
vn 0.7011719 -0.1308594 0.7011719
vn 0.7011719 -0.1308594 0.7011719
vn 0.7011719 -0.1308594 0.7011719
vn -0.7011719 -0.1308594 0.7011719
vn -0.7011719 -0.1308594 0.7011719
vn -0.7011719 -0.1308594 0.7011719
vn -0.7011719 -0.1308594 0.7011719
vt 1.019531 -0.00390625
vt 1.019531 -0.046875
vt 1.089844 -0.046875
vt 1.089844 -0.00390625
vt 1.019531 -0.00390625
vt 1.019531 -0.046875
vt 1.089844 -0.046875
vt 1.089844 -0.00390625
vt 1.019531 -0.00390625
vt 1.019531 -0.046875
vt 1.089844 -0.046875
vt 1.089844 -0.00390625
vt 1.019531 -0.00390625
vt 1.019531 -0.046875
vt 1.089844 -0.046875
vt 1.089844 -0.00390625
f 20/20/20 21/21/21 22/22/22 23/23/23
f 24/24/24 25/25/25 26/26/26 27/27/27
f 28/28/28 29/29/29 30/30/30 31/31/31
f 32/32/32 33/33/33 34/34/34 35/35/35
v -29.8762 4.470025 -1.173445
v -29.56229 4.470025 -1.487666
v -29.82383 4.470025 -1.749199
vn 0 0.9980469 0
vn 0 0.9980469 0
vn 0 0.9980469 0
vt 0.65625 0.75
vt 0.65625 0.6523438
vt 0.65625 0.6523438
f 36/36/36 37/37/37 38/38/38
g polygon2
usemtl plant
v -18.44941 4.43035 -0.9611078
v -17.21982 4.43035 -0.9611078
v -17.21982 5.682473 -1.684133
v -18.44941 5.682473 -1.684133
vn 0 0.5 0.8652344
vn 0 0.5 0.8652344
vn 0 0.5 0.8652344
vn 0 0.5 0.8652344
vt 1 -1
vt 0 -1
vt 0 0
vt 1 0
f 39/39/39 40/40/40 41/41/41 42/42/42
g polygon3
usemtl lambert9
v -18.19042 4.470025 -0.8595415
v -18.04537 4.470025 -0.7144921
v -17.8762 4.470025 -1.173445
v -17.73115 4.470025 -1.028395
v -17.56229 4.470025 -1.487666
v -17.41724 4.470025 -1.342616
vn 0 0.9980469 0
vn 0 0.9980469 0
vn 0 0.9980469 0
vn 0 0.9980469 0
vn 0 0.9980469 0
vn 0 0.9980469 0
vt 0.65625 0.6523438
vt 0.65625 0.6523438
vt 0.65625 0.75
vt 0.65625 0.75
vt 0.65625 0.6523438
vt 0.65625 0.6523438
f 43/43/43 44/44/44 45/45/45
f 44/44/44 46/46/46 45/45/45
f 45/45/45 46/46/46 47/47/47
f 46/46/46 48/48/48 47/47/47
v -18.04537 4.470025 -0.7144921
v -17.78352 4.470025 -0.4526414
v -17.73115 4.470025 -1.028395
v -17.15539 4.470025 -1.080766
v -17.41724 4.470025 -1.342616
vn 0 0.9980469 0
vn 0 0.9980469 0
vn 0 0.9980469 0
vn 0 0.9980469 0
vn 0 0.9980469 0
vt 0.65625 0.6523438
vt 0.65625 0.6523438
vt 0.65625 0.75
vt 0.65625 0.6523438
vt 0.65625 0.6523438
f 49/49/49 50/50/50 51/51/51
f 50/50/50 52/52/52 51/51/51
f 51/51/51 52/52/52 53/53/53
v -18.19042 4.470025 -0.8595415
v -17.8762 4.470025 -1.173445
v -18.45227 4.470025 -1.121075
v -17.82383 4.470025 -1.749199
vn 0 0.9980469 0
vn 0 0.9980469 0
vn 0 0.9980469 0
vn 0 0.9980469 0
vt 0.65625 0.6523438
vt 0.65625 0.75
vt 0.65625 0.6523438
vt 0.65625 0.6523438
f 54/54/54 55/55/55 56/56/56
f 55/55/55 57/57/57 56/56/56
v -18.34213 3.877766 -1.121075
v -18.13551 3.877766 -0.9144508
v -18.19042 4.470025 -0.8595415
v -18.45227 4.470025 -1.121075
v -17.99046 3.877766 -0.7694014
v -17.78352 3.877766 -0.56246
v -17.78352 4.470025 -0.4526414
v -18.04537 4.470025 -0.7144921
v -17.78352 3.877766 -0.56246
v -17.26521 3.877766 -1.080766
v -17.15539 4.470025 -1.080766
v -17.78352 4.470025 -0.4526414
v -18.13551 3.877766 -0.9144508
v -17.99046 3.877766 -0.7694014
v -18.04537 4.470025 -0.7144921
v -18.19042 4.470025 -0.8595415
vn -0.7011719 -0.1308594 0.7011719
vn -0.7011719 -0.1308594 0.7011719
vn -0.7011719 -0.1308594 0.7011719
vn -0.7011719 -0.1308594 0.7011719
vn -0.7011719 -0.1308594 0.7011719
vn -0.7011719 -0.1308594 0.7011719
vn -0.7011719 -0.1308594 0.7011719
vn -0.7011719 -0.1308594 0.7011719
vn 0.7011719 -0.1308594 0.7011719
vn 0.7011719 -0.1308594 0.7011719
vn 0.7011719 -0.1308594 0.7011719
vn 0.7011719 -0.1308594 0.7011719
vn -0.7011719 -0.1308594 0.7011719
vn -0.7011719 -0.1308594 0.7011719
vn -0.7011719 -0.1308594 0.7011719
vn -0.7011719 -0.1308594 0.7011719
vt 1.019531 -0.00390625
vt 1.019531 -0.046875
vt 1.089844 -0.046875
vt 1.089844 -0.00390625
vt 1.019531 -0.00390625
vt 1.019531 -0.046875
vt 1.089844 -0.046875
vt 1.089844 -0.00390625
vt 1.019531 -0.00390625
vt 1.019531 -0.046875
vt 1.089844 -0.046875
vt 1.089844 -0.00390625
vt 1.019531 -0.00390625
vt 1.019531 -0.046875
vt 1.089844 -0.046875
vt 1.089844 -0.00390625
f 58/58/58 59/59/59 60/60/60 61/61/61
f 62/62/62 63/63/63 64/64/64 65/65/65
f 66/66/66 67/67/67 68/68/68 69/69/69
f 70/70/70 71/71/71 72/72/72 73/73/73
v -17.8762 4.470025 -1.173445
v -17.56229 4.470025 -1.487666
v -17.82383 4.470025 -1.749199
vn 0 0.9980469 0
vn 0 0.9980469 0
vn 0 0.9980469 0
vt 0.65625 0.75
vt 0.65625 0.6523438
vt 0.65625 0.6523438
f 74/74/74 75/75/75 76/76/76
g polygon4
usemtl h_mado_lm1
v -32.5 35 -29
v -32.5 3 -29
v -32.5 35 -9.5
v -32.5 3 -9.5
v 0 35 -9.5
v 0 3 -9.5
vn 0 0 0.9980469
vn 0 0 0.9980469
vn 0 0 0.9980469
vn 0 0 0.9980469
vn 0 0 0.9980469
vn 0 0 0.9980469
vt -1 0
vt -1 -1
vt 0 0
vt 0 -1
vt 1 0
vt 1 -1
f 77/77/77 78/78/78 79/79/79
f 78/78/78 80/80/80 79/79/79
f 79/79/79 80/80/80 81/81/81
f 80/80/80 82/82/82 81/81/81
g polygon5
usemtl white
v 46.43164 33.98047 -25.57422
v 46.43164 33.98047 -30.74023
v 46.26367 37.9668 -30.3125
v 46.26367 37.9668 -26
v 41.28125 33.98047 -25.57422
v 46.43164 33.98047 -25.57422
v 46.26367 37.9668 -26
v 41.44727 37.9668 -26
v 41.28125 33.98047 -30.74023
v 41.28125 33.98047 -25.57422
v 41.44727 37.9668 -26
v 41.44727 37.9668 -30.3125
vn NaN 0 0
vn NaN 0 0
vn NaN 0 0
vn NaN 0 0
vn NaN 0 0
vn NaN 0 0
vn NaN 0 0
vn NaN 0 0
vn NaN 0 0
vn NaN 0 0
vn NaN 0 0
vn NaN 0 0
vt 0.03125 -0.53125
vt 0.078125 -0.53125
vt 0.078125 -0.53125
vt 0.03125 -0.53125
vt 0.03125 -0.53125
vt 0.078125 -0.53125
vt 0.078125 -0.53125
vt 0.03125 -0.53125
vt 0.03125 -0.53125
vt 0.078125 -0.53125
vt 0.078125 -0.53125
vt 0.03125 -0.53125
f 83/83/83 84/84/84 85/85/85 86/86/86
f 87/87/87 88/88/88 89/89/89 90/90/90
f 91/91/91 92/92/92 93/93/93 94/94/94
g polygon6
usemtl h_kage_lm1
v -40 1.794922 8
v 40 1.794922 8.25
v -32 1.794922 -4
v 32 1.794922 -4.25
v -32 1.794922 -28
v 32 1.794922 -28
vn 0 0.9980469 0
vn 0 0.9980469 0
vn 0 0.9980469 0
vn 0 0.9980469 0
vn 0 0.9980469 0
vn 0 0.9980469 0
vt 0.625 -0.125
vt 0.625 -0.125
vt 0.625 -0.875
vt 0.625 -0.875
vt 0.625 -0.875
vt 0.625 -0.875
f 95/95/95 96/96/96 97/97/97
f 96/96/96 98/98/98 97/97/97
f 97/97/97 98/98/98 99/99/99
f 98/98/98 100/100/100 99/99/99
v 40 1.794922 -36
v -40 1.794922 -36
v 32 1.794922 -28
v -32.33008 1.794922 -28.33008
v -32 1.794922 -28
v -32 1.794922 -4
vn 0 0.9980469 0
vn 0 0.9980469 0
vn 0 0.9980469 0
vn 0 0.9980469 0
vn 0 0.9980469 0
vn 0 0.9980469 0
vt 0.625 -0.125
vt 0.625 -0.125
vt 0.625 -0.875
vt 0.625 -0.84375
vt 0.625 -0.875
vt 0.625 -0.875
f 101/101/101 102/102/102 103/103/103
f 102/102/102 104/104/104 103/103/103
f 103/103/103 104/104/104 105/105/105
f 104/104/104 106/106/106 105/105/105
v -32 1.794922 -4
v -32.33008 1.794922 -28.33008
v -40 1.794922 8
v -40 1.794922 -36
vn 0 0.9980469 0
vn 0 0.9980469 0
vn 0 0.9980469 0
vn 0 0.9980469 0
vt 0.625 -0.875
vt 0.625 -0.84375
vt 0.625 -0.125
vt 0.625 -0.125
f 107/107/107 108/108/108 109/109/109
f 108/108/108 110/110/110 109/109/109
v 32 1.794922 -4.25
v 40 1.794922 8.25
v 40 1.794922 -36
v 32 1.794922 -28
vn 0 0.9980469 0
vn 0 0.9980469 0
vn 0 0.9980469 0
vn 0 0.9980469 0
vt 0.625 -0.875
vt 0.625 -0.125
vt 0.625 -0.125
vt 0.625 -0.875
f 111/111/111 112/112/112 113/113/113 114/114/114
g polygon7
usemtl c2cy_lm1
v -2 31 -8
v 0 31 7
v 0 36 7
v -2 36 -8
v 32 31 7
v 34 31 -8
v 34 36 -8
v 32 36 7
v 0 36 7
v 32 36 7
v 34 36 -8
v -2 36 -8
v 0 31 7
v 32 31 7
v 32 36 7
v 0 36 7
v 35 46 -27
v -36 46 -27
v -36 42 -2.25
v 35 42 -2.25
v -36 42 -2.25
v -34 37 2.25
v 33 37 2.25
v 35 42 -2.25
v 36 44.00977 -31
v 36 43.99023 -25
v 36 34 -25
v 36 34 -31
v -37 44.00977 -31
v -37 43.99023 -25
v -37 47.99023 -25
v -37 48.00977 -31
v 36 44.00977 -31
v -37 44.00977 -31
v -37 48.00977 -31
v 36 48.00977 -31
v 36 43.99023 -25
v 36 44.00977 -31
v 36 48.00977 -31
v 36 47.99023 -25
v -37 43.99023 -25
v 36 43.99023 -25
v 36 47.99023 -25
v -37 47.99023 -25
v -37 43.99023 -25
v -37 34 -25
v -37 34 -4
v -37 38 -4
v -37 47.99023 -25
v 36 47.99023 -25
v 36 48.00977 -31
v -37 48.00977 -31
v -37 34 -31
v -37 34 -25
v -37 43.99023 -25
v -37 44.00977 -31
v 36 34 -25
v 36 43.99023 -25
v 36 38 -4
v 36 34 -4
v -37 44.00977 -31
v 36 44.00977 -31
v 36 34 -31
v -37 34 -31
v -37 38 -4
v 36 38 -4
v 36 43.99023 -25
v -37 43.99023 -25
v -37 34 -4
v 36 34 -4
v 36 38 -4
v -37 38 -4
v 4 3 -9
v 28 3 -9
v 28 3 -21
v 4 3 -21
v 4 35 -21
v 4 1 -21
v 28 1 -21
v 28 35 -21
vn -0.9921875 0 0.1328125
vn -0.9921875 0 0.1328125
vn -0.9921875 0 0.1328125
vn -0.9921875 0 0.1328125
vn 0.9921875 0 0.1328125
vn 0.9921875 0 0.1328125
vn 0.9921875 0 0.1328125
vn 0.9921875 0 0.1328125
vn 0 0.9980469 0
vn 0 0.9980469 0
vn 0 0.9980469 0
vn 0 0.9980469 0
vn 0 0 0.9980469
vn 0 0 0.9980469
vn 0 0 0.9980469
vn 0 0 0.9980469
vn 0 0.9863281 0.1601563
vn 0 0.9863281 0.1601563
vn 0 0.9863281 0.1601563
vn 0 0.9863281 0.1601563
vn 0 0.6699219 0.7441406
vn 0 0.6699219 0.7441406
vn 0 0.6699219 0.7441406
vn 0 0.6699219 0.7441406
vn 0.9980469 0 0
vn 0.9980469 0 0
vn 0.9980469 0 0
vn 0.9980469 0 0
vn -1 0 0
vn -1 0 0
vn -1 0 0
vn -1 0 0
vn 0 0 -1
vn 0 0 -1
vn 0 0 -1
vn 0 0 -1
vn 0.9980469 0 0
vn 0.9980469 0 0
vn 0.9980469 0 0
vn 0.9980469 0 0
vn 0 0 0.9980469
vn 0 0 0.9980469
vn 0 0 0.9980469
vn 0 0 0.9980469
vn -1 0 0
vn -1 0 0
vn -1 0 0
vn -1 0 0
vn 0 0.9980469 0
vn 0 0.9980469 0
vn 0 0.9980469 0
vn 0 0.9980469 0
vn -1 0 0
vn -1 0 0
vn -1 0 0
vn -1 0 0
vn 0.9980469 0 0
vn 0.9980469 0 0
vn 0.9980469 0 0
vn 0.9980469 0 0
vn 0 0 -1
vn 0 0 -1
vn 0 0 -1
vn 0 0 -1
vn 0 0.9609375 0.2734375
vn 0 0.9609375 0.2734375
vn 0 0.9609375 0.2734375
vn 0 0.9609375 0.2734375
vn 0 0 0.9980469
vn 0 0 0.9980469
vn 0 0 0.9980469
vn 0 0 0.9980469
vn 0 0.9980469 0
vn 0 0.9980469 0
vn 0 0.9980469 0
vn 0 0.9980469 0
vn 0 0 0.9980469
vn 0 0 0.9980469
vn 0 0 0.9980469
vn 0 0 0.9980469
vt 0.4179688 -0.5791016
vt 0.40625 -0.5791016
vt 0.40625 -0.5009766
vt 0.4179688 -0.5009766
vt 0.4179688 -0.5791016
vt 0.40625 -0.5791016
vt 0.40625 -0.5009766
vt 0.4179688 -0.5009766
vt 0.234375 -0.3125
vt 0.3828125 -0.3125
vt 0.3828125 -0.03613281
vt 0.234375 -0.03613281
vt 0.4179688 -0.5791016
vt 0.40625 -0.5791016
vt 0.40625 -0.5009766
vt 0.4179688 -0.5009766
vt -0.5 -0.8339844
vt 0.1875 -0.8339844
vt 0.1875 -0.01171875
vt -0.5 -0.01171875
vt 0.09765625 -0.9951172
vt 0.09765625 -0.9433594
vt 0.08203125 -0.9433594
vt 0.078125 -0.9951172
vt 0.359375 -0.5878906
vt 0.359375 -0.5488281
vt 0.4179688 -0.5429688
vt 0.4179688 -0.5908203
vt 0.4179688 -0.5791016
vt 0.40625 -0.5791016
vt 0.40625 -0.5009766
vt 0.4179688 -0.5009766
vt 0.4179688 -0.5791016
vt 0.40625 -0.5791016
vt 0.40625 -0.5009766
vt 0.4179688 -0.5009766
vt 0.4179688 -0.5791016
vt 0.40625 -0.5791016
vt 0.40625 -0.5009766
vt 0.4179688 -0.5009766
vt 0.234375 -0.5703125
vt 0.4882813 -0.5703125
vt 0.4882813 -0.5078125
vt 0.234375 -0.5078125
vt 0.375 -0.5136719
vt 0.375 -0.5283203
vt 0.4492188 -0.5205078
vt 0.453125 -0.5136719
vt 0.2382813 -0.5009766
vt 0.3242188 -0.5009766
vt 0.3242188 -0.4179688
vt 0.2382813 -0.4179688
vt 0.4179688 -0.5791016
vt 0.40625 -0.5791016
vt 0.40625 -0.5390625
vt 0.4179688 -0.5390625
vt 0.375 -0.5615234
vt 0.375 -0.5263672
vt 0.453125 -0.5263672
vt 0.453125 -0.5380859
vt 0.4179688 -0.5791016
vt 0.40625 -0.5791016
vt 0.40625 -0.5390625
vt 0.4179688 -0.5390625
vt 0.234375 -0.3173828
vt 0.3828125 -0.3173828
vt 0.3828125 -0.04003906
vt 0.234375 -0.04003906
vt 0.4179688 -0.5791016
vt 0.40625 -0.5791016
vt 0.40625 -0.5009766
vt 0.4179688 -0.5009766
vt 0.3125 -0.546875
vt 0.3125 -0.546875
vt 0.3125 -0.546875
vt 0.3125 -0.546875
vt 0.3125 -0.546875
vt 0.3125 -0.546875
vt 0.3125 -0.546875
vt 0.3125 -0.546875
f 115/115/115 116/116/116 117/117/117 118/118/118
f 119/119/119 120/120/120 121/121/121 122/122/122
f 123/123/123 124/124/124 125/125/125 126/126/126
f 127/127/127 128/128/128 129/129/129 130/130/130
f 131/131/131 132/132/132 133/133/133 134/134/134
f 135/135/135 136/136/136 137/137/137 138/138/138
f 139/139/139 140/140/140 141/141/141 142/142/142
f 143/143/143 144/144/144 145/145/145 146/146/146
f 147/147/147 148/148/148 149/149/149 150/150/150
f 151/151/151 152/152/152 153/153/153 154/154/154
f 155/155/155 156/156/156 157/157/157 158/158/158
f 159/159/159 160/160/160 161/161/161 162/162/162
f 163/163/163 164/164/164 165/165/165 166/166/166
f 167/167/167 168/168/168 169/169/169 170/170/170
f 171/171/171 172/172/172 173/173/173 174/174/174
f 175/175/175 176/176/176 177/177/177 178/178/178
f 179/179/179 180/180/180 181/181/181 182/182/182
f 183/183/183 184/184/184 185/185/185 186/186/186
f 187/187/187 188/188/188 189/189/189 190/190/190
f 191/191/191 192/192/192 193/193/193 194/194/194
g polygon8
usemtl c3_gaito_lm2
v 45.41602 39.46289 -29.7207
v 45.41602 39.46289 -26.5918
v 46.11719 39.23242 -25.88867
v 46.11719 39.23242 -30.42383
v 45.41602 39.46289 -26.5918
v 42.29688 39.46289 -26.5918
v 41.5957 39.23242 -25.88867
v 46.11719 39.23242 -25.88867
v 42.29688 39.46289 -26.5918
v 42.29688 39.46289 -29.7207
v 41.5957 39.23242 -30.42383
v 41.5957 39.23242 -25.88867
v 42.29688 39.46289 -29.7207
v 45.41602 39.46289 -29.7207
v 46.11719 39.23242 -30.42383
v 41.5957 39.23242 -30.42383
v 46.68164 38.12305 -25.32227
v 46.68164 38.12305 -30.99023
v 46.11719 39.23242 -30.42383
v 46.11719 39.23242 -25.88867
v 41.03125 38.12305 -25.32227
v 46.68164 38.12305 -25.32227
v 46.11719 39.23242 -25.88867
v 41.5957 39.23242 -25.88867
v 41.03125 38.12305 -30.99023
v 41.03125 38.12305 -25.32227
v 41.5957 39.23242 -25.88867
v 41.5957 39.23242 -30.42383
v 46.43164 33.98047 -30.74023
v 46.43164 33.98047 -25.57422
v 47.44727 33.58984 -24.55469
v 47.44727 33.58984 -31.75781
v 46.43164 33.98047 -25.57422
v 41.28125 33.98047 -25.57422
v 40.26563 33.58984 -24.55469
v 47.44727 33.58984 -24.55469
v 41.28125 33.98047 -25.57422
v 41.28125 33.98047 -30.74023
v 40.26563 33.58984 -31.75781
v 40.26563 33.58984 -24.55469
v 41.28125 33.98047 -30.74023
v 46.43164 33.98047 -30.74023
v 47.44727 33.58984 -31.75781
v 40.26563 33.58984 -31.75781
v 45.82227 31.97852 -26.41211
v 45.82227 31.96094 -29.90039
v 47.44727 33.58984 -31.75781
v 47.44727 33.58984 -24.55469
v 41.89063 31.97852 -26.41211
v 45.82227 31.97852 -26.41211
v 47.44727 33.58984 -24.55469
v 40.26563 33.58984 -24.55469
v 41.89063 32 -29.64063
v 41.89063 31.97852 -26.41211
v 40.26563 33.58984 -24.55469
v 40.26563 33.58984 -31.75781
vn 0.359375 0.9335938 0
vn 0.359375 0.9335938 0
vn 0.359375 0.9335938 0
vn 0.359375 0.9335938 0
vn 0 0.9609375 0.2734375
vn 0 0.9609375 0.2734375
vn 0 0.9609375 0.2734375
vn 0 0.9609375 0.2734375
vn -0.359375 0.9335938 0
vn -0.359375 0.9335938 0
vn -0.359375 0.9335938 0
vn -0.359375 0.9335938 0
vn 0 0.9335938 -0.3574219
vn 0 0.9335938 -0.3574219
vn 0 0.9335938 -0.3574219
vn 0 0.9335938 -0.3574219
vn 0.890625 0.453125 0
vn 0.890625 0.453125 0
vn 0.890625 0.453125 0
vn 0.890625 0.453125 0
vn 0 0.5 0.8652344
vn 0 0.5 0.8652344
vn 0 0.5 0.8652344
vn 0 0.5 0.8652344
vn -0.890625 0.453125 0
vn -0.890625 0.453125 0
vn -0.890625 0.453125 0
vn -0.890625 0.453125 0
vn 0 0 0.9980469
vn 0 0 0.9980469
vn 0.359375 0.9335938 0
vn 0.359375 0.9335938 0
vn 0 0 0.9980469
vn 0 0 0.9980469
vn 0 0.9335938 0.3574219
vn 0 0.9335938 0.3574219
vn 0 0 0.9980469
vn 0 0 0.9980469
vn -0.359375 0.9335938 0
vn -0.359375 0.9335938 0
vn 0 0 0.9980469
vn 0 0 0.9980469
vn 0 0.9335938 -0.3574219
vn 0 0.9335938 -0.3574219
vn 0.7050781 -0.7089844 0.001953125
vn 0.7050781 -0.7089844 0.001953125
vn 0.7050781 -0.7089844 0.001953125
vn 0.7050781 -0.7089844 0.001953125
vn 0 -0.7558594 0.65625
vn 0 -0.7558594 0.65625
vn 0 -0.7558594 0.65625
vn 0 -0.7558594 0.65625
vn -0.7011719 -0.7128906 -0.001953125
vn -0.7011719 -0.7128906 -0.001953125
vn -0.7011719 -0.7128906 -0.001953125
vn -0.7011719 -0.7128906 -0.001953125
vt 1.125 0.375
vt 1.125 0.375
vt 1.125 0.375
vt 1.125 0.375
vt 1.125 0.375
vt 1.125 0.375
vt 1.125 0.375
vt 1.125 0.375
vt 1.125 0.375
vt 1.125 0.375
vt 1.125 0.375
vt 1.125 0.375
vt 1.125 0.375
vt 1.125 0.375
vt 1.125 0.375
vt 1.125 0.375
vt 1.125 0.375
vt 1.125 0.375
vt 1.125 0.375
vt 1.125 0.375
vt 1.125 0.375
vt 1.125 0.375
vt 1.125 0.375
vt 1.125 0.375
vt 1.125 0.375
vt 1.125 0.375
vt 1.125 0.375
vt 1.125 0.375
vt 1.125 0.375
vt 1.125 0.375
vt 1.125 0.375
vt 1.125 0.375
vt 1.125 0.375
vt 1.125 0.375
vt 1.125 0.375
vt 1.125 0.375
vt 1.125 0.375
vt 1.125 0.375
vt 1.125 0.375
vt 1.125 0.375
vt 1.125 0.375
vt 1.125 0.375
vt 1.125 0.375
vt 1.125 0.375
vt 1.125 0.375
vt 1.125 0.375
vt 1.125 0.375
vt 1.125 0.375
vt 1.125 0.375
vt 1.125 0.375
vt 1.125 0.375
vt 1.125 0.375
vt 1.125 0.375
vt 1.125 0.375
vt 1.125 0.375
vt 1.125 0.375
f 195/195/195 196/196/196 197/197/197 198/198/198
f 199/199/199 200/200/200 201/201/201 202/202/202
f 203/203/203 204/204/204 205/205/205 206/206/206
f 207/207/207 208/208/208 209/209/209 210/210/210
f 211/211/211 212/212/212 213/213/213 214/214/214
f 215/215/215 216/216/216 217/217/217 218/218/218
f 219/219/219 220/220/220 221/221/221 222/222/222
f 223/223/223 224/224/224 225/225/225 226/226/226
f 227/227/227 228/228/228 229/229/229 230/230/230
f 231/231/231 232/232/232 233/233/233 234/234/234
f 235/235/235 236/236/236 237/237/237 238/238/238
f 239/239/239 240/240/240 241/241/241 242/242/242
f 243/243/243 244/244/244 245/245/245 246/246/246
f 247/247/247 248/248/248 249/249/249 250/250/250
v 45.41602 39.46289 -26.5918
v 45.41602 39.46289 -29.7207
v 43.85547 42.20117 -28.15625
v 42.29688 39.46289 -26.5918
v 45.41602 39.46289 -26.5918
v 43.85547 42.20117 -28.15625
v 42.29688 39.46289 -29.7207
v 42.29688 39.46289 -26.5918
v 43.85547 42.20117 -28.15625
v 45.41602 39.46289 -29.7207
v 42.29688 39.46289 -29.7207
v 43.85547 42.20117 -28.15625
v 43.7207 30.64648 -24.27734
v 45.82227 31.96094 -29.90039
v 45.82227 31.97852 -26.41211
v 43.7207 30.64648 -24.27734
v 45.82227 31.97852 -26.41211
v 41.89063 31.97852 -26.41211
v 43.7207 30.64648 -24.27734
v 41.89063 31.97852 -26.41211
v 41.89063 32 -29.64063
vn 0.890625 0.453125 0
vn 0.890625 0.453125 0
vn 0.890625 0.453125 0
vn 0 0.5 0.8652344
vn 0 0.5 0.8652344
vn 0 0.5 0.8652344
vn -0.890625 0.453125 0
vn -0.890625 0.453125 0
vn -0.890625 0.453125 0
vn 0 0.4960938 -0.8691406
vn 0 0.4960938 -0.8691406
vn 0 0.4960938 -0.8691406
vn 0.5371094 -0.84375 0.00390625
vn 0.5371094 -0.84375 0.00390625
vn 0.5371094 -0.84375 0.00390625
vn 0 0.8476563 0.5292969
vn 0 0.8476563 0.5292969
vn 0 0.8476563 0.5292969
vn -0.5839844 -0.8125 -0.005859375
vn -0.5839844 -0.8125 -0.005859375
vn -0.5839844 -0.8125 -0.005859375
vt 1.125 0.375
vt 1.125 0.375
vt 1.125 0.375
vt 1.125 0.375
vt 1.125 0.375
vt 1.125 0.375
vt 1.125 0.375
vt 1.125 0.375
vt 1.125 0.375
vt 1.125 0.375
vt 1.125 0.375
vt 1.125 0.375
vt 1.125 0.375
vt 1.125 0.375
vt 1.125 0.375
vt 1.125 0.375
vt 1.125 0.375
vt 1.125 0.375
vt 1.125 0.375
vt 1.125 0.375
vt 1.125 0.375
f 251/251/251 252/252/252 253/253/253
f 254/254/254 255/255/255 256/256/256
f 257/257/257 258/258/258 259/259/259
f 260/260/260 261/261/261 262/262/262
f 263/263/263 264/264/264 265/265/265
f 266/266/266 267/267/267 268/268/268
f 269/269/269 270/270/270 271/271/271
g polygon9
usemtl cafe_lm1
v -36 35 -5
v -36 29.85156 -5.013672
v 4 35 -5
v -1.333984 29.86719 -5
v 4 1 -5
v -1.333984 5.115234 -5
v -36 1 -5
v -36 5.083984 -5
vn 0 0 0.9980469
vn 0 0 0.9980469
vn 0 0 0.9980469
vn 0 0 0.9980469
vn 0 0 0.9980469
vn 0 0 0.9980469
vn 0 0 0.9980469
vn 0 0 0.9980469
vt 0.9755859 -0.03125
vt 0.9775391 -0.1875
vt 0.9931641 -0.03125
vt 0.9902344 -0.1875
vt 0.9931641 -1
vt 0.9902344 -0.875
vt 0.9755859 -1
vt 0.9775391 -0.875
f 272/272/272 273/273/273 274/274/274
f 273/273/273 275/275/275 274/274/274
f 274/274/274 275/275/275 276/276/276
f 275/275/275 277/277/277 276/276/276
f 276/276/276 277/277/277 278/278/278
f 277/277/277 279/279/279 278/278/278
v 28 1 -5
v 28 35 -5
v 28 1 -9
v 28 35 -9
v 28 1 -21
v 28 35 -21
vn -1 0 0
vn -1 0 0
vn -1 0 0
vn -1 0 0
vn -1 0 0
vn -1 0 0
vt 0.9570313 -0.9980469
vt 0.9570313 -0.03125
vt 0.9716797 -0.9980469
vt 0.9716797 -0.03125
vt 0.9873047 -0.9980469
vt 0.9873047 -0.03125
f 280/280/280 281/281/281 282/282/282
f 281/281/281 283/283/283 282/282/282
f 282/282/282 283/283/283 284/284/284
f 283/283/283 285/285/285 284/284/284
v 4 35 -5
v 4 1 -5
v 4 35 -9
v 4 1 -9
v 4 35 -21
v 4 1 -21
vn 0.9980469 0 0
vn 0.9980469 0 0
vn 0.9980469 0 0
vn 0.9980469 0 0
vn 0.9980469 0 0
vn 0.9980469 0 0
vt 0.9570313 -0.03125
vt 0.9570313 -0.9980469
vt 0.9716797 -0.03125
vt 0.9716797 -0.9980469
vt 0.9873047 -0.03125
vt 0.9873047 -0.9980469
f 286/286/286 287/287/287 288/288/288
f 287/287/287 289/289/289 288/288/288
f 288/288/288 289/289/289 290/290/290
f 289/289/289 291/291/291 290/290/290
v -34 5.083984 -27.09375
v -34 29.85742 -27.09375
v -36 5.083984 -27.09375
v -36 29.85742 -27.09375
v -36 1 -30
v -36 38 -30
vn -0.7070313 0 0.7070313
vn -0.7070313 0 0.7070313
vn -0.8945313 0 0.4472656
vn -0.8945313 0 0.4472656
vn -1 0 0
vn -1 0 0
vt 1.988281 -0.8867188
vt 1.988281 -0.2226563
vt 1.988281 -0.8867188
vt 1.988281 -0.2226563
vt 1.988281 -0.9941406
vt 1.988281 -0.005859375
f 292/292/292 293/293/293 294/294/294
f 293/293/293 295/295/295 294/294/294
f 294/294/294 295/295/295 296/296/296
f 295/295/295 297/297/297 296/296/296
v 35 35 -5
v 35 38 -5
v 28 35 -5
v 28 38 -5
v 4 35 -5
v 4 38 -5
vn 0 0 0.9980469
vn 0 0 0.9980469
vn 0 0 0.9980469
vn 0 0 0.9980469
vn 0 0 0.9980469
vn 0 0 0.9980469
vt 1 -0.08789063
vt 1 0
vt 0.8330078 -0.08789063
vt 0.8330078 0
vt 0.7177734 -0.08789063
vt 0.7177734 0
f 298/298/298 299/299/299 300/300/300
f 299/299/299 301/301/301 300/300/300
f 300/300/300 301/301/301 302/302/302
f 301/301/301 303/303/303 302/302/302
v -36 29.85156 -5.013672
v -36 29.85742 -27.09375
v -34 29.85742 -27.09375
v -34.0332 29.85156 -7.013672
v -36 5.083984 -27.09375
v -36 5.083984 -5
v -34.0332 5.083984 -7.013672
v -34 5.083984 -27.09375
v 34.79297 39.70313 -28
v 45 39.70313 -28
v 45 47 -28
v 34.79297 47 -28
v -1.333984 29.86719 -5
v -36 29.85156 -5.013672
v -34.0332 29.85156 -7.013672
v -1.333984 29.86719 -7
v -1.333984 5.115234 -5
v -1.333984 29.86719 -5
v -1.333984 29.86719 -7
v -1.333984 5.115234 -7
v -36 5.083984 -5
v -1.333984 5.115234 -5
v -1.333984 5.115234 -7
v -34.0332 5.083984 -7.013672
v -36 35 -5
v -36 38 -30
v -36 29.85742 -27.09375
v -36 29.85156 -5.013672
v -36 1 -30
v -36 1 -5
v -36 5.083984 -5
v -36 5.083984 -27.09375
v 28 1 0
v 28 1 2
v 28 33 2
v 28 33 0
v 32 1 2
v 32 1 0
v 32 33 0
v 32 33 2
v 28 1 2
v 32 1 2
v 32 33 2
v 28 33 2
v 0 1 0
v 0 1 2
v 0 33 2
v 0 33 0
v 4 1 2
v 4 1 0
v 4 33 0
v 4 33 2
v 0 1 2
v 4 1 2
v 4 33 2
v 0 33 2
v -34 29.85742 -27.09375
v -34 5.083984 -27.09375
v -34.0332 5.083984 -7.013672
v -34.0332 29.85156 -7.013672
v 35 35 -5
v 35 1 -5
v 35 1 -30
v 35 35.01953 -30
v 28 35 -5
v 28 1 -5
v 35 1 -5
v 35 35 -5
v -36 35 -5
v 4 35 -5
v 4 38 -5
v -36 38 -5
v -34.0332 5.083984 -7.013672
v -1.333984 5.115234 -7
v -1.333984 29.86719 -7
v -34.0332 29.85156 -7.013672
vn 0 -1 0
vn 0 -1 0
vn 0 -1 0
vn 0 -1 0
vn 0 0.9980469 0
vn 0 0.9980469 0
vn 0 0.9980469 0
vn 0 0.9980469 0
vn 0 0 0.9980469
vn 0 0 0.9980469
vn 0 0 0.9980469
vn 0 0 0.9980469
vn 0 -1 0
vn 0 -1 0
vn 0 -1 0
vn 0 -1 0
vn -1 0 0
vn -1 0 0
vn -1 0 0
vn -1 0 0
vn 0 0.9980469 0
vn 0 0.9980469 0
vn 0 0.9980469 0
vn 0 0.9980469 0
vn -1 0 0
vn -1 0 0
vn -0.8945313 0 0.4472656
vn -1 0 0
vn -1 0 0
vn -1 0 0
vn -1 0 0
vn -0.8945313 0 0.4472656
vn -1 0 0
vn -1 0 0
vn -1 0 0
vn -1 0 0
vn 0.9980469 0 0
vn 0.9980469 0 0
vn 0.9980469 0 0
vn 0.9980469 0 0
vn 0 0 0.9980469
vn 0 0 0.9980469
vn 0 0 0.9980469
vn 0 0 0.9980469
vn -1 0 0
vn -1 0 0
vn -1 0 0
vn -1 0 0
vn 0.9980469 0 0
vn 0.9980469 0 0
vn 0.9980469 0 0
vn 0.9980469 0 0
vn 0 0 0.9980469
vn 0 0 0.9980469
vn 0 0 0.9980469
vn 0 0 0.9980469
vn -0.7070313 0 0.7070313
vn -0.7070313 0 0.7070313
vn -1 0 0
vn -1 0 0
vn 0.9980469 0 0
vn 0.9980469 0 0
vn 0.9980469 0 0
vn 0.9980469 0 0
vn 0 0 0.9980469
vn 0 0 0.9980469
vn 0 0 0.9980469
vn 0 0 0.9980469
vn 0 0 0.9980469
vn 0 0 0.9980469
vn 0 0 0.9980469
vn 0 0 0.9980469
vn 0 0 0.9980469
vn 0 0 0.9980469
vn 0 0 0.9980469
vn 0 0 0.9980469
vt 1.988281 -0.2226563
vt 1.988281 -0.2226563
vt 1.988281 -0.2226563
vt 1.988281 -0.2226563
vt 1.988281 -0.8867188
vt 1.988281 -0.8847656
vt 1.988281 -0.8847656
vt 1.988281 -0.8867188
vt 0.1972656 -0.2792969
vt 0.0009765625 -0.2792969
vt 0.0009765625 0
vt 0.1972656 0
vt 0.703125 -0.859375
vt 0.703125 -0.859375
vt 0.703125 -0.859375
vt 0.703125 -0.859375
vt 1.988281 -0.8867188
vt 1.988281 -0.1835938
vt 1.988281 -0.1835938
vt 1.988281 -0.8867188
vt 1.988281 -0.8867188
vt 1.988281 -0.8847656
vt 1.988281 -0.8847656
vt 1.988281 -0.8867188
vt 1.988281 -0.0859375
vt 1.988281 -0.005859375
vt 1.988281 -0.2226563
vt 1.988281 -0.2226563
vt 1.988281 -0.9941406
vt 1.988281 -0.9941406
vt 1.988281 -0.8847656
vt 1.988281 -0.8867188
vt 0.2226563 -0.5214844
vt 0.2304688 -0.5214844
vt 0.2304688 -0.01171875
vt 0.2226563 -0.01171875
vt 0.2226563 -0.5214844
vt 0.2304688 -0.5214844
vt 0.2304688 -0.01171875
vt 0.2226563 -0.01171875
vt 0.2265625 -0.5234375
vt 0.2060547 -0.5234375
vt 0.2060547 -0.0078125
vt 0.2265625 -0.0078125
vt 0.2226563 -0.5214844
vt 0.2304688 -0.5214844
vt 0.2304688 -0.01171875
vt 0.2226563 -0.01171875
vt 0.2226563 -0.5214844
vt 0.2304688 -0.5214844
vt 0.2304688 -0.01171875
vt 0.2226563 -0.01171875
vt 0.2060547 -0.5234375
vt 0.2265625 -0.5234375
vt 0.2265625 -0.0078125
vt 0.2060547 -0.0078125
vt 0.453125 -0.2226563
vt 0.453125 -0.84375
vt 0.7919922 -0.84375
vt 0.7919922 -0.2226563
vt 0.9570313 -0.03125
vt 0.9570313 -0.9980469
vt 0.9873047 -0.9980469
vt 0.9873047 -0.03125
vt 0.9570313 -0.03125
vt 0.9570313 -0.9980469
vt 0.9873047 -0.9980469
vt 0.9873047 -0.03125
vt 0.7519531 -0.2109375
vt 0.9941406 -0.2109375
vt 0.9941406 -0.1699219
vt 0.7519531 -0.1699219
vt 0.453125 -0.84375
vt 0.9306641 -0.84375
vt 0.9306641 -0.2226563
vt 0.453125 -0.2226563
f 304/304/304 305/305/305 306/306/306 307/307/307
f 308/308/308 309/309/309 310/310/310 311/311/311
f 312/312/312 313/313/313 314/314/314 315/315/315
f 316/316/316 317/317/317 318/318/318 319/319/319
f 320/320/320 321/321/321 322/322/322 323/323/323
f 324/324/324 325/325/325 326/326/326 327/327/327
f 328/328/328 329/329/329 330/330/330 331/331/331
f 332/332/332 333/333/333 334/334/334 335/335/335
f 336/336/336 337/337/337 338/338/338 339/339/339
f 340/340/340 341/341/341 342/342/342 343/343/343
f 344/344/344 345/345/345 346/346/346 347/347/347
f 348/348/348 349/349/349 350/350/350 351/351/351
f 352/352/352 353/353/353 354/354/354 355/355/355
f 356/356/356 357/357/357 358/358/358 359/359/359
f 360/360/360 361/361/361 362/362/362 363/363/363
f 364/364/364 365/365/365 366/366/366 367/367/367
f 368/368/368 369/369/369 370/370/370 371/371/371
f 372/372/372 373/373/373 374/374/374 375/375/375
f 376/376/376 377/377/377 378/378/378 379/379/379
v -36 38 -30
v -36 35 -5
v -36 38 -5
v 35 35 -5
v 35 35.01953 -30
v 35 38 -5
vn -1 0 0
vn -1 0 0
vn -1 0 0
vn 0.9980469 0 0
vn 0.9980469 0 0
vn 0.9980469 0 0
vt 0.5605469 0
vt 0.5605469 -0.08789063
vt 0.6767578 -0.04492188
vt 0.5605469 0
vt 0.5605469 -0.08789063
vt 0.6767578 -0.04492188
f 380/380/380 381/381/381 382/382/382
f 383/383/383 384/384/384 385/385/385
g polygon10
usemtl lambert8
v -23.77539 8.490234 -1.763672
v -26.34375 8.490234 -6.222656
v -25.28125 8.490234 -0.8691406
v -27.87305 8.490234 -5.367188
v -28.12891 8.490234 0.7695313
v -30.71875 8.490234 -3.728516
v -29.65625 8.490234 1.625
v -32.22461 8.490234 -2.833984
vn 0 0.9980469 0
vn 0 0.9980469 0
vn 0 0.9980469 0
vn 0 0.9980469 0
vn 0 0.9980469 0
vn 0 0.9980469 0
vn 0 0.9980469 0
vn 0 0.9980469 0
vt 0.953125 -0.1601563
vt 0.953125 -0.1601563
vt 0.953125 -0.1445313
vt 0.953125 -0.1445313
vt 0.953125 -0.1445313
vt 0.953125 -0.1445313
vt 0.953125 -0.1601563
vt 0.953125 -0.1601563
f 386/386/386 387/387/387 388/388/388
f 387/387/387 389/389/389 388/388/388
f 388/388/388 389/389/389 390/390/390
f 389/389/389 391/391/391 390/390/390
f 390/390/390 391/391/391 392/392/392
f 391/391/391 393/393/393 392/392/392
v -33.06445 6.417969 -4.291016
v -33.06641 8.490234 -4.287109
v -31.54688 6.417969 -5.164063
v -31.54688 8.490234 -5.164063
v -28.70117 6.417969 -6.804688
v -28.70117 8.490234 -6.804688
v -27.18359 6.417969 -7.677734
v -27.17969 8.490234 -7.677734
vn -0.4980469 0 -0.8671875
vn -0.4980469 0 -0.8671875
vn -0.4980469 0 -0.8671875
vn -0.4980469 0 -0.8671875
vn -0.4980469 0 -0.8671875
vn -0.4980469 0 -0.8671875
vn -0.4980469 0 -0.8671875
vn -0.4980469 0 -0.8671875
vt 0.890625 -0.8632813
vt 0.890625 -0.6796875
vt 0.890625 -0.8632813
vt 0.890625 -0.6796875
vt 0.890625 -0.8632813
vt 0.890625 -0.6796875
vt 0.890625 -0.8632813
vt 0.890625 -0.6796875
f 394/394/394 395/395/395 396/396/396
f 395/395/395 397/397/397 396/396/396
f 396/396/396 397/397/397 398/398/398
f 397/397/397 399/399/399 398/398/398
f 398/398/398 399/399/399 400/400/400
f 399/399/399 401/401/401 400/400/400
v -33.06641 8.490234 -4.287109
v -32.22461 8.490234 -2.833984
v -31.54688 8.490234 -5.164063
v -30.71875 8.490234 -3.728516
v -28.70117 8.490234 -6.804688
v -27.87305 8.490234 -5.367188
v -27.17969 8.490234 -7.677734
v -26.34375 8.490234 -6.222656
vn 0 0.9980469 0
vn 0 0.9980469 0
vn 0 0.9980469 0
vn 0 0.9980469 0
vn 0 0.9980469 0
vn 0 0.9980469 0
vn 0 0.9980469 0
vn 0 0.9980469 0
vt 0.890625 -0.4921875
vt 0.890625 -0.8632813
vt 0.890625 -0.4921875
vt 0.890625 -0.8632813
vt 0.890625 -0.4921875
vt 0.890625 -0.8632813
vt 0.890625 -0.4921875
vt 0.890625 -0.8632813
f 402/402/402 403/403/403 404/404/404
f 403/403/403 405/405/405 404/404/404
f 404/404/404 405/405/405 406/406/406
f 405/405/405 407/407/407 406/406/406
f 406/406/406 407/407/407 408/408/408
f 407/407/407 409/409/409 408/408/408
v -28.82227 8.490234 3.082031
v -28.81836 6.417969 3.080078
v -27.30078 8.490234 2.207031
v -27.30078 6.417969 2.207031
v -24.45508 8.490234 0.5664063
v -24.45508 6.417969 0.5664063
v -22.93555 8.490234 -0.3105469
v -22.9375 6.417969 -0.3066406
vn 0.5 0 0.8671875
vn 0.5 0 0.8671875
vn 0.5 0 0.8671875
vn 0.5 0 0.8671875
vn 0.5 0 0.8671875
vn 0.5 0 0.8671875
vn 0.5 0 0.8671875
vn 0.5 0 0.8671875
vt 0.890625 -0.6796875
vt 0.890625 -0.8632813
vt 0.890625 -0.6796875
vt 0.890625 -0.8632813
vt 0.890625 -0.6796875
vt 0.890625 -0.8632813
vt 0.890625 -0.6796875
vt 0.890625 -0.8632813
f 410/410/410 411/411/411 412/412/412
f 411/411/411 413/413/413 412/412/412
f 412/412/412 413/413/413 414/414/414
f 413/413/413 415/415/415 414/414/414
f 414/414/414 415/415/415 416/416/416
f 415/415/415 417/417/417 416/416/416
v -29.65625 8.490234 1.625
v -28.82227 8.490234 3.082031
v -28.12891 8.490234 0.7695313
v -27.30078 8.490234 2.207031
v -25.28125 8.490234 -0.8691406
v -24.45508 8.490234 0.5664063
v -23.77539 8.490234 -1.763672
v -22.93555 8.490234 -0.3105469
vn 0 0.9980469 0
vn 0 0.9980469 0
vn 0 0.9980469 0
vn 0 0.9980469 0
vn 0 0.9980469 0
vn 0 0.9980469 0
vn 0 0.9980469 0
vn 0 0.9980469 0
vt 0.890625 -0.8632813
vt 0.890625 -0.4921875
vt 0.890625 -0.8632813
vt 0.890625 -0.4921875
vt 0.890625 -0.8632813
vt 0.890625 -0.4921875
vt 0.890625 -0.8632813
vt 0.890625 -0.4921875
f 418/418/418 419/419/419 420/420/420
f 419/419/419 421/421/421 420/420/420
f 420/420/420 421/421/421 422/422/422
f 421/421/421 423/423/423 422/422/422
f 422/422/422 423/423/423 424/424/424
f 423/423/423 425/425/425 424/424/424
v -30.49414 8.490234 2.488281
v -33.39258 8.490234 -2.542969
v -33.39258 6.417969 -2.542969
v -30.49414 6.417969 2.488281
v -22.60938 8.490234 -2.054688
v -25.50781 8.490234 -7.085938
v -26.34375 8.490234 -6.222656
v -23.77539 8.490234 -1.763672
v -22.60938 6.417969 -2.054688
v -25.50781 6.417969 -7.085938
v -25.50781 8.490234 -7.085938
v -22.60938 8.490234 -2.054688
v -33.39258 8.490234 -2.542969
v -33.06641 8.490234 -4.287109
v -33.06445 6.417969 -4.291016
v -33.39258 6.417969 -2.542969
v -25.50781 8.490234 -7.085938
v -25.50781 6.417969 -7.085938
v -27.18359 6.417969 -7.677734
v -27.17969 8.490234 -7.677734
v -30.49414 8.490234 2.488281
v -30.49414 6.417969 2.488281
v -28.81836 6.417969 3.080078
v -28.82227 8.490234 3.082031
v -29.65625 8.490234 1.625
v -32.22461 8.490234 -2.833984
v -33.39258 8.490234 -2.542969
v -30.49414 8.490234 2.488281
v -22.60938 8.490234 -2.054688
v -22.93555 8.490234 -0.3105469
v -22.9375 6.417969 -0.3066406
v -22.60938 6.417969 -2.054688
v -28.27539 1.212891 -6.964844
v -27.75195 1.212891 -6.056641
v -27.93945 7.054688 -5.224609
v -28.45117 7.054688 -6.111328
v -33.00781 1.212891 -3.029297
v -32.14648 7.054688 -2.800781
v -32.65625 7.054688 -3.6875
v -33.5293 1.212891 -3.9375
v -26.04688 1.212891 -7.039063
v -26.57031 1.212891 -7.947266
v -26.73828 7.054688 -7.099609
v -26.22656 7.054688 -6.210938
v -23.97656 1.212891 0.4980469
v -24.7207 7.054688 0.3632813
v -25.23242 7.054688 -0.5234375
v -24.52148 1.212891 -0.4472656
v -29.23242 1.212891 3.525391
v -27.52539 1.212891 2.542969
v -27.2207 7.054688 1.802734
v -28.92773 7.054688 2.787109
v -29.77734 1.212891 2.580078
v -29.23242 1.212891 3.525391
v -28.92773 7.054688 2.787109
v -29.43945 7.052734 1.900391
v -22.27148 1.212891 -0.484375
v -23.00977 7.054688 -0.6230469
v -24.7207 7.054688 0.3632813
v -23.97656 1.212891 0.4980469
v -22.81641 1.212891 -1.429688
v -23.51953 7.052734 -1.511719
v -23.00977 7.054688 -0.6230469
v -22.27148 1.212891 -0.484375
v -33.00781 1.212891 -3.029297
v -32.14648 7.054688 -2.800781
v -30.43945 7.054688 -3.785156
v -31.32422 1.212891 -4.050781
v -26.04688 1.212891 -7.039063
v -27.75195 1.212891 -6.056641
v -27.93945 7.054688 -5.224609
v -26.22656 7.054688 -6.210938
vn -0.8671875 0 0.5
vn -0.8671875 0 0.5
vn -0.8671875 0 0.5
vn -0.8671875 0 0.5
vn 0 0.9980469 0
vn 0 0.9980469 0
vn 0 0.9980469 0
vn 0 0.9980469 0
vn 0.8671875 0 -0.5
vn 0.8671875 0 -0.5
vn 0.8671875 0 -0.5
vn 0.8671875 0 -0.5
vn -0.9824219 0 -0.1835938
vn -0.9824219 0 -0.1835938
vn -0.9824219 0 -0.1835938
vn -0.9824219 0 -0.1835938
vn 0.3339844 0 -0.9433594
vn 0.3339844 0 -0.9433594
vn 0.3339844 0 -0.9433594
vn 0.3339844 0 -0.9433594
vn -0.3339844 0 0.9433594
vn -0.3339844 0 0.9433594
vn -0.3339844 0 0.9433594
vn -0.3339844 0 0.9433594
vn 0 0.9980469 0
vn 0 0.9980469 0
vn 0 0.9980469 0
vn 0 0.9980469 0
vn 0.9824219 0 0.1835938
vn 0.9824219 0 0.1835938
vn 0.9824219 0 0.1835938
vn 0.9824219 0 0.1835938
vn -0.8613281 -0.09765625 0.4960938
vn -0.8613281 -0.09765625 0.4960938
vn -0.8613281 -0.09765625 0.4960938
vn -0.8613281 -0.09765625 0.4960938
vn -0.8613281 0.1074219 0.4960938
vn -0.8613281 0.1074219 0.4960938
vn -0.8613281 0.1074219 0.4960938
vn -0.8613281 0.1074219 0.4960938
vn 0.8632813 0.09765625 -0.4960938
vn 0.8632813 0.09765625 -0.4960938
vn 0.8632813 0.09765625 -0.4960938
vn 0.8632813 0.09765625 -0.4960938
vn -0.8613281 -0.09765625 0.4960938
vn -0.8613281 -0.09765625 0.4960938
vn -0.8613281 -0.09765625 0.4960938
vn -0.8613281 -0.09765625 0.4960938
vn 0.4980469 0.08398438 0.8632813
vn 0.4980469 0.08398438 0.8632813
vn 0.4980469 0.08398438 0.8632813
vn 0.4980469 0.08398438 0.8632813
vn -0.8613281 0.1074219 0.4960938
vn -0.8613281 0.1074219 0.4960938
vn -0.8613281 0.1074219 0.4960938
vn -0.8613281 0.1074219 0.4960938
vn 0.4980469 0.08398438 0.8632813
vn 0.4980469 0.08398438 0.8632813
vn 0.4980469 0.08398438 0.8632813
vn 0.4980469 0.08398438 0.8632813
vn 0.8632813 0.09765625 -0.4960938
vn 0.8632813 0.09765625 -0.4960938
vn 0.8632813 0.09765625 -0.4960938
vn 0.8632813 0.09765625 -0.4960938
vn -0.4960938 0.1074219 -0.8613281
vn -0.4960938 0.1074219 -0.8613281
vn -0.4960938 0.1074219 -0.8613281
vn -0.4960938 0.1074219 -0.8613281
vn -0.4960938 0.1074219 -0.8613281
vn -0.4960938 0.1074219 -0.8613281
vn -0.4960938 0.1074219 -0.8613281
vn -0.4960938 0.1074219 -0.8613281
vt 0.890625 -0.6796875
vt 0.890625 -0.6796875
vt 0.890625 -0.8632813
vt 0.890625 -0.8632813
vt 0.890625 -0.4921875
vt 0.890625 -0.4921875
vt 0.890625 -0.8632813
vt 0.890625 -0.8632813
vt 0.890625 -0.8632813
vt 0.890625 -0.8632813
vt 0.890625 -0.6796875
vt 0.890625 -0.6796875
vt 0.890625 -0.6796875
vt 0.890625 -0.6796875
vt 0.890625 -0.8632813
vt 0.890625 -0.8632813
vt 0.890625 -0.6796875
vt 0.890625 -0.8632813
vt 0.890625 -0.8632813
vt 0.890625 -0.6796875
vt 0.890625 -0.6796875
vt 0.890625 -0.8632813
vt 0.890625 -0.8632813
vt 0.890625 -0.6796875
vt 0.890625 -0.8632813
vt 0.890625 -0.8632813
vt 0.890625 -0.4921875
vt 0.890625 -0.4921875
vt 0.890625 -0.6796875
vt 0.890625 -0.6796875
vt 0.890625 -0.8632813
vt 0.890625 -0.8632813
vt 0.890625 -0.4921875
vt 0.890625 -0.4921875
vt 0.890625 -0.8632813
vt 0.890625 -0.8632813
vt 0.890625 -0.4921875
vt 0.890625 -0.8632813
vt 0.890625 -0.8632813
vt 0.890625 -0.4921875
vt 0.890625 -0.4921875
vt 0.890625 -0.4921875
vt 0.890625 -0.8632813
vt 0.890625 -0.8632813
vt 0.890625 -0.4921875
vt 0.890625 -0.8632813
vt 0.890625 -0.8632813
vt 0.890625 -0.4921875
vt 0.890625 -0.4921875
vt 0.890625 -0.4921875
vt 0.890625 -0.8632813
vt 0.890625 -0.8632813
vt 0.890625 -0.4921875
vt 0.890625 -0.4921875
vt 0.890625 -0.8632813
vt 0.890625 -0.8632813
vt 0.890625 -0.4921875
vt 0.890625 -0.8632813
vt 0.890625 -0.8632813
vt 0.890625 -0.4921875
vt 0.890625 -0.4921875
vt 0.890625 -0.8632813
vt 0.890625 -0.8632813
vt 0.890625 -0.4921875
vt 0.890625 -0.4921875
vt 0.890625 -0.8632813
vt 0.890625 -0.8632813
vt 0.890625 -0.4921875
vt 0.890625 -0.4921875
vt 0.890625 -0.4921875
vt 0.890625 -0.8632813
vt 0.890625 -0.8632813
f 426/426/426 427/427/427 428/428/428 429/429/429
f 430/430/430 431/431/431 432/432/432 433/433/433
f 434/434/434 435/435/435 436/436/436 437/437/437
f 438/438/438 439/439/439 440/440/440 441/441/441
f 442/442/442 443/443/443 444/444/444 445/445/445
f 446/446/446 447/447/447 448/448/448 449/449/449
f 450/450/450 451/451/451 452/452/452 453/453/453
f 454/454/454 455/455/455 456/456/456 457/457/457
f 458/458/458 459/459/459 460/460/460 461/461/461
f 462/462/462 463/463/463 464/464/464 465/465/465
f 466/466/466 467/467/467 468/468/468 469/469/469
f 470/470/470 471/471/471 472/472/472 473/473/473
f 474/474/474 475/475/475 476/476/476 477/477/477
f 478/478/478 479/479/479 480/480/480 481/481/481
f 482/482/482 483/483/483 484/484/484 485/485/485
f 486/486/486 487/487/487 488/488/488 489/489/489
f 490/490/490 491/491/491 492/492/492 493/493/493
f 494/494/494 495/495/495 496/496/496 497/497/497
v -30.49414 8.490234 2.488281
v -28.82227 8.490234 3.082031
v -29.65625 8.490234 1.625
v -25.50781 8.490234 -7.085938
v -27.17969 8.490234 -7.677734
v -26.34375 8.490234 -6.222656
v -33.39258 8.490234 -2.542969
v -32.22461 8.490234 -2.833984
v -33.06641 8.490234 -4.287109
v -22.60938 8.490234 -2.054688
v -23.77539 8.490234 -1.763672
v -22.93555 8.490234 -0.3105469
vn 0 0.9980469 0
vn 0 0.9980469 0
vn 0 0.9980469 0
vn 0 0.9980469 0
vn 0 0.9980469 0
vn 0 0.9980469 0
vn 0 0.9980469 0
vn 0 0.9980469 0
vn 0 0.9980469 0
vn 0 0.9980469 0
vn 0 0.9980469 0
vn 0 0.9980469 0
vt 0.8867188 -0.4921875
vt 0.9414063 -0.4921875
vt 0.9140625 -0.8398438
vt 0.8867188 -0.4921875
vt 0.9414063 -0.4921875
vt 0.9140625 -0.8398438
vt 0.8867188 -0.4921875
vt 0.9140625 -0.8398438
vt 0.9414063 -0.4921875
vt 0.8867188 -0.4921875
vt 0.9140625 -0.8398438
vt 0.9414063 -0.4921875
f 498/498/498 499/499/499 500/500/500
f 501/501/501 502/502/502 503/503/503
f 504/504/504 505/505/505 506/506/506
f 507/507/507 508/508/508 509/509/509
g polygon11
usemtl plant
v -42.44941 12.43035 -0.9611078
v -41.21983 12.43035 -0.9611078
v -41.21983 13.68247 -1.684133
v -42.44941 13.68247 -1.684133
vn 0 0.5 0.8652344
vn 0 0.5 0.8652344
vn 0 0.5 0.8652344
vn 0 0.5 0.8652344
vt 1 -1
vt 0 -1
vt 0 0
vt 1 0
f 510/510/510 511/511/511 512/512/512 513/513/513
g polygon12
usemtl lambert9
v -42.19042 12.47003 -0.8595415
v -42.04537 12.47003 -0.7144921
v -41.8762 12.47003 -1.173445
v -41.73115 12.47003 -1.028395
v -41.56229 12.47003 -1.487666
v -41.41724 12.47003 -1.342616
vn 0 0.9980469 0
vn 0 0.9980469 0
vn 0 0.9980469 0
vn 0 0.9980469 0
vn 0 0.9980469 0
vn 0 0.9980469 0
vt 0.625 0.6523438
vt 0.625 0.6523438
vt 0.625 0.75
vt 0.625 0.75
vt 0.625 0.6523438
vt 0.625 0.6523438
f 514/514/514 515/515/515 516/516/516
f 515/515/515 517/517/517 516/516/516
f 516/516/516 517/517/517 518/518/518
f 517/517/517 519/519/519 518/518/518
v -42.04537 12.47003 -0.7144921
v -41.78352 12.47003 -0.4526414
v -41.73115 12.47003 -1.028395
v -41.15539 12.47003 -1.080766
v -41.41724 12.47003 -1.342616
vn 0 0.9980469 0
vn 0 0.9980469 0
vn 0 0.9980469 0
vn 0 0.9980469 0
vn 0 0.9980469 0
vt 0.625 0.6523438
vt 0.625 0.6523438
vt 0.625 0.75
vt 0.625 0.6523438
vt 0.625 0.6523438
f 520/520/520 521/521/521 522/522/522
f 521/521/521 523/523/523 522/522/522
f 522/522/522 523/523/523 524/524/524
v -42.19042 12.47003 -0.8595415
v -41.8762 12.47003 -1.173445
v -42.45227 12.47003 -1.121075
v -41.82383 12.47003 -1.749199
vn 0 0.9980469 0
vn 0 0.9980469 0
vn 0 0.9980469 0
vn 0 0.9980469 0
vt 0.625 0.6523438
vt 0.625 0.75
vt 0.625 0.6523438
vt 0.625 0.6523438
f 525/525/525 526/526/526 527/527/527
f 526/526/526 528/528/528 527/527/527
v -42.34213 11.87777 -1.121075
v -42.13551 11.87777 -0.9144508
v -42.19042 12.47003 -0.8595415
v -42.45227 12.47003 -1.121075
v -41.99046 11.87777 -0.7694014
v -41.78352 11.87777 -0.56246
v -41.78352 12.47003 -0.4526414
v -42.04537 12.47003 -0.7144921
v -41.78352 11.87777 -0.56246
v -41.26521 11.87777 -1.080766
v -41.15539 12.47003 -1.080766
v -41.78352 12.47003 -0.4526414
v -42.13551 11.87777 -0.9144508
v -41.99046 11.87777 -0.7694014
v -42.04537 12.47003 -0.7144921
v -42.19042 12.47003 -0.8595415
vn -0.7011719 -0.1308594 0.7011719
vn -0.7011719 -0.1308594 0.7011719
vn -0.7011719 -0.1308594 0.7011719
vn -0.7011719 -0.1308594 0.7011719
vn -0.7011719 -0.1308594 0.7011719
vn -0.7011719 -0.1308594 0.7011719
vn -0.7011719 -0.1308594 0.7011719
vn -0.7011719 -0.1308594 0.7011719
vn 0.7011719 -0.1308594 0.7011719
vn 0.7011719 -0.1308594 0.7011719
vn 0.7011719 -0.1308594 0.7011719
vn 0.7011719 -0.1308594 0.7011719
vn -0.7011719 -0.1308594 0.7011719
vn -0.7011719 -0.1308594 0.7011719
vn -0.7011719 -0.1308594 0.7011719
vn -0.7011719 -0.1308594 0.7011719
vt 1.019531 -0.00390625
vt 1.019531 -0.046875
vt 1.089844 -0.046875
vt 1.089844 -0.00390625
vt 1.019531 -0.00390625
vt 1.019531 -0.046875
vt 1.089844 -0.046875
vt 1.089844 -0.00390625
vt 1.019531 -0.00390625
vt 1.019531 -0.046875
vt 1.089844 -0.046875
vt 1.089844 -0.00390625
vt 1.019531 -0.00390625
vt 1.019531 -0.046875
vt 1.089844 -0.046875
vt 1.089844 -0.00390625
f 529/529/529 530/530/530 531/531/531 532/532/532
f 533/533/533 534/534/534 535/535/535 536/536/536
f 537/537/537 538/538/538 539/539/539 540/540/540
f 541/541/541 542/542/542 543/543/543 544/544/544
v -41.8762 12.47003 -1.173445
v -41.56229 12.47003 -1.487666
v -41.82383 12.47003 -1.749199
vn 0 0.9980469 0
vn 0 0.9980469 0
vn 0 0.9980469 0
vt 0.625 0.75
vt 0.625 0.6523438
vt 0.625 0.6523438
f 545/545/545 546/546/546 547/547/547
