# Converti depuis stump_02.dae par tools/maps/dae_to_obj.py
mtllib stump_2.mtl
v -11.0000 4.0000 -15.0352 1.0000 1.0000 1.0000
v -14.5215 4.0000 18.2158 1.0000 1.0000 1.0000
v 13.0879 4.0000 13.9307 1.0000 1.0000 1.0000
v -11.0000 4.0000 -15.0352 1.0000 1.0000 1.0000
v 13.0879 4.0000 13.9307 1.0000 1.0000 1.0000
v 8.0000 4.0000 -15.0352 1.0000 1.0000 1.0000
v 8.0000 4.0000 -15.0352 1.0000 1.0000 1.0000
v 13.0879 4.0000 13.9307 1.0000 1.0000 1.0000
v 17.5439 4.0000 1.1543 1.0000 1.0000 1.0000
v 8.0000 4.0000 -15.0352 1.0000 1.0000 1.0000
v 17.5439 4.0000 1.1543 1.0000 1.0000 1.0000
v 17.5439 4.0000 1.1543 1.0000 1.0000 1.0000
v -14.5215 4.0000 18.2158 1.0000 1.0000 1.0000
v -11.0000 4.0000 -15.0352 1.0000 1.0000 1.0000
v -20.9814 4.0000 1.1543 1.0000 1.0000 1.0000
v 0.0000 2.0000 -24.0000 1.0000 1.0000 1.0000
v -20.0000 2.0000 -18.0000 1.0000 1.0000 1.0000
v -26.0000 2.0000 0.0000 1.0000 1.0000 1.0000
v 0.0000 2.0000 -24.0000 1.0000 1.0000 1.0000
v -26.0000 2.0000 0.0000 1.0000 1.0000 1.0000
v 0.0000 2.0000 0.0000 1.0000 1.0000 1.0000
v 0.0000 2.0000 0.0000 1.0000 1.0000 1.0000
v -26.0000 2.0000 0.0000 1.0000 1.0000 1.0000
v -20.0000 2.0000 18.0000 1.0000 1.0000 1.0000
v 0.0000 2.0000 0.0000 1.0000 1.0000 1.0000
v -20.0000 2.0000 18.0000 1.0000 1.0000 1.0000
v 0.0000 2.0000 24.0000 1.0000 1.0000 1.0000
v 18.0000 2.0000 -18.0000 1.0000 1.0000 1.0000
v 18.0000 2.0000 -18.0000 1.0000 1.0000 1.0000
v 24.0000 2.0000 0.0000 1.0000 1.0000 1.0000
v 18.0000 2.0000 -18.0000 1.0000 1.0000 1.0000
v 0.0000 2.0000 0.0000 1.0000 1.0000 1.0000
v 24.0000 2.0000 0.0000 1.0000 1.0000 1.0000
v 18.0000 2.0000 18.0000 1.0000 1.0000 1.0000
v 24.0000 2.0000 0.0000 1.0000 1.0000 1.0000
v 0.0000 2.0000 0.0000 1.0000 1.0000 1.0000
v 18.0000 2.0000 18.0000 1.0000 1.0000 1.0000
v 0.0000 2.0000 0.0000 1.0000 1.0000 1.0000
v 0.0000 2.0000 24.0000 1.0000 1.0000 1.0000
v 0.0000 2.0000 -24.0000 1.0000 1.0000 1.0000
v 0.0000 2.0000 0.0000 1.0000 1.0000 1.0000
v 18.0000 2.0000 -18.0000 1.0000 1.0000 1.0000
v 13.0879 4.0000 13.9307 1.0000 1.0000 1.0000
v 11.7891 15.4248 11.1611 1.0000 1.0000 1.0000
v 13.7695 20.0020 1.0303 1.0000 1.0000 1.0000
v 13.0879 4.0000 13.9307 1.0000 1.0000 1.0000
v 13.7695 20.0020 1.0303 1.0000 1.0000 1.0000
v 17.5439 4.0000 1.1543 1.0000 1.0000 1.0000
v 17.5439 4.0000 1.1543 1.0000 1.0000 1.0000
v 13.7695 20.0020 1.0303 1.0000 1.0000 1.0000
v 12.8379 15.4248 12.1104 1.0000 1.0000 1.0000
v 17.5439 4.0000 1.1543 1.0000 1.0000 1.0000
v 12.8379 15.4248 12.1104 1.0000 1.0000 1.0000
v 14.4121 4.0000 15.1270 1.0000 1.0000 1.0000
v 8.0000 4.0000 -15.0352 1.0000 1.0000 1.0000
v 6.2793 19.9980 -11.6777 1.0000 1.0000 1.0000
v -9.2793 20.0000 -11.6777 1.0000 1.0000 1.0000
v 8.0000 4.0000 -15.0352 1.0000 1.0000 1.0000
v -9.2793 20.0000 -11.6777 1.0000 1.0000 1.0000
v -11.0000 4.0000 -15.0352 1.0000 1.0000 1.0000
v -11.0000 4.0000 -15.0352 1.0000 1.0000 1.0000
v -9.2793 20.0000 -11.6777 1.0000 1.0000 1.0000
v -17.3291 20.0000 1.0303 1.0000 1.0000 1.0000
v -11.0000 4.0000 -15.0352 1.0000 1.0000 1.0000
v -17.3291 20.0000 1.0303 1.0000 1.0000 1.0000
v -20.9814 4.0000 1.1543 1.0000 1.0000 1.0000
v -16.2998 4.0000 19.0645 1.0000 1.0000 1.0000
v -14.0127 17.8301 15.6270 1.0000 1.0000 1.0000
v -17.3291 20.0000 1.0303 1.0000 1.0000 1.0000
v -16.2998 4.0000 19.0645 1.0000 1.0000 1.0000
v -17.3291 20.0000 1.0303 1.0000 1.0000 1.0000
v -20.9814 4.0000 1.1543 1.0000 1.0000 1.0000
v -20.9814 4.0000 1.1543 1.0000 1.0000 1.0000
v -17.3291 20.0000 1.0303 1.0000 1.0000 1.0000
v -12.5645 17.8301 14.9365 1.0000 1.0000 1.0000
v -20.9814 4.0000 1.1543 1.0000 1.0000 1.0000
v -12.5645 17.8301 14.9365 1.0000 1.0000 1.0000
v -14.5215 4.0000 18.2158 1.0000 1.0000 1.0000
v 17.5439 4.0000 1.1543 1.0000 1.0000 1.0000
v 24.0000 4.0000 -2.8457 1.0000 1.0000 1.0000
v 20.0000 4.0000 -19.4844 1.0000 1.0000 1.0000
v 17.5439 4.0000 1.1543 1.0000 1.0000 1.0000
v 20.0000 4.0000 -19.4844 1.0000 1.0000 1.0000
v 8.0000 4.0000 -15.0352 1.0000 1.0000 1.0000
v 17.5439 4.0000 1.1543 1.0000 1.0000 1.0000
v 14.4121 4.0000 15.1270 1.0000 1.0000 1.0000
v 18.0000 4.0000 20.0000 1.0000 1.0000 1.0000
v 17.5439 4.0000 1.1543 1.0000 1.0000 1.0000
v 18.0000 4.0000 20.0000 1.0000 1.0000 1.0000
v 26.0000 4.0000 12.0000 1.0000 1.0000 1.0000
v 13.7695 20.0020 1.0303 1.0000 1.0000 1.0000
v 6.2793 19.9980 -11.6777 1.0000 1.0000 1.0000
v 8.0000 4.0000 -15.0352 1.0000 1.0000 1.0000
v 13.7695 20.0020 1.0303 1.0000 1.0000 1.0000
v 8.0000 4.0000 -15.0352 1.0000 1.0000 1.0000
v 17.5439 4.0000 1.1543 1.0000 1.0000 1.0000
v 13.0879 4.0000 13.9307 1.0000 1.0000 1.0000
v 14.4121 4.0000 15.1270 1.0000 1.0000 1.0000
v 12.8379 15.4248 12.1104 1.0000 1.0000 1.0000
v 13.0879 4.0000 13.9307 1.0000 1.0000 1.0000
v 12.8379 15.4248 12.1104 1.0000 1.0000 1.0000
v 11.7891 15.4248 11.1611 1.0000 1.0000 1.0000
v 8.0000 4.0000 -15.0352 1.0000 1.0000 1.0000
v 8.0000 4.0000 -22.8457 1.0000 1.0000 1.0000
v -11.0000 4.0000 -22.8457 1.0000 1.0000 1.0000
v 8.0000 4.0000 -15.0352 1.0000 1.0000 1.0000
v -11.0000 4.0000 -22.8457 1.0000 1.0000 1.0000
v -11.0000 4.0000 -15.0352 1.0000 1.0000 1.0000
v -11.0000 4.0000 -15.0352 1.0000 1.0000 1.0000
v -21.0000 4.0000 -19.9502 1.0000 1.0000 1.0000
v -28.0000 4.0000 -2.8457 1.0000 1.0000 1.0000
v -11.0000 4.0000 -15.0352 1.0000 1.0000 1.0000
v -28.0000 4.0000 -2.8457 1.0000 1.0000 1.0000
v -20.9814 4.0000 1.1543 1.0000 1.0000 1.0000
v -16.2998 4.0000 19.0645 1.0000 1.0000 1.0000
v -20.9814 4.0000 1.1543 1.0000 1.0000 1.0000
v -27.7363 4.0000 11.2920 1.0000 1.0000 1.0000
v -16.2998 4.0000 19.0645 1.0000 1.0000 1.0000
v -27.7363 4.0000 11.2920 1.0000 1.0000 1.0000
v -20.0000 4.0000 24.0000 1.0000 1.0000 1.0000
v -16.2998 4.0000 19.0645 1.0000 1.0000 1.0000
v -14.5215 4.0000 18.2158 1.0000 1.0000 1.0000
v -12.5645 17.8301 14.9365 1.0000 1.0000 1.0000
v -16.2998 4.0000 19.0645 1.0000 1.0000 1.0000
v -12.5645 17.8301 14.9365 1.0000 1.0000 1.0000
v -14.0127 17.8301 15.6270 1.0000 1.0000 1.0000
v 11.7891 15.4248 11.1611 1.0000 1.0000 1.0000
v 12.8379 15.4248 12.1104 1.0000 1.0000 1.0000
v 13.7695 20.0020 1.0303 1.0000 1.0000 1.0000
v -14.0127 17.8301 15.6270 1.0000 1.0000 1.0000
v -12.5645 17.8301 14.9365 1.0000 1.0000 1.0000
v -17.3291 20.0000 1.0303 1.0000 1.0000 1.0000
vt 0.21875 0.75000
vt 0.21875 0.00977
vt 0.78125 0.00977
vt 0.21875 0.75000
vt 0.78125 0.00977
vt 0.78125 0.75000
vt 0.78125 0.75000
vt 0.78125 0.00977
vt 0.93750 0.40430
vt 0.78125 0.75000
vt 0.93750 0.40430
vt 0.93750 0.40430
vt 0.21875 0.00977
vt 0.21875 0.75000
vt -0.01172 0.43945
vt 0.50000 0.79688
vt 0.50000 0.79688
vt 0.50000 0.79688
vt 0.50000 0.79688
vt 0.50000 0.79688
vt 0.50000 0.12500
vt 0.50000 0.12500
vt 0.50000 0.79688
vt 0.50000 0.79688
vt 0.50000 0.12500
vt 0.50000 0.79688
vt 0.50000 0.79688
vt 0.50000 0.79688
vt 0.50000 0.79688
vt 0.50000 0.79688
vt 0.50000 0.79688
vt 0.50000 0.12500
vt 0.50000 0.79688
vt 0.50000 0.79688
vt 0.50000 0.79688
vt 0.50000 0.12500
vt 0.50000 0.79688
vt 0.50000 0.12500
vt 0.50000 0.79688
vt 0.50000 0.79688
vt 0.50000 0.12500
vt 0.50000 0.79688
vt 0.00000 0.34375
vt 0.00000 0.71875
vt 1.00000 1.00000
vt 0.00000 0.34375
vt 1.00000 1.00000
vt 1.00000 0.34375
vt 1.00000 0.34375
vt 1.00000 1.00000
vt 0.00000 0.71875
vt 1.00000 0.34375
vt 0.00000 0.71875
vt 0.00000 0.34375
vt 1.00000 0.43750
vt 1.00000 1.00000
vt 0.28125 1.00000
vt 1.00000 0.43750
vt 0.28125 1.00000
vt 0.28125 0.43750
vt 0.28125 0.43750
vt 0.28125 1.00000
vt -0.53125 1.00000
vt 0.28125 0.43750
vt -0.53125 1.00000
vt -0.53125 0.43750
vt 0.00000 0.43750
vt 0.00000 0.71875
vt 1.00000 1.00000
vt 0.00000 0.43750
vt 1.00000 1.00000
vt 1.00000 0.43750
vt 1.00000 0.43750
vt 1.00000 1.00000
vt 0.00000 0.71875
vt 1.00000 0.43750
vt 0.00000 0.71875
vt 0.00000 0.43750
vt 1.00000 0.37500
vt 1.00000 0.00000
vt 0.00000 0.00000
vt 1.00000 0.37500
vt 0.00000 0.00000
vt 0.00000 0.37500
vt 0.00000 0.34375
vt 1.00000 0.34375
vt 1.00000 0.00000
vt 0.00000 0.34375
vt 1.00000 0.00000
vt 0.00000 0.00000
vt 1.00000 1.00000
vt 0.00000 1.00000
vt 0.00000 0.43750
vt 1.00000 1.00000
vt 0.00000 0.43750
vt 1.00000 0.43750
vt 0.92188 0.34375
vt 0.92188 0.34375
vt 0.92188 0.93750
vt 0.92188 0.34375
vt 0.92188 0.93750
vt 0.92188 0.93750
vt 1.00000 0.37500
vt 1.00000 0.00000
vt 0.00000 0.00000
vt 1.00000 0.37500
vt 0.00000 0.00000
vt 0.00000 0.37500
vt 1.00000 0.37500
vt 1.00000 0.00000
vt 0.00000 0.00000
vt 1.00000 0.37500
vt 0.00000 0.00000
vt 0.00000 0.37500
vt 0.00000 0.37500
vt 1.00000 0.37500
vt 1.00000 0.00000
vt 0.00000 0.37500
vt 1.00000 0.00000
vt 0.00000 0.00000
vt 0.92188 0.34375
vt 0.92188 0.34375
vt 0.92188 0.93750
vt 0.92188 0.34375
vt 0.92188 0.93750
vt 0.92188 0.93750
vt 0.68750 0.75000
vt 0.74805 0.75000
vt 0.72266 0.93750
vt 0.68750 0.75000
vt 0.74805 0.75000
vt 0.72266 0.93750
usemtl material1
f 1/1 2/2 3/3
f 4/4 5/5 6/6
f 7/7 8/8 9/9
f 10/10 11/11 12/12
f 13/13 14/14 15/15
usemtl material0
f 16/16 17/17 18/18
f 19/19 20/20 21/21
f 22/22 23/23 24/24
f 25/25 26/26 27/27
f 28/28 29/29 30/30
f 31/31 32/32 33/33
f 34/34 35/35 36/36
f 37/37 38/38 39/39
f 40/40 41/41 42/42
usemtl material2
f 43/43 44/44 45/45
f 46/46 47/47 48/48
f 49/49 50/50 51/51
f 52/52 53/53 54/54
f 55/55 56/56 57/57
f 58/58 59/59 60/60
f 61/61 62/62 63/63
f 64/64 65/65 66/66
f 67/67 68/68 69/69
f 70/70 71/71 72/72
f 73/73 74/74 75/75
f 76/76 77/77 78/78
f 79/79 80/80 81/81
f 82/82 83/83 84/84
f 85/85 86/86 87/87
f 88/88 89/89 90/90
f 91/91 92/92 93/93
f 94/94 95/95 96/96
f 97/97 98/98 99/99
f 100/100 101/101 102/102
f 103/103 104/104 105/105
f 106/106 107/107 108/108
f 109/109 110/110 111/111
f 112/112 113/113 114/114
f 115/115 116/116 117/117
f 118/118 119/119 120/120
f 121/121 122/122 123/123
f 124/124 125/125 126/126
f 127/127 128/128 129/129
f 130/130 131/131 132/132
