# Objet du port. Généré par tools/build_port_objects.py : modifier ce script plutôt que ce fichier.
mtllib lamppost.mtl
v 2.6000 0.0000 0.0000 0.7951 0.7951 0.7951
v 1.8385 0.0000 1.8385 0.7951 0.7951 0.7951
v 1.8385 3.0000 1.8385 0.7951 0.7951 0.7951
v 2.6000 3.0000 0.0000 0.7951 0.7951 0.7951
v 1.8385 0.0000 1.8385 0.8449 0.8449 0.8449
v 0.0000 0.0000 2.6000 0.8449 0.8449 0.8449
v 0.0000 3.0000 2.6000 0.8449 0.8449 0.8449
v 1.8385 3.0000 1.8385 0.8449 0.8449 0.8449
v 0.0000 0.0000 2.6000 0.8449 0.8449 0.8449
v -1.8385 0.0000 1.8385 0.8449 0.8449 0.8449
v -1.8385 3.0000 1.8385 0.8449 0.8449 0.8449
v 0.0000 3.0000 2.6000 0.8449 0.8449 0.8449
v -1.8385 0.0000 1.8385 0.7951 0.7951 0.7951
v -2.6000 0.0000 0.0000 0.7951 0.7951 0.7951
v -2.6000 3.0000 0.0000 0.7951 0.7951 0.7951
v -1.8385 3.0000 1.8385 0.7951 0.7951 0.7951
v -2.6000 0.0000 0.0000 0.7307 0.7307 0.7307
v -1.8385 0.0000 -1.8385 0.7307 0.7307 0.7307
v -1.8385 3.0000 -1.8385 0.7307 0.7307 0.7307
v -2.6000 3.0000 0.0000 0.7307 0.7307 0.7307
v -1.8385 0.0000 -1.8385 0.6893 0.6893 0.6893
v -0.0000 0.0000 -2.6000 0.6893 0.6893 0.6893
v -0.0000 3.0000 -2.6000 0.6893 0.6893 0.6893
v -1.8385 3.0000 -1.8385 0.6893 0.6893 0.6893
v -0.0000 0.0000 -2.6000 0.6893 0.6893 0.6893
v 1.8385 0.0000 -1.8385 0.6893 0.6893 0.6893
v 1.8385 3.0000 -1.8385 0.6893 0.6893 0.6893
v -0.0000 3.0000 -2.6000 0.6893 0.6893 0.6893
v 1.8385 0.0000 -1.8385 0.7307 0.7307 0.7307
v 2.6000 0.0000 -0.0000 0.7307 0.7307 0.7307
v 2.6000 3.0000 -0.0000 0.7307 0.7307 0.7307
v 1.8385 3.0000 -1.8385 0.7307 0.7307 0.7307
v 2.6000 3.0000 0.0000 1.0000 1.0000 1.0000
v 1.8385 3.0000 1.8385 1.0000 1.0000 1.0000
v 0.0000 3.0000 2.6000 1.0000 1.0000 1.0000
v -1.8385 3.0000 1.8385 1.0000 1.0000 1.0000
v -2.6000 3.0000 0.0000 1.0000 1.0000 1.0000
v -1.8385 3.0000 -1.8385 1.0000 1.0000 1.0000
v -0.0000 3.0000 -2.6000 1.0000 1.0000 1.0000
v 1.8385 3.0000 -1.8385 1.0000 1.0000 1.0000
v 1.1000 3.0000 0.0000 0.8039 0.8039 0.8039
v 0.5500 3.0000 0.9526 0.8039 0.8039 0.8039
v 0.5500 38.0000 0.9526 0.8039 0.8039 0.8039
v 1.1000 38.0000 0.0000 0.8039 0.8039 0.8039
v 0.5500 3.0000 0.9526 0.8800 0.8800 0.8800
v -0.5500 3.0000 0.9526 0.8800 0.8800 0.8800
v -0.5500 38.0000 0.9526 0.8800 0.8800 0.8800
v 0.5500 38.0000 0.9526 0.8800 0.8800 0.8800
v -0.5500 3.0000 0.9526 0.8039 0.8039 0.8039
v -1.1000 3.0000 0.0000 0.8039 0.8039 0.8039
v -1.1000 38.0000 0.0000 0.8039 0.8039 0.8039
v -0.5500 38.0000 0.9526 0.8039 0.8039 0.8039
v -1.1000 3.0000 0.0000 0.7234 0.7234 0.7234
v -0.5500 3.0000 -0.9526 0.7234 0.7234 0.7234
v -0.5500 38.0000 -0.9526 0.7234 0.7234 0.7234
v -1.1000 38.0000 0.0000 0.7234 0.7234 0.7234
v -0.5500 3.0000 -0.9526 0.6600 0.6600 0.6600
v 0.5500 3.0000 -0.9526 0.6600 0.6600 0.6600
v 0.5500 38.0000 -0.9526 0.6600 0.6600 0.6600
v -0.5500 38.0000 -0.9526 0.6600 0.6600 0.6600
v 0.5500 3.0000 -0.9526 0.7234 0.7234 0.7234
v 1.1000 3.0000 -0.0000 0.7234 0.7234 0.7234
v 1.1000 38.0000 -0.0000 0.7234 0.7234 0.7234
v 0.5500 38.0000 -0.9526 0.7234 0.7234 0.7234
v -2.6000 39.0000 -2.6000 1.0000 1.0000 1.0000
v 2.6000 39.0000 -2.6000 1.0000 1.0000 1.0000
v 2.6000 39.0000 2.6000 1.0000 1.0000 1.0000
v -2.6000 39.0000 2.6000 1.0000 1.0000 1.0000
v -2.6000 38.0000 2.6000 0.5500 0.5500 0.5500
v 2.6000 38.0000 2.6000 0.5500 0.5500 0.5500
v 2.6000 38.0000 -2.6000 0.5500 0.5500 0.5500
v -2.6000 38.0000 -2.6000 0.5500 0.5500 0.5500
v -2.6000 39.0000 2.6000 0.8800 0.8800 0.8800
v 2.6000 39.0000 2.6000 0.8800 0.8800 0.8800
v 2.6000 38.0000 2.6000 0.8800 0.8800 0.8800
v -2.6000 38.0000 2.6000 0.8800 0.8800 0.8800
v 2.6000 39.0000 -2.6000 0.6600 0.6600 0.6600
v -2.6000 39.0000 -2.6000 0.6600 0.6600 0.6600
v -2.6000 38.0000 -2.6000 0.6600 0.6600 0.6600
v 2.6000 38.0000 -2.6000 0.6600 0.6600 0.6600
v -2.6000 39.0000 -2.6000 0.7600 0.7600 0.7600
v -2.6000 39.0000 2.6000 0.7600 0.7600 0.7600
v -2.6000 38.0000 2.6000 0.7600 0.7600 0.7600
v -2.6000 38.0000 -2.6000 0.7600 0.7600 0.7600
v 2.6000 39.0000 2.6000 0.7600 0.7600 0.7600
v 2.6000 39.0000 -2.6000 0.7600 0.7600 0.7600
v 2.6000 38.0000 -2.6000 0.7600 0.7600 0.7600
v 2.6000 38.0000 2.6000 0.7600 0.7600 0.7600
v -3.0000 46.5000 -3.0000 1.0000 1.0000 1.0000
v 3.0000 46.5000 -3.0000 1.0000 1.0000 1.0000
v 3.0000 46.5000 3.0000 1.0000 1.0000 1.0000
v -3.0000 46.5000 3.0000 1.0000 1.0000 1.0000
v -3.0000 45.0000 3.0000 0.5500 0.5500 0.5500
v 3.0000 45.0000 3.0000 0.5500 0.5500 0.5500
v 3.0000 45.0000 -3.0000 0.5500 0.5500 0.5500
v -3.0000 45.0000 -3.0000 0.5500 0.5500 0.5500
v -3.0000 46.5000 3.0000 0.8800 0.8800 0.8800
v 3.0000 46.5000 3.0000 0.8800 0.8800 0.8800
v 3.0000 45.0000 3.0000 0.8800 0.8800 0.8800
v -3.0000 45.0000 3.0000 0.8800 0.8800 0.8800
v 3.0000 46.5000 -3.0000 0.6600 0.6600 0.6600
v -3.0000 46.5000 -3.0000 0.6600 0.6600 0.6600
v -3.0000 45.0000 -3.0000 0.6600 0.6600 0.6600
v 3.0000 45.0000 -3.0000 0.6600 0.6600 0.6600
v -3.0000 46.5000 -3.0000 0.7600 0.7600 0.7600
v -3.0000 46.5000 3.0000 0.7600 0.7600 0.7600
v -3.0000 45.0000 3.0000 0.7600 0.7600 0.7600
v -3.0000 45.0000 -3.0000 0.7600 0.7600 0.7600
v 3.0000 46.5000 3.0000 0.7600 0.7600 0.7600
v 3.0000 46.5000 -3.0000 0.7600 0.7600 0.7600
v 3.0000 45.0000 -3.0000 0.7600 0.7600 0.7600
v 3.0000 45.0000 3.0000 0.7600 0.7600 0.7600
v 2.2000 46.5000 0.0000 0.9117 0.9117 0.9117
v 1.1000 46.5000 1.9053 0.9117 0.9117 0.9117
v 0.1500 49.0000 0.2598 0.9117 0.9117 0.9117
v 0.3000 49.0000 0.0000 0.9117 0.9117 0.9117
v 1.1000 46.5000 1.9053 0.9460 0.9460 0.9460
v -1.1000 46.5000 1.9053 0.9460 0.9460 0.9460
v -0.1500 49.0000 0.2598 0.9460 0.9460 0.9460
v 0.1500 49.0000 0.2598 0.9460 0.9460 0.9460
v -1.1000 46.5000 1.9053 0.9117 0.9117 0.9117
v -2.2000 46.5000 0.0000 0.9117 0.9117 0.9117
v -0.3000 49.0000 0.0000 0.9117 0.9117 0.9117
v -0.1500 49.0000 0.2598 0.9117 0.9117 0.9117
v -2.2000 46.5000 0.0000 0.8755 0.8755 0.8755
v -1.1000 46.5000 -1.9053 0.8755 0.8755 0.8755
v -0.1500 49.0000 -0.2598 0.8755 0.8755 0.8755
v -0.3000 49.0000 0.0000 0.8755 0.8755 0.8755
v -1.1000 46.5000 -1.9053 0.8469 0.8469 0.8469
v 1.1000 46.5000 -1.9053 0.8469 0.8469 0.8469
v 0.1500 49.0000 -0.2598 0.8469 0.8469 0.8469
v -0.1500 49.0000 -0.2598 0.8469 0.8469 0.8469
v 1.1000 46.5000 -1.9053 0.8755 0.8755 0.8755
v 2.2000 46.5000 -0.0000 0.8755 0.8755 0.8755
v 0.3000 49.0000 -0.0000 0.8755 0.8755 0.8755
v 0.1500 49.0000 -0.2598 0.8755 0.8755 0.8755
v -2.2000 45.0000 -2.2000 1.0000 1.0000 1.0000
v 2.2000 45.0000 -2.2000 1.0000 1.0000 1.0000
v 2.2000 45.0000 2.2000 1.0000 1.0000 1.0000
v -2.2000 45.0000 2.2000 1.0000 1.0000 1.0000
v -2.2000 39.0000 2.2000 0.5500 0.5500 0.5500
v 2.2000 39.0000 2.2000 0.5500 0.5500 0.5500
v 2.2000 39.0000 -2.2000 0.5500 0.5500 0.5500
v -2.2000 39.0000 -2.2000 0.5500 0.5500 0.5500
v -2.2000 45.0000 2.2000 0.8800 0.8800 0.8800
v 2.2000 45.0000 2.2000 0.8800 0.8800 0.8800
v 2.2000 39.0000 2.2000 0.8800 0.8800 0.8800
v -2.2000 39.0000 2.2000 0.8800 0.8800 0.8800
v 2.2000 45.0000 -2.2000 0.6600 0.6600 0.6600
v -2.2000 45.0000 -2.2000 0.6600 0.6600 0.6600
v -2.2000 39.0000 -2.2000 0.6600 0.6600 0.6600
v 2.2000 39.0000 -2.2000 0.6600 0.6600 0.6600
v -2.2000 45.0000 -2.2000 0.7600 0.7600 0.7600
v -2.2000 45.0000 2.2000 0.7600 0.7600 0.7600
v -2.2000 39.0000 2.2000 0.7600 0.7600 0.7600
v -2.2000 39.0000 -2.2000 0.7600 0.7600 0.7600
v 2.2000 45.0000 2.2000 0.7600 0.7600 0.7600
v 2.2000 45.0000 -2.2000 0.7600 0.7600 0.7600
v 2.2000 39.0000 -2.2000 0.7600 0.7600 0.7600
v 2.2000 39.0000 2.2000 0.7600 0.7600 0.7600
vt 0.00000 0.00000
vt 0.12500 0.00000
vt 0.12500 1.00000
vt 0.00000 1.00000
vt 0.12500 0.00000
vt 0.25000 0.00000
vt 0.25000 1.00000
vt 0.12500 1.00000
vt 0.25000 0.00000
vt 0.37500 0.00000
vt 0.37500 1.00000
vt 0.25000 1.00000
vt 0.37500 0.00000
vt 0.50000 0.00000
vt 0.50000 1.00000
vt 0.37500 1.00000
vt 0.50000 0.00000
vt 0.62500 0.00000
vt 0.62500 1.00000
vt 0.50000 1.00000
vt 0.62500 0.00000
vt 0.75000 0.00000
vt 0.75000 1.00000
vt 0.62500 1.00000
vt 0.75000 0.00000
vt 0.87500 0.00000
vt 0.87500 1.00000
vt 0.75000 1.00000
vt 0.87500 0.00000
vt 1.00000 0.00000
vt 1.00000 1.00000
vt 0.87500 1.00000
vt 1.00000 0.50000
vt 0.85355 0.14645
vt 0.50000 0.00000
vt 0.14645 0.14645
vt 0.00000 0.50000
vt 0.14645 0.85355
vt 0.50000 1.00000
vt 0.85355 0.85355
vt 0.00000 0.00000
vt 0.16667 0.00000
vt 0.16667 1.00000
vt 0.00000 1.00000
vt 0.16667 0.00000
vt 0.33333 0.00000
vt 0.33333 1.00000
vt 0.16667 1.00000
vt 0.33333 0.00000
vt 0.50000 0.00000
vt 0.50000 1.00000
vt 0.33333 1.00000
vt 0.50000 0.00000
vt 0.66667 0.00000
vt 0.66667 1.00000
vt 0.50000 1.00000
vt 0.66667 0.00000
vt 0.83333 0.00000
vt 0.83333 1.00000
vt 0.66667 1.00000
vt 0.83333 0.00000
vt 1.00000 0.00000
vt 1.00000 1.00000
vt 0.83333 1.00000
vt -0.32500 0.67500
vt 0.32500 0.67500
vt 0.32500 1.32500
vt -0.32500 1.32500
vt -0.32500 0.67500
vt 0.32500 0.67500
vt 0.32500 1.32500
vt -0.32500 1.32500
vt -0.32500 1.00000
vt 0.32500 1.00000
vt 0.32500 0.87500
vt -0.32500 0.87500
vt -0.32500 1.00000
vt 0.32500 1.00000
vt 0.32500 0.87500
vt -0.32500 0.87500
vt -0.32500 1.00000
vt 0.32500 1.00000
vt 0.32500 0.87500
vt -0.32500 0.87500
vt -0.32500 1.00000
vt 0.32500 1.00000
vt 0.32500 0.87500
vt -0.32500 0.87500
vt -0.37500 0.62500
vt 0.37500 0.62500
vt 0.37500 1.37500
vt -0.37500 1.37500
vt -0.37500 0.62500
vt 0.37500 0.62500
vt 0.37500 1.37500
vt -0.37500 1.37500
vt -0.37500 1.00000
vt 0.37500 1.00000
vt 0.37500 0.81250
vt -0.37500 0.81250
vt -0.37500 1.00000
vt 0.37500 1.00000
vt 0.37500 0.81250
vt -0.37500 0.81250
vt -0.37500 1.00000
vt 0.37500 1.00000
vt 0.37500 0.81250
vt -0.37500 0.81250
vt -0.37500 1.00000
vt 0.37500 1.00000
vt 0.37500 0.81250
vt -0.37500 0.81250
vt 0.00000 0.00000
vt 0.16667 0.00000
vt 0.16667 1.00000
vt 0.00000 1.00000
vt 0.16667 0.00000
vt 0.33333 0.00000
vt 0.33333 1.00000
vt 0.16667 1.00000
vt 0.33333 0.00000
vt 0.50000 0.00000
vt 0.50000 1.00000
vt 0.33333 1.00000
vt 0.50000 0.00000
vt 0.66667 0.00000
vt 0.66667 1.00000
vt 0.50000 1.00000
vt 0.66667 0.00000
vt 0.83333 0.00000
vt 0.83333 1.00000
vt 0.66667 1.00000
vt 0.83333 0.00000
vt 1.00000 0.00000
vt 1.00000 1.00000
vt 0.83333 1.00000
vt -0.27500 0.72500
vt 0.27500 0.72500
vt 0.27500 1.27500
vt -0.27500 1.27500
vt -0.27500 0.72500
vt 0.27500 0.72500
vt 0.27500 1.27500
vt -0.27500 1.27500
vt -0.27500 1.00000
vt 0.27500 1.00000
vt 0.27500 0.25000
vt -0.27500 0.25000
vt -0.27500 1.00000
vt 0.27500 1.00000
vt 0.27500 0.25000
vt -0.27500 0.25000
vt -0.27500 1.00000
vt 0.27500 1.00000
vt 0.27500 0.25000
vt -0.27500 0.25000
vt -0.27500 1.00000
vt 0.27500 1.00000
vt 0.27500 0.25000
vt -0.27500 0.25000
usemtl iron
f 1/1 2/2 3/3
f 1/1 3/3 4/4
f 5/5 6/6 7/7
f 5/5 7/7 8/8
f 9/9 10/10 11/11
f 9/9 11/11 12/12
f 13/13 14/14 15/15
f 13/13 15/15 16/16
f 17/17 18/18 19/19
f 17/17 19/19 20/20
f 21/21 22/22 23/23
f 21/21 23/23 24/24
f 25/25 26/26 27/27
f 25/25 27/27 28/28
f 29/29 30/30 31/31
f 29/29 31/31 32/32
f 33/33 34/34 35/35
f 33/33 35/35 36/36
f 33/33 36/36 37/37
f 33/33 37/37 38/38
f 33/33 38/38 39/39
f 33/33 39/39 40/40
f 41/41 42/42 43/43
f 41/41 43/43 44/44
f 45/45 46/46 47/47
f 45/45 47/47 48/48
f 49/49 50/50 51/51
f 49/49 51/51 52/52
f 53/53 54/54 55/55
f 53/53 55/55 56/56
f 57/57 58/58 59/59
f 57/57 59/59 60/60
f 61/61 62/62 63/63
f 61/61 63/63 64/64
f 65/65 66/66 67/67
f 65/65 67/67 68/68
f 69/69 70/70 71/71
f 69/69 71/71 72/72
f 73/73 74/74 75/75
f 73/73 75/75 76/76
f 77/77 78/78 79/79
f 77/77 79/79 80/80
f 81/81 82/82 83/83
f 81/81 83/83 84/84
f 85/85 86/86 87/87
f 85/85 87/87 88/88
f 89/89 90/90 91/91
f 89/89 91/91 92/92
f 93/93 94/94 95/95
f 93/93 95/95 96/96
f 97/97 98/98 99/99
f 97/97 99/99 100/100
f 101/101 102/102 103/103
f 101/101 103/103 104/104
f 105/105 106/106 107/107
f 105/105 107/107 108/108
f 109/109 110/110 111/111
f 109/109 111/111 112/112
f 113/113 114/114 115/115
f 113/113 115/115 116/116
f 117/117 118/118 119/119
f 117/117 119/119 120/120
f 121/121 122/122 123/123
f 121/121 123/123 124/124
f 125/125 126/126 127/127
f 125/125 127/127 128/128
f 129/129 130/130 131/131
f 129/129 131/131 132/132
f 133/133 134/134 135/135
f 133/133 135/135 136/136
usemtl lamp
f 137/137 138/138 139/139
f 137/137 139/139 140/140
f 141/141 142/142 143/143
f 141/141 143/143 144/144
f 145/145 146/146 147/147
f 145/145 147/147 148/148
f 149/149 150/150 151/151
f 149/149 151/151 152/152
f 153/153 154/154 155/155
f 153/153 155/155 156/156
f 157/157 158/158 159/159
f 157/157 159/159 160/160
