# Converti depuis bigicicle_03.dae par tools/maps/dae_to_obj.py
mtllib big_icicle_3.mtl
v -4.1504 40.2266 -26.6816 1.0000 1.0000 1.0000
v -11.4980 7.1074 6.6895 1.0000 1.0000 1.0000
v 0.9766 27.1738 -5.1328 1.0000 1.0000 1.0000
v -11.4980 7.1074 6.6895 1.0000 1.0000 1.0000
v -2.2695 7.1074 9.5684 1.0000 1.0000 1.0000
v 0.9766 27.1738 -5.1328 1.0000 1.0000 1.0000
v 0.9766 27.1738 -5.1328 1.0000 1.0000 1.0000
v -2.2695 7.1074 9.5684 1.0000 1.0000 1.0000
v 11.0781 7.1074 5.7520 1.0000 1.0000 1.0000
v 11.0781 7.1074 5.7520 1.0000 1.0000 1.0000
v 13.2852 49.9629 -26.3457 1.0000 1.0000 1.0000
v 0.9766 27.1738 -5.1328 1.0000 1.0000 1.0000
v 13.2852 49.9629 -26.3457 1.0000 1.0000 1.0000
v 2.2402 27.7754 -21.6504 1.0000 1.0000 1.0000
v 0.9766 27.1738 -5.1328 1.0000 1.0000 1.0000
v 0.9766 27.1738 -5.1328 1.0000 1.0000 1.0000
v 2.2402 27.7754 -21.6504 1.0000 1.0000 1.0000
v -4.1504 40.2266 -26.6816 1.0000 1.0000 1.0000
v 11.2031 7.1074 -17.3906 1.0000 1.0000 1.0000
v 13.2852 49.9629 -26.3457 1.0000 1.0000 1.0000
v 15.5957 7.1074 -8.4395 1.0000 1.0000 1.0000
v 13.2852 49.9629 -26.3457 1.0000 1.0000 1.0000
v 11.0781 7.1074 5.7520 1.0000 1.0000 1.0000
v 15.5957 7.1074 -8.4395 1.0000 1.0000 1.0000
v -9.4590 6.6895 -20.2129 1.0000 1.0000 1.0000
v -16.0312 7.1074 -7.5996 1.0000 1.0000 1.0000
v -4.1504 40.2266 -26.6816 1.0000 1.0000 1.0000
v -16.0312 7.1074 -7.5996 1.0000 1.0000 1.0000
v -11.4980 7.1074 6.6895 1.0000 1.0000 1.0000
v -4.1504 40.2266 -26.6816 1.0000 1.0000 1.0000
v 12.0000 44.0000 -24.0000 1.0000 1.0000 1.0000
v 8.7539 7.8516 -15.4844 1.0000 1.0000 1.0000
v 1.4492 22.3730 -17.1016 1.0000 1.0000 1.0000
v 2.3555 18.3105 -9.0273 1.0000 1.0000 1.0000
v 8.3965 7.8516 1.3555 1.0000 1.0000 1.0000
v 12.0000 44.0000 -24.0000 1.0000 1.0000 1.0000
v 1.4492 22.3730 -17.1016 1.0000 1.0000 1.0000
v 2.3555 18.3105 -9.0273 1.0000 1.0000 1.0000
v 12.0000 44.0000 -24.0000 1.0000 1.0000 1.0000
v 8.3965 7.8516 1.3555 1.0000 1.0000 1.0000
v 11.2539 7.8516 -8.2188 1.0000 1.0000 1.0000
v 12.0000 44.0000 -24.0000 1.0000 1.0000 1.0000
v 11.2539 7.8516 -8.2188 1.0000 1.0000 1.0000
v 8.7539 7.8516 -15.4844 1.0000 1.0000 1.0000
v 12.0000 44.0000 -24.0000 1.0000 1.0000 1.0000
v -2.1641 7.8516 2.5098 1.0000 1.0000 1.0000
v 8.3965 7.8516 1.3555 1.0000 1.0000 1.0000
v 2.3555 18.3105 -9.0273 1.0000 1.0000 1.0000
v -8.1191 7.8516 -17.9727 1.0000 1.0000 1.0000
v -10.5000 7.8516 -7.0781 1.0000 1.0000 1.0000
v -3.8145 34.7324 -23.5762 1.0000 1.0000 1.0000
v 2.3555 18.3105 -9.0273 1.0000 1.0000 1.0000
v 1.4492 22.3730 -17.1016 1.0000 1.0000 1.0000
v -3.8145 34.7324 -23.5762 1.0000 1.0000 1.0000
v 8.7539 7.8516 -15.4844 1.0000 1.0000 1.0000
v -8.1191 7.8516 -17.9727 1.0000 1.0000 1.0000
v -3.8145 34.7324 -23.5762 1.0000 1.0000 1.0000
v -2.1641 7.8516 2.5098 1.0000 1.0000 1.0000
v 2.3555 18.3105 -9.0273 1.0000 1.0000 1.0000
v -3.8145 34.7324 -23.5762 1.0000 1.0000 1.0000
v -8.3867 7.8516 -0.6133 1.0000 1.0000 1.0000
v -2.1641 7.8516 2.5098 1.0000 1.0000 1.0000
v -3.8145 34.7324 -23.5762 1.0000 1.0000 1.0000
v -10.5000 7.8516 -7.0781 1.0000 1.0000 1.0000
v -8.3867 7.8516 -0.6133 1.0000 1.0000 1.0000
v -3.8145 34.7324 -23.5762 1.0000 1.0000 1.0000
v 1.4492 22.3730 -17.1016 1.0000 1.0000 1.0000
v 8.7539 7.8516 -15.4844 1.0000 1.0000 1.0000
v -3.8145 34.7324 -23.5762 1.0000 1.0000 1.0000
v 9.6543 6.8125 4.0039 1.0000 1.0000 1.0000
v 12.9434 6.8125 -8.1738 1.0000 1.0000 1.0000
v 13.0059 14.8379 -11.5840 1.0000 1.0000 1.0000
v 9.6543 6.8125 4.0039 1.0000 1.0000 1.0000
v 13.0059 14.8379 -11.5840 1.0000 1.0000 1.0000
v 10.3105 14.2520 -2.3164 1.0000 1.0000 1.0000
v 12.9434 6.8125 -8.1738 1.0000 1.0000 1.0000
v 10.0645 6.8125 -16.5371 1.0000 1.0000 1.0000
v 10.7246 15.2539 -18.4004 1.0000 1.0000 1.0000
v 12.9434 6.8125 -8.1738 1.0000 1.0000 1.0000
v 10.7246 15.2539 -18.4004 1.0000 1.0000 1.0000
v 13.0059 14.8379 -11.5840 1.0000 1.0000 1.0000
v -1.2383 6.8125 7.0000 1.0000 1.0000 1.0000
v 9.6543 6.8125 4.0039 1.0000 1.0000 1.0000
v 10.3105 14.2520 -2.3164 1.0000 1.0000 1.0000
v -1.2383 6.8125 7.0000 1.0000 1.0000 1.0000
v 10.3105 14.2520 -2.3164 1.0000 1.0000 1.0000
v -0.8984 14.1562 -0.4766 1.0000 1.0000 1.0000
v -9.3633 6.8125 -19.4023 1.0000 1.0000 1.0000
v -13.5352 6.8125 -8.8516 1.0000 1.0000 1.0000
v -9.8672 14.7520 -13.5742 1.0000 1.0000 1.0000
v -9.3633 6.8125 -19.4023 1.0000 1.0000 1.0000
v -9.8672 14.7520 -13.5742 1.0000 1.0000 1.0000
v -6.3066 15.3457 -20.9844 1.0000 1.0000 1.0000
v -9.6719 6.8125 4.2910 1.0000 1.0000 1.0000
v -1.2383 6.8125 7.0000 1.0000 1.0000 1.0000
v -0.8984 14.1562 -0.4766 1.0000 1.0000 1.0000
v -9.6719 6.8125 4.2910 1.0000 1.0000 1.0000
v -0.8984 14.1562 -0.4766 1.0000 1.0000 1.0000
v -8.3203 14.3965 -2.9199 1.0000 1.0000 1.0000
v -13.5352 6.8125 -8.8516 1.0000 1.0000 1.0000
v -9.6719 6.8125 4.2910 1.0000 1.0000 1.0000
v -8.3203 14.3965 -2.9199 1.0000 1.0000 1.0000
v -13.5352 6.8125 -8.8516 1.0000 1.0000 1.0000
v -8.3203 14.3965 -2.9199 1.0000 1.0000 1.0000
v -9.8672 14.7520 -13.5742 1.0000 1.0000 1.0000
v 13.0098 6.4746 -10.3438 1.0000 1.0000 1.0000
v 9.3770 6.4746 1.8320 1.0000 1.0000 1.0000
v 19.1562 6.4746 8.2734 1.0000 1.0000 1.0000
v 13.0098 6.4746 -10.3438 1.0000 1.0000 1.0000
v 19.1562 6.4746 8.2734 1.0000 1.0000 1.0000
v 21.9180 6.4746 -13.2598 1.0000 1.0000 1.0000
v 9.3770 6.4746 1.8320 1.0000 1.0000 1.0000
v -4.0527 6.4746 5.1406 1.0000 1.0000 1.0000
v -2.5723 6.4746 17.5605 1.0000 1.0000 1.0000
v 9.3770 6.4746 1.8320 1.0000 1.0000 1.0000
v -2.5723 6.4746 17.5605 1.0000 1.0000 1.0000
v 19.1562 6.4746 8.2734 1.0000 1.0000 1.0000
v -4.0527 6.4746 5.1406 1.0000 1.0000 1.0000
v -11.9668 6.4746 -0.6719 1.0000 1.0000 1.0000
v -17.5215 6.4746 9.9473 1.0000 1.0000 1.0000
v -4.0527 6.4746 5.1406 1.0000 1.0000 1.0000
v -17.5215 6.4746 9.9473 1.0000 1.0000 1.0000
v -2.5723 6.4746 17.5605 1.0000 1.0000 1.0000
v -11.9668 6.4746 -0.6719 1.0000 1.0000 1.0000
v -14.6543 6.4746 -8.8945 1.0000 1.0000 1.0000
v -24.3223 6.4746 -3.1738 1.0000 1.0000 1.0000
v -11.9668 6.4746 -0.6719 1.0000 1.0000 1.0000
v -24.3223 6.4746 -3.1738 1.0000 1.0000 1.0000
v -17.5215 6.4746 9.9473 1.0000 1.0000 1.0000
v -14.6543 6.4746 -8.8945 1.0000 1.0000 1.0000
v -8.6953 6.4746 -18.9785 1.0000 1.0000 1.0000
v -17.0605 6.4746 -21.8223 1.0000 1.0000 1.0000
v -14.6543 6.4746 -8.8945 1.0000 1.0000 1.0000
v -17.0605 6.4746 -21.8223 1.0000 1.0000 1.0000
v -24.3223 6.4746 -3.1738 1.0000 1.0000 1.0000
v -8.6953 6.4746 -18.9785 1.0000 1.0000 1.0000
v 6.6465 6.4746 -19.5840 1.0000 1.0000 1.0000
v 8.6406 6.4746 -27.0801 1.0000 1.0000 1.0000
v -8.6953 6.4746 -18.9785 1.0000 1.0000 1.0000
v 8.6406 6.4746 -27.0801 1.0000 1.0000 1.0000
v -17.0605 6.4746 -21.8223 1.0000 1.0000 1.0000
v 13.0098 6.4746 -10.3438 1.0000 1.0000 1.0000
v 21.9180 6.4746 -13.2598 1.0000 1.0000 1.0000
v 8.6406 6.4746 -27.0801 1.0000 1.0000 1.0000
v 13.0098 6.4746 -10.3438 1.0000 1.0000 1.0000
v 8.6406 6.4746 -27.0801 1.0000 1.0000 1.0000
v 6.6465 6.4746 -19.5840 1.0000 1.0000 1.0000
v -0.9961 6.4746 -9.0957 1.0000 1.0000 1.0000
v -8.6953 6.4746 -18.9785 1.0000 1.0000 1.0000
v -14.6543 6.4746 -8.8945 1.0000 1.0000 1.0000
v -0.9961 6.4746 -9.0957 1.0000 1.0000 1.0000
v 13.0098 6.4746 -10.3438 1.0000 1.0000 1.0000
v 6.6465 6.4746 -19.5840 1.0000 1.0000 1.0000
v -0.9961 6.4746 -9.0957 1.0000 1.0000 1.0000
v 6.6465 6.4746 -19.5840 1.0000 1.0000 1.0000
v -8.6953 6.4746 -18.9785 1.0000 1.0000 1.0000
v -0.9961 6.4746 -9.0957 1.0000 1.0000 1.0000
v -11.9668 6.4746 -0.6719 1.0000 1.0000 1.0000
v -4.0527 6.4746 5.1406 1.0000 1.0000 1.0000
v -0.9961 6.4746 -9.0957 1.0000 1.0000 1.0000
v -14.6543 6.4746 -8.8945 1.0000 1.0000 1.0000
v -11.9668 6.4746 -0.6719 1.0000 1.0000 1.0000
v -0.9961 6.4746 -9.0957 1.0000 1.0000 1.0000
v -4.0527 6.4746 5.1406 1.0000 1.0000 1.0000
v 9.3770 6.4746 1.8320 1.0000 1.0000 1.0000
v -0.9961 6.4746 -9.0957 1.0000 1.0000 1.0000
v 9.3770 6.4746 1.8320 1.0000 1.0000 1.0000
v 13.0098 6.4746 -10.3438 1.0000 1.0000 1.0000
vt -0.21875 0.81738
vt 0.08984 0.03027
vt 0.22461 0.45312
vt 0.08984 0.03027
vt 0.03613 0.13281
vt 0.22461 0.45312
vt 0.22461 0.45312
vt 0.03613 0.13281
vt 0.62402 0.08887
vt 0.62402 0.08887
vt 0.27734 0.29883
vt 0.22461 0.45312
vt 0.27734 0.29883
vt 0.00977 0.52441
vt 0.22461 0.45312
vt 0.22461 0.45312
vt 0.00977 0.52441
vt -0.16797 0.81152
vt 0.18262 0.00977
vt 0.27734 0.29883
vt 0.26465 0.12500
vt 0.27734 0.29883
vt 0.62402 0.08887
vt 0.26465 0.12500
vt 0.24707 0.83008
vt 0.35938 0.32324
vt 0.39453 0.28711
vt 0.04590 0.02051
vt 0.23828 0.23535
vt 0.16211 0.67578
vt 0.29980 0.33203
vt 0.05176 0.01953
vt 0.24805 0.02246
vt 0.57031 0.02637
vt 0.76172 0.03125
vt 0.59863 0.68945
vt 0.48438 0.02539
vt 0.01270 0.02051
vt 0.39648 0.43652
vt 0.48730 0.03223
vt 0.26074 0.03027
vt 0.29980 0.33203
vt 0.50000 0.03223
vt 0.05176 0.01953
vt 0.29980 0.33203
vt 0.49121 0.04785
vt 0.03906 0.04395
vt 0.39648 0.43652
vt 0.45996 0.05273
vt 0.00684 0.04785
vt 0.46387 0.91211
vt 0.57031 0.02637
vt 0.76953 0.02539
vt 0.59863 0.68945
vt 0.48535 0.03613
vt 0.03320 0.03125
vt 0.39648 0.43652
vt 0.48242 0.03516
vt 0.01270 0.02051
vt 0.39648 0.43652
vt 0.59082 0.05078
vt 0.97363 0.04785
vt 0.47559 0.91113
vt 0.44434 0.03809
vt -0.00781 0.03320
vt 0.39648 0.43652
vt 0.57031 0.02637
vt 0.74414 -0.02539
vt 0.59863 0.68945
vt 0.00000 0.02734
vt -1.00000 0.02734
vt -1.00000 0.97266
vt 0.00000 0.02734
vt -1.00000 0.97266
vt 0.00000 0.97266
vt 0.00000 0.02734
vt -1.00000 0.02734
vt -1.00000 0.97266
vt 0.00000 0.02734
vt -1.00000 0.97266
vt 0.00000 0.97266
vt 0.00000 0.02734
vt -1.00000 0.02734
vt -1.00000 0.97266
vt 0.00000 0.02734
vt -1.00000 0.97266
vt 0.00000 0.97266
vt 0.00000 0.02734
vt -1.00000 0.02734
vt -1.00000 0.97266
vt 0.00000 0.02734
vt -1.00000 0.97266
vt 0.00000 0.97266
vt 0.00000 0.02734
vt -1.00000 0.02734
vt -1.00000 0.97266
vt 0.00000 0.02734
vt -1.00000 0.97266
vt 0.00000 0.97266
vt 0.00000 0.02734
vt -1.00000 0.02734
vt -1.00000 0.97266
vt 0.00000 0.02734
vt -1.00000 0.97266
vt 0.00000 0.97266
vt -0.16016 0.05273
vt 0.16016 0.05273
vt 1.00000 0.99609
vt -0.16016 0.05273
vt 1.00000 0.99609
vt -1.00000 0.99609
vt -0.16016 0.05273
vt 0.16016 0.05273
vt 1.00000 0.99609
vt -0.16016 0.05273
vt 1.00000 0.99609
vt -1.00000 0.99609
vt -0.16016 0.05273
vt 0.16016 0.05273
vt 1.00000 0.99609
vt -0.16016 0.05273
vt 1.00000 0.99609
vt -1.00000 0.99609
vt -0.16016 0.05273
vt 0.16016 0.05273
vt 1.00000 0.99609
vt -0.16016 0.05273
vt 1.00000 0.99609
vt -1.00000 0.99609
vt -0.16016 0.05273
vt 0.16016 0.05273
vt 1.00000 0.99609
vt -0.16016 0.05273
vt 1.00000 0.99609
vt -1.00000 0.99609
vt -0.16016 0.05273
vt 0.16016 0.05273
vt 1.00000 0.99609
vt -0.16016 0.05273
vt 1.00000 0.99609
vt -1.00000 0.99609
vt 0.16016 0.05273
vt 1.00000 0.99609
vt -1.00000 0.99609
vt 0.16016 0.05273
vt -1.00000 0.99609
vt -0.16016 0.05273
vt 0.00000 0.05273
vt 0.16016 0.05273
vt -0.16016 0.05273
vt 0.00000 0.05273
vt 0.16016 0.05273
vt -0.16016 0.05273
vt 0.00000 0.05273
vt 0.16016 0.05273
vt -0.16016 0.05273
vt 0.00000 0.05273
vt 0.16016 0.05273
vt -0.16016 0.05273
vt 0.00000 0.05273
vt 0.16016 0.05273
vt -0.16016 0.05273
vt 0.00000 0.05273
vt 0.16016 0.05273
vt -0.16016 0.05273
vt 0.00000 0.05273
vt 0.16016 0.05273
vt -0.16016 0.05273
usemtl material0
f 1/1 2/2 3/3
f 4/4 5/5 6/6
f 7/7 8/8 9/9
f 10/10 11/11 12/12
f 13/13 14/14 15/15
f 16/16 17/17 18/18
f 19/19 20/20 21/21
f 22/22 23/23 24/24
f 25/25 26/26 27/27
f 28/28 29/29 30/30
usemtl material1
f 31/31 32/32 33/33
f 34/34 35/35 36/36
f 37/37 38/38 39/39
f 40/40 41/41 42/42
f 43/43 44/44 45/45
f 46/46 47/47 48/48
f 49/49 50/50 51/51
f 52/52 53/53 54/54
f 55/55 56/56 57/57
f 58/58 59/59 60/60
f 61/61 62/62 63/63
f 64/64 65/65 66/66
f 67/67 68/68 69/69
usemtl material2
f 70/70 71/71 72/72
f 73/73 74/74 75/75
f 76/76 77/77 78/78
f 79/79 80/80 81/81
f 82/82 83/83 84/84
f 85/85 86/86 87/87
f 88/88 89/89 90/90
f 91/91 92/92 93/93
f 94/94 95/95 96/96
f 97/97 98/98 99/99
f 100/100 101/101 102/102
f 103/103 104/104 105/105
f 106/106 107/107 108/108
f 109/109 110/110 111/111
f 112/112 113/113 114/114
f 115/115 116/116 117/117
f 118/118 119/119 120/120
f 121/121 122/122 123/123
f 124/124 125/125 126/126
f 127/127 128/128 129/129
f 130/130 131/131 132/132
f 133/133 134/134 135/135
f 136/136 137/137 138/138
f 139/139 140/140 141/141
f 142/142 143/143 144/144
f 145/145 146/146 147/147
f 148/148 149/149 150/150
f 151/151 152/152 153/153
f 154/154 155/155 156/156
f 157/157 158/158 159/159
f 160/160 161/161 162/162
f 163/163 164/164 165/165
f 166/166 167/167 168/168
