# Created by MKDS Course Modifier
mtllib Driftviel City House 2.mtl
g polygon0
usemtl h_mado
v -43.26172 10.59375 9.515625
v -43.26172 32.92969 9.515625
v -43.26172 32.92969 -29.48438
v -43.26172 10.59375 -29.48438
v 43.21484 32.92969 -29.52734
v 43.21484 32.92969 9.628906
v 43.21484 10.59375 9.628906
v 43.21484 10.59375 -29.52734
v -23.98047 32.92969 26
v -41.21094 32.92969 26
v -41.21094 11.32422 26
v -23.98047 11.32422 26
v 41.14063 32.92969 26
v 23.38672 32.92969 26
v 23.38672 11.32422 26
v 41.14063 11.32422 26
vn 0 0 0.9980469
vn 0 0 0.9980469
vn 0 0 0.9980469
vn 0 0 0.9980469
vn 0 0 0.9980469
vn 0 0 0.9980469
vn 0 0 0.9980469
vn 0 0 0.9980469
vn 0 0 0.9980469
vn 0 0 0.9980469
vn 0 0 0.9980469
vn 0 0 0.9980469
vn 0 0 0.9980469
vn 0 0 0.9980469
vn 0 0 0.9980469
vn 0 0 0.9980469
vt 1 -1
vt 1 0
vt 0 0
vt 0 -1
vt 1 0
vt 0 0
vt 0 -1
vt 1 -1
vt 1 0
vt 0 0
vt 0 -1
vt 1 -1
vt 1 0
vt 0 0
vt 0 -1
vt 1 -1
f 1/1/1 2/2/2 3/3/3 4/4/4
f 5/5/5 6/6/6 7/7/7 8/8/8
f 9/9/9 10/10/10 11/11/11 12/12/12
f 13/13/13 14/14/14 15/15/15 16/16/16
g polygon1
usemtl h_kage
v -51.44922 2 33.74219
v -40.42969 2 21.82813
v -51.44922 2 -39.52344
v -40.42969 2 -30.41406
v 51.44922 2 -39.52344
v 41.26172 2 -30.41406
v 51.44922 2 33.74219
v 41.26172 2 21.82813
v -51.44922 2 33.74219
v -40.42969 2 21.82813
vn 0 0.9980469 0
vn 0 0.9980469 0
vn 0 0.9980469 0
vn 0 0.9980469 0
vn 0 0.9980469 0
vn 0 0.9980469 0
vn 0 0.9980469 0
vn 0 0.9980469 0
vn 0 0.9980469 0
vn 0 0.9980469 0
vt 0.5 -0.125
vt 0.5 -0.875
vt 0.5 -0.125
vt 0.5 -0.875
vt 0.5 -0.125
vt 0.5 -0.875
vt 0.5 -0.125
vt 0.5 -0.875
vt 0.5 -0.125
vt 0.5 -0.875
f 17/17/17 18/18/18 19/19/19
f 18/18/18 20/20/20 19/19/19
f 19/19/19 20/20/20 21/21/21
f 20/20/20 22/22/22 21/21/21
f 21/21/21 22/22/22 23/23/23
f 22/22/22 24/24/24 23/23/23
f 23/23/23 24/24/24 25/25/25
f 24/24/24 26/26/26 25/25/25
v -40.42969 2 21.82813
v 41.26172 2 21.82813
v 41.26172 2 -30.41406
v -40.42969 2 -30.41406
vn 0 0.9980469 0
vn 0 0.9980469 0
vn 0 0.9980469 0
vn 0 0.9980469 0
vt 0.5 -0.875
vt 0.5 -0.875
vt 0.5 -0.875
vt 0.5 -0.875
f 27/27/27 28/28/28 29/29/29 30/30/30
g polygon2
usemtl c5house1a
v 1 34 28
v 1 4 28
v 18 34 28
v 18 4 28
v 45 34 28
v 45 4 28
vn 0 0 0.9980469
vn 0 0 0.9980469
vn 0 0 0.9980469
vn 0 0 0.9980469
vn 0 0 0.9980469
vn 0 0 0.9980469
vt 1.09375 -0.2558594
vt 1.09375 -0.984375
vt 0.6875 -0.2558594
vt 0.6875 -0.984375
vt 0.09375 -0.2558594
vt 0.09375 -0.984375
f 31/31/31 32/32/32 33/33/33
f 32/32/32 34/34/34 33/33/33
f 33/33/33 34/34/34 35/35/35
f 34/34/34 36/36/36 35/35/35
v 18 34 28
v 23.94141 45.10547 28.12891
v 1 34 28
v 1.136719 45.14844 28.11719
v -17 34 28
v -23.67188 45.1875 28.10547
vn 0 0 0.9980469
vn 0 0 0.9980469
vn 0 0 0.9980469
vn 0 0 0.9980469
vn 0 0 0.9980469
vn 0 0 0.9980469
vt 0.8457031 -0.2402344
vt 0.9667969 -0.0078125
vt 0.5097656 -0.2402344
vt 0.5078125 -0.0078125
vt 0.8613281 -0.2402344
vt 0.984375 -0.0078125
f 37/37/37 38/38/38 39/39/39
f 38/38/38 40/40/40 39/39/39
f 39/39/39 40/40/40 41/41/41
f 40/40/40 42/42/42 41/41/41
v -23.78906 49.17188 28
v -23.67188 45.1875 28.10547
v 0 49.17188 28
v 1.136719 45.14844 28.11719
v 23.78906 49.17188 28
v 23.94141 45.10547 28.12891
vn 0 0 0.9980469
vn 0 0 0.9980469
vn 0 0 0.9980469
vn 0 0 0.9980469
vn 0 0 0.9980469
vn 0 0 0.9980469
vt 1.095703 -0.0078125
vt 1.09375 -0.15625
vt 1.078125 -0.0078125
vt 1.078125 -0.15625
vt 1.064453 -0.0078125
vt 1.0625 -0.15625
f 43/43/43 44/44/44 45/45/45
f 44/44/44 46/46/46 45/45/45
f 45/45/45 46/46/46 47/47/47
f 46/46/46 48/48/48 47/47/47
v 26.59766 21.32031 30.5
v 39.21484 21.32031 30.5
v 39.73828 22.32031 28.58203
v 26.07422 22.32031 28.58203
v 26.07422 19.78516 28.58203
v 26.59766 19.78516 30.5
v 26.59766 21.32031 30.5
v 26.07422 22.32031 28.58203
v 39.21484 19.78516 30.5
v 39.73828 19.78516 28.58203
v 39.73828 22.32031 28.58203
v 39.21484 21.32031 30.5
v 26.59766 19.78516 30.5
v 39.21484 19.78516 30.5
v 39.21484 21.32031 30.5
v 26.59766 21.32031 30.5
v -39.41406 21.32031 30.5
v -26.79297 21.32031 30.5
v -26.26953 22.32031 28.58203
v -39.9375 22.32031 28.58203
v -39.9375 19.78516 28.58203
v -39.41406 19.78516 30.5
v -39.41406 21.32031 30.5
v -39.9375 22.32031 28.58203
v -26.79297 19.78516 30.5
v -26.26953 19.78516 28.58203
v -26.26953 22.32031 28.58203
v -26.79297 21.32031 30.5
v -39.41406 19.78516 30.5
v -26.79297 19.78516 30.5
v -26.79297 21.32031 30.5
v -39.41406 21.32031 30.5
v -45 4 28
v -17 4 28
v -17 34 28
v -45 34 28
v -45 4 -32
v -45 4 28
v -45 34 28
v -45 34 -32
v 45 4 28
v 45 4 -32
v 45 34 -32
v 45 34 28
v -45 34 28
v -23.67188 45.1875 28.10547
v -23.78906 49.17188 28
v -45 38.08594 28
v 45 34 28
v 45 38.08594 28
v 23.78906 49.17188 28
v 23.94141 45.10547 28.12891
v 45 34 -32
v 45 38.08594 -32
v 45 38.08594 28
v 45 34 28
v -45 38.08594 28
v -45 38.08594 -32
v -45 34 -32
v -45 34 28
vn 0 0.8691406 0.4941406
vn 0 0.8691406 0.4941406
vn 0 0.8691406 0.4941406
vn 0 0.8691406 0.4941406
vn -0.9648438 0 0.2636719
vn -0.9648438 0 0.2636719
vn -0.9648438 0 0.2636719
vn -0.9648438 0 0.2636719
vn 0.9648438 0 0.2636719
vn 0.9648438 0 0.2636719
vn 0.9648438 0 0.2636719
vn 0.9648438 0 0.2636719
vn 0 0 0.9980469
vn 0 0 0.9980469
vn 0 0 0.9980469
vn 0 0 0.9980469
vn 0 0.8691406 0.4941406
vn 0 0.8691406 0.4941406
vn 0 0.8691406 0.4941406
vn 0 0.8691406 0.4941406
vn -0.9648438 0 0.2636719
vn -0.9648438 0 0.2636719
vn -0.9648438 0 0.2636719
vn -0.9648438 0 0.2636719
vn 0.9648438 0 0.2636719
vn 0.9648438 0 0.2636719
vn 0.9648438 0 0.2636719
vn 0.9648438 0 0.2636719
vn 0 0 0.9980469
vn 0 0 0.9980469
vn 0 0 0.9980469
vn 0 0 0.9980469
vn 0 0 0.9980469
vn 0 0 0.9980469
vn 0 0 0.9980469
vn 0 0 0.9980469
vn -1 0 0
vn -1 0 0
vn -1 0 0
vn -1 0 0
vn 0.9980469 0 0
vn 0.9980469 0 0
vn 0.9980469 0 0
vn 0.9980469 0 0
vn 0 0 0.9980469
vn 0 0 0.9980469
vn 0 0 0.9980469
vn 0 0 0.9980469
vn 0 0 0.9980469
vn 0 0 0.9980469
vn 0 0 0.9980469
vn 0 0 0.9980469
vn 0.9980469 0 0
vn 0.9980469 0 0
vn 0.9980469 0 0
vn 0.9980469 0 0
vn -1 0 0
vn -1 0 0
vn -1 0 0
vn -1 0 0
vt 0.546875 -0.04882813
vt 0.859375 -0.04882813
vt 0.859375 -0.1152344
vt 0.546875 -0.1152344
vt 0.8320313 -0.171875
vt 0.8320313 -0.171875
vt 0.8652344 -0.171875
vt 0.8652344 -0.171875
vt 0.8652344 -0.171875
vt 0.8652344 -0.171875
vt 0.8320313 -0.171875
vt 0.8320313 -0.171875
vt 0.5722656 -0.1699219
vt 0.5722656 -0.1699219
vt 0.5390625 -0.171875
vt 0.5390625 -0.171875
vt 0.546875 -0.04882813
vt 0.859375 -0.04882813
vt 0.859375 -0.1152344
vt 0.546875 -0.1152344
vt 0.8320313 -0.171875
vt 0.8320313 -0.171875
vt 0.8652344 -0.171875
vt 0.8652344 -0.171875
vt 0.8652344 -0.171875
vt 0.8652344 -0.171875
vt 0.8320313 -0.171875
vt 0.8320313 -0.171875
vt 0.5722656 -0.1699219
vt 0.5722656 -0.1699219
vt 0.5390625 -0.171875
vt 0.5390625 -0.171875
vt 0.625 -0.984375
vt 0 -0.984375
vt 0 -0.2558594
vt 0.625 -0.2558594
vt -1.394531 0.01171875
vt -0.009765625 0.01367188
vt -0.01171875 0.7402344
vt -1.394531 0.7382813
vt -0.009765625 0.01367188
vt -1.394531 0.01171875
vt -1.394531 0.7382813
vt -0.01171875 0.7402344
vt 1.005859 -0.15625
vt 1.46875 -0.15625
vt 1.470703 -0.0078125
vt 1.007813 -0.0078125
vt 1.005859 -0.15625
vt 1.007813 -0.0078125
vt 1.470703 -0.0078125
vt 1.46875 -0.15625
vt 1.005859 -0.15625
vt 1.007813 -0.0078125
vt 1.501953 -0.0078125
vt 1.5 -0.15625
vt 1.501953 -0.0078125
vt 1.007813 -0.0078125
vt 1.005859 -0.15625
vt 1.5 -0.15625
f 49/49/49 50/50/50 51/51/51 52/52/52
f 53/53/53 54/54/54 55/55/55 56/56/56
f 57/57/57 58/58/58 59/59/59 60/60/60
f 61/61/61 62/62/62 63/63/63 64/64/64
f 65/65/65 66/66/66 67/67/67 68/68/68
f 69/69/69 70/70/70 71/71/71 72/72/72
f 73/73/73 74/74/74 75/75/75 76/76/76
f 77/77/77 78/78/78 79/79/79 80/80/80
f 81/81/81 82/82/82 83/83/83 84/84/84
f 85/85/85 86/86/86 87/87/87 88/88/88
f 89/89/89 90/90/90 91/91/91 92/92/92
f 93/93/93 94/94/94 95/95/95 96/96/96
f 97/97/97 98/98/98 99/99/99 100/100/100
f 101/101/101 102/102/102 103/103/103 104/104/104
f 105/105/105 106/106/106 107/107/107 108/108/108
v 45 34 28
v 23.94141 45.10547 28.12891
v 18 34 28
v -45 34 28
v -17 34 28
v -23.67188 45.1875 28.10547
vn 0 0 0.9980469
vn 0 0 0.9980469
vn 0 0 0.9980469
vn 0 0 0.9980469
vn 0 0 0.9980469
vn 0 0 0.9980469
vt 0.6132813 -0.359375
vt 0.9492188 -0.3710938
vt 0.6132813 -0.3691406
vt 0.6132813 -0.375
vt 0.6132813 -0.3574219
vt 0.9492188 -0.3613281
f 109/109/109 110/110/110 111/111/111
f 112/112/112 113/113/113 114/114/114
g polygon3
usemtl c5house1b
v 23.78906 49.17188 28
v 17.44141 52.53125 28
v 0 49.17188 28
v 0 52.53125 28
v -23.78906 49.17188 28
v -17.44141 52.53125 28
vn 0 0 0.9980469
vn 0 0 0.9980469
vn 0 0 0.9980469
vn 0 0 0.9980469
vn 0 0 0.9980469
vn 0 0 0.9980469
vt -1.40625 -0.6347656
vt -1.25 -0.59375
vt -0.734375 -0.6347656
vt -0.75 -0.59375
vt -0.0625 -0.6347656
vt -0.25 -0.59375
f 115/115/115 116/116/116 117/117/117
f 116/116/116 118/118/118 117/117/117
f 117/117/117 118/118/118 119/119/119
f 118/118/118 120/120/120 119/119/119
v -17.44141 52.53125 28
v 0 52.53125 28
v 0 59.94141 14.94141
v 17.44141 52.53125 28
vn 0 0.8691406 0.4941406
vn 0 0.8691406 0.4941406
vn 0 0.8691406 0.4941406
vn 0 0.8691406 0.4941406
vt -0.25 -0.21875
vt 0.65625 -0.21875
vt 0.65625 -0.59375
vt 1.5625 -0.21875
f 121/121/121 122/122/122 123/123/123
f 122/122/122 124/124/124 123/123/123
v 35.10938 60.83594 -23.45313
v 35.10938 60.83594 -17.29297
v 35.51172 49.17969 -17.00391
v 35.51172 49.17969 -23.74219
v -23.36328 55.41797 -17.00391
v -23.73438 60.83594 -17.29297
v -35.10938 60.83594 -17.29297
v -35.51172 49.17969 -17.00391
v -38.77344 47.37109 -23.55469
v -38.77344 47.37109 -17.35938
v -35.51172 49.17969 -17.00391
v -35.51172 49.17969 -23.74219
v -23.36328 55.41797 -17.00391
v -23.36328 55.41797 -23.74219
v -23.73438 60.83594 -23.45313
v -23.73438 60.83594 -17.29297
v -35.51172 49.17969 -23.74219
v -35.51172 49.17969 -17.00391
v -35.10938 60.83594 -17.29297
v -35.10938 60.83594 -23.45313
v 38.77344 47.37109 19.55469
v 38.77344 47.37109 13.35938
v 35.51172 49.17969 13.00391
v 35.51172 49.17969 19.74219
v 35.10938 60.83594 19.45313
v 35.10938 60.83594 13.29297
v 23.73438 60.83594 13.29297
v 23.73438 60.83594 19.45313
v 23.36328 55.41797 19.74219
v 35.51172 49.17969 19.74219
v 35.10938 60.83594 19.45313
v 23.73438 60.83594 19.45313
v 23.36328 55.41797 13.00391
v 23.36328 55.41797 19.74219
v 23.73438 60.83594 19.45313
v 23.73438 60.83594 13.29297
v 35.51172 49.17969 19.74219
v 35.51172 49.17969 13.00391
v 35.10938 60.83594 13.29297
v 35.10938 60.83594 19.45313
v -35.51172 49.17969 19.74219
v -35.51172 49.17969 13.00391
v -38.77344 47.37109 13.35938
v -38.77344 47.37109 19.55469
v -23.73438 60.83594 19.45313
v -23.73438 60.83594 13.29297
v -35.10938 60.83594 13.29297
v -35.10938 60.83594 19.45313
v -23.73438 60.83594 19.45313
v -35.10938 60.83594 19.45313
v -35.51172 49.17969 19.74219
v -23.36328 55.41797 19.74219
v -23.73438 60.83594 13.29297
v -23.73438 60.83594 19.45313
v -23.36328 55.41797 19.74219
v -23.36328 55.41797 13.00391
v -35.10938 60.83594 19.45313
v -35.10938 60.83594 13.29297
v -35.51172 49.17969 13.00391
v -35.51172 49.17969 19.74219
v 24.95313 52.53125 29
v 46.54297 41.25781 29
v 46.54297 41.25781 -33
v 24.95313 52.53125 -33
v -24.95313 52.53125 29
v -24.95313 52.53125 -33
v -46.54297 41.25781 -33
v -46.54297 41.25781 29
v 24.95313 52.53125 29
v 24.95313 52.53125 -33
v 3.265625 62.09375 -18
v 3.265625 62.09375 13
v -24.95313 52.53125 -33
v -24.95313 52.53125 29
v -3.265625 62.09375 13
v -3.265625 62.09375 -18
v 23.73438 60.83594 -23.45313
v 23.73438 60.83594 -17.29297
v 35.10938 60.83594 -17.29297
v 35.10938 60.83594 -23.45313
v -17 4 28
v -17 4 13
v -17 34 13
v -17 34 28
v -17 4 13
v 1 4 13
v 1 34 13
v -17 34 13
v 1 4 13
v 1 4 28
v 1 34 28
v 1 34 13
v 2.066406 64.05078 -18
v -2.066406 64.05078 -18
v -2.066406 64.05078 13
v 2.066406 64.05078 13
v 3.265625 62.09375 13
v 3.265625 62.09375 -18
v 2.066406 64.05078 -18
v 2.066406 64.05078 13
v -3.265625 62.09375 -18
v -3.265625 62.09375 13
v -2.066406 64.05078 13
v -2.066406 64.05078 -18
v -3.265625 62.09375 13
v 3.265625 62.09375 13
v 2.066406 64.05078 13
v -2.066406 64.05078 13
v -35.10938 60.83594 -23.45313
v -35.10938 60.83594 -17.29297
v -23.73438 60.83594 -17.29297
v -23.73438 60.83594 -23.45313
v -45 38.08594 28
v -46.54297 41.25781 29
v -46.54297 41.25781 -33
v -45 38.08594 -32
v 45 38.08594 -32
v 46.54297 41.25781 -33
v 46.54297 41.25781 29
v 45 38.08594 28
v 0 59.94141 -19.71875
v -17.44141 52.53125 -32
v -24.95313 52.53125 -33
v -3.265625 62.09375 -18
v 3.265625 62.09375 -18
v 24.95313 52.53125 -33
v 17.44141 52.53125 -32
v 0 59.94141 -19.71875
v -3.265625 62.09375 13
v -24.95313 52.53125 29
v -17.44141 52.53125 28
v 0 59.94141 14.94141
v 35.51172 49.17969 -17.00391
v 35.10938 60.83594 -17.29297
v 23.73438 60.83594 -17.29297
v 23.36328 55.41797 -17.00391
v -24.95313 52.53125 29
v -46.54297 41.25781 29
v -45 38.08594 28
v -23.78906 49.17188 28
v 0 59.94141 14.94141
v 17.44141 52.53125 28
v 24.95313 52.53125 29
v 3.265625 62.09375 13
v 35.51172 49.17969 -23.74219
v 35.51172 49.17969 -17.00391
v 38.77344 47.37109 -17.35938
v 38.77344 47.37109 -23.55469
v 23.78906 49.17188 28
v 45 38.08594 28
v 46.54297 41.25781 29
v 24.95313 52.53125 29
v 1 4 28
v 1 4 13
v -17 4 13
v -17 4 28
v 23.73438 60.83594 -17.29297
v 23.73438 60.83594 -23.45313
v 23.36328 55.41797 -23.74219
v 23.36328 55.41797 -17.00391
vn 0.9980469 0 0
vn 0.9980469 0 0
vn 0.9980469 0 0
vn 0.9980469 0 0
vn 0 0 0.9980469
vn 0 0 0.9980469
vn 0 0 0.9980469
vn 0 0 0.9980469
vn -0.4628906 0.8867188 0
vn -0.4628906 0.8867188 0
vn -0.4628906 0.8867188 0
vn -0.4628906 0.8867188 0
vn 0.9980469 0.06835938 0
vn 0.9980469 0.06835938 0
vn 0.9980469 0.06835938 0
vn 0.9980469 0.06835938 0
vn -1 0 0
vn -1 0 0
vn -1 0 0
vn -1 0 0
vn 0.4628906 0.8867188 0
vn 0.4628906 0.8867188 0
vn 0.4628906 0.8867188 0
vn 0.4628906 0.8867188 0
vn 0 0.9980469 0
vn 0 0.9980469 0
vn 0 0.9980469 0
vn 0 0.9980469 0
vn 0 0 0.9980469
vn 0 0 0.9980469
vn 0 0 0.9980469
vn 0 0 0.9980469
vn -0.9980469 0.06835938 0
vn -0.9980469 0.06835938 0
vn -0.9980469 0.06835938 0
vn -0.9980469 0.06835938 0
vn 0.9980469 0 0
vn 0.9980469 0 0
vn 0.9980469 0 0
vn 0.9980469 0 0
vn -0.4628906 0.8867188 0
vn -0.4628906 0.8867188 0
vn -0.4628906 0.8867188 0
vn -0.4628906 0.8867188 0
vn 0 0.9980469 0
vn 0 0.9980469 0
vn 0 0.9980469 0
vn 0 0.9980469 0
vn 0 0 0.9980469
vn 0 0 0.9980469
vn 0 0 0.9980469
vn 0 0 0.9980469
vn 0.9980469 0.06835938 0
vn 0.9980469 0.06835938 0
vn 0.9980469 0.06835938 0
vn 0.9980469 0.06835938 0
vn -1 0 0
vn -1 0 0
vn -1 0 0
vn -1 0 0
vn 0.4628906 0.8867188 0
vn 0.4628906 0.8867188 0
vn 0.4628906 0.8867188 0
vn 0.4628906 0.8867188 0
vn -0.4628906 0.8867188 0
vn -0.4628906 0.8867188 0
vn -0.4628906 0.8867188 0
vn -0.4628906 0.8867188 0
vn 0.4042969 0.9140625 0
vn 0.4042969 0.9140625 0
vn 0.4042969 0.9140625 0
vn 0.4042969 0.9140625 0
vn -0.4042969 0.9140625 0
vn -0.4042969 0.9140625 0
vn -0.4042969 0.9140625 0
vn -0.4042969 0.9140625 0
vn 0 0.9980469 0
vn 0 0.9980469 0
vn 0 0.9980469 0
vn 0 0.9980469 0
vn 0.9980469 0 0
vn 0.9980469 0 0
vn 0.9980469 0 0
vn 0.9980469 0 0
vn 0 0 0.9980469
vn 0 0 0.9980469
vn 0 0 0.9980469
vn 0 0 0.9980469
vn -1 0 0
vn -1 0 0
vn -1 0 0
vn -1 0 0
vn 0 0.9980469 0
vn 0 0.9980469 0
vn 0 0.9980469 0
vn 0 0.9980469 0
vn 0.8515625 0.5234375 0
vn 0.8515625 0.5234375 0
vn 0.8515625 0.5234375 0
vn 0.8515625 0.5234375 0
vn -0.8515625 0.5234375 0
vn -0.8515625 0.5234375 0
vn -0.8515625 0.5234375 0
vn -0.8515625 0.5234375 0
vn 0 0 0.9980469
vn 0 0 0.9980469
vn 0 0 0.9980469
vn 0 0 0.9980469
vn 0 0.9980469 0
vn 0 0.9980469 0
vn 0 0.9980469 0
vn 0 0.9980469 0
vn -0.8984375 -0.4375 0
vn -0.8984375 -0.4375 0
vn -0.8984375 -0.4375 0
vn -0.8984375 -0.4375 0
vn 0.8984375 -0.4375 0
vn 0.8984375 -0.4375 0
vn 0.8984375 -0.4375 0
vn 0.8984375 -0.4375 0
vn 0.1113281 0.765625 -0.6347656
vn 0.1113281 0.765625 -0.6347656
vn 0.1113281 0.765625 -0.6347656
vn 0.1113281 0.765625 -0.6347656
vn -0.1113281 0.765625 -0.6347656
vn -0.1113281 0.765625 -0.6347656
vn -0.1113281 0.765625 -0.6347656
vn -0.1113281 0.765625 -0.6347656
vn 0.1054688 0.7910156 0.6035156
vn 0.1054688 0.7910156 0.6035156
vn 0.1054688 0.7910156 0.6035156
vn 0.1054688 0.7910156 0.6035156
vn 0 0 0.9980469
vn 0 0 0.9980469
vn 0 0 0.9980469
vn 0 0 0.9980469
vn 0.1269531 -0.2421875 0.9628906
vn 0.1269531 -0.2421875 0.9628906
vn 0.1269531 -0.2421875 0.9628906
vn 0.1269531 -0.2421875 0.9628906
vn -0.1054688 0.7910156 0.6035156
vn -0.1054688 0.7910156 0.6035156
vn -0.1054688 0.7910156 0.6035156
vn -0.1054688 0.7910156 0.6035156
vn 0.4628906 0.8867188 0
vn 0.4628906 0.8867188 0
vn 0.4628906 0.8867188 0
vn 0.4628906 0.8867188 0
vn -0.1269531 -0.2421875 0.9628906
vn -0.1269531 -0.2421875 0.9628906
vn -0.1269531 -0.2421875 0.9628906
vn -0.1269531 -0.2421875 0.9628906
vn 0 0.9980469 0
vn 0 0.9980469 0
vn 0 0.9980469 0
vn 0 0.9980469 0
vn -0.9980469 0.06835938 0
vn -0.9980469 0.06835938 0
vn -0.9980469 0.06835938 0
vn -0.9980469 0.06835938 0
vt 0.01171875 -0.7558594
vt 0.2382813 -0.7558594
vt 0.2382813 -0.9960938
vt 0.015625 -0.9941406
vt 0.2382813 -0.859375
vt 0.2382813 -0.7558594
vt 0.01171875 -0.7558594
vt 0.015625 -0.9941406
vt 0.265625 -0.8671875
vt 0.4882813 -0.8691406
vt 0.484375 -0.7558594
vt 0.2617188 -0.7578125
vt 0.2382813 -0.859375
vt 0.01171875 -0.859375
vt 0.01171875 -0.7558594
vt 0.2382813 -0.7558594
vt 0.015625 -0.9941406
vt 0.2382813 -0.9960938
vt 0.2382813 -0.7558594
vt 0.01171875 -0.7558594
vt 0.265625 -0.8671875
vt 0.4882813 -0.8691406
vt 0.484375 -0.7558594
vt 0.2617188 -0.7578125
vt 0.46875 -0.984375
vt 0.46875 -0.890625
vt 0.28125 -0.890625
vt 0.28125 -0.984375
vt 0.2382813 -0.859375
vt 0.015625 -0.9941406
vt 0.01171875 -0.7558594
vt 0.2382813 -0.7558594
vt 0.2382813 -0.859375
vt 0.01171875 -0.859375
vt 0.01171875 -0.7558594
vt 0.2382813 -0.7558594
vt 0.015625 -0.9941406
vt 0.2382813 -0.9960938
vt 0.2382813 -0.7558594
vt 0.01171875 -0.7558594
vt 0.2617188 -0.7578125
vt 0.484375 -0.7558594
vt 0.4882813 -0.8691406
vt 0.265625 -0.8671875
vt 0.28125 -0.984375
vt 0.28125 -0.890625
vt 0.46875 -0.890625
vt 0.46875 -0.984375
vt 0.2382813 -0.7558594
vt 0.01171875 -0.7558594
vt 0.015625 -0.9941406
vt 0.2382813 -0.859375
vt 0.2382813 -0.7558594
vt 0.01171875 -0.7558594
vt 0.01171875 -0.859375
vt 0.2382813 -0.859375
vt 0.01171875 -0.7558594
vt 0.2382813 -0.7558594
vt 0.2382813 -0.9960938
vt 0.015625 -0.9941406
vt 2 -0.125
vt 2 -0.59375
vt -1 -0.59375
vt -1 -0.125
vt 2 -0.125
vt -1 -0.125
vt -1 -0.59375
vt 2 -0.59375
vt 2 -0.125
vt -1 -0.125
vt -0.25 -0.59375
vt 1.25 -0.59375
vt -1 -0.125
vt 2 -0.125
vt 1.25 -0.59375
vt -0.25 -0.59375
vt 0.46875 -0.890625
vt 0.46875 -0.984375
vt 0.28125 -0.984375
vt 0.28125 -0.890625
vt 0 -0.7421875
vt 0.515625 -0.7421875
vt 0.515625 -0.6621094
vt 0 -0.6621094
vt 0.515625 -0.7421875
vt 0.9882813 -0.7421875
vt 0.9882813 -0.6621094
vt 0.515625 -0.6621094
vt 0.515625 -0.7421875
vt 0 -0.7421875
vt 0 -0.6621094
vt 0.515625 -0.6621094
vt 2.0625 -0.078125
vt 2.0625 -0.015625
vt -0.75 -0.015625
vt -0.75 -0.078125
vt 2.058594 -0.0078125
vt -0.7539063 -0.0078125
vt -0.75 -0.03125
vt 2.0625 -0.03125
vt 2.058594 -0.0078125
vt -0.7539063 -0.0078125
vt -0.75 -0.03125
vt 2.0625 -0.03125
vt 0.4375 0.359375
vt 0.5 0.359375
vt 0.5 0.40625
vt 0.4375 0.40625
vt 0.28125 -0.890625
vt 0.28125 -0.984375
vt 0.46875 -0.984375
vt 0.46875 -0.890625
vt 1 -0.6347656
vt 1 -0.59375
vt 0 -0.59375
vt 0 -0.6347656
vt 1 -0.6347656
vt 1 -0.59375
vt 0 -0.59375
vt 0 -0.6347656
vt 1.5625 -0.0859375
vt 0.5625 -0.0859375
vt 0.2460938 -0.0078125
vt 1.558594 -0.0078125
vt 1.558594 -0.0078125
vt 0.2460938 -0.0078125
vt 0.5625 -0.0859375
vt 1.5625 -0.0859375
vt 1.558594 -0.0078125
vt 0.2460938 -0.0078125
vt 0.5625 -0.0859375
vt 1.5625 -0.0859375
vt 0.015625 -0.9941406
vt 0.01171875 -0.7558594
vt 0.2382813 -0.7558594
vt 0.2382813 -0.859375
vt 0 -0.59375
vt 1 -0.59375
vt 1 -0.6347656
vt 0 -0.6347656
vt 1.5625 -0.0859375
vt 0.5625 -0.0859375
vt 0.2460938 -0.0078125
vt 1.558594 -0.0078125
vt 0.2617188 -0.7578125
vt 0.484375 -0.7558594
vt 0.4882813 -0.8691406
vt 0.265625 -0.8671875
vt 0 -0.6347656
vt 1 -0.6347656
vt 1 -0.59375
vt 0 -0.59375
vt 0.9882813 -0.9921875
vt 0.9882813 -0.7421875
vt 0.515625 -0.7421875
vt 0.515625 -0.9921875
vt 0.2382813 -0.7558594
vt 0.01171875 -0.7558594
vt 0.01171875 -0.859375
vt 0.2382813 -0.859375
f 125/125/125 126/126/126 127/127/127 128/128/128
f 129/129/129 130/130/130 131/131/131 132/132/132
f 133/133/133 134/134/134 135/135/135 136/136/136
f 137/137/137 138/138/138 139/139/139 140/140/140
f 141/141/141 142/142/142 143/143/143 144/144/144
f 145/145/145 146/146/146 147/147/147 148/148/148
f 149/149/149 150/150/150 151/151/151 152/152/152
f 153/153/153 154/154/154 155/155/155 156/156/156
f 157/157/157 158/158/158 159/159/159 160/160/160
f 161/161/161 162/162/162 163/163/163 164/164/164
f 165/165/165 166/166/166 167/167/167 168/168/168
f 169/169/169 170/170/170 171/171/171 172/172/172
f 173/173/173 174/174/174 175/175/175 176/176/176
f 177/177/177 178/178/178 179/179/179 180/180/180
f 181/181/181 182/182/182 183/183/183 184/184/184
f 185/185/185 186/186/186 187/187/187 188/188/188
f 189/189/189 190/190/190 191/191/191 192/192/192
f 193/193/193 194/194/194 195/195/195 196/196/196
f 197/197/197 198/198/198 199/199/199 200/200/200
f 201/201/201 202/202/202 203/203/203 204/204/204
f 205/205/205 206/206/206 207/207/207 208/208/208
f 209/209/209 210/210/210 211/211/211 212/212/212
f 213/213/213 214/214/214 215/215/215 216/216/216
f 217/217/217 218/218/218 219/219/219 220/220/220
f 221/221/221 222/222/222 223/223/223 224/224/224
f 225/225/225 226/226/226 227/227/227 228/228/228
f 229/229/229 230/230/230 231/231/231 232/232/232
f 233/233/233 234/234/234 235/235/235 236/236/236
f 237/237/237 238/238/238 239/239/239 240/240/240
f 241/241/241 242/242/242 243/243/243 244/244/244
f 245/245/245 246/246/246 247/247/247 248/248/248
f 249/249/249 250/250/250 251/251/251 252/252/252
f 253/253/253 254/254/254 255/255/255 256/256/256
f 257/257/257 258/258/258 259/259/259 260/260/260
f 261/261/261 262/262/262 263/263/263 264/264/264
f 265/265/265 266/266/266 267/267/267 268/268/268
f 269/269/269 270/270/270 271/271/271 272/272/272
f 273/273/273 274/274/274 275/275/275 276/276/276
f 277/277/277 278/278/278 279/279/279 280/280/280
f 281/281/281 282/282/282 283/283/283 284/284/284
v 17.44141 52.53125 -32
v -17.44141 52.53125 -32
v 0 59.94141 -19.71875
v 3.265625 62.09375 13
v -3.265625 62.09375 13
v 0 59.94141 14.94141
v -17.44141 52.53125 28
v -24.95313 52.53125 29
v -23.78906 49.17188 28
v 23.78906 49.17188 28
v 24.95313 52.53125 29
v 17.44141 52.53125 28
vn 0 0.8554688 -0.5175781
vn 0 0.8554688 -0.5175781
vn 0 0.8554688 -0.5175781
vn 0 0.6699219 0.7421875
vn 0 0.6699219 0.7421875
vn 0 0.6699219 0.7421875
vn 0.1269531 -0.2421875 0.9628906
vn 0.1269531 -0.2421875 0.9628906
vn 0.1269531 -0.2421875 0.9628906
vn -0.1269531 -0.2421875 0.9628906
vn -0.1269531 -0.2421875 0.9628906
vn -0.1269531 -0.2421875 0.9628906
vt 1.5625 -0.21875
vt -0.25 -0.21875
vt 0.65625 -0.59375
vt 0.8085938 -0.0078125
vt 0.7460938 -0.0078125
vt 0.78125 -0.0859375
vt -0.25 -0.59375
vt -0.0625 -0.59375
vt -0.0625 -0.6347656
vt -1.40625 -0.6347656
vt -1.40625 -0.59375
vt -1.25 -0.59375
f 285/285/285 286/286/286 287/287/287
f 288/288/288 289/289/289 290/290/290
f 291/291/291 292/292/292 293/293/293
f 294/294/294 295/295/295 296/296/296
