<?xml version="1.0" encoding="utf-8"?><COLLADA xmlns="http://www.collada.org/2005/11/COLLADASchema" version="1.4.1">
  <asset>
    <created>2026-07-27T16:58:12Z</created>
    <modified>2026-07-27T16:58:12Z</modified>
  </asset>
  <library_images>
    <image id="image-c8lb_bigice01">
      <init_from>c8lb_bigice01.png</init_from>
    </image>
    <image id="image-c8lb_bigice02">
      <init_from>c8lb_bigice02.png</init_from>
    </image>
    <image id="image-c8lb_bigice04">
      <init_from>c8lb_bigice04.png</init_from>
    </image>
  </library_images>
  <library_materials>
    <material id="material0" name="c8lb_bigice01">
      <instance_effect url="#effect0"/>
    </material>
    <material id="material1" name="c8lb_bigice02">
      <instance_effect url="#effect1"/>
    </material>
    <material id="material2" name="c8lb_bigice04">
      <instance_effect url="#effect2"/>
    </material>
  </library_materials>
  <library_effects>
    <effect id="effect0" name="c8lb_bigice01">
      <profile_COMMON>
        <newparam sid="Image-surface">
          <surface type="2D">
            <init_from>image-c8lb_bigice01</init_from>
            <format>A8R8G8B8</format>
          </surface>
        </newparam>
        <newparam sid="Image-sampler">
          <sampler2D>
            <source>Image-surface</source>
            <wrap_s>WRAP</wrap_s>
            <wrap_t>WRAP</wrap_t>
            <minfilter>NEAREST</minfilter>
            <magfilter>NEAREST</magfilter>
            <mipfilter>NEAREST</mipfilter>
          </sampler2D>
        </newparam>
        <technique sid="common">
          <phong>
            <emission>
              <color>0.0 0.0 0.0 1.0</color>
            </emission>
            <ambient>
              <color>1 1 1 1</color>
            </ambient>
            <diffuse>
              <texture texture="Image-sampler" texcoord="tc"/>
            </diffuse>
            <specular>
              <color>0 0 0 1</color>
            </specular>
            <transparent>
              <texture texture="Image-sampler" texcoord="tc"/>
            </transparent>
          </phong>
        </technique>
      </profile_COMMON>
    </effect>
    <effect id="effect1" name="c8lb_bigice02">
      <profile_COMMON>
        <newparam sid="Image-surface">
          <surface type="2D">
            <init_from>image-c8lb_bigice02</init_from>
            <format>A8R8G8B8</format>
          </surface>
        </newparam>
        <newparam sid="Image-sampler">
          <sampler2D>
            <source>Image-surface</source>
            <wrap_s>WRAP</wrap_s>
            <wrap_t>WRAP</wrap_t>
            <minfilter>NEAREST</minfilter>
            <magfilter>NEAREST</magfilter>
            <mipfilter>NEAREST</mipfilter>
          </sampler2D>
        </newparam>
        <technique sid="common">
          <phong>
            <emission>
              <color>0.516129 0.516129 0.516129 1</color>
            </emission>
            <ambient>
              <color>1 1 1 1</color>
            </ambient>
            <diffuse>
              <texture texture="Image-sampler" texcoord="tc"/>
            </diffuse>
            <specular>
              <color>0 0 0 1</color>
            </specular>
          </phong>
        </technique>
      </profile_COMMON>
    </effect>
    <effect id="effect2" name="c8lb_bigice04">
      <profile_COMMON>
        <newparam sid="Image-surface">
          <surface type="2D">
            <init_from>image-c8lb_bigice04</init_from>
            <format>A8R8G8B8</format>
          </surface>
        </newparam>
        <newparam sid="Image-sampler">
          <sampler2D>
            <source>Image-surface</source>
            <wrap_s>MIRROR</wrap_s>
            <wrap_t>MIRROR</wrap_t>
            <minfilter>NEAREST</minfilter>
            <magfilter>NEAREST</magfilter>
            <mipfilter>NEAREST</mipfilter>
          </sampler2D>
        </newparam>
        <technique sid="common">
          <phong>
            <emission>
              <color>0.0 0.0 0.0 1.0</color>
            </emission>
            <ambient>
              <color>1 1 1 1</color>
            </ambient>
            <diffuse>
              <texture texture="Image-sampler" texcoord="tc"/>
            </diffuse>
            <specular>
              <color>0 0 0 1</color>
            </specular>
            <transparent>
              <texture texture="Image-sampler" texcoord="tc"/>
            </transparent>
          </phong>
        </technique>
      </profile_COMMON>
    </effect>
  </library_effects>
  <library_geometries>
    <geometry id="geometry" name="bigicicle_01">
      <mesh>
        <source id="positions">
          <float_array id="positions-array" count="903">43.1875 7.6328125 -6.4765625 34.164063 7.6328125 -6.4296875 29.789063 7.6328125 25.023438 25.835938 7.6328125 18.054688 6.875 7.6328125 38.679688 6.109375 7.6328125 28.820313 -26.828125 7.6328125 34.539063 -21.484375 7.6328125 25.1875 -32.585938 7.6328125 -29.460938 -21.484375 7.6328125 25.1875 -17.101563 7.6328125 -47.757813 6.109375 7.6328125 28.820313 24.3125 7.6328125 -36.382813 25.835938 7.6328125 18.054688 -23.828125 26.796875 -30.921875 -31.671875 8.8515625 -29.242188 -25.929688 26.796875 -7.203125 -32.960938 8.8515625 2.0390625 35.875 34 -1.5 37.28125 26.867188 -11.4375 30.507813 8.8515625 4.3984375 33.609375 8.8515625 -6.9609375 -9.5 41.859375 3.5625 -20.476563 26.796875 0.703125 -22.171875 8.8515625 25.851563 -32.960938 8.8515625 2.0390625 34.164063 7.6328125 -6.4296875 43.1875 7.6328125 -6.4765625 31.773438 7.6328125 -44.273438 24.3125 7.6328125 -36.382813 -42.632813 7.6328125 4.0234375 -26.828125 7.6328125 34.539063 -21.484375 7.6328125 25.1875 -33.15625 7.6328125 0.515625 -42.390625 7.6328125 -34.601563 -42.632813 7.6328125 4.0234375 -33.15625 7.6328125 0.515625 -32.585938 7.6328125 -29.460938 -20.625 7.6328125 -57.21875 -42.390625 7.6328125 -34.601563 -32.585938 7.6328125 -29.460938 -17.101563 7.6328125 -47.757813 31.773438 7.6328125 -44.273438 -20.625 7.6328125 -57.21875 -17.101563 7.6328125 -47.757813 24.3125 7.6328125 -36.382813 -25.929688 26.796875 -7.203125 -32.960938 8.8515625 2.0390625 -20.476563 26.796875 0.703125 23.328125 26.945313 -2.40625 35.875 34 -1.5 30.507813 8.8515625 4.3984375 -22.171875 8.8515625 25.851563 -3.40625 30.414063 10.0546875 -9.5 41.859375 3.5625 6.4609375 8.8515625 30.523438 4.6640625 26.796875 13.6484375 -3.40625 30.414063 10.0546875 30.507813 8.8515625 4.3984375 11.578125 32.984375 5.578125 25.304688 8.8515625 18.570313 25.304688 8.8515625 18.570313 11.578125 32.984375 5.578125 6.4609375 8.8515625 30.523438 -6.2734375 8.8515625 29.695313 -3.40625 30.414063 10.0546875 -22.171875 8.8515625 25.851563 6.4609375 8.8515625 30.523438 -3.40625 30.414063 10.0546875 -6.2734375 8.8515625 29.695313 6.4609375 8.8515625 30.523438 11.578125 32.984375 5.578125 4.6640625 26.796875 13.6484375 30.507813 8.8515625 4.3984375 23.328125 26.945313 -2.40625 11.578125 32.984375 5.578125 34.164063 7.6328125 -6.4296875 24.3125 7.6328125 -36.382813 25.835938 7.6328125 18.054688 -32.585938 7.6328125 -29.460938 -33.15625 7.6328125 0.515625 -21.484375 7.6328125 25.1875 6.03125 21.6875 -2.5546875 13.5234375 21.6875 -9.28125 34.007813 101.53906 -1.1328125 -9.6015625 21.6875 -9.3125 34.007813 101.53906 -1.1328125 19.390625 106.14844 -5.625 -9.6015625 21.6875 -9.3125 -5.7734375 8 9.4609375 6.8515625 52.882813 5.9921875 6.03125 21.6875 -2.5546875 -9.6015625 21.6875 -9.3125 6.8515625 52.882813 5.9921875 -5.7734375 8 9.4609375 6.03125 21.6875 -2.5546875 6.8515625 52.882813 5.9921875 -13.1640625 8 -38.523438 -0.46875 40.1875 -20.226563 -0.46875 28.65625 -20.226563 42.015625 43.375 -7.7578125 20.84375 13.6953125 -5.1328125 24.0625 8 -2.1796875 24.0625 8 -2.1796875 20.84375 13.6953125 -5.1328125 24 8 15.6953125 20.84375 13.6953125 -5.1328125 13.5234375 21.6875 -9.28125 24 8 15.6953125 -26.789063 8 -25.179688 -27.984375 8 -2.296875 -10.6171875 76.58594 -32.335938 -0.46875 40.1875 -20.226563 -13.1640625 8 -38.523438 -10.6171875 76.58594 -32.335938 -9.6015625 21.6875 -9.3125 -0.46875 40.1875 -20.226563 -10.6171875 76.58594 -32.335938 -27.984375 8 -2.296875 -9.6015625 21.6875 -9.3125 -10.6171875 76.58594 -32.335938 -13.1640625 8 -38.523438 -26.789063 8 -25.179688 -10.6171875 76.58594 -32.335938 13.5234375 21.6875 -9.28125 20.304688 8 -28.75 45.398438 43.53125 -37.984375 -0.46875 28.65625 -20.226563 13.5234375 21.6875 -9.28125 45.398438 43.53125 -37.984375 -13.1640625 8 -38.523438 -0.46875 28.65625 -20.226563 45.398438 43.53125 -37.984375 13.5234375 21.6875 -9.28125 20.84375 13.6953125 -5.1328125 42.015625 43.375 -7.7578125 20.304688 8 -28.75 13.5234375 21.6875 -9.28125 42.015625 43.375 -7.7578125 24.0625 8 -2.1796875 29.429688 8 -19.054688 42.015625 43.375 -7.7578125 19.96875 108.984375 -21.515625 -9.6015625 21.6875 -9.3125 19.390625 106.14844 -5.625 -20.765625 8 19.835938 -5.7734375 8 9.4609375 -9.6015625 21.6875 -9.3125 -27.984375 8 -2.296875 -20.765625 8 19.835938 -9.6015625 21.6875 -9.3125 6.03125 21.6875 -2.5546875 -5.7734375 8 9.4609375 6.234375 8 21.5625 13.5234375 21.6875 -9.28125 6.03125 21.6875 -2.5546875 6.234375 8 21.5625 24 8 15.6953125 13.5234375 21.6875 -9.28125 6.234375 8 21.5625 34.945313 106.13281 -26.84375 19.96875 108.984375 -21.515625 37.09375 125.30469 -11.203125 19.96875 108.984375 -21.515625 19.390625 106.14844 -5.625 37.09375 125.30469 -11.203125 19.390625 106.14844 -5.625 34.007813 101.53906 -1.1328125 37.09375 125.30469 -11.203125 34.007813 101.53906 -1.1328125 43.625 101.53125 -14.25 37.09375 125.30469 -11.203125 43.625 101.53125 -14.25 34.945313 106.13281 -26.84375 37.09375 125.30469 -11.203125 34.945313 106.13281 -26.84375 -0.46875 40.1875 -20.226563 19.96875 108.984375 -21.515625 34.007813 101.53906 -1.1328125 13.5234375 21.6875 -9.28125 43.625 101.53125 -14.25 -9.6015625 21.6875 -9.3125 6.03125 21.6875 -2.5546875 34.007813 101.53906 -1.1328125 -0.46875 40.1875 -20.226563 -9.6015625 21.6875 -9.3125 19.96875 108.984375 -21.515625 10.953125 39.695313 1.34375 36.15625 99.52344 1.0390625 18.03125 105.97656 -3.3984375 21.273438 30.875 -7.8828125 6.1875 6.7109375 26.84375 23.5625 18.570313 -0.5703125 10.953125 39.695313 1.34375 8.9453125 65.84375 8.0234375 8.3984375 25.492188 3.15625 21.273438 30.875 -7.8828125 23.5625 18.570313 -0.5703125 45.289063 48.507813 -6.7421875 -7.546875 34.640625 -8.3125 -6.2890625 6.7109375 13.328125 8.9453125 65.84375 8.0234375 10.953125 39.695313 1.34375 -7.546875 34.640625 -8.3125 8.9453125 65.84375 8.0234375 8.3984375 25.492188 3.15625 8.9453125 65.84375 8.0234375 -6.2890625 6.7109375 13.328125 -10.6171875 83.66406 -32.335938 -0.09375 46.15625 -22.03125 2.84375 34.773438 -33.140625 2.84375 34.773438 -33.140625 -0.09375 46.15625 -22.03125 18.859375 110.58594 -23.1875 8.3984375 25.492188 3.15625 21.273438 30.875 -7.8828125 36.15625 99.52344 1.0390625 8.3984375 25.492188 3.15625 36.15625 99.52344 1.0390625 10.953125 39.695313 1.34375 26.742188 6.7109375 -1.53125 23.5625 18.570313 -0.5703125 26.84375 6.7109375 19.304688 -30.6875 6.7109375 -29.695313 -31.953125 6.7109375 1.703125 -10.6171875 83.66406 -32.335938 2.84375 34.773438 -33.140625 -17.953125 6.7109375 -48 -10.6171875 83.66406 -32.335938 -7.546875 34.640625 -8.3125 -0.09375 46.15625 -22.03125 -10.6171875 83.66406 -32.335938 -31.953125 6.7109375 1.703125 -7.546875 34.640625 -8.3125 -10.6171875 83.66406 -32.335938 -17.953125 6.7109375 -48 -30.6875 6.7109375 -29.695313 -10.6171875 83.66406 -32.335938 21.273438 30.875 -7.8828125 28 16.023438 -28 48.125 45.585938 -38.351563 2.84375 34.773438 -33.140625 21.273438 30.875 -7.8828125 48.125 45.585938 -38.351563 -17.953125 6.7109375 -48 2.84375 34.773438 -33.140625 48.125 45.585938 -38.351563 23.5625 18.570313 -0.5703125 26.742188 6.7109375 -1.53125 45.289063 48.507813 -6.7421875 28 16.023438 -28 21.273438 30.875 -7.8828125 45.289063 48.507813 -6.7421875 26.742188 6.7109375 -1.53125 31.75 6.7109375 -21.289063 45.289063 48.507813 -6.7421875 18.859375 110.58594 -23.1875 -7.546875 34.640625 -8.3125 18.03125 105.97656 -3.3984375 -22.0625 6.7109375 24 -6.2890625 6.7109375 13.328125 -7.546875 34.640625 -8.3125 -31.953125 6.7109375 1.703125 -22.0625 6.7109375 24 -7.546875 34.640625 -8.3125 8.3984375 25.492188 3.15625 -6.2890625 6.7109375 13.328125 6.1875 6.7109375 26.84375 21.273438 30.875 -7.8828125 8.3984375 25.492188 3.15625 6.1875 6.7109375 26.84375 23.5625 18.570313 -0.5703125 6.1875 6.7109375 26.84375 26.84375 6.7109375 19.304688 36.195313 105.96094 -29.992188 18.859375 110.58594 -23.1875 38.421875 129.90625 -11.203125 18.859375 110.58594 -23.1875 18.03125 105.97656 -3.3984375 38.421875 129.90625 -11.203125 18.03125 105.97656 -3.3984375 36.15625 99.52344 1.0390625 38.421875 129.90625 -11.203125 36.15625 99.52344 1.0390625 46.382813 99.50781 -15.4921875 38.421875 129.90625 -11.203125 46.382813 99.50781 -15.4921875 36.195313 105.96094 -29.992188 38.421875 129.90625 -11.203125 36.195313 105.96094 -29.992188 2.84375 34.773438 -33.140625 18.859375 110.58594 -23.1875 36.15625 99.52344 1.0390625 21.273438 30.875 -7.8828125 46.382813 99.50781 -15.4921875 10.953125 39.695313 1.34375 18.03125 105.97656 -3.3984375 -7.546875 34.640625 -8.3125 -0.09375 46.15625 -22.03125 -7.546875 34.640625 -8.3125 18.859375 110.58594 -23.1875 </float_array>
          <technique_common>
            <accessor source="#positions-array" count="301" stride="3">
              <param name="X" type="float"/>
              <param name="Y" type="float"/>
              <param name="Z" type="float"/>
            </accessor>
          </technique_common>
        </source>
        <source id="texcoords">
          <float_array id="texcoords-array" count="602">1 0.9941406 1 0.1796875 -1 0.9941406 -1 0.1796875 1 0.9941406 1 0.1796875 -1 0.9941406 -1 0.1796875 -1 0.1796875 -1 0.1796875 -1 0.1796875 -0.6953125 0.1796875 -1 0.1796875 -1 0.1796875 -0.6953125 0.9941406 -1.8945313 0.1796875 0.84765625 0.9941406 2.8945313 0.1796875 1.6289063 0.9199219 1.03125 0.8359375 2.8945313 0.1796875 0.00390625 0.18359375 -0.6953125 0.9941406 1.6953125 0.9941406 -1.8945313 0.1796875 2.8945313 0.1796875 -1 0.1796875 -1 0.9941406 1 0.9941406 1 0.1796875 -1 0.9941406 1 0.9941406 1 0.1796875 -1 0.1796875 -1 0.9941406 1 0.9941406 1 0.1796875 -1 0.1796875 -1 0.9941406 1 0.9941406 1 0.1796875 -1 0.1796875 -1 0.9941406 1 0.9941406 1 0.1796875 -1 0.1796875 0.84765625 0.9941406 2.8945313 0.1796875 1.6953125 0.9941406 2.3867188 1.0273438 1.6289063 0.9199219 2.8945313 0.1796875 -1.8945313 0.1796875 1.6953125 0.9941406 -0.6953125 0.9941406 2.8945313 0.1796875 1.6953125 0.9941406 -0.6953125 0.9941406 2.8945313 0.1796875 -0.6953125 0.9941406 -1.8945313 0.1796875 2.8945313 0.1796875 1.6953125 0.9941406 -1.8945313 0.1796875 2.8945313 0.1796875 1.6953125 0.9941406 -1.8945313 0.1796875 2.8945313 0.1796875 -0.6953125 0.9941406 -1.8945313 0.1796875 -1.8945313 0.1796875 1.6953125 0.9941406 -0.6953125 0.9941406 2.8945313 0.1796875 1.9179688 0.84375 -0.6953125 0.9941406 -1 0.1796875 -1 0.1796875 -1 0.1796875 -1 0.1796875 -1 0.1796875 -1 0.1796875 0.51464844 0.98535156 0.97753906 0.98535156 0.5126953 0.0146484375 0.48828125 0.0146484375 0.018554688 0.98046875 0.49023438 0.98535156 0.98828125 0.98339844 0.54785156 0.0146484375 0.9863281 0.0234375 0.49609375 0.0146484375 0.26660156 0.98339844 0.265625 0.33691406 0.020507813 0.0146484375 0.48339844 0.0146484375 0.25390625 0.98339844 0.10546875 0.9472656 0.10546875 0.9472656 0.10546875 0.9472656 0.4794922 0.97558594 0.2890625 0.0048828125 0.45898438 0.0048828125 0.0390625 0.9580078 0.0390625 0.9580078 0.0390625 0.9580078 0.0390625 0.9580078 0.0390625 0.9580078 0.0390625 0.9580078 0.63183594 0.12792969 0.63183594 0.12792969 0.63183594 0.12792969 0.5205078 0.0146484375 0.984375 0.0146484375 0.7548828 0.98339844 0.009765625 0.0146484375 0.47265625 0.0146484375 0.24316406 0.98339844 0.51660156 0.98339844 0.9794922 0.98339844 0.75 0.0146484375 0.5205078 0.0146484375 0.984375 0.0146484375 0.7548828 0.98339844 0.47265625 0.0146484375 0.009765625 0.0146484375 0.25097656 0.5625 0.48828125 0.0146484375 0.024414063 0.0146484375 0.25390625 0.98339844 0.10546875 0.9472656 0.10546875 0.9472656 0.10546875 0.9472656 0.48828125 0.0146484375 0.024414063 0.0146484375 0.25390625 0.98339844 0.5205078 0.0146484375 0.984375 0.0146484375 0.7548828 0.98339844 0.009765625 0.0146484375 0.47265625 0.0146484375 0.24316406 0.98339844 0.52441406 0.9873047 0.9951172 0.0126953125 0.9951172 0.9873047 0.5205078 0.0146484375 0.984375 0.0146484375 0.7548828 0.98339844 0.033203125 0.0146484375 0.49609375 0.0146484375 0.26660156 0.98339844 0.5205078 0.0146484375 0.984375 0.0146484375 0.7548828 0.98339844 0.040039063 0.98339844 0.040039063 0.98339844 0.040039063 0.98339844 0.5205078 0.0146484375 0.984375 0.0146484375 0.7548828 0.98339844 0.009765625 0.0146484375 0.47265625 0.0146484375 0.24316406 0.23925781 0.52246094 0.0146484375 0.51953125 0.38867188 0.93847656 0.4921875 0.52441406 0.0146484375 0.9560547 0.0146484375 0.5722656 0.72753906 0.009765625 0.0146484375 0.47265625 0.0146484375 0.24316406 0.23925781 0.009765625 0.0146484375 0.47265625 0.0146484375 0.24316406 0.98339844 0.24121094 0.8408203 0.30078125 0.30664063 0.009765625 0.8408203 0.5126953 0.0146484375 0.97753906 0.98535156 0.98339844 0.01953125 0.48828125 0.0146484375 0.024414063 0.0146484375 0.018554688 0.98046875 0.52441406 0.0126953125 0.9951172 0.0126953125 0.52441406 0.9873047 0.3642578 0.20996094 0.60839844 0.71191406 0.39648438 0.7910156 0.6191406 0.2919922 0.49316406 0 0.6660156 0.13183594 0.9472656 0.27246094 0.9472656 0.27246094 0.4375 0.21484375 0.6191406 0.2919922 0.6660156 0.13183594 1 0.3173828 0.9472656 0.27246094 0.9472656 0.27246094 0.9472656 0.27246094 0.9472656 0.27246094 0.9472656 0.27246094 0.9472656 0.27246094 0.4375 0.21484375 0.9472656 0.27246094 0.35253906 0 0.2529297 0.8798828 0.35546875 0.33984375 0.38378906 0.36816406 0.38378906 0.36816406 0.35546875 0.33984375 0.42871094 0.8466797 0.4375 0.21484375 0.6191406 0.2919922 0.60839844 0.71191406 0.4375 0.21484375 0.60839844 0.71191406 0.3642578 0.20996094 0.70410156 0 0.6660156 0.13183594 0.6767578 0 0 0 0.037109375 0 0.2529297 0.8798828 0.38378906 0.36816406 0.18164063 0 0.2529297 0.8798828 0.22949219 0.21484375 0.35546875 0.33984375 0.2529297 0.8798828 0.037109375 0 0.22949219 0.21484375 0.2529297 0.8798828 0.18164063 0 0 0 0.2529297 0.8798828 0.6191406 0.2919922 0.6279297 0.10644531 0.86621094 0.6269531 0.38378906 0.36816406 0.6191406 0.2919922 0.86621094 0.6269531 0.18164063 0 0.38378906 0.36816406 0.86621094 0.6269531 0.6660156 0.13183594 0.70410156 0 1 0.3173828 0.6279297 0.10644531 0.6191406 0.2919922 1 0.3173828 0.70410156 0 0.82910156 0 1 0.3173828 0.42871094 0.8466797 0.22949219 0.21484375 0.39648438 0.7910156 0.13378906 0 0.35253906 0 0.22949219 0.21484375 0.037109375 0 0.13378906 0 0.22949219 0.21484375 0.4375 0.21484375 0.35253906 0 0.49316406 0 0.6191406 0.2919922 0.4375 0.21484375 0.49316406 0 0.6660156 0.13183594 0.49316406 0 0.6767578 0 0.6220703 0.79003906 0.42871094 0.8466797 0.6669922 1 0.42871094 0.8466797 0.39648438 0.7910156 0.6669922 1 0.39648438 0.7910156 0.60839844 0.71191406 0.6669922 1 0.60839844 0.71191406 0.7480469 0.71191406 0.6669922 1 0.7480469 0.71191406 0.6220703 0.79003906 0.6669922 1 0.6220703 0.79003906 0.38378906 0.36816406 0.42871094 0.8466797 0.60839844 0.71191406 0.6191406 0.2919922 0.7480469 0.71191406 0.3642578 0.20996094 0.39648438 0.7910156 0.22949219 0.21484375 0.35546875 0.33984375 0.22949219 0.21484375 0.42871094 0.8466797 </float_array>
          <technique_common>
            <accessor source="#texcoords-array" count="301" stride="2">
              <param name="S" type="float"/>
              <param name="T" type="float"/>
            </accessor>
          </technique_common>
        </source>
        <source id="colors">
          <float_array id="colors-array" count="903">1 1 1 1 1 1 1 1 1 1 1 1 1 1 1 1 1 1 1 1 1 1 1 1 1 1 1 1 1 1 1 1 1 1 1 1 1 1 1 1 1 1 1 1 1 1 1 1 1 1 1 1 1 1 1 1 1 1 1 1 1 1 1 1 1 1 1 1 1 1 1 1 1 1 1 1 1 1 1 1 1 1 1 1 1 1 1 1 1 1 1 1 1 1 1 1 1 1 1 1 1 1 1 1 1 1 1 1 1 1 1 1 1 1 1 1 1 1 1 1 1 1 1 1 1 1 1 1 1 1 1 1 1 1 1 1 1 1 1 1 1 1 1 1 1 1 1 1 1 1 1 1 1 1 1 1 1 1 1 1 1 1 1 1 1 1 1 1 1 1 1 1 1 1 1 1 1 1 1 1 1 1 1 1 1 1 1 1 1 1 1 1 1 1 1 1 1 1 1 1 1 1 1 1 1 1 1 1 1 1 1 1 1 1 1 1 1 1 1 1 1 1 1 1 1 1 1 1 1 1 1 1 1 1 1 1 1 1 1 1 1 1 1 1 1 1 1 1 1 1 1 1 1 1 1 1 1 1 1 1 1 1 1 1 1 1 1 1 1 1 1 1 1 1 1 1 1 1 1 1 1 1 1 1 1 1 1 1 1 1 1 1 1 1 1 1 1 1 1 1 1 1 1 1 1 1 1 1 1 1 1 1 1 1 1 1 1 1 1 1 1 1 1 1 1 1 1 1 1 1 1 1 1 1 1 1 1 1 1 1 1 1 1 1 1 1 1 1 1 1 1 1 1 1 1 1 1 1 1 1 1 1 1 1 1 1 1 1 1 1 1 1 1 1 1 1 1 1 1 1 1 1 1 1 1 1 1 1 1 1 1 1 1 1 1 1 1 1 1 1 1 1 1 1 1 1 1 1 1 1 1 1 1 1 1 1 1 1 1 1 1 1 1 1 1 1 1 1 1 1 1 1 1 1 1 1 1 1 1 1 1 1 1 1 1 1 1 1 1 1 1 1 1 1 1 1 1 1 1 1 1 1 1 1 1 1 1 1 1 1 1 1 1 1 1 1 1 1 1 1 1 1 1 1 1 1 1 1 1 1 1 1 1 1 1 1 1 1 1 1 1 1 1 1 1 1 1 1 1 1 1 1 1 1 1 1 1 1 1 1 1 1 1 1 1 1 1 1 1 1 1 1 1 1 1 1 1 1 1 1 1 1 1 1 1 1 1 1 1 1 1 1 1 1 1 1 1 1 1 1 1 1 1 1 1 1 1 1 1 1 1 1 1 1 1 1 1 1 1 1 1 1 1 1 1 1 1 1 1 1 1 1 1 1 1 1 1 1 1 1 1 1 1 1 1 1 1 1 1 1 1 1 1 1 1 1 1 1 1 1 1 1 1 1 1 1 1 1 1 1 1 1 1 1 1 1 1 1 1 1 1 1 1 1 1 1 1 1 1 1 1 1 1 1 1 1 1 1 1 1 1 1 1 1 1 1 1 1 1 1 1 1 1 1 1 1 1 1 1 1 1 1 1 1 1 1 1 1 1 1 1 1 1 1 1 1 1 1 1 1 1 1 1 1 1 1 1 1 1 1 1 1 1 1 1 1 1 1 1 1 1 1 1 1 1 1 1 1 1 1 1 1 1 1 1 1 1 1 1 1 1 1 1 1 1 1 1 1 1 1 1 1 1 1 1 1 1 1 1 1 1 1 1 1 1 1 1 1 1 1 1 1 1 1 1 1 1 1 1 1 1 1 1 1 1 1 1 1 1 1 1 1 1 1 1 1 1 1 1 1 1 1 1 1 1 1 1 1 1 1 1 1 1 1 1 1 1 1 1 1 1 1 1 1 1 1 1 1 1 1 1 1 1 1 1 1 1 1 1 1 1 1 1 1 1 1 1 1 1 1 1 1 1 1 1 1 1 1 1 1 1 1 1 1 1 1 1 1 1 1 1 1 1 1 1 1 1 1 1 1 1 1 1 1 1 1 1 1 1 1 1 1 1 1 1 1 1 1 1 1 1 1 1 </float_array>
          <technique_common>
            <accessor source="#colors-array" count="301" stride="3">
              <param name="R" type="float"/>
              <param name="G" type="float"/>
              <param name="B" type="float"/>
            </accessor>
          </technique_common>
        </source>
        <source id="normals">
          <float_array id="normals-array" count="903">0 1 0 0 1 0 0 1 0 0 1 0 0 1 0 0 1 0 0 1 0 0 1 0 0 1 0 0 1 0 0 1 0 0 1 0 0 1 0 0 1 0 -0.9368926 0.347431 -0.039037194 -0.9368926 0.347431 -0.039037194 -0.9368926 0.347431 -0.039037194 -0.9368926 0.347431 -0.039037194 -0.95678675 0.13082594 -0.25969926 -0.95678675 0.13082594 -0.25969926 -0.95678675 0.13082594 -0.25969926 -0.95678675 0.13082594 -0.25969926 -0.758587 0.55329925 0.3441013 -0.758587 0.55329925 0.3441013 -0.758587 0.55329925 0.3441013 -0.758587 0.55329925 0.3441013 0 1 0 0 1 0 0 1 0 0 1 0 0 1 0 0 1 0 0 1 0 0 1 0 0 1 0 0 1 0 0 1 0 0 1 0 0 1 0 0 1 0 0 1 0 0 1 0 0 1 0 0 1 0 0 1 0 0 1 0 -0.701085 0.5233726 0.48431495 -0.701085 0.5233726 0.48431495 -0.701085 0.5233726 0.48431495 0.21667004 -0.26742157 -0.9389035 0.21667004 -0.26742157 -0.9389035 0.21667004 -0.26742157 -0.9389035 0.09957102 0.53104544 0.84147274 0.09957102 0.53104544 0.84147274 0.09957102 0.53104544 0.84147274 -0.04886794 0.6763323 0.73497385 -0.04886794 0.6763323 0.73497385 -0.04886794 0.6763323 0.73497385 0.76200074 0.58420056 0.2794003 0.6154575 0.6154575 0.49236596 0.6154575 0.6154575 0.49236596 0.6154575 0.6154575 0.49236596 0.6154575 0.6154575 0.49236596 0.4275281 0.6051768 0.671551 -0.11134979 0.6778663 0.7267039 -0.11134979 0.6778663 0.7267039 -0.17376782 0.67554677 0.7165482 -0.04886794 0.6763323 0.73497385 -0.11134979 0.6778663 0.7267039 -0.11134979 0.6778663 0.7267039 0.21113694 0.68033016 0.7018348 0.21113694 0.68033016 0.7018348 0.21113694 0.68033016 0.7018348 0.6479372 0.48009804 0.59134024 0.6479372 0.48009804 0.59134024 0.6479372 0.48009804 0.59134024 0 1 0 0 1 0 0 1 0 0 1 0 0 1 0 0 1 0 0.64830273 -0.24018444 0.72250605 0.64830273 -0.24018444 0.72250605 0.64830273 -0.24018444 0.72250605 -0.27743372 0.05275148 0.95929545 -0.27743372 0.05275148 0.95929545 -0.27743372 0.05275148 0.95929545 -0.88179165 0.27763727 0.38126245 -0.88179165 0.27763727 0.38126245 -0.88179165 0.27763727 0.38126245 0.38649103 0.23423699 -0.89205253 0.38649103 0.23423699 -0.89205253 0.38649103 0.23423699 -0.89205253 0.79626775 -0.17955057 0.5776844 0.79626775 -0.17955057 0.5776844 0.79626775 -0.17955057 0.5776844 0.8011848 0.023449311 -0.59795743 0.8011848 0.023449311 -0.59795743 0.8011848 0.023449311 -0.59795743 -0.30488238 0.29706487 0.9048752 -0.30488238 0.29706487 0.9048752 -0.30488238 0.29706487 0.9048752 0.8693164 0.49424055 0.00390704 0.8693164 0.49424055 0.00390704 0.8693164 0.49424055 0.00390704 0.71346104 0.69586885 0.08209689 0.71346104 0.69586885 0.08209689 0.71346104 0.69586885 0.08209689 -0.97309995 0.22471184 -0.050804414 -0.97309995 0.22471184 -0.050804414 -0.97309995 0.22471184 -0.050804414 0.8011848 0.023449311 -0.59795743 0.8011848 0.023449311 -0.59795743 0.8011848 0.023449311 -0.59795743 0.29262236 0.3745566 0.8798179 0.29262236 0.3745566 0.8798179 0.29262236 0.3745566 0.8798179 0.06250894 0.3867741 0.9200535 0.06250894 0.3867741 0.9200535 0.06250894 0.3867741 0.9200535 -0.697376 0.08985797 -0.7110501 -0.697376 0.08985797 -0.7110501 -0.697376 0.08985797 -0.7110501 0.74944556 -0.39033625 0.53476065 0.74944556 -0.39033625 0.53476065 0.74944556 -0.39033625 0.53476065 -0.043009788 0.81718594 0.5747672 -0.043009788 0.81718594 0.5747672 -0.043009788 0.81718594 0.5747672 -0.4391224 0.7318707 -0.52109194 -0.4391224 0.7318707 -0.52109194 -0.4391224 0.7318707 -0.52109194 -0.24626291 0.2579897 0.93423545 -0.24626291 0.2579897 0.93423545 -0.24626291 0.2579897 0.93423545 -0.45693713 0.6443985 -0.61315495 -0.45693713 0.6443985 -0.61315495 -0.45693713 0.6443985 -0.61315495 0.8732901 -0.40050218 0.27742103 0.8732901 -0.40050218 0.27742103 0.8732901 -0.40050218 0.27742103 -0.94565165 0.32433507 0.023445908 -0.94565165 0.32433507 0.023445908 -0.94565165 0.32433507 0.023445908 0.34982497 0.78954905 0.50421697 0.34982497 0.78954905 0.50421697 0.34982497 0.78954905 0.50421697 -0.54315424 0.8205927 0.17779508 -0.54315424 0.8205927 0.17779508 -0.54315424 0.8205927 0.17779508 -0.4477484 0.7762276 0.44383794 -0.4477484 0.7762276 0.44383794 -0.4477484 0.7762276 0.44383794 0.40424368 0.79677016 0.44915965 0.40424368 0.79677016 0.44915965 0.40424368 0.79677016 0.44915965 0.14246024 0.89184016 0.42933226 0.14246024 0.89184016 0.42933226 0.14246024 0.89184016 0.42933226 -0.14849387 0.63500667 -0.7581003 -0.14849387 0.63500667 -0.7581003 -0.14849387 0.63500667 -0.7581003 -0.7163038 0.69093066 0.097589076 -0.7163038 0.69093066 0.097589076 -0.7163038 0.69093066 0.097589076 -0.15048681 0.4026011 0.90292084 -0.15048681 0.4026011 0.90292084 -0.15048681 0.4026011 0.90292084 0.7978958 0.14436255 0.5852536 0.7978958 0.14436255 0.5852536 0.7978958 0.14436255 0.5852536 0.8344795 0.28923413 -0.4690283 0.8344795 0.28923413 -0.4690283 0.8344795 0.28923413 -0.4690283 -0.32053205 0.07817855 -0.94400597 -0.32053205 0.07817855 -0.94400597 -0.32053205 0.07817855 -0.94400597 0.7788068 -0.25765038 0.5719058 0.7788068 -0.25765038 0.5719058 0.7788068 -0.25765038 0.5719058 -0.39478734 0.12117235 0.91074705 -0.39478734 0.12117235 0.91074705 -0.39478734 0.12117235 0.91074705 -0.91148025 0.26544178 -0.31423622 -0.91148025 0.26544178 -0.31423622 -0.91148025 0.26544178 -0.31423622 -0.20504254 0.091780946 0.9744403 -0.20504254 0.091780946 0.9744403 -0.20504254 0.091780946 0.9744403 0.6479372 0.48009804 0.59134024 0.6479372 0.48009804 0.59134024 0.6479372 0.48009804 0.59134024 0.82830197 -0.0781417 0.55480605 0.82830197 -0.0781417 0.55480605 0.82830197 -0.0781417 0.55480605 -0.3534792 0.42769033 0.83194554 -0.3534792 0.42769033 0.83194554 -0.3534792 0.42769033 0.83194554 -0.88179165 0.27763727 0.38126245 -0.88179165 0.27763727 0.38126245 -0.88179165 0.27763727 0.38126245 0.38649103 0.23423699 -0.89205253 0.38649103 0.23423699 -0.89205253 0.38649103 0.23423699 -0.89205253 0.6499668 -0.099544466 0.7534149 0.6499668 -0.099544466 0.7534149 0.6499668 -0.099544466 0.7534149 0.96560836 0.2599715 -0.0039093457 0.96560836 0.2599715 -0.0039093457 0.96560836 0.2599715 -0.0039093457 -0.8485923 0.24049966 -0.4712229 -0.8485923 0.24049966 -0.4712229 -0.8485923 0.24049966 -0.4712229 0.64830273 -0.24018444 0.72250605 0.64830273 -0.24018444 0.72250605 0.64830273 -0.24018444 0.72250605 -0.44518685 0.19135225 0.8747531 -0.44518685 0.19135225 0.8747531 -0.44518685 0.19135225 0.8747531 0.96560836 0.2599715 -0.0039093457 0.96560836 0.2599715 -0.0039093457 0.96560836 0.2599715 -0.0039093457 -0.97309995 0.22471184 -0.050804414 -0.97309995 0.22471184 -0.050804414 -0.97309995 0.22471184 -0.050804414 0.44691968 0.136613 -0.88408124 0.44691968 0.136613 -0.88408124 0.44691968 0.136613 -0.88408124 0.65433306 0.36525458 0.662146 0.65433306 0.36525458 0.662146 0.65433306 0.36525458 0.662146 -0.15048681 0.4026011 0.90292084 -0.15048681 0.4026011 0.90292084 -0.15048681 0.4026011 0.90292084 -0.80602896 0.19126111 -0.56012183 -0.80602896 0.19126111 -0.56012183 -0.80602896 0.19126111 -0.56012183 0.74944556 -0.39033625 0.53476065 0.74944556 -0.39033625 0.53476065 0.74944556 -0.39033625 0.53476065 -0.19135626 0.93920773 0.28508177 -0.19135626 0.93920773 0.28508177 -0.19135626 0.93920773 0.28508177 -0.228712 0.58253145 -0.7799666 -0.228712 0.58253145 -0.7799666 -0.228712 0.58253145 -0.7799666 0.2772972 -0.0039055946 0.96077627 0.2772972 -0.0039055946 0.96077627 0.2772972 -0.0039055946 0.96077627 -0.45693713 0.6443985 -0.61315495 -0.45693713 0.6443985 -0.61315495 -0.45693713 0.6443985 -0.61315495 0.8732901 -0.40050218 0.27742103 0.8732901 -0.40050218 0.27742103 0.8732901 -0.40050218 0.27742103 -0.94565165 0.32433507 0.023445908 -0.94565165 0.32433507 0.023445908 -0.94565165 0.32433507 0.023445908 0.4275281 0.6051768 0.671551 0.4275281 0.6051768 0.671551 0.4275281 0.6051768 0.671551 -0.66385865 0.687289 0.29483137 -0.66385865 0.687289 0.29483137 -0.66385865 0.687289 0.29483137 -0.53501135 0.68536127 0.49400684 -0.53501135 0.68536127 0.49400684 -0.53501135 0.68536127 0.49400684 0.21475612 0.75555104 0.6188881 0.21475612 0.75555104 0.6188881 0.21475612 0.75555104 0.6188881 0.17588662 0.85793585 0.48271105 0.17588662 0.85793585 0.48271105 0.17588662 0.85793585 0.48271105 -0.14849387 0.63500667 -0.7581003 -0.14849387 0.63500667 -0.7581003 -0.14849387 0.63500667 -0.7581003 -0.7163038 0.69093066 0.097589076 -0.7163038 0.69093066 0.097589076 -0.7163038 0.69093066 0.097589076 -0.09171207 0.37855622 0.92102337 -0.09171207 0.37855622 0.92102337 -0.09171207 0.37855622 0.92102337 0.8418001 0.14648494 0.5195332 0.8418001 0.14648494 0.5195332 0.8418001 0.14648494 0.5195332 0.8344795 0.28923413 -0.4690283 0.8344795 0.28923413 -0.4690283 0.8344795 0.28923413 -0.4690283 -0.31459597 0.18953918 -0.9301098 -0.31459597 0.18953918 -0.9301098 -0.31459597 0.18953918 -0.9301098 0.8247128 -0.24428697 0.5100712 0.8247128 -0.24428697 0.5100712 0.8247128 -0.24428697 0.5100712 -0.4845044 0.113311514 0.8674192 -0.4845044 0.113311514 0.8674192 -0.4845044 0.113311514 0.8674192 -0.91148025 0.26544178 -0.31423622 -0.91148025 0.26544178 -0.31423622 -0.91148025 0.26544178 -0.31423622 </float_array>
          <technique_common>
            <accessor source="#normals-array" count="301" stride="3">
              <param name="X" type="float"/>
              <param name="Y" type="float"/>
              <param name="Z" type="float"/>
            </accessor>
          </technique_common>
        </source>
        <vertices id="vertices">
          <input semantic="POSITION" source="#positions"/>
          <input semantic="TEXCOORD" source="#texcoords"/>
          <input semantic="COLOR" source="#colors"/>
          <input semantic="NORMAL" source="#normals"/>
        </vertices>
        <polylist material="material2" count="28">
          <input semantic="VERTEX" source="#vertices" offset="0"/>
          <vcount>4 4 4 4 4 3 3 3 3 3 3 4 4 4 4 4 3 3 3 3 3 3 3 3 3 3 3 3 </vcount>
          <p>0 1 3 2 2 3 5 4 4 5 7 6 8 9 11 10 10 11 13 12 14 15 16 15 17 16 18 19 20 19 21 20 22 23 24 23 25 24 26 27 28 29 30 31 32 33 34 35 36 37 38 39 40 41 42 43 44 45 46 47 48 49 50 51 52 53 54 55 56 57 58 59 60 61 62 63 64 65 66 67 68 69 70 71 72 73 74 75 76 77 78 79 80 81 </p>
        </polylist>
        <polylist material="material1" count="35">
          <input semantic="VERTEX" source="#vertices" offset="0"/>
          <vcount>3 3 3 3 3 3 3 3 3 3 3 3 3 3 3 3 3 3 3 3 3 3 3 3 3 3 3 3 3 3 3 3 3 3 3 </vcount>
          <p>82 83 84 85 86 87 88 89 90 91 92 93 94 95 96 97 98 99 100 101 102 103 104 105 106 107 108 109 110 111 112 113 114 115 116 117 118 119 120 121 122 123 124 125 126 127 128 129 130 131 132 133 134 135 136 137 138 139 140 141 142 143 144 145 146 147 148 149 150 151 152 153 154 155 156 157 158 159 160 161 162 163 164 165 166 167 168 169 170 171 172 173 174 175 176 177 178 179 180 181 182 183 184 185 186 </p>
        </polylist>
        <polylist material="material0" count="38">
          <input semantic="VERTEX" source="#vertices" offset="0"/>
          <vcount>3 3 3 3 3 3 3 3 3 3 3 3 3 3 3 3 3 3 3 3 3 3 3 3 3 3 3 3 3 3 3 3 3 3 3 3 3 3 </vcount>
          <p>187 188 189 190 191 192 193 194 195 196 197 198 199 200 201 202 203 204 205 206 207 208 209 210 211 212 213 214 215 216 217 218 219 220 221 222 223 224 225 226 227 228 229 230 231 232 233 234 235 236 237 238 239 240 241 242 243 244 245 246 247 248 249 250 251 252 253 254 255 256 257 258 259 260 261 262 263 264 265 266 267 268 269 270 271 272 273 274 275 276 277 278 279 280 281 282 283 284 285 286 287 288 289 290 291 292 293 294 295 296 297 298 299 300 </p>
        </polylist>
      </mesh>
    </geometry>
  </library_geometries>
  <library_visual_scenes>
    <visual_scene id="scene0" name="bigicicle_01">
      <node id="node" name="bigicicle_01" type="NODE">
        <instance_geometry url="#geometry">
          <bind_material>
            <technique_common>
              <instance_material symbol="material0" target="#material0">
                <bind_vertex_input semantic="tc" input_semantic="TEXCOORD"/>
              </instance_material>
              <instance_material symbol="material1" target="#material1">
                <bind_vertex_input semantic="tc" input_semantic="TEXCOORD"/>
              </instance_material>
              <instance_material symbol="material2" target="#material2">
                <bind_vertex_input semantic="tc" input_semantic="TEXCOORD"/>
              </instance_material>
            </technique_common>
          </bind_material>
        </instance_geometry>
      </node>
    </visual_scene>
  </library_visual_scenes>
  <scene>
    <instance_visual_scene url="#scene0"/>
  </scene>
</COLLADA>