# Objet du port. Généré par tools/build_port_objects.py : modifier ce script plutôt que ce fichier.
mtllib crates.mtl
v -7.5000 13.0000 -7.0000 1.0000 1.0000 1.0000
v 6.0000 13.0000 -7.0000 1.0000 1.0000 1.0000
v 6.0000 13.0000 6.0000 1.0000 1.0000 1.0000
v -7.5000 13.0000 6.0000 1.0000 1.0000 1.0000
v -7.5000 0.0000 6.0000 0.5500 0.5500 0.5500
v 6.0000 0.0000 6.0000 0.5500 0.5500 0.5500
v 6.0000 0.0000 -7.0000 0.5500 0.5500 0.5500
v -7.5000 0.0000 -7.0000 0.5500 0.5500 0.5500
v -7.5000 13.0000 6.0000 0.8800 0.8800 0.8800
v 6.0000 13.0000 6.0000 0.8800 0.8800 0.8800
v 6.0000 0.0000 6.0000 0.8800 0.8800 0.8800
v -7.5000 0.0000 6.0000 0.8800 0.8800 0.8800
v 6.0000 13.0000 -7.0000 0.6600 0.6600 0.6600
v -7.5000 13.0000 -7.0000 0.6600 0.6600 0.6600
v -7.5000 0.0000 -7.0000 0.6600 0.6600 0.6600
v 6.0000 0.0000 -7.0000 0.6600 0.6600 0.6600
v -7.5000 13.0000 -7.0000 0.7600 0.7600 0.7600
v -7.5000 13.0000 6.0000 0.7600 0.7600 0.7600
v -7.5000 0.0000 6.0000 0.7600 0.7600 0.7600
v -7.5000 0.0000 -7.0000 0.7600 0.7600 0.7600
v 6.0000 13.0000 6.0000 0.7600 0.7600 0.7600
v 6.0000 13.0000 -7.0000 0.7600 0.7600 0.7600
v 6.0000 0.0000 -7.0000 0.7600 0.7600 0.7600
v 6.0000 0.0000 6.0000 0.7600 0.7600 0.7600
v -4.0000 22.0000 -5.0000 1.0000 1.0000 1.0000
v 6.0000 22.0000 -5.0000 1.0000 1.0000 1.0000
v 6.0000 22.0000 5.0000 1.0000 1.0000 1.0000
v -4.0000 22.0000 5.0000 1.0000 1.0000 1.0000
v -4.0000 13.0000 5.0000 0.5500 0.5500 0.5500
v 6.0000 13.0000 5.0000 0.5500 0.5500 0.5500
v 6.0000 13.0000 -5.0000 0.5500 0.5500 0.5500
v -4.0000 13.0000 -5.0000 0.5500 0.5500 0.5500
v -4.0000 22.0000 5.0000 0.8800 0.8800 0.8800
v 6.0000 22.0000 5.0000 0.8800 0.8800 0.8800
v 6.0000 13.0000 5.0000 0.8800 0.8800 0.8800
v -4.0000 13.0000 5.0000 0.8800 0.8800 0.8800
v 6.0000 22.0000 -5.0000 0.6600 0.6600 0.6600
v -4.0000 22.0000 -5.0000 0.6600 0.6600 0.6600
v -4.0000 13.0000 -5.0000 0.6600 0.6600 0.6600
v 6.0000 13.0000 -5.0000 0.6600 0.6600 0.6600
v -4.0000 22.0000 -5.0000 0.7600 0.7600 0.7600
v -4.0000 22.0000 5.0000 0.7600 0.7600 0.7600
v -4.0000 13.0000 5.0000 0.7600 0.7600 0.7600
v -4.0000 13.0000 -5.0000 0.7600 0.7600 0.7600
v 6.0000 22.0000 5.0000 0.7600 0.7600 0.7600
v 6.0000 22.0000 -5.0000 0.7600 0.7600 0.7600
v 6.0000 13.0000 -5.0000 0.7600 0.7600 0.7600
v 6.0000 13.0000 5.0000 0.7600 0.7600 0.7600
vt -0.46875 0.56250
vt 0.37500 0.56250
vt 0.37500 1.37500
vt -0.46875 1.37500
vt -0.46875 0.62500
vt 0.37500 0.62500
vt 0.37500 1.43750
vt -0.46875 1.43750
vt -0.46875 1.00000
vt 0.37500 1.00000
vt 0.37500 0.18750
vt -0.46875 0.18750
vt -0.37500 1.00000
vt 0.46875 1.00000
vt 0.46875 0.18750
vt -0.37500 0.18750
vt -0.43750 1.00000
vt 0.37500 1.00000
vt 0.37500 0.18750
vt -0.43750 0.18750
vt -0.37500 1.00000
vt 0.43750 1.00000
vt 0.43750 0.18750
vt -0.37500 0.18750
vt -0.25000 0.68750
vt 0.37500 0.68750
vt 0.37500 1.31250
vt -0.25000 1.31250
vt -0.25000 0.68750
vt 0.37500 0.68750
vt 0.37500 1.31250
vt -0.25000 1.31250
vt -0.25000 1.00000
vt 0.37500 1.00000
vt 0.37500 0.43750
vt -0.25000 0.43750
vt -0.37500 1.00000
vt 0.25000 1.00000
vt 0.25000 0.43750
vt -0.37500 0.43750
vt -0.31250 1.00000
vt 0.31250 1.00000
vt 0.31250 0.43750
vt -0.31250 0.43750
vt -0.31250 1.00000
vt 0.31250 1.00000
vt 0.31250 0.43750
vt -0.31250 0.43750
usemtl crate
f 1/1 2/2 3/3
f 1/1 3/3 4/4
f 5/5 6/6 7/7
f 5/5 7/7 8/8
f 9/9 10/10 11/11
f 9/9 11/11 12/12
f 13/13 14/14 15/15
f 13/13 15/15 16/16
f 17/17 18/18 19/19
f 17/17 19/19 20/20
f 21/21 22/22 23/23
f 21/21 23/23 24/24
f 25/25 26/26 27/27
f 25/25 27/27 28/28
f 29/29 30/30 31/31
f 29/29 31/31 32/32
f 33/33 34/34 35/35
f 33/33 35/35 36/36
f 37/37 38/38 39/39
f 37/37 39/39 40/40
f 41/41 42/42 43/43
f 41/41 43/43 44/44
f 45/45 46/46 47/47
f 45/45 47/47 48/48
