<?xml version='1.0' encoding='utf-8'?>
<COLLADA xmlns="http://www.collada.org/2005/11/COLLADASchema" version="1.4.1">
  <asset>
    <created>2026-07-27T16:58:17Z</created>
    <modified>2026-07-27T16:58:17Z</modified>
  </asset>
  <library_images>
    <image id="image-dtree_02_02">
      <init_from>dtree_02_02.png</init_from>
    </image>
    <image id="image-dtree_01_01">
      <init_from>dtree_01_01.png</init_from>
    </image>
  </library_images>
  <library_materials>
    <material id="material0" name="dtree_01_01">
      <instance_effect url="#effect0" />
    </material>
    <material id="material1" name="dtree_02_02">
      <instance_effect url="#effect1" />
    </material>
  </library_materials>
  <library_effects>
    <effect id="effect0" name="dtree_01_01">
      <profile_COMMON>
        <newparam sid="Image-surface">
          <surface type="2D">
            <init_from>image-dtree_01_01</init_from>
            <format>A8R8G8B8</format>
          </surface>
        </newparam>
        <newparam sid="Image-sampler">
          <sampler2D>
            <source>Image-surface</source>
            <wrap_s>CLAMP</wrap_s>
            <wrap_t>CLAMP</wrap_t>
            <minfilter>NEAREST</minfilter>
            <magfilter>NEAREST</magfilter>
            <mipfilter>NEAREST</mipfilter>
          </sampler2D>
        </newparam>
        <technique sid="common">
          <phong>
            <emission>
              <color>0 0 0 1</color>
            </emission>
            <ambient>
              <color>0.8064516 0.8064516 0.8064516 1</color>
            </ambient>
            <diffuse>
              <texture texture="Image-sampler" texcoord="tc" />
            </diffuse>
            <specular>
              <color>0 0 0 1</color>
            </specular>
            <transparent>
              <texture texture="Image-sampler" texcoord="tc" />
            </transparent>
          </phong>
        </technique>
      </profile_COMMON>
    </effect>
    <effect id="effect1" name="dtree_02_02">
      <profile_COMMON>
        <newparam sid="Image-surface">
          <surface type="2D">
            <init_from>image-dtree_02_02</init_from>
            <format>A8R8G8B8</format>
          </surface>
        </newparam>
        <newparam sid="Image-sampler">
          <sampler2D>
            <source>Image-surface</source>
            <wrap_s>WRAP</wrap_s>
            <wrap_t>CLAMP</wrap_t>
            <minfilter>NEAREST</minfilter>
            <magfilter>NEAREST</magfilter>
            <mipfilter>NEAREST</mipfilter>
          </sampler2D>
        </newparam>
        <technique sid="common">
          <phong>
            <emission>
              <color>0 0 0 1</color>
            </emission>
            <ambient>
              <color>0.8064516 0.8064516 0.8064516 1</color>
            </ambient>
            <diffuse>
              <texture texture="Image-sampler" texcoord="tc" />
            </diffuse>
            <specular>
              <color>0 0 0 1</color>
            </specular>
          </phong>
        </technique>
      </profile_COMMON>
    </effect>
  </library_effects>
  <library_geometries>
    <geometry id="geometry" name="dtree_01">
      <mesh>
        <source id="positions">
          <float_array id="positions-array" count="528">37.86133 30.953125 -6.6660156 -36.876953 30.953125 -6.6660156 29.146484 25.542969 -11.578125 -30.214844 25.542969 -11.578125 27.90625 17.908203 -13.675781 -38.123047 17.908203 -13.675781 31.595703 9.1796875 -10.6640625 -33.310547 9.1796875 -10.6640625 36.595703 4 -7.09375 -40.195313 4 -7.09375 44 4 0 -48 4 0 40.16211 4 7.1796875 -40.195313 4 7.1796875 -15.3203125 30.998047 6.9121094 26.746094 30.998047 6.9121094 -34.902344 24.91211 12.513672 17.644531 24.91211 12.513672 -34.191406 17.908203 14.53125 26.0625 17.908203 14.53125 -39.464844 8.667969 10.697266 27.816406 8.667969 10.697266 -39.464844 8.667969 10.697266 27.816406 8.667969 10.697266 40.16211 4 7.1796875 -40.195313 4 7.1796875 29.11914 26 -14 -30.214844 26 -14 40.498047 33.14258 -7.9492188 -37.26758 33.14258 -7.9492188 26.746094 33.14258 7.9492188 -12.494141 33.14258 7.9492188 17.644531 26 14 -35.33789 26 14 26.0625 17.908203 15.900391 -34.191406 17.908203 15.900391 27.816406 8 12 -39.464844 8 12 40.16211 2.6757813 7.9492188 -40.195313 2.6757813 7.9492188 36.595703 2.6757813 -7.9492188 -40.195313 2.6757813 -7.9492188 31.595703 8 -12 -33.48828 8 -12 27.90625 17.908203 -15.900391 -38.73242 17.908203 -15.900391 29.11914 26 -14 -30.214844 26 -14 29.146484 25.542969 -11.578125 27.90625 17.908203 -13.675781 29.11914 26 -14 27.90625 17.908203 -15.900391 29.146484 25.542969 -11.578125 29.11914 26 -14 37.86133 30.953125 -6.6660156 40.498047 33.14258 -7.9492188 17.644531 26 14 17.644531 24.91211 12.513672 26.746094 30.998047 6.9121094 26.746094 33.14258 7.9492188 26.746094 30.998047 6.9121094 37.86133 30.953125 -6.6660156 40.498047 33.14258 -7.9492188 26.746094 33.14258 7.9492188 37.86133 30.953125 -6.6660156 -48 2.6757813 0 -40.195313 4 7.1796875 -48 4 0 36.595703 2.6757813 -7.9492188 36.595703 4 -7.09375 44 2.6757813 0 -40.195313 2.6757813 7.9492188 -40.195313 4 7.1796875 -48 2.6757813 0 -30.214844 26 -14 -38.123047 17.908203 -13.675781 -30.214844 25.542969 -11.578125 -48 2.6757813 0 -48 4 0 -40.195313 4 -7.09375 -40.195313 2.6757813 -7.9492188 -48 2.6757813 0 -40.195313 4 -7.09375 31.595703 8 -12 31.595703 9.1796875 -10.6640625 36.595703 4 -7.09375 -38.73242 17.908203 -15.900391 -38.123047 17.908203 -13.675781 -30.214844 26 -14 -33.48828 8 -12 -40.195313 4 -7.09375 -33.310547 9.1796875 -10.6640625 -40.195313 2.6757813 -7.9492188 -40.195313 4 -7.09375 -33.48828 8 -12 -33.48828 8 -12 -33.310547 9.1796875 -10.6640625 -38.123047 17.908203 -13.675781 -38.73242 17.908203 -15.900391 -33.48828 8 -12 -38.123047 17.908203 -13.675781 -39.464844 8 12 -34.191406 17.908203 14.53125 -39.464844 8.667969 10.697266 -34.191406 17.908203 15.900391 -34.191406 17.908203 14.53125 -39.464844 8 12 -39.464844 8 12 -39.464844 8.667969 10.697266 -40.195313 4 7.1796875 -40.195313 2.6757813 7.9492188 -39.464844 8 12 -40.195313 4 7.1796875 27.816406 8 12 40.16211 4 7.1796875 27.816406 8.667969 10.697266 40.16211 2.6757813 7.9492188 40.16211 4 7.1796875 27.816406 8 12 44 2.6757813 0 44 4 0 40.16211 4 7.1796875 40.16211 2.6757813 7.9492188 44 2.6757813 0 40.16211 4 7.1796875 44 2.6757813 0 36.595703 4 -7.09375 44 4 0 26.746094 33.14258 7.9492188 17.644531 26 14 26.746094 30.998047 6.9121094 27.90625 17.908203 -15.900391 27.90625 17.908203 -13.675781 31.595703 9.1796875 -10.6640625 31.595703 8 -12 27.90625 17.908203 -15.900391 31.595703 9.1796875 -10.6640625 -34.191406 17.908203 15.900391 -34.902344 24.91211 12.513672 -34.191406 17.908203 14.53125 -35.33789 26 14 -34.902344 24.91211 12.513672 -34.191406 17.908203 15.900391 -35.33789 26 14 -15.3203125 30.998047 6.9121094 -34.902344 24.91211 12.513672 -12.494141 33.14258 7.9492188 -15.3203125 30.998047 6.9121094 -35.33789 26 14 -37.26758 33.14258 -7.9492188 -36.876953 30.953125 -6.6660156 -15.3203125 30.998047 6.9121094 -12.494141 33.14258 7.9492188 -37.26758 33.14258 -7.9492188 -15.3203125 30.998047 6.9121094 26.0625 17.908203 15.900391 26.0625 17.908203 14.53125 17.644531 24.91211 12.513672 17.644531 26 14 26.0625 17.908203 15.900391 17.644531 24.91211 12.513672 -37.26758 33.14258 -7.9492188 -30.214844 25.542969 -11.578125 -36.876953 30.953125 -6.6660156 -30.214844 26 -14 -30.214844 25.542969 -11.578125 -37.26758 33.14258 -7.9492188 36.595703 2.6757813 -7.9492188 31.595703 8 -12 36.595703 4 -7.09375 26.0625 17.908203 15.900391 27.816406 8 12 26.0625 17.908203 14.53125 27.816406 8 12 27.816406 8.667969 10.697266 26.0625 17.908203 14.53125 </float_array>
          <technique_common>
            <accessor source="#positions-array" count="176" stride="3">
              <param name="X" type="float" />
              <param name="Y" type="float" />
              <param name="Z" type="float" />
            </accessor>
          </technique_common>
        </source>
        <source id="texcoords">
          <float_array id="texcoords-array" count="352">-0.21875 0 -0.21875 1 -0.53125 0 -0.53125 1 -0.75 0 -0.75 1 -1.5 0 -1.5 1 -1.875 0 -1.875 1 -2.4375 0 -2.4375 1 -3 0 -3 1 -5.34375 1 -5.34375 0 -5.03125 1 -5.03125 0 -4.25 1 -4.25 0 -3.5625 1 -3.5625 0 -3.5625 0 -3.5625 1 -3 1 -3 0 0.375 0.203125 0.375 0.78125 0 0 0 1 0.375 0.203125 0.375 0.78125 0.5625 0.265625 0.5625 0.9375 0.75 0 0.75 0.96875 0.9375 0 0.9375 1 1 0 1 1 0.9375 0 0.9375 1 1 0 1 1 0.9375 0 0.9375 1 0.75 0 0.75 0.96875 0.59375 0.03125 0.1875 0.03125 0.59375 0 0.1875 0 0.1875 1 0.1875 0.96875 0.5 1 0.5 0.96875 0.5 0.96875 0.5 1 0.1875 1 0.5 0.96875 0.5 1 0.1875 1 0.1875 0.96875 0.5 0.96875 0.1875 1 0.1875 0 0.59375 0.03125 0.1875 0.03125 0.5 0.96875 0.5 1 0.1875 0.96875 0.59375 0 0.59375 0.03125 0.1875 0 0.1875 0 0.59375 0.03125 0.1875 0.03125 0.5 0.984375 0.5 1 0.1875 1 0.1875 0.96875 0.5 0.984375 0.1875 1 0.59375 0 0.59375 0.03125 0.1875 0.03125 0.59375 0 0.59375 0.03125 0.1875 0 0.1875 0 0.59375 0.03125 0.1875 0.03125 0.59375 0 0.59375 0.03125 0.1875 0 0.5 0.984375 0.5 1 0.1875 1 0.1875 0.96875 0.5 0.984375 0.1875 1 0.1875 0 0.59375 0.03125 0.1875 0.03125 0.59375 0 0.59375 0.03125 0.1875 0 0.5 0.984375 0.5 1 0.1875 1 0.1875 0.96875 0.5 0.984375 0.1875 1 0.1875 0.96875 0.5 1 0.1875 1 0.5 0.96875 0.5 1 0.1875 0.96875 0.59375 0 0.59375 0.03125 0.1875 0.03125 0.1875 0 0.59375 0 0.1875 0.03125 0.1875 0.96875 0.5 1 0.1875 1 0.1875 0.96875 0.5 0.96875 0.1875 1 0.5 0.96875 0.5 1 0.1875 1 0.1875 0.96875 0.5 0.96875 0.1875 1 0.1875 0.96875 0.5 1 0.1875 1 0.5 0.984375 0.5 1 0.1875 0.96875 0.1875 0.96875 0.5 1 0.1875 1 0.5 0.984375 0.5 1 0.1875 0.96875 0.59375 0 0.59375 0.03125 0.1875 0.03125 0.1875 0 0.59375 0 0.1875 0.03125 0.59375 0 0.59375 0.03125 0.1875 0.03125 0.1875 0 0.59375 0 0.1875 0.03125 0.1875 0.96875 0.5 1 0.1875 1 0.5 0.984375 0.5 1 0.1875 0.96875 0.1875 0 0.59375 0 0.1875 0.03125 0.1875 0.96875 0.5 0.96875 0.1875 1 0.5 0.96875 0.5 1 0.1875 1 </float_array>
          <technique_common>
            <accessor source="#texcoords-array" count="176" stride="2">
              <param name="S" type="float" />
              <param name="T" type="float" />
            </accessor>
          </technique_common>
        </source>
        <source id="colors">
          <float_array id="colors-array" count="528">1 1 1 1 1 1 1 1 1 1 1 1 1 1 1 1 1 1 1 1 1 1 1 1 1 1 1 1 1 1 1 1 1 1 1 1 1 1 1 1 1 1 1 1 1 1 1 1 1 1 1 1 1 1 1 1 1 1 1 1 1 1 1 1 1 1 1 1 1 1 1 1 1 1 1 1 1 1 1 1 1 1 1 1 1 1 1 1 1 1 1 1 1 1 1 1 1 1 1 1 1 1 1 1 1 1 1 1 1 1 1 1 1 1 1 1 1 1 1 1 1 1 1 1 1 1 1 1 1 1 1 1 1 1 1 1 1 1 1 1 1 1 1 1 1 1 1 1 1 1 1 1 1 1 1 1 1 1 1 1 1 1 1 1 1 1 1 1 1 1 1 1 1 1 1 1 1 1 1 1 1 1 1 1 1 1 1 1 1 1 1 1 1 1 1 1 1 1 1 1 1 1 1 1 1 1 1 1 1 1 1 1 1 1 1 1 1 1 1 1 1 1 1 1 1 1 1 1 1 1 1 1 1 1 1 1 1 1 1 1 1 1 1 1 1 1 1 1 1 1 1 1 1 1 1 1 1 1 1 1 1 1 1 1 1 1 1 1 1 1 1 1 1 1 1 1 1 1 1 1 1 1 1 1 1 1 1 1 1 1 1 1 1 1 1 1 1 1 1 1 1 1 1 1 1 1 1 1 1 1 1 1 1 1 1 1 1 1 1 1 1 1 1 1 1 1 1 1 1 1 1 1 1 1 1 1 1 1 1 1 1 1 1 1 1 1 1 1 1 1 1 1 1 1 1 1 1 1 1 1 1 1 1 1 1 1 1 1 1 1 1 1 1 1 1 1 1 1 1 1 1 1 1 1 1 1 1 1 1 1 1 1 1 1 1 1 1 1 1 1 1 1 1 1 1 1 1 1 1 1 1 1 1 1 1 1 1 1 1 1 1 1 1 1 1 1 1 1 1 1 1 1 1 1 1 1 1 1 1 1 1 1 1 1 1 1 1 1 1 1 1 1 1 1 1 1 1 1 1 1 1 1 1 1 1 1 1 1 1 1 1 1 1 1 1 1 1 1 1 1 1 1 1 1 1 1 1 1 1 1 1 1 1 1 1 1 1 1 1 1 1 1 1 1 1 1 1 1 1 1 1 1 1 1 1 1 1 1 1 1 1 1 1 1 1 1 1 1 </float_array>
          <technique_common>
            <accessor source="#colors-array" count="176" stride="3">
              <param name="R" type="float" />
              <param name="G" type="float" />
              <param name="B" type="float" />
            </accessor>
          </technique_common>
        </source>
        <source id="normals">
          <float_array id="normals-array" count="528">0 -0.6720891 0.7404703 0 -0.6720891 0.7404703 0 -0.49044678 0.87147117 0 -0.49044678 0.87147117 0 0.031295817 0.99951017 0 0.031295817 0.99951017 0 0.44955757 0.89325136 0 0.44955757 0.89325136 0 0.90767354 0.419677 0 0.90767354 0.419677 0 1 0 0 1 0 0 0.90767354 -0.419677 0 0.90767354 -0.419677 0 -0.67722565 -0.7357754 0 -0.67722565 -0.7357754 0 -0.49044678 -0.87147117 0 -0.49044678 -0.87147117 0 0.0566603 -0.99839354 0 0.0566603 -0.99839354 0 0.44955757 -0.89325136 0 0.44955757 -0.89325136 0 0.44955757 -0.89325136 0 0.44955757 -0.89325136 0 0.90767354 -0.419677 0 0.90767354 -0.419677 0 0.44955757 -0.89325136 0 0.44955757 -0.89325136 0 0.90767354 -0.419677 0 0.90767354 -0.419677 0 0.90767354 0.419677 0 0.90767354 0.419677 0 0.44955757 0.89325136 0 0.44955757 0.89325136 0 -0.07221798 0.9973889 0 -0.07221798 0.9973889 0 -0.49044678 0.87147117 0 -0.49044678 0.87147117 0 -0.60592544 0.79552144 0 -0.60592544 0.79552144 0 -0.60592544 -0.79552144 0 -0.60592544 -0.79552144 0 -0.49044678 -0.87147117 0 -0.49044678 -0.87147117 0 -0.07221798 -0.9973889 0 -0.07221798 -0.9973889 0 0.44955757 -0.89325136 0 0.44955757 -0.89325136 0.98890764 -0.14853159 0 0.98890764 -0.14853159 0 0.98890764 -0.14853159 0 0.98890764 -0.14853159 0 0.5836705 -0.79644674 -0.1581181 0.5836705 -0.79644674 -0.1581181 0.5836705 -0.79644674 -0.1581181 0.5836705 -0.79644674 -0.1581181 0.67001134 -0.5996894 0.4375584 0.67001134 -0.5996894 0.4375584 0.67001134 -0.5996894 0.4375584 0.74009746 -0.29291457 0.60535675 0.74009746 -0.29291457 0.60535675 0.74009746 -0.29291457 0.60535675 0.6696129 -0.46658155 0.5778583 0.6696129 -0.46658155 0.5778583 0.6696129 -0.46658155 0.5778583 -0.67722565 0 0.7357754 -0.67722565 0 0.7357754 -0.67722565 0 0.7357754 0.670303 0.40257263 -0.6234013 0.670303 0.40257263 -0.6234013 0.670303 0.40257263 -0.6234013 -0.66069454 0.3772605 0.64896625 -0.66069454 0.3772605 0.64896625 -0.66069454 0.3772605 0.64896625 -0.70686275 0.6951468 0.13082819 -0.70686275 0.6951468 0.13082819 -0.70686275 0.6951468 0.13082819 -0.6720891 0 -0.7404703 -0.6720891 0 -0.7404703 -0.6720891 0 -0.7404703 -0.68338394 0.3963627 -0.613093 -0.68338394 0.3963627 -0.613093 -0.68338394 0.3963627 -0.613093 0.7806546 0.4683928 -0.41374695 0.7806546 0.4683928 -0.41374695 0.7806546 0.4683928 -0.41374695 -0.6979075 0.69008785 0.19158246 -0.6979075 0.69008785 0.19158246 -0.6979075 0.69008785 0.19158246 -0.67429775 0.5961183 -0.4358504 -0.67429775 0.5961183 -0.4358504 -0.67429775 0.5961183 -0.4358504 -0.68338394 0.3963627 -0.613093 -0.68338394 0.3963627 -0.613093 -0.68338394 0.3963627 -0.613093 -0.85192496 -0.3302186 0.4064229 -0.85192496 -0.3302186 0.4064229 -0.85192496 -0.3302186 0.4064229 -0.8932957 -0.37725618 0.2443369 -0.8932957 -0.37725618 0.2443369 -0.8932957 -0.37725618 0.2443369 -0.88423455 0.4157659 0.21276283 -0.88423455 0.4157659 0.21276283 -0.88423455 0.4157659 0.21276283 -0.88240695 0.4704869 0 -0.88240695 0.4704869 0 -0.88240695 0.4704869 0 -0.9921686 0.111326 0.056639545 -0.9921686 0.111326 0.056639545 -0.9921686 0.111326 0.056639545 -0.99308956 0.058647018 0.101654835 -0.99308956 0.058647018 0.101654835 -0.99308956 0.058647018 0.101654835 0.4221956 0.80725366 0.41242257 0.4221956 0.80725366 0.41242257 0.4221956 0.80725366 0.41242257 0.44725454 0.4492076 0.7734183 0.44725454 0.4492076 0.7734183 0.44725454 0.4492076 0.7734183 0.88240695 0 0.4704869 0.88240695 0 0.4704869 0.88240695 0 0.4704869 0.8731368 0.24416578 0.42191845 0.8731368 0.24416578 0.42191845 0.8731368 0.24416578 0.42191845 0.6913113 0 -0.722557 0.6913113 0 -0.722557 0.6913113 0 -0.722557 0.68486536 -0.31804287 0.65559757 0.68486536 -0.31804287 0.65559757 0.68486536 -0.31804287 0.65559757 0.9214515 0.38849333 0 0.9214515 0.38849333 0 0.9214515 0.38849333 0 0.9381552 0.25994715 -0.22867532 0.9381552 0.25994715 -0.22867532 0.9381552 0.25994715 -0.22867532 -0.994822 -0.10163212 0 -0.994822 -0.10163212 0 -0.994822 -0.10163212 0 -0.9723206 -0.17376815 -0.15619609 -0.9723206 -0.17376815 -0.15619609 -0.9723206 -0.17376815 -0.15619609 -0.38875863 0.68569994 -0.6153717 -0.38875863 0.68569994 -0.6153717 -0.38875863 0.68569994 -0.6153717 -0.37738308 0.75672156 -0.53381133 -0.37738308 0.75672156 -0.53381133 -0.37738308 0.75672156 -0.53381133 -0.49602187 0.37103996 0.78504246 -0.49602187 0.37103996 0.78504246 -0.49602187 0.37103996 0.78504246 -0.51755244 0.2910012 0.8046476 -0.51755244 0.2910012 0.8046476 -0.51755244 0.2910012 0.8046476 0.6386463 0.76950043 0 0.6386463 0.76950043 0 0.6386463 0.76950043 0 0.6718699 0.5976517 -0.43749666 0.6718699 0.5976517 -0.43749666 0.6718699 0.5976517 -0.43749666 -0.7356689 -0.43515694 -0.51906615 -0.7356689 -0.43515694 -0.51906615 -0.7356689 -0.43515694 -0.51906615 -0.7562778 -0.64293385 -0.12116078 -0.7562778 -0.64293385 -0.12116078 -0.7562778 -0.64293385 -0.12116078 0.78259134 0.3376267 -0.5230287 0.78259134 0.3376267 -0.5230287 0.78259134 0.3376267 -0.5230287 0.98476386 0.17389679 0 0.98476386 0.17389679 0 0.98476386 0.17389679 0 0.9849143 0.15438141 0.0781678 0.9849143 0.15438141 0.0781678 0.9849143 0.15438141 0.0781678 </float_array>
          <technique_common>
            <accessor source="#normals-array" count="176" stride="3">
              <param name="X" type="float" />
              <param name="Y" type="float" />
              <param name="Z" type="float" />
            </accessor>
          </technique_common>
        </source>
        <vertices id="vertices">
          <input semantic="POSITION" source="#positions" />
          <input semantic="TEXCOORD" source="#texcoords" />
          <input semantic="COLOR" source="#colors" />
          <input semantic="NORMAL" source="#normals" />
        </vertices>
        <polylist material="material1" count="10">
          <input semantic="VERTEX" source="#vertices" offset="0" />
          <vcount>4 4 4 4 4 4 4 4 4 4 </vcount>
          <p>0 1 3 2 2 3 5 4 4 5 7 6 6 7 9 8 8 9 11 10 10 11 13 12 14 15 17 16 16 17 19 18 18 19 21 20 22 23 24 25 </p>
        </polylist>
        <polylist material="material0" count="53">
          <input semantic="VERTEX" source="#vertices" offset="0" />
          <vcount>4 4 4 4 4 4 4 4 4 3 3 3 3 3 3 3 3 3 3 3 3 3 3 3 3 3 3 3 3 3 3 3 3 3 3 3 3 3 3 3 3 3 3 3 3 3 3 3 3 3 3 3 3 </vcount>
          <p>26 27 29 28 28 29 31 30 30 31 33 32 32 33 35 34 34 35 37 36 36 37 39 38 40 41 43 42 42 43 45 44 44 45 47 46 48 49 50 49 51 50 52 53 54 53 55 54 56 57 58 59 60 61 62 63 64 65 66 67 68 69 70 71 72 73 74 75 76 77 78 79 80 81 82 83 84 85 86 87 88 89 90 91 92 93 94 95 96 97 98 99 100 101 102 103 104 105 106 107 108 109 110 111 112 113 114 115 116 117 118 119 120 121 122 123 124 125 126 127 128 129 130 131 132 133 134 135 136 137 138 139 140 141 142 143 144 145 146 147 148 149 150 151 152 153 154 155 156 157 158 159 160 161 162 163 164 165 166 167 168 169 170 171 172 173 174 175 </p>
        </polylist>
      </mesh>
    </geometry>
  </library_geometries>
  <library_visual_scenes>
    <visual_scene id="scene0" name="dtree_01">
      <node id="node" name="dtree_01" type="NODE">
        <instance_geometry url="#geometry">
          <bind_material>
            <technique_common>
              <instance_material symbol="material0" target="#material0">
                <bind_vertex_input semantic="tc" input_semantic="TEXCOORD" />
              </instance_material>
              <instance_material symbol="material1" target="#material1">
                <bind_vertex_input semantic="tc" input_semantic="TEXCOORD" />
              </instance_material>
            </technique_common>
          </bind_material>
        </instance_geometry>
      </node>
    </visual_scene>
  </library_visual_scenes>
  <scene>
    <instance_visual_scene url="#scene0" />
  </scene>
</COLLADA>