# Created by MKDS Course Modifier
mtllib Nimbasa Amusement Park Archway.mtl
g polygon0
usemtl lambert1
v -67 2 0
v -72 2 0
v -63 2 9
v -67 2 12
v 45 2 9
v 49 2 12
v 50 2 0
v 55 2 0
v 45 2 -9
v 49 2 -12
v -63 2 -9
v -67 2 -12
v -67 2 0
v -72 2 0
vn 0 0.9980469 0
vn 0 0.9980469 0
vn 0 0.9980469 0
vn 0 0.9980469 0
vn 0 0.9980469 0
vn 0 0.9980469 0
vn 0 0.9980469 0
vn 0 0.9980469 0
vn 0 0.9980469 0
vn 0 0.9980469 0
vn 0 0.9980469 0
vn 0 0.9980469 0
vn 0 0.9980469 0
vn 0 0.9980469 0
vt 0.625 -0.3125
vt 0.625 -0.1875
vt 0.625 -0.3125
vt 0.625 -0.1875
vt 0.625 -0.3125
vt 0.625 -0.1875
vt 0.625 -0.3125
vt 0.625 -0.1875
vt 0.625 -0.3125
vt 0.625 -0.1875
vt 0.625 -0.3125
vt 0.625 -0.1875
vt 0.625 -0.3125
vt 0.625 -0.1875
f 1/1/1 2/2/2 3/3/3
f 2/2/2 4/4/4 3/3/3
f 3/3/3 4/4/4 5/5/5
f 4/4/4 6/6/6 5/5/5
f 5/5/5 6/6/6 7/7/7
f 6/6/6 8/8/8 7/7/7
f 7/7/7 8/8/8 9/9/9
f 8/8/8 10/10/10 9/9/9
f 9/9/9 10/10/10 11/11/11
f 10/10/10 12/12/12 11/11/11
f 11/11/11 12/12/12 13/13/13
f 12/12/12 14/14/14 13/13/13
v 45 2 -9
v -63 2 -9
v 50 2 0
v -67 2 0
v 45 2 9
v -63 2 9
vn 0 0.9980469 0
vn 0 0.9980469 0
vn 0 0.9980469 0
vn 0 0.9980469 0
vn 0 0.9980469 0
vn 0 0.9980469 0
vt 0.625 -0.875
vt 0.625 -0.875
vt 0.625 -0.875
vt 0.625 -0.875
vt 0.625 -0.875
vt 0.625 -0.875
f 15/15/15 16/16/16 17/17/17
f 16/16/16 18/18/18 17/17/17
f 17/17/17 18/18/18 19/19/19
f 18/18/18 20/20/20 19/19/19
g polygon1
usemtl c4gate_002
v -54.29688 84.60938 8.386719
v -51.58984 87.83594 -2.589844
v -57.80078 80.4375 0
v -57.46094 80.83594 -9.984375
v -63.80078 73.28516 -3.582031
vn -0.765625 0.6425781 0
vn -0.765625 0.6425781 0
vn -0.765625 0.6425781 0
vn -0.765625 0.6425781 0
vn -0.765625 0.6425781 0
vt 0.375 -0.015625
vt 0.375 -0.015625
vt 0.375 -0.9882813
vt 0.375 -0.015625
vt 0.375 -0.015625
f 21/21/21 22/22/22 23/23/23
f 22/22/22 24/24/24 23/23/23
f 23/23/23 24/24/24 25/25/25
v -31.16016 107.1914 8.386719
v -27.51172 109.2969 -2.589844
v -35.875 104.4688 0
v -35.42188 104.7305 -9.984375
v -43.96094 99.80078 -3.582031
vn -0.5 0.8652344 0
vn -0.5 0.8652344 0
vn -0.5 0.8652344 0
vn -0.5 0.8652344 0
vn -0.5 0.8652344 0
vt 0.5625 -0.015625
vt 0.5625 -0.015625
vt 0.5625 -0.9882813
vt 0.5625 -0.015625
vt 0.5625 -0.015625
f 26/26/26 27/27/27 28/28/28
f 27/27/27 29/29/29 28/28/28
f 28/28/28 29/29/29 30/30/30
v 44.76953 76.74609 -7.429688
v 37.25391 85.70313 -8.660156
v 40.46875 81.875 0
v 34.18359 89.36719 2.078125
v 39.79688 82.67578 9.945313
vn 0.765625 0.6425781 0
vn 0.765625 0.6425781 0
vn 0.765625 0.6425781 0
vn 0.765625 0.6425781 0
vn 0.765625 0.6425781 0
vt 0.375 -0.015625
vt 0.375 -0.015625
vt 0.375 -0.9882813
vt 0.375 -0.015625
vt 0.375 -0.015625
f 31/31/31 32/32/32 33/33/33
f 32/32/32 34/34/34 33/33/33
f 33/33/33 34/34/34 35/35/35
v 27.77344 100.9922 -4.695313
v 18.625 106.2734 -9.847656
v 20.12891 105.4063 0
v 11.55078 110.3555 -1.390625
v 16.33203 107.5977 8.988281
vn 0.5 0.8652344 0
vn 0.5 0.8652344 0
vn 0.5 0.8652344 0
vn 0.5 0.8652344 0
vn 0.5 0.8652344 0
vt 0.5625 -0.015625
vt 0.5625 -0.015625
vt 0.5625 -0.9882813
vt 0.5625 -0.015625
vt 0.5625 -0.015625
f 36/36/36 37/37/37 38/38/38
f 37/37/37 39/39/39 38/38/38
f 38/38/38 39/39/39 40/40/40
v -2.554688 114 8.386719
v 1.660156 114 -2.589844
v -8 114 0
v -7.476563 114 -9.984375
v -17.33594 114 -3.582031
vn 0 0.9980469 0
vn 0 0.9980469 0
vn 0 0.9980469 0
vn 0 0.9980469 0
vn 0 0.9980469 0
vt 0.8125 -0.015625
vt 0.8125 -0.015625
vt 0.8125 -0.9882813
vt 0.8125 -0.015625
vt 0.8125 -0.015625
f 41/41/41 42/42/42 43/43/43
f 42/42/42 44/44/44 43/43/43
f 43/43/43 44/44/44 45/45/45
v -63.80078 73.28516 -3.582031
v -61.84375 75.61328 7.769531
v -57.80078 80.4375 0
v -54.29688 84.60938 8.386719
vn -0.765625 0.6425781 0
vn -0.765625 0.6425781 0
vn -0.765625 0.6425781 0
vn -0.765625 0.6425781 0
vt 0.375 -0.015625
vt 0.375 -0.015625
vt 0.375 -0.9882813
vt 0.375 -0.015625
f 46/46/46 47/47/47 48/48/48
f 47/47/47 49/49/49 48/48/48
v -43.96094 99.80078 -3.582031
v -41.32813 101.3203 7.769531
v -35.875 104.4688 0
v -31.16016 107.1914 8.386719
vn -0.5 0.8652344 0
vn -0.5 0.8652344 0
vn -0.5 0.8652344 0
vn -0.5 0.8652344 0
vt 0.5625 -0.015625
vt 0.5625 -0.015625
vt 0.5625 -0.9882813
vt 0.5625 -0.015625
f 50/50/50 51/51/51 52/52/52
f 51/51/51 53/53/53 52/52/52
v 39.79688 82.67578 9.945313
v 46.33984 74.875 4.066406
v 40.46875 81.875 0
v 44.76953 76.74609 -7.429688
vn 0.765625 0.6425781 0
vn 0.765625 0.6425781 0
vn 0.765625 0.6425781 0
vn 0.765625 0.6425781 0
vt 0.375 -0.015625
vt 0.375 -0.015625
vt 0.375 -0.9882813
vt 0.375 -0.015625
f 54/54/54 55/55/55 56/56/56
f 55/55/55 57/57/57 56/56/56
v 16.33203 107.5977 8.988281
v 26.35938 101.8086 6.945313
v 20.12891 105.4063 0
v 27.77344 100.9922 -4.695313
vn 0.5 0.8652344 0
vn 0.5 0.8652344 0
vn 0.5 0.8652344 0
vn 0.5 0.8652344 0
vt 0.5625 -0.015625
vt 0.5625 -0.015625
vt 0.5625 -0.9882813
vt 0.5625 -0.015625
f 58/58/58 59/59/59 60/60/60
f 59/59/59 61/61/61 60/60/60
v -17.33594 114 -3.582031
v -14.29297 114 7.769531
v -8 114 0
v -2.554688 114 8.386719
vn 0 0.9980469 0
vn 0 0.9980469 0
vn 0 0.9980469 0
vn 0 0.9980469 0
vt 0.8125 -0.015625
vt 0.8125 -0.015625
vt 0.8125 -0.9882813
vt 0.8125 -0.015625
f 62/62/62 63/63/63 64/64/64
f 63/63/63 65/65/65 64/64/64
g polygon2
usemtl c4gate_001
v -8 111 -1.269531
v 28.0625 96.0625 -1.269531
v 28.0625 96.0625 -4.730469
v -8 111 -4.730469
v 25.94141 93.94141 -3
v 40 60 -3
v 43 60 -1.269531
v 28.0625 96.0625 -1.269531
v -56 60 -3
v -41.94141 93.94141 -3
v -44.0625 96.0625 -1.269531
v -59 60 -1.269531
v -41.94141 93.94141 -3
v -8 108 -3
v -8 111 -1.269531
v -44.0625 96.0625 -1.269531
v -8 108 -3
v 25.94141 93.94141 -3
v 28.0625 96.0625 -1.269531
v -8 111 -1.269531
v 28.0625 96.0625 1.269531
v 43 60 1.269531
v 40 60 3
v 25.94141 93.94141 3
v -59 60 1.269531
v -44.0625 96.0625 1.269531
v -41.94141 93.94141 3
v -56 60 3
v -44.0625 96.0625 1.269531
v -8 111 1.269531
v -8 108 3
v -41.94141 93.94141 3
v -8 111 1.269531
v 28.0625 96.0625 1.269531
v 25.94141 93.94141 3
v -8 108 3
v 28.0625 96.0625 4.730469
v 43 60 4.730469
v 43 60 1.269531
v 28.0625 96.0625 1.269531
v -59 60 4.730469
v -44.0625 96.0625 4.730469
v -44.0625 96.0625 1.269531
v -59 60 1.269531
v -44.0625 96.0625 4.730469
v -8 111 4.730469
v -8 111 1.269531
v -44.0625 96.0625 1.269531
v -8 111 4.730469
v 28.0625 96.0625 4.730469
v 28.0625 96.0625 1.269531
v -8 111 1.269531
v 25.94141 93.94141 3
v 40 60 3
v 43 60 4.730469
v 28.0625 96.0625 4.730469
v -56 60 3
v -41.94141 93.94141 3
v -44.0625 96.0625 4.730469
v -59 60 4.730469
v -41.94141 93.94141 3
v -8 108 3
v -8 111 4.730469
v -44.0625 96.0625 4.730469
v -8 108 3
v 25.94141 93.94141 3
v 28.0625 96.0625 4.730469
v -8 111 4.730469
v 28.0625 96.0625 -4.730469
v 43 60 -4.730469
v 40 60 -3
v 25.94141 93.94141 -3
v -59 60 -4.730469
v -44.0625 96.0625 -4.730469
v -41.94141 93.94141 -3
v -56 60 -3
v -44.0625 96.0625 -4.730469
v -8 111 -4.730469
v -8 108 -3
v -41.94141 93.94141 -3
v -8 111 -4.730469
v 28.0625 96.0625 -4.730469
v 25.94141 93.94141 -3
v -8 108 -3
v 28.0625 96.0625 -1.269531
v 43 60 -1.269531
v 43 60 -4.730469
v 28.0625 96.0625 -4.730469
v -59 60 -1.269531
v -44.0625 96.0625 -1.269531
v -44.0625 96.0625 -4.730469
v -59 60 -4.730469
v 35.24219 24 3.941406
v 42.97656 24 6.457031
v 42.97656 64 6.457031
v 35.24219 64 3.941406
v 35.24219 24 -4.1875
v 35.24219 24 3.941406
v 35.24219 64 3.941406
v 35.24219 64 -4.1875
v 42.97656 24 -6.699219
v 35.24219 24 -4.1875
v 35.24219 64 -4.1875
v 42.97656 64 -6.699219
v 47.75781 24 -0.1210938
v 42.97656 24 -6.699219
v 42.97656 64 -6.699219
v 47.75781 64 -0.1210938
v 42.97656 24 6.457031
v 47.75781 24 -0.1210938
v 47.75781 64 -0.1210938
v 42.97656 64 6.457031
v 32.45313 20 5.753906
v 43.63672 20 9.386719
v 42.97656 24 6.457031
v 35.24219 24 3.941406
v 32.45313 20 -6
v 32.45313 20 5.753906
v 35.24219 24 3.941406
v 35.24219 24 -4.1875
v 43.63672 20 -9.632813
v 32.45313 20 -6
v 35.24219 24 -4.1875
v 42.97656 24 -6.699219
v 50.54688 20 -0.1210938
v 43.63672 20 -9.632813
v 42.97656 24 -6.699219
v 47.75781 24 -0.1210938
v 43.63672 20 9.386719
v 50.54688 20 -0.1210938
v 47.75781 24 -0.1210938
v 42.97656 24 6.457031
v 42.97656 64 6.457031
v 42.97656 64 -6.699219
v 35.24219 64 -4.1875
v 35.24219 64 3.941406
v 32.45313 3 5.753906
v 43.63672 3 9.386719
v 43.63672 20 9.386719
v 32.45313 20 5.753906
v 32.45313 3 -6
v 32.45313 3 5.753906
v 32.45313 20 5.753906
v 32.45313 20 -6
v 43.63672 3 -9.632813
v 32.45313 3 -6
v 32.45313 20 -6
v 43.63672 20 -9.632813
v 50.54688 3 -0.1210938
v 43.63672 3 -9.632813
v 43.63672 20 -9.632813
v 50.54688 20 -0.1210938
v 43.63672 3 9.386719
v 50.54688 3 -0.1210938
v 50.54688 20 -0.1210938
v 43.63672 20 9.386719
v -58.43359 64 -6.578125
v -58.43359 64 6.578125
v -50.69922 64 4.066406
v -50.69922 64 -4.066406
v -50.69922 24 -4.066406
v -58.43359 24 -6.578125
v -58.43359 64 -6.578125
v -50.69922 64 -4.066406
v -50.69922 24 4.066406
v -50.69922 24 -4.066406
v -50.69922 64 -4.066406
v -50.69922 64 4.066406
v -58.43359 24 6.578125
v -50.69922 24 4.066406
v -50.69922 64 4.066406
v -58.43359 64 6.578125
v -63.21094 24 0
v -58.43359 24 6.578125
v -58.43359 64 6.578125
v -63.21094 64 0
v -58.43359 24 -6.578125
v -63.21094 24 0
v -63.21094 64 0
v -58.43359 64 -6.578125
v -47.91016 20 -5.878906
v -59.08984 20 -9.511719
v -58.43359 24 -6.578125
v -50.69922 24 -4.066406
v -47.91016 20 5.878906
v -47.91016 20 -5.878906
v -50.69922 24 -4.066406
v -50.69922 24 4.066406
v -59.08984 20 9.511719
v -47.91016 20 5.878906
v -50.69922 24 4.066406
v -58.43359 24 6.578125
v -66 20 0
v -59.08984 20 9.511719
v -58.43359 24 6.578125
v -63.21094 24 0
v -59.08984 20 -9.511719
v -66 20 0
v -63.21094 24 0
v -58.43359 24 -6.578125
v -44.0625 96.0625 -1.269531
v -8 111 -1.269531
v -8 111 -4.730469
v -44.0625 96.0625 -4.730469
v -47.91016 3 -5.878906
v -59.08984 3 -9.511719
v -59.08984 20 -9.511719
v -47.91016 20 -5.878906
v -47.91016 3 5.878906
v -47.91016 3 -5.878906
v -47.91016 20 -5.878906
v -47.91016 20 5.878906
v -59.08984 3 9.511719
v -47.91016 3 5.878906
v -47.91016 20 5.878906
v -59.08984 20 9.511719
v -66 3 0
v -59.08984 3 9.511719
v -59.08984 20 9.511719
v -66 20 0
v -59.08984 3 -9.511719
v -66 3 0
v -66 20 0
v -59.08984 20 -9.511719
vn 0.3828125 0.9238281 0
vn 0.3828125 0.9238281 0
vn 0.3828125 0.9238281 0
vn 0.3828125 0.9238281 0
vn -0.4902344 -0.203125 0.8476563
vn -0.4902344 -0.203125 0.8476563
vn -0.4902344 -0.203125 0.8476563
vn -0.4902344 -0.203125 0.8476563
vn 0.4902344 -0.203125 0.8476563
vn 0.4902344 -0.203125 0.8476563
vn 0.4902344 -0.203125 0.8476563
vn 0.4902344 -0.203125 0.8476563
vn 0.203125 -0.4902344 0.8476563
vn 0.203125 -0.4902344 0.8476563
vn 0.203125 -0.4902344 0.8476563
vn 0.203125 -0.4902344 0.8476563
vn -0.203125 -0.4902344 0.8476563
vn -0.203125 -0.4902344 0.8476563
vn -0.203125 -0.4902344 0.8476563
vn -0.203125 -0.4902344 0.8476563
vn -0.4902344 -0.203125 -0.8476563
vn -0.4902344 -0.203125 -0.8476563
vn -0.4902344 -0.203125 -0.8476563
vn -0.4902344 -0.203125 -0.8476563
vn 0.4902344 -0.203125 -0.8476563
vn 0.4902344 -0.203125 -0.8476563
vn 0.4902344 -0.203125 -0.8476563
vn 0.4902344 -0.203125 -0.8476563
vn 0.203125 -0.4902344 -0.8476563
vn 0.203125 -0.4902344 -0.8476563
vn 0.203125 -0.4902344 -0.8476563
vn 0.203125 -0.4902344 -0.8476563
vn -0.203125 -0.4902344 -0.8476563
vn -0.203125 -0.4902344 -0.8476563
vn -0.203125 -0.4902344 -0.8476563
vn -0.203125 -0.4902344 -0.8476563
vn 0.9238281 0.3828125 0
vn 0.9238281 0.3828125 0
vn 0.9238281 0.3828125 0
vn 0.9238281 0.3828125 0
vn -0.9238281 0.3828125 0
vn -0.9238281 0.3828125 0
vn -0.9238281 0.3828125 0
vn -0.9238281 0.3828125 0
vn -0.3828125 0.9238281 0
vn -0.3828125 0.9238281 0
vn -0.3828125 0.9238281 0
vn -0.3828125 0.9238281 0
vn 0.3828125 0.9238281 0
vn 0.3828125 0.9238281 0
vn 0.3828125 0.9238281 0
vn 0.3828125 0.9238281 0
vn -0.4902344 -0.203125 0.8476563
vn -0.4902344 -0.203125 0.8476563
vn -0.4902344 -0.203125 0.8476563
vn -0.4902344 -0.203125 0.8476563
vn 0.4902344 -0.203125 0.8476563
vn 0.4902344 -0.203125 0.8476563
vn 0.4902344 -0.203125 0.8476563
vn 0.4902344 -0.203125 0.8476563
vn 0.203125 -0.4902344 0.8476563
vn 0.203125 -0.4902344 0.8476563
vn 0.203125 -0.4902344 0.8476563
vn 0.203125 -0.4902344 0.8476563
vn -0.203125 -0.4902344 0.8476563
vn -0.203125 -0.4902344 0.8476563
vn -0.203125 -0.4902344 0.8476563
vn -0.203125 -0.4902344 0.8476563
vn -0.4902344 -0.203125 -0.8476563
vn -0.4902344 -0.203125 -0.8476563
vn -0.4902344 -0.203125 -0.8476563
vn -0.4902344 -0.203125 -0.8476563
vn 0.4902344 -0.203125 -0.8476563
vn 0.4902344 -0.203125 -0.8476563
vn 0.4902344 -0.203125 -0.8476563
vn 0.4902344 -0.203125 -0.8476563
vn 0.203125 -0.4902344 -0.8476563
vn 0.203125 -0.4902344 -0.8476563
vn 0.203125 -0.4902344 -0.8476563
vn 0.203125 -0.4902344 -0.8476563
vn -0.203125 -0.4902344 -0.8476563
vn -0.203125 -0.4902344 -0.8476563
vn -0.203125 -0.4902344 -0.8476563
vn -0.203125 -0.4902344 -0.8476563
vn 0.9238281 0.3828125 0
vn 0.9238281 0.3828125 0
vn 0.9238281 0.3828125 0
vn 0.9238281 0.3828125 0
vn -0.9238281 0.3828125 0
vn -0.9238281 0.3828125 0
vn -0.9238281 0.3828125 0
vn -0.9238281 0.3828125 0
vn -0.3085938 0 0.9511719
vn -0.3085938 0 0.9511719
vn -0.3085938 0 0.9511719
vn -0.3085938 0 0.9511719
vn -1 0 0
vn -1 0 0
vn -1 0 0
vn -1 0 0
vn -0.3085938 0 -0.9511719
vn -0.3085938 0 -0.9511719
vn -0.3085938 0 -0.9511719
vn -0.3085938 0 -0.9511719
vn 0.7832031 0.2539063 -0.5683594
vn 0.7832031 0.2539063 -0.5683594
vn 0.8085938 0 -0.5878906
vn 0.8085938 0 -0.5878906
vn 0.7832031 0.2539063 0.5683594
vn 0.7832031 0.2539063 0.5683594
vn 0.8085938 0 0.5878906
vn 0.8085938 0 0.5878906
vn -0.296875 0.2832031 0.9121094
vn -0.296875 0.2832031 0.9121094
vn -0.2597656 0.5429688 0.7988281
vn -0.2597656 0.5429688 0.7988281
vn -0.953125 0.2988281 0
vn -0.953125 0.2988281 0
vn -0.8203125 0.5722656 0
vn -0.8203125 0.5722656 0
vn -0.296875 0.2832031 -0.9121094
vn -0.296875 0.2832031 -0.9121094
vn -0.2597656 0.5429688 -0.7988281
vn -0.2597656 0.5429688 -0.7988281
vn 0.7832031 0.2539063 -0.5683594
vn 0.7832031 0.2539063 -0.5683594
vn 0.7832031 0.2539063 -0.5683594
vn 0.7832031 0.2539063 -0.5683594
vn 0.7832031 0.2539063 0.5683594
vn 0.7832031 0.2539063 0.5683594
vn 0.7832031 0.2539063 0.5683594
vn 0.7832031 0.2539063 0.5683594
vn 0 0.9980469 0
vn 0 0.9980469 0
vn 0 0.9980469 0
vn 0 0.9980469 0
vn -0.3085938 0 0.9511719
vn -0.3085938 0 0.9511719
vn -0.296875 0.2832031 0.9121094
vn -0.296875 0.2832031 0.9121094
vn -1 0 0
vn -1 0 0
vn -0.953125 0.2988281 0
vn -0.953125 0.2988281 0
vn -0.3085938 0 -0.9511719
vn -0.3085938 0 -0.9511719
vn -0.296875 0.2832031 -0.9121094
vn -0.296875 0.2832031 -0.9121094
vn 0.8085938 0 -0.5878906
vn 0.8085938 0 -0.5878906
vn 0.7832031 0.2539063 -0.5683594
vn 0.7832031 0.2539063 -0.5683594
vn 0.8085938 0 0.5878906
vn 0.8085938 0 0.5878906
vn 0.7832031 0.2539063 0.5683594
vn 0.7832031 0.2539063 0.5683594
vn 0 0.9980469 0
vn 0 0.9980469 0
vn 0 0.9980469 0
vn 0 0.9980469 0
vn 0.3085938 0 -0.9511719
vn 0.3085938 0 -0.9511719
vn 0.3085938 0 -0.9511719
vn 0.3085938 0 -0.9511719
vn 0.9980469 0 0
vn 0.9980469 0 0
vn 0.9980469 0 0
vn 0.9980469 0 0
vn 0.3085938 0 0.9511719
vn 0.3085938 0 0.9511719
vn 0.3085938 0 0.9511719
vn 0.3085938 0 0.9511719
vn -0.7832031 0.2539063 0.5683594
vn -0.7832031 0.2539063 0.5683594
vn -0.8085938 0 0.5878906
vn -0.8085938 0 0.5878906
vn -0.7832031 0.2539063 -0.5683594
vn -0.7832031 0.2539063 -0.5683594
vn -0.8085938 0 -0.5878906
vn -0.8085938 0 -0.5878906
vn 0.296875 0.2832031 -0.9121094
vn 0.296875 0.2832031 -0.9121094
vn 0.2597656 0.5429688 -0.7988281
vn 0.2597656 0.5429688 -0.7988281
vn 0.953125 0.2988281 0
vn 0.953125 0.2988281 0
vn 0.8203125 0.5722656 0
vn 0.8203125 0.5722656 0
vn 0.296875 0.2832031 0.9121094
vn 0.296875 0.2832031 0.9121094
vn 0.2597656 0.5429688 0.7988281
vn 0.2597656 0.5429688 0.7988281
vn -0.7832031 0.2539063 0.5683594
vn -0.7832031 0.2539063 0.5683594
vn -0.7832031 0.2539063 0.5683594
vn -0.7832031 0.2539063 0.5683594
vn -0.7832031 0.2539063 -0.5683594
vn -0.7832031 0.2539063 -0.5683594
vn -0.7832031 0.2539063 -0.5683594
vn -0.7832031 0.2539063 -0.5683594
vn -0.3828125 0.9238281 0
vn -0.3828125 0.9238281 0
vn -0.3828125 0.9238281 0
vn -0.3828125 0.9238281 0
vn 0.3085938 0 -0.9511719
vn 0.3085938 0 -0.9511719
vn 0.296875 0.2832031 -0.9121094
vn 0.296875 0.2832031 -0.9121094
vn 0.9980469 0 0
vn 0.9980469 0 0
vn 0.953125 0.2988281 0
vn 0.953125 0.2988281 0
vn 0.3085938 0 0.9511719
vn 0.3085938 0 0.9511719
vn 0.296875 0.2832031 0.9121094
vn 0.296875 0.2832031 0.9121094
vn -0.8085938 0 0.5878906
vn -0.8085938 0 0.5878906
vn -0.7832031 0.2539063 0.5683594
vn -0.7832031 0.2539063 0.5683594
vn -0.8085938 0 -0.5878906
vn -0.8085938 0 -0.5878906
vn -0.7832031 0.2539063 -0.5683594
vn -0.7832031 0.2539063 -0.5683594
vt 0.8710938 -1
vt 0.8710938 0
vt 0.578125 0
vt 0.578125 -1
vt 0.8710938 -0.8359375
vt 0.8710938 0
vt 0.578125 0
vt 0.578125 -0.8359375
vt 0.8710938 0
vt 0.8710938 -0.8359375
vt 0.578125 -0.8359375
vt 0.578125 0
vt 0.8710938 -1
vt 0.8710938 0
vt 0.578125 0
vt 0.578125 -1
vt 0.8710938 -1
vt 0.8710938 0
vt 0.578125 0
vt 0.578125 -1
vt 0.8710938 -0.8359375
vt 0.8710938 0
vt 0.578125 0
vt 0.578125 -0.8359375
vt 0.8710938 0
vt 0.8710938 -0.8359375
vt 0.578125 -0.8359375
vt 0.578125 0
vt 0.8710938 -1
vt 0.8710938 0
vt 0.578125 0
vt 0.578125 -1
vt 0.8710938 -1
vt 0.8710938 0
vt 0.578125 0
vt 0.578125 -1
vt 0.8710938 -0.8359375
vt 0.8710938 0
vt 0.578125 0
vt 0.578125 -0.8359375
vt 0.8710938 0
vt 0.8710938 -0.8359375
vt 0.578125 -0.8359375
vt 0.578125 0
vt 0.8710938 -1
vt 0.8710938 0
vt 0.578125 0
vt 0.578125 -1
vt 0.8710938 -1
vt 0.8710938 0
vt 0.578125 0
vt 0.578125 -1
vt 0.8710938 -0.8359375
vt 0.8710938 0
vt 0.578125 0
vt 0.578125 -0.8359375
vt 0.8710938 0
vt 0.8710938 -0.8359375
vt 0.578125 -0.8359375
vt 0.578125 0
vt 0.8710938 -1
vt 0.8710938 0
vt 0.578125 0
vt 0.578125 -1
vt 0.8710938 -1
vt 0.8710938 0
vt 0.578125 0
vt 0.578125 -1
vt 0.8710938 -0.8359375
vt 0.8710938 0
vt 0.578125 0
vt 0.578125 -0.8359375
vt 0.8710938 0
vt 0.8710938 -0.8359375
vt 0.578125 -0.8359375
vt 0.578125 0
vt 0.8710938 -1
vt 0.8710938 0
vt 0.578125 0
vt 0.578125 -1
vt 0.8710938 -1
vt 0.8710938 0
vt 0.578125 0
vt 0.578125 -1
vt 0.8710938 -0.8359375
vt 0.8710938 0
vt 0.578125 0
vt 0.578125 -0.8359375
vt 0.8710938 0
vt 0.8710938 -0.8359375
vt 0.578125 -0.8359375
vt 0.578125 0
vt 0.5234375 -0.7890625
vt 0.0078125 -0.7890625
vt 0.0078125 -0.0078125
vt 0.5234375 -0.0078125
vt 0.5234375 -0.7890625
vt 0.0078125 -0.7890625
vt 0.0078125 -0.0078125
vt 0.5234375 -0.0078125
vt 0.5234375 -0.7890625
vt 0.0078125 -0.7890625
vt 0.0078125 -0.0078125
vt 0.5234375 -0.0078125
vt 0.5234375 -0.7890625
vt 0.0078125 -0.7890625
vt 0.0078125 -0.0078125
vt 0.5234375 -0.0078125
vt 0.5234375 -0.7890625
vt 0.0078125 -0.7890625
vt 0.0078125 -0.0078125
vt 0.5234375 -0.0078125
vt 0.5234375 -0.8945313
vt 0.0078125 -0.8945313
vt 0.0078125 -0.8007813
vt 0.5234375 -0.8007813
vt 0.5234375 -0.8945313
vt 0.0078125 -0.8945313
vt 0.0078125 -0.8007813
vt 0.5234375 -0.8007813
vt 0.5234375 -0.8945313
vt 0.0078125 -0.8945313
vt 0.0078125 -0.8007813
vt 0.5234375 -0.8007813
vt 0.5234375 -0.8945313
vt 0.0078125 -0.8945313
vt 0.0078125 -0.8007813
vt 0.5234375 -0.8007813
vt 0.5234375 -0.8945313
vt 0.0078125 -0.8945313
vt 0.0078125 -0.8007813
vt 0.5234375 -0.8007813
vt 0.0703125 -0.109375
vt 0.0703125 -0.109375
vt 0.0703125 -0.109375
vt 0.0703125 -0.109375
vt 0.5234375 -0.9921875
vt 0.0078125 -0.9921875
vt 0.0078125 -0.9003906
vt 0.5234375 -0.9003906
vt 0.5234375 -0.9921875
vt 0.0078125 -0.9921875
vt 0.0078125 -0.9003906
vt 0.5234375 -0.9003906
vt 0.5234375 -0.9921875
vt 0.0078125 -0.9921875
vt 0.0078125 -0.9003906
vt 0.5234375 -0.9003906
vt 0.5234375 -0.9921875
vt 0.0078125 -0.9921875
vt 0.0078125 -0.9003906
vt 0.5234375 -0.9003906
vt 0.5234375 -0.9921875
vt 0.0078125 -0.9921875
vt 0.0078125 -0.9003906
vt 0.5234375 -0.9003906
vt 0.0703125 -0.109375
vt 0.0703125 -0.109375
vt 0.0703125 -0.109375
vt 0.0703125 -0.109375
vt 0.5234375 -0.7890625
vt 0.0078125 -0.7890625
vt 0.0078125 -0.0078125
vt 0.5234375 -0.0078125
vt 0.5234375 -0.7890625
vt 0.0078125 -0.7890625
vt 0.0078125 -0.0078125
vt 0.5234375 -0.0078125
vt 0.5234375 -0.7890625
vt 0.0078125 -0.7890625
vt 0.0078125 -0.0078125
vt 0.5234375 -0.0078125
vt 0.5234375 -0.7890625
vt 0.0078125 -0.7890625
vt 0.0078125 -0.0078125
vt 0.5234375 -0.0078125
vt 0.5234375 -0.7890625
vt 0.0078125 -0.7890625
vt 0.0078125 -0.0078125
vt 0.5234375 -0.0078125
vt 0.5234375 -0.8945313
vt 0.0078125 -0.8945313
vt 0.0078125 -0.8007813
vt 0.5234375 -0.8007813
vt 0.5234375 -0.8945313
vt 0.0078125 -0.8945313
vt 0.0078125 -0.8007813
vt 0.5234375 -0.8007813
vt 0.5234375 -0.8945313
vt 0.0078125 -0.8945313
vt 0.0078125 -0.8007813
vt 0.5234375 -0.8007813
vt 0.5234375 -0.8945313
vt 0.0078125 -0.8945313
vt 0.0078125 -0.8007813
vt 0.5234375 -0.8007813
vt 0.5234375 -0.8945313
vt 0.0078125 -0.8945313
vt 0.0078125 -0.8007813
vt 0.5234375 -0.8007813
vt 0.8710938 -1
vt 0.8710938 0
vt 0.578125 0
vt 0.578125 -1
vt 0.5234375 -0.9921875
vt 0.0078125 -0.9921875
vt 0.0078125 -0.9003906
vt 0.5234375 -0.9003906
vt 0.5234375 -0.9921875
vt 0.0078125 -0.9921875
vt 0.0078125 -0.9003906
vt 0.5234375 -0.9003906
vt 0.5234375 -0.9921875
vt 0.0078125 -0.9921875
vt 0.0078125 -0.9003906
vt 0.5234375 -0.9003906
vt 0.5234375 -0.9921875
vt 0.0078125 -0.9921875
vt 0.0078125 -0.9003906
vt 0.5234375 -0.9003906
vt 0.5234375 -0.9921875
vt 0.0078125 -0.9921875
vt 0.0078125 -0.9003906
vt 0.5234375 -0.9003906
f 66/66/66 67/67/67 68/68/68 69/69/69
f 70/70/70 71/71/71 72/72/72 73/73/73
f 74/74/74 75/75/75 76/76/76 77/77/77
f 78/78/78 79/79/79 80/80/80 81/81/81
f 82/82/82 83/83/83 84/84/84 85/85/85
f 86/86/86 87/87/87 88/88/88 89/89/89
f 90/90/90 91/91/91 92/92/92 93/93/93
f 94/94/94 95/95/95 96/96/96 97/97/97
f 98/98/98 99/99/99 100/100/100 101/101/101
f 102/102/102 103/103/103 104/104/104 105/105/105
f 106/106/106 107/107/107 108/108/108 109/109/109
f 110/110/110 111/111/111 112/112/112 113/113/113
f 114/114/114 115/115/115 116/116/116 117/117/117
f 118/118/118 119/119/119 120/120/120 121/121/121
f 122/122/122 123/123/123 124/124/124 125/125/125
f 126/126/126 127/127/127 128/128/128 129/129/129
f 130/130/130 131/131/131 132/132/132 133/133/133
f 134/134/134 135/135/135 136/136/136 137/137/137
f 138/138/138 139/139/139 140/140/140 141/141/141
f 142/142/142 143/143/143 144/144/144 145/145/145
f 146/146/146 147/147/147 148/148/148 149/149/149
f 150/150/150 151/151/151 152/152/152 153/153/153
f 154/154/154 155/155/155 156/156/156 157/157/157
f 158/158/158 159/159/159 160/160/160 161/161/161
f 162/162/162 163/163/163 164/164/164 165/165/165
f 166/166/166 167/167/167 168/168/168 169/169/169
f 170/170/170 171/171/171 172/172/172 173/173/173
f 174/174/174 175/175/175 176/176/176 177/177/177
f 178/178/178 179/179/179 180/180/180 181/181/181
f 182/182/182 183/183/183 184/184/184 185/185/185
f 186/186/186 187/187/187 188/188/188 189/189/189
f 190/190/190 191/191/191 192/192/192 193/193/193
f 194/194/194 195/195/195 196/196/196 197/197/197
f 198/198/198 199/199/199 200/200/200 201/201/201
f 202/202/202 203/203/203 204/204/204 205/205/205
f 206/206/206 207/207/207 208/208/208 209/209/209
f 210/210/210 211/211/211 212/212/212 213/213/213
f 214/214/214 215/215/215 216/216/216 217/217/217
f 218/218/218 219/219/219 220/220/220 221/221/221
f 222/222/222 223/223/223 224/224/224 225/225/225
f 226/226/226 227/227/227 228/228/228 229/229/229
f 230/230/230 231/231/231 232/232/232 233/233/233
f 234/234/234 235/235/235 236/236/236 237/237/237
f 238/238/238 239/239/239 240/240/240 241/241/241
f 242/242/242 243/243/243 244/244/244 245/245/245
f 246/246/246 247/247/247 248/248/248 249/249/249
f 250/250/250 251/251/251 252/252/252 253/253/253
f 254/254/254 255/255/255 256/256/256 257/257/257
f 258/258/258 259/259/259 260/260/260 261/261/261
f 262/262/262 263/263/263 264/264/264 265/265/265
f 266/266/266 267/267/267 268/268/268 269/269/269
f 270/270/270 271/271/271 272/272/272 273/273/273
f 274/274/274 275/275/275 276/276/276 277/277/277
f 278/278/278 279/279/279 280/280/280 281/281/281
f 282/282/282 283/283/283 284/284/284 285/285/285
f 286/286/286 287/287/287 288/288/288 289/289/289
v -51.58984 87.83594 -2.589844
v -54.29688 84.60938 8.386719
v -45.54297 70.15234 0
v -57.46094 80.83594 -9.984375
v -51.58984 87.83594 -2.589844
v -45.54297 70.15234 0
v -63.80078 73.28516 -3.582031
v -57.46094 80.83594 -9.984375
v -45.54297 70.15234 0
v -61.84375 75.61328 7.769531
v -63.80078 73.28516 -3.582031
v -45.54297 70.15234 0
v -54.29688 84.60938 8.386719
v -61.84375 75.61328 7.769531
v -45.54297 70.15234 0
v -27.51172 109.2969 -2.589844
v -31.16016 107.1914 8.386719
v -27.875 90.60938 0
v -35.42188 104.7305 -9.984375
v -27.51172 109.2969 -2.589844
v -27.875 90.60938 0
v -43.96094 99.80078 -3.582031
v -35.42188 104.7305 -9.984375
v -27.875 90.60938 0
v -41.32813 101.3203 7.769531
v -43.96094 99.80078 -3.582031
v -27.875 90.60938 0
v -31.16016 107.1914 8.386719
v -41.32813 101.3203 7.769531
v -27.875 90.60938 0
v 37.25391 85.70313 -8.660156
v 44.76953 76.74609 -7.429688
v 28.21094 71.58984 0
v 34.18359 89.36719 2.078125
v 37.25391 85.70313 -8.660156
v 28.21094 71.58984 0
v 39.79688 82.67578 9.945313
v 34.18359 89.36719 2.078125
v 28.21094 71.58984 0
v 46.33984 74.875 4.066406
v 39.79688 82.67578 9.945313
v 28.21094 71.58984 0
v 44.76953 76.74609 -7.429688
v 46.33984 74.875 4.066406
v 28.21094 71.58984 0
v 18.625 106.2734 -9.847656
v 27.77344 100.9922 -4.695313
v 12.12891 91.55078 0
v 11.55078 110.3555 -1.390625
v 18.625 106.2734 -9.847656
v 12.12891 91.55078 0
v 16.33203 107.5977 8.988281
v 11.55078 110.3555 -1.390625
v 12.12891 91.55078 0
v 26.35938 101.8086 6.945313
v 16.33203 107.5977 8.988281
v 12.12891 91.55078 0
v 27.77344 100.9922 -4.695313
v 26.35938 101.8086 6.945313
v 12.12891 91.55078 0
v 1.660156 114 -2.589844
v -2.554688 114 8.386719
v -8 98 0
v -7.476563 114 -9.984375
v 1.660156 114 -2.589844
v -8 98 0
v -17.33594 114 -3.582031
v -7.476563 114 -9.984375
v -8 98 0
v -14.29297 114 7.769531
v -17.33594 114 -3.582031
v -8 98 0
v -2.554688 114 8.386719
v -14.29297 114 7.769531
v -8 98 0
v 42.97656 64 6.457031
v 47.75781 64 -0.1210938
v 42.97656 64 -6.699219
v -58.43359 64 -6.578125
v -63.21094 64 0
v -58.43359 64 6.578125
vn 0.8808594 0.3476563 0.3203125
vn 0.8808594 0.3476563 0.3203125
vn 0.8808594 0.3476563 0.3203125
vn 0.7070313 0.140625 -0.6933594
vn 0.7070313 0.140625 -0.6933594
vn 0.7070313 0.140625 -0.6933594
vn 0.03320313 -0.6621094 -0.7480469
vn 0.03320313 -0.6621094 -0.7480469
vn 0.03320313 -0.6621094 -0.7480469
vn -0.2089844 -0.9511719 0.2304688
vn -0.2089844 -0.9511719 0.2304688
vn -0.2089844 -0.9511719 0.2304688
vn 0.3164063 -0.3261719 0.890625
vn 0.3164063 -0.3261719 0.890625
vn 0.3164063 -0.3261719 0.890625
vn 0.9472656 0.02539063 0.3203125
vn 0.9472656 0.02539063 0.3203125
vn 0.9472656 0.02539063 0.3203125
vn 0.7128906 -0.109375 -0.6933594
vn 0.7128906 -0.109375 -0.6933594
vn 0.7128906 -0.109375 -0.6933594
vn -0.1953125 -0.6347656 -0.7480469
vn -0.1953125 -0.6347656 -0.7480469
vn -0.1953125 -0.6347656 -0.7480469
vn -0.5214844 -0.8222656 0.2304688
vn -0.5214844 -0.8222656 0.2304688
vn -0.5214844 -0.8222656 0.2304688
vn 0.1855469 -0.4140625 0.890625
vn 0.1855469 -0.4140625 0.890625
vn 0.1855469 -0.4140625 0.890625
vn -0.2851563 -0.3613281 -0.8867188
vn -0.2851563 -0.3613281 -0.8867188
vn -0.2851563 -0.3613281 -0.8867188
vn -0.8691406 0.3339844 -0.3632813
vn -0.8691406 0.3339844 -0.3632813
vn -0.8691406 0.3339844 -0.3632813
vn -0.7304688 0.1679688 0.6640625
vn -0.7304688 0.1679688 0.6640625
vn -0.7304688 0.1679688 0.6640625
vn -0.05859375 -0.6328125 0.7734375
vn -0.05859375 -0.6328125 0.7734375
vn -0.05859375 -0.6328125 0.7734375
vn 0.2148438 -0.9589844 -0.1855469
vn 0.2148438 -0.9589844 -0.1855469
vn 0.2148438 -0.9589844 -0.1855469
vn 0.1132813 -0.5859375 -0.8027344
vn 0.1132813 -0.5859375 -0.8027344
vn 0.1132813 -0.5859375 -0.8027344
vn -0.78125 -0.0703125 -0.6191406
vn -0.78125 -0.0703125 -0.6191406
vn -0.78125 -0.0703125 -0.6191406
vn -0.9082031 0.00390625 0.4199219
vn -0.9082031 0.00390625 0.4199219
vn -0.9082031 0.00390625 0.4199219
vn -0.046875 -0.4511719 0.890625
vn -0.046875 -0.4511719 0.890625
vn -0.046875 -0.4511719 0.890625
vn 0.5390625 -0.8320313 0.125
vn 0.5390625 -0.8320313 0.125
vn 0.5390625 -0.8320313 0.125
vn 0.8339844 -0.4511719 0.3203125
vn 0.8339844 -0.4511719 0.3203125
vn 0.8339844 -0.4511719 0.3203125
vn 0.5625 -0.4511719 -0.6933594
vn 0.5625 -0.4511719 -0.6933594
vn 0.5625 -0.4511719 -0.6933594
vn -0.4863281 -0.4511719 -0.7480469
vn -0.4863281 -0.4511719 -0.7480469
vn -0.4863281 -0.4511719 -0.7480469
vn -0.8613281 -0.4511719 0.2304688
vn -0.8613281 -0.4511719 0.2304688
vn -0.8613281 -0.4511719 0.2304688
vn -0.046875 -0.4511719 0.890625
vn -0.046875 -0.4511719 0.890625
vn -0.046875 -0.4511719 0.890625
vn 0 0.9980469 0
vn 0 0.9980469 0
vn 0 0.9980469 0
vn 0 0.9980469 0
vn 0 0.9980469 0
vn 0 0.9980469 0
vt 0.9726563 -0.015625
vt 0.9726563 -0.015625
vt 0.9726563 -0.2070313
vt 0.9726563 -0.015625
vt 0.9726563 -0.015625
vt 0.9726563 -0.2070313
vt 0.9726563 -0.015625
vt 0.9726563 -0.015625
vt 0.9726563 -0.2070313
vt 0.9726563 -0.015625
vt 0.9726563 -0.015625
vt 0.9726563 -0.2070313
vt 0.9726563 -0.015625
vt 0.9726563 -0.015625
vt 0.9726563 -0.2070313
vt 0.9726563 -0.015625
vt 0.9726563 -0.015625
vt 0.9726563 -0.2070313
vt 0.9726563 -0.015625
vt 0.9726563 -0.015625
vt 0.9726563 -0.2070313
vt 0.9726563 -0.015625
vt 0.9726563 -0.015625
vt 0.9726563 -0.2070313
vt 0.9726563 -0.015625
vt 0.9726563 -0.015625
vt 0.9726563 -0.2070313
vt 0.9726563 -0.015625
vt 0.9726563 -0.015625
vt 0.9726563 -0.2070313
vt 0.9726563 -0.015625
vt 0.9726563 -0.015625
vt 0.9726563 -0.2070313
vt 0.9726563 -0.015625
vt 0.9726563 -0.015625
vt 0.9726563 -0.2070313
vt 0.9726563 -0.015625
vt 0.9726563 -0.015625
vt 0.9726563 -0.2070313
vt 0.9726563 -0.015625
vt 0.9726563 -0.015625
vt 0.9726563 -0.2070313
vt 0.9726563 -0.015625
vt 0.9726563 -0.015625
vt 0.9726563 -0.2070313
vt 0.9726563 -0.015625
vt 0.9726563 -0.015625
vt 0.9726563 -0.2070313
vt 0.9726563 -0.015625
vt 0.9726563 -0.015625
vt 0.9726563 -0.2070313
vt 0.9726563 -0.015625
vt 0.9726563 -0.015625
vt 0.9726563 -0.2070313
vt 0.9726563 -0.015625
vt 0.9726563 -0.015625
vt 0.9726563 -0.2070313
vt 0.9726563 -0.015625
vt 0.9726563 -0.015625
vt 0.9726563 -0.2070313
vt 0.9726563 -0.015625
vt 0.9726563 -0.015625
vt 0.9726563 -0.2070313
vt 0.9726563 -0.015625
vt 0.9726563 -0.015625
vt 0.9726563 -0.2070313
vt 0.9726563 -0.015625
vt 0.9726563 -0.015625
vt 0.9726563 -0.2070313
vt 0.9726563 -0.015625
vt 0.9726563 -0.015625
vt 0.9726563 -0.2070313
vt 0.9726563 -0.015625
vt 0.9726563 -0.015625
vt 0.9726563 -0.2070313
vt 0.0703125 -0.109375
vt 0.0703125 -0.109375
vt 0.0703125 -0.109375
vt 0.0703125 -0.109375
vt 0.0703125 -0.109375
vt 0.0703125 -0.109375
f 290/290/290 291/291/291 292/292/292
f 293/293/293 294/294/294 295/295/295
f 296/296/296 297/297/297 298/298/298
f 299/299/299 300/300/300 301/301/301
f 302/302/302 303/303/303 304/304/304
f 305/305/305 306/306/306 307/307/307
f 308/308/308 309/309/309 310/310/310
f 311/311/311 312/312/312 313/313/313
f 314/314/314 315/315/315 316/316/316
f 317/317/317 318/318/318 319/319/319
f 320/320/320 321/321/321 322/322/322
f 323/323/323 324/324/324 325/325/325
f 326/326/326 327/327/327 328/328/328
f 329/329/329 330/330/330 331/331/331
f 332/332/332 333/333/333 334/334/334
f 335/335/335 336/336/336 337/337/337
f 338/338/338 339/339/339 340/340/340
f 341/341/341 342/342/342 343/343/343
f 344/344/344 345/345/345 346/346/346
f 347/347/347 348/348/348 349/349/349
f 350/350/350 351/351/351 352/352/352
f 353/353/353 354/354/354 355/355/355
f 356/356/356 357/357/357 358/358/358
f 359/359/359 360/360/360 361/361/361
f 362/362/362 363/363/363 364/364/364
f 365/365/365 366/366/366 367/367/367
f 368/368/368 369/369/369 370/370/370
