# Objet du port. Généré par tools/build_port_objects.py : modifier ce script plutôt que ce fichier.
mtllib rowboat_v.mtl
v -4.0500 2.0250 -20.2500 1.0000 1.0000 1.0000
v -4.7443 2.0250 -17.3571 1.0000 1.0000 1.0000
v -5.4386 2.0250 -14.4643 1.0000 1.0000 1.0000
v -6.1329 2.0250 -11.5714 1.0000 1.0000 1.0000
v -6.4800 2.0250 -8.6786 1.0000 1.0000 1.0000
v -6.4800 2.0250 -5.7857 1.0000 1.0000 1.0000
v -6.4800 2.0250 -2.8929 1.0000 1.0000 1.0000
v -6.4800 2.0250 0.0000 1.0000 1.0000 1.0000
v -6.4800 2.0250 2.8929 1.0000 1.0000 1.0000
v -6.4334 2.0250 5.7857 1.0000 1.0000 1.0000
v -6.1424 2.0250 8.6786 1.0000 1.0000 1.0000
v -5.5541 2.0250 11.5714 1.0000 1.0000 1.0000
v -4.5845 2.0250 14.4643 1.0000 1.0000 1.0000
v -2.9995 2.0250 17.3571 1.0000 1.0000 1.0000
v -0.0000 2.0250 20.2500 1.0000 1.0000 1.0000
v 0.0000 2.0250 20.2500 1.0000 1.0000 1.0000
v 2.9995 2.0250 17.3571 1.0000 1.0000 1.0000
v 4.5845 2.0250 14.4643 1.0000 1.0000 1.0000
v 5.5541 2.0250 11.5714 1.0000 1.0000 1.0000
v 6.1424 2.0250 8.6786 1.0000 1.0000 1.0000
v 6.4334 2.0250 5.7857 1.0000 1.0000 1.0000
v 6.4800 2.0250 2.8929 1.0000 1.0000 1.0000
v 6.4800 2.0250 0.0000 1.0000 1.0000 1.0000
v 6.4800 2.0250 -2.8929 1.0000 1.0000 1.0000
v 6.4800 2.0250 -5.7857 1.0000 1.0000 1.0000
v 6.4800 2.0250 -8.6786 1.0000 1.0000 1.0000
v 6.1329 2.0250 -11.5714 1.0000 1.0000 1.0000
v 5.4386 2.0250 -14.4643 1.0000 1.0000 1.0000
v 4.7443 2.0250 -17.3571 1.0000 1.0000 1.0000
v 4.0500 2.0250 -20.2500 1.0000 1.0000 1.0000
v -5.6700 6.0750 -20.2500 0.7406 0.7406 0.7406
v -6.3643 6.0750 -17.3571 0.7406 0.7406 0.7406
v -6.1097 0.0000 -17.3571 0.7406 0.7406 0.7406
v -5.4432 0.0000 -20.2500 0.7406 0.7406 0.7406
v -5.4432 0.0000 -20.2500 0.7413 0.7413 0.7413
v -6.1097 0.0000 -17.3571 0.7413 0.7413 0.7413
v -3.5004 -2.7000 -17.3571 0.7413 0.7413 0.7413
v -3.1185 -2.7000 -20.2500 0.7413 0.7413 0.7413
v -6.3643 6.0750 -17.3571 0.7406 0.7406 0.7406
v -7.0586 6.0750 -14.4643 0.7406 0.7406 0.7406
v -6.7762 0.0000 -14.4643 0.7406 0.7406 0.7406
v -6.1097 0.0000 -17.3571 0.7406 0.7406 0.7406
v -6.1097 0.0000 -17.3571 0.5500 0.5500 0.5500
v -6.7762 0.0000 -14.4643 0.5500 0.5500 0.5500
v -3.8822 -2.7000 -14.4643 0.5500 0.5500 0.5500
v -3.5004 -2.7000 -17.3571 0.5500 0.5500 0.5500
v -7.0586 6.0750 -14.4643 0.7406 0.7406 0.7406
v -7.7529 6.0750 -11.5714 0.7406 0.7406 0.7406
v -7.4427 0.0000 -11.5714 0.7406 0.7406 0.7406
v -6.7762 0.0000 -14.4643 0.7406 0.7406 0.7406
v -6.7762 0.0000 -14.4643 0.5500 0.5500 0.5500
v -7.4427 0.0000 -11.5714 0.5500 0.5500 0.5500
v -4.2641 -2.7000 -11.5714 0.5500 0.5500 0.5500
v -3.8822 -2.7000 -14.4643 0.5500 0.5500 0.5500
v -7.7529 6.0750 -11.5714 0.7493 0.7493 0.7493
v -8.1000 6.0750 -8.6786 0.7493 0.7493 0.7493
v -7.7760 0.0000 -8.6786 0.7493 0.7493 0.7493
v -7.4427 0.0000 -11.5714 0.7493 0.7493 0.7493
v -7.4427 0.0000 -11.5714 0.5500 0.5500 0.5500
v -7.7760 0.0000 -8.6786 0.5500 0.5500 0.5500
v -4.4550 -2.7000 -8.6786 0.5500 0.5500 0.5500
v -4.2641 -2.7000 -11.5714 0.5500 0.5500 0.5500
v -8.1000 6.0750 -8.6786 0.7600 0.7600 0.7600
v -8.1000 6.0750 -5.7857 0.7600 0.7600 0.7600
v -7.7760 0.0000 -5.7857 0.7600 0.7600 0.7600
v -7.7760 0.0000 -8.6786 0.7600 0.7600 0.7600
v -7.7760 0.0000 -8.6786 0.5500 0.5500 0.5500
v -7.7760 0.0000 -5.7857 0.5500 0.5500 0.5500
v -4.4550 -2.7000 -5.7857 0.5500 0.5500 0.5500
v -4.4550 -2.7000 -8.6786 0.5500 0.5500 0.5500
v -8.1000 6.0750 -5.7857 0.7600 0.7600 0.7600
v -8.1000 6.0750 -2.8929 0.7600 0.7600 0.7600
v -7.7760 0.0000 -2.8929 0.7600 0.7600 0.7600
v -7.7760 0.0000 -5.7857 0.7600 0.7600 0.7600
v -7.7760 0.0000 -5.7857 0.5500 0.5500 0.5500
v -7.7760 0.0000 -2.8929 0.5500 0.5500 0.5500
v -4.4550 -2.7000 -2.8929 0.5500 0.5500 0.5500
v -4.4550 -2.7000 -5.7857 0.5500 0.5500 0.5500
v -8.1000 6.0750 -2.8929 0.7600 0.7600 0.7600
v -8.1000 6.0750 0.0000 0.7600 0.7600 0.7600
v -7.7760 0.0000 0.0000 0.7600 0.7600 0.7600
v -7.7760 0.0000 -2.8929 0.7600 0.7600 0.7600
v -7.7760 0.0000 -2.8929 0.5500 0.5500 0.5500
v -7.7760 0.0000 0.0000 0.5500 0.5500 0.5500
v -4.4550 -2.7000 0.0000 0.5500 0.5500 0.5500
v -4.4550 -2.7000 -2.8929 0.5500 0.5500 0.5500
v -8.1000 6.0750 0.0000 0.7600 0.7600 0.7600
v -8.1000 6.0750 2.8929 0.7600 0.7600 0.7600
v -7.7760 0.0000 2.8929 0.7600 0.7600 0.7600
v -7.7760 0.0000 0.0000 0.7600 0.7600 0.7600
v -7.7760 0.0000 0.0000 0.5500 0.5500 0.5500
v -7.7760 0.0000 2.8929 0.5500 0.5500 0.5500
v -4.4550 -2.7000 2.8929 0.5500 0.5500 0.5500
v -4.4550 -2.7000 0.0000 0.5500 0.5500 0.5500
v -8.1000 6.0750 2.8929 0.7620 0.7620 0.7620
v -8.0534 6.1099 5.7857 0.7620 0.7620 0.7620
v -7.7312 0.0000 5.7857 0.7620 0.7620 0.7620
v -7.7760 0.0000 2.8929 0.7620 0.7620 0.7620
v -7.7760 0.0000 2.8929 0.5500 0.5500 0.5500
v -7.7312 0.0000 5.7857 0.5500 0.5500 0.5500
v -4.4294 -2.7000 5.7857 0.5500 0.5500 0.5500
v -4.4550 -2.7000 2.8929 0.5500 0.5500 0.5500
v -8.0534 6.1099 5.7857 0.7713 0.7713 0.7713
v -7.7624 6.3230 8.6786 0.7713 0.7713 0.7713
v -7.4519 0.0000 8.6786 0.7713 0.7713 0.7713
v -7.7312 0.0000 5.7857 0.7713 0.7713 0.7713
v -7.7312 0.0000 5.7857 0.5500 0.5500 0.5500
v -7.4519 0.0000 8.6786 0.5500 0.5500 0.5500
v -4.2693 -2.7000 8.6786 0.5500 0.5500 0.5500
v -4.4294 -2.7000 5.7857 0.5500 0.5500 0.5500
v -7.7624 6.3230 8.6786 0.7808 0.7808 0.7808
v -7.1741 6.7298 11.5714 0.7808 0.7808 0.7808
v -6.8871 0.0000 11.5714 0.7808 0.7808 0.7808
v -7.4519 0.0000 8.6786 0.7808 0.7808 0.7808
v -7.4519 0.0000 8.6786 0.5500 0.5500 0.5500
v -6.8871 0.0000 11.5714 0.5500 0.5500 0.5500
v -3.9457 -2.7000 11.5714 0.5500 0.5500 0.5500
v -4.2693 -2.7000 8.6786 0.5500 0.5500 0.5500
v -7.1741 6.7298 11.5714 0.7906 0.7906 0.7906
v -6.2045 7.3303 14.4643 0.7906 0.7906 0.7906
v -5.9563 0.0000 14.4643 0.7906 0.7906 0.7906
v -6.8871 0.0000 11.5714 0.7906 0.7906 0.7906
v -6.8871 0.0000 11.5714 0.7892 0.7892 0.7892
v -5.9563 0.0000 14.4643 0.7892 0.7892 0.7892
v -3.4125 -2.7000 14.4643 0.7892 0.7892 0.7892
v -3.9457 -2.7000 11.5714 0.7892 0.7892 0.7892
v -6.2045 7.3303 14.4643 0.8028 0.8028 0.8028
v -4.6195 8.1245 17.3571 0.8028 0.8028 0.8028
v -4.4347 0.0000 17.3571 0.8028 0.8028 0.8028
v -5.9563 0.0000 14.4643 0.8028 0.8028 0.8028
v -5.9563 0.0000 14.4643 0.8014 0.8014 0.8014
v -4.4347 0.0000 17.3571 0.8014 0.8014 0.8014
v -2.5407 -2.7000 17.3571 0.8014 0.8014 0.8014
v -3.4125 -2.7000 14.4643 0.8014 0.8014 0.8014
v -4.6195 8.1245 17.3571 0.8338 0.8338 0.8338
v -0.0000 9.1125 20.2500 0.8338 0.8338 0.8338
v -0.0000 0.0000 20.2500 0.8338 0.8338 0.8338
v -4.4347 0.0000 17.3571 0.8338 0.8338 0.8338
v -4.4347 0.0000 17.3571 0.8326 0.8326 0.8326
v -0.0000 0.0000 20.2500 0.8326 0.8326 0.8326
v -0.0000 -2.7000 20.2500 0.8326 0.8326 0.8326
v -2.5407 -2.7000 17.3571 0.8326 0.8326 0.8326
v 6.3643 6.0750 -17.3571 0.7406 0.7406 0.7406
v 5.6700 6.0750 -20.2500 0.7406 0.7406 0.7406
v 5.4432 0.0000 -20.2500 0.7406 0.7406 0.7406
v 6.1097 0.0000 -17.3571 0.7406 0.7406 0.7406
v 6.1097 0.0000 -17.3571 0.7413 0.7413 0.7413
v 5.4432 0.0000 -20.2500 0.7413 0.7413 0.7413
v 3.1185 -2.7000 -20.2500 0.7413 0.7413 0.7413
v 3.5004 -2.7000 -17.3571 0.7413 0.7413 0.7413
v 7.0586 6.0750 -14.4643 0.7406 0.7406 0.7406
v 6.3643 6.0750 -17.3571 0.7406 0.7406 0.7406
v 6.1097 0.0000 -17.3571 0.7406 0.7406 0.7406
v 6.7762 0.0000 -14.4643 0.7406 0.7406 0.7406
v 6.7762 0.0000 -14.4643 0.7413 0.7413 0.7413
v 6.1097 0.0000 -17.3571 0.7413 0.7413 0.7413
v 3.5004 -2.7000 -17.3571 0.7413 0.7413 0.7413
v 3.8822 -2.7000 -14.4643 0.7413 0.7413 0.7413
v 7.7529 6.0750 -11.5714 0.7406 0.7406 0.7406
v 7.0586 6.0750 -14.4643 0.7406 0.7406 0.7406
v 6.7762 0.0000 -14.4643 0.7406 0.7406 0.7406
v 7.4427 0.0000 -11.5714 0.7406 0.7406 0.7406
v 7.4427 0.0000 -11.5714 0.5500 0.5500 0.5500
v 6.7762 0.0000 -14.4643 0.5500 0.5500 0.5500
v 3.8822 -2.7000 -14.4643 0.5500 0.5500 0.5500
v 4.2641 -2.7000 -11.5714 0.5500 0.5500 0.5500
v 8.1000 6.0750 -8.6786 0.7493 0.7493 0.7493
v 7.7529 6.0750 -11.5714 0.7493 0.7493 0.7493
v 7.4427 0.0000 -11.5714 0.7493 0.7493 0.7493
v 7.7760 0.0000 -8.6786 0.7493 0.7493 0.7493
v 7.7760 0.0000 -8.6786 0.5500 0.5500 0.5500
v 7.4427 0.0000 -11.5714 0.5500 0.5500 0.5500
v 4.2641 -2.7000 -11.5714 0.5500 0.5500 0.5500
v 4.4550 -2.7000 -8.6786 0.5500 0.5500 0.5500
v 8.1000 6.0750 -5.7857 0.7600 0.7600 0.7600
v 8.1000 6.0750 -8.6786 0.7600 0.7600 0.7600
v 7.7760 0.0000 -8.6786 0.7600 0.7600 0.7600
v 7.7760 0.0000 -5.7857 0.7600 0.7600 0.7600
v 7.7760 0.0000 -5.7857 0.5500 0.5500 0.5500
v 7.7760 0.0000 -8.6786 0.5500 0.5500 0.5500
v 4.4550 -2.7000 -8.6786 0.5500 0.5500 0.5500
v 4.4550 -2.7000 -5.7857 0.5500 0.5500 0.5500
v 8.1000 6.0750 -2.8929 0.7600 0.7600 0.7600
v 8.1000 6.0750 -5.7857 0.7600 0.7600 0.7600
v 7.7760 0.0000 -5.7857 0.7600 0.7600 0.7600
v 7.7760 0.0000 -2.8929 0.7600 0.7600 0.7600
v 7.7760 0.0000 -2.8929 0.5500 0.5500 0.5500
v 7.7760 0.0000 -5.7857 0.5500 0.5500 0.5500
v 4.4550 -2.7000 -5.7857 0.5500 0.5500 0.5500
v 4.4550 -2.7000 -2.8929 0.5500 0.5500 0.5500
v 8.1000 6.0750 0.0000 0.7600 0.7600 0.7600
v 8.1000 6.0750 -2.8929 0.7600 0.7600 0.7600
v 7.7760 0.0000 -2.8929 0.7600 0.7600 0.7600
v 7.7760 0.0000 0.0000 0.7600 0.7600 0.7600
v 7.7760 0.0000 0.0000 0.5500 0.5500 0.5500
v 7.7760 0.0000 -2.8929 0.5500 0.5500 0.5500
v 4.4550 -2.7000 -2.8929 0.5500 0.5500 0.5500
v 4.4550 -2.7000 0.0000 0.5500 0.5500 0.5500
v 8.1000 6.0750 2.8929 0.7600 0.7600 0.7600
v 8.1000 6.0750 0.0000 0.7600 0.7600 0.7600
v 7.7760 0.0000 0.0000 0.7600 0.7600 0.7600
v 7.7760 0.0000 2.8929 0.7600 0.7600 0.7600
v 7.7760 0.0000 2.8929 0.5500 0.5500 0.5500
v 7.7760 0.0000 0.0000 0.5500 0.5500 0.5500
v 4.4550 -2.7000 0.0000 0.5500 0.5500 0.5500
v 4.4550 -2.7000 2.8929 0.5500 0.5500 0.5500
v 8.0534 6.1099 5.7857 0.7620 0.7620 0.7620
v 8.1000 6.0750 2.8929 0.7620 0.7620 0.7620
v 7.7760 0.0000 2.8929 0.7620 0.7620 0.7620
v 7.7312 0.0000 5.7857 0.7620 0.7620 0.7620
v 7.7312 0.0000 5.7857 0.5500 0.5500 0.5500
v 7.7760 0.0000 2.8929 0.5500 0.5500 0.5500
v 4.4550 -2.7000 2.8929 0.5500 0.5500 0.5500
v 4.4294 -2.7000 5.7857 0.5500 0.5500 0.5500
v 7.7624 6.3230 8.6786 0.7714 0.7714 0.7714
v 8.0534 6.1099 5.7857 0.7714 0.7714 0.7714
v 7.7312 0.0000 5.7857 0.7714 0.7714 0.7714
v 7.4519 0.0000 8.6786 0.7714 0.7714 0.7714
v 7.4519 0.0000 8.6786 0.5500 0.5500 0.5500
v 7.7312 0.0000 5.7857 0.5500 0.5500 0.5500
v 4.4294 -2.7000 5.7857 0.5500 0.5500 0.5500
v 4.2693 -2.7000 8.6786 0.5500 0.5500 0.5500
v 7.1741 6.7298 11.5714 0.7808 0.7808 0.7808
v 7.7624 6.3230 8.6786 0.7808 0.7808 0.7808
v 7.4519 0.0000 8.6786 0.7808 0.7808 0.7808
v 6.8871 0.0000 11.5714 0.7808 0.7808 0.7808
v 6.8871 0.0000 11.5714 0.5500 0.5500 0.5500
v 7.4519 0.0000 8.6786 0.5500 0.5500 0.5500
v 4.2693 -2.7000 8.6786 0.5500 0.5500 0.5500
v 3.9457 -2.7000 11.5714 0.5500 0.5500 0.5500
v 6.2045 7.3303 14.4643 0.7907 0.7907 0.7907
v 7.1741 6.7298 11.5714 0.7907 0.7907 0.7907
v 6.8871 0.0000 11.5714 0.7907 0.7907 0.7907
v 5.9563 0.0000 14.4643 0.7907 0.7907 0.7907
v 5.9563 0.0000 14.4643 0.5500 0.5500 0.5500
v 6.8871 0.0000 11.5714 0.5500 0.5500 0.5500
v 3.9457 -2.7000 11.5714 0.5500 0.5500 0.5500
v 3.4125 -2.7000 14.4643 0.5500 0.5500 0.5500
v 4.6195 8.1245 17.3571 0.8029 0.8029 0.8029
v 6.2045 7.3303 14.4643 0.8029 0.8029 0.8029
v 5.9563 0.0000 14.4643 0.8029 0.8029 0.8029
v 4.4347 0.0000 17.3571 0.8029 0.8029 0.8029
v 4.4347 0.0000 17.3571 0.8014 0.8014 0.8014
v 5.9563 0.0000 14.4643 0.8014 0.8014 0.8014
v 3.4125 -2.7000 14.4643 0.8014 0.8014 0.8014
v 2.5407 -2.7000 17.3571 0.8014 0.8014 0.8014
v 0.0000 9.1125 20.2500 0.8339 0.8339 0.8339
v 4.6195 8.1245 17.3571 0.8339 0.8339 0.8339
v 4.4347 0.0000 17.3571 0.8339 0.8339 0.8339
v 0.0000 0.0000 20.2500 0.8339 0.8339 0.8339
v 0.0000 0.0000 20.2500 0.8326 0.8326 0.8326
v 4.4347 0.0000 17.3571 0.8326 0.8326 0.8326
v 2.5407 -2.7000 17.3571 0.8326 0.8326 0.8326
v 0.0000 -2.7000 20.2500 0.8326 0.8326 0.8326
v 5.6700 6.0750 -20.2500 0.6600 0.6600 0.6600
v -5.6700 6.0750 -20.2500 0.6600 0.6600 0.6600
v -5.4432 0.0000 -20.2500 0.6600 0.6600 0.6600
v 5.4432 0.0000 -20.2500 0.6600 0.6600 0.6600
v 5.4432 0.0000 -20.2500 0.6600 0.6600 0.6600
v -5.4432 0.0000 -20.2500 0.6600 0.6600 0.6600
v -3.1185 -2.7000 -20.2500 0.6600 0.6600 0.6600
v 3.1185 -2.7000 -20.2500 0.6600 0.6600 0.6600
v -4.7443 6.0750 -17.3571 0.7832 0.7832 0.7832
v -4.0500 6.0750 -20.2500 0.7832 0.7832 0.7832
v -4.0500 2.0250 -20.2500 0.7832 0.7832 0.7832
v -4.7443 2.0250 -17.3571 0.7832 0.7832 0.7832
v -5.6700 6.0750 -20.2500 1.0000 1.0000 1.0000
v -6.3643 6.0750 -17.3571 1.0000 1.0000 1.0000
v -4.7443 6.0750 -17.3571 1.0000 1.0000 1.0000
v -4.0500 6.0750 -20.2500 1.0000 1.0000 1.0000
v -5.4386 6.0750 -14.4643 0.7832 0.7832 0.7832
v -4.7443 6.0750 -17.3571 0.7832 0.7832 0.7832
v -4.7443 2.0250 -17.3571 0.7832 0.7832 0.7832
v -5.4386 2.0250 -14.4643 0.7832 0.7832 0.7832
v -6.3643 6.0750 -17.3571 1.0000 1.0000 1.0000
v -7.0586 6.0750 -14.4643 1.0000 1.0000 1.0000
v -5.4386 6.0750 -14.4643 1.0000 1.0000 1.0000
v -4.7443 6.0750 -17.3571 1.0000 1.0000 1.0000
v -6.1329 6.0750 -11.5714 0.7832 0.7832 0.7832
v -5.4386 6.0750 -14.4643 0.7832 0.7832 0.7832
v -5.4386 2.0250 -14.4643 0.7832 0.7832 0.7832
v -6.1329 2.0250 -11.5714 0.7832 0.7832 0.7832
v -7.0586 6.0750 -14.4643 1.0000 1.0000 1.0000
v -7.7529 6.0750 -11.5714 1.0000 1.0000 1.0000
v -6.1329 6.0750 -11.5714 1.0000 1.0000 1.0000
v -5.4386 6.0750 -14.4643 1.0000 1.0000 1.0000
v -6.4800 6.0750 -8.6786 0.7729 0.7729 0.7729
v -6.1329 6.0750 -11.5714 0.7729 0.7729 0.7729
v -6.1329 2.0250 -11.5714 0.7729 0.7729 0.7729
v -6.4800 2.0250 -8.6786 0.7729 0.7729 0.7729
v -7.7529 6.0750 -11.5714 1.0000 1.0000 1.0000
v -8.1000 6.0750 -8.6786 1.0000 1.0000 1.0000
v -6.4800 6.0750 -8.6786 1.0000 1.0000 1.0000
v -6.1329 6.0750 -11.5714 1.0000 1.0000 1.0000
v -6.4800 6.0750 -5.7857 0.7600 0.7600 0.7600
v -6.4800 6.0750 -8.6786 0.7600 0.7600 0.7600
v -6.4800 2.0250 -8.6786 0.7600 0.7600 0.7600
v -6.4800 2.0250 -5.7857 0.7600 0.7600 0.7600
v -8.1000 6.0750 -8.6786 1.0000 1.0000 1.0000
v -8.1000 6.0750 -5.7857 1.0000 1.0000 1.0000
v -6.4800 6.0750 -5.7857 1.0000 1.0000 1.0000
v -6.4800 6.0750 -8.6786 1.0000 1.0000 1.0000
v -6.4800 6.0750 -2.8929 0.7600 0.7600 0.7600
v -6.4800 6.0750 -5.7857 0.7600 0.7600 0.7600
v -6.4800 2.0250 -5.7857 0.7600 0.7600 0.7600
v -6.4800 2.0250 -2.8929 0.7600 0.7600 0.7600
v -8.1000 6.0750 -5.7857 1.0000 1.0000 1.0000
v -8.1000 6.0750 -2.8929 1.0000 1.0000 1.0000
v -6.4800 6.0750 -2.8929 1.0000 1.0000 1.0000
v -6.4800 6.0750 -5.7857 1.0000 1.0000 1.0000
v -6.4800 6.0750 0.0000 0.7600 0.7600 0.7600
v -6.4800 6.0750 -2.8929 0.7600 0.7600 0.7600
v -6.4800 2.0250 -2.8929 0.7600 0.7600 0.7600
v -6.4800 2.0250 0.0000 0.7600 0.7600 0.7600
v -8.1000 6.0750 -2.8929 1.0000 1.0000 1.0000
v -8.1000 6.0750 0.0000 1.0000 1.0000 1.0000
v -6.4800 6.0750 0.0000 1.0000 1.0000 1.0000
v -6.4800 6.0750 -2.8929 1.0000 1.0000 1.0000
v -6.4800 6.0750 2.8929 0.7600 0.7600 0.7600
v -6.4800 6.0750 0.0000 0.7600 0.7600 0.7600
v -6.4800 2.0250 0.0000 0.7600 0.7600 0.7600
v -6.4800 2.0250 2.8929 0.7600 0.7600 0.7600
v -8.1000 6.0750 0.0000 1.0000 1.0000 1.0000
v -8.1000 6.0750 2.8929 1.0000 1.0000 1.0000
v -6.4800 6.0750 2.8929 1.0000 1.0000 1.0000
v -6.4800 6.0750 0.0000 1.0000 1.0000 1.0000
v -6.4334 6.1099 5.7857 0.7584 0.7584 0.7584
v -6.4800 6.0750 2.8929 0.7584 0.7584 0.7584
v -6.4800 2.0250 2.8929 0.7584 0.7584 0.7584
v -6.4334 2.0250 5.7857 0.7584 0.7584 0.7584
v -8.1000 6.0750 2.8929 1.0000 1.0000 1.0000
v -8.0534 6.1099 5.7857 1.0000 1.0000 1.0000
v -6.4334 6.1099 5.7857 1.0000 1.0000 1.0000
v -6.4800 6.0750 2.8929 1.0000 1.0000 1.0000
v -6.1424 6.3230 8.6786 0.7509 0.7509 0.7509
v -6.4334 6.1099 5.7857 0.7509 0.7509 0.7509
v -6.4334 2.0250 5.7857 0.7509 0.7509 0.7509
v -6.1424 2.0250 8.6786 0.7509 0.7509 0.7509
v -8.0534 6.1099 5.7857 1.0000 1.0000 1.0000
v -7.7624 6.3230 8.6786 1.0000 1.0000 1.0000
v -6.1424 6.3230 8.6786 1.0000 1.0000 1.0000
v -6.4334 6.1099 5.7857 1.0000 1.0000 1.0000
v -5.5541 6.7298 11.5714 0.7431 0.7431 0.7431
v -6.1424 6.3230 8.6786 0.7431 0.7431 0.7431
v -6.1424 2.0250 8.6786 0.7431 0.7431 0.7431
v -5.5541 2.0250 11.5714 0.7431 0.7431 0.7431
v -7.7624 6.3230 8.6786 1.0000 1.0000 1.0000
v -7.1741 6.7298 11.5714 1.0000 1.0000 1.0000
v -5.5541 6.7298 11.5714 1.0000 1.0000 1.0000
v -6.1424 6.3230 8.6786 1.0000 1.0000 1.0000
v -4.5845 7.3303 14.4643 0.7349 0.7349 0.7349
v -5.5541 6.7298 11.5714 0.7349 0.7349 0.7349
v -5.5541 2.0250 11.5714 0.7349 0.7349 0.7349
v -4.5845 2.0250 14.4643 0.7349 0.7349 0.7349
v -7.1741 6.7298 11.5714 1.0000 1.0000 1.0000
v -6.2045 7.3303 14.4643 1.0000 1.0000 1.0000
v -4.5845 7.3303 14.4643 1.0000 1.0000 1.0000
v -5.5541 6.7298 11.5714 1.0000 1.0000 1.0000
v -2.9995 8.1245 17.3571 0.7246 0.7246 0.7246
v -4.5845 7.3303 14.4643 0.7246 0.7246 0.7246
v -4.5845 2.0250 14.4643 0.7246 0.7246 0.7246
v -2.9995 2.0250 17.3571 0.7246 0.7246 0.7246
v -6.2045 7.3303 14.4643 1.0000 1.0000 1.0000
v -4.6195 8.1245 17.3571 1.0000 1.0000 1.0000
v -2.9995 8.1245 17.3571 1.0000 1.0000 1.0000
v -4.5845 7.3303 14.4643 1.0000 1.0000 1.0000
v -0.0000 9.1125 20.2500 0.7091 0.7091 0.7091
v -2.9995 8.1245 17.3571 0.7091 0.7091 0.7091
v -2.9995 2.0250 17.3571 0.7091 0.7091 0.7091
v -0.0000 2.0250 20.2500 0.7091 0.7091 0.7091
v -4.6195 8.1245 17.3571 1.0000 1.0000 1.0000
v -0.0000 9.1125 20.2500 1.0000 1.0000 1.0000
v -0.0000 9.1125 20.2500 1.0000 1.0000 1.0000
v -2.9995 8.1245 17.3571 1.0000 1.0000 1.0000
v 4.0500 6.0750 -20.2500 0.7832 0.7832 0.7832
v 4.7443 6.0750 -17.3571 0.7832 0.7832 0.7832
v 4.7443 2.0250 -17.3571 0.7832 0.7832 0.7832
v 4.0500 2.0250 -20.2500 0.7832 0.7832 0.7832
v 5.6700 6.0750 -20.2500 1.0000 1.0000 1.0000
v 6.3643 6.0750 -17.3571 1.0000 1.0000 1.0000
v 4.7443 6.0750 -17.3571 1.0000 1.0000 1.0000
v 4.0500 6.0750 -20.2500 1.0000 1.0000 1.0000
v 4.7443 6.0750 -17.3571 0.7832 0.7832 0.7832
v 5.4386 6.0750 -14.4643 0.7832 0.7832 0.7832
v 5.4386 2.0250 -14.4643 0.7832 0.7832 0.7832
v 4.7443 2.0250 -17.3571 0.7832 0.7832 0.7832
v 6.3643 6.0750 -17.3571 1.0000 1.0000 1.0000
v 7.0586 6.0750 -14.4643 1.0000 1.0000 1.0000
v 5.4386 6.0750 -14.4643 1.0000 1.0000 1.0000
v 4.7443 6.0750 -17.3571 1.0000 1.0000 1.0000
v 5.4386 6.0750 -14.4643 0.7832 0.7832 0.7832
v 6.1329 6.0750 -11.5714 0.7832 0.7832 0.7832
v 6.1329 2.0250 -11.5714 0.7832 0.7832 0.7832
v 5.4386 2.0250 -14.4643 0.7832 0.7832 0.7832
v 7.0586 6.0750 -14.4643 1.0000 1.0000 1.0000
v 7.7529 6.0750 -11.5714 1.0000 1.0000 1.0000
v 6.1329 6.0750 -11.5714 1.0000 1.0000 1.0000
v 5.4386 6.0750 -14.4643 1.0000 1.0000 1.0000
v 6.1329 6.0750 -11.5714 0.7729 0.7729 0.7729
v 6.4800 6.0750 -8.6786 0.7729 0.7729 0.7729
v 6.4800 2.0250 -8.6786 0.7729 0.7729 0.7729
v 6.1329 2.0250 -11.5714 0.7729 0.7729 0.7729
v 7.7529 6.0750 -11.5714 1.0000 1.0000 1.0000
v 8.1000 6.0750 -8.6786 1.0000 1.0000 1.0000
v 6.4800 6.0750 -8.6786 1.0000 1.0000 1.0000
v 6.1329 6.0750 -11.5714 1.0000 1.0000 1.0000
v 6.4800 6.0750 -8.6786 0.7600 0.7600 0.7600
v 6.4800 6.0750 -5.7857 0.7600 0.7600 0.7600
v 6.4800 2.0250 -5.7857 0.7600 0.7600 0.7600
v 6.4800 2.0250 -8.6786 0.7600 0.7600 0.7600
v 8.1000 6.0750 -8.6786 1.0000 1.0000 1.0000
v 8.1000 6.0750 -5.7857 1.0000 1.0000 1.0000
v 6.4800 6.0750 -5.7857 1.0000 1.0000 1.0000
v 6.4800 6.0750 -8.6786 1.0000 1.0000 1.0000
v 6.4800 6.0750 -5.7857 0.7600 0.7600 0.7600
v 6.4800 6.0750 -2.8929 0.7600 0.7600 0.7600
v 6.4800 2.0250 -2.8929 0.7600 0.7600 0.7600
v 6.4800 2.0250 -5.7857 0.7600 0.7600 0.7600
v 8.1000 6.0750 -5.7857 1.0000 1.0000 1.0000
v 8.1000 6.0750 -2.8929 1.0000 1.0000 1.0000
v 6.4800 6.0750 -2.8929 1.0000 1.0000 1.0000
v 6.4800 6.0750 -5.7857 1.0000 1.0000 1.0000
v 6.4800 6.0750 -2.8929 0.7600 0.7600 0.7600
v 6.4800 6.0750 0.0000 0.7600 0.7600 0.7600
v 6.4800 2.0250 0.0000 0.7600 0.7600 0.7600
v 6.4800 2.0250 -2.8929 0.7600 0.7600 0.7600
v 8.1000 6.0750 -2.8929 1.0000 1.0000 1.0000
v 8.1000 6.0750 0.0000 1.0000 1.0000 1.0000
v 6.4800 6.0750 0.0000 1.0000 1.0000 1.0000
v 6.4800 6.0750 -2.8929 1.0000 1.0000 1.0000
v 6.4800 6.0750 0.0000 0.7600 0.7600 0.7600
v 6.4800 6.0750 2.8929 0.7600 0.7600 0.7600
v 6.4800 2.0250 2.8929 0.7600 0.7600 0.7600
v 6.4800 2.0250 0.0000 0.7600 0.7600 0.7600
v 8.1000 6.0750 0.0000 1.0000 1.0000 1.0000
v 8.1000 6.0750 2.8929 1.0000 1.0000 1.0000
v 6.4800 6.0750 2.8929 1.0000 1.0000 1.0000
v 6.4800 6.0750 0.0000 1.0000 1.0000 1.0000
v 6.4800 6.0750 2.8929 0.7584 0.7584 0.7584
v 6.4334 6.1099 5.7857 0.7584 0.7584 0.7584
v 6.4334 2.0250 5.7857 0.7584 0.7584 0.7584
v 6.4800 2.0250 2.8929 0.7584 0.7584 0.7584
v 8.1000 6.0750 2.8929 1.0000 1.0000 1.0000
v 8.0534 6.1099 5.7857 1.0000 1.0000 1.0000
v 6.4334 6.1099 5.7857 1.0000 1.0000 1.0000
v 6.4800 6.0750 2.8929 1.0000 1.0000 1.0000
v 6.4334 6.1099 5.7857 0.7509 0.7509 0.7509
v 6.1424 6.3230 8.6786 0.7509 0.7509 0.7509
v 6.1424 2.0250 8.6786 0.7509 0.7509 0.7509
v 6.4334 2.0250 5.7857 0.7509 0.7509 0.7509
v 8.0534 6.1099 5.7857 1.0000 1.0000 1.0000
v 7.7624 6.3230 8.6786 1.0000 1.0000 1.0000
v 6.1424 6.3230 8.6786 1.0000 1.0000 1.0000
v 6.4334 6.1099 5.7857 1.0000 1.0000 1.0000
v 6.1424 6.3230 8.6786 0.7431 0.7431 0.7431
v 5.5541 6.7298 11.5714 0.7431 0.7431 0.7431
v 5.5541 2.0250 11.5714 0.7431 0.7431 0.7431
v 6.1424 2.0250 8.6786 0.7431 0.7431 0.7431
v 7.7624 6.3230 8.6786 1.0000 1.0000 1.0000
v 7.1741 6.7298 11.5714 1.0000 1.0000 1.0000
v 5.5541 6.7298 11.5714 1.0000 1.0000 1.0000
v 6.1424 6.3230 8.6786 1.0000 1.0000 1.0000
v 5.5541 6.7298 11.5714 0.7349 0.7349 0.7349
v 4.5845 7.3303 14.4643 0.7349 0.7349 0.7349
v 4.5845 2.0250 14.4643 0.7349 0.7349 0.7349
v 5.5541 2.0250 11.5714 0.7349 0.7349 0.7349
v 7.1741 6.7298 11.5714 1.0000 1.0000 1.0000
v 6.2045 7.3303 14.4643 1.0000 1.0000 1.0000
v 4.5845 7.3303 14.4643 1.0000 1.0000 1.0000
v 5.5541 6.7298 11.5714 1.0000 1.0000 1.0000
v 4.5845 7.3303 14.4643 0.7246 0.7246 0.7246
v 2.9995 8.1245 17.3571 0.7246 0.7246 0.7246
v 2.9995 2.0250 17.3571 0.7246 0.7246 0.7246
v 4.5845 2.0250 14.4643 0.7246 0.7246 0.7246
v 6.2045 7.3303 14.4643 1.0000 1.0000 1.0000
v 4.6195 8.1245 17.3571 1.0000 1.0000 1.0000
v 2.9995 8.1245 17.3571 1.0000 1.0000 1.0000
v 4.5845 7.3303 14.4643 1.0000 1.0000 1.0000
v 2.9995 8.1245 17.3571 0.7091 0.7091 0.7091
v 0.0000 9.1125 20.2500 0.7091 0.7091 0.7091
v 0.0000 2.0250 20.2500 0.7091 0.7091 0.7091
v 2.9995 2.0250 17.3571 0.7091 0.7091 0.7091
v 4.6195 8.1245 17.3571 1.0000 1.0000 1.0000
v 0.0000 9.1125 20.2500 1.0000 1.0000 1.0000
v 0.0000 9.1125 20.2500 1.0000 1.0000 1.0000
v 2.9995 8.1245 17.3571 1.0000 1.0000 1.0000
v 6.2100 4.7250 -10.1250 1.0000 1.0000 1.0000
v 6.2100 4.7250 -6.0750 1.0000 1.0000 1.0000
v -6.2100 4.7250 -6.0750 1.0000 1.0000 1.0000
v -6.2100 4.7250 -10.1250 1.0000 1.0000 1.0000
v -6.2100 2.0250 -10.1250 0.5500 0.5500 0.5500
v -6.2100 2.0250 -6.0750 0.5500 0.5500 0.5500
v 6.2100 2.0250 -6.0750 0.5500 0.5500 0.5500
v 6.2100 2.0250 -10.1250 0.5500 0.5500 0.5500
v -6.2100 4.7250 -10.1250 0.7600 0.7600 0.7600
v -6.2100 4.7250 -6.0750 0.7600 0.7600 0.7600
v -6.2100 2.0250 -6.0750 0.7600 0.7600 0.7600
v -6.2100 2.0250 -10.1250 0.7600 0.7600 0.7600
v 6.2100 4.7250 -6.0750 0.7600 0.7600 0.7600
v 6.2100 4.7250 -10.1250 0.7600 0.7600 0.7600
v 6.2100 2.0250 -10.1250 0.7600 0.7600 0.7600
v 6.2100 2.0250 -6.0750 0.7600 0.7600 0.7600
v 6.2100 4.7250 -10.1250 0.6600 0.6600 0.6600
v -6.2100 4.7250 -10.1250 0.6600 0.6600 0.6600
v -6.2100 2.0250 -10.1250 0.6600 0.6600 0.6600
v 6.2100 2.0250 -10.1250 0.6600 0.6600 0.6600
v -6.2100 4.7250 -6.0750 0.8800 0.8800 0.8800
v 6.2100 4.7250 -6.0750 0.8800 0.8800 0.8800
v 6.2100 2.0250 -6.0750 0.8800 0.8800 0.8800
v -6.2100 2.0250 -6.0750 0.8800 0.8800 0.8800
v 6.2100 4.7250 3.3750 1.0000 1.0000 1.0000
v 6.2100 4.7250 7.4250 1.0000 1.0000 1.0000
v -6.2100 4.7250 7.4250 1.0000 1.0000 1.0000
v -6.2100 4.7250 3.3750 1.0000 1.0000 1.0000
v -6.2100 2.0250 3.3750 0.5500 0.5500 0.5500
v -6.2100 2.0250 7.4250 0.5500 0.5500 0.5500
v 6.2100 2.0250 7.4250 0.5500 0.5500 0.5500
v 6.2100 2.0250 3.3750 0.5500 0.5500 0.5500
v -6.2100 4.7250 3.3750 0.7600 0.7600 0.7600
v -6.2100 4.7250 7.4250 0.7600 0.7600 0.7600
v -6.2100 2.0250 7.4250 0.7600 0.7600 0.7600
v -6.2100 2.0250 3.3750 0.7600 0.7600 0.7600
v 6.2100 4.7250 7.4250 0.7600 0.7600 0.7600
v 6.2100 4.7250 3.3750 0.7600 0.7600 0.7600
v 6.2100 2.0250 3.3750 0.7600 0.7600 0.7600
v 6.2100 2.0250 7.4250 0.7600 0.7600 0.7600
v 6.2100 4.7250 3.3750 0.6600 0.6600 0.6600
v -6.2100 4.7250 3.3750 0.6600 0.6600 0.6600
v -6.2100 2.0250 3.3750 0.6600 0.6600 0.6600
v 6.2100 2.0250 3.3750 0.6600 0.6600 0.6600
v -6.2100 4.7250 7.4250 0.8800 0.8800 0.8800
v 6.2100 4.7250 7.4250 0.8800 0.8800 0.8800
v 6.2100 2.0250 7.4250 0.8800 0.8800 0.8800
v -6.2100 2.0250 7.4250 0.8800 0.8800 0.8800
v -7.0200 7.0200 -13.5000 1.0000 1.0000 1.0000
v -7.0200 7.0200 8.1000 1.0000 1.0000 1.0000
v -8.1000 7.0200 8.1000 1.0000 1.0000 1.0000
v -8.1000 7.0200 -13.5000 1.0000 1.0000 1.0000
v -8.1000 6.2100 -13.5000 0.5500 0.5500 0.5500
v -8.1000 6.2100 8.1000 0.5500 0.5500 0.5500
v -7.0200 6.2100 8.1000 0.5500 0.5500 0.5500
v -7.0200 6.2100 -13.5000 0.5500 0.5500 0.5500
v -8.1000 7.0200 -13.5000 0.7600 0.7600 0.7600
v -8.1000 7.0200 8.1000 0.7600 0.7600 0.7600
v -8.1000 6.2100 8.1000 0.7600 0.7600 0.7600
v -8.1000 6.2100 -13.5000 0.7600 0.7600 0.7600
v -7.0200 7.0200 8.1000 0.7600 0.7600 0.7600
v -7.0200 7.0200 -13.5000 0.7600 0.7600 0.7600
v -7.0200 6.2100 -13.5000 0.7600 0.7600 0.7600
v -7.0200 6.2100 8.1000 0.7600 0.7600 0.7600
v -7.0200 7.0200 -13.5000 0.6600 0.6600 0.6600
v -8.1000 7.0200 -13.5000 0.6600 0.6600 0.6600
v -8.1000 6.2100 -13.5000 0.6600 0.6600 0.6600
v -7.0200 6.2100 -13.5000 0.6600 0.6600 0.6600
v -8.1000 7.0200 8.1000 0.8800 0.8800 0.8800
v -7.0200 7.0200 8.1000 0.8800 0.8800 0.8800
v -7.0200 6.2100 8.1000 0.8800 0.8800 0.8800
v -8.1000 6.2100 8.1000 0.8800 0.8800 0.8800
v -5.9400 6.7500 8.1000 1.0000 1.0000 1.0000
v -5.9400 6.7500 13.5000 1.0000 1.0000 1.0000
v -9.1800 6.7500 13.5000 1.0000 1.0000 1.0000
v -9.1800 6.7500 8.1000 1.0000 1.0000 1.0000
v -9.1800 5.9400 8.1000 0.5500 0.5500 0.5500
v -9.1800 5.9400 13.5000 0.5500 0.5500 0.5500
v -5.9400 5.9400 13.5000 0.5500 0.5500 0.5500
v -5.9400 5.9400 8.1000 0.5500 0.5500 0.5500
v -9.1800 6.7500 8.1000 0.7600 0.7600 0.7600
v -9.1800 6.7500 13.5000 0.7600 0.7600 0.7600
v -9.1800 5.9400 13.5000 0.7600 0.7600 0.7600
v -9.1800 5.9400 8.1000 0.7600 0.7600 0.7600
v -5.9400 6.7500 13.5000 0.7600 0.7600 0.7600
v -5.9400 6.7500 8.1000 0.7600 0.7600 0.7600
v -5.9400 5.9400 8.1000 0.7600 0.7600 0.7600
v -5.9400 5.9400 13.5000 0.7600 0.7600 0.7600
v -5.9400 6.7500 8.1000 0.6600 0.6600 0.6600
v -9.1800 6.7500 8.1000 0.6600 0.6600 0.6600
v -9.1800 5.9400 8.1000 0.6600 0.6600 0.6600
v -5.9400 5.9400 8.1000 0.6600 0.6600 0.6600
v -9.1800 6.7500 13.5000 0.8800 0.8800 0.8800
v -5.9400 6.7500 13.5000 0.8800 0.8800 0.8800
v -5.9400 5.9400 13.5000 0.8800 0.8800 0.8800
v -9.1800 5.9400 13.5000 0.8800 0.8800 0.8800
v 8.1000 7.0200 -13.5000 1.0000 1.0000 1.0000
v 8.1000 7.0200 8.1000 1.0000 1.0000 1.0000
v 7.0200 7.0200 8.1000 1.0000 1.0000 1.0000
v 7.0200 7.0200 -13.5000 1.0000 1.0000 1.0000
v 7.0200 6.2100 -13.5000 0.5500 0.5500 0.5500
v 7.0200 6.2100 8.1000 0.5500 0.5500 0.5500
v 8.1000 6.2100 8.1000 0.5500 0.5500 0.5500
v 8.1000 6.2100 -13.5000 0.5500 0.5500 0.5500
v 7.0200 7.0200 -13.5000 0.7600 0.7600 0.7600
v 7.0200 7.0200 8.1000 0.7600 0.7600 0.7600
v 7.0200 6.2100 8.1000 0.7600 0.7600 0.7600
v 7.0200 6.2100 -13.5000 0.7600 0.7600 0.7600
v 8.1000 7.0200 8.1000 0.7600 0.7600 0.7600
v 8.1000 7.0200 -13.5000 0.7600 0.7600 0.7600
v 8.1000 6.2100 -13.5000 0.7600 0.7600 0.7600
v 8.1000 6.2100 8.1000 0.7600 0.7600 0.7600
v 8.1000 7.0200 -13.5000 0.6600 0.6600 0.6600
v 7.0200 7.0200 -13.5000 0.6600 0.6600 0.6600
v 7.0200 6.2100 -13.5000 0.6600 0.6600 0.6600
v 8.1000 6.2100 -13.5000 0.6600 0.6600 0.6600
v 7.0200 7.0200 8.1000 0.8800 0.8800 0.8800
v 8.1000 7.0200 8.1000 0.8800 0.8800 0.8800
v 8.1000 6.2100 8.1000 0.8800 0.8800 0.8800
v 7.0200 6.2100 8.1000 0.8800 0.8800 0.8800
v 9.1800 6.7500 8.1000 1.0000 1.0000 1.0000
v 9.1800 6.7500 13.5000 1.0000 1.0000 1.0000
v 5.9400 6.7500 13.5000 1.0000 1.0000 1.0000
v 5.9400 6.7500 8.1000 1.0000 1.0000 1.0000
v 5.9400 5.9400 8.1000 0.5500 0.5500 0.5500
v 5.9400 5.9400 13.5000 0.5500 0.5500 0.5500
v 9.1800 5.9400 13.5000 0.5500 0.5500 0.5500
v 9.1800 5.9400 8.1000 0.5500 0.5500 0.5500
v 5.9400 6.7500 8.1000 0.7600 0.7600 0.7600
v 5.9400 6.7500 13.5000 0.7600 0.7600 0.7600
v 5.9400 5.9400 13.5000 0.7600 0.7600 0.7600
v 5.9400 5.9400 8.1000 0.7600 0.7600 0.7600
v 9.1800 6.7500 13.5000 0.7600 0.7600 0.7600
v 9.1800 6.7500 8.1000 0.7600 0.7600 0.7600
v 9.1800 5.9400 8.1000 0.7600 0.7600 0.7600
v 9.1800 5.9400 13.5000 0.7600 0.7600 0.7600
v 9.1800 6.7500 8.1000 0.6600 0.6600 0.6600
v 5.9400 6.7500 8.1000 0.6600 0.6600 0.6600
v 5.9400 5.9400 8.1000 0.6600 0.6600 0.6600
v 9.1800 5.9400 8.1000 0.6600 0.6600 0.6600
v 5.9400 6.7500 13.5000 0.8800 0.8800 0.8800
v 9.1800 6.7500 13.5000 0.8800 0.8800 0.8800
v 9.1800 5.9400 13.5000 0.8800 0.8800 0.8800
v 5.9400 5.9400 13.5000 0.8800 0.8800 0.8800
vt -0.46875 1.09375
vt -0.40179 1.10982
vt -0.33482 1.12589
vt -0.26786 1.14196
vt -0.20089 1.15000
vt -0.13393 1.15000
vt -0.06696 1.15000
vt 0.00000 1.15000
vt 0.06696 1.15000
vt 0.13393 1.14892
vt 0.20089 1.14218
vt 0.26786 1.12857
vt 0.33482 1.10612
vt 0.40179 1.06943
vt 0.46875 1.00000
vt 0.46875 1.00000
vt 0.40179 0.93057
vt 0.33482 0.89388
vt 0.26786 0.87143
vt 0.20089 0.85782
vt 0.13393 0.85108
vt 0.06696 0.85000
vt 0.00000 0.85000
vt -0.06696 0.85000
vt -0.13393 0.85000
vt -0.20089 0.85000
vt -0.26786 0.85804
vt -0.33482 0.87411
vt -0.40179 0.89018
vt -0.46875 0.90625
vt -0.46875 1.00000
vt -0.40179 1.00000
vt -0.40179 0.30769
vt -0.46875 0.30769
vt -0.46875 0.30769
vt -0.40179 0.30769
vt -0.40179 0.00000
vt -0.46875 0.00000
vt -0.40179 1.00000
vt -0.33482 1.00000
vt -0.33482 0.30769
vt -0.40179 0.30769
vt -0.40179 0.30769
vt -0.33482 0.30769
vt -0.33482 0.00000
vt -0.40179 0.00000
vt -0.33482 1.00000
vt -0.26786 1.00000
vt -0.26786 0.30769
vt -0.33482 0.30769
vt -0.33482 0.30769
vt -0.26786 0.30769
vt -0.26786 0.00000
vt -0.33482 0.00000
vt -0.26786 1.00000
vt -0.20089 1.00000
vt -0.20089 0.30769
vt -0.26786 0.30769
vt -0.26786 0.30769
vt -0.20089 0.30769
vt -0.20089 0.00000
vt -0.26786 0.00000
vt -0.20089 1.00000
vt -0.13393 1.00000
vt -0.13393 0.30769
vt -0.20089 0.30769
vt -0.20089 0.30769
vt -0.13393 0.30769
vt -0.13393 0.00000
vt -0.20089 0.00000
vt -0.13393 1.00000
vt -0.06696 1.00000
vt -0.06696 0.30769
vt -0.13393 0.30769
vt -0.13393 0.30769
vt -0.06696 0.30769
vt -0.06696 0.00000
vt -0.13393 0.00000
vt -0.06696 1.00000
vt 0.00000 1.00000
vt 0.00000 0.30769
vt -0.06696 0.30769
vt -0.06696 0.30769
vt 0.00000 0.30769
vt 0.00000 0.00000
vt -0.06696 0.00000
vt 0.00000 1.00000
vt 0.06696 1.00000
vt 0.06696 0.30769
vt 0.00000 0.30769
vt 0.00000 0.30769
vt 0.06696 0.30769
vt 0.06696 0.00000
vt 0.00000 0.00000
vt 0.06696 1.00000
vt 0.13393 1.00000
vt 0.13393 0.30769
vt 0.06696 0.30769
vt 0.06696 0.30769
vt 0.13393 0.30769
vt 0.13393 0.00000
vt 0.06696 0.00000
vt 0.13393 1.00000
vt 0.20089 1.00000
vt 0.20089 0.30769
vt 0.13393 0.30769
vt 0.13393 0.30769
vt 0.20089 0.30769
vt 0.20089 0.00000
vt 0.13393 0.00000
vt 0.20089 1.00000
vt 0.26786 1.00000
vt 0.26786 0.30769
vt 0.20089 0.30769
vt 0.20089 0.30769
vt 0.26786 0.30769
vt 0.26786 0.00000
vt 0.20089 0.00000
vt 0.26786 1.00000
vt 0.33482 1.00000
vt 0.33482 0.30769
vt 0.26786 0.30769
vt 0.26786 0.30769
vt 0.33482 0.30769
vt 0.33482 0.00000
vt 0.26786 0.00000
vt 0.33482 1.00000
vt 0.40179 1.00000
vt 0.40179 0.30769
vt 0.33482 0.30769
vt 0.33482 0.30769
vt 0.40179 0.30769
vt 0.40179 0.00000
vt 0.33482 0.00000
vt 0.40179 1.00000
vt 0.46875 1.00000
vt 0.46875 0.30769
vt 0.40179 0.30769
vt 0.40179 0.30769
vt 0.46875 0.30769
vt 0.46875 0.00000
vt 0.40179 0.00000
vt 0.40179 1.00000
vt 0.46875 1.00000
vt 0.46875 0.30769
vt 0.40179 0.30769
vt 0.40179 0.30769
vt 0.46875 0.30769
vt 0.46875 0.00000
vt 0.40179 0.00000
vt 0.33482 1.00000
vt 0.40179 1.00000
vt 0.40179 0.30769
vt 0.33482 0.30769
vt 0.33482 0.30769
vt 0.40179 0.30769
vt 0.40179 0.00000
vt 0.33482 0.00000
vt 0.26786 1.00000
vt 0.33482 1.00000
vt 0.33482 0.30769
vt 0.26786 0.30769
vt 0.26786 0.30769
vt 0.33482 0.30769
vt 0.33482 0.00000
vt 0.26786 0.00000
vt 0.20089 1.00000
vt 0.26786 1.00000
vt 0.26786 0.30769
vt 0.20089 0.30769
vt 0.20089 0.30769
vt 0.26786 0.30769
vt 0.26786 0.00000
vt 0.20089 0.00000
vt 0.13393 1.00000
vt 0.20089 1.00000
vt 0.20089 0.30769
vt 0.13393 0.30769
vt 0.13393 0.30769
vt 0.20089 0.30769
vt 0.20089 0.00000
vt 0.13393 0.00000
vt 0.06696 1.00000
vt 0.13393 1.00000
vt 0.13393 0.30769
vt 0.06696 0.30769
vt 0.06696 0.30769
vt 0.13393 0.30769
vt 0.13393 0.00000
vt 0.06696 0.00000
vt -0.00000 1.00000
vt 0.06696 1.00000
vt 0.06696 0.30769
vt -0.00000 0.30769
vt -0.00000 0.30769
vt 0.06696 0.30769
vt 0.06696 0.00000
vt -0.00000 0.00000
vt -0.06696 1.00000
vt -0.00000 1.00000
vt -0.00000 0.30769
vt -0.06696 0.30769
vt -0.06696 0.30769
vt -0.00000 0.30769
vt -0.00000 0.00000
vt -0.06696 0.00000
vt -0.13393 1.00000
vt -0.06696 1.00000
vt -0.06696 0.30769
vt -0.13393 0.30769
vt -0.13393 0.30769
vt -0.06696 0.30769
vt -0.06696 0.00000
vt -0.13393 0.00000
vt -0.20089 1.00000
vt -0.13393 1.00000
vt -0.13393 0.30769
vt -0.20089 0.30769
vt -0.20089 0.30769
vt -0.13393 0.30769
vt -0.13393 0.00000
vt -0.20089 0.00000
vt -0.26786 1.00000
vt -0.20089 1.00000
vt -0.20089 0.30769
vt -0.26786 0.30769
vt -0.26786 0.30769
vt -0.20089 0.30769
vt -0.20089 0.00000
vt -0.26786 0.00000
vt -0.33482 1.00000
vt -0.26786 1.00000
vt -0.26786 0.30769
vt -0.33482 0.30769
vt -0.33482 0.30769
vt -0.26786 0.30769
vt -0.26786 0.00000
vt -0.33482 0.00000
vt -0.40179 1.00000
vt -0.33482 1.00000
vt -0.33482 0.30769
vt -0.40179 0.30769
vt -0.40179 0.30769
vt -0.33482 0.30769
vt -0.33482 0.00000
vt -0.40179 0.00000
vt -0.46875 1.00000
vt -0.40179 1.00000
vt -0.40179 0.30769
vt -0.46875 0.30769
vt -0.46875 0.30769
vt -0.40179 0.30769
vt -0.40179 0.00000
vt -0.46875 0.00000
vt -0.13125 1.00000
vt 0.13125 1.00000
vt 0.12600 0.30769
vt -0.12600 0.30769
vt -0.12600 0.30769
vt 0.12600 0.30769
vt 0.07219 0.00000
vt -0.07219 0.00000
vt -0.40179 1.00000
vt -0.46875 1.00000
vt -0.46875 0.81250
vt -0.40179 0.81250
vt -0.46875 1.00000
vt -0.40179 1.00000
vt -0.40179 0.95000
vt -0.46875 0.95000
vt -0.33482 1.00000
vt -0.40179 1.00000
vt -0.40179 0.81250
vt -0.33482 0.81250
vt -0.40179 1.00000
vt -0.33482 1.00000
vt -0.33482 0.95000
vt -0.40179 0.95000
vt -0.26786 1.00000
vt -0.33482 1.00000
vt -0.33482 0.81250
vt -0.26786 0.81250
vt -0.33482 1.00000
vt -0.26786 1.00000
vt -0.26786 0.95000
vt -0.33482 0.95000
vt -0.20089 1.00000
vt -0.26786 1.00000
vt -0.26786 0.81250
vt -0.20089 0.81250
vt -0.26786 1.00000
vt -0.20089 1.00000
vt -0.20089 0.95000
vt -0.26786 0.95000
vt -0.13393 1.00000
vt -0.20089 1.00000
vt -0.20089 0.81250
vt -0.13393 0.81250
vt -0.20089 1.00000
vt -0.13393 1.00000
vt -0.13393 0.95000
vt -0.20089 0.95000
vt -0.06696 1.00000
vt -0.13393 1.00000
vt -0.13393 0.81250
vt -0.06696 0.81250
vt -0.13393 1.00000
vt -0.06696 1.00000
vt -0.06696 0.95000
vt -0.13393 0.95000
vt 0.00000 1.00000
vt -0.06696 1.00000
vt -0.06696 0.81250
vt 0.00000 0.81250
vt -0.06696 1.00000
vt 0.00000 1.00000
vt 0.00000 0.95000
vt -0.06696 0.95000
vt 0.06696 1.00000
vt 0.00000 1.00000
vt 0.00000 0.81250
vt 0.06696 0.81250
vt 0.00000 1.00000
vt 0.06696 1.00000
vt 0.06696 0.95000
vt 0.00000 0.95000
vt 0.13393 1.00000
vt 0.06696 1.00000
vt 0.06696 0.81250
vt 0.13393 0.81250
vt 0.06696 1.00000
vt 0.13393 1.00000
vt 0.13393 0.95000
vt 0.06696 0.95000
vt 0.20089 1.00000
vt 0.13393 1.00000
vt 0.13393 0.81250
vt 0.20089 0.81250
vt 0.13393 1.00000
vt 0.20089 1.00000
vt 0.20089 0.95000
vt 0.13393 0.95000
vt 0.26786 1.00000
vt 0.20089 1.00000
vt 0.20089 0.81250
vt 0.26786 0.81250
vt 0.20089 1.00000
vt 0.26786 1.00000
vt 0.26786 0.95000
vt 0.20089 0.95000
vt 0.33482 1.00000
vt 0.26786 1.00000
vt 0.26786 0.81250
vt 0.33482 0.81250
vt 0.26786 1.00000
vt 0.33482 1.00000
vt 0.33482 0.95000
vt 0.26786 0.95000
vt 0.40179 1.00000
vt 0.33482 1.00000
vt 0.33482 0.81250
vt 0.40179 0.81250
vt 0.33482 1.00000
vt 0.40179 1.00000
vt 0.40179 0.95000
vt 0.33482 0.95000
vt 0.46875 1.00000
vt 0.40179 1.00000
vt 0.40179 0.81250
vt 0.46875 0.81250
vt 0.40179 1.00000
vt 0.46875 1.00000
vt 0.46875 0.95000
vt 0.40179 0.95000
vt -0.46875 1.00000
vt -0.40179 1.00000
vt -0.40179 0.81250
vt -0.46875 0.81250
vt -0.46875 1.00000
vt -0.40179 1.00000
vt -0.40179 0.95000
vt -0.46875 0.95000
vt -0.40179 1.00000
vt -0.33482 1.00000
vt -0.33482 0.81250
vt -0.40179 0.81250
vt -0.40179 1.00000
vt -0.33482 1.00000
vt -0.33482 0.95000
vt -0.40179 0.95000
vt -0.33482 1.00000
vt -0.26786 1.00000
vt -0.26786 0.81250
vt -0.33482 0.81250
vt -0.33482 1.00000
vt -0.26786 1.00000
vt -0.26786 0.95000
vt -0.33482 0.95000
vt -0.26786 1.00000
vt -0.20089 1.00000
vt -0.20089 0.81250
vt -0.26786 0.81250
vt -0.26786 1.00000
vt -0.20089 1.00000
vt -0.20089 0.95000
vt -0.26786 0.95000
vt -0.20089 1.00000
vt -0.13393 1.00000
vt -0.13393 0.81250
vt -0.20089 0.81250
vt -0.20089 1.00000
vt -0.13393 1.00000
vt -0.13393 0.95000
vt -0.20089 0.95000
vt -0.13393 1.00000
vt -0.06696 1.00000
vt -0.06696 0.81250
vt -0.13393 0.81250
vt -0.13393 1.00000
vt -0.06696 1.00000
vt -0.06696 0.95000
vt -0.13393 0.95000
vt -0.06696 1.00000
vt 0.00000 1.00000
vt 0.00000 0.81250
vt -0.06696 0.81250
vt -0.06696 1.00000
vt 0.00000 1.00000
vt 0.00000 0.95000
vt -0.06696 0.95000
vt 0.00000 1.00000
vt 0.06696 1.00000
vt 0.06696 0.81250
vt 0.00000 0.81250
vt 0.00000 1.00000
vt 0.06696 1.00000
vt 0.06696 0.95000
vt 0.00000 0.95000
vt 0.06696 1.00000
vt 0.13393 1.00000
vt 0.13393 0.81250
vt 0.06696 0.81250
vt 0.06696 1.00000
vt 0.13393 1.00000
vt 0.13393 0.95000
vt 0.06696 0.95000
vt 0.13393 1.00000
vt 0.20089 1.00000
vt 0.20089 0.81250
vt 0.13393 0.81250
vt 0.13393 1.00000
vt 0.20089 1.00000
vt 0.20089 0.95000
vt 0.13393 0.95000
vt 0.20089 1.00000
vt 0.26786 1.00000
vt 0.26786 0.81250
vt 0.20089 0.81250
vt 0.20089 1.00000
vt 0.26786 1.00000
vt 0.26786 0.95000
vt 0.20089 0.95000
vt 0.26786 1.00000
vt 0.33482 1.00000
vt 0.33482 0.81250
vt 0.26786 0.81250
vt 0.26786 1.00000
vt 0.33482 1.00000
vt 0.33482 0.95000
vt 0.26786 0.95000
vt 0.33482 1.00000
vt 0.40179 1.00000
vt 0.40179 0.81250
vt 0.33482 0.81250
vt 0.33482 1.00000
vt 0.40179 1.00000
vt 0.40179 0.95000
vt 0.33482 0.95000
vt 0.40179 1.00000
vt 0.46875 1.00000
vt 0.46875 0.81250
vt 0.40179 0.81250
vt 0.40179 1.00000
vt 0.46875 1.00000
vt 0.46875 0.95000
vt 0.40179 0.95000
vt -0.46875 0.71250
vt -0.28125 0.71250
vt -0.28125 1.28750
vt -0.46875 1.28750
vt -0.46875 0.71250
vt -0.28125 0.71250
vt -0.28125 1.28750
vt -0.46875 1.28750
vt -0.46875 1.00000
vt -0.28125 1.00000
vt -0.28125 0.87500
vt -0.46875 0.87500
vt 0.28125 1.00000
vt 0.46875 1.00000
vt 0.46875 0.87500
vt 0.28125 0.87500
vt -0.28750 1.00000
vt 0.28750 1.00000
vt 0.28750 0.87500
vt -0.28750 0.87500
vt -0.28750 1.00000
vt 0.28750 1.00000
vt 0.28750 0.87500
vt -0.28750 0.87500
vt 0.15625 0.71250
vt 0.34375 0.71250
vt 0.34375 1.28750
vt 0.15625 1.28750
vt 0.15625 0.71250
vt 0.34375 0.71250
vt 0.34375 1.28750
vt 0.15625 1.28750
vt 0.15625 1.00000
vt 0.34375 1.00000
vt 0.34375 0.87500
vt 0.15625 0.87500
vt -0.34375 1.00000
vt -0.15625 1.00000
vt -0.15625 0.87500
vt -0.34375 0.87500
vt -0.28750 1.00000
vt 0.28750 1.00000
vt 0.28750 0.87500
vt -0.28750 0.87500
vt -0.28750 1.00000
vt 0.28750 1.00000
vt 0.28750 0.87500
vt -0.28750 0.87500
vt -0.62500 1.32500
vt 0.37500 1.32500
vt 0.37500 1.37500
vt -0.62500 1.37500
vt -0.62500 0.62500
vt 0.37500 0.62500
vt 0.37500 0.67500
vt -0.62500 0.67500
vt -0.62500 1.00000
vt 0.37500 1.00000
vt 0.37500 0.96250
vt -0.62500 0.96250
vt -0.37500 1.00000
vt 0.62500 1.00000
vt 0.62500 0.96250
vt -0.37500 0.96250
vt 0.32500 1.00000
vt 0.37500 1.00000
vt 0.37500 0.96250
vt 0.32500 0.96250
vt -0.37500 1.00000
vt -0.32500 1.00000
vt -0.32500 0.96250
vt -0.37500 0.96250
vt 0.37500 1.27500
vt 0.62500 1.27500
vt 0.62500 1.42500
vt 0.37500 1.42500
vt 0.37500 0.57500
vt 0.62500 0.57500
vt 0.62500 0.72500
vt 0.37500 0.72500
vt 0.37500 1.00000
vt 0.62500 1.00000
vt 0.62500 0.96250
vt 0.37500 0.96250
vt -0.62500 1.00000
vt -0.37500 1.00000
vt -0.37500 0.96250
vt -0.62500 0.96250
vt 0.27500 1.00000
vt 0.42500 1.00000
vt 0.42500 0.96250
vt 0.27500 0.96250
vt -0.42500 1.00000
vt -0.27500 1.00000
vt -0.27500 0.96250
vt -0.42500 0.96250
vt -0.62500 0.62500
vt 0.37500 0.62500
vt 0.37500 0.67500
vt -0.62500 0.67500
vt -0.62500 1.32500
vt 0.37500 1.32500
vt 0.37500 1.37500
vt -0.62500 1.37500
vt -0.62500 1.00000
vt 0.37500 1.00000
vt 0.37500 0.96250
vt -0.62500 0.96250
vt -0.37500 1.00000
vt 0.62500 1.00000
vt 0.62500 0.96250
vt -0.37500 0.96250
vt -0.37500 1.00000
vt -0.32500 1.00000
vt -0.32500 0.96250
vt -0.37500 0.96250
vt 0.32500 1.00000
vt 0.37500 1.00000
vt 0.37500 0.96250
vt 0.32500 0.96250
vt 0.37500 0.57500
vt 0.62500 0.57500
vt 0.62500 0.72500
vt 0.37500 0.72500
vt 0.37500 1.27500
vt 0.62500 1.27500
vt 0.62500 1.42500
vt 0.37500 1.42500
vt 0.37500 1.00000
vt 0.62500 1.00000
vt 0.62500 0.96250
vt 0.37500 0.96250
vt -0.62500 1.00000
vt -0.37500 1.00000
vt -0.37500 0.96250
vt -0.62500 0.96250
vt -0.42500 1.00000
vt -0.27500 1.00000
vt -0.27500 0.96250
vt -0.42500 0.96250
vt 0.27500 1.00000
vt 0.42500 1.00000
vt 0.42500 0.96250
vt 0.27500 0.96250
usemtl floor
f 1/1 2/2 3/3
f 1/1 3/3 4/4
f 1/1 4/4 5/5
f 1/1 5/5 6/6
f 1/1 6/6 7/7
f 1/1 7/7 8/8
f 1/1 8/8 9/9
f 1/1 9/9 10/10
f 1/1 10/10 11/11
f 1/1 11/11 12/12
f 1/1 12/12 13/13
f 1/1 13/13 14/14
f 1/1 14/14 15/15
f 1/1 15/15 16/16
f 1/1 16/16 17/17
f 1/1 17/17 18/18
f 1/1 18/18 19/19
f 1/1 19/19 20/20
f 1/1 20/20 21/21
f 1/1 21/21 22/22
f 1/1 22/22 23/23
f 1/1 23/23 24/24
f 1/1 24/24 25/25
f 1/1 25/25 26/26
f 1/1 26/26 27/27
f 1/1 27/27 28/28
f 1/1 28/28 29/29
f 1/1 29/29 30/30
usemtl hull
f 31/31 32/32 33/33
f 31/31 33/33 34/34
f 35/35 36/36 37/37
f 35/35 37/37 38/38
f 39/39 40/40 41/41
f 39/39 41/41 42/42
f 43/43 44/44 45/45
f 43/43 45/45 46/46
f 47/47 48/48 49/49
f 47/47 49/49 50/50
f 51/51 52/52 53/53
f 51/51 53/53 54/54
f 55/55 56/56 57/57
f 55/55 57/57 58/58
f 59/59 60/60 61/61
f 59/59 61/61 62/62
f 63/63 64/64 65/65
f 63/63 65/65 66/66
f 67/67 68/68 69/69
f 67/67 69/69 70/70
f 71/71 72/72 73/73
f 71/71 73/73 74/74
f 75/75 76/76 77/77
f 75/75 77/77 78/78
f 79/79 80/80 81/81
f 79/79 81/81 82/82
f 83/83 84/84 85/85
f 83/83 85/85 86/86
f 87/87 88/88 89/89
f 87/87 89/89 90/90
f 91/91 92/92 93/93
f 91/91 93/93 94/94
f 95/95 96/96 97/97
f 95/95 97/97 98/98
f 99/99 100/100 101/101
f 99/99 101/101 102/102
f 103/103 104/104 105/105
f 103/103 105/105 106/106
f 107/107 108/108 109/109
f 107/107 109/109 110/110
f 111/111 112/112 113/113
f 111/111 113/113 114/114
f 115/115 116/116 117/117
f 115/115 117/117 118/118
f 119/119 120/120 121/121
f 119/119 121/121 122/122
f 123/123 124/124 125/125
f 123/123 125/125 126/126
f 127/127 128/128 129/129
f 127/127 129/129 130/130
f 131/131 132/132 133/133
f 131/131 133/133 134/134
f 135/135 136/136 137/137
f 135/135 137/137 138/138
f 139/139 140/140 141/141
f 139/139 141/141 142/142
f 143/143 144/144 145/145
f 143/143 145/145 146/146
f 147/147 148/148 149/149
f 147/147 149/149 150/150
f 151/151 152/152 153/153
f 151/151 153/153 154/154
f 155/155 156/156 157/157
f 155/155 157/157 158/158
f 159/159 160/160 161/161
f 159/159 161/161 162/162
f 163/163 164/164 165/165
f 163/163 165/165 166/166
f 167/167 168/168 169/169
f 167/167 169/169 170/170
f 171/171 172/172 173/173
f 171/171 173/173 174/174
f 175/175 176/176 177/177
f 175/175 177/177 178/178
f 179/179 180/180 181/181
f 179/179 181/181 182/182
f 183/183 184/184 185/185
f 183/183 185/185 186/186
f 187/187 188/188 189/189
f 187/187 189/189 190/190
f 191/191 192/192 193/193
f 191/191 193/193 194/194
f 195/195 196/196 197/197
f 195/195 197/197 198/198
f 199/199 200/200 201/201
f 199/199 201/201 202/202
f 203/203 204/204 205/205
f 203/203 205/205 206/206
f 207/207 208/208 209/209
f 207/207 209/209 210/210
f 211/211 212/212 213/213
f 211/211 213/213 214/214
f 215/215 216/216 217/217
f 215/215 217/217 218/218
f 219/219 220/220 221/221
f 219/219 221/221 222/222
f 223/223 224/224 225/225
f 223/223 225/225 226/226
f 227/227 228/228 229/229
f 227/227 229/229 230/230
f 231/231 232/232 233/233
f 231/231 233/233 234/234
f 235/235 236/236 237/237
f 235/235 237/237 238/238
f 239/239 240/240 241/241
f 239/239 241/241 242/242
f 243/243 244/244 245/245
f 243/243 245/245 246/246
f 247/247 248/248 249/249
f 247/247 249/249 250/250
f 251/251 252/252 253/253
f 251/251 253/253 254/254
f 255/255 256/256 257/257
f 255/255 257/257 258/258
f 259/259 260/260 261/261
f 259/259 261/261 262/262
usemtl inner
f 263/263 264/264 265/265
f 263/263 265/265 266/266
f 267/267 268/268 269/269
f 267/267 269/269 270/270
f 271/271 272/272 273/273
f 271/271 273/273 274/274
f 275/275 276/276 277/277
f 275/275 277/277 278/278
f 279/279 280/280 281/281
f 279/279 281/281 282/282
f 283/283 284/284 285/285
f 283/283 285/285 286/286
f 287/287 288/288 289/289
f 287/287 289/289 290/290
f 291/291 292/292 293/293
f 291/291 293/293 294/294
f 295/295 296/296 297/297
f 295/295 297/297 298/298
f 299/299 300/300 301/301
f 299/299 301/301 302/302
f 303/303 304/304 305/305
f 303/303 305/305 306/306
f 307/307 308/308 309/309
f 307/307 309/309 310/310
f 311/311 312/312 313/313
f 311/311 313/313 314/314
f 315/315 316/316 317/317
f 315/315 317/317 318/318
f 319/319 320/320 321/321
f 319/319 321/321 322/322
f 323/323 324/324 325/325
f 323/323 325/325 326/326
f 327/327 328/328 329/329
f 327/327 329/329 330/330
f 331/331 332/332 333/333
f 331/331 333/333 334/334
f 335/335 336/336 337/337
f 335/335 337/337 338/338
f 339/339 340/340 341/341
f 339/339 341/341 342/342
f 343/343 344/344 345/345
f 343/343 345/345 346/346
f 347/347 348/348 349/349
f 347/347 349/349 350/350
f 351/351 352/352 353/353
f 351/351 353/353 354/354
f 355/355 356/356 357/357
f 355/355 357/357 358/358
f 359/359 360/360 361/361
f 359/359 361/361 362/362
f 363/363 364/364 365/365
f 363/363 365/365 366/366
f 367/367 368/368 369/369
f 367/367 369/369 370/370
f 371/371 372/372 373/373
f 371/371 373/373 374/374
f 375/375 376/376 377/377
f 375/375 377/377 378/378
f 379/379 380/380 381/381
f 379/379 381/381 382/382
f 383/383 384/384 385/385
f 383/383 385/385 386/386
f 387/387 388/388 389/389
f 387/387 389/389 390/390
f 391/391 392/392 393/393
f 391/391 393/393 394/394
f 395/395 396/396 397/397
f 395/395 397/397 398/398
f 399/399 400/400 401/401
f 399/399 401/401 402/402
f 403/403 404/404 405/405
f 403/403 405/405 406/406
f 407/407 408/408 409/409
f 407/407 409/409 410/410
f 411/411 412/412 413/413
f 411/411 413/413 414/414
f 415/415 416/416 417/417
f 415/415 417/417 418/418
f 419/419 420/420 421/421
f 419/419 421/421 422/422
f 423/423 424/424 425/425
f 423/423 425/425 426/426
f 427/427 428/428 429/429
f 427/427 429/429 430/430
f 431/431 432/432 433/433
f 431/431 433/433 434/434
f 435/435 436/436 437/437
f 435/435 437/437 438/438
f 439/439 440/440 441/441
f 439/439 441/441 442/442
f 443/443 444/444 445/445
f 443/443 445/445 446/446
f 447/447 448/448 449/449
f 447/447 449/449 450/450
f 451/451 452/452 453/453
f 451/451 453/453 454/454
f 455/455 456/456 457/457
f 455/455 457/457 458/458
f 459/459 460/460 461/461
f 459/459 461/461 462/462
f 463/463 464/464 465/465
f 463/463 465/465 466/466
f 467/467 468/468 469/469
f 467/467 469/469 470/470
f 471/471 472/472 473/473
f 471/471 473/473 474/474
f 475/475 476/476 477/477
f 475/475 477/477 478/478
f 479/479 480/480 481/481
f 479/479 481/481 482/482
f 483/483 484/484 485/485
f 483/483 485/485 486/486
f 487/487 488/488 489/489
f 487/487 489/489 490/490
f 491/491 492/492 493/493
f 491/491 493/493 494/494
f 495/495 496/496 497/497
f 495/495 497/497 498/498
f 499/499 500/500 501/501
f 499/499 501/501 502/502
f 503/503 504/504 505/505
f 503/503 505/505 506/506
f 507/507 508/508 509/509
f 507/507 509/509 510/510
f 511/511 512/512 513/513
f 511/511 513/513 514/514
f 515/515 516/516 517/517
f 515/515 517/517 518/518
f 519/519 520/520 521/521
f 519/519 521/521 522/522
f 523/523 524/524 525/525
f 523/523 525/525 526/526
f 527/527 528/528 529/529
f 527/527 529/529 530/530
f 531/531 532/532 533/533
f 531/531 533/533 534/534
usemtl oar
f 535/535 536/536 537/537
f 535/535 537/537 538/538
f 539/539 540/540 541/541
f 539/539 541/541 542/542
f 543/543 544/544 545/545
f 543/543 545/545 546/546
f 547/547 548/548 549/549
f 547/547 549/549 550/550
f 551/551 552/552 553/553
f 551/551 553/553 554/554
f 555/555 556/556 557/557
f 555/555 557/557 558/558
f 559/559 560/560 561/561
f 559/559 561/561 562/562
f 563/563 564/564 565/565
f 563/563 565/565 566/566
f 567/567 568/568 569/569
f 567/567 569/569 570/570
f 571/571 572/572 573/573
f 571/571 573/573 574/574
f 575/575 576/576 577/577
f 575/575 577/577 578/578
f 579/579 580/580 581/581
f 579/579 581/581 582/582
f 583/583 584/584 585/585
f 583/583 585/585 586/586
f 587/587 588/588 589/589
f 587/587 589/589 590/590
f 591/591 592/592 593/593
f 591/591 593/593 594/594
f 595/595 596/596 597/597
f 595/595 597/597 598/598
f 599/599 600/600 601/601
f 599/599 601/601 602/602
f 603/603 604/604 605/605
f 603/603 605/605 606/606
f 607/607 608/608 609/609
f 607/607 609/609 610/610
f 611/611 612/612 613/613
f 611/611 613/613 614/614
f 615/615 616/616 617/617
f 615/615 617/617 618/618
f 619/619 620/620 621/621
f 619/619 621/621 622/622
f 623/623 624/624 625/625
f 623/623 625/625 626/626
f 627/627 628/628 629/629
f 627/627 629/629 630/630
