# Découpé dans Humilau City par tools/maps/build_expedition_kits.py
mtllib lagoon_palm.mtl
usemtl ki04ax
v 0.0000 1.0000 5.8438 1.0000 1.0000 1.0000
vt 0.00000 0.00000
v 0.0000 1.0000 -5.8438 1.0000 1.0000 1.0000
vt 1.00000 0.00000
v 0.0000 39.6094 -5.8438 1.0000 1.0000 1.0000
vt 1.00000 0.99121
f 1/1 2/2 3/3
v 0.0000 1.0000 5.8438 1.0000 1.0000 1.0000
vt 0.00000 0.00000
v 0.0000 39.6094 -5.8438 1.0000 1.0000 1.0000
vt 1.00000 0.99121
v 0.0000 39.6094 5.8438 1.0000 1.0000 1.0000
vt 0.00000 0.99121
f 4/4 5/5 6/6
v -5.8438 1.0000 0.0000 1.0000 1.0000 1.0000
vt 0.00000 0.00000
v 5.8438 1.0000 0.0000 1.0000 1.0000 1.0000
vt 1.00000 0.00000
v 5.8438 39.6094 0.0000 1.0000 1.0000 1.0000
vt 1.00000 0.99121
f 7/7 8/8 9/9
v -5.8438 1.0000 0.0000 1.0000 1.0000 1.0000
vt 0.00000 0.00000
v 5.8438 39.6094 0.0000 1.0000 1.0000 1.0000
vt 1.00000 0.99121
v -5.8438 39.6094 0.0000 1.0000 1.0000 1.0000
vt 0.00000 0.99121
f 10/10 11/11 12/12
usemtl ki04bx
v 0.0000 30.1719 16.5156 1.0000 1.0000 1.0000
vt 1.00195 -0.00195
v 15.5156 31.6406 1.0781 1.0000 1.0000 1.0000
vt 1.00195 1.00195
v 0.0000 38.5469 1.8750 1.0000 1.0000 1.0000
vt 0.50000 0.50000
f 13/13 14/14 15/15
v 15.5156 31.6406 1.0781 1.0000 1.0000 1.0000
vt 1.00195 1.00195
v 0.0000 33.0469 -14.3750 1.0000 1.0000 1.0000
vt -0.00195 1.00195
v 0.0000 38.5469 1.8750 1.0000 1.0000 1.0000
vt 0.50000 0.50000
f 16/16 17/17 18/18
v 0.0000 38.5469 1.8750 1.0000 1.0000 1.0000
vt 0.50000 0.50000
v 0.0000 33.0469 -14.3750 1.0000 1.0000 1.0000
vt -0.00195 1.00195
v -15.5156 31.5938 1.0781 1.0000 1.0000 1.0000
vt -0.00195 -0.00195
f 19/19 20/20 21/21
v -14.4531 32.6094 13.9844 1.0000 1.0000 1.0000
vt -0.00195 -0.00195
v 14.4531 32.6094 13.9844 1.0000 1.0000 1.0000
vt 1.00195 -0.00195
v 0.0000 39.4062 0.3594 1.0000 1.0000 1.0000
vt 0.50000 0.50000
f 22/22 23/23 24/24
v 14.4531 32.6094 13.9844 1.0000 1.0000 1.0000
vt 1.00195 -0.00195
v 14.4531 33.9375 -14.9375 1.0000 1.0000 1.0000
vt 1.00195 1.00195
v 0.0000 39.4062 0.3594 1.0000 1.0000 1.0000
vt 0.50000 0.50000
f 25/25 26/26 27/27
v 0.0000 39.4062 0.3594 1.0000 1.0000 1.0000
vt 0.50000 0.50000
v 14.4531 33.9375 -14.9375 1.0000 1.0000 1.0000
vt 1.00195 1.00195
v -14.4531 33.9375 -14.9375 1.0000 1.0000 1.0000
vt -0.00195 1.00195
f 28/28 29/29 30/30
v 0.0000 30.1719 16.5156 1.0000 1.0000 1.0000
vt 1.00195 -0.00195
v 0.0000 38.5469 1.8750 1.0000 1.0000 1.0000
vt 0.50000 0.50000
v -15.5156 31.5938 1.0781 1.0000 1.0000 1.0000
vt -0.00195 -0.00195
f 31/31 32/32 33/33
v -14.4531 32.6094 13.9844 1.0000 1.0000 1.0000
vt -0.00195 -0.00195
v 0.0000 39.4062 0.3594 1.0000 1.0000 1.0000
vt 0.50000 0.50000
v -14.4531 33.9375 -14.9375 1.0000 1.0000 1.0000
vt -0.00195 1.00195
f 34/34 35/35 36/36
usemtl ki04c
v -16.0000 1.0000 16.0000 1.0000 1.0000 1.0000
vt -1.00000 0.00000
v 16.0000 1.0000 16.0000 1.0000 1.0000 1.0000
vt 0.00000 0.00000
v 16.0000 1.0000 -16.0000 1.0000 1.0000 1.0000
vt 0.00000 1.00000
f 37/37 38/38 39/39
v -16.0000 1.0000 16.0000 1.0000 1.0000 1.0000
vt -1.00000 0.00000
v 16.0000 1.0000 -16.0000 1.0000 1.0000 1.0000
vt 0.00000 1.00000
v -16.0000 1.0000 -16.0000 1.0000 1.0000 1.0000
vt -1.00000 1.00000
f 40/40 41/41 42/42
usemtl ki04dx
v -13.4844 36.0312 13.1406 1.0000 1.0000 1.0000
vt -0.00195 -0.00195
v 13.4844 36.0312 13.1406 1.0000 1.0000 1.0000
vt 1.00195 -0.00195
v 0.0000 40.5312 0.3281 1.0000 1.0000 1.0000
vt 0.50000 0.50000
f 43/43 44/44 45/45
v 13.4844 36.0312 13.1406 1.0000 1.0000 1.0000
vt 1.00195 -0.00195
v 13.4844 39.1719 -13.6875 1.0000 1.0000 1.0000
vt 1.00195 1.00195
v 0.0000 40.5312 0.3281 1.0000 1.0000 1.0000
vt 0.50000 0.50000
f 46/46 47/47 48/48
v 0.0000 40.5312 0.3281 1.0000 1.0000 1.0000
vt 0.50000 0.50000
v 13.4844 39.1719 -13.6875 1.0000 1.0000 1.0000
vt 1.00195 1.00195
v -13.4844 39.1719 -13.6875 1.0000 1.0000 1.0000
vt -0.00195 1.00195
f 49/49 50/50 51/51
v -13.4844 36.0312 13.1406 1.0000 1.0000 1.0000
vt -0.00195 -0.00195
v 0.0000 40.5312 0.3281 1.0000 1.0000 1.0000
vt 0.50000 0.50000
v -13.4844 39.1719 -13.6875 1.0000 1.0000 1.0000
vt -0.00195 1.00195
f 52/52 53/53 54/54
