# Découpé dans Humilau City par tools/maps/build_expedition_kits.py
mtllib lagoon_rock.mtl
usemtl rock01_lm1
v -15.9951 -0.0006 11.9951 1.0000 1.0000 1.0000
vt 0.00000 0.00000
v 15.9951 -0.0006 11.9951 1.0000 1.0000 1.0000
vt 1.00000 0.00000
v 15.9951 24.0019 -11.9975 1.0000 1.0000 1.0000
vt 1.00000 1.00000
f 1/1 2/2 3/3
v -15.9951 -0.0006 11.9951 1.0000 1.0000 1.0000
vt 0.00000 0.00000
v 15.9951 24.0019 -11.9975 1.0000 1.0000 1.0000
vt 1.00000 1.00000
v -15.9951 24.0019 -11.9975 1.0000 1.0000 1.0000
vt 0.00000 1.00000
f 4/4 5/5 6/6
