<?xml version='1.0' encoding='utf-8'?>
<COLLADA xmlns="http://www.collada.org/2005/11/COLLADASchema" version="1.4.1">
  <asset>
    <created>2026-07-27T16:58:12Z</created>
    <modified>2026-07-27T16:58:12Z</modified>
  </asset>
  <library_images>
    <image id="image-c8lb_bigice02">
      <init_from>c8lb_bigice02.png</init_from>
    </image>
    <image id="image-c8lb_bigice01">
      <init_from>c8lb_bigice01.png</init_from>
    </image>
    <image id="image-c8lb_bigice04">
      <init_from>c8lb_bigice04.png</init_from>
    </image>
  </library_images>
  <library_materials>
    <material id="material0" name="c8lb_bigice01">
      <instance_effect url="#effect0" />
    </material>
    <material id="material1" name="c8lb_bigice02">
      <instance_effect url="#effect1" />
    </material>
    <material id="material2" name="c8lb_bigice04">
      <instance_effect url="#effect2" />
    </material>
  </library_materials>
  <library_effects>
    <effect id="effect0" name="c8lb_bigice01">
      <profile_COMMON>
        <newparam sid="Image-surface">
          <surface type="2D">
            <init_from>image-c8lb_bigice01</init_from>
            <format>A8R8G8B8</format>
          </surface>
        </newparam>
        <newparam sid="Image-sampler">
          <sampler2D>
            <source>Image-surface</source>
            <wrap_s>WRAP</wrap_s>
            <wrap_t>WRAP</wrap_t>
            <minfilter>NEAREST</minfilter>
            <magfilter>NEAREST</magfilter>
            <mipfilter>NEAREST</mipfilter>
          </sampler2D>
        </newparam>
        <technique sid="common">
          <phong>
            <emission>
              <color>1 1 1 1</color>
            </emission>
            <ambient>
              <color>0 0 0 1</color>
            </ambient>
            <diffuse>
              <texture texture="Image-sampler" texcoord="tc" />
            </diffuse>
            <specular>
              <color>0 0 0 1</color>
            </specular>
            <transparent>
              <texture texture="Image-sampler" texcoord="tc" />
            </transparent>
          </phong>
        </technique>
      </profile_COMMON>
    </effect>
    <effect id="effect1" name="c8lb_bigice02">
      <profile_COMMON>
        <newparam sid="Image-surface">
          <surface type="2D">
            <init_from>image-c8lb_bigice02</init_from>
            <format>A8R8G8B8</format>
          </surface>
        </newparam>
        <newparam sid="Image-sampler">
          <sampler2D>
            <source>Image-surface</source>
            <wrap_s>WRAP</wrap_s>
            <wrap_t>WRAP</wrap_t>
            <minfilter>NEAREST</minfilter>
            <magfilter>NEAREST</magfilter>
            <mipfilter>NEAREST</mipfilter>
          </sampler2D>
        </newparam>
        <technique sid="common">
          <phong>
            <emission>
              <color>0.8064516 0.8064516 0.8064516 1</color>
            </emission>
            <ambient>
              <color>0 0 0 1</color>
            </ambient>
            <diffuse>
              <texture texture="Image-sampler" texcoord="tc" />
            </diffuse>
            <specular>
              <color>0 0 0 1</color>
            </specular>
          </phong>
        </technique>
      </profile_COMMON>
    </effect>
    <effect id="effect2" name="c8lb_bigice04">
      <profile_COMMON>
        <newparam sid="Image-surface">
          <surface type="2D">
            <init_from>image-c8lb_bigice04</init_from>
            <format>A8R8G8B8</format>
          </surface>
        </newparam>
        <newparam sid="Image-sampler">
          <sampler2D>
            <source>Image-surface</source>
            <wrap_s>MIRROR</wrap_s>
            <wrap_t>MIRROR</wrap_t>
            <minfilter>NEAREST</minfilter>
            <magfilter>NEAREST</magfilter>
            <mipfilter>NEAREST</mipfilter>
          </sampler2D>
        </newparam>
        <technique sid="common">
          <phong>
            <emission>
              <color>0.8064516 0.8064516 0.8064516 1</color>
            </emission>
            <ambient>
              <color>0 0 0 1</color>
            </ambient>
            <diffuse>
              <texture texture="Image-sampler" texcoord="tc" />
            </diffuse>
            <specular>
              <color>0 0 0 1</color>
            </specular>
            <transparent>
              <texture texture="Image-sampler" texcoord="tc" />
            </transparent>
          </phong>
        </technique>
      </profile_COMMON>
    </effect>
  </library_effects>
  <library_geometries>
    <geometry id="geometry" name="bigicicle_03">
      <mesh>
        <source id="positions">
          <float_array id="positions-array" count="396">-4.1503906 40.226563 -26.68164 -11.498047 7.107422 6.689453 0.9765625 27.173828 -5.1328125 -2.2695313 7.107422 9.568359 11.078125 7.107422 5.751953 11.078125 7.107422 5.751953 13.285156 49.96289 -26.345703 0.9765625 27.173828 -5.1328125 2.2402344 27.77539 -21.65039 -4.1503906 40.226563 -26.68164 11.203125 7.107422 -17.390625 13.285156 49.96289 -26.345703 15.595703 7.107422 -8.439453 11.078125 7.107422 5.751953 -9.458984 6.689453 -20.21289 -16.03125 7.107422 -7.5996094 -4.1503906 40.226563 -26.68164 -16.03125 7.107422 -7.5996094 -11.498047 7.107422 6.689453 -4.1503906 40.226563 -26.68164 12 44 -24 8.753906 7.8515625 -15.484375 1.4492188 22.373047 -17.101563 2.3554688 18.310547 -9.027344 8.396484 7.8515625 1.3554688 12 44 -24 1.4492188 22.373047 -17.101563 2.3554688 18.310547 -9.027344 12 44 -24 8.396484 7.8515625 1.3554688 11.253906 7.8515625 -8.21875 12 44 -24 11.253906 7.8515625 -8.21875 8.753906 7.8515625 -15.484375 12 44 -24 -2.1640625 7.8515625 2.5097656 8.396484 7.8515625 1.3554688 2.3554688 18.310547 -9.027344 -8.119141 7.8515625 -17.972656 -10.5 7.8515625 -7.078125 -3.8144531 34.73242 -23.576172 2.3554688 18.310547 -9.027344 1.4492188 22.373047 -17.101563 -3.8144531 34.73242 -23.576172 8.753906 7.8515625 -15.484375 -8.119141 7.8515625 -17.972656 -3.8144531 34.73242 -23.576172 -2.1640625 7.8515625 2.5097656 2.3554688 18.310547 -9.027344 -3.8144531 34.73242 -23.576172 -8.386719 7.8515625 -0.61328125 -2.1640625 7.8515625 2.5097656 -3.8144531 34.73242 -23.576172 -10.5 7.8515625 -7.078125 -8.386719 7.8515625 -0.61328125 -3.8144531 34.73242 -23.576172 1.4492188 22.373047 -17.101563 8.753906 7.8515625 -15.484375 -3.8144531 34.73242 -23.576172 9.654297 6.8125 4.0039063 12.943359 6.8125 -8.173828 13.005859 14.837891 -11.583984 10.310547 14.251953 -2.3164063 12.943359 6.8125 -8.173828 10.064453 6.8125 -16.53711 10.724609 15.253906 -18.40039 13.005859 14.837891 -11.583984 -1.2382813 6.8125 7 9.654297 6.8125 4.0039063 10.310547 14.251953 -2.3164063 -0.8984375 14.15625 -0.4765625 -9.363281 6.8125 -19.402344 -13.535156 6.8125 -8.8515625 -9.8671875 14.751953 -13.574219 -6.3066406 15.345703 -20.984375 -9.671875 6.8125 4.2910156 -1.2382813 6.8125 7 -0.8984375 14.15625 -0.4765625 -8.3203125 14.396484 -2.9199219 -13.535156 6.8125 -8.8515625 -9.671875 6.8125 4.2910156 -8.3203125 14.396484 -2.9199219 -9.8671875 14.751953 -13.574219 13.009766 6.4746094 -10.34375 9.376953 6.4746094 1.8320313 19.15625 6.4746094 8.2734375 21.917969 6.4746094 -13.259766 9.376953 6.4746094 1.8320313 -4.0527344 6.4746094 5.140625 -2.5722656 6.4746094 17.560547 19.15625 6.4746094 8.2734375 -4.0527344 6.4746094 5.140625 -11.966797 6.4746094 -0.671875 -17.521484 6.4746094 9.947266 -2.5722656 6.4746094 17.560547 -11.966797 6.4746094 -0.671875 -14.654297 6.4746094 -8.894531 -24.322266 6.4746094 -3.1738281 -17.521484 6.4746094 9.947266 -14.654297 6.4746094 -8.894531 -8.6953125 6.4746094 -18.978516 -17.060547 6.4746094 -21.822266 -24.322266 6.4746094 -3.1738281 -8.6953125 6.4746094 -18.978516 6.6464844 6.4746094 -19.583984 8.640625 6.4746094 -27.080078 -17.060547 6.4746094 -21.822266 13.009766 6.4746094 -10.34375 21.917969 6.4746094 -13.259766 8.640625 6.4746094 -27.080078 6.6464844 6.4746094 -19.583984 -0.99609375 6.4746094 -9.095703 -8.6953125 6.4746094 -18.978516 -14.654297 6.4746094 -8.894531 -0.99609375 6.4746094 -9.095703 13.009766 6.4746094 -10.34375 6.6464844 6.4746094 -19.583984 -0.99609375 6.4746094 -9.095703 6.6464844 6.4746094 -19.583984 -8.6953125 6.4746094 -18.978516 -0.99609375 6.4746094 -9.095703 -11.966797 6.4746094 -0.671875 -4.0527344 6.4746094 5.140625 -0.99609375 6.4746094 -9.095703 -14.654297 6.4746094 -8.894531 -11.966797 6.4746094 -0.671875 -0.99609375 6.4746094 -9.095703 -4.0527344 6.4746094 5.140625 9.376953 6.4746094 1.8320313 -0.99609375 6.4746094 -9.095703 9.376953 6.4746094 1.8320313 13.009766 6.4746094 -10.34375 </float_array>
          <technique_common>
            <accessor source="#positions-array" count="132" stride="3">
              <param name="X" type="float" />
              <param name="Y" type="float" />
              <param name="Z" type="float" />
            </accessor>
          </technique_common>
        </source>
        <source id="texcoords">
          <float_array id="texcoords-array" count="264">-0.21875 0.8173828 0.08984375 0.030273438 0.22460938 0.453125 0.036132813 0.1328125 0.62402344 0.08886719 0.62402344 0.08886719 0.27734375 0.29882813 0.22460938 0.453125 0.009765625 0.52441406 -0.16796875 0.81152344 0.18261719 0.009765625 0.27734375 0.29882813 0.26464844 0.125 0.62402344 0.08886719 0.24707031 0.8300781 0.359375 0.3232422 0.39453125 0.28710938 0.045898438 0.020507813 0.23828125 0.23535156 0.16210938 0.67578125 0.2998047 0.33203125 0.051757813 0.01953125 0.24804688 0.022460938 0.5703125 0.026367188 0.76171875 0.03125 0.5986328 0.6894531 0.484375 0.025390625 0.0126953125 0.020507813 0.39648438 0.43652344 0.4873047 0.032226563 0.2607422 0.030273438 0.2998047 0.33203125 0.5 0.032226563 0.051757813 0.01953125 0.2998047 0.33203125 0.49121094 0.047851563 0.0390625 0.043945313 0.39648438 0.43652344 0.45996094 0.052734375 0.0068359375 0.047851563 0.4638672 0.9121094 0.5703125 0.026367188 0.76953125 0.025390625 0.5986328 0.6894531 0.48535156 0.036132813 0.033203125 0.03125 0.39648438 0.43652344 0.48242188 0.03515625 0.0126953125 0.020507813 0.39648438 0.43652344 0.5908203 0.05078125 0.9736328 0.047851563 0.47558594 0.9111328 0.44433594 0.038085938 -0.0078125 0.033203125 0.39648438 0.43652344 0.5703125 0.026367188 0.7441406 -0.025390625 0.5986328 0.6894531 0 0.02734375 -1 0.02734375 -1 0.97265625 0 0.97265625 0 0.02734375 -1 0.02734375 -1 0.97265625 0 0.97265625 0 0.02734375 -1 0.02734375 -1 0.97265625 0 0.97265625 0 0.02734375 -1 0.02734375 -1 0.97265625 0 0.97265625 0 0.02734375 -1 0.02734375 -1 0.97265625 0 0.97265625 0 0.02734375 -1 0.02734375 -1 0.97265625 0 0.97265625 -0.16015625 0.052734375 0.16015625 0.052734375 1 0.99609375 -1 0.99609375 -0.16015625 0.052734375 0.16015625 0.052734375 1 0.99609375 -1 0.99609375 -0.16015625 0.052734375 0.16015625 0.052734375 1 0.99609375 -1 0.99609375 -0.16015625 0.052734375 0.16015625 0.052734375 1 0.99609375 -1 0.99609375 -0.16015625 0.052734375 0.16015625 0.052734375 1 0.99609375 -1 0.99609375 -0.16015625 0.052734375 0.16015625 0.052734375 1 0.99609375 -1 0.99609375 0.16015625 0.052734375 1 0.99609375 -1 0.99609375 -0.16015625 0.052734375 0 0.052734375 0.16015625 0.052734375 -0.16015625 0.052734375 0 0.052734375 0.16015625 0.052734375 -0.16015625 0.052734375 0 0.052734375 0.16015625 0.052734375 -0.16015625 0.052734375 0 0.052734375 0.16015625 0.052734375 -0.16015625 0.052734375 0 0.052734375 0.16015625 0.052734375 -0.16015625 0.052734375 0 0.052734375 0.16015625 0.052734375 -0.16015625 0.052734375 0 0.052734375 0.16015625 0.052734375 -0.16015625 0.052734375 </float_array>
          <technique_common>
            <accessor source="#texcoords-array" count="132" stride="2">
              <param name="S" type="float" />
              <param name="T" type="float" />
            </accessor>
          </technique_common>
        </source>
        <source id="colors">
          <float_array id="colors-array" count="396">1 1 1 1 1 1 1 1 1 1 1 1 1 1 1 1 1 1 1 1 1 1 1 1 1 1 1 1 1 1 1 1 1 1 1 1 1 1 1 1 1 1 1 1 1 1 1 1 1 1 1 1 1 1 1 1 1 1 1 1 1 1 1 1 1 1 1 1 1 1 1 1 1 1 1 1 1 1 1 1 1 1 1 1 1 1 1 1 1 1 1 1 1 1 1 1 1 1 1 1 1 1 1 1 1 1 1 1 1 1 1 1 1 1 1 1 1 1 1 1 1 1 1 1 1 1 1 1 1 1 1 1 1 1 1 1 1 1 1 1 1 1 1 1 1 1 1 1 1 1 1 1 1 1 1 1 1 1 1 1 1 1 1 1 1 1 1 1 1 1 1 1 1 1 1 1 1 1 1 1 1 1 1 1 1 1 1 1 1 1 1 1 1 1 1 1 1 1 1 1 1 1 1 1 1 1 1 1 1 1 1 1 1 1 1 1 1 1 1 1 1 1 1 1 1 1 1 1 1 1 1 1 1 1 1 1 1 1 1 1 1 1 1 1 1 1 1 1 1 1 1 1 1 1 1 1 1 1 1 1 1 1 1 1 1 1 1 1 1 1 1 1 1 1 1 1 1 1 1 1 1 1 1 1 1 1 1 1 1 1 1 1 1 1 1 1 1 1 1 1 1 1 1 1 1 1 1 1 1 1 1 1 1 1 1 1 1 1 1 1 1 1 1 1 1 1 1 1 1 1 1 1 1 1 1 1 1 1 1 1 1 1 1 1 1 1 1 1 1 1 1 1 1 1 1 1 1 1 1 1 1 1 1 1 1 1 1 1 1 1 1 1 1 1 1 1 1 1 1 1 1 1 1 1 1 1 1 1 1 1 1 1 1 1 1 1 </float_array>
          <technique_common>
            <accessor source="#colors-array" count="132" stride="3">
              <param name="R" type="float" />
              <param name="G" type="float" />
              <param name="B" type="float" />
            </accessor>
          </technique_common>
        </source>
        <source id="normals">
          <float_array id="normals-array" count="396">0 1 0 0 1 0 0 1 0 0 1 0 0 1 0 0 1 0 0 1 0 0 1 0 0 1 0 0 1 0 0 1 0 0 1 0 0 1 0 0 1 0 0 1 0 0 1 0 0 1 0 0 1 0 0 1 0 0 1 0 -0.20124827 -0.20710988 -0.9573947 -0.20124827 -0.20710988 -0.9573947 -0.20124827 -0.20710988 -0.9573947 -0.32629013 0.5646578 0.7580873 -0.32629013 0.5646578 0.7580873 -0.32629013 0.5646578 0.7580873 -0.7981616 0.4976313 0.33956018 -0.7981616 0.4976313 0.33956018 -0.7981616 0.4976313 0.33956018 0.95289785 0.103490956 0.2850883 0.95289785 0.103490956 0.2850883 0.95289785 0.103490956 0.2850883 0.933665 -0.16016847 -0.32033694 0.933665 -0.16016847 -0.32033694 0.933665 -0.16016847 -0.32033694 0.074198656 0.7244132 0.68536127 0.074198656 0.7244132 0.68536127 0.074198656 0.7244132 0.68536127 -0.97071236 0.11132919 -0.21289265 -0.97071236 0.11132919 -0.21289265 -0.97071236 0.11132919 -0.21289265 0.87391907 0.45748785 0.1642264 0.87391907 0.45748785 0.1642264 0.87391907 0.45748785 0.1642264 0.142457 -0.22441855 -0.964024 0.142457 -0.22441855 -0.964024 0.142457 -0.22441855 -0.964024 0.18755546 0.68965703 0.6994256 0.18755546 0.68965703 0.6994256 0.18755546 0.68965703 0.6994256 -0.3440303 0.6431021 0.6841512 -0.3440303 0.6431021 0.6841512 -0.3440303 0.6431021 0.6841512 -0.87453806 0.39237088 0.28500572 -0.87453806 0.39237088 0.28500572 -0.87453806 0.39237088 0.28500572 0.87391907 0.45748785 0.1642264 0.87391907 0.45748785 0.1642264 0.87391907 0.45748785 0.1642264 0 1 0 0 1 0 0 1 0 0 1 0 0 1 0 0 1 0 0 1 0 0 1 0 0 1 0 0 1 0 0 1 0 0 1 0 0 1 0 0 1 0 0 1 0 0 1 0 0 1 0 0 1 0 0 1 0 0 1 0 0 1 0 0 1 0 0 1 0 0 1 0 0 1 0 0 1 0 0 1 0 0 1 0 0 1 0 0 1 0 0 1 0 0 1 0 0 1 0 0 1 0 0 1 0 0 1 0 0 1 0 0 1 0 0 1 0 0 1 0 0 1 0 0 1 0 0 1 0 0 1 0 0 1 0 0 1 0 0 1 0 0 1 0 0 1 0 0 1 0 0 1 0 0 1 0 0 1 0 0 1 0 0 1 0 0 1 0 0 1 0 0 1 0 0 1 0 0 1 0 0 1 0 0 1 0 0 1 0 0 1 0 0 1 0 0 1 0 0 1 0 0 1 0 0 1 0 0 1 0 0 1 0 0 1 0 0 1 0 </float_array>
          <technique_common>
            <accessor source="#normals-array" count="132" stride="3">
              <param name="X" type="float" />
              <param name="Y" type="float" />
              <param name="Z" type="float" />
            </accessor>
          </technique_common>
        </source>
        <vertices id="vertices">
          <input semantic="POSITION" source="#positions" />
          <input semantic="TEXCOORD" source="#texcoords" />
          <input semantic="COLOR" source="#colors" />
          <input semantic="NORMAL" source="#normals" />
        </vertices>
        <polylist material="material0" count="10">
          <input semantic="VERTEX" source="#vertices" offset="0" />
          <vcount>3 3 3 3 3 3 3 3 3 3 </vcount>
          <p>0 1 2 1 3 2 2 3 4 5 6 7 6 8 7 7 8 9 10 11 12 11 13 12 14 15 16 17 18 19 </p>
        </polylist>
        <polylist material="material1" count="13">
          <input semantic="VERTEX" source="#vertices" offset="0" />
          <vcount>3 3 3 3 3 3 3 3 3 3 3 3 3 </vcount>
          <p>20 21 22 23 24 25 26 27 28 29 30 31 32 33 34 35 36 37 38 39 40 41 42 43 44 45 46 47 48 49 50 51 52 53 54 55 56 57 58 </p>
        </polylist>
        <polylist material="material2" count="20">
          <input semantic="VERTEX" source="#vertices" offset="0" />
          <vcount>4 4 4 4 4 4 4 4 4 4 4 4 4 3 3 3 3 3 3 3 </vcount>
          <p>59 60 61 62 63 64 65 66 67 68 69 70 71 72 73 74 75 76 77 78 79 80 81 82 83 84 85 86 87 88 89 90 91 92 93 94 95 96 97 98 99 100 101 102 103 104 105 106 107 108 109 110 111 112 113 114 115 116 117 118 119 120 121 122 123 124 125 126 127 128 129 130 131 </p>
        </polylist>
      </mesh>
    </geometry>
  </library_geometries>
  <library_visual_scenes>
    <visual_scene id="scene0" name="bigicicle_03">
      <node id="node" name="bigicicle_03" type="NODE">
        <instance_geometry url="#geometry">
          <bind_material>
            <technique_common>
              <instance_material symbol="material0" target="#material0">
                <bind_vertex_input semantic="tc" input_semantic="TEXCOORD" />
              </instance_material>
              <instance_material symbol="material1" target="#material1">
                <bind_vertex_input semantic="tc" input_semantic="TEXCOORD" />
              </instance_material>
              <instance_material symbol="material2" target="#material2">
                <bind_vertex_input semantic="tc" input_semantic="TEXCOORD" />
              </instance_material>
            </technique_common>
          </bind_material>
        </instance_geometry>
      </node>
    </visual_scene>
  </library_visual_scenes>
  <scene>
    <instance_visual_scene url="#scene0" />
  </scene>
</COLLADA>