# Converti depuis bigicicle_01.dae par tools/maps/dae_to_obj.py
mtllib big_icicle_1.mtl
v 43.1875 7.6328 -6.4766 1.0000 1.0000 1.0000
v 34.1641 7.6328 -6.4297 1.0000 1.0000 1.0000
v 25.8359 7.6328 18.0547 1.0000 1.0000 1.0000
v 43.1875 7.6328 -6.4766 1.0000 1.0000 1.0000
v 25.8359 7.6328 18.0547 1.0000 1.0000 1.0000
v 29.7891 7.6328 25.0234 1.0000 1.0000 1.0000
v 29.7891 7.6328 25.0234 1.0000 1.0000 1.0000
v 25.8359 7.6328 18.0547 1.0000 1.0000 1.0000
v 6.1094 7.6328 28.8203 1.0000 1.0000 1.0000
v 29.7891 7.6328 25.0234 1.0000 1.0000 1.0000
v 6.1094 7.6328 28.8203 1.0000 1.0000 1.0000
v 6.8750 7.6328 38.6797 1.0000 1.0000 1.0000
v 6.8750 7.6328 38.6797 1.0000 1.0000 1.0000
v 6.1094 7.6328 28.8203 1.0000 1.0000 1.0000
v -21.4844 7.6328 25.1875 1.0000 1.0000 1.0000
v 6.8750 7.6328 38.6797 1.0000 1.0000 1.0000
v -21.4844 7.6328 25.1875 1.0000 1.0000 1.0000
v -26.8281 7.6328 34.5391 1.0000 1.0000 1.0000
v -32.5859 7.6328 -29.4609 1.0000 1.0000 1.0000
v -21.4844 7.6328 25.1875 1.0000 1.0000 1.0000
v 6.1094 7.6328 28.8203 1.0000 1.0000 1.0000
v -32.5859 7.6328 -29.4609 1.0000 1.0000 1.0000
v 6.1094 7.6328 28.8203 1.0000 1.0000 1.0000
v -17.1016 7.6328 -47.7578 1.0000 1.0000 1.0000
v -17.1016 7.6328 -47.7578 1.0000 1.0000 1.0000
v 6.1094 7.6328 28.8203 1.0000 1.0000 1.0000
v 25.8359 7.6328 18.0547 1.0000 1.0000 1.0000
v -17.1016 7.6328 -47.7578 1.0000 1.0000 1.0000
v 25.8359 7.6328 18.0547 1.0000 1.0000 1.0000
v 24.3125 7.6328 -36.3828 1.0000 1.0000 1.0000
v -23.8281 26.7969 -30.9219 1.0000 1.0000 1.0000
v -31.6719 8.8516 -29.2422 1.0000 1.0000 1.0000
v -25.9297 26.7969 -7.2031 1.0000 1.0000 1.0000
v -31.6719 8.8516 -29.2422 1.0000 1.0000 1.0000
v -32.9609 8.8516 2.0391 1.0000 1.0000 1.0000
v -25.9297 26.7969 -7.2031 1.0000 1.0000 1.0000
v 35.8750 34.0000 -1.5000 1.0000 1.0000 1.0000
v 37.2812 26.8672 -11.4375 1.0000 1.0000 1.0000
v 30.5078 8.8516 4.3984 1.0000 1.0000 1.0000
v 37.2812 26.8672 -11.4375 1.0000 1.0000 1.0000
v 33.6094 8.8516 -6.9609 1.0000 1.0000 1.0000
v 30.5078 8.8516 4.3984 1.0000 1.0000 1.0000
v -9.5000 41.8594 3.5625 1.0000 1.0000 1.0000
v -20.4766 26.7969 0.7031 1.0000 1.0000 1.0000
v -22.1719 8.8516 25.8516 1.0000 1.0000 1.0000
v -20.4766 26.7969 0.7031 1.0000 1.0000 1.0000
v -32.9609 8.8516 2.0391 1.0000 1.0000 1.0000
v -22.1719 8.8516 25.8516 1.0000 1.0000 1.0000
v 34.1641 7.6328 -6.4297 1.0000 1.0000 1.0000
v 43.1875 7.6328 -6.4766 1.0000 1.0000 1.0000
v 31.7734 7.6328 -44.2734 1.0000 1.0000 1.0000
v 34.1641 7.6328 -6.4297 1.0000 1.0000 1.0000
v 31.7734 7.6328 -44.2734 1.0000 1.0000 1.0000
v 24.3125 7.6328 -36.3828 1.0000 1.0000 1.0000
v -42.6328 7.6328 4.0234 1.0000 1.0000 1.0000
v -26.8281 7.6328 34.5391 1.0000 1.0000 1.0000
v -21.4844 7.6328 25.1875 1.0000 1.0000 1.0000
v -42.6328 7.6328 4.0234 1.0000 1.0000 1.0000
v -21.4844 7.6328 25.1875 1.0000 1.0000 1.0000
v -33.1562 7.6328 0.5156 1.0000 1.0000 1.0000
v -42.3906 7.6328 -34.6016 1.0000 1.0000 1.0000
v -42.6328 7.6328 4.0234 1.0000 1.0000 1.0000
v -33.1562 7.6328 0.5156 1.0000 1.0000 1.0000
v -42.3906 7.6328 -34.6016 1.0000 1.0000 1.0000
v -33.1562 7.6328 0.5156 1.0000 1.0000 1.0000
v -32.5859 7.6328 -29.4609 1.0000 1.0000 1.0000
v -20.6250 7.6328 -57.2188 1.0000 1.0000 1.0000
v -42.3906 7.6328 -34.6016 1.0000 1.0000 1.0000
v -32.5859 7.6328 -29.4609 1.0000 1.0000 1.0000
v -20.6250 7.6328 -57.2188 1.0000 1.0000 1.0000
v -32.5859 7.6328 -29.4609 1.0000 1.0000 1.0000
v -17.1016 7.6328 -47.7578 1.0000 1.0000 1.0000
v 31.7734 7.6328 -44.2734 1.0000 1.0000 1.0000
v -20.6250 7.6328 -57.2188 1.0000 1.0000 1.0000
v -17.1016 7.6328 -47.7578 1.0000 1.0000 1.0000
v 31.7734 7.6328 -44.2734 1.0000 1.0000 1.0000
v -17.1016 7.6328 -47.7578 1.0000 1.0000 1.0000
v 24.3125 7.6328 -36.3828 1.0000 1.0000 1.0000
v -25.9297 26.7969 -7.2031 1.0000 1.0000 1.0000
v -32.9609 8.8516 2.0391 1.0000 1.0000 1.0000
v -20.4766 26.7969 0.7031 1.0000 1.0000 1.0000
v 23.3281 26.9453 -2.4062 1.0000 1.0000 1.0000
v 35.8750 34.0000 -1.5000 1.0000 1.0000 1.0000
v 30.5078 8.8516 4.3984 1.0000 1.0000 1.0000
v -22.1719 8.8516 25.8516 1.0000 1.0000 1.0000
v -3.4062 30.4141 10.0547 1.0000 1.0000 1.0000
v -9.5000 41.8594 3.5625 1.0000 1.0000 1.0000
v 6.4609 8.8516 30.5234 1.0000 1.0000 1.0000
v 4.6641 26.7969 13.6484 1.0000 1.0000 1.0000
v -3.4062 30.4141 10.0547 1.0000 1.0000 1.0000
v 30.5078 8.8516 4.3984 1.0000 1.0000 1.0000
v 11.5781 32.9844 5.5781 1.0000 1.0000 1.0000
v 25.3047 8.8516 18.5703 1.0000 1.0000 1.0000
v 25.3047 8.8516 18.5703 1.0000 1.0000 1.0000
v 11.5781 32.9844 5.5781 1.0000 1.0000 1.0000
v 6.4609 8.8516 30.5234 1.0000 1.0000 1.0000
v -6.2734 8.8516 29.6953 1.0000 1.0000 1.0000
v -3.4062 30.4141 10.0547 1.0000 1.0000 1.0000
v -22.1719 8.8516 25.8516 1.0000 1.0000 1.0000
v 6.4609 8.8516 30.5234 1.0000 1.0000 1.0000
v -3.4062 30.4141 10.0547 1.0000 1.0000 1.0000
v -6.2734 8.8516 29.6953 1.0000 1.0000 1.0000
v 6.4609 8.8516 30.5234 1.0000 1.0000 1.0000
v 11.5781 32.9844 5.5781 1.0000 1.0000 1.0000
v 4.6641 26.7969 13.6484 1.0000 1.0000 1.0000
v 30.5078 8.8516 4.3984 1.0000 1.0000 1.0000
v 23.3281 26.9453 -2.4062 1.0000 1.0000 1.0000
v 11.5781 32.9844 5.5781 1.0000 1.0000 1.0000
v 34.1641 7.6328 -6.4297 1.0000 1.0000 1.0000
v 24.3125 7.6328 -36.3828 1.0000 1.0000 1.0000
v 25.8359 7.6328 18.0547 1.0000 1.0000 1.0000
v -32.5859 7.6328 -29.4609 1.0000 1.0000 1.0000
v -33.1562 7.6328 0.5156 1.0000 1.0000 1.0000
v -21.4844 7.6328 25.1875 1.0000 1.0000 1.0000
v 6.0312 21.6875 -2.5547 1.0000 1.0000 1.0000
v 13.5234 21.6875 -9.2812 1.0000 1.0000 1.0000
v 34.0078 101.5391 -1.1328 1.0000 1.0000 1.0000
v -9.6016 21.6875 -9.3125 1.0000 1.0000 1.0000
v 34.0078 101.5391 -1.1328 1.0000 1.0000 1.0000
v 19.3906 106.1484 -5.6250 1.0000 1.0000 1.0000
v -9.6016 21.6875 -9.3125 1.0000 1.0000 1.0000
v -5.7734 8.0000 9.4609 1.0000 1.0000 1.0000
v 6.8516 52.8828 5.9922 1.0000 1.0000 1.0000
v 6.0312 21.6875 -2.5547 1.0000 1.0000 1.0000
v -9.6016 21.6875 -9.3125 1.0000 1.0000 1.0000
v 6.8516 52.8828 5.9922 1.0000 1.0000 1.0000
v -5.7734 8.0000 9.4609 1.0000 1.0000 1.0000
v 6.0312 21.6875 -2.5547 1.0000 1.0000 1.0000
v 6.8516 52.8828 5.9922 1.0000 1.0000 1.0000
v -13.1641 8.0000 -38.5234 1.0000 1.0000 1.0000
v -0.4688 40.1875 -20.2266 1.0000 1.0000 1.0000
v -0.4688 28.6562 -20.2266 1.0000 1.0000 1.0000
v 42.0156 43.3750 -7.7578 1.0000 1.0000 1.0000
v 20.8438 13.6953 -5.1328 1.0000 1.0000 1.0000
v 24.0625 8.0000 -2.1797 1.0000 1.0000 1.0000
v 24.0625 8.0000 -2.1797 1.0000 1.0000 1.0000
v 20.8438 13.6953 -5.1328 1.0000 1.0000 1.0000
v 24.0000 8.0000 15.6953 1.0000 1.0000 1.0000
v 20.8438 13.6953 -5.1328 1.0000 1.0000 1.0000
v 13.5234 21.6875 -9.2812 1.0000 1.0000 1.0000
v 24.0000 8.0000 15.6953 1.0000 1.0000 1.0000
v -26.7891 8.0000 -25.1797 1.0000 1.0000 1.0000
v -27.9844 8.0000 -2.2969 1.0000 1.0000 1.0000
v -10.6172 76.5859 -32.3359 1.0000 1.0000 1.0000
v -0.4688 40.1875 -20.2266 1.0000 1.0000 1.0000
v -13.1641 8.0000 -38.5234 1.0000 1.0000 1.0000
v -10.6172 76.5859 -32.3359 1.0000 1.0000 1.0000
v -9.6016 21.6875 -9.3125 1.0000 1.0000 1.0000
v -0.4688 40.1875 -20.2266 1.0000 1.0000 1.0000
v -10.6172 76.5859 -32.3359 1.0000 1.0000 1.0000
v -27.9844 8.0000 -2.2969 1.0000 1.0000 1.0000
v -9.6016 21.6875 -9.3125 1.0000 1.0000 1.0000
v -10.6172 76.5859 -32.3359 1.0000 1.0000 1.0000
v -13.1641 8.0000 -38.5234 1.0000 1.0000 1.0000
v -26.7891 8.0000 -25.1797 1.0000 1.0000 1.0000
v -10.6172 76.5859 -32.3359 1.0000 1.0000 1.0000
v 13.5234 21.6875 -9.2812 1.0000 1.0000 1.0000
v 20.3047 8.0000 -28.7500 1.0000 1.0000 1.0000
v 45.3984 43.5312 -37.9844 1.0000 1.0000 1.0000
v -0.4688 28.6562 -20.2266 1.0000 1.0000 1.0000
v 13.5234 21.6875 -9.2812 1.0000 1.0000 1.0000
v 45.3984 43.5312 -37.9844 1.0000 1.0000 1.0000
v -13.1641 8.0000 -38.5234 1.0000 1.0000 1.0000
v -0.4688 28.6562 -20.2266 1.0000 1.0000 1.0000
v 45.3984 43.5312 -37.9844 1.0000 1.0000 1.0000
v 13.5234 21.6875 -9.2812 1.0000 1.0000 1.0000
v 20.8438 13.6953 -5.1328 1.0000 1.0000 1.0000
v 42.0156 43.3750 -7.7578 1.0000 1.0000 1.0000
v 20.3047 8.0000 -28.7500 1.0000 1.0000 1.0000
v 13.5234 21.6875 -9.2812 1.0000 1.0000 1.0000
v 42.0156 43.3750 -7.7578 1.0000 1.0000 1.0000
v 24.0625 8.0000 -2.1797 1.0000 1.0000 1.0000
v 29.4297 8.0000 -19.0547 1.0000 1.0000 1.0000
v 42.0156 43.3750 -7.7578 1.0000 1.0000 1.0000
v 19.9688 108.9844 -21.5156 1.0000 1.0000 1.0000
v -9.6016 21.6875 -9.3125 1.0000 1.0000 1.0000
v 19.3906 106.1484 -5.6250 1.0000 1.0000 1.0000
v -20.7656 8.0000 19.8359 1.0000 1.0000 1.0000
v -5.7734 8.0000 9.4609 1.0000 1.0000 1.0000
v -9.6016 21.6875 -9.3125 1.0000 1.0000 1.0000
v -27.9844 8.0000 -2.2969 1.0000 1.0000 1.0000
v -20.7656 8.0000 19.8359 1.0000 1.0000 1.0000
v -9.6016 21.6875 -9.3125 1.0000 1.0000 1.0000
v 6.0312 21.6875 -2.5547 1.0000 1.0000 1.0000
v -5.7734 8.0000 9.4609 1.0000 1.0000 1.0000
v 6.2344 8.0000 21.5625 1.0000 1.0000 1.0000
v 13.5234 21.6875 -9.2812 1.0000 1.0000 1.0000
v 6.0312 21.6875 -2.5547 1.0000 1.0000 1.0000
v 6.2344 8.0000 21.5625 1.0000 1.0000 1.0000
v 24.0000 8.0000 15.6953 1.0000 1.0000 1.0000
v 13.5234 21.6875 -9.2812 1.0000 1.0000 1.0000
v 6.2344 8.0000 21.5625 1.0000 1.0000 1.0000
v 34.9453 106.1328 -26.8438 1.0000 1.0000 1.0000
v 19.9688 108.9844 -21.5156 1.0000 1.0000 1.0000
v 37.0938 125.3047 -11.2031 1.0000 1.0000 1.0000
v 19.9688 108.9844 -21.5156 1.0000 1.0000 1.0000
v 19.3906 106.1484 -5.6250 1.0000 1.0000 1.0000
v 37.0938 125.3047 -11.2031 1.0000 1.0000 1.0000
v 19.3906 106.1484 -5.6250 1.0000 1.0000 1.0000
v 34.0078 101.5391 -1.1328 1.0000 1.0000 1.0000
v 37.0938 125.3047 -11.2031 1.0000 1.0000 1.0000
v 34.0078 101.5391 -1.1328 1.0000 1.0000 1.0000
v 43.6250 101.5312 -14.2500 1.0000 1.0000 1.0000
v 37.0938 125.3047 -11.2031 1.0000 1.0000 1.0000
v 43.6250 101.5312 -14.2500 1.0000 1.0000 1.0000
v 34.9453 106.1328 -26.8438 1.0000 1.0000 1.0000
v 37.0938 125.3047 -11.2031 1.0000 1.0000 1.0000
v 34.9453 106.1328 -26.8438 1.0000 1.0000 1.0000
v -0.4688 40.1875 -20.2266 1.0000 1.0000 1.0000
v 19.9688 108.9844 -21.5156 1.0000 1.0000 1.0000
v 34.0078 101.5391 -1.1328 1.0000 1.0000 1.0000
v 13.5234 21.6875 -9.2812 1.0000 1.0000 1.0000
v 43.6250 101.5312 -14.2500 1.0000 1.0000 1.0000
v -9.6016 21.6875 -9.3125 1.0000 1.0000 1.0000
v 6.0312 21.6875 -2.5547 1.0000 1.0000 1.0000
v 34.0078 101.5391 -1.1328 1.0000 1.0000 1.0000
v -0.4688 40.1875 -20.2266 1.0000 1.0000 1.0000
v -9.6016 21.6875 -9.3125 1.0000 1.0000 1.0000
v 19.9688 108.9844 -21.5156 1.0000 1.0000 1.0000
v 10.9531 39.6953 1.3438 1.0000 1.0000 1.0000
v 36.1562 99.5234 1.0391 1.0000 1.0000 1.0000
v 18.0312 105.9766 -3.3984 1.0000 1.0000 1.0000
v 21.2734 30.8750 -7.8828 1.0000 1.0000 1.0000
v 6.1875 6.7109 26.8438 1.0000 1.0000 1.0000
v 23.5625 18.5703 -0.5703 1.0000 1.0000 1.0000
v 10.9531 39.6953 1.3438 1.0000 1.0000 1.0000
v 8.9453 65.8438 8.0234 1.0000 1.0000 1.0000
v 8.3984 25.4922 3.1562 1.0000 1.0000 1.0000
v 21.2734 30.8750 -7.8828 1.0000 1.0000 1.0000
v 23.5625 18.5703 -0.5703 1.0000 1.0000 1.0000
v 45.2891 48.5078 -6.7422 1.0000 1.0000 1.0000
v -7.5469 34.6406 -8.3125 1.0000 1.0000 1.0000
v -6.2891 6.7109 13.3281 1.0000 1.0000 1.0000
v 8.9453 65.8438 8.0234 1.0000 1.0000 1.0000
v 10.9531 39.6953 1.3438 1.0000 1.0000 1.0000
v -7.5469 34.6406 -8.3125 1.0000 1.0000 1.0000
v 8.9453 65.8438 8.0234 1.0000 1.0000 1.0000
v 8.3984 25.4922 3.1562 1.0000 1.0000 1.0000
v 8.9453 65.8438 8.0234 1.0000 1.0000 1.0000
v -6.2891 6.7109 13.3281 1.0000 1.0000 1.0000
v -10.6172 83.6641 -32.3359 1.0000 1.0000 1.0000
v -0.0938 46.1562 -22.0312 1.0000 1.0000 1.0000
v 2.8438 34.7734 -33.1406 1.0000 1.0000 1.0000
v 2.8438 34.7734 -33.1406 1.0000 1.0000 1.0000
v -0.0938 46.1562 -22.0312 1.0000 1.0000 1.0000
v 18.8594 110.5859 -23.1875 1.0000 1.0000 1.0000
v 8.3984 25.4922 3.1562 1.0000 1.0000 1.0000
v 21.2734 30.8750 -7.8828 1.0000 1.0000 1.0000
v 36.1562 99.5234 1.0391 1.0000 1.0000 1.0000
v 8.3984 25.4922 3.1562 1.0000 1.0000 1.0000
v 36.1562 99.5234 1.0391 1.0000 1.0000 1.0000
v 10.9531 39.6953 1.3438 1.0000 1.0000 1.0000
v 26.7422 6.7109 -1.5312 1.0000 1.0000 1.0000
v 23.5625 18.5703 -0.5703 1.0000 1.0000 1.0000
v 26.8438 6.7109 19.3047 1.0000 1.0000 1.0000
v -30.6875 6.7109 -29.6953 1.0000 1.0000 1.0000
v -31.9531 6.7109 1.7031 1.0000 1.0000 1.0000
v -10.6172 83.6641 -32.3359 1.0000 1.0000 1.0000
v 2.8438 34.7734 -33.1406 1.0000 1.0000 1.0000
v -17.9531 6.7109 -48.0000 1.0000 1.0000 1.0000
v -10.6172 83.6641 -32.3359 1.0000 1.0000 1.0000
v -7.5469 34.6406 -8.3125 1.0000 1.0000 1.0000
v -0.0938 46.1562 -22.0312 1.0000 1.0000 1.0000
v -10.6172 83.6641 -32.3359 1.0000 1.0000 1.0000
v -31.9531 6.7109 1.7031 1.0000 1.0000 1.0000
v -7.5469 34.6406 -8.3125 1.0000 1.0000 1.0000
v -10.6172 83.6641 -32.3359 1.0000 1.0000 1.0000
v -17.9531 6.7109 -48.0000 1.0000 1.0000 1.0000
v -30.6875 6.7109 -29.6953 1.0000 1.0000 1.0000
v -10.6172 83.6641 -32.3359 1.0000 1.0000 1.0000
v 21.2734 30.8750 -7.8828 1.0000 1.0000 1.0000
v 28.0000 16.0234 -28.0000 1.0000 1.0000 1.0000
v 48.1250 45.5859 -38.3516 1.0000 1.0000 1.0000
v 2.8438 34.7734 -33.1406 1.0000 1.0000 1.0000
v 21.2734 30.8750 -7.8828 1.0000 1.0000 1.0000
v 48.1250 45.5859 -38.3516 1.0000 1.0000 1.0000
v -17.9531 6.7109 -48.0000 1.0000 1.0000 1.0000
v 2.8438 34.7734 -33.1406 1.0000 1.0000 1.0000
v 48.1250 45.5859 -38.3516 1.0000 1.0000 1.0000
v 23.5625 18.5703 -0.5703 1.0000 1.0000 1.0000
v 26.7422 6.7109 -1.5312 1.0000 1.0000 1.0000
v 45.2891 48.5078 -6.7422 1.0000 1.0000 1.0000
v 28.0000 16.0234 -28.0000 1.0000 1.0000 1.0000
v 21.2734 30.8750 -7.8828 1.0000 1.0000 1.0000
v 45.2891 48.5078 -6.7422 1.0000 1.0000 1.0000
v 26.7422 6.7109 -1.5312 1.0000 1.0000 1.0000
v 31.7500 6.7109 -21.2891 1.0000 1.0000 1.0000
v 45.2891 48.5078 -6.7422 1.0000 1.0000 1.0000
v 18.8594 110.5859 -23.1875 1.0000 1.0000 1.0000
v -7.5469 34.6406 -8.3125 1.0000 1.0000 1.0000
v 18.0312 105.9766 -3.3984 1.0000 1.0000 1.0000
v -22.0625 6.7109 24.0000 1.0000 1.0000 1.0000
v -6.2891 6.7109 13.3281 1.0000 1.0000 1.0000
v -7.5469 34.6406 -8.3125 1.0000 1.0000 1.0000
v -31.9531 6.7109 1.7031 1.0000 1.0000 1.0000
v -22.0625 6.7109 24.0000 1.0000 1.0000 1.0000
v -7.5469 34.6406 -8.3125 1.0000 1.0000 1.0000
v 8.3984 25.4922 3.1562 1.0000 1.0000 1.0000
v -6.2891 6.7109 13.3281 1.0000 1.0000 1.0000
v 6.1875 6.7109 26.8438 1.0000 1.0000 1.0000
v 21.2734 30.8750 -7.8828 1.0000 1.0000 1.0000
v 8.3984 25.4922 3.1562 1.0000 1.0000 1.0000
v 6.1875 6.7109 26.8438 1.0000 1.0000 1.0000
v 23.5625 18.5703 -0.5703 1.0000 1.0000 1.0000
v 6.1875 6.7109 26.8438 1.0000 1.0000 1.0000
v 26.8438 6.7109 19.3047 1.0000 1.0000 1.0000
v 36.1953 105.9609 -29.9922 1.0000 1.0000 1.0000
v 18.8594 110.5859 -23.1875 1.0000 1.0000 1.0000
v 38.4219 129.9062 -11.2031 1.0000 1.0000 1.0000
v 18.8594 110.5859 -23.1875 1.0000 1.0000 1.0000
v 18.0312 105.9766 -3.3984 1.0000 1.0000 1.0000
v 38.4219 129.9062 -11.2031 1.0000 1.0000 1.0000
v 18.0312 105.9766 -3.3984 1.0000 1.0000 1.0000
v 36.1562 99.5234 1.0391 1.0000 1.0000 1.0000
v 38.4219 129.9062 -11.2031 1.0000 1.0000 1.0000
v 36.1562 99.5234 1.0391 1.0000 1.0000 1.0000
v 46.3828 99.5078 -15.4922 1.0000 1.0000 1.0000
v 38.4219 129.9062 -11.2031 1.0000 1.0000 1.0000
v 46.3828 99.5078 -15.4922 1.0000 1.0000 1.0000
v 36.1953 105.9609 -29.9922 1.0000 1.0000 1.0000
v 38.4219 129.9062 -11.2031 1.0000 1.0000 1.0000
v 36.1953 105.9609 -29.9922 1.0000 1.0000 1.0000
v 2.8438 34.7734 -33.1406 1.0000 1.0000 1.0000
v 18.8594 110.5859 -23.1875 1.0000 1.0000 1.0000
v 36.1562 99.5234 1.0391 1.0000 1.0000 1.0000
v 21.2734 30.8750 -7.8828 1.0000 1.0000 1.0000
v 46.3828 99.5078 -15.4922 1.0000 1.0000 1.0000
v 10.9531 39.6953 1.3438 1.0000 1.0000 1.0000
v 18.0312 105.9766 -3.3984 1.0000 1.0000 1.0000
v -7.5469 34.6406 -8.3125 1.0000 1.0000 1.0000
v -0.0938 46.1562 -22.0312 1.0000 1.0000 1.0000
v -7.5469 34.6406 -8.3125 1.0000 1.0000 1.0000
v 18.8594 110.5859 -23.1875 1.0000 1.0000 1.0000
vt 1.00000 0.99414
vt 1.00000 0.17969
vt -1.00000 0.17969
vt 1.00000 0.99414
vt -1.00000 0.17969
vt -1.00000 0.99414
vt -1.00000 0.99414
vt -1.00000 0.17969
vt 1.00000 0.17969
vt -1.00000 0.99414
vt 1.00000 0.17969
vt 1.00000 0.99414
vt 1.00000 0.99414
vt 1.00000 0.17969
vt -1.00000 0.17969
vt 1.00000 0.99414
vt -1.00000 0.17969
vt -1.00000 0.99414
vt -1.00000 0.17969
vt -1.00000 0.17969
vt -0.69531 0.17969
vt -1.00000 0.17969
vt -0.69531 0.17969
vt -1.00000 0.17969
vt -1.00000 0.17969
vt -0.69531 0.17969
vt -1.00000 0.17969
vt -1.00000 0.17969
vt -1.00000 0.17969
vt -1.00000 0.17969
vt -0.69531 0.99414
vt -1.89453 0.17969
vt 0.84766 0.99414
vt -1.89453 0.17969
vt 2.89453 0.17969
vt 0.84766 0.99414
vt 1.62891 0.91992
vt 1.03125 0.83594
vt 2.89453 0.17969
vt 1.03125 0.83594
vt 0.00391 0.18359
vt 2.89453 0.17969
vt -0.69531 0.99414
vt 1.69531 0.99414
vt -1.89453 0.17969
vt 1.69531 0.99414
vt 2.89453 0.17969
vt -1.89453 0.17969
vt -1.00000 0.17969
vt -1.00000 0.99414
vt 1.00000 0.99414
vt -1.00000 0.17969
vt 1.00000 0.99414
vt 1.00000 0.17969
vt -1.00000 0.99414
vt 1.00000 0.99414
vt 1.00000 0.17969
vt -1.00000 0.99414
vt 1.00000 0.17969
vt -1.00000 0.17969
vt -1.00000 0.99414
vt 1.00000 0.99414
vt 1.00000 0.17969
vt -1.00000 0.99414
vt 1.00000 0.17969
vt -1.00000 0.17969
vt -1.00000 0.99414
vt 1.00000 0.99414
vt 1.00000 0.17969
vt -1.00000 0.99414
vt 1.00000 0.17969
vt -1.00000 0.17969
vt -1.00000 0.99414
vt 1.00000 0.99414
vt 1.00000 0.17969
vt -1.00000 0.99414
vt 1.00000 0.17969
vt -1.00000 0.17969
vt 0.84766 0.99414
vt 2.89453 0.17969
vt 1.69531 0.99414
vt 2.38672 1.02734
vt 1.62891 0.91992
vt 2.89453 0.17969
vt -1.89453 0.17969
vt 1.69531 0.99414
vt -0.69531 0.99414
vt 2.89453 0.17969
vt 1.69531 0.99414
vt -0.69531 0.99414
vt 2.89453 0.17969
vt -0.69531 0.99414
vt -1.89453 0.17969
vt 2.89453 0.17969
vt 1.69531 0.99414
vt -1.89453 0.17969
vt 2.89453 0.17969
vt 1.69531 0.99414
vt -1.89453 0.17969
vt 2.89453 0.17969
vt -0.69531 0.99414
vt -1.89453 0.17969
vt -1.89453 0.17969
vt 1.69531 0.99414
vt -0.69531 0.99414
vt 2.89453 0.17969
vt 1.91797 0.84375
vt -0.69531 0.99414
vt -1.00000 0.17969
vt -1.00000 0.17969
vt -1.00000 0.17969
vt -1.00000 0.17969
vt -1.00000 0.17969
vt -1.00000 0.17969
vt 0.51465 0.98535
vt 0.97754 0.98535
vt 0.51270 0.01465
vt 0.48828 0.01465
vt 0.01855 0.98047
vt 0.49023 0.98535
vt 0.98828 0.98340
vt 0.54785 0.01465
vt 0.98633 0.02344
vt 0.49609 0.01465
vt 0.26660 0.98340
vt 0.26562 0.33691
vt 0.02051 0.01465
vt 0.48340 0.01465
vt 0.25391 0.98340
vt 0.10547 0.94727
vt 0.10547 0.94727
vt 0.10547 0.94727
vt 0.47949 0.97559
vt 0.28906 0.00488
vt 0.45898 0.00488
vt 0.03906 0.95801
vt 0.03906 0.95801
vt 0.03906 0.95801
vt 0.03906 0.95801
vt 0.03906 0.95801
vt 0.03906 0.95801
vt 0.63184 0.12793
vt 0.63184 0.12793
vt 0.63184 0.12793
vt 0.52051 0.01465
vt 0.98438 0.01465
vt 0.75488 0.98340
vt 0.00977 0.01465
vt 0.47266 0.01465
vt 0.24316 0.98340
vt 0.51660 0.98340
vt 0.97949 0.98340
vt 0.75000 0.01465
vt 0.52051 0.01465
vt 0.98438 0.01465
vt 0.75488 0.98340
vt 0.47266 0.01465
vt 0.00977 0.01465
vt 0.25098 0.56250
vt 0.48828 0.01465
vt 0.02441 0.01465
vt 0.25391 0.98340
vt 0.10547 0.94727
vt 0.10547 0.94727
vt 0.10547 0.94727
vt 0.48828 0.01465
vt 0.02441 0.01465
vt 0.25391 0.98340
vt 0.52051 0.01465
vt 0.98438 0.01465
vt 0.75488 0.98340
vt 0.00977 0.01465
vt 0.47266 0.01465
vt 0.24316 0.98340
vt 0.52441 0.98730
vt 0.99512 0.01270
vt 0.99512 0.98730
vt 0.52051 0.01465
vt 0.98438 0.01465
vt 0.75488 0.98340
vt 0.03320 0.01465
vt 0.49609 0.01465
vt 0.26660 0.98340
vt 0.52051 0.01465
vt 0.98438 0.01465
vt 0.75488 0.98340
vt 0.04004 0.98340
vt 0.04004 0.98340
vt 0.04004 0.98340
vt 0.52051 0.01465
vt 0.98438 0.01465
vt 0.75488 0.98340
vt 0.00977 0.01465
vt 0.47266 0.01465
vt 0.24316 0.23926
vt 0.52246 0.01465
vt 0.51953 0.38867
vt 0.93848 0.49219
vt 0.52441 0.01465
vt 0.95605 0.01465
vt 0.57227 0.72754
vt 0.00977 0.01465
vt 0.47266 0.01465
vt 0.24316 0.23926
vt 0.00977 0.01465
vt 0.47266 0.01465
vt 0.24316 0.98340
vt 0.24121 0.84082
vt 0.30078 0.30664
vt 0.00977 0.84082
vt 0.51270 0.01465
vt 0.97754 0.98535
vt 0.98340 0.01953
vt 0.48828 0.01465
vt 0.02441 0.01465
vt 0.01855 0.98047
vt 0.52441 0.01270
vt 0.99512 0.01270
vt 0.52441 0.98730
vt 0.36426 0.20996
vt 0.60840 0.71191
vt 0.39648 0.79102
vt 0.61914 0.29199
vt 0.49316 0.00000
vt 0.66602 0.13184
vt 0.94727 0.27246
vt 0.94727 0.27246
vt 0.43750 0.21484
vt 0.61914 0.29199
vt 0.66602 0.13184
vt 1.00000 0.31738
vt 0.94727 0.27246
vt 0.94727 0.27246
vt 0.94727 0.27246
vt 0.94727 0.27246
vt 0.94727 0.27246
vt 0.94727 0.27246
vt 0.43750 0.21484
vt 0.94727 0.27246
vt 0.35254 0.00000
vt 0.25293 0.87988
vt 0.35547 0.33984
vt 0.38379 0.36816
vt 0.38379 0.36816
vt 0.35547 0.33984
vt 0.42871 0.84668
vt 0.43750 0.21484
vt 0.61914 0.29199
vt 0.60840 0.71191
vt 0.43750 0.21484
vt 0.60840 0.71191
vt 0.36426 0.20996
vt 0.70410 0.00000
vt 0.66602 0.13184
vt 0.67676 0.00000
vt 0.00000 0.00000
vt 0.03711 0.00000
vt 0.25293 0.87988
vt 0.38379 0.36816
vt 0.18164 0.00000
vt 0.25293 0.87988
vt 0.22949 0.21484
vt 0.35547 0.33984
vt 0.25293 0.87988
vt 0.03711 0.00000
vt 0.22949 0.21484
vt 0.25293 0.87988
vt 0.18164 0.00000
vt 0.00000 0.00000
vt 0.25293 0.87988
vt 0.61914 0.29199
vt 0.62793 0.10645
vt 0.86621 0.62695
vt 0.38379 0.36816
vt 0.61914 0.29199
vt 0.86621 0.62695
vt 0.18164 0.00000
vt 0.38379 0.36816
vt 0.86621 0.62695
vt 0.66602 0.13184
vt 0.70410 0.00000
vt 1.00000 0.31738
vt 0.62793 0.10645
vt 0.61914 0.29199
vt 1.00000 0.31738
vt 0.70410 0.00000
vt 0.82910 0.00000
vt 1.00000 0.31738
vt 0.42871 0.84668
vt 0.22949 0.21484
vt 0.39648 0.79102
vt 0.13379 0.00000
vt 0.35254 0.00000
vt 0.22949 0.21484
vt 0.03711 0.00000
vt 0.13379 0.00000
vt 0.22949 0.21484
vt 0.43750 0.21484
vt 0.35254 0.00000
vt 0.49316 0.00000
vt 0.61914 0.29199
vt 0.43750 0.21484
vt 0.49316 0.00000
vt 0.66602 0.13184
vt 0.49316 0.00000
vt 0.67676 0.00000
vt 0.62207 0.79004
vt 0.42871 0.84668
vt 0.66699 1.00000
vt 0.42871 0.84668
vt 0.39648 0.79102
vt 0.66699 1.00000
vt 0.39648 0.79102
vt 0.60840 0.71191
vt 0.66699 1.00000
vt 0.60840 0.71191
vt 0.74805 0.71191
vt 0.66699 1.00000
vt 0.74805 0.71191
vt 0.62207 0.79004
vt 0.66699 1.00000
vt 0.62207 0.79004
vt 0.38379 0.36816
vt 0.42871 0.84668
vt 0.60840 0.71191
vt 0.61914 0.29199
vt 0.74805 0.71191
vt 0.36426 0.20996
vt 0.39648 0.79102
vt 0.22949 0.21484
vt 0.35547 0.33984
vt 0.22949 0.21484
vt 0.42871 0.84668
usemtl material2
f 1/1 2/2 3/3
f 4/4 5/5 6/6
f 7/7 8/8 9/9
f 10/10 11/11 12/12
f 13/13 14/14 15/15
f 16/16 17/17 18/18
f 19/19 20/20 21/21
f 22/22 23/23 24/24
f 25/25 26/26 27/27
f 28/28 29/29 30/30
f 31/31 32/32 33/33
f 34/34 35/35 36/36
f 37/37 38/38 39/39
f 40/40 41/41 42/42
f 43/43 44/44 45/45
f 46/46 47/47 48/48
f 49/49 50/50 51/51
f 52/52 53/53 54/54
f 55/55 56/56 57/57
f 58/58 59/59 60/60
f 61/61 62/62 63/63
f 64/64 65/65 66/66
f 67/67 68/68 69/69
f 70/70 71/71 72/72
f 73/73 74/74 75/75
f 76/76 77/77 78/78
f 79/79 80/80 81/81
f 82/82 83/83 84/84
f 85/85 86/86 87/87
f 88/88 89/89 90/90
f 91/91 92/92 93/93
f 94/94 95/95 96/96
f 97/97 98/98 99/99
f 100/100 101/101 102/102
f 103/103 104/104 105/105
f 106/106 107/107 108/108
f 109/109 110/110 111/111
f 112/112 113/113 114/114
usemtl material1
f 115/115 116/116 117/117
f 118/118 119/119 120/120
f 121/121 122/122 123/123
f 124/124 125/125 126/126
f 127/127 128/128 129/129
f 130/130 131/131 132/132
f 133/133 134/134 135/135
f 136/136 137/137 138/138
f 139/139 140/140 141/141
f 142/142 143/143 144/144
f 145/145 146/146 147/147
f 148/148 149/149 150/150
f 151/151 152/152 153/153
f 154/154 155/155 156/156
f 157/157 158/158 159/159
f 160/160 161/161 162/162
f 163/163 164/164 165/165
f 166/166 167/167 168/168
f 169/169 170/170 171/171
f 172/172 173/173 174/174
f 175/175 176/176 177/177
f 178/178 179/179 180/180
f 181/181 182/182 183/183
f 184/184 185/185 186/186
f 187/187 188/188 189/189
f 190/190 191/191 192/192
f 193/193 194/194 195/195
f 196/196 197/197 198/198
f 199/199 200/200 201/201
f 202/202 203/203 204/204
f 205/205 206/206 207/207
f 208/208 209/209 210/210
f 211/211 212/212 213/213
f 214/214 215/215 216/216
f 217/217 218/218 219/219
usemtl material0
f 220/220 221/221 222/222
f 223/223 224/224 225/225
f 226/226 227/227 228/228
f 229/229 230/230 231/231
f 232/232 233/233 234/234
f 235/235 236/236 237/237
f 238/238 239/239 240/240
f 241/241 242/242 243/243
f 244/244 245/245 246/246
f 247/247 248/248 249/249
f 250/250 251/251 252/252
f 253/253 254/254 255/255
f 256/256 257/257 258/258
f 259/259 260/260 261/261
f 262/262 263/263 264/264
f 265/265 266/266 267/267
f 268/268 269/269 270/270
f 271/271 272/272 273/273
f 274/274 275/275 276/276
f 277/277 278/278 279/279
f 280/280 281/281 282/282
f 283/283 284/284 285/285
f 286/286 287/287 288/288
f 289/289 290/290 291/291
f 292/292 293/293 294/294
f 295/295 296/296 297/297
f 298/298 299/299 300/300
f 301/301 302/302 303/303
f 304/304 305/305 306/306
f 307/307 308/308 309/309
f 310/310 311/311 312/312
f 313/313 314/314 315/315
f 316/316 317/317 318/318
f 319/319 320/320 321/321
f 322/322 323/323 324/324
f 325/325 326/326 327/327
f 328/328 329/329 330/330
f 331/331 332/332 333/333
