<?xml version='1.0' encoding='utf-8'?>
<COLLADA xmlns="http://www.collada.org/2005/11/COLLADASchema" version="1.4.1">
  <asset>
    <created>2026-07-27T16:58:24Z</created>
    <modified>2026-07-27T16:58:24Z</modified>
  </asset>
  <library_images>
    <image id="image-wf_tree_a2">
      <init_from>wf_tree_a2.png</init_from>
    </image>
    <image id="image-wf_tree_k">
      <init_from>wf_tree_k.png</init_from>
    </image>
    <image id="image-wf_ment1">
      <init_from>wf_ment1.png</init_from>
    </image>
    <image id="image-wf_tree_mu">
      <init_from>wf_tree_mu.png</init_from>
    </image>
    <image id="image-wf_mgake1">
      <init_from>wf_mgake1.png</init_from>
    </image>
    <image id="image-wf_fl_mu">
      <init_from>wf_fl_mu.png</init_from>
    </image>
    <image id="image-wf_tree_a">
      <init_from>wf_tree_a.png</init_from>
    </image>
  </library_images>
  <library_materials>
    <material id="material0" name="wf_fl_mu">
      <instance_effect url="#effect0" />
    </material>
    <material id="material1" name="wf_ment1">
      <instance_effect url="#effect1" />
    </material>
    <material id="material2" name="wf_mgake1">
      <instance_effect url="#effect2" />
    </material>
    <material id="material3" name="wf_tree_a">
      <instance_effect url="#effect3" />
    </material>
    <material id="material4" name="wf_tree_a2">
      <instance_effect url="#effect4" />
    </material>
    <material id="material5" name="wf_tree_k">
      <instance_effect url="#effect5" />
    </material>
    <material id="material6" name="wf_tree_mu">
      <instance_effect url="#effect6" />
    </material>
  </library_materials>
  <library_effects>
    <effect id="effect0" name="wf_fl_mu">
      <profile_COMMON>
        <newparam sid="Image-surface">
          <surface type="2D">
            <init_from>image-wf_fl_mu</init_from>
            <format>A8R8G8B8</format>
          </surface>
        </newparam>
        <newparam sid="Image-sampler">
          <sampler2D>
            <source>Image-surface</source>
            <wrap_s>WRAP</wrap_s>
            <wrap_t>WRAP</wrap_t>
            <minfilter>NEAREST</minfilter>
            <magfilter>NEAREST</magfilter>
            <mipfilter>NEAREST</mipfilter>
          </sampler2D>
        </newparam>
        <technique sid="common">
          <phong>
            <emission>
              <color>0 0 0 1</color>
            </emission>
            <ambient>
              <color>1 1 1 1</color>
            </ambient>
            <diffuse>
              <texture texture="Image-sampler" texcoord="tc" />
            </diffuse>
            <specular>
              <color>0 0 0 1</color>
            </specular>
            <transparent>
              <texture texture="Image-sampler" texcoord="tc" />
            </transparent>
          </phong>
        </technique>
      </profile_COMMON>
    </effect>
    <effect id="effect1" name="wf_ment1">
      <profile_COMMON>
        <newparam sid="Image-surface">
          <surface type="2D">
            <init_from>image-wf_ment1</init_from>
            <format>A8R8G8B8</format>
          </surface>
        </newparam>
        <newparam sid="Image-sampler">
          <sampler2D>
            <source>Image-surface</source>
            <wrap_s>WRAP</wrap_s>
            <wrap_t>WRAP</wrap_t>
            <minfilter>NEAREST</minfilter>
            <magfilter>NEAREST</magfilter>
            <mipfilter>NEAREST</mipfilter>
          </sampler2D>
        </newparam>
        <technique sid="common">
          <phong>
            <emission>
              <color>0 0 0 1</color>
            </emission>
            <ambient>
              <color>1 1 1 1</color>
            </ambient>
            <diffuse>
              <texture texture="Image-sampler" texcoord="tc" />
            </diffuse>
            <specular>
              <color>0 0 0 1</color>
            </specular>
            <transparent>
              <texture texture="Image-sampler" texcoord="tc" />
            </transparent>
          </phong>
        </technique>
      </profile_COMMON>
    </effect>
    <effect id="effect2" name="wf_mgake1">
      <profile_COMMON>
        <newparam sid="Image-surface">
          <surface type="2D">
            <init_from>image-wf_mgake1</init_from>
            <format>A8R8G8B8</format>
          </surface>
        </newparam>
        <newparam sid="Image-sampler">
          <sampler2D>
            <source>Image-surface</source>
            <wrap_s>WRAP</wrap_s>
            <wrap_t>WRAP</wrap_t>
            <minfilter>NEAREST</minfilter>
            <magfilter>NEAREST</magfilter>
            <mipfilter>NEAREST</mipfilter>
          </sampler2D>
        </newparam>
        <technique sid="common">
          <phong>
            <emission>
              <color>0 0 0 1</color>
            </emission>
            <ambient>
              <color>1 1 1 1</color>
            </ambient>
            <diffuse>
              <texture texture="Image-sampler" texcoord="tc" />
            </diffuse>
            <specular>
              <color>0 0 0 1</color>
            </specular>
          </phong>
        </technique>
      </profile_COMMON>
    </effect>
    <effect id="effect3" name="wf_tree_a">
      <profile_COMMON>
        <newparam sid="Image-surface">
          <surface type="2D">
            <init_from>image-wf_tree_a</init_from>
            <format>A8R8G8B8</format>
          </surface>
        </newparam>
        <newparam sid="Image-sampler">
          <sampler2D>
            <source>Image-surface</source>
            <wrap_s>WRAP</wrap_s>
            <wrap_t>WRAP</wrap_t>
            <minfilter>NEAREST</minfilter>
            <magfilter>NEAREST</magfilter>
            <mipfilter>NEAREST</mipfilter>
          </sampler2D>
        </newparam>
        <technique sid="common">
          <phong>
            <emission>
              <color>0 0 0 1</color>
            </emission>
            <ambient>
              <color>0.61290324 0.61290324 0.61290324 1</color>
            </ambient>
            <diffuse>
              <texture texture="Image-sampler" texcoord="tc" />
            </diffuse>
            <specular>
              <color>0 0 0 1</color>
            </specular>
          </phong>
        </technique>
      </profile_COMMON>
    </effect>
    <effect id="effect4" name="wf_tree_a2">
      <profile_COMMON>
        <newparam sid="Image-surface">
          <surface type="2D">
            <init_from>image-wf_tree_a2</init_from>
            <format>A8R8G8B8</format>
          </surface>
        </newparam>
        <newparam sid="Image-sampler">
          <sampler2D>
            <source>Image-surface</source>
            <wrap_s>WRAP</wrap_s>
            <wrap_t>CLAMP</wrap_t>
            <minfilter>NEAREST</minfilter>
            <magfilter>NEAREST</magfilter>
            <mipfilter>NEAREST</mipfilter>
          </sampler2D>
        </newparam>
        <technique sid="common">
          <phong>
            <emission>
              <color>0 0 0 1</color>
            </emission>
            <ambient>
              <color>0.61290324 0.61290324 0.61290324 1</color>
            </ambient>
            <diffuse>
              <texture texture="Image-sampler" texcoord="tc" />
            </diffuse>
            <specular>
              <color>0 0 0 1</color>
            </specular>
          </phong>
        </technique>
      </profile_COMMON>
    </effect>
    <effect id="effect5" name="wf_tree_k">
      <profile_COMMON>
        <newparam sid="Image-surface">
          <surface type="2D">
            <init_from>image-wf_tree_k</init_from>
            <format>A8R8G8B8</format>
          </surface>
        </newparam>
        <newparam sid="Image-sampler">
          <sampler2D>
            <source>Image-surface</source>
            <wrap_s>WRAP</wrap_s>
            <wrap_t>CLAMP</wrap_t>
            <minfilter>NEAREST</minfilter>
            <magfilter>NEAREST</magfilter>
            <mipfilter>NEAREST</mipfilter>
          </sampler2D>
        </newparam>
        <technique sid="common">
          <phong>
            <emission>
              <color>0 0 0 1</color>
            </emission>
            <ambient>
              <color>1 1 1 1</color>
            </ambient>
            <diffuse>
              <texture texture="Image-sampler" texcoord="tc" />
            </diffuse>
            <specular>
              <color>0 0 0 1</color>
            </specular>
            <transparent>
              <texture texture="Image-sampler" texcoord="tc" />
            </transparent>
          </phong>
        </technique>
      </profile_COMMON>
    </effect>
    <effect id="effect6" name="wf_tree_mu">
      <profile_COMMON>
        <newparam sid="Image-surface">
          <surface type="2D">
            <init_from>image-wf_tree_mu</init_from>
            <format>A8R8G8B8</format>
          </surface>
        </newparam>
        <newparam sid="Image-sampler">
          <sampler2D>
            <source>Image-surface</source>
            <wrap_s>WRAP</wrap_s>
            <wrap_t>CLAMP</wrap_t>
            <minfilter>NEAREST</minfilter>
            <magfilter>NEAREST</magfilter>
            <mipfilter>NEAREST</mipfilter>
          </sampler2D>
        </newparam>
        <technique sid="common">
          <phong>
            <emission>
              <color>0 0 0 1</color>
            </emission>
            <ambient>
              <color>0.8064516 0.8064516 0.8064516 1</color>
            </ambient>
            <diffuse>
              <texture texture="Image-sampler" texcoord="tc" />
            </diffuse>
            <specular>
              <color>0 0 0 1</color>
            </specular>
            <transparent>
              <texture texture="Image-sampler" texcoord="tc" />
            </transparent>
          </phong>
        </technique>
      </profile_COMMON>
    </effect>
  </library_effects>
  <library_geometries>
    <geometry id="geometry" name="wf_mugen_s1">
      <mesh>
        <source id="positions">
          <float_array id="positions-array" count="2253">100.234375 161.32813 -33.3125 118.234375 161.32813 -33.3125 118.234375 170.67188 -46.6875 100.234375 170.67188 -46.6875 132.84375 162 -40.015625 148.64063 162 -40.015625 148.64063 168.3125 -55.984375 132.84375 168.3125 -55.984375 -159.23438 173.96875 -57.359375 -141.84375 174.9375 -52.109375 -138.54688 182.21875 -69.8125 -155.9375 181.26563 -75.0625 -119.59375 170.64063 -51.21875 -101.59375 170.64063 -51.21875 -101.59375 180.82813 -66.0625 -119.59375 180.82813 -66.0625 -25.90625 35.59375 -32.5 26 35.59375 -32.5 8 50 -4.5 26 33.203125 4 -34 1 -32.5 44 1 -32.5 26 35.59375 -32.5 -25.90625 35.59375 -32.5 -34 1 22 -34 1 -32.5 -25.90625 35.59375 -32.5 -25.90625 35.59375 9.5 44 1 22 44 1 -32.5 -34 1 -32.5 -34 1 22 26 33.203125 4 26 35.59375 -32.5 44 1 -32.5 44 1 22 -25.90625 35.59375 9.5 -25.90625 35.59375 -32.5 8 50 -4.5 202.65625 -2 -62.5 147.04688 -2 -62.5 147.04688 -2 52.84375 105.328125 -2 18.234375 8 -2 52.84375 -186.65625 -2 -62.5 -131.04688 -2 52.84375 -131.04688 -2 -62.5 -89.328125 -2 18.234375 147.04688 -2 52.84375 8 -2 52.84375 8 -2 98.96875 -131.04688 -2 52.84375 147.04688 -2 -62.5 202.65625 -2 -62.5 147.04688 -2 -177.84375 105.328125 -2 -143.23438 -131.04688 -2 -177.84375 -186.65625 -2 -62.5 -131.04688 -2 -62.5 -89.328125 -2 -143.23438 105.328125 -2 -143.23438 -89.328125 -2 -143.23438 -89.328125 -2 18.234375 105.328125 -2 18.234375 -89.328125 -2 18.234375 -89.328125 -2 -143.23438 -131.04688 -2 -62.5 105.328125 -2 -143.23438 105.328125 -2 18.234375 147.04688 -2 -62.5 105.328125 -2 18.234375 -89.328125 -2 18.234375 8 -2 52.84375 -131.04688 -2 52.84375 8 -2 52.84375 -89.328125 -2 18.234375 62.546875 189.20313 -121.625 90.40625 237.20313 -130.90625 63.375 189.20313 -94.796875 106.265625 237.20313 -55 74.640625 189.20313 -65.34375 -4.515625 189.20313 -8.234375 -18.203125 237.20313 25.90625 -25.484375 189.20313 -34.84375 -75.640625 237.20313 -32.859375 -48.984375 189.20313 -51.359375 32.40625 237.20313 27.515625 39.921875 189.20313 -36.796875 72.6875 237.20313 -10.8125 57.53125 189.20313 -42.828125 -42.6875 130.76563 -107.015625 -138.51563 153.96875 -93.015625 -35.046875 124.3125 -96.125 -48.640625 107.046875 -103.78125 55.953125 117.140625 -67.96875 54.40625 107.734375 -60.453125 127.484375 155.26563 -69.890625 70.140625 93.734375 -76.71875 -96.265625 237.20313 -136 -46.640625 189.20313 -125.65625 -54.15625 189.20313 -80.8125 -92.703125 237.20313 -75.53125 -92.703125 237.20313 -75.53125 -54.15625 189.20313 -80.8125 -48.984375 189.20313 -51.359375 -75.640625 237.20313 -32.859375 -4.515625 189.20313 -8.234375 21.25 189.20313 -7.421875 32.40625 237.20313 27.515625 -18.203125 237.20313 25.90625 57.53125 189.20313 -42.828125 74.640625 189.20313 -65.34375 106.265625 237.20313 -55 72.6875 237.20313 -10.8125 32.40625 237.20313 27.515625 21.25 189.20313 -7.421875 39.921875 189.20313 -36.796875 212.46875 30.796875 -384.79688 219.96875 65.453125 -386.70313 226.14063 30.796875 -299.375 234.14063 65.453125 -298.14063 193.60938 30.796875 -198.73438 200.42188 65.453125 -191.07813 110.296875 30.796875 -149.17188 114.03125 65.453125 -142.4375 68.5625 30.796875 -161.15625 70.78125 65.453125 -154.85938 -52.5625 30.796875 -161.15625 -54.78125 65.453125 -154.85938 -93.8125 30.796875 -149.17188 -97.578125 65.453125 -142.4375 -177.60938 30.796875 -198.73438 -184.42188 65.453125 -191.07813 -210.14063 30.796875 -299.375 -218.14063 65.453125 -298.14063 -196.46875 30.796875 -384.79688 -203.96875 65.453125 -386.70313 241.09375 -0.40625 -394.59375 212.46875 30.796875 -384.79688 256.6875 -0.40625 -297.20313 226.14063 30.796875 -299.375 219.59375 -0.40625 -176.51563 193.60938 30.796875 -198.73438 124.5625 -0.40625 -125.984375 110.296875 30.796875 -149.17188 77.03125 -0.40625 -139.64063 68.5625 30.796875 -161.15625 -61.03125 -0.40625 -139.65625 -52.5625 30.796875 -161.15625 -108.125 -0.40625 -125.984375 -93.8125 30.796875 -149.17188 -203.59375 -0.40625 -176.51563 -177.60938 30.796875 -198.73438 -240.6875 -0.40625 -297.21875 -210.14063 30.796875 -299.375 -225.09375 -0.40625 -394.59375 -196.46875 30.796875 -384.79688 -127.4375 244.40625 -154.85938 -124.890625 221.95313 -153.32813 -147.54688 244.40625 -67.5 -144.625 221.95313 -67.796875 -121.484375 244.40625 10.296875 -119.046875 221.95313 8.546875 -94.765625 244.40625 51.75 -94.40625 221.95313 48.140625 -47.0625 244.40625 82.328125 -46.046875 221.95313 79.359375 -10.828125 244.40625 64.078125 -10.828125 221.95313 62.21875 20.265625 244.40625 61.84375 20.40625 221.95313 59.328125 69.015625 244.40625 82.328125 67.828125 221.95313 79.359375 115.53125 244.40625 52.828125 114 221.95313 49.984375 143.4375 244.40625 10.296875 140.82813 221.95313 8.546875 163.82813 244.40625 -78.28125 160.89063 221.95313 -78.375 140.46875 244.40625 -154.85938 137.90625 221.95313 -153.32813 -110.484375 282.54688 -144.65625 -127.4375 244.40625 -154.85938 -128.09375 282.54688 -69.234375 -147.54688 244.40625 -67.5 -105.296875 282.54688 -1.03125 -121.484375 244.40625 10.296875 -83.96875 282.54688 34.328125 -94.765625 244.40625 51.75 -40.25 282.54688 62.609375 -47.0625 244.40625 82.328125 -7.484375 282.54688 45.859375 -10.828125 244.40625 64.078125 18.828125 282.54688 44.4375 20.265625 244.40625 61.84375 61.1875 282.54688 62.609375 69.015625 244.40625 82.328125 104.109375 282.54688 34.984375 115.53125 244.40625 52.828125 126.203125 282.54688 -1.03125 143.4375 244.40625 10.296875 144.375 282.54688 -78.65625 163.82813 244.40625 -78.28125 123.609375 282.54688 -144.65625 140.46875 244.40625 -154.85938 -85.3125 100.796875 -159.3125 -97.578125 65.453125 -142.4375 -47.484375 100.796875 -170.29688 -54.78125 65.453125 -154.85938 63.484375 100.796875 -170.29688 70.78125 65.453125 -154.85938 101.71875 100.796875 -159.3125 114.03125 65.453125 -142.4375 178.07813 100.796875 -202.71875 200.42188 65.453125 -191.07813 207.89063 100.796875 -296.9375 234.14063 65.453125 -298.14063 195.35938 100.796875 -375.21875 219.96875 65.453125 -386.70313 152.34375 141.28125 -121.296875 148.54688 161.26563 -115.5625 172.92188 141.28125 -76.328125 166.42188 161.26563 -76.5 150.5 141.28125 -34.203125 146.95313 161.26563 -39.921875 94.765625 141.28125 -34.15625 98.53125 161.26563 -39.890625 74.015625 141.28125 -69.75 80.515625 161.26563 -70.796875 -182.75 172 -93.75 -191.26563 147.375 -92.5 -159.14063 172 -56.65625 -164.09375 147.375 -49.78125 -95.71875 172 -56.71875 -91.0625 147.375 -49.84375 -70.203125 172 -100.609375 -61.6875 147.375 -100.390625 83.203125 132.76563 -204.6875 101.71875 100.796875 -159.3125 134.34375 132.76563 -238.98438 178.07813 100.796875 -202.71875 153.21875 132.76563 -296.96875 207.89063 100.796875 -296.9375 145.10938 132.76563 -349.4375 195.35938 100.796875 -375.21875 -179.35938 100.796875 -375.21875 -203.96875 65.453125 -386.70313 -191.89063 100.796875 -296.95313 -218.14063 65.453125 -298.14063 -162.07813 100.796875 -202.73438 -184.42188 65.453125 -191.07813 -85.3125 100.796875 -159.3125 -97.578125 65.453125 -142.4375 -85.3125 100.796875 -159.3125 -50.1875 122.8125 -210.09375 -162.07813 100.796875 -202.73438 -98.46875 122.8125 -242.25 -191.89063 100.796875 -296.95313 -121.53125 122.8125 -296.60938 -179.35938 100.796875 -375.21875 -109.359375 122.8125 -345.79688 -110.484375 282.54688 -144.65625 -128.09375 282.54688 -69.234375 -68.15625 314.53125 -124.5625 -59 323.6875 -30.53125 15.5625 340.71875 -78.796875 15.84375 319.28125 10.9375 78.28125 324.0625 -36.15625 61.1875 282.54688 62.609375 104.109375 282.54688 34.984375 -7.484375 282.54688 45.859375 15.84375 319.28125 10.9375 -40.25 282.54688 62.609375 -59 323.6875 -30.53125 -83.96875 282.54688 34.328125 -105.296875 282.54688 -1.03125 15.5625 340.71875 -78.796875 78.28125 324.0625 -36.15625 78.28125 314.53125 -124.5625 144.375 282.54688 -78.65625 123.609375 282.54688 -144.65625 61.1875 282.54688 62.609375 15.84375 319.28125 10.9375 18.828125 282.54688 44.4375 -7.484375 282.54688 45.859375 144.375 282.54688 -78.65625 78.28125 324.0625 -36.15625 126.203125 282.54688 -1.03125 104.109375 282.54688 34.984375 -155.04688 172 -144.21875 -159.35938 147.375 -150.59375 -191.26563 147.375 -92.5 -182.75 172 -93.75 -50.1875 122.8125 -210.09375 -85.3125 100.796875 -159.3125 -47.484375 100.796875 -170.29688 80.515625 161.26563 -70.796875 98.53125 161.26563 -39.890625 122.796875 169.96875 -70.796875 -127.359375 182.73438 -93.75 -159.14063 172 -56.65625 -95.71875 172 -56.71875 63.484375 100.796875 -170.29688 101.71875 100.796875 -159.3125 83.203125 132.76563 -204.6875 166.42188 161.26563 -76.5 148.54688 161.26563 -115.5625 122.796875 169.96875 -70.796875 122.796875 169.96875 -70.796875 98.53125 161.26563 -39.890625 146.95313 161.26563 -39.921875 -182.75 172 -93.75 -127.359375 182.73438 -93.75 -155.04688 172 -144.21875 166.42188 161.26563 -76.5 122.796875 169.96875 -70.796875 146.95313 161.26563 -39.921875 -182.75 172 -93.75 -159.14063 172 -56.65625 -127.359375 182.73438 -93.75 -70.203125 172 -100.609375 -127.359375 182.73438 -93.75 -95.71875 172 -56.71875 -105.296875 282.54688 -1.03125 -59 323.6875 -30.53125 -128.09375 282.54688 -69.234375 -107.0625 84.484375 -53.09375 -104.90625 80.765625 -48.40625 -83.140625 106.921875 -58.21875 -78.15625 99.96875 -50.3125 -61.828125 119.03125 -33.96875 -52.96875 108.71875 -21.859375 -40.0625 143.76563 5.328125 -27.359375 131.375 12.125 -1.5625 166.79688 19.921875 14.65625 154.0625 21.140625 37.953125 188.76563 8.4375 50.171875 178.39063 -0.703125 60.5 215.15625 -21.203125 66.640625 207.09375 -35.75 -54.15625 189.20313 -80.8125 -48.796875 95.59375 -77.984375 -48.984375 189.20313 -51.359375 -44.0625 95.59375 -50.984375 -25.484375 189.20313 -34.84375 -24.15625 99.734375 -29.859375 -4.515625 189.20313 -8.234375 -3.09375 112.046875 -11.171875 21.25 189.20313 -7.421875 20.921875 126.34375 -9.921875 39.921875 189.20313 -36.796875 38.140625 95.59375 -38.40625 -155.34375 10 -119.5 -154.875 -3.953125 -117.9375 -132.9375 17.09375 -109.078125 -126.9375 -6.5 -108.484375 -112.359375 17.46875 -89.609375 -111.796875 -2.53125 -87.421875 -90.046875 25.1875 -71 -92.09375 -1.421875 -73.21875 -66.40625 35.3125 -49.984375 -79 -3 -50 -117.21875 21.1875 -12.65625 -87.359375 41.484375 -16.71875 -114.375 23.234375 -3.90625 -80.15625 45.109375 -1.21875 -121.625 26.078125 -3.328125 -92.96875 50.25 1.296875 -129.03125 25.78125 -11.765625 -108.359375 56.640625 -12.703125 -126.28125 22.75 -17.546875 -104.8125 44.390625 -23.953125 -66.40625 35.3125 -49.984375 -61.1875 61.671875 -83.03125 -90.046875 25.1875 -71 -95.40625 42.296875 -89.296875 -112.359375 17.46875 -89.609375 -110.234375 26.28125 -113.359375 -132.9375 17.09375 -109.078125 -130.85938 22.65625 -124.15625 -155.34375 10 -119.5 -153.76563 10.71875 -129.53125 -87.359375 41.484375 -16.71875 -36.109375 58.046875 -20.5 -80.15625 45.109375 -1.21875 -23.015625 60.625 1.28125 -92.96875 50.25 1.296875 -45.734375 70.640625 3.921875 -108.359375 56.640625 -12.703125 -65.5 76.953125 -10.984375 -104.8125 44.390625 -23.953125 -62.5 50 -36 -104.90625 80.765625 -48.40625 -99.265625 77.53125 -52.90625 -78.15625 99.96875 -50.3125 -68.859375 94.484375 -59.875 -52.96875 108.71875 -21.859375 -40.953125 101.3125 -37.53125 -27.359375 131.375 12.125 -15.8125 123.65625 -11.84375 14.65625 154.0625 21.140625 20.296875 147.14063 -5.5625 -37.328125 144.23438 -24.140625 -40.0625 143.76563 5.328125 -8.34375 168.28125 -8.890625 -1.5625 166.79688 19.921875 22.5625 193.20313 -6.78125 37.953125 188.76563 8.4375 43.125 220.6875 -22.5625 60.5 215.15625 -21.203125 64.828125 108.953125 -110.703125 56.09375 127.09375 -96.3125 107.15625 72.625 -68.875 94.71875 85.890625 -60.140625 119.84375 57.34375 -16.359375 110.15625 66.09375 -11.03125 108.09375 31.234375 15.6875 102.140625 35.8125 18.25 83.953125 36.21875 -62.703125 79.140625 -2.796875 -81.15625 117.25 13.4375 -84.484375 108.359375 -2.796875 -90.765625 146.20313 19.25 -102.21875 141.26563 7.890625 -112.296875 158.48438 0.65625 -128.23438 157.98438 -6.40625 -134.53125 83.953125 36.21875 -62.703125 71.859375 47.796875 -25.609375 92.6875 21.203125 -48.796875 83.359375 23.09375 -33.578125 114.421875 12.125 -40.640625 106.953125 9.03125 -23.0625 140.65625 12.5625 -31.3125 141.42188 11.015625 -21.671875 34.875 -0.40625 18.75 38.109375 -2.796875 29.75 44.5 22.734375 20.75 45.953125 17.78125 36 65.0625 24.328125 2.640625 58.4375 19.4375 34.140625 66.5625 -6.734375 -11.90625 67.84375 -2.796875 24.265625 57.53125 189.20313 -42.828125 54.34375 95.59375 -43.921875 74.640625 189.20313 -65.34375 70.015625 95.59375 -64.546875 63.375 189.20313 -94.796875 59.1875 95.59375 -91.546875 62.546875 189.20313 -121.625 62.546875 95.59375 -116.703125 -42.015625 95.59375 -126.453125 -71.671875 56.859375 -128.29688 -48.796875 95.59375 -77.984375 -61.1875 61.671875 -83.03125 -44.0625 95.59375 -50.984375 -57.859375 50 -36 -24.15625 99.734375 -29.859375 -34.765625 61.671875 -23.375 -23.015625 60.625 1.28125 20.78125 95.59375 -10.953125 -45.734375 70.640625 3.921875 -11.03125 95.59375 1.78125 -65.5 76.953125 -10.984375 -24.15625 99.734375 -29.859375 -62.5 50 -36 -34.484375 85.21875 -45.828125 45.421875 64.5625 -31.5 59.34375 74.765625 -38.5625 38.140625 95.59375 -38.40625 54.34375 95.59375 -43.921875 39.921875 189.20313 -36.796875 57.53125 189.20313 -42.828125 70.015625 95.59375 -64.546875 83.953125 36.21875 -62.703125 59.1875 95.59375 -91.546875 75.328125 49.3125 -98.859375 62.546875 95.59375 -116.703125 71.1875 61.671875 -120 -22.625 -2.796875 45.265625 -12.75 -0.40625 17.625 -31.28125 9.203125 54.03125 -23.3125 21.40625 27.734375 -40.5 9.34375 50.328125 -37.328125 20.25 23.421875 -79 -3 -50 -96.4375 -5.1875 -17.8125 -81.703125 22 -24.875 -97.75 6.5625 -7.78125 -66.234375 16.71875 -8.625 -86.5625 4.203125 3.03125 95.984375 26.296875 10.984375 94.6875 32.734375 15.328125 95.65625 50.796875 -25.421875 95.234375 61.9375 -16.65625 69.3125 66.9375 -82.484375 71.34375 82.125 -68.609375 62.28125 -2.796875 47.53125 67.84375 -2.796875 24.265625 54.578125 7.78125 53.640625 58.4375 19.4375 34.140625 44.53125 8.46875 56.953125 45.953125 17.78125 36 155.85938 6.84375 -132.79688 153.71875 3.65625 -141.92188 140.78125 26.109375 -111.65625 138.25 22.671875 -127.5625 110.09375 33 -102.40625 106.765625 29 -121.875 158.48438 0.65625 -128.23438 155.85938 6.84375 -132.79688 146.20313 19.25 -102.21875 140.78125 26.109375 -111.65625 117.25 13.4375 -84.484375 110.09375 33 -102.40625 -152.29688 0.109375 -141.75 -153.76563 10.71875 -129.53125 -123.53125 2.46875 -139.29688 -130.85938 22.65625 -124.15625 -101.015625 12.953125 -128.14063 -110.234375 26.28125 -113.359375 94.6875 32.734375 15.328125 102.140625 35.8125 18.25 95.234375 61.9375 -16.65625 110.15625 66.09375 -11.03125 71.34375 82.125 -68.609375 94.71875 85.890625 -60.140625 140.65625 12.5625 -31.3125 136.125 -1.828125 -42.328125 114.421875 12.125 -40.640625 116.859375 -2.796875 -54.25 92.6875 21.203125 -48.796875 79.140625 -2.796875 -81.15625 137.35938 -1.828125 -21.3125 141.42188 11.015625 -21.671875 104.703125 -2.796875 -15.875 106.953125 9.03125 -23.0625 70.890625 -2.796875 -27.671875 83.359375 23.09375 -33.578125 -5.4375 54.015625 10.421875 7.125 43.4375 8.3125 20.78125 95.59375 -10.953125 27.421875 72.0625 -5.390625 38.140625 95.59375 -38.40625 45.421875 64.5625 -31.5 -102.75 83.546875 -60.53125 -107.0625 84.484375 -53.09375 -76.953125 105.765625 -72.859375 -83.140625 106.921875 -58.21875 -55.296875 118.15625 -54.78125 -61.828125 119.03125 -33.96875 -43.34375 -3 -5.890625 -41.453125 43.09375 -17.78125 -49.25 -2.796875 -18.1875 -66.234375 16.71875 -8.625 -78.1875 -2.796875 -0.15625 -86.5625 4.203125 3.03125 -113.171875 -3.015625 19.109375 66.5625 -6.734375 -11.90625 65 2 -22 65.0625 24.328125 2.640625 60.40625 41.578125 -21.640625 59.03125 47.765625 -13.5 45.421875 64.5625 -31.5 27.421875 72.0625 -5.390625 54.296875 207.54688 -49.203125 66.640625 207.09375 -35.75 44.90625 175.96875 -22.6875 50.171875 178.39063 -0.703125 20.296875 147.14063 -5.5625 14.65625 154.0625 21.140625 -101.015625 12.953125 -128.14063 -110.234375 26.28125 -113.359375 -85 40.4375 -127 -95.40625 42.296875 -89.296875 -71.671875 56.859375 -128.29688 -61.1875 61.671875 -83.03125 45.953125 17.78125 36 38.109375 -2.796875 29.75 44.53125 8.46875 56.953125 44.1875 -2.796875 52.90625 63.265625 -2 76 -154.875 -3.953125 -117.9375 -155.34375 10 -119.5 -173.82813 -15.984375 -129.84375 -153.76563 10.71875 -129.53125 -152.29688 0.109375 -141.75 106.765625 29 -121.875 71.1875 61.671875 -120 110.09375 33 -102.40625 75.328125 49.3125 -98.859375 83.953125 36.21875 -62.703125 153.71875 3.65625 -141.92188 155.85938 6.84375 -132.79688 180 5 -131.26563 158.48438 0.65625 -128.23438 157.98438 -6.40625 -134.53125 136.125 -1.828125 -42.328125 140.65625 12.5625 -31.3125 178.4375 -6.6875 -36 141.42188 11.015625 -21.671875 137.35938 -1.828125 -21.3125 -117.21875 21.1875 -12.65625 -114.375 23.234375 -3.90625 -143.39063 7.046875 22.046875 -121.625 26.078125 -3.328125 -129.03125 25.78125 -11.765625 -102.75 83.546875 -60.53125 -140.73438 70.078125 -54.125 -107.0625 84.484375 -53.09375 -104.90625 80.765625 -48.40625 -43.34375 -3 -5.890625 -44.15625 -2 39.1875 -37.328125 20.25 23.421875 -40.5 9.34375 50.328125 59.34375 74.765625 -38.5625 71.859375 47.796875 -25.609375 70.015625 95.59375 -64.546875 83.953125 36.21875 -62.703125 -55.296875 118.15625 -54.78125 -61.828125 119.03125 -33.96875 -37.328125 144.23438 -24.140625 -40.0625 143.76563 5.328125 60.40625 41.578125 -21.640625 65 2 -22 71.859375 47.796875 -25.609375 83.359375 23.09375 -33.578125 -57.859375 50 -36 -66.40625 35.3125 -49.984375 -81.703125 22 -24.875 -79 -3 -50 108.09375 31.234375 15.6875 102.140625 35.8125 18.25 117.4375 -1.296875 46.296875 94.6875 32.734375 15.328125 -24.15625 99.734375 -29.859375 -11.03125 95.59375 1.78125 -3.09375 112.046875 -11.171875 20.921875 126.34375 -9.921875 -5.4375 54.015625 10.421875 -23.3125 21.40625 27.734375 7.125 43.4375 8.3125 -4.75 24.578125 12 62.28125 -2.796875 47.53125 54.578125 7.78125 53.640625 63.265625 -2 76 44.53125 8.46875 56.953125 -41.453125 43.09375 -17.78125 -43.34375 -3 -5.890625 -19.21875 58.859375 -1 -37.328125 20.25 23.421875 36.109375 50 7 22.984375 31.921875 4.671875 44.5 22.734375 20.75 34.875 -0.40625 18.75 7.125 43.4375 8.3125 22.984375 31.921875 4.671875 36.109375 50 7 27.421875 72.0625 -5.390625 -46.640625 189.20313 -125.65625 -42.015625 95.59375 -126.453125 -48.796875 95.59375 -77.984375 -54.15625 189.20313 -80.8125 -15.8125 123.65625 -11.84375 -40.953125 101.3125 -37.53125 -42.15625 107.09375 -58.015625 -16.765625 128.28125 -33.59375 -97.75 6.5625 -7.78125 -118.828125 -2.203125 12.890625 -113.171875 -3.015625 19.109375 -86.5625 4.203125 3.03125 45.421875 64.5625 -31.5 60.40625 41.578125 -21.640625 71.859375 47.796875 -25.609375 59.34375 74.765625 -38.5625 -40.5 9.34375 50.328125 -50.0625 -2 66.53125 -43.578125 -2 69.171875 -31.28125 9.203125 54.03125 36.109375 50 7 44.5 22.734375 20.75 65.0625 24.328125 2.640625 59.03125 47.765625 -13.5 -34.765625 61.671875 -23.375 -41.453125 43.09375 -17.78125 -19.21875 58.859375 -1 -2.828125 95.59375 -11.703125 -19.21875 58.859375 -1 -37.328125 20.25 23.421875 -23.3125 21.40625 27.734375 -5.4375 54.015625 10.421875 -57.859375 50 -36 -81.703125 22 -24.875 -66.234375 16.71875 -8.625 -41.453125 43.09375 -17.78125 -104.90625 80.765625 -48.40625 -140.73438 70.078125 -54.125 -99.265625 77.53125 -52.90625 56.09375 127.09375 -96.3125 71.34375 82.125 -68.609375 94.71875 85.890625 -60.140625 -34.765625 61.671875 -23.375 -57.859375 50 -36 -41.453125 43.09375 -17.78125 83.953125 36.21875 -62.703125 92.6875 21.203125 -48.796875 79.140625 -2.796875 -81.15625 -2.828125 95.59375 -11.703125 -5.4375 54.015625 10.421875 20.78125 95.59375 -10.953125 -11.03125 95.59375 1.78125 20.78125 95.59375 -10.953125 20.921875 126.34375 -9.921875 -96.4375 -5.1875 -17.8125 -118.828125 -2.203125 12.890625 -97.75 6.5625 -7.78125 -126.28125 22.75 -17.546875 -143.39063 7.046875 22.046875 -129.03125 25.78125 -11.765625 38.140625 95.59375 -38.40625 20.921875 126.34375 -9.921875 20.78125 95.59375 -10.953125 -44.15625 -2 39.1875 -50.0625 -2 66.53125 -40.5 9.34375 50.328125 65 2 -22 70.890625 -2.796875 -27.671875 83.359375 23.09375 -33.578125 -31.28125 9.203125 54.03125 -43.578125 -2 69.171875 -22.625 -2.796875 45.265625 -61.1875 61.671875 -83.03125 -66.40625 35.3125 -49.984375 -57.859375 50 -36 95.984375 26.296875 10.984375 117.4375 -1.296875 46.296875 94.6875 32.734375 15.328125 -4.75 24.578125 12 -23.3125 21.40625 27.734375 -12.75 -0.40625 17.625 70.015625 95.59375 -64.546875 54.34375 95.59375 -43.921875 59.34375 74.765625 -38.5625 83.953125 36.21875 -62.703125 117.25 13.4375 -84.484375 110.09375 33 -102.40625 27.421875 72.0625 -5.390625 36.109375 50 7 59.03125 47.765625 -13.5 -2.828125 95.59375 -11.703125 -19.21875 58.859375 -1 -5.4375 54.015625 10.421875 </float_array>
          <technique_common>
            <accessor source="#positions-array" count="751" stride="3">
              <param name="X" type="float" />
              <param name="Y" type="float" />
              <param name="Z" type="float" />
            </accessor>
          </technique_common>
        </source>
        <source id="texcoords">
          <float_array id="texcoords-array" count="1502">0 0 1 0 1 1 0 1 0 0 1 0 1 1 0 1 0 0 1 0 1 1 0 1 0 0 1 0 1 1 0 1 0.8496094 0.9003906 1.0820313 0.8496094 0.92578125 0.7636719 1.3496094 0.71484375 0.7675781 0.69921875 1.2597656 0.69921875 1.0742188 0.9140625 0.8496094 0.9003906 1.0292969 2.0039063 1.0292969 2.9921875 1 2.9921875 1 2.0039063 1.0019531 2.0039063 1.0019531 2.9921875 0.001953125 2.9921875 0.001953125 2.0039063 1.0292969 2.0039063 1.0292969 2.9921875 1 2.9921875 1 2.0039063 0.5859375 0.7011719 0.7714844 0.8496094 0.92578125 0.7636719 -3 1 -3 0 -6 1 -6 0 -2.9882813 0 -3 1 0 1 -3 0 0 0 -6 1 -2.9882813 0 -2.9921875 1 0 1 -3 0 -3 1 0 1 0 0 -6 1 -3 1 -3 0 -6 0 -0.390625 0.109375 -0.390625 0.109375 -0.390625 0.109375 -0.390625 0.109375 -0.390625 0.109375 -0.390625 0.109375 -0.390625 0.109375 -0.390625 0.109375 -0.390625 0.109375 -0.390625 0.109375 -0.390625 0.109375 -0.390625 0.109375 -0.390625 0.109375 0 1 -2.9882813 0 0 0 2.5 0.01953125 2.0605469 0.98046875 1.75 0.01953125 1 0.98046875 1 0.01953125 -1 0.01953125 -1 0.98046875 -1.75 0.01953125 -2.5 0.98046875 -2.5 0.01953125 -0.25 0.98046875 -0.5 0.01953125 0.25 0.98046875 0.25 0.01953125 -1.7841797 0.01953125 -1.1367188 0.98046875 -1.2685547 0.01953125 -0.33007813 0.01953125 -1.7304688 0.01953125 -1.2148438 0.01953125 -1.1367188 0.98046875 -0.62109375 0.01953125 1 0.98046875 1 0.01953125 1.75 0.01953125 1.75 0.98046875 -3.25 0.98046875 -3.25 0.01953125 -2.5 0.01953125 -2.5 0.98046875 -1 0.01953125 -0.25 0.01953125 -0.25 0.98046875 -1 0.98046875 0.25 0.01953125 1 0.01953125 1 0.98046875 0.25 0.98046875 -0.25 0.98046875 -0.25 0.01953125 0.49121094 0.01953125 2.1445313 -1.3105469 2.1445313 -1 2.4941406 -1.3105469 2.4941406 -1 1.7988281 -1.3105469 1.7988281 -1 1.1884766 -1.3105469 1.1884766 -1 0.90527344 -1.3105469 0.90722656 -1 0.09277344 -1.3105469 0.09277344 -1 -0.18457031 -1.3105469 -0.18457031 -1 -0.796875 -1.3105469 -0.796875 -1 -1.4892578 -1.3105469 -1.4892578 -1 -1.140625 -1.3105469 -1.140625 -1 2.1445313 -2 2.1445313 -1.3105469 2.4941406 -2 2.4941406 -1.3105469 1.7988281 -2 1.7988281 -1.3105469 1.1884766 -2 1.1884766 -1.3105469 0.90625 -2 0.90527344 -1.3105469 0.09277344 -2 0.09277344 -1.3105469 -0.18457031 -2 -0.18457031 -1.3105469 -0.796875 -2 -0.796875 -1.3105469 -1.4892578 -2 -1.4892578 -1.3105469 -1.140625 -2 -1.140625 -1.3105469 -6 0.0859375 -6 0 -5 0.0859375 -5 0 -4.2441406 0.0859375 -4.2441406 0 -3.8320313 0.0859375 -3.8320313 0 -3 0.0859375 -3 0 -2.2871094 0.0859375 -2.2871094 0 -1.7792969 0.0859375 -1.7734375 0 -0.81640625 0.0859375 -0.81640625 0 0.0390625 0.0859375 0.0390625 0 0.5292969 0.0859375 0.5292969 0 1.3125 0.0859375 1.3125 0 2.2441406 0.0859375 2.2441406 0 -6 0.265625 -6 0.0859375 -5 0.265625 -5 0.0859375 -4.2441406 0.265625 -4.2441406 0.0859375 -3.8320313 0.265625 -3.8320313 0.0859375 -3 0.265625 -3 0.0859375 -2.2871094 0.265625 -2.2871094 0.0859375 -1.7753906 0.265625 -1.7792969 0.0859375 -0.81640625 0.265625 -0.81640625 0.0859375 0.0390625 0.265625 0.0390625 0.0859375 0.5292969 0.265625 0.5292969 0.0859375 1.3125 0.265625 1.3125 0.0859375 2.2441406 0.265625 2.2441406 0.0859375 0 0.4189453 0 0.109375 0.25 0.4189453 0.25 0.109375 1.25 0.4189453 1.25 0.109375 1.6679688 0.4189453 1.6679688 0.109375 2.5 0.4189453 2.5 0.109375 3.5 0.4189453 3.5 0.109375 3 0.4189453 3 0.109375 1.8378906 0 1.8378906 0.234375 0.41992188 0 0.41992188 0.234375 -1 0 -1 0.234375 -2.4199219 0 -2.4199219 0.234375 -3.1289063 0 -3.1289063 0.234375 -3.1289063 0.234375 -3.1289063 0 -2.4199219 0.234375 -2.4199219 0 -1 0.234375 -1 0 0.41992188 0.234375 0.41992188 0 1.6679688 0.83203125 1.6679688 0.4189453 2.5 0.83203125 2.5 0.4189453 3.5 0.83203125 3.5 0.4189453 3 0.83203125 3 0.4189453 -1.5 0.4189453 -1.5 0.109375 -1.9960938 0.4189453 -1.9960938 0.109375 -1 0.4189453 -1 0.109375 0 0.4189453 0 0.109375 0 0.4189453 0 0.83203125 -1 0.4189453 -1 0.83203125 -1.9960938 0.4189453 -1.9960938 0.83203125 -1.5 0.4189453 -1.5 0.83203125 -6 0.265625 -5 0.265625 -6 0.796875 -4 0.796875 -1 1 -2 0.796875 0 0.796875 -0.81640625 0.265625 0.0390625 0.265625 -2.2871094 0.265625 -2 0.796875 -3 0.265625 -4 0.796875 -3.8320313 0.265625 -4.2441406 0.265625 -1 1 0 0.796875 2 0.796875 1.3125 0.265625 2.2441406 0.265625 -0.81640625 0.265625 -2 0.796875 -1.7753906 0.265625 -2.2871094 0.265625 1.3125 0.265625 0 0.796875 0.5292969 0.265625 0.0390625 0.265625 -5.2578125 0.234375 -5.2578125 0 -4.1933594 0 -4.1933594 0.234375 0 0.83203125 0 0.4189453 0.25 0.4189453 -3.1289063 0.234375 -2.4199219 0.234375 -2.75 1 -1.75 1 -2.4199219 0.234375 -1 0.234375 1.25 0.4189453 1.6679688 0.4189453 1.6679688 0.83203125 0.41992188 0.234375 1.8378906 0.234375 1 1 -1.75 1 -2.4199219 0.234375 -1 0.234375 -3.1289063 0.234375 -4.25 1 -5.2578125 0.234375 0.41992188 0.234375 -0.25 1 -1 0.234375 -3.1289063 0.234375 -2.4199219 0.234375 -2.75 1 0.41992188 0.234375 -0.25 1 -1 0.234375 -4.2441406 0.265625 -4 0.796875 -5 0.265625 2.758789 3.5253906 2.8291016 3.4550781 2.4404297 3.1367188 2.5820313 2.9941406 2.1220703 2.7480469 2.334961 2.5351563 1.8037109 2.359375 2.086914 2.0761719 1.4863281 1.96875 1.8398438 1.6152344 1.1679688 1.5800781 1.5917969 1.15625 0.8496094 1.1914063 1.3447266 0.6972656 -3.25 0 -3.25 -3.0292969 -2.5 0 -2.5 -3.0292969 -1.75 0 -1.75 -3.0292969 -1 0 -1 -2.5605469 -0.25 0 -0.25 -2.1503906 0.49609375 0 0.5 -3.0292969 0.41601563 1.2402344 0.37890625 1.3457031 0.8886719 1.5839844 0.8144531 1.7949219 1.3613281 1.9277344 1.25 2.2441406 1.8339844 2.2714844 1.6855469 2.6933594 2.3066406 2.6152344 2.1210938 3.1425781 1.0478516 0.9765625 1.2646484 1.6289063 1.1347656 0.890625 1.4384766 1.4550781 1.2216797 0.8027344 1.6123047 1.28125 1.3085938 0.7167969 1.7861328 1.1074219 1.3955078 0.62890625 1.9599609 0.93359375 2.3066406 2.6152344 2.491211 2.0878906 1.8339844 2.2714844 1.9824219 1.8496094 1.3613281 1.9277344 1.4726563 1.6113281 0.8886719 1.5839844 0.9628906 1.3730469 0.41601563 1.2402344 0.453125 1.1347656 1.2646484 1.6289063 1.4824219 2.2792969 1.4384766 1.4550781 1.7431641 2.0195313 1.6123047 1.28125 2.0039063 1.7597656 1.7861328 1.1074219 2.2646484 1.4980469 1.9599609 0.93359375 2.5253906 1.2382813 2.8291016 3.4550781 2.9003906 3.3847656 2.5820313 2.9941406 2.7236328 2.8535156 2.334961 2.5351563 2.546875 2.3222656 2.086914 2.0761719 2.3701172 1.7929688 1.8398438 1.6152344 2.1933594 1.2617188 1.5214844 2.640625 1.8037109 2.359375 1.1328125 2.3222656 1.4863281 1.96875 0.74316406 2.0058594 1.1679688 1.5800781 0.3544922 1.6875 0.8496094 1.1914063 -0.8691406 2.5253906 -1.1513672 2.8085938 -0.48046875 2.84375 -0.6923828 3.0566406 -0.09082031 3.1621094 -0.23242188 3.3046875 0.29785156 3.4804688 0.22753906 3.5507813 -0.56152344 3.4238281 -1.0205078 3.6445313 -0.8925781 2.8769531 -1.2382813 3.0410156 -1.2246094 2.3300781 -1.4550781 2.4394531 -1.5566406 1.78125 -1.671875 1.8378906 7.7197266 0.70703125 7.1015625 0.78125 7.3876953 -0.015625 6.9365234 0.0390625 7.0722656 -0.7402344 6.770508 -0.7050781 6.7558594 -1.4667969 6.6054688 -1.4492188 -2.959961 3.2988281 -3.5947266 3.0605469 -3.1386719 3.6621094 -3.7148438 3.3027344 -3.3183594 4.0253906 -3.8339844 3.5449219 -3.649414 4.6816406 -4.123047 4.0390625 0.25 0 0.25 -3.0292969 1 0 1 -3.0292969 1.75 0 1.75 -3.0292969 2.5 0 2.5 -3.0292969 -4 -3.0292969 -4 -4 -3.25 -3.0292969 -3.25 -4 -2.5 -3.0292969 -2.5 -4 -1.75 -3.0292969 -2.1289063 -4 1.7431641 2.0195313 2.0498047 2.5898438 2.0039063 1.7597656 2.3945313 2.2363281 2.2646484 1.4980469 2.7421875 1.8886719 2.5253906 1.2382813 3.0898438 1.5410156 -0.390625 -3.8125 0.25 -3.4160156 -0.5 -3.0292969 0.25 -3.0292969 -0.5 0 0.25 0 1 -3.0292969 1 -4 1.75 -3.0292969 1.75 -4 2.5 -3.0292969 2.5 -4 -0.9902344 4.705078 -0.2763672 5.466797 -1.3994141 4.7617188 -0.890625 5.5546875 -1.8095703 4.8203125 -1.5048828 5.640625 1.0634766 4.1953125 0.72753906 3.5371094 1.5117188 4.0078125 1.0273438 3.4101563 1.9609375 3.8183594 1.3261719 3.2851563 0.43945313 3.3398438 0.5097656 3.2695313 0.19140625 2.8789063 0.3330078 2.7382813 -0.055664063 2.4199219 0.15625 2.2070313 -4.4765625 3.2421875 -4.123047 4.0390625 -4.3496094 3.0644531 -3.8339844 3.5449219 -4.290039 2.9433594 -3.7148438 3.3027344 -1.4414063 1.7265625 -1.3271484 1.671875 -0.9951172 2.2207031 -0.76464844 2.109375 -0.54785156 2.7128906 -0.203125 2.546875 -1.5566406 1.78125 -1.4414063 1.7265625 -1.2246094 2.3300781 -0.9951172 2.2207031 -0.8925781 2.8769531 -0.54785156 2.7128906 0.49023438 1.0292969 0.453125 1.1347656 1.0371094 1.1621094 0.9628906 1.3730469 1.5839844 1.2929688 1.4726563 1.6113281 0.15625 3.6230469 0.22753906 3.5507813 -0.37402344 3.4453125 -0.23242188 3.3046875 -0.9042969 3.2695313 -0.6923828 3.0566406 6.7558594 -1.4667969 6.90625 -1.484375 7.0722656 -0.7402344 7.373047 -0.77734375 7.3876953 -0.015625 7.838867 -0.0703125 6.455078 -1.4296875 6.6054688 -1.4492188 6.4697266 -0.66796875 6.770508 -0.7050781 6.484375 0.091796875 6.9365234 0.0390625 -0.6044922 -3.859375 -0.37890625 -4.2753906 -0.25 -3.0292969 -0.005859375 -3.5820313 0.5 -3.0292969 0.63378906 -3.8242188 2.6884766 3.5957031 2.758789 3.5253906 2.2988281 3.2773438 2.4404297 3.1367188 1.9101563 2.9589844 2.1220703 2.7480469 2.8769531 3.9101563 2.5976563 4.3535156 2.4091797 3.6289063 1.9609375 3.8183594 1.625 3.1582031 1.3261719 3.2851563 0.69140625 2.7519531 -3.649414 4.6816406 -3.2177734 5.03125 -3.3183594 4.0253906 -2.8642578 4.6328125 -2.8027344 4.5058594 -2.4345703 4.8828125 -1.9921875 4.515625 1.8398438 0.20117188 1.3447266 0.6972656 2.0166016 0.7324219 1.5917969 1.15625 2.1933594 1.2617188 1.8398438 1.6152344 1.5839844 1.2929688 1.4726563 1.6113281 2.1308594 1.4257813 1.9824219 1.8496094 2.6767578 1.5585938 2.491211 2.0878906 -3.7148438 3.3027344 -3.5947266 3.0605469 -4.290039 2.9433594 -4.2304688 2.8222656 -4.8652344 2.5839844 0.37890625 1.3457031 0.41601563 1.2402344 -0.056640625 0.8964844 0.453125 1.1347656 0.49023438 1.0292969 -0.203125 2.546875 0.4970703 2.9824219 -0.54785156 2.7128906 -0.1015625 3.2050781 -0.56152344 3.4238281 -1.3271484 1.671875 -1.4414063 1.7265625 -1.8886719 1.234375 -1.5566406 1.78125 -1.671875 1.8378906 6.90625 -1.484375 6.7558594 -1.4667969 6.4404297 -2.1914063 6.6054688 -1.4492188 6.455078 -1.4296875 1.0478516 0.9765625 1.1347656 0.890625 0.8310547 0.32421875 1.2216797 0.8027344 1.3085938 0.7167969 2.6884766 3.5957031 3.0771484 3.9140625 2.758789 3.5253906 2.8291016 3.4550781 -2.1191406 5.7265625 -2.21875 4.876953 -1.5048828 5.640625 -1.8095703 4.8203125 7.513672 1.5371094 7.1015625 0.78125 8.186523 1.3300781 7.7197266 0.70703125 1.9101563 2.9589844 2.1220703 2.7480469 1.5214844 2.640625 1.8037109 2.359375 6.7070313 0.8300781 6.5185547 0.19335938 7.1015625 0.78125 6.9365234 0.0390625 1.9970703 4.6035156 1.3994141 4.8554688 1.5117188 4.0078125 1.0634766 4.1953125 0.29785156 3.4804688 0.22753906 3.5507813 0.68652344 3.7988281 0.15625 3.6230469 2.7421875 1.8886719 2.3945313 2.2363281 3.0322266 2.1621094 2.7705078 2.6914063 -0.5908203 6.158203 -0.890625 5.5546875 -0.21386719 6.0097656 -0.24023438 5.7734375 -4.4765625 3.2421875 -4.3496094 3.0644531 -4.8652344 2.5839844 -4.290039 2.9433594 -2.0195313 6.5742188 -2.1191406 5.7265625 -1.2001953 6.4609375 -1.5048828 5.640625 -2.5634766 4.0214844 -2.3242188 3.4003906 -3.1386719 3.6621094 -2.959961 3.2988281 -1.6894531 3.6386719 -2.3242188 3.4003906 -2.5634766 4.0214844 -1.9921875 4.515625 1 0 1 -3.0292969 1.75 -3.0292969 1.75 0 0.9560547 3.2070313 1.4863281 3.3847656 1.6982422 3.171875 1.2382813 2.9238281 1.0273438 3.4101563 0.5419922 2.8144531 0.69140625 2.7519531 1.3261719 3.2851563 7.0664063 1.6230469 6.7070313 0.8300781 7.1015625 0.78125 7.513672 1.5371094 -1.8095703 4.8203125 -2.1132813 4 -1.9091797 3.9707031 -1.3994141 4.7617188 -2.5634766 4.0214844 -3.1386719 3.6621094 -3.3183594 4.0253906 -2.8027344 4.5058594 -1.9199219 7.423828 -2.0195313 6.5742188 -1.2001953 6.4609375 -0.8154297 7.173828 -1.2001953 6.4609375 -1.5048828 5.640625 -0.890625 5.5546875 -0.5908203 6.158203 1.9970703 4.6035156 1.5117188 4.0078125 1.9609375 3.8183594 2.5976563 4.3535156 2.8291016 3.4550781 3.0771484 3.9140625 2.9003906 3.3847656 -1.1513672 2.8085938 -0.9042969 3.2695313 -0.6923828 3.0566406 2.4824219 5.1992188 1.9970703 4.6035156 2.5976563 4.3535156 7.7197266 0.70703125 7.3876953 -0.015625 7.838867 -0.0703125 -0.74316406 -2.8261719 -0.6044922 -3.859375 -0.25 -3.0292969 2.3945313 2.2363281 2.0498047 2.5898438 2.7705078 2.6914063 0.72753906 3.5371094 0.5419922 2.8144531 1.0273438 3.4101563 1.3955078 0.62890625 0.8310547 0.32421875 1.3085938 0.7167969 0.5 -3.0292969 -0.25 -2.1503906 -0.25 -3.0292969 -2.21875 4.876953 -2.1132813 4 -1.8095703 4.8203125 6.5185547 0.19335938 6.484375 0.091796875 6.9365234 0.0390625 -1.3994141 4.7617188 -1.9091797 3.9707031 -0.9902344 4.705078 -3.25 -4 -2.8603516 -4.3496094 -2.5 -4 0.43945313 3.3398438 0.68652344 3.7988281 0.5097656 3.2695313 -0.24023438 5.7734375 -0.890625 5.5546875 -0.2763672 5.466797 1 -3.0292969 0.25 -3.0292969 0.25 -3.4160156 -0.56152344 3.4238281 -0.8925781 2.8769531 -0.54785156 2.7128906 -1.9921875 4.515625 -2.5634766 4.0214844 -2.8027344 4.5058594 -0.8154297 7.173828 -1.2001953 6.4609375 -0.5908203 6.158203 </float_array>
          <technique_common>
            <accessor source="#texcoords-array" count="751" stride="2">
              <param name="S" type="float" />
              <param name="T" type="float" />
            </accessor>
          </technique_common>
        </source>
        <source id="colors">
          <float_array id="colors-array" count="2253">1 1 1 1 1 1 1 1 1 1 1 1 1 1 1 1 1 1 1 1 1 1 1 1 1 1 1 1 1 1 1 1 1 1 1 1 1 1 1 1 1 1 1 1 1 1 1 1 1 1 1 1 1 1 1 1 1 1 1 1 1 1 1 1 1 1 1 1 1 1 1 1 1 1 1 1 1 1 1 1 1 1 1 1 1 1 1 1 1 1 1 1 1 1 1 1 1 1 1 1 1 1 1 1 1 1 1 1 1 1 1 1 1 1 1 1 1 1 1 1 1 1 1 1 1 1 1 1 1 1 1 1 1 1 1 1 1 1 1 1 1 1 1 1 1 1 1 1 1 1 1 1 1 1 1 1 1 1 1 1 1 1 1 1 1 1 1 1 1 1 1 1 1 1 1 1 1 1 1 1 1 1 1 1 1 1 1 1 1 1 1 1 1 1 1 1 1 1 1 1 1 1 1 1 1 1 1 1 1 1 1 1 1 1 1 1 1 1 1 1 1 1 1 1 1 1 1 1 1 1 1 1 1 1 1 1 1 1 1 1 1 1 1 1 1 1 1 1 1 1 1 1 1 1 1 1 1 1 1 1 1 1 1 1 1 1 1 1 1 1 1 1 1 1 1 1 1 1 1 1 1 1 1 1 1 1 1 1 1 1 1 1 1 1 1 1 1 1 1 1 1 1 1 1 1 1 1 1 1 1 1 1 1 1 1 1 1 1 1 1 1 1 1 1 1 1 1 1 1 1 1 1 1 1 1 1 1 1 1 1 1 1 1 1 1 1 1 1 1 1 1 1 1 1 1 1 1 1 1 1 1 1 1 1 1 1 1 1 1 1 1 1 1 1 1 1 1 1 1 1 1 1 1 1 1 1 1 1 1 1 1 1 1 1 1 1 1 1 1 1 1 1 1 1 1 1 1 1 1 1 1 1 1 1 1 1 1 1 1 1 1 1 1 1 1 1 1 1 1 1 1 1 1 1 1 1 1 1 1 1 1 1 1 1 1 1 1 1 1 1 1 1 1 1 1 1 1 1 1 1 1 1 1 1 1 1 1 1 1 1 1 1 1 1 1 1 1 1 1 1 1 1 1 1 1 1 1 1 1 1 1 1 1 1 1 1 1 1 1 1 1 1 1 1 1 1 1 1 1 1 1 1 1 1 1 1 1 1 1 1 1 1 1 1 1 1 1 1 1 1 1 1 1 1 1 1 1 1 1 1 1 1 1 1 1 1 1 1 1 1 1 1 1 1 1 1 1 1 1 1 1 1 1 1 1 1 1 1 1 1 1 1 1 1 1 1 1 1 1 1 1 1 1 1 1 1 1 1 1 1 1 1 1 1 1 1 1 1 1 1 1 1 1 1 1 1 1 1 1 1 1 1 1 1 1 1 1 1 1 1 1 1 1 1 1 1 1 1 1 1 1 1 1 1 1 1 1 1 1 1 1 1 1 1 1 1 1 1 1 1 1 1 1 1 1 1 1 1 1 1 1 1 1 1 1 1 1 1 1 1 1 1 1 1 1 1 1 1 1 1 1 1 1 1 1 1 1 1 1 1 1 1 1 1 1 1 1 1 1 1 1 1 1 1 1 1 1 1 1 1 1 1 1 1 1 1 1 1 1 1 1 1 1 1 1 1 1 1 1 1 1 1 1 1 1 1 1 1 1 1 1 1 1 1 1 1 1 1 1 1 1 1 1 1 1 1 1 1 1 1 1 1 1 1 1 1 1 1 1 1 1 1 1 1 1 1 1 1 1 1 1 1 1 1 1 1 1 1 1 1 1 1 1 1 1 1 1 1 1 1 1 1 1 1 1 1 1 1 1 1 1 1 1 1 1 1 1 1 1 1 1 1 1 1 1 1 1 1 1 1 1 1 1 1 1 1 1 1 1 1 1 1 1 1 1 1 1 1 1 1 1 1 1 1 1 1 1 1 1 1 1 1 1 1 1 1 1 1 1 1 1 1 1 1 1 1 1 1 1 1 1 1 1 1 1 1 1 1 1 1 1 1 1 1 1 1 1 1 1 1 1 1 1 1 1 1 1 1 1 1 1 1 1 1 1 1 1 1 1 1 1 1 1 1 1 1 1 1 1 1 1 1 1 1 1 1 1 1 1 1 1 1 1 1 1 1 1 1 1 1 1 1 1 1 1 1 1 1 1 1 1 1 1 1 1 1 1 1 1 1 1 1 1 1 1 1 1 1 1 1 1 1 1 1 1 1 1 1 1 1 1 1 1 1 1 1 1 1 1 1 1 1 1 1 1 1 1 1 1 1 1 1 1 1 1 1 1 1 1 1 1 1 1 1 1 1 1 1 1 1 1 1 1 1 1 1 1 1 1 1 1 1 1 1 1 1 1 1 1 1 1 1 1 1 1 1 1 1 1 1 1 1 1 1 1 1 1 1 1 1 1 1 1 1 1 1 1 1 1 1 1 1 1 1 1 1 1 1 1 1 1 1 1 1 1 1 1 1 1 1 1 1 1 1 1 1 1 1 1 1 1 1 1 1 1 1 1 1 1 1 1 1 1 1 1 1 1 1 1 1 1 1 1 1 1 1 1 1 1 1 1 1 1 1 1 1 1 1 1 1 1 1 1 1 1 1 1 1 1 1 1 1 1 1 1 1 1 1 1 1 1 1 1 1 1 1 1 1 1 1 1 1 1 1 1 1 1 1 1 1 1 1 1 1 1 1 1 1 1 1 1 1 1 1 1 1 1 1 1 1 1 1 1 1 1 1 1 1 1 1 1 1 1 1 1 1 1 1 1 1 1 1 1 1 1 1 1 1 1 1 1 1 1 1 1 1 1 1 1 1 1 1 1 1 1 1 1 1 1 1 1 1 1 1 1 1 1 1 1 1 1 1 1 1 1 1 1 1 1 1 1 1 1 1 1 1 1 1 1 1 1 1 1 1 1 1 1 1 1 1 1 1 1 1 1 1 1 1 1 1 1 1 1 1 1 1 1 1 1 1 1 1 1 1 1 1 1 1 1 1 1 1 1 1 1 1 1 1 1 1 1 1 1 1 1 1 1 1 1 1 1 1 1 1 1 1 1 1 1 1 1 1 1 1 1 1 1 1 1 1 1 1 1 1 1 1 1 1 1 1 1 1 1 1 1 1 1 1 1 1 1 1 1 1 1 1 1 1 1 1 1 1 1 1 1 1 1 1 1 1 1 1 1 1 1 1 1 1 1 1 1 1 1 1 1 1 1 1 1 1 1 1 1 1 1 1 1 1 1 1 1 1 1 1 1 1 1 1 1 1 1 1 1 1 1 1 1 1 1 1 1 1 1 1 1 1 1 1 1 1 1 1 1 1 1 1 1 1 1 1 1 1 1 1 1 1 1 1 1 1 1 1 1 1 1 1 1 1 1 1 1 1 1 1 1 1 1 1 1 1 1 1 1 1 1 1 1 1 1 1 1 1 1 1 1 1 1 1 1 1 1 1 1 1 1 1 1 1 1 1 1 1 1 1 1 1 1 1 1 1 1 1 1 1 1 1 1 1 1 1 1 1 1 1 1 1 1 1 1 1 1 1 1 1 1 1 1 1 1 1 1 1 1 1 1 1 1 1 1 1 1 1 1 1 1 1 1 1 1 1 1 1 1 1 1 1 1 1 1 1 1 1 1 1 1 1 1 1 1 1 1 1 1 1 1 1 1 1 1 1 1 1 1 1 1 1 1 1 1 1 1 1 1 1 1 1 1 1 1 1 1 1 1 1 1 1 1 1 1 1 1 1 1 1 1 1 1 1 1 1 1 1 1 1 1 1 1 1 1 1 1 1 1 1 1 1 1 1 1 1 1 1 1 1 1 1 1 1 1 1 1 1 1 1 1 1 1 1 1 1 1 1 1 1 1 1 1 1 1 1 1 1 1 1 1 1 1 1 1 1 1 1 1 1 1 1 1 1 1 1 1 1 1 1 1 1 1 1 1 1 1 1 1 1 1 1 1 1 1 1 1 1 1 1 1 1 1 1 1 1 1 1 1 1 1 1 1 1 1 1 1 1 1 1 1 1 1 1 1 1 1 1 1 1 1 1 1 1 1 1 1 1 1 1 1 1 1 1 1 1 1 1 1 1 1 1 1 1 1 1 1 1 1 1 1 1 1 1 1 1 1 1 1 1 1 1 1 1 1 1 1 1 1 1 1 1 1 1 1 1 1 1 1 1 1 1 1 1 1 1 1 1 1 1 1 1 1 1 1 1 1 1 1 1 1 1 1 1 1 1 1 1 1 1 1 1 1 1 1 1 1 1 1 1 1 1 1 1 1 1 1 1 1 1 1 1 1 1 1 1 1 1 1 1 1 1 1 1 1 1 1 1 1 1 1 1 1 1 1 1 1 1 1 1 1 1 1 1 1 1 1 1 1 1 1 1 1 1 1 1 1 1 1 1 1 1 1 1 1 1 1 1 1 1 1 1 1 1 1 1 1 1 1 1 1 1 1 1 1 1 1 1 1 1 1 1 1 1 1 1 1 1 1 1 1 1 1 1 1 1 1 1 1 1 1 1 1 1 1 1 1 1 1 1 1 1 1 1 1 1 1 1 1 1 1 1 1 1 1 1 1 1 1 1 1 1 1 1 1 1 1 1 1 1 1 1 1 1 1 1 1 1 1 1 1 1 1 1 1 1 1 1 1 1 1 1 1 1 1 1 1 1 1 1 1 1 1 1 1 1 1 1 1 1 1 1 1 1 1 1 1 1 1 1 1 1 1 1 1 1 1 1 1 1 1 1 1 1 1 1 1 1 1 1 1 1 1 1 1 1 1 1 1 1 1 1 1 1 1 1 1 1 1 1 1 1 1 1 1 1 1 1 1 1 1 1 1 1 1 1 1 1 1 1 1 1 1 1 1 1 1 1 1 1 1 1 1 1 1 1 1 1 1 1 1 1 1 1 1 1 1 1 1 1 1 1 1 1 1 1 1 1 1 1 1 1 1 1 1 1 1 1 1 1 1 1 1 1 1 1 1 1 1 1 1 1 1 1 1 1 1 1 1 1 1 1 1 1 1 1 1 1 1 1 1 1 1 1 1 1 1 1 1 1 1 1 1 1 1 1 1 1 1 </float_array>
          <technique_common>
            <accessor source="#colors-array" count="751" stride="3">
              <param name="R" type="float" />
              <param name="G" type="float" />
              <param name="B" type="float" />
            </accessor>
          </technique_common>
        </source>
        <source id="normals">
          <float_array id="normals-array" count="2253">0.32592207 0.5445045 0.77284515 0 0.82415587 0.56636304 0 0.82415587 0.56636304 0.14651036 0.7130171 0.6856685 0.2753922 0.7851607 0.55469066 0 0.93008494 0.36734447 0 0.93008494 0.36734447 0.13285178 0.8635366 0.48647198 0.062474146 0.8024023 0.5935044 -0.15613538 0.9231505 0.35130462 -0.15613538 0.9231505 0.35130462 -0.060492784 0.8664128 0.49565056 0.30251172 0.6011201 0.73969 0 0.82415587 0.56636304 0 0.82415587 0.56636304 0.14651036 0.7130171 0.6856685 0.47807723 -0.7141888 0.5112499 -0.5217611 -0.7113148 0.4709529 -0.107329585 -0.9815779 0.15806721 -0.7848494 -0.6188987 -0.031237788 0.6108972 0.48403352 0.62651116 -0.61863935 0.36689022 0.69474953 -0.5217611 -0.7113148 0.4709529 0.47807723 -0.7141888 0.5112499 0.7835305 0.6213533 0 0.6108972 0.48403352 0.62651116 0.47807723 -0.7141888 0.5112499 0.7650124 -0.64401555 0 -0.85915214 0.51158607 -0.011715711 -0.61863935 0.36689022 0.69474953 0.6108972 0.48403352 0.62651116 0.7835305 0.6213533 0 -0.7848494 -0.6188987 -0.031237788 -0.5217611 -0.7113148 0.4709529 -0.61863935 0.36689022 0.69474953 -0.85915214 0.51158607 -0.011715711 0.7650124 -0.64401555 0 0.47807723 -0.7141888 0.5112499 -0.107329585 -0.9815779 0.15806721 0 1 0 0 1 0 0 1 0 0 1 0 0 1 0 0 1 0 0 1 0 0 1 0 0 1 0 0 1 0 0 1 0 0 1 0 0 1 0 0 1 0 0 1 0 0 1 0 0 1 0 0 1 0 0 1 0 0 1 0 0 1 0 0 1 0 0 1 0 0 1 0 0 1 0 0 1 0 0 1 0 0 1 0 0 1 0 0 1 0 0 1 0 0 1 0 0 1 0 0 1 0 0 1 0 0 1 0 0 1 0 0.9624098 -0.2713488 0.0117128985 0.83403367 -0.5430009 -0.097662024 0.9239092 -0.34182686 -0.17189008 0.8201092 -0.57212377 0.0097632045 0.93743384 -0.32419586 0.12694417 -0.4082008 -0.33398247 0.8496045 -0.43575472 -0.6135739 0.6585172 -0.64940685 -0.35795617 0.67092335 -0.624676 -0.5934422 0.5075492 -0.7973831 -0.3224711 0.5100907 0.43746245 -0.62104046 0.65033484 0.5838129 -0.39246285 0.71072876 0.4938365 -0.61095184 0.6187595 0.5549713 -0.3243846 0.76601666 0.25408417 0.96551985 -0.056680314 -0.13860396 0.94484943 -0.2967296 -0.3302659 0.65857756 0.6761657 -0.45862937 -0.88408124 -0.08977426 -0.47114637 0.88168883 0.025414534 0.09765215 0.23631822 0.9667563 0.02927126 0.9893686 -0.14245346 0.7267164 -0.6739708 -0.13284063 -0.73550093 -0.676973 -0.027313031 -0.916332 -0.38880613 -0.09573618 -0.9289348 -0.36493868 0.0624494 -0.76266736 -0.6378318 0.107280575 -0.76266736 -0.6378318 0.107280575 -0.9289348 -0.36493868 0.0624494 -0.7973831 -0.3224711 0.5100907 -0.624676 -0.5934422 0.5075492 -0.4082008 -0.33398247 0.8496045 0.4469682 -0.33961776 0.8275743 0.43746245 -0.62104046 0.65033484 -0.43575472 -0.6135739 0.6585172 0.5549713 -0.3243846 0.76601666 0.93743384 -0.32419586 0.12694417 0.8201092 -0.57212377 0.0097632045 0.4938365 -0.61095184 0.6187595 0.43746245 -0.62104046 0.65033484 0.4469682 -0.33961776 0.8275743 0.5838129 -0.39246285 0.71072876 0.9513933 0.2676404 -0.15237921 0.9661374 0.20689003 -0.15419163 0.95928997 0.27352464 0.070334904 0.976732 0.2012068 0.07423163 0.74603117 0.27732047 0.60541797 0.7637287 0.17579433 0.62113994 0.09765215 0.23631822 0.9667563 0.10736823 0.12884188 0.9858356 -0.16201453 0.15811057 0.9740392 -0.18739922 0.09174754 0.97798973 0.09765215 0.23631822 0.9667563 0.10736823 0.12884188 0.9858356 -0.095717184 0.23636284 0.9669389 -0.05669537 0.13489588 0.9892364 -0.74603117 0.27732047 0.60541797 -0.7628023 0.1755811 0.62233746 -0.95928997 0.27352464 0.070334904 -0.976732 0.2012068 0.07423163 -0.9513933 0.2676404 -0.15237921 -0.9661374 0.20689003 -0.15419163 0.71417385 0.69075835 -0.113175094 0.9513933 0.2676404 -0.15237921 0.66604865 0.7441775 0.05078377 0.95928997 0.27352464 0.070334904 0.52334964 0.7381574 0.4257098 0.74603117 0.27732047 0.60541797 0.072299 0.6702313 0.73862225 0.09765215 0.23631822 0.9667563 -0.14839873 0.5408743 0.8279087 -0.16201453 0.15811057 0.9740392 0.14048332 0.5697379 0.8097303 0.09765215 0.23631822 0.9667563 -0.060551263 0.6309051 0.7734936 -0.095717184 0.23636284 0.9669389 -0.536836 0.7203364 0.4392295 -0.74603117 0.27732047 0.60541797 -0.7071702 0.7052167 0.05079123 -0.95928997 0.27352464 0.070334904 -0.71417385 0.69075835 -0.113175094 -0.9513933 0.2676404 -0.15237921 -0.96912533 0.08206303 -0.23251192 -0.90767354 0 -0.419677 -0.9973072 0.06635703 0.03122684 -0.9549306 0 0.29682913 -0.94311833 0.08201029 0.32218328 -0.7090574 0 0.7051508 -0.6997301 0.17786436 0.6919119 -0.70297885 -0.13083218 0.69907343 -0.18739922 0.09174754 0.97798973 -0.052763972 0 0.99860704 0.26384807 0.15635441 0.9518075 0.26757303 -0.09374821 0.9589661 -0.16201453 0.15811057 0.9740392 -0.15622795 -0.103501014 0.98228323 0.2166358 0.091728665 0.97193354 0.41405857 -0.013671745 0.91014755 0.69338715 0.1816479 0.6972936 0.69537354 -0.13868405 0.70514 0.9564094 0.08588166 0.2791154 0.95915455 -0.06446456 0.2754395 0.9979213 0.06444501 0 0.9990745 -0.04301299 0 0.97845966 0.082026556 -0.18944229 0.9580547 -0.031219706 -0.2848798 -0.89652026 0.115238994 -0.4277515 -0.96912533 0.08206303 -0.23251192 -0.99993134 0 0.011717945 -0.9973072 0.06635703 0.03122684 -0.7033907 0.08792384 0.70534456 -0.94311833 0.08201029 0.32218328 -0.53121555 0.67378443 0.51363856 -0.6997301 0.17786436 0.6919119 -0.05669537 0.13489588 0.9892364 -0.18739922 0.09174754 0.97798973 0.23639531 0.49818847 0.8342215 0.26384807 0.15635441 0.9518075 -0.14839873 0.5408743 0.8279087 -0.16201453 0.15811057 0.9740392 0.35149747 0.039055277 0.93537384 0.2166358 0.091728665 0.97193354 0.5171069 0.69077677 0.5053988 0.69338715 0.1816479 0.6972936 0.9564094 0.08588166 0.2791154 0.9564094 0.08588166 0.2791154 0.9990745 -0.04301299 0 0.9979213 0.06444501 0 0.9580547 -0.031219706 -0.2848798 0.97845966 0.082026556 -0.18944229 -0.052739505 0.7422597 0.6680337 -0.05669537 0.13489588 0.9892364 0.14048332 0.5697379 0.8097303 0.10736823 0.12884188 0.9858356 -0.14839873 0.5408743 0.8279087 -0.18739922 0.09174754 0.97798973 0.072299 0.6702313 0.73862225 0.10736823 0.12884188 0.9858356 0.52334964 0.7381574 0.4257098 0.7637287 0.17579433 0.62113994 0.66604865 0.7441775 0.05078377 0.976732 0.2012068 0.07423163 0.66199195 0.7420559 -0.10545005 0.9661374 0.20689003 -0.15419163 0.635054 -0.031264197 -0.77183485 0.62333107 0.023448192 -0.7816064 0.9580547 -0.031219706 -0.2848798 0.9580547 -0.031219706 -0.2848798 0.41405857 -0.013671745 0.91014755 0.35149747 0.039055277 0.93537384 -0.052763972 0 0.99860704 -0.05669537 0.13489588 0.9892364 -0.98951554 0 0.14442633 -0.979772 0.1424768 0.14052506 -0.979772 0.1424768 0.14052506 -0.98951554 0 0.14442633 -0.05669537 0.13489588 0.9892364 -0.052763972 0 0.99860704 0.35149747 0.039055277 0.93537384 0.41405857 -0.013671745 0.91014755 0.9580547 -0.031219706 -0.2848798 0.9580547 -0.031219706 -0.2848798 0.062474146 0.8024023 0.5935044 0.072299 0.6702313 0.73862225 0.39273772 0.8655861 0.31067312 0.52334964 0.7381574 0.4257098 0.5037295 0.86297846 0.0390488 0.66604865 0.7441775 0.05078377 0.5041939 0.85986555 -0.080123834 0.66199195 0.7420559 -0.10545005 -0.5700462 0.816025 -0.09565844 -0.9661374 0.20689003 -0.15419163 -0.5725387 0.8187499 0.042989254 -0.976732 0.2012068 0.07423163 -0.44968042 0.8113799 0.37343028 -0.7628023 0.1755811 0.62233746 -0.052739505 0.7422597 0.6680337 -0.05669537 0.13489588 0.9892364 -0.052739505 0.7422597 0.6680337 0 0.93008494 0.36734447 -0.44968042 0.8113799 0.37343028 -0.2266308 0.9553661 0.18951024 -0.5725387 0.8187499 0.042989254 -0.28726888 0.95756286 0.02345052 -0.5700462 0.816025 -0.09565844 -0.28742367 0.95612365 -0.05670263 -0.89652026 0.115238994 -0.4277515 -0.99993134 0 0.011717945 -0.67014945 0.65256536 -0.3536357 -0.4625784 0.88221705 0.08783134 0.17578495 0.9824425 -0.06250131 -0.015620949 0.69122696 0.72246885 0.7149038 0.66411823 0.21876836 0.35149747 0.039055277 0.93537384 0.5171069 0.69077677 0.5053988 0.23639531 0.49818847 0.8342215 -0.015620949 0.69122696 0.72246885 -0.05669537 0.13489588 0.9892364 -0.4625784 0.88221705 0.08783134 -0.53121555 0.67378443 0.51363856 -0.7033907 0.08792384 0.70534456 0.17578495 0.9824425 -0.06250131 0.7149038 0.66411823 0.21876836 0.69870055 0.66357034 -0.26737982 0.9990745 -0.04301299 0 0.9580547 -0.031219706 -0.2848798 0.35149747 0.039055277 0.93537384 -0.015620949 0.69122696 0.72246885 -0.14839873 0.5408743 0.8279087 0.23639531 0.49818847 0.8342215 0.9990745 -0.04301299 0 0.7149038 0.66411823 0.21876836 0.9564094 0.08588166 0.2791154 0.5171069 0.69077677 0.5053988 -0.11331281 0.14652519 -0.9826956 -0.6213533 0 -0.7835305 -0.98951554 0 0.14442633 -0.979772 0.1424768 0.14052506 0 0.93008494 0.36734447 -0.052739505 0.7422597 0.6680337 0.14048332 0.5697379 0.8097303 -0.979772 0.1424768 0.14052506 -0.05669537 0.13489588 0.9892364 0.070275515 0.99556977 0.062467124 0.070275515 0.99556977 0.062467124 -0.05669537 0.13489588 0.9892364 0.35149747 0.039055277 0.93537384 -0.14839873 0.5408743 0.8279087 0.072299 0.6702313 0.73862225 0.062474146 0.8024023 0.5935044 0.9580547 -0.031219706 -0.2848798 0.62333107 0.023448192 -0.7816064 0.070275515 0.99556977 0.062467124 0.070275515 0.99556977 0.062467124 -0.05669537 0.13489588 0.9892364 0.35149747 0.039055277 0.93537384 -0.979772 0.1424768 0.14052506 0.070275515 0.99556977 0.062467124 -0.11331281 0.14652519 -0.9826956 0.9580547 -0.031219706 -0.2848798 0.070275515 0.99556977 0.062467124 0.35149747 0.039055277 0.93537384 -0.979772 0.1424768 0.14052506 -0.05669537 0.13489588 0.9892364 0.070275515 0.99556977 0.062467124 0.9580547 -0.031219706 -0.2848798 0.070275515 0.99556977 0.062467124 0.35149747 0.039055277 0.93537384 -0.7033907 0.08792384 0.70534456 -0.4625784 0.88221705 0.08783134 -0.99993134 0 0.011717945 -0.54512674 0.81085163 0.21297066 -0.052763972 0 0.99860704 -0.67816657 0.6938015 0.24234194 -0.30246335 -0.25953308 0.9171469 -0.8031619 0.5627996 0.19541653 -0.43575472 -0.6135739 0.6585172 -0.74960405 0.4177481 0.5134007 -0.12905847 -0.61205 0.7802171 -0.3303719 0.5590909 0.76044184 0.36328334 -0.44531506 0.8183641 0.14048332 0.5697379 0.8097303 0.8141628 -0.43148676 0.38853332 0.41395828 0.48034784 0.77324283 0.8853839 -0.4632141 -0.0390898 -0.9289348 -0.36493868 0.0624494 -0.976732 0.2012068 0.07423163 -0.7973831 -0.3224711 0.5100907 -0.8666323 0.17176495 0.4684499 -0.64940685 -0.35795617 0.67092335 -0.74960405 0.4177481 0.5134007 -0.4082008 -0.33398247 0.8496045 -0.55779636 0.34520966 0.7547804 0.4469682 -0.33961776 0.8275743 0.40246275 0.14066659 0.9045643 0.5838129 -0.39246285 0.71072876 0.6683807 0.11530543 0.7348279 -0.6815847 0.4511349 0.5761246 -0.4687357 0.031249046 0.88278556 -0.568496 0.5255169 0.6329646 -0.5716706 -0.040972978 0.81945956 -0.6515588 0.41356426 0.6359526 -0.7090574 0 0.7051508 -0.7168324 0.34572026 0.6054988 -0.7033907 0.08792384 0.70534456 -0.8730635 0.45703998 0.16992512 -0.95136607 0.29693562 -0.082048 0.5310505 -0.8473379 0.0019523916 0.42199013 -0.9064973 -0.013675606 0.55088526 -0.5079084 0.6622344 0.29684046 -0.73038375 0.6151628 -0.14839873 0.5408743 0.8279087 -0.2283876 0.18153885 0.95649505 -0.8265598 0.5627641 -0.00977021 -0.6428516 0.76595086 0.007815825 -0.814694 0.20318508 -0.5431293 -0.47441578 0.54274726 -0.69307655 -0.8730635 0.45703998 0.16992512 -0.8031619 0.5627996 0.19541653 -0.7168324 0.34572026 0.6054988 -0.6741085 0.7307727 0.10746657 -0.6515588 0.41356426 0.6359526 -0.5077263 0.83579564 -0.20894891 -0.568496 0.5255169 0.6329646 -0.19927654 0.93386453 -0.2969611 -0.6815847 0.4511349 0.5761246 -0.5373082 0.76200074 -0.3614619 0.42199013 -0.9064973 -0.013675606 0.2832188 -0.9590374 0.005859699 0.29684046 -0.73038375 0.6151628 0.2380122 -0.54235566 0.8057298 -0.2283876 0.18153885 0.95649505 -0.1270649 0.3381881 0.9324609 -0.6428516 0.76595086 0.007815825 -0.52956563 0.84808666 -0.01758705 -0.47441578 0.54274726 -0.69307655 -0.49028862 0.6192091 -0.6133491 -0.052763972 0 0.99860704 0.2753838 -0.6249845 0.73045063 -0.30246335 -0.25953308 0.9171469 0.17768626 -0.7634651 0.6209256 -0.43575472 -0.6135739 0.6585172 0.32809684 -0.9120311 0.24607264 -0.12905847 -0.61205 0.7802171 0.49636176 -0.83638906 0.23254743 0.36328334 -0.44531506 0.8183641 0.622559 -0.75526756 0.20491755 -0.6546091 0.75231194 -0.07425416 -0.74960405 0.4177481 0.5134007 -0.54512674 0.81085163 0.21297066 -0.3303719 0.5590909 0.76044184 -0.3240303 0.77493995 0.54265314 0.14048332 0.5697379 0.8097303 -0.1406022 0.7010582 0.69910544 0.41395828 0.48034784 0.77324283 0.76302886 0.6186193 -0.18734212 0.2753922 0.7851607 0.55469066 0.7428992 0.6666542 -0.06060493 0.26546302 0.8744664 0.40600228 0.7302376 0.5916096 0.3416887 0.1911803 0.82324576 0.5345245 0.63693506 0.5411994 0.54901457 0.16619228 0.6276203 0.7605741 0.8968488 0.3810142 0.22470067 0.9661374 0.20689003 -0.15419163 0.5723759 0.1465126 0.8067961 0.40804982 -0.54276484 0.7340992 0.7244574 0.0039054307 0.6893085 0.43746245 -0.62104046 0.65033484 0.52773243 -0.07231889 0.8463265 0.2753838 -0.6249845 0.73045063 0.8968488 0.3810142 0.22470067 0.6172381 0.32424533 0.71685565 0.76302886 0.6186193 -0.18734212 0.54060847 0.40789592 0.735774 0.3184973 0.9027347 -0.28918773 0.031237371 0.75750625 0.6520801 0.2657685 0.8871978 -0.37715676 0.22477835 0.684108 0.69388103 -0.74603117 0.27732047 0.60541797 -0.958701 0.20111243 0.20111243 -0.3303719 0.5590909 0.76044184 -0.5426976 0.7789077 0.3142961 0.8973114 0.41835433 0.14075473 0.6096809 0.72497314 0.3204733 0.9921572 0.124996185 0 0.9503855 0.2497933 0.18539347 0.5549713 -0.3243846 0.76601666 0.5723759 0.1465126 0.8067961 0.93743384 -0.32419586 0.12694417 0.9271227 0.24788333 0.28106457 0.9239092 -0.34182686 -0.17189008 0.98401284 0.12690641 -0.12495401 0.9624098 -0.2713488 0.0117128985 0.98938555 0.1346501 0.05464062 -0.9697178 0.23265408 -0.0742929 -0.71417385 0.69075835 -0.113175094 -0.976732 0.2012068 0.07423163 -0.8031619 0.5627996 0.19541653 -0.8666323 0.17176495 0.4684499 -0.7796464 0.49240825 0.3868922 -0.74960405 0.4177481 0.5134007 -0.6515588 0.41356426 0.6359526 0.2380122 -0.54235566 0.8057298 0.46906504 0.16417275 0.8677703 -0.1270649 0.3381881 0.9324609 -0.22283824 0.50040865 0.83662075 -0.52956563 0.84808666 -0.01758705 -0.74960405 0.4177481 0.5134007 -0.49028862 0.6192091 -0.6133491 -0.67373174 0.57608944 -0.46282443 0.63693506 0.5411994 0.54901457 0.43749583 0.37694952 0.81639844 0.6683807 0.11530543 0.7348279 0.5723759 0.1465126 0.8067961 0.5838129 -0.39246285 0.71072876 0.5549713 -0.3243846 0.76601666 0.9271227 0.24788333 0.28106457 0.8968488 0.3810142 0.22470067 0.98401284 0.12690641 -0.12495401 0.7666968 0.63013506 0.1229056 0.98938555 0.1346501 0.05464062 0.7413551 0.6672196 0.07218458 0.8323409 0.18170822 0.5236323 0.7637287 0.17579433 0.62113994 0.41182825 0.68312746 0.60310394 0.43749583 0.37694952 0.81639844 -0.6384929 0.74393207 0.19721034 -0.8031619 0.5627996 0.19541653 -0.95136607 0.29693562 -0.082048 -0.77873564 0.36887476 -0.50744677 -0.7637797 0.64462227 0.03320781 -0.5700462 0.816025 -0.09565844 0.16600487 0.37497568 0.91205025 0.16619228 0.6276203 0.7605741 -0.9705162 -0.21480237 0.10935394 -0.8666323 0.17176495 0.4684499 -0.9770919 -0.15242635 0.14851797 -0.8314352 0.3708279 0.41376588 -0.9098578 -0.23820312 0.33973232 -0.61863935 0.36689022 0.69474953 0.8691373 0.4785138 0.12499952 0.9503855 0.2497933 0.18539347 0.5511125 0.7797655 0.29705352 0.6096809 0.72497314 0.3204733 -0.68375546 0.5313757 0.5001183 -0.5426976 0.7789077 0.3142961 0.5037295 0.86297846 0.0390488 0.35133407 0.8724796 -0.3396229 0.5037295 0.86297846 0.0390488 0.3791399 0.88335687 -0.27556044 0.4728818 0.857831 0.20126787 0.3791399 0.88335687 -0.27556044 0.52773243 -0.07231889 0.8463265 0.5037295 0.86297846 0.0390488 0.7244574 0.0039054307 0.6893085 0.5037295 0.86297846 0.0390488 0.5723759 0.1465126 0.8067961 0.4728818 0.857831 0.20126787 -0.394341 0.61884207 -0.67935973 -0.5373082 0.76200074 -0.3614619 0.033207558 0.67782485 -0.73447305 -0.19927654 0.93386453 -0.2969611 -0.25199014 0.58407015 -0.7715977 -0.5077263 0.83579564 -0.20894891 -0.8666323 0.17176495 0.4684499 0.16619228 0.6276203 0.7605741 -0.8314352 0.3708279 0.41376588 0.1911803 0.82324576 0.5345245 -0.61863935 0.36689022 0.69474953 0.26546302 0.8744664 0.40600228 0.2657685 0.8871978 -0.37715676 0.25583887 0.58003163 -0.7733756 0.3184973 0.9027347 -0.28918773 0.3983638 0.6073095 -0.68737286 0.76302886 0.6186193 -0.18734212 0.9661374 0.20689003 -0.15419163 0.2166358 0.091728665 0.97193354 0.22477835 0.684108 0.69388103 -0.1270649 0.3381881 0.9324609 0.031237371 0.75750625 0.6520801 0.26384807 0.15635441 0.9518075 0.54060847 0.40789592 0.735774 -0.03518922 0.43595535 0.8992801 0.34779626 0.13286598 0.928108 0.46906504 0.16417275 0.8677703 0.51531744 0.47627825 0.7124654 0.6683807 0.11530543 0.7348279 0.63693506 0.5411994 0.54901457 -0.5373082 0.76200074 -0.3614619 -0.54512674 0.81085163 0.21297066 -0.5351879 0.79301566 -0.29103282 -0.67816657 0.6938015 0.24234194 -0.5077263 0.83579564 -0.20894891 -0.8031619 0.5627996 0.19541653 -0.92440486 0.2696995 0.2696995 -0.55779636 0.34520966 0.7547804 0.025399249 0.050798498 0.9983859 0.16600487 0.37497568 0.91205025 0.48068792 0.11333293 0.8695371 0.16619228 0.6276203 0.7605741 0.22477835 0.684108 0.69388103 0.9921572 0.124996185 0 0.82644147 0.019537624 0.5626836 0.8973114 0.41835433 0.14075473 0.85076773 0.34538049 0.39611435 0.7875376 0.5569435 0.2638153 0.63693506 0.5411994 0.54901457 0.51531744 0.47627825 0.7124654 0.56592506 -0.6225175 -0.54055595 0.8853839 -0.4632141 -0.0390898 0.71208566 -0.65160716 -0.26142323 0.8141628 -0.43148676 0.38853332 0.622559 -0.75526756 0.20491755 0.36328334 -0.44531506 0.8183641 -0.25199014 0.58407015 -0.7715977 -0.5077263 0.83579564 -0.20894891 -0.67014945 0.65256536 -0.3536357 -0.6741085 0.7307727 0.10746657 -0.71417385 0.69075835 -0.113175094 -0.8031619 0.5627996 0.19541653 -0.5426976 0.7789077 0.3142961 -0.958701 0.20111243 0.20111243 -0.68375546 0.5313757 0.5001183 -0.881125 -0.13480626 0.4532616 0.13475868 0.81441116 0.56442404 -0.4687357 0.031249046 0.88278556 -0.6815847 0.4511349 0.5761246 -0.86050457 0.5014732 0.08975785 -0.5373082 0.76200074 -0.3614619 -0.394341 0.61884207 -0.67935973 0.3791399 0.88335687 -0.27556044 0.7413551 0.6672196 0.07218458 0.4728818 0.857831 0.20126787 0.7666968 0.63013506 0.1229056 0.8968488 0.3810142 0.22470067 0.35133407 0.8724796 -0.3396229 0.5037295 0.86297846 0.0390488 0.16619228 0.6276203 0.7605741 0.52773243 -0.07231889 0.8463265 0.2753838 -0.6249845 0.73045063 0.25583887 0.58003163 -0.7733756 0.2657685 0.8871978 -0.37715676 0.57638186 0.8049808 0.14067626 0.22477835 0.684108 0.69388103 0.2166358 0.091728665 0.97193354 0.5310505 -0.8473379 0.0019523916 0.55088526 -0.5079084 0.6622344 -0.4860584 0.57975644 0.653934 -0.14839873 0.5408743 0.8279087 -0.8265598 0.5627641 -0.00977021 -0.5373082 0.76200074 -0.3614619 -0.3944673 0.57022005 0.7205863 -0.54512674 0.81085163 0.21297066 -0.052763972 0 0.99860704 -0.92440486 0.2696995 0.2696995 -0.93429613 0.3498724 -0.06841081 -0.8031619 0.5627996 0.19541653 -0.6384929 0.74393207 0.19721034 0.43749583 0.37694952 0.81639844 0.6172381 0.32424533 0.71685565 0.9271227 0.24788333 0.28106457 0.8968488 0.3810142 0.22470067 -0.5077263 0.83579564 -0.20894891 -0.8031619 0.5627996 0.19541653 -0.6546091 0.75231194 -0.07425416 -0.74960405 0.4177481 0.5134007 0.85076773 0.34538049 0.39611435 0.82644147 0.019537624 0.5626836 0.6172381 0.32424533 0.71685565 0.54060847 0.40789592 0.735774 -0.7796464 0.49240825 0.3868922 -0.8730635 0.45703998 0.16992512 -0.7637797 0.64462227 0.03320781 -0.95136607 0.29693562 -0.082048 0.63693506 0.5411994 0.54901457 0.16619228 0.6276203 0.7605741 -0.39828408 0.36509374 0.84147274 -0.8666323 0.17176495 0.4684499 -0.74960405 0.4177481 0.5134007 -0.22283824 0.50040865 0.83662075 -0.55779636 0.34520966 0.7547804 0.40246275 0.14066659 0.9045643 -0.03518922 0.43595535 0.8992801 0.43749583 0.37694952 0.81639844 0.34779626 0.13286598 0.928108 0.69537354 -0.13868405 0.70514 0.8691373 0.4785138 0.12499952 0.5511125 0.7797655 0.29705352 0.13475868 0.81441116 0.56442404 -0.68375546 0.5313757 0.5001183 -0.55779636 0.34520966 0.7547804 -0.92440486 0.2696995 0.2696995 -0.6815847 0.4511349 0.5761246 -0.8031619 0.5627996 0.19541653 0.18156238 0.46073893 0.8687662 -0.3669545 0.22837062 0.9017712 -0.3303719 0.5590909 0.76044184 -0.74603117 0.27732047 0.60541797 0.34779626 0.13286598 0.928108 -0.3669545 0.22837062 0.9017712 0.18156238 0.46073893 0.8687662 0.51531744 0.47627825 0.7124654 -0.916332 -0.38880613 -0.09573618 -0.9697178 0.23265408 -0.0742929 -0.976732 0.2012068 0.07423163 -0.9289348 -0.36493868 0.0624494 0.49636176 -0.83638906 0.23254743 0.32809684 -0.9120311 0.24607264 0.7442173 -0.6387377 -0.19533262 0.7442173 -0.6387377 -0.19533262 -0.5700462 0.816025 -0.09565844 -0.5077263 0.83579564 -0.20894891 0.22477835 0.684108 0.69388103 0.16619228 0.6276203 0.7605741 0.63693506 0.5411994 0.54901457 0.85076773 0.34538049 0.39611435 0.6172381 0.32424533 0.71685565 0.43749583 0.37694952 0.81639844 -0.6384929 0.74393207 0.19721034 -0.6384929 0.74393207 0.19721034 0.32592207 0.5445045 0.77284515 0.41182825 0.68312746 0.60310394 0.18156238 0.46073893 0.8687662 -0.3303719 0.5590909 0.76044184 0.8973114 0.41835433 0.14075473 0.7875376 0.5569435 0.2638153 -0.6515588 0.41356426 0.6359526 -0.55779636 0.34520966 0.7547804 -0.6815847 0.4511349 0.5761246 -0.42526165 0.47793165 0.7685921 -0.6815847 0.4511349 0.5761246 -0.8031619 0.5627996 0.19541653 0.43749583 0.37694952 0.81639844 -0.03518922 0.43595535 0.8992801 -0.7796464 0.49240825 0.3868922 -0.7637797 0.64462227 0.03320781 0.16600487 0.37497568 0.91205025 -0.55779636 0.34520966 0.7547804 -0.052763972 0 0.99860704 -0.3944673 0.57022005 0.7205863 0.2753838 -0.6249845 0.73045063 0.2753922 0.7851607 0.55469066 -0.61863935 0.36689022 0.69474953 0.26546302 0.8744664 0.40600228 -0.6515588 0.41356426 0.6359526 -0.7796464 0.49240825 0.3868922 -0.55779636 0.34520966 0.7547804 0.8968488 0.3810142 0.22470067 0.76302886 0.6186193 -0.18734212 0.9661374 0.20689003 -0.15419163 -0.42526165 0.47793165 0.7685921 -0.03518922 0.43595535 0.8992801 0.46906504 0.16417275 0.8677703 -0.22283824 0.50040865 0.83662075 0.46906504 0.16417275 0.8677703 0.40246275 0.14066659 0.9045643 -0.77873564 0.36887476 -0.50744677 -0.5077263 0.83579564 -0.20894891 -0.5700462 0.816025 -0.09565844 -0.814694 0.20318508 -0.5431293 -0.4860584 0.57975644 0.653934 -0.8265598 0.5627641 -0.00977021 0.6683807 0.11530543 0.7348279 0.40246275 0.14066659 0.9045643 0.46906504 0.16417275 0.8677703 -0.93429613 0.3498724 -0.06841081 -0.6384929 0.74393207 0.19721034 -0.6384929 0.74393207 0.19721034 0.82644147 0.019537624 0.5626836 0.26384807 0.15635441 0.9518075 0.54060847 0.40789592 0.735774 0.41182825 0.68312746 0.60310394 0.32592207 0.5445045 0.77284515 0.8323409 0.18170822 0.5236323 -0.8031619 0.5627996 0.19541653 -0.8730635 0.45703998 0.16992512 -0.7796464 0.49240825 0.3868922 -0.9705162 -0.21480237 0.10935394 -0.39828408 0.36509374 0.84147274 -0.8666323 0.17176495 0.4684499 0.69537354 -0.13868405 0.70514 0.43749583 0.37694952 0.81639844 0.7637287 0.17579433 0.62113994 0.9271227 0.24788333 0.28106457 0.5723759 0.1465126 0.8067961 0.43749583 0.37694952 0.81639844 0.8968488 0.3810142 0.22470067 0.5723759 0.1465126 0.8067961 0.4728818 0.857831 0.20126787 0.51531744 0.47627825 0.7124654 0.18156238 0.46073893 0.8687662 0.7875376 0.5569435 0.2638153 -0.42526165 0.47793165 0.7685921 -0.6815847 0.4511349 0.5761246 -0.03518922 0.43595535 0.8992801 </float_array>
          <technique_common>
            <accessor source="#normals-array" count="751" stride="3">
              <param name="X" type="float" />
              <param name="Y" type="float" />
              <param name="Z" type="float" />
            </accessor>
          </technique_common>
        </source>
        <vertices id="vertices">
          <input semantic="POSITION" source="#positions" />
          <input semantic="TEXCOORD" source="#texcoords" />
          <input semantic="COLOR" source="#colors" />
          <input semantic="NORMAL" source="#normals" />
        </vertices>
        <polylist material="material0" count="4">
          <input semantic="VERTEX" source="#vertices" offset="0" />
          <vcount>4 4 4 4 </vcount>
          <p>0 1 2 3 4 5 6 7 8 9 10 11 12 13 14 15 </p>
        </polylist>
        <polylist material="material1" count="7">
          <input semantic="VERTEX" source="#vertices" offset="0" />
          <vcount>3 3 4 4 4 4 3 </vcount>
          <p>16 17 18 17 19 18 20 21 22 23 24 25 26 27 28 29 30 31 32 33 34 35 36 37 38 </p>
        </polylist>
        <polylist material="material5" count="14">
          <input semantic="VERTEX" source="#vertices" offset="0" />
          <vcount>3 3 3 3 3 3 3 4 4 4 3 3 3 3 </vcount>
          <p>39 40 41 40 42 41 41 42 43 44 45 46 45 47 46 48 49 50 49 51 50 52 53 54 55 56 57 58 59 60 61 62 63 64 65 66 67 68 69 70 71 72 73 74 75 </p>
        </polylist>
        <polylist material="material4" count="17">
          <input semantic="VERTEX" source="#vertices" offset="0" />
          <vcount>3 3 3 3 3 3 3 3 3 3 3 3 4 4 4 4 3 </vcount>
          <p>76 77 78 77 79 78 78 79 80 81 82 83 82 84 83 83 84 85 86 87 88 87 89 88 90 91 92 91 93 92 94 95 96 95 97 96 98 99 100 101 102 103 104 105 106 107 108 109 110 111 112 113 114 115 116 </p>
        </polylist>
        <polylist material="material2" count="18">
          <input semantic="VERTEX" source="#vertices" offset="0" />
          <vcount>4 4 4 4 4 4 4 4 4 4 4 4 4 4 4 4 4 4 </vcount>
          <p>117 118 120 119 119 120 122 121 121 122 124 123 123 124 126 125 125 126 128 127 127 128 130 129 129 130 132 131 131 132 134 133 133 134 136 135 137 138 140 139 139 140 142 141 141 142 144 143 143 144 146 145 145 146 148 147 147 148 150 149 149 150 152 151 151 152 154 153 153 154 156 155 </p>
        </polylist>
        <polylist material="material6" count="74">
          <input semantic="VERTEX" source="#vertices" offset="0" />
          <vcount>4 4 4 4 4 4 4 4 4 4 4 4 4 4 4 4 4 4 4 4 4 4 4 4 4 4 4 4 4 4 4 4 4 4 4 4 4 4 4 4 4 4 4 4 3 3 3 3 3 3 3 3 3 3 3 3 3 3 3 3 3 3 4 3 3 3 3 3 3 3 3 3 3 3 </vcount>
          <p>157 158 160 159 159 160 162 161 161 162 164 163 163 164 166 165 165 166 168 167 167 168 170 169 169 170 172 171 171 172 174 173 173 174 176 175 175 176 178 177 177 178 180 179 181 182 184 183 183 184 186 185 185 186 188 187 187 188 190 189 189 190 192 191 191 192 194 193 193 194 196 195 195 196 198 197 197 198 200 199 199 200 202 201 201 202 204 203 205 206 208 207 207 208 210 209 209 210 212 211 211 212 214 213 213 214 216 215 215 216 218 217 219 220 222 221 221 222 224 223 223 224 226 225 225 226 228 227 229 230 232 231 231 232 234 233 233 234 236 235 237 238 240 239 239 240 242 241 241 242 244 243 245 246 248 247 247 248 250 249 249 250 252 251 253 254 256 255 255 256 258 257 257 258 260 259 261 262 263 262 264 263 263 264 265 264 266 265 265 266 267 266 268 267 267 268 269 270 271 272 271 273 272 272 273 274 273 275 274 276 277 278 277 279 278 278 279 280 281 282 283 282 284 283 285 286 287 286 288 287 289 290 291 292 293 294 295 296 297 298 299 300 301 302 303 304 305 306 307 308 309 310 311 312 313 314 315 316 317 318 319 320 321 322 323 324 325 </p>
        </polylist>
        <polylist material="material3" count="172">
          <input semantic="VERTEX" source="#vertices" offset="0" />
          <vcount>4 4 4 4 4 4 4 4 4 4 4 4 4 4 4 4 4 4 4 4 4 4 4 4 4 4 4 4 4 4 4 4 4 4 4 4 4 4 4 4 4 4 4 4 4 4 4 4 4 4 4 4 4 4 4 4 4 4 4 4 4 4 4 4 4 4 4 4 4 4 4 4 4 4 4 4 4 4 4 4 4 4 4 3 3 3 3 3 3 3 3 3 3 3 3 3 3 3 3 3 3 3 3 3 3 3 3 3 3 3 3 3 3 3 3 3 3 3 3 3 3 3 3 3 3 3 3 3 3 3 3 3 3 3 3 3 3 3 3 3 3 3 3 4 4 4 4 4 4 4 4 4 4 3 3 3 3 3 3 3 3 3 3 3 3 3 3 3 3 3 3 3 </vcount>
          <p>326 327 329 328 328 329 331 330 330 331 333 332 332 333 335 334 334 335 337 336 336 337 339 338 340 341 343 342 342 343 345 344 344 345 347 346 346 347 349 348 348 349 351 350 352 353 355 354 354 355 357 356 356 357 359 358 358 359 361 360 362 363 365 364 364 365 367 366 366 367 369 368 368 369 371 370 372 373 375 374 374 375 377 376 376 377 379 378 378 379 381 380 382 383 385 384 384 385 387 386 386 387 389 388 388 389 391 390 392 393 395 394 394 395 397 396 396 397 399 398 398 399 401 400 402 403 405 404 404 405 407 406 406 407 409 408 410 411 413 412 412 413 415 414 414 415 417 416 418 419 421 420 420 421 423 422 422 423 425 424 426 427 429 428 428 429 431 430 430 431 433 432 434 435 437 436 436 437 439 438 438 439 441 440 442 443 445 444 444 445 447 446 446 447 449 448 450 451 453 452 452 453 455 454 454 455 457 456 458 459 461 460 460 461 463 462 462 463 465 464 466 467 469 468 468 469 471 470 472 473 475 474 474 475 477 476 478 479 481 480 480 481 483 482 484 485 487 486 486 487 489 488 490 491 493 492 492 493 495 494 496 497 499 498 498 499 501 500 502 503 505 504 504 505 507 506 508 509 511 510 510 511 513 512 514 515 517 516 516 517 519 518 520 521 523 522 522 523 525 524 526 527 529 528 528 529 531 530 532 533 535 534 534 535 537 536 538 539 541 540 540 541 543 542 544 545 547 546 546 547 549 548 550 551 552 551 553 552 552 553 554 553 555 554 554 555 556 557 558 559 558 560 559 559 560 561 560 562 561 561 562 563 564 565 566 565 567 566 566 567 568 567 569 568 570 571 572 571 573 572 572 573 574 573 575 574 576 577 578 577 579 578 578 579 580 581 582 583 582 584 583 583 584 585 586 587 588 587 589 588 588 589 590 591 592 593 592 594 593 593 594 595 596 597 598 597 599 598 598 599 600 601 602 603 602 604 603 603 604 605 606 607 608 607 609 608 610 611 612 611 613 612 614 615 616 615 617 616 618 619 620 619 621 620 622 623 624 623 625 624 626 627 628 627 629 628 630 631 632 631 633 632 634 635 636 635 637 636 638 639 640 639 641 640 642 643 644 643 645 644 646 647 648 647 649 648 650 651 652 651 653 652 654 655 656 657 658 659 660 661 662 663 664 665 666 667 668 669 670 671 672 673 674 675 676 677 678 679 680 681 682 683 684 685 686 687 688 689 690 691 692 693 694 695 696 697 698 699 700 701 702 703 704 705 706 707 708 709 710 711 712 713 714 715 716 717 718 719 720 721 722 723 724 725 726 727 728 729 730 731 732 733 734 735 736 737 738 739 740 741 742 743 744 745 746 747 748 749 750 </p>
        </polylist>
      </mesh>
    </geometry>
  </library_geometries>
  <library_visual_scenes>
    <visual_scene id="scene0" name="wf_mugen_s1">
      <node id="node" name="wf_mugen_s1" type="NODE">
        <instance_geometry url="#geometry">
          <bind_material>
            <technique_common>
              <instance_material symbol="material0" target="#material0">
                <bind_vertex_input semantic="tc" input_semantic="TEXCOORD" />
              </instance_material>
              <instance_material symbol="material1" target="#material1">
                <bind_vertex_input semantic="tc" input_semantic="TEXCOORD" />
              </instance_material>
              <instance_material symbol="material2" target="#material2">
                <bind_vertex_input semantic="tc" input_semantic="TEXCOORD" />
              </instance_material>
              <instance_material symbol="material3" target="#material3">
                <bind_vertex_input semantic="tc" input_semantic="TEXCOORD" />
              </instance_material>
              <instance_material symbol="material4" target="#material4">
                <bind_vertex_input semantic="tc" input_semantic="TEXCOORD" />
              </instance_material>
              <instance_material symbol="material5" target="#material5">
                <bind_vertex_input semantic="tc" input_semantic="TEXCOORD" />
              </instance_material>
              <instance_material symbol="material6" target="#material6">
                <bind_vertex_input semantic="tc" input_semantic="TEXCOORD" />
              </instance_material>
            </technique_common>
          </bind_material>
        </instance_geometry>
      </node>
    </visual_scene>
  </library_visual_scenes>
  <scene>
    <instance_visual_scene url="#scene0" />
  </scene>
</COLLADA>